P2
# Created by IrfanView
64 64
255
0 0 0 0 0 0 0 0 0 0 0 0 0 0 0 0 0 
0 0 0 0 0 0 0 0 0 0 0 1 1 1 1 1 
0 0 0 0 0 0 0 0 0 0 0 0 0 0 0 0 
0 0 0 0 0 0 0 0 0 0 0 0 0 0 0 0 0 0 0 0 0 0 0 0 0 0 0 0 0 0 0 0 
0 0 0 0 0 0 0 0 1 1 1 1 1 1 1 1 
1 1 0 0 0 0 0 0 0 0 0 0 0 0 0 0 
0 0 0 0 0 0 0 0 0 0 0 0 0 0 0 0 0 0 0 0 0 0 0 0 0 0 0 0 0 0 0 0 
0 0 0 0 0 0 1 1 1 1 1 1 1 1 1 1 
1 1 1 1 0 0 0 0 0 0 0 0 0 0 0 0 
0 0 0 0 0 0 0 0 0 0 0 0 0 0 0 0 0 0 0 0 0 0 0 0 0 0 0 0 0 0 0 0 
0 0 0 0 1 1 1 1 2 2 2 2 2 1 1 1 
1 1 1 1 0 0 0 0 0 0 0 0 0 0 0 0 
0 0 0 0 0 0 0 0 0 0 0 0 0 0 0 0 0 0 0 0 0 0 0 0 0 0 0 0 0 0 0 0 
0 0 1 1 1 2 2 2 2 2 2 2 2 2 1 1 
1 1 1 1 1 0 0 0 0 0 0 0 0 0 0 0 
0 0 0 0 0 0 0 0 0 0 0 0 0 0 0 0 0 0 0 0 0 0 0 0 0 0 0 0 0 0 0 0 
1 1 2 2 2 2 2 2 2 2 2 2 2 2 1 1 
1 1 1 0 0 0 0 0 0 0 0 0 0 0 0 0 
0 0 0 0 0 0 0 0 0 0 0 0 0 0 0 0 0 0 0 0 0 0 0 0 0 0 0 0 0 0 1 1 
2 2 3 3 3 3 3 3 3 3 2 2 2 1 1 1 
1 0 0 0 0 0 0 0 0 0 0 0 0 0 0 0 
0 0 0 0 0 0 0 0 0 0 0 0 0 0 0 0 0 0 0 0 0 0 0 0 0 0 0 1 1 2 2 3 
3 3 4 4 4 4 3 3 3 3 2 2 1 1 0 0 
0 0 0 0 0 0 0 0 0 0 0 0 0 0 0 0 
0 0 0 0 0 0 0 0 0 0 0 0 0 0 0 0 0 0 0 0 0 0 0 0 0 1 1 2 3 3 4 4 
4 5 5 5 4 4 4 3 3 2 1 1 0 0 0 0 
0 0 0 0 0 0 0 0 0 0 0 0 0 1 1 1 
1 1 1 0 0 0 0 0 0 0 0 0 0 0 0 0 0 0 0 0 0 0 1 1 2 2 3 4 4 5 5 5 
6 6 6 5 5 4 4 3 2 1 0 0 0 0 0 0 
0 0 0 0 0 0 0 0 0 0 0 0 0 1 1 1 
1 1 1 1 1 1 0 0 0 0 0 0 0 0 0 0 0 0 1 1 1 2 2 3 3 4 5 5 6 6 7 7 
7 7 7 6 5 5 3 2 1 0 0 0 0 0 0 0 
0 0 0 0 0 0 0 0 0 0 0 0 0 1 1 1 
2 2 2 2 2 1 1 1 1 0 0 0 0 0 0 1 1 2 2 2 3 3 4 5 5 6 6 7 7 8 8 8 
8 8 7 6 5 4 3 1 0 0 0 0 0 0 0 0 
0 0 0 0 0 0 0 0 0 0 0 0 0 0 1 2 
2 2 2 2 2 2 2 1 1 1 0 0 0 0 0 2 2 3 3 4 4 5 5 6 7 7 8 9 9 9 10 9 
9 9 8 7 5 3 1 0 0 0 0 0 0 0 0 0 
0 0 0 0 0 0 0 0 0 0 0 0 0 0 1 2 
2 3 3 3 3 3 2 2 2 1 1 0 0 0 0 3 3 4 5 5 6 6 7 8 8 9 10 10 11 11 11 11 
10 9 8 6 4 2 0 0 0 0 0 0 0 0 0 0 
0 0 0 0 0 0 0 0 0 0 0 0 0 0 1 2 
3 3 3 3 3 3 3 3 2 2 1 0 0 0 0 4 5 5 6 6 7 8 8 9 10 11 11 12 12 12 12 12 
11 10 8 6 3 0 0 0 0 0 0 0 0 0 0 0 
0 0 0 0 0 0 0 0 0 0 0 0 0 0 0 2 
3 3 4 4 4 4 3 3 2 2 1 1 0 0 0 5 5 6 7 7 8 9 10 11 11 12 13 13 13 13 13 12 
11 10 8 5 2 0 0 0 0 0 0 0 0 0 0 0 
0 0 0 0 0 0 0 0 0 0 0 0 0 0 0 1 
3 3 4 4 4 4 4 3 3 2 1 1 0 0 0 6 6 7 8 8 9 10 11 12 12 13 14 14 14 14 14 13 
12 10 7 4 0 0 0 0 0 0 0 0 0 0 0 0 
0 0 0 0 0 0 0 0 0 0 0 0 0 0 0 1 
3 4 4 4 5 4 4 4 3 2 2 1 0 0 0 6 7 8 8 9 10 11 12 13 13 14 15 15 15 15 14 13 
12 9 6 2 0 0 0 0 0 0 0 0 0 0 0 0 
0 0 0 0 0 0 0 0 0 0 0 0 0 0 0 1 
2 4 4 5 5 5 4 4 3 3 2 1 0 0 0 7 7 8 9 10 11 12 13 13 14 15 15 16 16 16 15 14 
12 9 5 0 0 0 0 0 0 0 0 0 0 0 0 0 
0 0 0 0 0 0 0 0 0 0 0 0 0 0 0 0 
2 3 4 5 5 5 5 4 3 3 2 1 0 0 0 7 8 9 10 10 11 12 13 14 15 15 16 16 16 16 15 13 
11 8 3 0 0 0 0 0 0 0 0 0 0 0 0 0 
0 0 0 0 0 0 0 0 0 0 0 0 0 0 0 0 
2 3 4 5 5 5 5 4 3 3 2 1 0 0 0 7 8 9 10 11 12 13 13 14 15 16 16 17 16 16 15 13 
11 7 2 0 0 0 0 0 0 0 0 0 0 0 0 0 
0 0 0 0 0 0 0 0 0 0 0 0 0 0 0 0 
1 3 4 5 5 5 5 4 3 3 2 1 0 0 0 7 8 9 10 11 12 13 14 14 15 16 16 17 16 16 15 13 
10 6 0 0 0 0 0 0 0 0 0 0 0 0 0 0 
0 0 0 0 0 0 0 0 0 0 0 0 0 0 0 0 
1 3 4 5 5 5 5 4 3 3 2 1 0 0 0 7 8 9 10 11 12 13 14 14 15 16 16 16 16 16 14 12 
9 5 0 0 0 0 0 0 0 0 0 0 0 0 0 0 
0 0 0 0 0 0 0 0 0 0 0 0 0 0 0 0 
1 3 4 5 5 5 4 4 3 3 2 1 0 0 0 7 8 9 10 11 12 13 13 14 15 16 16 16 16 15 14 12 
8 4 0 0 0 0 0 0 0 0 0 0 0 0 0 0 
0 0 0 0 0 0 0 0 0 0 0 0 0 0 0 0 
0 2 4 4 5 5 4 4 3 2 2 1 0 0 0 7 8 9 10 11 11 12 13 14 15 15 16 16 15 15 13 11 
8 3 0 0 0 0 0 0 0 0 0 0 0 0 0 0 
0 0 0 0 0 0 0 0 0 0 0 0 0 0 0 0 
0 2 3 4 4 4 4 4 3 2 1 1 0 0 0 7 8 9 9 10 11 12 13 13 14 15 15 15 15 14 12 10 
7 3 0 0 0 0 0 0 0 0 0 0 0 0 0 0 
0 0 0 0 0 0 0 0 0 0 0 0 0 0 0 0 
0 2 3 4 4 4 4 3 3 2 1 0 0 0 0 7 8 8 9 10 11 11 12 13 14 14 14 14 14 13 12 10 
6 2 0 0 0 0 0 0 0 0 0 0 0 0 0 0 
0 0 0 0 0 0 0 0 0 0 0 0 0 0 0 0 
0 1 3 3 4 4 4 3 3 2 1 0 0 0 0 7 7 8 9 9 10 11 12 12 13 13 14 14 13 12 11 9 
6 2 0 0 0 0 0 0 0 0 0 0 0 0 0 0 
0 0 0 0 0 0 0 0 0 0 0 0 0 0 0 0 
0 1 2 3 3 3 3 3 2 2 1 0 0 0 0 6 7 8 8 9 10 10 11 12 12 13 13 13 12 12 10 8 
6 2 0 0 0 0 0 0 0 0 0 0 0 0 0 0 
0 0 0 0 0 0 0 0 0 0 0 0 0 0 0 0 
0 1 2 3 3 3 3 3 2 2 1 0 0 0 0 6 7 7 8 8 9 10 10 11 11 12 12 12 12 11 10 8 
6 2 0 0 0 0 0 0 0 0 0 0 0 0 0 0 
0 0 0 0 0 0 0 0 0 0 0 0 0 0 0 0 
0 1 2 3 3 3 3 2 2 1 1 0 0 0 0 6 6 7 7 8 9 9 10 10 11 11 11 11 11 10 9 8 
5 3 0 0 0 0 0 0 0 0 0 0 0 0 0 0 
0 0 0 0 0 0 0 0 0 0 0 0 0 0 0 0 
0 1 2 2 3 3 2 2 2 1 1 0 0 0 0 5 6 6 7 7 8 9 9 10 10 10 11 11 10 10 9 7 
5 3 0 0 0 0 0 0 0 0 0 0 0 0 0 0 
0 0 0 0 0 0 0 0 0 0 0 0 0 0 0 0 
0 1 1 2 2 2 2 2 1 1 1 0 0 0 0 5 5 6 7 7 8 8 9 9 9 10 10 10 10 9 8 7 
6 4 1 0 0 0 0 0 0 0 0 0 0 0 0 0 
0 0 0 0 0 0 0 0 0 0 0 0 0 0 0 0 
0 1 1 2 2 2 2 2 1 1 0 0 0 0 0 5 5 6 6 7 7 8 8 9 9 9 9 9 9 9 8 7 
6 4 2 0 0 0 0 0 0 0 0 0 0 0 0 0 
0 0 0 0 0 0 0 0 0 0 0 0 0 0 0 0 
0 1 1 1 2 2 2 1 1 1 0 0 0 0 0 4 5 5 6 6 7 7 8 8 8 9 9 9 9 8 8 7 
6 5 3 1 0 0 0 0 0 0 0 0 0 0 0 0 
0 0 0 0 0 0 0 0 0 0 0 0 0 0 0 0 
0 1 1 1 1 1 1 1 1 1 0 0 0 0 0 4 4 5 5 6 6 7 7 7 8 8 8 8 8 8 8 7 
6 5 4 3 2 0 0 0 0 0 0 0 0 0 0 0 
0 0 0 0 0 0 0 0 0 0 0 0 0 0 0 0 
0 0 1 1 1 1 1 1 1 0 0 0 0 0 0 4 4 5 5 5 6 6 7 7 7 7 8 8 8 8 7 7 
7 6 5 5 4 3 3 2 2 2 3 3 4 4 4 3 
2 1 0 0 0 0 0 0 0 0 0 0 0 0 0 0 
0 1 1 1 1 1 1 1 0 0 0 0 0 0 0 3 4 4 5 5 5 6 6 6 7 7 7 7 7 7 7 7 
7 7 6 6 6 6 6 6 7 8 9 11 12 13 13 13 
12 10 8 6 3 2 0 0 0 0 0 0 0 0 0 0 
0 1 1 1 1 1 1 1 0 0 0 0 0 0 0 3 4 4 4 5 5 5 6 6 6 7 7 7 7 7 7 7 
7 7 7 8 8 8 9 10 12 14 15 17 19 21 21 21 
20 18 15 13 10 7 5 3 2 1 1 0 0 0 0 0 
1 1 1 1 1 1 0 0 0 0 0 0 0 0 0 3 3 4 4 4 5 5 5 6 6 6 6 7 7 7 7 7 
8 8 8 9 10 11 12 14 16 19 21 24 26 28 29 29 
27 25 22 19 16 13 10 7 6 4 3 2 2 1 1 1 
1 1 1 1 1 0 0 0 0 0 0 0 0 0 0 3 3 3 4 4 4 5 5 5 5 6 6 6 7 7 7 7 
8 9 9 10 12 13 15 18 21 24 27 30 33 35 36 36 
35 32 29 25 22 18 14 11 9 7 5 4 3 2 2 1 
1 1 1 1 0 0 0 0 0 0 0 0 0 0 0 3 3 3 3 4 4 4 5 5 5 5 6 6 6 7 7 7 
8 9 10 12 14 16 19 22 26 30 34 38 42 44 46 45 
44 41 37 33 28 23 19 15 12 10 7 6 4 3 2 2 
1 1 1 1 0 0 0 0 0 0 0 0 0 0 0 2 3 3 3 3 4 4 4 4 5 5 5 5 6 6 7 7 
8 9 11 13 15 18 22 27 32 37 43 48 53 56 58 57 
55 52 47 41 35 30 24 20 16 12 10 7 6 4 3 2 
2 1 1 0 0 0 0 0 0 0 0 0 0 0 0 2 2 3 3 3 3 3 4 4 4 4 5 5 5 6 7 7 
8 10 12 14 17 21 26 32 39 46 52 60 66 71 73 73 
70 65 59 52 44 37 30 25 20 15 12 9 7 5 4 3 
2 1 1 1 0 0 0 0 0 0 0 0 0 0 0 2 2 2 2 3 3 3 3 3 4 4 4 5 5 5 6 7 
8 10 12 15 19 24 30 38 44 55 66 76 84 91 94 94 
90 84 75 65 55 46 37 30 24 18 14 11 8 6 4 3 
2 1 1 1 0 0 0 0 0 0 0 0 0 0 0 2 2 2 2 2 3 3 3 3 3 3 4 4 4 5 6 7 
8 10 12 16 20 26 34 41 53 66 80 93 104 112 116 116 
112 104 93 81 68 56 44 35 28 21 16 12 9 7 5 4 
2 2 1 1 0 0 0 0 0 0 0 0 0 0 0 1 2 2 2 2 2 2 2 3 3 3 3 3 4 4 5 6 
7 9 12 16 21 28 35 47 61 77 93 110 124 134 140 140 
134 124 111 96 80 65 52 41 31 24 18 14 10 8 6 4 
3 2 1 1 0 0 0 0 0 0 0 0 0 0 0 1 1 1 2 2 2 2 2 2 2 2 3 3 3 4 4 5 
7 9 12 16 21 26 37 51 67 85 105 124 141 154 161 162 
156 144 128 110 92 74 58 46 35 26 20 15 11 8 6 4 
3 2 1 1 0 0 0 0 0 0 0 0 0 0 0 1 1 1 1 1 1 1 2 2 2 2 2 2 2 3 3 4 
5 7 10 14 20 26 37 51 69 89 111 133 152 166 175 177 
171 159 141 121 100 81 63 48 37 28 21 16 12 9 6 4 
3 2 1 1 0 0 0 0 0 0 0 0 0 0 0 1 1 1 1 1 1 1 1 1 1 1 1 1 1 2 2 3 
4 6 8 12 14 23 34 48 66 87 110 132 149 162 171 176 
175 165 148 127 105 84 66 50 39 29 22 16 12 9 6 4 
3 2 1 1 0 0 0 0 0 0 0 0 0 0 0 1 1 1 1 1 1 1 1 1 1 1 1 1 1 1 1 1 
2 3 5 8 11 18 28 41 58 78 99 117 127 130 137 150 
161 159 146 126 105 84 65 50 36 29 21 16 12 8 6 4 
3 2 1 0 0 0 0 0 0 0 0 0 0 0 0 1 1 1 1 0 0 0 0 0 0 0 0 0 0 0 0 0 
0 1 2 4 5 11 19 30 44 62 79 89 85 69 68 96 
127 139 134 117 98 79 62 47 34 27 20 15 11 8 6 4 
3 2 1 0 0 0 0 0 0 0 0 0 0 0 0 0 0 0 0 0 0 0 0 0 0 0 0 0 0 0 0 0 
0 0 0 0 0 3 8 16 26 39 52 57 42 7 0 37 
87 111 112 101 85 69 54 41 31 24 18 13 10 7 5 4 
2 1 1 0 0 0 0 0 0 0 0 0 0 0 0 0 0 0 0 0 0 0 0 0 0 0 0 0 0 0 0 0 
0 0 0 0 0 0 0 0 6 14 24 29 20 0 0 17 
59 82 86 79 68 56 44 34 25 21 15 11 8 6 4 3 
2 1 1 0 0 0 0 0 0 0 0 0 0 0 0 0 0 0 0 0 0 0 0 0 0 0 0 0 0 0 0 0 
0 0 0 0 0 0 0 0 0 0 0 2 7 5 6 20 
40 53 58 55 48 41 33 26 19 16 12 9 7 5 3 2 
1 1 0 0 0 0 0 0 0 0 0 0 0 0 0 0 0 0 0 0 0 0 0 0 0 0 0 0 0 0 0 0 
0 0 0 0 0 0 0 0 0 0 0 0 0 0 0 6 
16 24 29 30 29 25 21 17 13 12 9 7 5 4 3 2 
1 0 0 0 0 0 0 0 0 0 0 0 0 0 0 0 0 0 0 0 0 0 0 0 0 0 0 0 0 0 0 0 
0 0 0 0 0 0 0 0 0 0 0 0 0 0 0 0 
0 0 4 9 11 11 10 9 9 7 6 4 3 2 1 1 
0 0 0 0 0 0 0 0 0 0 0 0 0 0 0 0 0 0 0 0 0 0 0 0 0 0 0 0 0 0 0 0 
0 0 0 0 0 0 0 0 0 0 0 0 0 0 0 0 
0 0 0 0 0 0 1 2 3 3 3 2 1 1 1 0 
0 0 0 0 0 0 0 0 0 0 0 0 0 0 0 0 0 0 0 0 0 0 0 0 0 0 0 0 0 0 0 0 
0 0 0 0 0 0 0 0 0 0 0 0 0 0 0 0 
0 0 0 0 0 0 0 0 0 0 0 0 0 0 0 0 
0 0 0 0 0 0 0 0 0 0 0 0 0 0 0 0 0 0 0 0 0 0 0 0 0 0 0 0 0 0 0 0 
0 0 0 0 0 0 0 0 0 0 0 0 0 0 0 0 
0 0 0 0 0 0 0 0 0 0 0 0 0 0 0 0 
0 0 0 0 0 0 0 0 0 0 0 0 0 0 0 0 0 0 0 0 0 0 0 0 0 0 0 0 0 0 0 0 
0 0 0 0 0 0 0 0 0 0 0 0 0 0 0 0 
0 0 0 0 0 0 0 0 0 0 0 0 0 0 0 0 
0 0 0 0 0 0 0 0 0 0 0 0 0 0 0 0 0 0 0 0 0 0 0 0 0 0 0 0 0 0 0 0 
0 0 0 0 0 0 0 0 0 0 0 0 0 0 0 0 
0 0 0 0 0 0 0 0 0 0 0 0 0 0 0 0 
0 0 0 0 0 0 0 0 0 0 0 0 0 0 0 0 0 0 0 0 0 0 0 0 0 0 0 0 0 0 0 0 
0 0 0 0 0 0 0 0 0 0 0 0 0 0 0 0 
0 0 0 0 0 0 0 0 0 0 0 0 0 0 0 0 
0 0 0 0 0 0 0 0 0 0 0 0 0 0 0 0 0 0 0 0 0 0 0 0 0 0 0 0 0 0 0 0 
0 0 0 0 0 0 0 0 0 0 0 0 0 0 0 0 
0 0 0 0 0 0 0 0 0 0 0 0 0 0 0 0 
0 0 0 0 0 0 0 0 0 0 0 0 0 0 0 