P2
# Created by IrfanView
64 64
255
0 0 0 0 0 0 0 0 0 0 0 0 0 0 0 0 0 
0 0 0 0 0 0 0 0 0 1 1 1 1 1 1 1 
1 1 1 1 0 0 0 0 0 0 0 0 0 0 0 0 
0 0 0 0 0 0 0 0 0 0 0 0 0 0 0 0 0 0 0 0 0 0 0 0 0 0 0 0 0 0 0 0 
0 0 0 0 0 0 0 1 1 1 1 2 2 2 2 2 
1 1 1 1 1 1 0 0 0 0 0 0 0 0 0 0 
0 0 0 0 0 0 0 0 0 0 0 0 0 0 0 0 0 0 0 0 0 0 0 0 0 0 0 0 0 0 0 0 
0 0 0 0 0 1 1 1 2 2 2 2 2 2 2 2 
2 2 2 1 1 1 1 0 0 0 0 0 0 0 0 0 
0 0 0 0 0 0 0 0 0 0 0 0 0 0 0 0 0 0 0 0 0 0 0 0 0 0 0 0 0 0 0 0 
0 0 0 1 1 2 2 2 2 3 3 3 3 3 3 2 
2 2 2 2 1 1 1 1 1 0 0 0 0 0 0 0 
0 0 0 0 0 0 0 0 0 0 0 0 0 0 0 0 0 0 0 0 0 0 0 0 0 0 0 0 0 0 0 0 
0 1 1 2 2 3 3 3 3 3 3 3 3 3 3 3 
3 2 2 2 2 1 1 1 1 1 0 0 0 0 0 0 
0 0 0 0 0 0 0 0 0 0 0 0 0 0 0 0 0 0 0 0 0 0 0 0 0 0 0 0 0 0 0 0 
1 2 2 3 3 3 4 4 4 4 4 4 4 3 3 3 
3 3 2 2 2 2 1 1 1 1 1 1 0 0 0 0 
0 0 0 0 0 0 0 0 0 0 0 0 0 0 0 0 0 0 0 0 0 0 0 0 0 0 0 0 0 0 1 2 
3 3 4 4 4 4 5 5 5 4 4 4 4 4 3 3 
3 2 2 2 2 2 1 1 1 1 1 1 1 1 1 0 
0 0 0 0 0 0 0 0 0 0 0 0 0 0 0 0 0 0 0 0 0 0 0 0 0 0 0 0 1 2 3 3 
4 5 5 5 5 5 5 5 5 5 5 4 4 3 3 3 
2 2 2 2 1 1 1 1 1 1 1 1 1 1 1 1 
1 1 0 0 0 0 0 0 0 0 0 0 0 0 0 0 0 0 0 0 0 0 0 0 0 1 1 2 3 4 5 5 
6 6 6 7 7 6 6 6 5 5 5 4 3 3 2 2 
2 1 1 1 1 1 1 1 1 1 1 2 2 2 2 2 
2 1 1 1 1 0 0 0 0 0 0 0 0 0 0 0 0 0 0 0 0 0 1 1 2 3 3 4 5 6 6 7 
7 8 8 8 7 7 7 6 5 5 4 3 2 2 1 0 
0 0 0 0 0 0 0 0 0 1 1 2 2 2 2 2 
2 2 2 2 1 1 1 1 0 0 0 0 0 0 0 0 0 0 0 1 1 2 3 3 4 5 6 6 7 8 8 9 
9 9 9 9 8 8 7 6 5 4 3 2 1 0 0 0 
0 0 0 0 0 0 0 0 0 0 1 1 2 2 3 3 
3 3 3 3 2 2 2 1 1 1 0 0 0 0 0 1 1 2 2 3 3 4 4 5 6 7 8 8 9 10 10 11 
11 11 10 10 9 8 7 5 4 2 0 0 0 0 0 0 
0 0 0 0 0 0 0 0 0 0 0 1 2 3 3 3 
4 4 4 3 3 3 3 2 2 1 1 0 0 0 0 2 3 3 4 4 5 6 6 7 8 9 10 11 11 12 12 12 
12 12 11 10 9 8 6 4 1 0 0 0 0 0 0 0 
0 0 0 0 0 0 0 0 0 0 0 0 1 2 3 4 
4 4 4 4 4 4 3 3 2 2 1 1 0 0 0 4 4 5 5 6 7 7 8 9 10 11 12 13 13 14 14 14 
14 13 12 11 9 7 4 1 0 0 0 0 2 0 0 0 
0 0 0 0 0 0 0 0 0 0 0 0 1 2 3 4 
5 5 5 5 5 4 4 4 3 2 2 1 0 0 0 5 5 6 7 7 8 9 10 11 12 13 14 14 15 15 16 15 
15 14 13 11 8 5 1 0 0 0 0 0 0 0 0 0 
0 0 0 0 0 0 0 0 0 0 0 0 0 2 3 4 
5 6 6 6 5 5 5 4 4 3 2 1 0 0 0 6 6 7 8 9 10 11 12 13 14 15 15 16 17 17 17 17 
16 15 13 10 7 3 0 0 0 0 0 0 0 0 0 0 
0 0 0 0 0 0 0 0 0 0 0 0 0 1 3 4 
5 6 6 6 6 6 5 5 4 3 2 1 0 0 0 7 7 8 9 10 11 12 13 14 15 16 17 18 18 18 18 18 
17 15 12 9 5 0 0 0 0 0 0 0 0 0 0 0 
0 0 0 0 0 0 0 0 0 0 0 0 0 0 2 4 
5 6 7 7 7 6 6 5 4 3 3 1 0 0 0 7 8 9 10 11 12 13 14 15 16 17 18 19 19 20 19 18 
17 15 12 7 2 0 0 0 0 0 0 0 0 0 0 0 
0 0 0 0 0 0 0 0 0 0 0 0 0 0 2 4 
5 6 7 7 7 7 6 5 5 4 3 1 0 0 0 8 9 10 11 12 13 14 15 16 17 18 19 20 20 20 20 19 
17 14 11 5 0 0 0 0 0 0 0 0 0 0 0 0 
0 0 0 0 0 0 0 0 0 0 0 0 0 0 1 3 
5 7 7 7 7 7 6 6 5 4 3 1 0 0 0 8 9 10 11 12 13 14 16 17 18 19 20 20 21 21 20 19 
17 14 9 3 0 0 0 0 0 0 0 0 0 0 0 0 
0 0 0 0 0 0 0 0 0 0 0 0 0 0 0 3 
5 6 7 7 7 7 7 6 5 4 3 1 0 0 0 9 9 10 11 13 14 15 16 17 18 19 20 21 21 21 20 19 
16 13 8 1 0 0 0 0 0 0 0 0 0 0 0 0 
0 0 0 0 0 0 0 0 0 0 0 0 0 0 0 2 
5 6 7 8 7 7 7 6 5 4 3 1 0 0 0 9 10 11 12 13 14 15 16 17 18 19 20 21 21 21 20 18 
16 12 6 0 0 0 0 0 0 0 0 0 0 0 0 0 
0 0 0 0 0 0 0 0 0 0 0 0 0 0 0 2 
5 6 7 7 7 7 7 6 5 4 3 1 0 0 0 9 10 11 12 13 14 15 16 17 18 19 20 21 21 21 20 18 
15 11 5 0 0 0 0 0 0 0 0 0 0 0 0 0 
0 0 0 0 0 0 0 0 0 0 0 0 0 0 0 1 
4 6 7 7 7 7 6 6 5 4 3 1 0 0 0 9 9 10 11 13 14 15 16 17 18 19 20 20 20 20 19 17 
14 9 3 0 0 0 0 0 0 0 0 0 0 0 0 0 
0 0 0 0 0 0 0 0 0 0 0 0 0 0 0 1 
4 6 7 7 7 7 6 5 5 3 2 1 0 0 0 8 9 10 11 12 13 14 15 16 18 18 19 20 20 19 18 16 
13 8 2 0 0 0 0 0 0 0 0 0 0 0 0 0 
0 0 0 0 0 0 0 0 0 0 0 0 0 0 0 1 
3 5 6 7 7 6 6 5 4 3 2 1 0 0 0 8 9 10 11 12 13 14 15 16 17 18 18 19 19 18 17 15 
12 7 1 0 0 0 0 0 0 0 0 0 0 0 0 0 
0 0 0 0 0 0 0 0 0 0 0 0 0 0 0 0 
3 5 6 6 6 6 6 5 4 3 2 1 0 0 0 8 9 9 10 11 12 13 14 15 16 17 18 18 18 17 16 14 
11 7 1 0 0 0 0 0 0 0 0 0 0 0 0 0 
0 0 0 0 0 0 0 0 0 0 0 0 0 0 0 0 
3 4 5 6 6 6 5 5 4 3 2 1 0 0 0 7 8 9 10 11 12 13 14 14 15 16 17 17 17 16 15 13 
10 6 1 0 0 0 0 0 0 0 0 0 0 0 0 0 
0 0 0 0 0 0 0 0 0 0 0 0 0 0 0 0 
2 4 5 5 6 5 5 4 3 3 2 1 0 0 0 7 8 9 9 10 11 12 13 14 14 15 16 16 16 15 14 12 
10 6 1 0 0 0 0 0 0 0 0 0 0 0 0 0 
0 0 0 0 0 0 0 0 0 0 0 0 0 0 0 0 
2 4 5 5 5 5 4 4 3 2 2 1 0 0 0 7 7 8 9 10 10 11 12 13 14 14 15 15 15 14 13 12 
9 6 1 0 0 0 0 0 0 0 0 0 0 0 0 0 
0 0 0 0 0 0 0 0 0 0 0 0 0 0 0 0 
2 3 4 5 5 4 4 3 3 2 1 1 0 0 0 6 7 8 8 9 10 11 11 12 13 13 14 14 14 13 12 11 
9 6 2 0 0 0 0 0 0 0 0 0 0 0 0 0 
0 0 0 0 0 0 0 0 0 0 0 0 0 0 0 0 
2 3 4 4 4 4 4 3 3 2 1 0 0 0 0 6 6 7 8 9 9 10 11 11 12 12 13 13 13 12 12 10 
8 6 3 0 0 0 0 0 0 0 0 0 0 0 0 0 
0 0 0 0 0 0 0 0 0 0 0 0 0 0 0 0 
2 3 3 4 4 4 3 3 2 2 1 0 0 0 0 5 6 7 7 8 9 9 10 11 11 12 12 12 12 12 11 10 
8 6 3 0 0 0 0 0 0 0 0 0 0 0 0 0 
0 0 0 0 0 0 0 0 0 0 0 0 0 0 0 0 
1 2 3 3 3 3 3 2 2 1 1 0 0 0 0 5 6 6 7 7 8 9 9 10 10 11 11 11 11 11 10 9 
8 6 4 2 0 0 0 0 0 0 0 0 0 0 0 0 
0 0 0 0 0 0 0 0 0 0 0 0 0 0 0 0 
1 2 3 3 3 3 2 2 2 1 1 0 0 0 0 5 5 6 6 7 8 8 9 9 10 10 10 10 10 10 10 9 
8 7 5 3 1 0 0 0 0 0 0 0 0 0 0 0 
0 0 0 0 0 0 0 0 0 0 0 0 0 0 0 0 
1 2 2 2 2 2 2 2 1 1 1 0 0 0 0 4 5 5 6 7 7 8 8 9 9 9 10 10 10 10 9 9 
8 7 6 5 3 2 0 0 0 0 0 0 0 0 0 0 
0 0 0 0 0 0 0 0 0 0 0 0 0 0 0 0 
1 2 2 2 2 2 2 1 1 1 0 0 0 0 0 4 5 5 6 6 7 7 7 8 8 9 9 9 9 9 9 9 
8 7 7 6 5 4 4 4 4 4 5 7 8 9 10 10 
8 6 3 1 0 0 0 0 0 0 0 0 0 0 0 1 
1 1 2 2 2 2 1 1 1 1 0 0 0 0 0 4 4 5 5 6 6 7 7 7 8 8 8 9 9 9 9 9 
8 8 8 7 7 7 7 8 9 10 12 15 17 19 16 16 
14 16 12 9 6 3 1 0 0 0 0 0 0 0 1 1 
1 1 1 1 1 1 1 1 1 0 0 0 0 0 0 4 4 4 5 5 6 6 7 7 7 8 8 8 8 8 8 8 
8 8 8 9 9 9 10 11 13 15 18 21 24 23 24 24 
23 21 20 16 12 9 6 4 3 2 1 1 1 1 1 1 
1 1 1 1 1 1 1 1 1 0 0 0 0 0 0 3 4 4 4 5 5 6 6 6 7 7 7 8 8 8 8 8 
9 9 9 10 11 12 13 15 17 20 23 26 29 30 31 31 
29 28 25 21 17 13 10 8 6 4 3 2 2 2 1 1 
1 1 1 1 1 1 1 1 0 0 0 0 0 0 0 3 3 4 4 5 5 5 6 6 6 7 7 7 7 8 8 8 
9 9 10 11 12 14 16 18 21 24 28 32 36 36 36 36 
35 33 31 27 22 18 14 11 9 7 5 4 3 3 2 2 
1 1 1 1 1 1 1 0 0 0 0 0 0 0 0 3 3 3 4 4 5 5 5 5 6 6 6 7 7 7 8 8 
9 10 11 12 14 16 19 22 26 30 34 38 41 41 41 40 
39 38 37 33 28 23 19 15 12 9 7 6 4 3 3 2 
2 1 1 1 1 1 0 0 0 0 0 0 0 0 0 3 3 3 3 4 4 4 5 5 5 6 6 6 7 7 8 8 
9 10 12 13 16 19 22 26 31 36 41 46 51 47 46 46 
45 44 45 40 34 29 24 19 15 12 10 7 6 4 3 2 
2 1 1 1 1 0 0 0 0 0 0 0 0 0 0 2 3 3 3 3 4 4 4 5 5 5 5 6 6 7 7 8 
9 10 12 15 18 21 26 31 37 44 51 58 64 68 70 70 
67 63 56 50 43 36 29 24 19 15 12 9 7 5 4 3 
2 2 1 1 0 0 0 0 0 0 0 0 0 0 0 2 2 3 3 3 3 4 4 4 4 5 5 5 6 6 7 8 
9 11 13 16 19 24 30 37 45 54 64 74 82 87 90 90 
87 80 72 63 53 44 36 29 23 18 14 11 8 6 5 3 
2 2 1 1 0 0 0 0 0 0 0 0 0 0 0 2 2 2 3 3 3 3 3 4 4 4 4 5 5 6 6 7 
9 11 13 16 21 27 34 41 53 65 78 90 101 108 112 112 
108 100 90 78 65 53 43 34 27 21 16 12 9 7 5 4 
3 2 1 1 0 0 0 0 0 0 0 0 0 0 0 2 2 2 2 2 3 3 3 3 3 3 4 4 4 5 6 7 
8 10 13 17 22 29 35 47 61 76 92 107 120 130 135 135 
129 120 107 93 78 63 50 39 31 24 18 14 10 8 6 4 
3 2 1 1 0 0 0 0 0 0 0 0 0 0 0 1 2 2 2 2 2 2 2 3 3 3 3 3 4 4 5 6 
8 10 13 17 22 30 38 51 67 85 104 122 138 150 156 156 
150 139 124 106 89 72 56 44 34 26 20 15 11 8 6 4 
3 2 1 1 0 0 0 0 0 0 0 0 0 0 0 1 1 1 2 2 2 2 2 2 2 2 2 3 3 3 4 5 
7 9 11 16 22 27 39 53 70 90 111 132 151 165 172 173 
167 154 137 118 98 79 62 49 37 28 21 16 12 9 6 5 
3 2 1 1 0 0 0 0 0 0 0 0 0 0 0 1 1 1 1 1 1 1 1 2 2 2 2 2 2 3 3 4 
5 7 10 14 16 25 37 52 70 90 113 135 154 169 178 180 
175 163 145 125 103 83 65 49 39 29 22 16 12 9 6 5 
3 2 1 1 0 0 0 0 0 0 0 0 0 0 0 1 1 1 1 1 1 1 1 1 1 1 1 1 1 1 2 2 
3 5 7 11 14 22 32 46 64 84 107 128 145 157 166 171 
171 162 146 125 104 83 65 49 39 29 22 16 12 9 6 4 
3 2 1 1 0 0 0 0 0 0 0 0 0 0 0 1 1 1 1 1 1 1 1 1 0 0 0 0 0 0 1 1 
2 3 4 7 9 16 25 37 53 71 91 109 121 128 135 146 
153 150 137 119 98 79 62 47 37 28 21 15 11 8 6 4 
3 2 1 0 0 0 0 0 0 0 0 0 0 0 0 0 0 0 0 0 0 0 0 0 0 0 0 0 0 0 0 0 
0 0 1 3 4 8 15 25 37 53 69 83 90 92 98 112 
126 128 120 105 88 71 56 43 31 25 19 14 10 8 5 4 
3 2 1 0 0 0 0 0 0 0 0 0 0 0 0 0 0 0 0 0 0 0 0 0 0 0 0 0 0 0 0 0 
0 0 0 0 0 0 4 11 19 30 43 54 61 63 69 83 
97 102 97 86 73 59 47 36 27 22 16 12 9 7 5 3 
2 1 1 0 0 0 0 0 0 0 0 0 0 0 0 0 0 0 0 0 0 0 0 0 0 0 0 0 0 0 0 0 
0 0 0 0 0 0 0 0 1 7 16 25 34 40 47 58 
68 72 70 64 55 46 37 28 21 18 13 10 7 5 4 3 
2 1 0 0 0 0 0 0 0 0 0 0 0 0 0 0 0 0 0 0 0 0 0 0 0 0 0 0 0 0 0 0 
0 0 0 0 0 0 0 0 0 0 0 0 5 13 22 30 
38 43 43 41 37 31 26 20 17 13 10 8 6 4 3 2 
1 1 0 0 0 0 0 0 0 0 0 0 0 0 0 0 0 0 0 0 0 0 0 0 0 0 0 0 0 0 0 0 
0 0 0 0 0 0 0 0 0 0 0 0 0 0 0 2 
9 15 19 20 20 18 15 12 11 9 7 5 4 3 2 1 
1 0 0 0 0 0 0 0 0 0 0 0 0 0 0 0 0 0 0 0 0 0 0 0 0 0 0 0 0 0 0 0 
0 0 0 0 0 0 0 0 0 0 0 0 0 0 0 0 
0 0 0 3 5 6 6 5 6 5 4 3 2 2 1 1 
0 0 0 0 0 0 0 0 0 0 0 0 0 0 0 0 0 0 0 0 0 0 0 0 0 0 0 0 0 0 0 0 
0 0 0 0 0 0 0 0 0 0 0 0 0 0 0 0 
0 0 0 0 0 0 0 1 2 2 1 1 1 0 0 0 
0 0 0 0 0 0 0 0 0 0 0 0 0 0 0 0 0 0 0 0 0 0 0 0 0 0 0 0 0 0 0 0 
0 0 0 0 0 0 0 0 0 0 0 0 0 0 0 0 
0 0 0 0 0 0 0 0 0 0 0 0 0 0 0 0 
0 0 0 0 0 0 0 0 0 0 0 0 0 0 0 0 0 0 0 0 0 0 0 0 0 0 0 0 0 0 0 0 
0 0 0 0 0 0 0 0 0 0 0 0 0 0 0 0 
0 0 0 0 0 0 0 0 0 0 0 0 0 0 0 0 
0 0 0 0 0 0 0 0 0 0 0 0 0 0 0 0 0 0 0 0 0 0 0 0 0 0 0 0 0 0 0 0 
0 0 0 0 0 0 0 0 0 0 0 0 0 0 0 0 
0 0 0 0 0 0 0 0 0 0 0 0 0 0 0 0 
0 0 0 0 0 0 0 0 0 0 0 0 0 0 0 0 0 0 0 0 0 0 0 0 0 0 0 0 0 0 0 0 
0 0 0 0 0 0 0 0 0 0 0 0 0 0 0 0 
0 0 0 0 0 0 0 0 0 0 0 0 0 0 0 0 
0 0 0 0 0 0 0 0 0 0 0 0 0 0 0 0 0 0 0 0 0 0 0 0 0 0 0 0 0 0 0 0 
0 0 0 0 0 0 0 0 0 0 0 0 0 0 0 0 
0 0 0 0 0 0 0 0 0 0 0 0 0 0 0 0 
0 0 0 0 0 0 0 0 0 0 0 0 0 0 0 