P2
# Created by IrfanView
64 64
255
0 0 0 0 0 0 0 0 0 0 0 0 0 0 0 0 0 
0 0 0 0 0 0 0 0 1 1 1 2 2 2 2 2 
2 1 1 1 1 1 0 0 0 0 0 0 0 0 0 0 
0 0 0 0 0 0 0 0 0 0 0 0 0 0 0 0 0 0 0 0 0 0 0 0 0 0 0 0 0 0 0 0 
0 0 0 0 0 0 1 1 2 2 2 2 2 2 2 2 
2 2 2 2 1 1 1 1 0 0 0 0 0 0 0 0 
0 0 0 0 0 0 0 0 0 0 0 0 0 0 0 0 0 0 0 0 0 0 0 0 0 0 0 0 0 0 0 0 
0 0 0 0 1 1 2 2 2 3 3 3 3 3 3 3 
3 3 2 2 2 2 1 1 1 0 0 0 0 0 0 0 
0 0 0 0 0 0 0 0 0 0 0 0 0 0 0 0 0 0 0 0 0 0 0 0 0 0 0 0 0 0 0 0 
0 0 0 1 2 2 3 3 3 4 4 4 4 4 4 4 
3 3 3 3 3 2 2 2 1 1 1 0 0 0 0 0 
0 0 0 0 0 0 0 0 0 0 0 0 0 0 0 0 0 0 0 0 0 0 0 0 0 0 0 0 0 0 0 0 
0 1 2 2 3 3 4 4 4 5 5 5 5 5 5 4 
4 4 4 3 3 3 2 2 2 1 1 1 0 0 0 0 
0 0 0 0 0 0 0 0 0 0 0 0 0 0 0 0 0 0 0 0 0 0 0 0 0 0 0 0 0 0 0 1 
1 2 3 4 4 5 5 5 5 6 6 6 6 5 5 5 
5 5 4 4 4 3 3 3 2 2 2 1 1 1 0 0 
0 0 0 0 0 0 0 0 0 0 0 0 0 0 0 0 0 0 0 0 0 0 0 0 0 0 0 0 0 0 1 2 
3 4 5 5 6 6 6 7 7 7 7 7 6 6 6 6 
5 5 5 4 4 4 3 3 3 3 2 2 2 2 1 1 
1 0 0 0 0 0 0 0 0 0 0 0 0 0 0 0 0 0 0 0 0 0 0 0 0 0 0 0 1 2 3 4 
5 6 6 7 7 7 8 8 8 8 7 7 7 7 6 6 
6 5 5 4 4 4 4 3 3 3 3 3 3 2 2 2 
1 1 1 0 0 0 0 0 0 0 0 0 0 0 0 0 0 0 0 0 0 0 0 0 0 0 1 2 3 5 5 6 
7 8 8 9 9 9 9 9 9 8 8 8 7 7 7 6 
6 5 5 4 4 4 3 3 3 3 3 3 3 3 3 3 
2 2 2 1 1 1 0 0 0 0 0 0 0 0 0 0 0 0 0 0 0 0 0 1 2 3 4 5 6 7 8 9 
9 10 10 10 10 10 10 10 9 9 8 8 7 7 6 5 
5 4 4 3 3 3 3 3 3 3 4 4 4 4 4 4 
3 3 3 3 2 2 1 1 1 0 0 0 0 0 0 0 0 0 0 1 1 2 3 3 4 5 6 7 9 9 10 11 
12 12 12 12 12 11 11 10 9 9 8 7 6 5 5 4 
3 2 2 2 1 1 2 2 3 3 3 4 4 5 5 5 
5 4 4 4 3 3 2 2 1 1 1 0 0 0 0 1 1 2 2 3 3 4 5 6 7 8 9 10 11 12 13 13 
14 14 14 14 13 12 11 10 9 8 7 5 4 3 2 1 
0 0 0 0 0 0 0 0 1 2 3 4 5 5 5 5 
5 5 5 5 4 4 3 3 2 2 1 1 0 0 0 3 3 4 4 5 6 7 7 8 10 11 12 13 14 15 15 16 
16 16 16 15 14 13 11 9 8 6 4 2 0 15 14 13 
12 12 0 0 0 0 0 0 0 1 2 3 5 5 6 6 
6 6 6 6 5 5 4 4 3 3 2 1 1 0 0 4 5 5 6 7 8 9 10 11 12 13 14 15 16 17 18 18 
18 18 17 16 14 12 10 8 5 2 0 10 8 6 4 2 
1 1 2 3 4 0 0 0 0 0 1 3 4 5 6 7 
7 7 7 7 7 6 5 5 4 3 3 2 1 0 0 5 6 7 8 9 10 11 12 13 14 15 17 18 19 19 20 20 
20 19 18 16 14 11 8 4 0 7 3 0 0 0 0 0 
0 0 0 0 0 0 0 0 0 0 0 1 3 5 7 7 
8 8 8 8 7 7 6 6 5 4 3 2 1 0 0 7 7 8 9 10 11 13 14 15 16 18 19 20 21 22 22 22 
21 20 19 16 13 9 5 0 2 0 0 0 0 0 0 0 
0 0 0 0 0 0 0 0 0 0 0 0 2 5 7 8 
9 9 9 9 8 8 7 6 5 4 3 2 1 0 0 8 9 10 11 12 13 14 15 17 18 19 21 22 23 23 24 23 
23 21 19 16 12 6 0 0 0 0 0 0 0 0 0 0 
0 0 0 0 0 0 0 0 0 0 0 0 1 4 6 8 
9 10 10 9 9 8 8 7 6 5 4 2 1 0 0 9 10 11 12 13 14 15 17 18 20 21 22 23 24 25 25 25 
23 22 19 15 9 2 0 0 0 0 0 0 0 0 0 0 
0 0 0 0 0 0 0 0 0 0 0 0 0 3 6 8 
9 10 10 10 10 9 8 7 6 5 4 2 1 0 0 9 10 11 13 14 15 16 18 19 21 22 23 25 25 26 26 25 
24 21 18 13 6 0 0 0 0 0 0 0 0 0 0 0 
0 0 0 0 0 0 0 0 0 0 0 0 0 2 6 8 
9 10 11 10 10 9 9 7 6 5 4 2 1 0 0 10 11 12 13 14 16 17 19 20 22 23 24 25 26 27 27 26 
24 21 17 11 3 0 0 0 0 0 0 0 0 0 0 0 
0 0 0 0 0 0 0 0 0 0 0 0 0 1 5 8 
9 10 11 11 10 10 9 8 7 5 4 2 1 0 0 10 11 12 13 15 16 18 19 20 22 23 25 26 27 27 27 26 
24 20 15 8 0 0 0 0 0 0 0 0 0 0 0 0 
0 0 0 0 0 0 0 0 0 0 0 0 0 0 4 7 
9 11 11 11 10 10 9 8 7 5 4 2 1 0 0 10 11 12 14 15 16 18 19 21 22 24 25 26 27 27 27 25 
23 19 14 6 0 0 0 0 0 0 0 0 0 0 0 0 
0 0 0 0 0 0 0 0 0 0 0 0 0 0 3 7 
9 10 11 11 10 10 9 8 6 5 4 2 0 0 0 10 11 12 13 15 16 18 19 20 22 23 25 26 26 27 26 25 
22 18 12 3 0 0 0 0 0 0 0 0 0 0 0 0 
0 0 0 0 0 0 0 0 0 0 0 0 0 0 3 6 
9 10 11 11 10 10 9 7 6 5 4 2 0 0 0 10 11 12 13 14 16 17 19 20 22 23 24 25 26 26 25 24 
21 17 10 1 0 0 0 0 0 0 0 0 0 0 0 0 
0 0 0 0 0 0 0 0 0 0 0 0 0 0 2 6 
8 10 10 10 10 9 8 7 6 5 3 2 0 0 0 9 11 12 13 14 15 17 18 20 21 22 23 24 25 25 24 23 
20 15 9 0 0 0 0 0 0 0 0 0 0 0 0 0 
0 0 0 0 0 0 0 0 0 0 0 0 0 0 1 5 
8 9 10 10 10 9 8 7 6 5 3 2 0 0 0 9 10 11 12 13 15 16 17 19 20 21 22 23 24 24 23 21 
18 14 8 0 0 0 0 0 0 0 0 0 0 0 0 0 
0 0 0 0 0 0 0 0 0 0 0 0 0 0 1 5 
7 9 9 10 9 9 8 7 5 4 3 2 0 0 0 9 10 11 12 13 14 15 17 18 19 20 21 22 23 22 22 20 
17 13 7 0 0 0 0 0 0 0 0 0 0 0 0 0 
0 0 0 0 0 0 0 0 0 0 0 0 0 0 1 4 
7 8 9 9 9 8 7 6 5 4 3 1 0 0 0 8 9 10 11 12 13 14 16 17 18 19 20 21 21 21 20 18 
16 12 6 0 0 0 0 0 0 0 0 0 0 0 0 0 
0 0 0 0 0 0 0 0 0 0 0 0 0 0 1 4 
6 8 8 8 8 7 7 6 5 4 2 1 0 0 0 8 9 10 11 12 13 14 15 16 17 18 19 19 20 20 19 17 
15 11 6 0 0 0 0 0 0 0 0 0 0 0 0 0 
0 0 0 0 0 0 0 0 0 0 0 0 0 0 0 4 
6 7 8 8 7 7 6 5 4 3 2 1 0 0 0 7 8 9 10 11 12 13 14 15 16 17 18 18 18 18 17 16 
14 10 5 0 0 0 0 0 0 0 0 0 0 0 0 0 
0 0 0 0 0 0 0 0 0 0 0 0 0 0 0 3 
5 6 7 7 7 6 6 5 4 3 2 1 0 0 0 7 8 8 9 10 11 12 13 14 15 16 16 17 17 17 16 15 
13 10 6 0 0 0 0 0 0 0 0 0 0 0 0 0 
0 0 0 0 0 0 0 0 0 0 0 0 0 0 1 3 
5 6 6 6 6 6 5 4 3 3 2 1 0 0 0 6 7 8 9 10 10 11 12 13 14 14 15 16 16 15 15 14 
12 9 6 1 0 0 0 0 0 0 0 0 0 0 0 0 
0 0 0 0 0 0 0 0 0 0 0 0 0 0 1 3 
4 5 6 6 5 5 4 4 3 2 2 1 0 0 0 6 7 7 8 9 10 11 11 12 13 13 14 14 14 14 14 13 
11 9 6 3 0 0 0 0 0 0 0 0 0 0 0 0 
0 0 0 0 0 0 0 0 0 0 0 0 0 0 1 2 
4 5 5 5 5 4 4 3 3 2 1 1 0 0 0 6 6 7 8 8 9 10 11 11 12 13 13 13 13 13 13 12 
11 9 7 4 1 0 0 0 0 0 0 0 0 0 0 0 
0 0 0 0 0 0 0 0 0 0 0 0 0 0 1 2 
3 4 4 4 4 4 3 3 2 2 1 0 0 0 0 5 6 6 7 8 8 9 10 10 11 12 12 12 12 12 12 11 
10 9 7 5 3 0 0 0 0 0 0 0 0 0 0 0 
0 0 0 0 0 0 0 0 0 0 0 0 0 0 1 2 
3 3 4 4 4 3 3 3 2 2 1 0 0 0 0 5 5 6 7 7 8 9 9 10 10 11 11 11 12 11 11 11 
10 9 8 6 5 3 2 1 0 0 0 2 3 1 3 4 
2 0 0 0 0 0 0 0 0 0 0 0 0 0 1 2 
3 3 3 3 3 3 3 2 2 1 1 0 0 0 0 5 5 6 6 7 7 8 9 9 10 10 10 11 11 11 11 10 
10 9 8 7 6 6 5 5 6 7 9 12 11 15 17 17 
15 12 7 5 1 0 0 0 0 0 0 0 0 0 1 2 
2 3 3 3 3 2 2 2 1 1 1 0 0 0 0 4 5 5 6 6 7 7 8 8 9 9 10 10 10 10 10 10 
10 9 9 8 8 8 8 9 10 13 16 17 21 25 27 27 
26 22 17 11 9 5 2 0 0 0 0 0 0 1 1 2 
2 2 2 2 2 2 2 2 1 1 1 0 0 0 0 4 4 5 5 6 6 7 7 8 8 9 9 9 10 10 10 10 
10 9 9 9 9 10 11 12 14 17 21 25 28 31 33 33 
32 28 24 19 14 10 7 4 3 2 1 1 1 1 2 2 
2 2 2 2 2 2 1 1 1 1 0 0 0 0 0 4 4 5 5 5 6 6 7 7 8 8 8 9 9 9 9 9 
10 10 10 10 11 12 13 15 18 21 28 30 32 34 36 36 
34 32 28 25 21 14 10 8 5 4 3 3 2 2 2 2 
2 2 2 2 2 1 1 1 1 1 0 0 0 0 0 3 4 4 5 5 5 6 6 7 7 8 8 8 8 9 9 9 
10 10 11 11 12 14 16 18 21 24 34 34 35 36 36 36 
35 33 31 29 27 18 14 11 8 6 5 4 3 3 2 2 
2 2 2 1 1 1 1 1 1 0 0 0 0 0 0 3 4 4 4 5 5 5 6 6 7 7 7 8 8 8 9 9 
10 10 11 12 14 16 18 21 24 28 40 39 38 37 37 36 
36 35 34 33 32 22 18 14 11 9 7 5 4 3 3 2 
2 2 1 1 1 1 1 1 0 0 0 0 0 0 0 3 3 4 4 4 5 5 5 6 6 6 7 7 7 8 8 9 
10 11 12 13 15 18 21 25 29 33 38 44 42 40 39 38 
38 38 38 38 32 27 22 18 14 11 9 7 5 4 3 3 
2 2 1 1 1 1 1 0 0 0 0 0 0 0 0 3 3 3 4 4 4 5 5 5 6 6 6 7 7 7 8 9 
10 11 13 15 17 20 24 29 35 40 46 51 48 46 44 43 
43 43 44 45 39 33 27 22 18 14 11 9 7 5 4 3 
2 2 1 1 1 0 0 0 0 0 0 0 0 0 0 2 3 3 3 4 4 4 4 5 5 5 6 6 6 7 8 8 
10 11 13 16 19 23 28 34 42 50 60 68 76 81 84 50 
50 51 51 56 48 40 33 27 21 17 13 10 8 6 4 3 
2 2 1 1 1 0 0 0 0 0 0 0 0 0 0 2 2 3 3 3 3 4 4 4 4 5 5 5 6 6 7 8 
9 11 13 16 20 26 32 40 50 61 73 84 94 100 104 103 
99 92 83 72 59 49 40 32 25 20 15 12 9 7 5 4 
3 2 1 1 0 0 0 0 0 0 0 0 0 0 0 2 2 2 3 3 3 3 3 4 4 4 4 5 5 6 6 7 
9 11 13 17 22 28 36 45 58 72 86 100 112 120 125 124 
120 111 99 86 72 58 47 37 29 23 17 13 10 7 5 4 
3 2 1 1 0 0 0 0 0 0 0 0 0 0 0 2 2 2 2 2 3 3 3 3 3 3 4 4 4 5 6 7 
8 10 13 17 22 30 37 50 64 81 98 114 129 139 145 145 
139 128 115 99 83 67 53 42 32 25 19 14 11 8 6 4 
3 2 1 1 0 0 0 0 0 0 0 0 0 0 0 1 2 2 2 2 2 2 2 3 3 3 3 3 4 4 5 6 
7 9 12 16 22 27 38 52 68 87 106 125 142 154 161 161 
155 143 127 110 91 74 58 46 35 27 20 15 11 8 6 4 
3 2 1 1 0 0 0 0 0 0 0 0 0 0 0 1 1 1 2 2 2 2 2 2 2 2 2 2 3 3 4 5 
6 8 11 15 21 26 38 52 69 88 109 130 148 162 170 171 
165 153 136 116 97 78 61 48 37 28 21 16 12 9 6 4 
3 2 1 1 0 0 0 0 0 0 0 0 0 0 0 1 1 1 1 1 1 1 1 1 1 1 2 2 2 2 3 3 
5 6 9 13 18 23 34 48 65 84 106 127 145 159 168 170 
166 154 138 118 98 79 62 47 37 28 21 16 12 9 6 4 
3 2 1 1 0 0 0 0 0 0 0 0 0 0 0 1 1 1 1 1 1 1 1 1 1 1 1 1 1 1 1 2 
3 4 6 9 11 19 28 41 56 75 95 115 132 145 153 158 
156 147 132 113 94 76 59 45 36 27 20 15 11 8 6 4 
3 2 1 0 0 0 0 0 0 0 0 0 0 0 0 1 1 1 1 1 1 1 0 0 0 0 0 0 0 0 0 0 
1 2 3 6 7 13 20 31 44 60 77 95 109 121 130 136 
137 131 118 102 85 69 54 41 33 25 19 14 10 8 5 4 
2 2 1 0 0 0 0 0 0 0 0 0 0 0 0 0 0 0 0 0 0 0 0 0 0 0 0 0 0 0 0 0 
0 0 0 1 2 5 11 19 29 41 55 70 83 93 102 108 
111 108 99 86 73 59 47 36 29 22 16 12 9 7 5 3 
2 1 1 0 0 0 0 0 0 0 0 0 0 0 0 0 0 0 0 0 0 0 0 0 0 0 0 0 0 0 0 0 
0 0 0 0 0 0 1 6 12 21 31 43 54 63 72 79 
82 81 76 67 57 47 38 29 24 18 14 10 8 6 4 3 
2 1 0 0 0 0 0 0 0 0 0 0 0 0 0 0 0 0 0 0 0 0 0 0 0 0 0 0 0 0 0 0 
0 0 0 0 0 0 0 0 0 2 8 16 25 34 42 48 
53 54 52 47 41 34 28 22 19 14 11 8 6 4 3 2 
1 1 0 0 0 0 0 0 0 0 0 0 0 0 0 0 0 0 0 0 0 0 0 0 0 0 0 0 0 0 0 0 
0 0 0 0 0 0 0 0 0 0 0 0 0 7 14 20 
25 28 29 28 25 22 18 14 13 10 8 6 4 3 2 1 
1 0 0 0 0 0 0 0 0 0 0 0 0 0 0 0 0 0 0 0 0 0 0 0 0 0 0 0 0 0 0 0 
0 0 0 0 0 0 0 0 0 0 0 0 0 0 0 0 
3 7 10 12 12 11 10 10 8 7 5 4 3 2 1 1 
0 0 0 0 0 0 0 0 0 0 0 0 0 0 0 0 0 0 0 0 0 0 0 0 0 0 0 0 0 0 0 0 
0 0 0 0 0 0 0 0 0 0 0 0 0 0 0 0 
0 0 0 0 1 2 3 4 4 3 3 2 1 1 0 0 
0 0 0 0 0 0 0 0 0 0 0 0 0 0 0 0 0 0 0 0 0 0 0 0 0 0 0 0 0 0 0 0 
0 0 0 0 0 0 0 0 0 0 0 0 0 0 0 0 
0 0 0 0 0 0 0 0 0 0 0 0 0 0 0 0 
0 0 0 0 0 0 0 0 0 0 0 0 0 0 0 0 0 0 0 0 0 0 0 0 0 0 0 0 0 0 0 0 
0 0 0 0 0 0 0 0 0 0 0 0 0 0 0 0 
0 0 0 0 0 0 0 0 0 0 0 0 0 0 0 0 
0 0 0 0 0 0 0 0 0 0 0 0 0 0 0 0 0 0 0 0 0 0 0 0 0 0 0 0 0 0 0 0 
0 0 0 0 0 0 0 0 0 0 0 0 0 0 0 0 
0 0 0 0 0 0 0 0 0 0 0 0 0 0 0 0 
0 0 0 0 0 0 0 0 0 0 0 0 0 0 0 0 0 0 0 0 0 0 0 0 0 0 0 0 0 0 0 0 
0 0 0 0 0 0 0 0 0 0 0 0 0 0 0 0 
0 0 0 0 0 0 0 0 0 0 0 0 0 0 0 0 
0 0 0 0 0 0 0 0 0 0 0 0 0 0 0 0 0 0 0 0 0 0 0 0 0 0 0 0 0 0 0 0 
0 0 0 0 0 0 0 0 0 0 0 0 0 0 0 0 
0 0 0 0 0 0 0 0 0 0 0 0 0 0 0 0 
0 0 0 0 0 0 0 0 0 0 0 0 0 0 0 