P2
# Created by IrfanView
64 64
255
0 0 0 0 0 0 0 0 0 0 0 0 0 0 0 0 0 
0 0 0 0 0 0 0 1 1 1 2 2 2 2 2 2 
2 2 2 2 1 1 1 0 0 0 0 0 0 0 0 0 
0 0 0 0 0 0 0 0 0 0 0 0 0 0 0 0 0 0 0 0 0 0 0 0 0 0 0 0 0 0 0 0 
0 0 0 0 0 0 1 2 2 2 3 3 3 3 3 3 
3 3 3 2 2 2 1 1 1 0 0 0 0 0 0 0 
0 0 0 0 0 0 0 0 0 0 0 0 0 0 0 0 0 0 0 0 0 0 0 0 0 0 0 0 0 0 0 0 
0 0 0 0 1 1 2 3 3 3 4 4 4 4 4 4 
4 4 3 3 3 3 2 2 1 1 0 0 0 0 0 0 
0 0 0 0 0 0 0 0 0 0 0 0 0 0 0 0 0 0 0 0 0 0 0 0 0 0 0 0 0 0 0 0 
0 0 0 1 2 3 3 4 4 5 5 5 5 5 5 5 
5 5 4 4 4 3 3 2 2 2 1 1 0 0 0 0 
0 0 0 0 0 0 0 0 0 0 0 0 0 0 0 0 0 0 0 0 0 0 0 0 0 0 0 0 0 0 0 0 
0 1 2 3 4 4 5 5 6 6 6 6 6 6 6 6 
6 6 5 5 5 4 4 3 3 2 2 1 1 0 0 0 
0 0 0 0 0 0 0 0 0 0 0 0 0 0 0 0 0 0 0 0 0 0 0 0 0 0 0 0 0 0 0 0 
2 3 4 5 5 6 6 7 7 7 8 8 8 8 7 7 
7 7 6 6 5 5 5 4 4 3 3 2 2 1 1 0 
0 0 0 0 0 0 0 0 0 0 0 0 0 0 0 0 0 0 0 0 0 0 0 0 0 0 0 0 0 0 1 3 
4 5 6 7 7 8 8 9 9 9 9 9 9 9 9 8 
8 8 7 7 6 6 5 5 5 4 4 3 3 2 2 1 
1 0 0 0 0 0 0 0 0 0 0 0 0 0 0 0 0 0 0 0 0 0 0 0 0 0 0 0 1 2 4 5 
6 7 8 9 9 10 10 10 11 11 11 11 11 10 10 10 
9 9 8 8 7 7 6 6 5 5 5 4 4 3 3 3 
2 2 1 1 0 0 0 0 0 0 0 0 0 0 0 0 0 0 0 0 0 0 0 0 0 0 1 2 4 5 6 8 
9 10 10 11 11 12 12 12 12 12 12 12 12 12 11 11 
10 9 9 8 8 7 7 6 6 6 5 5 5 5 4 4 
3 3 2 2 1 1 0 0 0 0 0 0 0 0 0 0 0 0 0 0 0 0 0 1 2 3 4 5 7 8 9 10 
11 12 13 13 14 14 14 14 14 14 13 13 13 13 12 11 
11 10 9 8 8 7 7 7 6 6 6 6 6 6 6 5 
5 4 4 3 3 2 2 1 1 0 0 0 0 0 0 0 0 0 0 0 1 2 3 4 5 6 7 9 10 11 12 13 
14 15 15 16 16 16 15 15 15 15 14 14 13 13 12 11 
11 10 9 8 7 7 6 6 6 7 7 7 7 7 7 7 
6 6 5 5 4 4 3 3 2 2 1 1 0 0 0 1 1 2 2 3 4 5 6 7 8 9 11 12 13 14 16 17 
17 18 18 18 18 17 17 16 16 15 14 14 13 12 11 10 
9 8 7 6 5 5 5 5 6 6 7 7 8 8 8 8 
8 7 7 6 6 5 4 4 3 3 2 1 1 0 0 3 3 4 5 5 6 7 9 10 11 12 14 15 17 18 19 20 
20 20 20 20 20 19 18 17 15 14 13 12 24 23 23 22 
21 20 19 18 2 2 3 3 4 5 7 7 8 9 9 9 
9 9 8 8 7 6 6 5 4 4 3 2 1 0 0 5 5 6 7 8 9 10 11 13 14 16 17 18 20 21 22 23 
23 23 23 22 21 19 18 16 14 12 19 18 17 16 15 13 
12 11 10 10 11 0 0 0 2 4 6 7 8 9 10 10 
10 10 10 9 8 8 7 6 5 5 4 3 2 0 0 6 7 8 9 10 11 13 14 15 17 18 20 21 23 24 25 26 
26 25 25 23 22 19 17 14 11 13 11 9 6 3 1 0 
0 0 0 0 0 2 4 0 0 1 4 6 8 10 11 11 
11 11 11 10 10 9 8 7 6 5 4 3 2 0 0 8 9 10 11 12 14 15 16 18 20 21 23 24 26 27 28 28 
28 27 26 24 22 18 14 10 7 3 0 0 0 0 0 0 
0 0 0 0 0 0 0 0 0 0 2 5 8 10 11 12 
13 12 12 12 11 10 9 8 7 6 5 3 2 0 0 9 10 11 13 14 15 17 18 20 22 23 25 27 28 29 30 30 
30 29 27 24 21 16 10 3 0 0 0 0 0 0 0 0 
0 0 0 0 0 0 0 0 0 0 0 3 7 10 12 13 
13 13 13 13 12 11 10 9 8 6 5 4 2 0 0 10 11 12 14 15 17 18 20 22 24 25 27 29 30 31 32 32 
31 30 27 24 19 13 4 0 0 0 0 0 0 0 0 0 
0 0 0 0 0 0 0 0 0 0 0 1 6 9 12 13 
14 14 14 13 13 12 11 9 8 7 5 4 2 0 0 11 12 13 15 16 18 19 21 23 25 27 29 30 32 33 33 33 
32 30 27 23 16 8 0 0 0 0 0 0 0 0 0 0 
0 0 0 0 0 0 0 0 0 0 0 0 4 8 12 14 
15 15 15 14 13 12 11 10 8 7 5 4 2 0 0 11 13 14 15 17 18 20 22 24 26 28 30 31 33 34 34 34 
33 30 26 21 13 2 0 0 0 0 0 0 0 0 0 0 
0 0 0 0 0 0 0 0 0 0 0 0 2 7 11 14 
15 15 15 15 14 13 11 10 8 7 5 3 1 0 0 11 13 14 16 17 19 21 22 24 26 28 30 32 33 34 35 34 
33 30 25 18 9 0 0 0 0 0 0 0 0 0 0 0 
0 0 0 0 0 0 0 0 0 0 0 0 0 6 11 13 
15 16 15 15 14 13 11 10 8 7 5 3 1 0 0 11 13 14 16 17 19 21 22 24 26 28 30 32 33 34 35 34 
32 29 24 16 5 0 0 0 0 0 0 0 0 0 0 0 
0 0 0 0 0 0 0 0 0 0 0 0 0 5 10 13 
15 16 15 15 14 13 11 10 8 7 5 3 1 0 0 11 13 14 15 17 19 20 22 24 26 28 30 32 33 34 34 33 
31 28 22 13 1 0 0 0 0 0 0 0 0 0 0 0 
0 0 0 0 0 0 0 0 0 0 0 0 0 4 9 13 
15 15 15 15 14 13 11 10 8 7 5 3 1 0 0 11 12 14 15 17 18 20 22 24 26 27 29 31 32 33 33 32 
30 26 20 11 0 0 0 0 0 0 0 0 0 0 0 0 
0 0 0 0 0 0 0 0 0 0 0 0 0 3 9 12 
14 15 15 14 13 12 11 9 8 6 5 3 1 0 0 11 12 13 15 16 18 19 21 23 25 27 28 30 31 32 32 31 
28 24 18 9 0 0 0 0 0 0 0 0 0 0 0 0 
0 0 0 0 0 0 0 0 0 0 0 0 0 3 8 12 
14 14 14 14 13 12 10 9 7 6 4 3 1 0 0 10 11 13 14 15 17 18 20 22 24 25 27 29 30 30 30 29 
26 22 16 7 0 0 0 0 0 0 0 0 0 0 0 0 
0 0 0 0 0 0 0 0 0 0 0 0 0 2 7 11 
13 14 14 13 12 11 10 8 7 5 4 2 1 0 0 10 11 12 13 15 16 18 19 21 22 24 26 27 28 29 28 27 
25 20 14 6 0 0 0 0 0 0 0 0 0 0 0 0 
0 0 0 0 0 0 0 0 0 0 0 0 0 2 7 10 
12 13 13 13 12 11 9 8 7 5 4 2 1 0 0 9 10 11 13 14 15 17 18 20 21 23 24 25 26 27 26 25 
23 19 13 5 0 0 0 0 0 0 0 0 0 0 0 0 
0 0 0 0 0 0 0 0 0 0 0 0 0 1 6 9 
11 12 12 12 11 10 9 7 6 5 3 2 0 0 0 9 10 11 12 13 14 16 17 18 20 21 22 24 24 25 24 23 
21 17 12 5 0 0 0 0 0 0 0 0 0 0 0 0 
0 0 0 0 0 0 0 0 0 0 0 0 0 1 6 9 
10 11 11 11 10 9 8 7 5 4 3 2 0 0 0 8 9 10 11 12 13 14 16 17 18 20 21 22 22 23 22 21 
19 16 11 5 0 0 0 0 0 0 0 0 0 0 0 0 
0 0 0 0 0 0 0 0 0 0 0 0 0 1 5 8 
9 10 10 10 9 8 7 6 5 4 3 1 0 0 0 8 8 9 10 11 12 14 15 16 17 18 19 20 21 21 20 19 
17 14 10 5 0 0 0 0 0 0 0 0 0 0 0 0 
0 0 0 0 0 0 0 0 0 0 0 0 0 1 5 7 
8 9 9 9 8 7 7 6 5 3 2 1 0 0 0 7 8 9 10 11 12 13 14 15 16 17 18 18 19 19 19 18 
16 13 10 6 0 0 0 0 0 0 0 0 0 0 0 0 
0 0 0 0 0 0 0 0 0 0 0 0 0 1 4 6 
7 8 8 8 7 7 6 5 4 3 2 1 0 0 0 7 7 8 9 10 11 12 13 14 15 16 16 17 17 17 17 16 
15 13 10 6 2 0 0 0 0 0 0 0 0 0 0 0 
0 0 0 0 0 0 0 0 0 0 0 0 0 1 4 5 
6 7 7 7 7 6 5 4 4 3 2 1 0 0 0 6 7 8 8 9 10 11 12 13 14 14 15 16 16 16 16 15 
14 12 10 7 3 0 0 0 0 0 0 0 0 0 0 0 
0 0 0 0 0 0 0 0 0 0 0 0 0 1 3 5 
6 6 6 6 6 5 5 4 3 2 2 1 0 0 0 6 6 7 8 9 9 10 11 12 13 13 14 14 15 15 14 14 
13 11 10 7 5 2 0 0 0 0 0 0 0 0 1 2 
0 0 0 0 0 0 0 0 0 0 0 0 0 1 3 4 
5 5 5 5 5 5 4 3 3 2 1 1 0 0 0 5 6 7 7 8 9 9 10 11 12 12 13 13 14 14 13 13 
12 11 10 8 6 5 3 2 2 3 5 4 10 15 19 20 
17 12 5 0 0 0 0 0 0 0 0 0 0 1 3 4 
4 5 5 5 4 4 3 3 2 2 1 1 0 0 0 5 6 6 7 7 8 9 10 10 11 11 12 12 13 13 13 12 
12 11 10 9 8 7 7 7 8 11 9 16 23 29 34 35 
32 26 18 10 2 1 0 0 0 0 0 0 0 1 2 3 
4 4 4 4 4 3 3 3 2 1 1 0 0 0 0 5 5 6 6 7 8 8 9 10 10 11 11 11 12 12 12 12 
11 11 10 9 9 9 9 10 12 13 18 25 32 38 43 44 
41 35 27 19 11 5 3 1 0 0 0 0 1 2 2 3 
3 3 3 3 3 3 2 2 2 1 1 0 0 0 0 4 5 5 6 7 7 8 8 9 9 10 10 11 11 11 11 11 
11 11 10 10 10 10 11 13 15 20 24 30 36 41 45 46 
44 38 31 24 17 12 7 4 2 1 1 1 2 2 2 2 
3 3 3 3 3 2 2 2 1 1 1 0 0 0 0 4 5 5 6 6 7 7 8 8 9 9 10 10 10 10 11 11 
11 11 11 11 11 12 13 15 18 26 28 31 35 39 41 42 
40 37 32 26 22 18 10 7 5 3 3 2 2 2 2 2 
2 2 2 2 2 2 2 1 1 1 1 0 0 0 0 4 4 5 5 6 6 7 7 8 8 9 9 9 10 10 10 10 
10 11 11 11 12 13 15 17 20 31 31 31 32 33 34 34 
34 32 30 27 25 23 13 9 7 5 4 3 3 3 2 2 
2 2 2 2 2 1 1 1 1 1 0 0 0 0 0 3 4 4 5 5 6 6 7 7 7 8 8 9 9 9 10 10 
10 11 11 12 13 15 17 19 22 36 34 32 30 28 28 27 
28 28 28 28 28 28 16 12 10 8 6 5 4 3 3 2 
2 2 2 1 1 1 1 1 1 0 0 0 0 0 0 3 4 4 4 5 5 6 6 7 7 7 8 8 8 9 9 10 
10 11 12 13 15 17 19 22 25 42 38 34 30 27 25 25 
25 27 29 31 32 33 19 16 12 10 8 6 5 4 3 2 
2 2 1 1 1 1 1 1 0 0 0 0 0 0 0 3 3 4 4 4 5 5 6 6 6 7 7 7 8 8 9 9 
10 11 12 14 16 19 22 26 30 34 44 40 35 31 29 28 
28 30 33 36 38 28 24 19 16 12 10 8 6 4 3 3 
2 2 1 1 1 1 0 0 0 0 0 0 0 0 0 3 3 3 4 4 4 5 5 5 6 6 6 7 7 8 8 9 
10 11 13 15 18 21 26 31 36 42 53 48 43 39 37 36 
36 38 41 43 45 35 29 24 19 15 12 9 7 5 4 3 
2 2 1 1 1 0 0 0 0 0 0 0 0 0 0 2 3 3 3 4 4 4 4 5 5 5 6 6 6 7 8 8 
10 11 13 16 19 24 29 36 44 55 66 76 84 90 93 47 
47 48 50 52 51 43 35 29 23 18 14 11 8 6 4 3 
2 2 1 1 0 0 0 0 0 0 0 0 0 0 0 2 2 3 3 3 3 4 4 4 4 5 5 5 6 6 7 8 
9 11 13 17 21 26 33 42 53 65 78 90 100 107 111 111 
106 99 89 77 64 51 42 33 26 21 16 12 9 7 5 3 
2 2 1 1 0 0 0 0 0 0 0 0 0 0 0 2 2 2 3 3 3 3 3 4 4 4 4 5 5 5 6 7 
9 11 13 17 22 28 36 46 59 74 89 103 115 124 129 128 
123 114 102 89 74 60 48 38 30 23 18 13 10 7 5 4 
3 2 1 1 0 0 0 0 0 0 0 0 0 0 0 2 2 2 2 2 3 3 3 3 3 3 3 4 4 5 5 6 
8 10 13 16 22 29 36 49 63 80 96 113 127 138 143 143 
138 127 114 98 82 67 53 42 32 25 19 14 11 8 6 4 
3 2 1 0 0 0 0 0 0 0 0 0 0 0 0 1 2 2 2 2 2 2 2 2 2 3 3 3 3 4 4 5 
7 9 11 15 21 25 36 49 65 82 100 118 134 146 153 153 
147 136 121 104 87 71 55 44 34 26 20 15 11 8 6 4 
3 2 1 0 0 0 0 0 0 0 0 0 0 0 0 1 1 1 1 2 2 2 2 2 2 2 2 2 2 3 3 4 
5 7 10 13 19 23 34 47 62 80 99 117 134 147 154 155 
150 139 124 106 89 72 56 45 34 26 20 15 11 8 6 4 
3 2 1 0 0 0 0 0 0 0 0 0 0 0 0 1 1 1 1 1 1 1 1 1 1 1 1 1 1 2 2 3 
4 5 7 11 16 20 29 41 56 72 91 109 126 138 146 148 
144 134 120 103 86 70 55 41 34 25 19 14 11 8 5 4 
2 1 1 0 0 0 0 0 0 0 0 0 0 0 0 1 1 1 1 1 1 1 1 1 1 1 1 1 1 1 1 1 
2 3 5 7 11 15 23 33 46 61 77 94 109 122 130 133 
130 122 109 95 79 64 51 38 31 24 18 13 10 7 5 3 
2 1 1 0 0 0 0 0 0 0 0 0 0 0 0 1 1 1 1 0 0 0 0 0 0 0 0 0 0 0 0 0 
0 1 2 4 7 9 15 23 33 46 59 74 87 99 107 110 
109 103 94 82 69 56 44 34 28 21 16 12 9 6 5 3 
2 1 0 0 0 0 0 0 0 0 0 0 0 0 0 0 0 0 0 0 0 0 0 0 0 0 0 0 0 0 0 0 
0 0 0 0 2 3 7 12 20 29 40 51 62 72 80 84 
85 81 74 65 56 46 36 28 24 18 14 10 8 5 4 3 
2 1 0 0 0 0 0 0 0 0 0 0 0 0 0 0 0 0 0 0 0 0 0 0 0 0 0 0 0 0 0 0 
0 0 0 0 0 0 0 2 7 13 20 28 37 45 52 57 
59 58 54 48 42 35 28 24 19 14 11 8 6 4 3 2 
1 1 0 0 0 0 0 0 0 0 0 0 0 0 0 0 0 0 0 0 0 0 0 0 0 0 0 0 0 0 0 0 
0 0 0 0 0 0 0 0 0 0 3 8 14 21 27 32 
35 35 34 32 28 24 19 17 14 11 8 6 5 3 2 1 
1 0 0 0 0 0 0 0 0 0 0 0 0 0 0 0 0 0 0 0 0 0 0 0 0 0 0 0 0 0 0 0 
0 0 0 0 0 0 0 0 0 0 0 0 0 1 6 10 
14 16 18 17 16 14 12 11 9 7 6 4 3 2 1 1 
0 0 0 0 0 0 0 0 0 0 0 0 0 0 0 0 0 0 0 0 0 0 0 0 0 0 0 0 0 0 0 0 
0 0 0 0 0 0 0 0 0 0 0 0 0 0 0 0 
0 2 4 6 6 6 7 6 5 4 3 3 2 1 1 0 
0 0 0 0 0 0 0 0 0 0 0 0 0 0 0 0 0 0 0 0 0 0 0 0 0 0 0 0 0 0 0 0 
0 0 0 0 0 0 0 0 0 0 0 0 0 0 0 0 
0 0 0 0 0 1 2 2 2 2 1 1 1 0 0 0 
0 0 0 0 0 0 0 0 0 0 0 0 0 0 0 0 0 0 0 0 0 0 0 0 0 0 0 0 0 0 0 0 
0 0 0 0 0 0 0 0 0 0 0 0 0 0 0 0 
0 0 0 0 0 0 0 0 0 0 0 0 0 0 0 0 
0 0 0 0 0 0 0 0 0 0 0 0 0 0 0 0 0 0 0 0 0 0 0 0 0 0 0 0 0 0 0 0 
0 0 0 0 0 0 0 0 0 0 0 0 0 0 0 0 
0 0 0 0 0 0 0 0 0 0 0 0 0 0 0 0 
0 0 0 0 0 0 0 0 0 0 0 0 0 0 0 0 0 0 0 0 0 0 0 0 0 0 0 0 0 0 0 0 
0 0 0 0 0 0 0 0 0 0 0 0 0 0 0 0 
0 0 0 0 0 0 0 0 0 0 0 0 0 0 0 0 
0 0 0 0 0 0 0 0 0 0 0 0 0 0 0 0 0 0 0 0 0 0 0 0 0 0 0 0 0 0 0 0 
0 0 0 0 0 0 0 0 0 0 0 0 0 0 0 0 
0 0 0 0 0 0 0 0 0 0 0 0 0 0 0 0 
0 0 0 0 0 0 0 0 0 0 0 0 0 0 0 