P2
# Created by IrfanView
64 64
255
0 0 0 0 0 0 0 0 0 0 0 0 0 0 0 0 0 
0 0 0 0 0 0 0 1 1 2 2 3 3 3 3 3 
3 3 2 2 2 1 1 1 0 0 0 0 0 0 0 0 
0 0 0 0 0 0 0 0 0 0 0 0 0 0 0 0 0 0 0 0 0 0 0 0 0 0 0 0 0 0 0 0 
0 0 0 0 0 0 1 2 3 3 3 4 4 4 4 4 
4 4 3 3 3 2 2 1 1 0 0 0 0 0 0 0 
0 0 0 0 0 0 0 0 0 0 0 0 0 0 0 0 0 0 0 0 0 0 0 0 0 0 0 0 0 0 0 0 
0 0 0 0 1 2 3 3 4 4 5 5 5 5 5 5 
5 5 4 4 4 3 3 2 2 1 1 0 0 0 0 0 
0 0 0 0 0 0 0 0 0 0 0 0 0 0 0 0 0 0 0 0 0 0 0 0 0 0 0 0 0 0 0 0 
0 0 0 1 2 3 4 5 5 6 6 6 7 7 7 6 
6 6 6 5 5 4 4 3 3 2 2 1 0 0 0 0 
0 0 0 0 0 0 0 0 0 0 0 0 0 0 0 0 0 0 0 0 0 0 0 0 0 0 0 0 0 0 0 0 
0 1 2 3 4 5 6 7 7 7 8 8 8 8 8 8 
8 7 7 7 6 5 5 4 4 3 3 2 1 1 0 0 
0 0 0 0 0 0 0 0 0 0 0 0 0 0 0 0 0 0 0 0 0 0 0 0 0 0 0 0 0 0 0 0 
1 3 4 5 6 7 8 9 9 9 10 10 10 10 10 10 
9 9 8 8 7 7 6 6 5 4 4 3 3 2 1 0 
0 0 0 0 0 0 0 0 0 0 0 0 0 0 0 0 0 0 0 0 0 0 0 0 0 0 0 0 0 0 1 3 
4 5 7 8 9 9 10 11 11 12 12 12 12 12 12 11 
11 11 10 9 9 8 7 7 6 6 5 5 4 3 3 2 
1 0 0 0 0 0 0 0 0 0 0 0 0 0 0 0 0 0 0 0 0 0 0 0 0 0 0 0 1 2 4 5 
7 8 9 10 11 12 13 13 14 14 14 14 14 14 14 14 
13 12 12 11 10 9 9 8 8 7 6 6 5 5 4 3 
3 2 1 1 0 0 0 0 0 0 0 0 0 0 0 0 0 0 0 0 0 0 0 0 0 0 1 2 4 6 7 9 
10 11 13 13 14 15 15 16 16 16 16 17 17 17 16 16 
15 14 13 13 12 11 10 9 9 8 8 7 7 6 6 5 
4 4 3 2 2 1 0 0 0 0 0 0 0 0 0 0 0 0 0 0 0 0 0 0 1 3 4 6 8 9 11 12 
14 15 16 17 17 18 18 18 18 19 19 19 19 19 19 18 
17 16 15 14 13 12 11 10 10 9 9 9 8 8 7 7 
6 5 5 4 3 3 2 1 1 1 0 0 0 0 0 0 0 0 0 0 0 1 2 4 5 7 8 10 12 13 15 16 
17 18 19 20 20 20 21 21 21 21 21 22 22 22 21 20 
19 18 17 15 14 13 12 11 11 10 10 10 10 10 9 9 
8 7 7 6 5 4 4 3 3 2 2 1 1 0 0 1 1 2 2 3 4 5 6 7 9 11 12 14 16 17 19 20 
21 22 23 23 23 23 23 23 23 23 23 24 24 24 36 35 
34 33 17 16 14 13 12 11 11 11 11 11 11 11 11 10 
10 9 9 8 7 6 5 5 4 3 3 2 2 1 0 3 4 4 5 6 7 8 10 11 13 14 16 18 20 21 23 24 
25 26 26 26 26 26 25 25 25 24 25 33 34 35 35 34 
33 31 29 27 25 12 11 11 11 11 12 12 13 13 13 12 
12 11 11 10 9 8 7 6 6 5 4 3 2 1 0 5 6 7 8 9 10 12 13 15 17 18 20 22 24 25 27 28 
29 29 29 29 28 28 27 26 25 28 29 30 31 31 30 29 
27 25 23 21 20 19 8 9 10 11 12 13 13 14 14 14 
14 13 12 12 11 10 9 8 7 6 5 4 3 1 0 7 8 9 11 12 13 15 16 18 20 22 24 26 28 29 31 32 
32 33 32 32 30 29 27 25 23 23 23 23 22 22 20 18 
16 14 12 11 10 11 11 5 7 9 11 13 14 15 16 16 
15 15 14 13 12 11 10 9 8 7 6 5 3 1 0 9 10 12 13 14 16 18 19 21 23 25 27 29 31 33 34 35 
36 36 35 34 32 29 26 18 16 15 13 11 9 6 3 1 
0 0 0 0 0 0 1 4 2 6 10 12 14 16 17 17 
17 17 16 15 14 13 11 10 9 8 6 5 3 1 0 11 12 13 15 16 18 20 22 24 26 28 30 32 34 36 37 38 
39 38 37 35 32 28 23 10 6 2 0 0 0 0 0 0 
0 0 0 0 0 0 0 0 0 2 7 11 14 16 18 18 
18 18 17 16 15 14 12 11 10 8 7 5 3 1 0 12 13 15 16 18 20 22 24 26 28 30 33 35 37 39 40 41 
41 40 38 35 31 25 6 0 0 0 0 0 0 0 0 0 
0 0 0 0 0 0 0 0 0 0 4 9 14 17 19 20 
20 19 18 17 16 15 13 12 10 9 7 5 3 0 0 13 14 16 17 19 21 23 25 27 30 32 34 37 39 41 42 43 
43 41 39 35 29 22 0 0 0 0 0 0 0 0 0 0 
0 0 0 0 0 0 0 0 0 0 0 7 13 17 19 20 
21 20 20 18 17 15 14 12 11 9 7 5 3 0 0 13 14 16 18 20 22 24 26 28 31 33 36 38 40 42 44 44 
44 42 39 34 26 16 0 0 0 0 0 0 0 0 0 0 
0 0 0 0 0 0 0 0 0 0 0 4 11 16 19 21 
21 21 20 19 18 16 14 13 11 9 7 5 2 0 0 13 15 16 18 20 22 24 26 29 31 34 36 39 41 43 44 45 
44 42 38 32 23 0 0 0 0 0 0 0 0 0 0 0 
0 0 0 0 0 0 0 0 0 0 0 1 10 15 19 21 
22 22 21 19 18 16 14 13 11 9 7 5 2 0 0 13 15 16 18 20 22 24 26 29 31 34 37 39 41 43 45 45 
44 41 36 29 19 0 0 0 0 0 0 0 0 0 0 0 
0 0 0 0 0 0 0 0 0 0 0 0 8 15 19 21 
22 22 21 20 18 16 14 12 11 9 7 4 2 0 0 13 14 16 18 20 22 24 26 28 31 33 36 39 41 43 44 44 
43 40 34 26 15 0 0 0 0 0 0 0 0 0 0 0 
0 0 0 0 0 0 0 0 0 0 0 0 7 14 18 21 
22 22 21 20 18 16 14 12 10 8 6 4 2 0 0 13 14 16 17 19 21 23 25 28 30 33 35 38 40 42 43 43 
41 38 32 23 11 0 0 0 0 0 0 0 0 0 0 0 
0 0 0 0 0 0 0 0 0 0 0 0 5 13 18 20 
21 21 21 19 17 16 14 12 10 8 6 4 2 0 0 12 13 15 16 18 20 22 24 26 29 31 34 36 39 40 41 41 
39 36 30 21 8 0 0 0 0 0 0 0 0 0 0 0 
0 0 0 0 0 0 0 0 0 0 0 0 4 12 17 20 
21 21 20 19 17 15 13 11 9 7 5 3 1 0 0 11 13 14 16 17 19 21 23 25 28 30 32 35 37 38 39 39 
37 33 27 18 6 0 0 0 0 0 0 0 0 0 0 0 
0 0 0 0 0 0 0 0 0 0 0 0 3 11 16 19 
20 20 19 18 16 14 12 11 9 7 5 3 1 0 0 11 12 13 15 16 18 20 22 24 26 28 31 33 34 36 36 36 
34 30 25 16 4 0 0 0 0 0 0 0 0 0 0 0 
0 0 0 0 0 0 0 0 0 0 0 0 3 10 15 17 
19 19 18 17 15 13 12 10 8 6 5 3 1 0 0 10 11 13 14 15 17 19 20 22 24 26 29 30 32 33 34 33 
31 28 22 14 3 0 0 0 0 0 0 0 0 0 0 0 
0 0 0 0 0 0 0 0 0 0 0 0 3 9 14 16 
17 17 17 16 14 13 11 9 7 6 4 2 1 0 0 9 11 12 13 14 16 17 19 21 23 25 26 28 30 31 31 30 
28 25 20 13 3 0 0 0 0 0 0 0 0 0 0 0 
0 0 0 0 0 0 0 0 0 0 0 0 3 8 12 15 
16 16 15 14 13 12 10 8 7 5 4 2 1 0 0 9 10 11 12 13 15 16 18 19 21 23 24 26 27 28 28 27 
26 23 18 12 3 0 0 0 0 0 0 0 0 0 0 0 
0 0 0 0 0 0 0 0 0 0 0 0 2 8 11 13 
14 14 14 13 12 11 9 8 6 5 3 2 1 0 0 8 9 10 11 13 14 15 16 18 20 21 22 24 25 25 25 25 
23 21 17 11 4 0 0 0 0 0 0 0 0 0 0 0 
0 0 0 0 0 0 0 0 0 0 0 0 2 7 10 12 
13 13 13 12 11 10 8 7 6 4 3 2 0 0 0 8 9 9 11 12 13 14 15 17 18 19 21 22 23 23 23 22 
21 19 15 11 5 0 0 0 0 0 0 0 0 0 0 0 
0 0 0 0 0 0 0 0 0 0 0 0 2 6 9 10 
11 11 11 11 10 9 7 6 5 4 3 1 0 0 0 7 8 9 10 11 12 13 14 15 17 18 19 20 20 21 21 20 
19 17 14 10 6 0 0 0 0 0 0 0 0 0 0 0 
0 0 0 0 0 0 0 0 0 0 0 0 2 5 8 9 
10 10 10 9 8 8 7 5 4 3 2 1 0 0 0 7 7 8 9 10 11 12 13 14 15 16 17 18 19 19 19 18 
17 16 13 10 7 3 0 0 0 0 0 0 0 0 0 0 
0 0 0 0 0 0 0 0 0 0 0 0 2 5 6 8 
8 9 9 8 7 7 6 5 4 3 2 1 0 0 0 6 7 8 9 9 10 11 12 13 14 15 16 17 17 17 17 17 
16 14 13 10 8 5 2 0 0 0 0 0 6 13 18 18 
15 9 1 0 0 0 0 0 0 0 0 0 2 4 5 7 
7 7 7 7 6 6 5 4 3 3 2 1 0 0 0 6 6 7 8 9 10 11 11 12 13 14 15 15 16 16 16 15 
15 13 12 10 8 7 5 5 5 0 5 14 24 33 39 41 
37 29 18 7 0 0 0 0 0 0 0 0 2 3 5 5 
6 6 6 6 5 5 4 4 3 2 2 1 0 0 0 5 6 7 7 8 9 10 11 11 12 13 14 14 14 15 14 14 
14 13 12 10 9 8 8 8 10 8 16 27 39 49 57 59 
54 45 32 19 8 0 0 0 0 0 0 0 2 3 4 5 
5 5 5 5 5 4 4 3 3 2 1 1 0 0 0 5 6 6 7 8 8 9 10 11 11 12 13 13 13 14 13 13 
13 12 11 11 10 10 10 11 11 16 24 34 46 58 66 68 
63 53 40 27 16 7 1 0 0 0 0 1 2 3 3 4 
4 4 4 4 4 4 3 3 2 2 1 1 0 0 0 5 5 6 7 7 8 9 9 10 11 11 12 12 12 13 13 12 
12 12 11 11 11 11 11 13 17 21 27 35 45 55 63 65 
61 52 41 29 20 12 8 3 1 1 1 1 2 2 3 3 
3 3 3 3 3 3 3 2 2 1 1 1 0 0 0 4 5 6 6 7 7 8 9 9 10 10 11 11 12 12 12 12 
12 11 11 11 11 11 12 14 22 24 27 31 37 44 49 51 
48 43 35 27 21 16 13 5 3 2 2 2 2 2 2 3 
3 3 3 3 3 2 2 2 1 1 1 0 0 0 0 4 5 5 6 6 7 7 8 9 9 10 10 10 11 11 11 11 
11 11 11 11 12 12 13 15 27 26 25 25 25 27 29 30 
29 28 25 22 20 18 17 7 5 4 3 3 2 2 2 2 
2 2 2 2 2 2 2 1 1 1 1 0 0 0 0 4 4 5 5 6 6 7 7 8 9 9 9 10 10 10 11 11 
11 11 11 12 13 13 15 16 32 28 24 19 15 13 11 11 
12 14 17 19 20 21 22 9 7 6 5 4 3 3 2 2 
2 2 2 2 2 1 1 1 1 1 0 0 0 0 0 4 4 4 5 5 6 6 7 7 8 8 9 9 9 10 10 10 
11 11 12 13 14 15 17 18 38 32 26 19 12 6 2 1 
4 8 13 18 23 26 28 12 10 8 6 5 4 3 2 2 
2 2 1 1 1 1 1 1 1 0 0 0 0 0 0 3 4 4 5 5 5 6 6 7 7 7 8 8 9 9 9 10 
10 11 12 13 15 17 19 22 45 39 32 24 15 8 4 3 
5 11 17 23 28 32 34 16 13 10 8 6 5 4 3 2 
2 1 1 1 1 1 1 1 0 0 0 0 0 0 0 3 3 4 4 5 5 5 6 6 6 7 7 7 8 8 9 9 
10 11 13 14 16 19 22 26 30 48 41 33 25 19 14 13 
15 20 25 31 36 39 24 20 16 13 10 8 6 4 3 2 
2 1 1 1 1 0 0 0 0 0 0 0 0 0 0 3 3 3 4 4 4 5 5 5 6 6 6 7 7 8 8 9 
10 11 13 15 18 22 26 31 37 43 51 45 39 33 30 28 
30 33 37 41 45 36 30 24 20 15 12 9 7 5 4 2 
2 1 1 0 0 0 0 0 0 0 0 0 0 0 0 2 3 3 3 4 4 4 4 5 5 5 6 6 6 7 7 8 
9 11 13 16 19 24 29 36 44 57 68 78 86 92 95 44 
45 47 49 52 52 43 36 29 23 18 14 10 8 6 4 3 
2 1 1 0 0 0 0 0 0 0 0 0 0 0 0 2 2 3 3 3 3 4 4 4 4 5 5 5 5 6 7 8 
9 11 13 16 20 26 32 41 52 65 77 89 99 106 110 110 
106 98 88 76 64 51 41 33 26 20 16 12 9 6 4 3 
2 1 1 0 0 0 0 0 0 0 0 0 0 0 0 2 2 2 2 3 3 3 3 3 4 4 4 4 5 5 6 7 
8 10 12 16 20 26 34 44 56 70 84 98 110 118 123 122 
118 109 98 85 71 57 46 37 29 22 17 13 9 7 5 3 
2 1 1 0 0 0 0 0 0 0 0 0 0 0 0 2 2 2 2 2 2 3 3 3 3 3 3 3 4 4 5 6 
7 9 11 15 20 26 33 44 58 73 88 103 116 126 131 131 
126 117 104 90 76 61 50 39 30 23 18 13 10 7 5 3 
2 1 1 0 0 0 0 0 0 0 0 0 0 0 0 1 1 2 2 2 2 2 2 2 2 2 2 3 3 3 4 5 
6 8 10 13 18 25 31 43 56 71 87 103 117 127 133 134 
129 119 107 92 77 63 49 40 31 24 18 13 10 7 5 3 
2 1 0 0 0 0 0 0 0 0 0 0 0 0 0 1 1 1 1 1 1 1 2 2 2 2 2 2 2 2 3 3 
4 6 8 11 16 22 28 39 52 66 82 97 111 122 128 129 
125 116 104 90 76 61 48 39 30 23 18 13 10 7 5 3 
2 1 0 0 0 0 0 0 0 0 0 0 0 0 0 1 1 1 1 1 1 1 1 1 1 1 1 1 1 1 1 2 
3 4 6 9 12 15 23 33 44 57 72 86 99 110 116 118 
115 107 96 84 70 57 45 37 29 22 17 12 9 7 5 3 
2 1 0 0 0 0 0 0 0 0 0 0 0 0 0 1 1 1 1 1 1 1 1 1 0 0 0 0 0 0 0 1 
1 2 3 6 9 11 17 25 34 45 58 71 82 92 99 101 
99 93 84 73 62 50 40 33 26 20 15 11 8 6 4 3 
2 1 0 0 0 0 0 0 0 0 0 0 0 0 0 0 0 0 0 0 0 0 0 0 0 0 0 0 0 0 0 0 
0 0 1 2 4 5 10 16 23 32 42 52 62 71 77 80 
79 75 69 60 51 42 33 28 22 17 13 10 7 5 3 2 
1 1 0 0 0 0 0 0 0 0 0 0 0 0 0 0 0 0 0 0 0 0 0 0 0 0 0 0 0 0 0 0 
0 0 0 0 0 2 3 7 12 18 26 34 42 49 54 57 
58 56 52 46 40 33 26 23 18 14 11 8 6 4 3 2 
1 0 0 0 0 0 0 0 0 0 0 0 0 0 0 0 0 0 0 0 0 0 0 0 0 0 0 0 0 0 0 0 
0 0 0 0 0 0 0 0 2 6 11 17 22 28 33 36 
38 37 36 32 28 24 22 17 14 11 8 6 5 3 2 1 
1 0 0 0 0 0 0 0 0 0 0 0 0 0 0 0 0 0 0 0 0 0 0 0 0 0 0 0 0 0 0 0 
0 0 0 0 0 0 0 0 0 0 0 2 6 11 15 18 
20 21 21 20 18 15 15 12 10 8 6 5 3 2 1 1 
0 0 0 0 0 0 0 0 0 0 0 0 0 0 0 0 0 0 0 0 0 0 0 0 0 0 0 0 0 0 0 0 
0 0 0 0 0 0 0 0 0 0 0 0 0 0 1 4 
6 8 9 9 9 10 9 7 6 5 4 3 2 1 1 0 
0 0 0 0 0 0 0 0 0 0 0 0 0 0 0 0 0 0 0 0 0 0 0 0 0 0 0 0 0 0 0 0 
0 0 0 0 0 0 0 0 0 0 0 0 0 0 0 0 
0 0 0 2 4 4 4 4 3 3 2 1 1 0 0 0 
0 0 0 0 0 0 0 0 0 0 0 0 0 0 0 0 0 0 0 0 0 0 0 0 0 0 0 0 0 0 0 0 
0 0 0 0 0 0 0 0 0 0 0 0 0 0 0 0 
0 0 0 0 0 0 0 1 1 0 0 0 0 0 0 0 
0 0 0 0 0 0 0 0 0 0 0 0 0 0 0 0 0 0 0 0 0 0 0 0 0 0 0 0 0 0 0 0 
0 0 0 0 0 0 0 0 0 0 0 0 0 0 0 0 
0 0 0 0 0 0 0 0 0 0 0 0 0 0 0 0 
0 0 0 0 0 0 0 0 0 0 0 0 0 0 0 0 0 0 0 0 0 0 0 0 0 0 0 0 0 0 0 0 
0 0 0 0 0 0 0 0 0 0 0 0 0 0 0 0 
0 0 0 0 0 0 0 0 0 0 0 0 0 0 0 0 
0 0 0 0 0 0 0 0 0 0 0 0 0 0 0 0 0 0 0 0 0 0 0 0 0 0 0 0 0 0 0 0 
0 0 0 0 0 0 0 0 0 0 0 0 0 0 0 0 
0 0 0 0 0 0 0 0 0 0 0 0 0 0 0 0 
0 0 0 0 0 0 0 0 0 0 0 0 0 0 0 