P2
# Created by IrfanView
64 64
255
0 0 0 0 0 0 0 0 0 0 0 0 0 0 0 0 0 
0 0 0 0 0 0 0 1 2 2 3 3 3 3 3 3 
3 3 3 3 2 2 1 1 0 0 0 0 0 0 0 0 
0 0 0 0 0 0 0 0 0 0 0 0 0 0 0 0 0 0 0 0 0 0 0 0 0 0 0 0 0 0 0 0 
0 0 0 0 0 0 1 2 3 3 4 4 4 5 5 5 
5 4 4 4 3 3 2 2 1 1 0 0 0 0 0 0 
0 0 0 0 0 0 0 0 0 0 0 0 0 0 0 0 0 0 0 0 0 0 0 0 0 0 0 0 0 0 0 0 
0 0 0 0 1 2 3 4 4 5 5 6 6 6 6 6 
6 6 5 5 5 4 3 3 2 2 1 0 0 0 0 0 
0 0 0 0 0 0 0 0 0 0 0 0 0 0 0 0 0 0 0 0 0 0 0 0 0 0 0 0 0 0 0 0 
0 0 0 1 3 4 5 6 6 7 7 8 8 8 8 8 
7 7 7 6 6 5 5 4 3 3 2 1 0 0 0 0 
0 0 0 0 0 0 0 0 0 0 0 0 0 0 0 0 0 0 0 0 0 0 0 0 0 0 0 0 0 0 0 0 
0 0 2 3 5 6 7 8 8 9 9 10 10 10 10 10 
9 9 9 8 7 7 6 5 5 4 3 3 2 1 0 0 
0 0 0 0 0 0 0 0 0 0 0 0 0 0 0 0 0 0 0 0 0 0 0 0 0 0 0 0 0 0 0 0 
1 3 5 6 7 8 9 10 11 11 12 12 12 12 12 12 
12 11 11 10 9 9 8 7 6 6 5 4 3 2 1 0 
0 0 0 0 0 0 0 0 0 0 0 0 0 0 0 0 0 0 0 0 0 0 0 0 0 0 0 0 0 0 0 2 
4 6 8 9 10 11 12 13 14 14 14 15 15 15 15 15 
14 14 13 12 11 10 10 9 8 7 6 6 5 4 3 2 
1 0 0 0 0 0 0 0 0 0 0 0 0 0 0 0 0 0 0 0 0 0 0 0 0 0 0 0 0 2 4 6 
8 9 11 12 13 14 15 16 17 17 18 18 18 18 18 18 
17 16 15 14 14 13 12 11 10 9 8 7 7 6 5 4 
3 2 1 0 0 0 0 0 0 0 0 0 0 0 0 0 0 0 0 0 0 0 0 0 0 0 0 2 4 6 8 10 
12 13 15 16 17 18 19 19 20 21 21 21 22 22 22 21 
20 20 18 17 16 15 14 13 12 11 10 9 9 8 7 6 
5 4 3 2 2 1 0 0 0 0 0 0 0 0 0 0 0 0 0 0 0 0 0 0 0 2 4 6 8 10 12 14 
16 18 19 20 21 22 22 23 24 24 25 25 26 26 26 25 
24 23 22 20 18 17 16 15 14 13 12 11 11 10 9 8 
8 7 6 5 4 3 2 2 1 1 0 0 0 0 0 0 0 0 0 0 0 1 2 3 5 7 9 11 13 15 17 19 
21 22 23 24 25 26 26 27 27 28 29 30 30 31 31 30 
29 27 25 23 21 19 18 16 15 15 14 14 13 12 12 11 
10 9 8 7 6 5 4 4 3 3 2 2 1 1 0 1 1 2 2 3 4 5 7 8 10 12 14 16 18 20 22 24 
26 27 28 29 29 30 30 31 31 32 33 35 36 45 46 46 
45 43 40 26 23 21 19 18 17 16 16 16 15 15 14 13 
13 12 11 9 9 8 7 6 5 4 4 3 3 2 1 4 4 5 6 7 8 10 11 13 15 17 19 21 23 25 27 29 
31 32 32 33 33 33 34 34 35 36 41 44 47 48 49 49 
47 45 42 38 34 22 20 19 18 18 18 17 17 17 16 16 
15 14 13 12 11 10 9 8 7 6 5 4 4 3 1 6 7 8 9 11 12 14 15 17 19 22 24 26 28 30 32 34 
36 37 37 37 37 37 37 37 38 38 41 44 47 49 49 49 
47 43 40 36 32 29 26 19 18 18 19 19 19 19 19 18 
18 17 15 14 13 12 11 10 9 8 7 5 4 3 1 9 10 11 13 14 16 18 19 21 24 26 28 31 33 35 37 39 
40 41 41 41 41 40 39 39 33 35 38 41 43 45 45 44 
41 37 33 29 25 23 21 20 17 18 19 20 21 21 21 21 
20 19 18 16 15 14 13 11 10 9 8 6 5 3 1 11 12 14 15 17 19 21 23 25 27 30 32 35 38 40 42 44 
45 45 45 45 43 42 40 26 28 30 31 33 34 35 35 32 
29 25 21 17 14 12 12 12 14 17 19 21 22 23 23 23 
22 21 20 19 17 16 14 13 11 10 8 7 5 3 0 13 14 16 17 19 21 23 26 28 31 33 36 39 42 44 46 48 
49 49 49 47 45 42 21 20 20 19 19 19 18 18 16 13 
9 4 0 0 0 0 0 2 5 14 18 21 23 25 25 25 
24 23 22 20 19 17 15 14 12 11 9 7 5 2 0 14 15 17 19 21 23 25 28 30 33 36 39 42 45 48 50 52 
53 52 51 49 46 41 14 11 8 4 1 0 0 0 0 0 
0 0 0 0 0 0 0 0 0 1 16 20 24 26 27 27 
26 25 24 22 20 18 16 15 13 11 9 7 5 2 0 15 16 18 20 22 24 27 29 32 35 38 41 44 48 50 53 55 
55 55 53 50 45 10 5 0 0 0 0 0 0 0 0 0 
0 0 0 0 0 0 0 0 0 0 12 19 24 27 28 29 
28 27 25 23 21 19 17 15 13 11 9 7 4 1 0 15 17 19 21 23 25 28 30 33 36 39 43 46 49 52 55 57 
57 56 54 50 43 3 0 0 0 0 0 0 0 0 0 0 
0 0 0 0 0 0 0 0 0 0 8 17 23 27 29 30 
29 28 26 24 22 20 18 15 13 11 9 7 4 1 0 15 17 19 21 23 25 28 31 34 37 40 44 47 50 54 56 58 
58 57 54 48 40 0 0 0 0 0 0 0 0 0 0 17 
0 0 0 0 0 0 0 0 0 0 4 15 22 27 30 31 
30 29 27 25 22 20 18 15 13 11 9 6 3 0 0 15 17 19 21 23 25 28 30 33 37 40 44 47 51 54 56 58 
58 57 53 46 36 0 0 0 0 0 0 0 0 0 9 103 
61 0 0 0 0 0 0 0 0 0 0 12 21 27 30 31 
31 29 27 25 23 20 18 15 13 11 8 6 3 0 0 15 16 18 20 22 25 27 30 33 36 39 43 47 50 53 56 57 
57 55 51 43 32 0 0 0 0 0 0 0 0 0 0 49 
8 0 0 0 0 0 0 0 0 0 0 10 20 26 30 31 
31 29 27 25 22 20 17 15 12 10 8 5 3 0 0 14 16 18 19 22 24 26 29 32 35 38 42 46 49 52 54 56 
55 53 48 40 28 0 0 0 0 0 0 0 0 0 0 0 
0 0 0 0 0 0 0 0 0 0 0 8 19 25 29 30 
30 29 27 25 22 19 17 14 12 10 7 5 2 0 0 13 15 17 19 20 23 25 28 30 34 37 40 44 47 50 52 53 
53 50 45 36 24 0 0 0 0 0 0 0 0 0 0 0 
0 0 0 0 0 0 0 0 0 0 0 7 17 24 28 29 
29 28 26 24 21 19 16 14 11 9 7 4 2 0 0 13 14 16 18 19 21 24 26 29 32 35 38 41 45 47 49 50 
49 47 41 33 20 3 0 0 0 0 0 0 0 0 0 0 
0 0 0 0 0 0 0 0 0 0 0 6 16 23 27 28 
28 27 25 23 20 18 15 13 10 8 6 4 2 0 0 12 13 15 16 18 20 22 25 27 30 33 36 39 42 44 46 47 
46 43 38 29 17 1 0 0 0 0 0 0 0 0 0 0 
0 0 0 0 0 0 0 0 0 0 0 5 15 21 25 27 
27 26 24 22 19 17 14 12 10 8 5 3 1 0 0 11 12 14 15 17 19 21 23 25 28 31 33 36 39 41 42 43 
42 39 34 26 15 1 0 0 0 0 0 0 0 0 0 0 
0 0 0 0 0 0 0 0 0 0 0 4 13 19 23 25 
25 24 22 20 18 15 13 11 9 7 5 3 1 0 0 10 11 13 14 16 18 19 21 24 26 28 31 33 36 37 39 39 
38 35 30 23 13 1 0 0 0 0 0 0 0 0 0 0 
0 0 0 0 0 0 0 0 0 0 0 4 12 18 21 22 
23 22 20 18 16 14 12 10 8 6 4 3 1 0 0 9 11 12 13 15 16 18 20 22 24 26 28 30 32 34 35 35 
34 31 27 21 12 1 0 0 0 0 0 0 0 0 0 0 
0 0 0 0 0 0 0 0 0 0 0 4 11 16 19 20 
20 20 18 17 15 13 11 9 7 6 4 2 1 0 0 9 10 11 12 14 15 17 18 20 22 24 26 28 29 31 31 31 
30 28 24 19 11 2 0 0 0 0 0 0 0 0 0 0 
0 0 0 0 0 0 0 0 0 0 0 4 10 14 16 18 
18 18 16 15 13 12 10 8 7 5 3 2 1 0 0 8 9 10 11 13 14 15 17 19 20 22 24 25 27 28 28 28 
27 25 21 17 11 3 0 0 0 0 0 0 0 0 0 0 
0 0 0 0 0 0 0 0 0 0 0 3 8 12 14 16 
16 15 15 13 12 11 9 7 6 5 3 2 0 0 0 8 9 10 11 12 13 14 16 17 19 20 22 23 24 25 25 25 
24 22 19 15 11 5 0 0 0 0 0 0 0 0 0 0 
0 0 0 0 0 0 0 0 0 0 0 3 7 10 12 13 
14 13 13 12 11 9 8 7 5 4 3 2 0 0 0 7 8 9 10 11 12 13 15 16 17 18 20 21 22 22 23 22 
21 20 17 14 10 6 2 0 0 0 0 0 0 4 8 9 
6 0 0 0 0 0 0 0 0 0 0 2 6 8 10 11 
12 12 11 10 9 8 7 6 5 4 2 1 0 0 0 7 7 8 9 10 11 12 14 15 16 17 18 19 20 20 20 20 
19 18 16 13 11 7 5 2 1 0 0 8 20 30 37 38 
34 24 12 0 0 0 0 0 0 0 0 2 5 7 8 9 
10 10 9 9 8 7 6 5 4 3 2 1 0 0 0 6 7 8 9 10 11 12 13 14 15 16 17 17 18 18 18 18 
17 16 15 13 11 9 7 6 0 2 13 26 41 56 66 68 
62 49 33 16 2 0 0 0 0 0 0 2 4 6 7 8 
8 8 8 7 7 6 5 5 4 3 2 1 0 0 0 6 7 7 8 9 10 11 12 13 14 15 15 16 16 17 17 16 
16 15 14 12 11 9 9 10 4 12 24 40 58 76 89 93 
86 69 49 29 13 1 0 0 0 0 0 1 3 4 5 6 
7 7 7 6 6 5 5 4 3 2 2 1 0 0 0 5 6 7 8 8 9 10 11 12 13 14 14 15 15 15 15 15 
15 14 13 12 11 10 10 7 11 18 30 46 65 85 100 105 
97 79 57 36 19 8 0 0 0 0 0 1 2 3 4 5 
5 5 5 5 5 4 4 3 3 2 1 1 0 0 0 5 6 6 7 8 9 10 10 11 12 13 13 14 14 14 14 14 
14 13 12 11 11 10 11 13 16 20 29 42 58 76 91 96 
89 73 53 35 21 11 5 2 0 0 0 1 2 3 3 4 
4 4 4 4 4 4 3 3 2 2 1 1 0 0 0 5 5 6 7 7 8 9 10 10 11 12 12 13 13 13 13 13 
13 12 12 11 11 11 11 18 18 19 23 29 39 50 60 64 
61 51 38 26 17 12 9 7 1 1 1 1 2 2 3 3 
3 3 3 3 3 3 3 2 2 1 1 1 0 0 0 4 5 6 6 7 8 8 9 10 10 11 11 12 12 12 12 12 
12 12 11 11 11 11 11 23 20 17 15 13 13 15 18 20 
21 19 17 14 12 12 12 12 2 2 1 1 2 2 2 2 
2 2 3 3 2 2 2 2 2 1 1 0 0 0 0 4 5 5 6 7 7 8 8 9 10 10 11 11 11 11 11 12 
11 11 11 11 11 12 12 28 23 16 9 0 0 0 0 0 
0 0 0 4 9 12 15 18 4 3 3 2 2 2 2 2 
2 2 2 2 2 2 2 1 1 1 1 0 0 0 0 4 4 5 5 6 7 7 8 8 9 9 10 10 10 11 11 11 
11 11 11 12 12 13 13 35 28 19 8 0 0 0 0 0 
0 0 0 1 9 16 20 23 6 5 4 3 2 2 2 1 
1 1 1 1 1 1 1 1 1 1 0 0 0 0 0 4 4 5 5 6 6 7 7 8 8 8 9 9 9 10 10 10 
11 11 12 12 13 14 15 42 35 26 14 1 0 0 0 0 
0 0 0 5 15 22 27 30 9 7 6 4 3 2 2 1 
1 1 1 1 1 1 1 1 1 0 0 0 0 0 0 3 4 4 5 5 5 6 6 7 7 8 8 8 9 9 9 10 
10 11 12 13 15 16 18 20 44 35 25 13 1 0 0 0 
0 0 5 15 24 30 34 15 12 10 7 6 4 3 2 1 
1 1 1 0 0 0 0 0 0 0 0 0 0 0 0 3 3 4 4 5 5 5 6 6 6 7 7 7 8 8 9 9 
10 11 12 14 16 19 22 25 29 47 38 29 19 11 6 5 
7 13 21 28 34 39 24 20 16 12 9 7 5 3 2 1 
1 1 0 0 0 0 0 0 0 0 0 0 0 0 0 3 3 3 4 4 4 5 5 5 6 6 6 7 7 7 8 8 
9 11 12 14 17 21 25 30 36 41 52 45 38 32 28 27 
29 32 37 41 45 36 30 24 19 15 11 8 6 4 3 2 
1 0 0 0 0 0 0 0 0 0 0 0 0 0 0 2 3 3 3 4 4 4 4 5 5 5 5 6 6 6 7 8 
9 10 12 15 18 23 28 35 42 54 65 74 83 88 91 46 
47 48 51 53 51 43 35 28 22 17 13 10 7 5 3 2 
1 0 0 0 0 0 0 0 0 0 0 0 0 0 0 2 2 3 3 3 3 3 4 4 4 4 5 5 5 5 6 7 
8 10 12 15 19 24 30 38 48 59 71 82 91 98 101 101 
98 91 81 71 59 49 39 31 25 19 14 11 8 5 3 2 
1 0 0 0 0 0 0 0 0 0 0 0 0 0 0 2 2 2 2 3 3 3 3 3 3 4 4 4 4 5 5 6 
7 9 11 14 18 24 31 38 50 62 74 86 97 104 108 108 
104 97 87 76 63 53 43 34 26 20 15 11 8 6 4 2 
1 0 0 0 0 0 0 0 0 0 0 0 0 0 0 1 2 2 2 2 2 2 2 3 3 3 3 3 3 4 4 5 
6 8 10 13 17 23 30 38 49 61 74 87 98 106 110 111 
107 99 89 77 65 53 44 35 27 21 16 12 8 6 4 2 
1 0 0 0 0 0 0 0 0 0 0 0 0 0 0 1 1 1 2 2 2 2 2 2 2 2 2 2 2 3 3 4 
5 6 8 11 15 21 25 35 46 58 71 83 94 102 107 108 
104 97 87 76 64 52 44 34 27 20 15 11 8 6 4 2 
1 0 0 0 0 0 0 0 0 0 0 0 0 0 0 1 1 1 1 1 1 1 1 1 1 1 1 1 1 2 2 3 
3 5 6 9 13 17 21 30 40 51 63 75 85 94 99 100 
97 90 81 71 60 49 41 33 25 19 15 11 8 5 4 2 
1 0 0 0 0 0 0 0 0 0 0 0 0 0 0 1 1 1 1 1 1 1 1 1 1 1 1 1 1 1 1 1 
2 3 4 6 9 13 16 24 32 42 53 63 73 80 85 87 
85 80 72 63 53 43 37 30 23 18 13 10 7 5 3 2 
1 0 0 0 0 0 0 0 0 0 0 0 0 0 0 1 1 1 1 1 0 0 0 0 0 0 0 0 0 0 0 0 
0 1 2 4 6 9 11 17 24 31 40 49 57 64 69 71 
70 66 60 53 45 37 32 26 20 16 12 9 6 4 3 2 
1 0 0 0 0 0 0 0 0 0 0 0 0 0 0 0 0 0 0 0 0 0 0 0 0 0 0 0 0 0 0 0 
0 0 0 1 2 5 7 10 15 21 27 34 41 47 51 53 
53 51 47 42 36 29 26 21 17 13 10 7 5 4 2 1 
1 0 0 0 0 0 0 0 0 0 0 0 0 0 0 0 0 0 0 0 0 0 0 0 0 0 0 0 0 0 0 0 
0 0 0 0 0 0 2 3 6 10 15 20 26 30 34 36 
37 36 34 30 26 22 20 16 13 10 8 6 4 3 2 1 
0 0 0 0 0 0 0 0 0 0 0 0 0 0 0 0 0 0 0 0 0 0 0 0 0 0 0 0 0 0 0 0 
0 0 0 0 0 0 0 0 0 2 5 8 12 16 19 21 
22 23 22 20 17 17 15 12 10 8 6 4 3 2 1 1 
0 0 0 0 0 0 0 0 0 0 0 0 0 0 0 0 0 0 0 0 0 0 0 0 0 0 0 0 0 0 0 0 
0 0 0 0 0 0 0 0 0 0 0 0 1 4 7 9 
11 11 12 11 12 11 10 8 7 5 4 3 2 1 1 0 
0 0 0 0 0 0 0 0 0 0 0 0 0 0 0 0 0 0 0 0 0 0 0 0 0 0 0 0 0 0 0 0 
0 0 0 0 0 0 0 0 0 0 0 0 0 0 0 0 
2 3 4 6 6 6 5 5 4 3 2 2 1 0 0 0 
0 0 0 0 0 0 0 0 0 0 0 0 0 0 0 0 0 0 0 0 0 0 0 0 0 0 0 0 0 0 0 0 
0 0 0 0 0 0 0 0 0 0 0 0 0 0 0 0 
0 0 0 1 1 2 2 2 1 1 1 0 0 0 0 0 
0 0 0 0 0 0 0 0 0 0 0 0 0 0 0 0 0 0 0 0 0 0 0 0 0 0 0 0 0 0 0 0 
0 0 0 0 0 0 0 0 0 0 0 0 0 0 0 0 
0 0 0 0 0 0 0 0 0 0 0 0 0 0 0 0 
0 0 0 0 0 0 0 0 0 0 0 0 0 0 0 0 0 0 0 0 0 0 0 0 0 0 0 0 0 0 0 0 
0 0 0 0 0 0 0 0 0 0 0 0 0 0 0 0 
0 0 0 0 0 0 0 0 0 0 0 0 0 0 0 0 
0 0 0 0 0 0 0 0 0 0 0 0 0 0 0 0 0 0 0 0 0 0 0 0 0 0 0 0 0 0 0 0 
0 0 0 0 0 0 0 0 0 0 0 0 0 0 0 0 
0 0 0 0 0 0 0 0 0 0 0 0 0 0 0 0 
0 0 0 0 0 0 0 0 0 0 0 0 0 0 0 