P2
# Created by IrfanView
64 64
255
0 0 0 0 0 0 0 0 0 0 0 0 0 0 0 0 0 
0 0 0 0 0 0 0 1 2 2 3 4 4 4 4 4 
4 4 4 3 3 2 2 1 0 0 0 0 0 0 0 0 
0 0 0 0 0 0 0 0 0 0 0 0 0 0 0 0 0 0 0 0 0 0 0 0 0 0 0 0 0 0 0 0 
0 0 0 0 0 0 1 2 3 4 5 5 6 6 6 6 
6 5 5 5 4 4 3 2 1 0 0 0 0 0 0 0 
0 0 0 0 0 0 0 0 0 0 0 0 0 0 0 0 0 0 0 0 0 0 0 0 0 0 0 0 0 0 0 0 
0 0 0 0 0 2 3 4 5 6 7 7 7 8 8 8 
8 7 7 6 6 5 4 4 3 2 1 0 0 0 0 0 
0 0 0 0 0 0 0 0 0 0 0 0 0 0 0 0 0 0 0 0 0 0 0 0 0 0 0 0 0 0 0 0 
0 0 0 1 3 4 6 7 8 8 9 10 10 10 10 10 
10 9 9 8 8 7 6 5 4 3 2 1 0 0 0 0 
0 0 0 0 0 0 0 0 0 0 0 0 0 0 0 0 0 0 0 0 0 0 0 0 0 0 0 0 0 0 0 0 
0 0 1 3 5 7 8 10 11 11 12 12 13 13 13 13 
12 12 11 11 10 9 8 7 6 5 4 3 2 1 0 0 
0 0 0 0 0 0 0 0 0 0 0 0 0 0 0 0 0 0 0 0 0 0 0 0 0 0 0 0 0 0 0 0 
0 2 5 7 9 10 12 13 14 15 15 16 16 16 16 16 
16 15 14 14 13 12 11 10 9 8 6 5 4 3 1 0 
0 0 0 0 0 0 0 0 0 0 0 0 0 0 0 0 0 0 0 0 0 0 0 0 0 0 0 0 0 0 0 1 
4 6 9 11 13 14 16 17 18 19 19 20 20 20 20 20 
20 19 18 17 16 15 14 12 11 10 9 8 6 5 4 2 
1 0 0 0 0 0 0 0 0 0 0 0 0 0 0 0 0 0 0 0 0 0 0 0 0 0 0 0 0 0 3 6 
9 11 14 16 17 19 20 21 22 23 24 25 25 25 25 25 
24 23 22 21 20 18 17 16 14 13 12 11 9 8 7 5 
4 2 1 0 0 0 0 0 0 0 0 0 0 0 0 0 0 0 0 0 0 0 0 0 0 0 0 0 2 5 8 11 
14 17 19 21 23 24 25 27 28 29 30 30 31 32 32 31 
30 29 28 26 24 22 21 19 18 16 15 14 12 11 10 8 
7 5 4 2 1 0 0 0 0 0 0 0 0 0 0 0 0 0 0 0 0 0 0 0 0 0 2 5 8 12 15 18 
21 23 25 27 29 30 31 32 34 35 36 37 39 39 39 39 
38 36 34 32 29 27 25 23 21 20 18 17 16 15 13 12 
10 9 7 6 4 3 2 1 1 1 0 0 1 1 1 0 0 0 0 0 0 0 0 2 4 7 9 13 16 19 22 25 
28 30 32 34 35 36 38 39 40 42 44 46 48 49 50 49 
48 45 42 39 35 32 29 27 25 24 22 21 20 18 17 16 
14 12 11 9 8 7 6 5 4 4 3 3 3 3 3 0 1 1 2 3 4 5 7 9 12 14 17 20 24 27 30 33 
35 37 39 41 42 43 44 46 48 50 53 56 62 66 68 69 
67 64 60 54 43 38 35 32 29 28 26 25 24 23 21 20 
18 16 15 13 12 10 9 8 7 7 6 6 5 5 5 5 6 7 8 9 11 12 14 17 19 22 25 28 31 35 38 41 
43 45 47 48 50 51 52 54 56 59 60 67 73 78 80 81 
79 75 69 62 55 48 40 36 34 32 30 29 28 27 26 24 
22 20 19 17 15 14 12 11 10 9 9 8 8 7 6 9 10 12 13 15 17 19 21 24 26 29 32 36 39 43 46 49 
51 54 55 56 57 58 59 61 51 59 67 76 83 89 92 92 
89 84 77 68 59 51 43 41 38 36 35 34 33 31 30 28 
26 24 22 20 19 17 15 14 13 12 11 10 9 8 6 12 14 16 18 20 22 25 27 30 33 36 39 43 47 50 54 57 
60 62 63 64 65 65 66 46 54 63 73 82 91 98 102 102 
98 91 82 72 61 52 43 37 41 39 39 38 37 36 35 33 
31 29 26 24 22 20 18 17 15 14 13 12 10 8 6 15 17 19 22 24 27 29 32 35 38 42 46 49 54 58 61 65 
68 70 71 72 72 72 73 47 55 64 75 86 96 104 108 108 
103 95 83 71 59 49 40 34 29 42 42 42 42 41 39 37 
35 33 30 27 25 22 20 19 17 15 14 12 11 8 5 18 20 22 25 27 30 33 36 39 43 47 51 55 60 64 69 72 
75 78 79 79 78 78 38 45 52 62 72 84 94 102 107 106 
100 91 78 64 52 41 33 28 24 44 45 46 46 45 44 42 
39 36 33 30 27 25 22 20 18 17 15 13 11 8 4 19 22 24 27 29 32 35 39 42 46 50 55 60 65 70 75 79 
82 85 85 85 84 82 34 39 46 54 63 74 84 90 91 88 
83 75 63 49 37 28 21 18 16 16 47 49 50 49 48 46 
43 40 36 33 29 26 24 21 19 17 15 13 10 7 3 20 22 25 28 31 34 37 41 44 48 53 58 63 69 75 80 85 
88 91 91 90 87 26 28 31 35 40 47 56 62 62 53 42 
42 44 37 26 15 8 5 5 6 9 48 51 53 53 52 50 
47 43 39 35 31 28 25 22 20 17 15 12 10 6 0 20 23 25 28 31 34 38 41 45 50 55 60 66 72 78 84 89 
93 95 95 93 89 20 19 19 19 21 24 28 32 23 0 0 
0 8 8 0 0 0 0 0 0 0 47 53 56 57 56 53 
50 45 41 37 32 29 25 22 19 17 14 12 9 5 0 20 23 25 28 31 34 37 41 45 50 55 61 67 74 81 87 92 
96 98 98 95 89 13 9 5 1 0 0 0 2 3 0 0 
0 18 0 0 0 0 0 0 0 0 0 53 58 59 58 56 
52 47 42 38 33 29 25 22 19 16 14 11 8 4 0 20 22 24 27 30 33 36 40 44 49 55 61 67 74 81 88 94 
98 99 98 94 86 5 0 0 0 0 0 0 0 35 157 232 
255 128 0 0 0 0 0 0 0 0 0 53 59 61 60 58 
54 49 43 38 33 29 25 21 18 15 13 10 7 3 0 19 21 23 26 29 32 35 39 43 48 54 60 66 73 81 87 93 
97 99 97 92 82 0 0 0 0 0 0 0 0 38 255 255 
255 150 0 0 0 0 0 0 0 0 0 52 59 61 61 58 
54 49 44 38 33 28 24 21 17 14 12 9 6 2 0 18 20 22 25 27 30 33 37 41 46 52 58 64 71 78 85 91 
94 96 93 87 77 0 0 0 0 0 0 0 0 0 88 225 
168 0 0 0 0 0 0 0 0 0 38 50 58 61 61 58 
54 49 43 38 32 28 23 20 16 13 11 8 5 1 0 17 18 21 23 25 28 31 35 39 44 49 55 61 68 75 82 87 
90 91 88 82 71 0 0 0 0 0 0 0 0 0 0 0 
0 0 0 0 0 0 0 0 0 0 35 48 56 59 59 57 
53 48 42 36 31 26 22 18 15 12 9 7 4 1 0 15 17 19 21 24 26 29 33 37 41 46 52 58 64 71 77 81 
84 85 82 75 64 47 0 0 0 0 0 0 0 0 0 0 
0 0 0 0 0 0 0 0 0 0 32 45 53 57 57 55 
51 46 40 35 30 25 21 17 14 11 8 6 3 0 0 14 16 18 20 22 24 27 30 34 38 43 48 54 60 65 71 75 
78 78 74 67 56 40 0 0 0 0 0 0 0 0 0 0 
0 0 0 0 0 0 0 0 0 11 29 42 49 53 54 51 
48 43 38 33 28 23 19 16 13 10 7 5 2 0 0 13 14 16 18 20 22 25 28 31 35 39 44 49 55 60 64 68 
70 70 66 60 49 35 15 0 0 0 0 0 0 0 0 0 
0 0 0 0 0 0 0 0 0 10 26 38 45 49 49 48 
44 40 35 30 26 22 18 15 12 9 6 4 2 0 0 12 13 15 17 18 21 23 26 29 32 36 40 45 49 54 58 61 
62 62 58 52 43 29 12 0 0 0 0 0 0 0 0 0 
0 0 0 0 0 0 0 0 0 9 24 34 40 44 44 43 
40 36 32 28 24 20 16 13 11 8 6 3 1 0 0 11 12 14 15 17 19 21 24 26 29 33 37 40 44 48 51 54 
55 54 51 45 37 25 11 0 0 0 0 0 0 0 0 0 
0 0 0 0 0 0 0 0 0 8 20 29 35 39 39 38 
36 33 29 25 22 18 15 12 9 7 5 3 1 0 0 10 11 12 14 16 17 19 22 24 27 30 33 36 40 43 45 47 
48 47 44 39 31 21 9 0 0 0 0 0 0 0 0 0 
0 0 0 0 0 0 0 0 0 7 17 25 30 33 34 33 
32 29 26 23 19 16 13 11 9 6 4 3 1 0 0 9 10 11 13 14 16 18 20 22 25 27 30 33 35 38 40 41 
41 40 37 33 27 19 9 0 0 0 0 0 0 0 0 0 
0 0 0 0 0 0 0 0 0 5 14 21 25 28 29 29 
27 25 23 20 17 14 12 10 8 6 4 2 1 0 0 8 9 11 12 13 15 17 18 20 23 25 27 29 32 34 35 36 
36 35 32 28 23 16 9 1 0 0 0 0 0 0 0 0 
0 0 0 0 0 0 0 0 0 4 11 17 21 23 24 24 
23 22 20 17 15 13 11 9 7 5 4 2 1 0 0 8 9 10 11 13 14 15 17 19 21 23 25 27 28 30 31 31 
31 30 27 24 20 15 9 4 0 0 0 0 13 24 32 33 
27 16 2 0 0 0 0 0 0 2 8 13 16 19 20 20 
19 18 17 15 13 11 9 8 6 5 3 2 1 0 0 7 8 9 11 12 13 14 16 18 19 21 23 24 26 27 27 28 
27 26 24 21 17 13 9 6 0 0 7 24 44 64 78 80 
71 52 30 9 0 0 0 0 0 1 5 9 12 15 16 16 
16 15 14 13 11 10 8 7 6 4 3 2 1 0 0 7 8 9 10 11 12 14 15 16 18 19 21 22 23 24 24 24 
24 22 20 18 15 12 9 0 0 6 23 48 78 110 133 139 
125 95 60 29 5 0 0 0 0 0 3 6 9 11 12 13 
13 13 12 11 10 9 7 6 5 4 3 2 1 0 0 6 7 8 9 11 12 13 14 16 17 18 19 20 21 22 22 22 
21 20 18 16 13 11 0 0 2 14 35 66 107 154 190 202 
181 137 87 45 16 0 0 0 0 0 1 4 6 8 9 10 
10 10 10 9 8 7 6 5 4 3 2 1 1 0 0 6 7 8 9 10 11 12 13 15 16 17 18 19 20 20 20 19 
19 17 16 14 12 9 0 1 6 16 37 70 119 178 230 248 
220 163 101 52 19 0 0 0 0 0 0 1 4 5 6 7 
8 8 8 7 7 6 5 5 4 3 2 1 1 0 0 6 7 8 8 9 11 12 13 14 15 16 17 18 18 18 18 18 
17 16 14 12 10 8 5 4 6 12 26 53 97 157 214 237 
209 149 87 42 14 0 0 0 0 0 0 0 2 3 4 5 
6 6 6 6 5 5 5 4 3 3 2 1 1 0 0 5 6 7 8 9 10 11 12 13 14 15 16 16 17 17 17 16 
15 14 13 11 9 7 10 6 3 2 5 15 37 74 115 136 
120 80 42 15 1 0 0 0 0 0 0 0 0 1 2 3 
4 4 4 4 4 4 4 3 3 2 2 1 1 0 0 5 6 7 8 9 9 10 11 12 13 14 15 15 15 15 15 15 
14 13 12 10 8 6 14 8 0 0 0 0 0 0 0 0 
0 0 0 0 0 0 0 0 2 0 0 0 0 0 1 2 
2 3 3 3 3 3 3 3 2 2 1 1 1 0 0 5 6 6 7 8 9 10 11 11 12 13 13 14 14 14 14 14 
13 12 11 10 8 6 19 11 0 0 0 0 0 0 0 0 
0 0 0 0 0 0 0 2 7 0 0 0 0 0 0 1 
1 1 2 2 2 2 2 2 2 2 1 1 0 0 0 5 5 6 7 7 8 9 10 11 11 12 12 13 13 13 13 12 
12 11 11 10 8 7 26 16 3 0 0 0 0 0 0 0 
0 0 0 0 0 0 1 8 13 0 0 0 0 0 0 0 
0 0 1 1 1 1 1 1 1 1 1 1 0 0 0 4 5 5 6 7 8 8 9 10 10 11 11 12 12 12 12 11 
11 11 10 10 9 8 33 24 11 0 0 0 0 0 0 0 
0 0 0 0 0 0 9 16 20 0 0 0 0 0 0 0 
0 0 0 0 1 1 1 1 1 1 1 0 0 0 0 4 4 5 6 6 7 8 8 9 9 10 10 10 11 11 11 10 
10 10 10 10 10 10 10 33 23 8 0 0 0 0 0 0 
0 0 0 0 0 10 18 24 4 3 1 0 0 0 0 0 
0 0 0 0 0 0 0 0 0 0 0 0 0 0 0 4 4 5 5 6 6 7 7 8 8 9 9 9 9 9 9 9 
10 10 10 11 11 12 13 43 35 24 9 0 0 0 0 0 
0 0 0 2 14 22 28 31 8 5 3 2 0 0 0 0 
0 0 0 0 0 0 0 0 0 0 0 0 0 0 0 3 4 4 5 5 6 6 6 7 7 8 8 8 8 8 8 9 
9 9 10 11 13 14 16 18 46 39 29 18 7 0 0 0 
0 4 13 22 28 33 36 15 11 8 5 3 1 0 0 0 
0 0 0 0 0 0 0 0 0 0 0 0 0 0 0 3 3 4 4 4 5 5 6 6 6 6 7 7 7 7 7 8 
8 9 10 12 14 16 19 23 27 51 45 39 32 27 23 23 
25 29 33 37 40 42 23 18 14 10 7 4 2 1 0 0 
0 0 0 0 0 0 0 0 0 0 0 0 0 0 0 3 3 3 3 4 4 4 5 5 5 5 6 6 6 6 6 7 
7 8 10 12 14 17 21 26 31 37 43 54 50 46 44 44 
44 45 47 48 40 33 27 21 16 12 8 5 3 1 0 0 
0 0 0 0 0 0 0 0 0 0 0 0 0 0 0 2 2 3 3 3 3 4 4 4 4 4 5 5 5 5 5 6 
7 8 9 11 14 18 22 28 34 41 48 55 61 65 58 57 
56 56 57 51 44 36 30 23 18 13 9 6 4 2 0 0 
0 0 0 0 0 0 0 0 0 0 0 0 0 0 0 2 2 2 2 3 3 3 3 3 3 3 4 4 4 4 4 5 
6 7 8 11 14 17 22 28 35 42 48 56 62 67 69 69 
67 62 56 53 45 38 31 24 19 14 10 7 4 2 1 0 
0 0 0 0 0 0 0 0 0 0 0 0 0 0 0 2 2 2 2 2 2 2 2 3 3 3 3 3 3 3 3 4 
5 6 7 10 13 16 21 27 34 39 47 54 61 65 68 68 
66 61 55 53 45 38 31 24 19 14 10 7 5 2 1 0 
0 0 0 0 0 0 0 0 0 0 0 0 0 0 0 1 1 1 2 2 2 2 2 2 2 2 2 2 2 2 2 3 
3 5 6 8 11 14 19 25 31 35 43 50 56 61 63 64 
62 58 52 46 43 36 29 23 18 14 10 7 5 3 1 0 
0 0 0 0 0 0 0 0 0 0 0 0 0 0 0 1 1 1 1 1 1 1 1 1 1 1 1 1 1 1 1 2 
2 3 5 6 9 12 16 21 27 30 37 44 49 54 56 57 
56 52 47 41 39 33 27 22 17 13 9 7 4 3 1 0 
0 0 0 0 0 0 0 0 0 0 0 0 0 0 0 1 1 1 1 1 1 1 1 1 1 0 0 0 0 0 0 1 
1 2 3 4 7 9 13 17 22 24 30 36 41 45 47 48 
47 45 41 40 34 29 24 19 15 12 9 6 4 2 1 0 
0 0 0 0 0 0 0 0 0 0 0 0 0 0 0 0 0 0 0 0 0 0 0 0 0 0 0 0 0 0 0 0 
0 1 1 3 4 6 9 12 16 18 23 27 32 35 37 38 
38 36 33 33 29 24 20 16 13 10 7 5 3 2 1 0 
0 0 0 0 0 0 0 0 0 0 0 0 0 0 0 0 0 0 0 0 0 0 0 0 0 0 0 0 0 0 0 0 
0 0 0 1 2 3 5 8 11 14 15 19 22 25 27 28 
28 27 25 26 23 20 16 13 11 8 6 4 3 2 1 0 
0 0 0 0 0 0 0 0 0 0 0 0 0 0 0 0 0 0 0 0 0 0 0 0 0 0 0 0 0 0 0 0 
0 0 0 0 0 1 2 4 6 8 11 11 14 16 18 19 
19 19 21 19 17 15 13 10 8 6 5 3 2 1 0 0 
0 0 0 0 0 0 0 0 0 0 0 0 0 0 0 0 0 0 0 0 0 0 0 0 0 0 0 0 0 0 0 0 
0 0 0 0 0 0 0 0 2 3 5 7 9 9 10 14 
15 15 14 13 12 11 9 7 6 5 3 2 1 1 0 0 
0 0 0 0 0 0 0 0 0 0 0 0 0 0 0 0 0 0 0 0 0 0 0 0 0 0 0 0 0 0 0 0 
0 0 0 0 0 0 0 0 0 0 1 2 3 5 6 7 
8 9 9 8 8 7 6 5 4 3 2 1 1 0 0 0 
0 0 0 0 0 0 0 0 0 0 0 0 0 0 0 0 0 0 0 0 0 0 0 0 0 0 0 0 0 0 0 0 
0 0 0 0 0 0 0 0 0 0 0 0 0 0 1 2 
3 4 4 4 4 4 3 3 2 1 1 0 0 0 0 0 
0 0 0 0 0 0 0 0 0 0 0 0 0 0 0 0 0 0 0 0 0 0 0 0 0 0 0 0 0 0 0 0 
0 0 0 0 0 0 0 0 0 0 0 0 0 0 0 0 
0 0 1 1 1 1 1 1 1 0 0 0 0 0 0 0 
0 0 0 0 0 0 0 0 0 0 0 0 0 0 0 0 0 0 0 0 0 0 0 0 0 0 0 0 0 0 0 0 
0 0 0 0 0 0 0 0 0 0 0 0 0 0 0 0 
0 0 0 0 0 0 0 0 0 0 0 0 0 0 0 0 
0 0 0 0 0 0 0 0 0 0 0 0 0 0 0 0 0 0 0 0 0 0 0 0 0 0 0 0 0 0 0 0 
0 0 0 0 0 0 0 0 0 0 0 0 0 0 0 0 
0 0 0 0 0 0 0 0 0 0 0 0 0 0 0 0 
0 0 0 0 0 0 0 0 0 0 0 0 0 0 0 