P2
# Created by IrfanView
64 64
255
0 0 0 0 0 0 0 0 0 0 0 0 0 0 0 0 0 
0 0 0 0 0 0 0 0 2 2 3 4 4 4 4 4 
4 4 4 3 3 2 2 1 0 0 0 0 0 0 0 0 
0 0 0 0 0 0 0 0 0 0 0 0 0 0 0 0 0 0 0 0 0 0 0 0 0 0 0 0 0 0 0 0 
0 0 0 0 0 0 1 2 3 4 5 5 6 6 6 6 
6 6 5 5 4 4 3 2 1 0 0 0 0 0 0 0 
0 0 0 0 0 0 0 0 0 0 0 0 0 0 0 0 0 0 0 0 0 0 0 0 0 0 0 0 0 0 0 0 
0 0 0 0 0 1 3 4 5 6 7 8 8 8 8 8 
8 8 7 7 6 5 5 4 3 2 1 0 0 0 0 0 
0 0 0 0 0 0 0 0 0 0 0 0 0 0 0 0 0 0 0 0 0 0 0 0 0 0 0 0 0 0 0 0 
0 0 0 0 2 4 6 7 8 9 10 10 11 11 11 11 
11 10 10 9 8 8 7 6 5 3 2 1 0 0 0 0 
0 0 0 0 0 0 0 0 0 0 0 0 0 0 0 0 0 0 0 0 0 0 0 0 0 0 0 0 0 0 0 0 
0 0 1 3 5 7 9 10 11 12 13 13 14 14 14 14 
14 13 12 12 11 10 9 8 7 6 4 3 2 0 0 0 
0 0 0 0 0 0 0 0 0 0 0 0 0 0 0 0 0 0 0 0 0 0 0 0 0 0 0 0 0 0 0 0 
0 1 4 7 9 11 13 14 15 16 17 17 18 18 18 18 
17 17 16 15 14 13 12 11 9 8 7 5 4 2 1 0 
0 0 0 0 0 0 0 0 0 0 0 0 0 0 0 0 0 0 0 0 0 0 0 0 0 0 0 0 0 0 0 0 
3 6 9 12 14 16 17 18 19 20 21 22 22 22 22 22 
22 21 20 19 18 16 15 14 13 11 10 8 7 5 4 2 
0 0 0 0 0 0 0 0 0 0 0 0 0 0 0 0 0 0 0 0 0 0 0 0 0 0 0 0 0 0 1 5 
9 12 15 17 19 21 22 24 25 26 27 27 28 28 28 28 
27 26 25 24 22 20 19 18 16 15 13 12 10 9 7 5 
3 1 0 0 0 0 0 0 0 0 0 0 0 0 0 0 0 0 0 0 0 0 0 0 0 0 0 0 0 4 8 12 
15 18 21 23 25 27 28 30 31 32 33 34 35 35 35 35 
34 33 31 29 27 25 24 22 20 19 17 16 14 12 11 9 
7 5 3 2 0 0 0 0 0 0 0 0 0 0 0 0 0 0 0 0 0 0 0 0 0 0 0 4 8 12 16 20 
23 26 28 31 32 34 35 37 38 39 41 42 44 44 45 44 
43 41 39 36 34 31 29 27 25 23 21 20 18 17 15 13 
11 9 8 6 4 3 2 1 0 0 0 0 1 1 2 0 0 0 0 0 0 0 0 0 2 6 9 13 17 21 25 28 
31 34 37 39 40 42 43 44 46 48 50 52 54 56 57 56 
55 52 49 45 41 38 35 32 30 28 26 25 23 22 20 18 
16 14 12 10 9 7 6 5 4 4 4 4 4 5 5 0 1 1 2 3 4 5 7 9 12 15 19 22 26 30 34 37 
41 43 45 47 49 50 52 53 55 58 61 65 70 75 78 78 
77 73 68 62 51 46 41 38 35 33 31 30 28 27 25 23 
21 19 17 15 13 11 10 9 8 8 8 8 8 8 8 6 7 8 9 11 12 14 16 19 22 25 28 32 36 40 44 47 
50 53 55 57 58 59 61 63 66 70 68 77 84 90 94 94 
92 87 81 72 64 55 49 45 41 39 37 36 34 32 30 28 
26 24 22 19 17 16 14 13 12 11 11 11 10 10 10 11 12 14 16 18 20 22 25 28 31 34 38 42 46 50 54 57 
61 63 65 67 68 69 71 73 77 68 79 89 99 106 110 111 
108 102 93 83 72 61 52 51 47 45 43 42 40 38 36 34 
31 29 26 24 22 20 18 17 16 15 14 13 13 12 11 15 17 19 22 24 27 30 32 35 39 42 46 50 55 59 64 68 
71 74 76 77 78 79 80 53 64 76 88 101 112 121 127 128 
124 116 104 91 78 65 54 45 54 51 49 48 46 45 42 40 
37 34 31 28 26 23 21 20 18 17 16 15 14 13 11 18 21 24 26 29 32 35 38 42 45 49 54 58 63 68 73 78 
82 85 87 88 88 89 90 56 68 80 95 110 124 135 141 142 
137 127 113 97 81 67 54 45 37 56 55 54 53 51 49 46 
43 39 35 32 29 27 24 22 21 19 18 16 15 13 10 21 24 27 30 33 36 39 43 47 51 55 60 65 71 77 82 88 
92 95 97 98 98 98 47 56 68 82 97 114 130 142 149 149 
143 132 115 97 79 63 51 41 34 61 61 60 59 58 55 52 
48 44 40 36 32 29 26 24 22 20 19 17 15 13 9 23 26 29 32 35 39 42 46 50 54 59 65 71 77 84 91 97 
102 105 107 107 106 105 44 53 64 78 94 111 127 137 140 137 
132 123 108 89 71 55 43 34 28 25 66 66 66 64 61 58 
53 48 43 39 35 31 28 25 23 21 19 17 14 11 7 24 27 30 33 36 40 43 47 52 57 62 68 75 82 90 98 104 
110 114 116 115 113 34 40 47 56 68 83 99 110 110 95 79 
82 90 86 71 54 40 30 23 20 18 69 71 72 70 67 63 
58 52 47 42 37 33 29 26 23 21 19 16 13 10 0 24 27 30 33 36 40 44 48 52 58 64 70 78 86 95 103 111 
117 121 123 122 118 29 32 37 43 52 64 76 79 56 0 0 
0 27 51 44 30 18 12 9 9 11 72 76 77 76 73 68 
62 56 50 44 38 33 29 26 23 20 18 15 12 8 3 23 26 29 32 35 39 43 47 52 58 64 71 79 88 98 107 115 
122 126 128 126 121 22 23 24 27 31 37 45 43 0 0 0 
0 0 17 11 0 0 0 0 0 2 6 79 81 81 77 72 
66 59 52 45 39 34 29 26 22 19 17 14 11 7 2 22 25 28 31 34 38 41 46 51 57 63 71 79 89 99 109 117 
125 129 130 127 120 15 13 10 8 6 6 10 13 0 0 0 
0 0 0 0 0 0 0 0 0 0 0 81 84 84 81 75 
68 60 53 46 39 34 29 25 21 18 15 12 9 5 1 21 24 26 29 32 36 39 44 49 55 61 69 78 88 98 108 117 
124 129 129 125 117 8 3 0 0 0 0 0 0 10 51 83 
112 50 0 0 0 0 0 0 0 0 0 82 86 86 83 77 
69 61 53 46 39 33 28 24 20 17 14 11 8 4 0 20 22 25 27 30 33 37 41 46 52 59 67 75 85 95 105 114 
121 125 125 121 111 2 0 0 0 0 0 0 0 0 36 98 
75 0 0 0 0 0 0 0 0 0 70 81 86 86 83 77 
69 61 53 45 38 32 27 22 19 15 12 9 6 3 0 18 20 23 25 28 31 35 39 43 49 55 63 72 81 91 100 109 
116 119 119 114 103 0 0 0 0 0 0 0 0 0 0 0 
0 0 0 0 0 0 0 0 0 0 67 78 84 84 81 75 
68 60 51 43 36 30 25 21 17 14 11 8 5 2 0 17 19 21 23 26 29 32 36 40 45 52 59 67 76 85 94 102 
108 111 110 105 94 77 0 0 0 0 0 0 0 0 0 0 
0 0 0 0 0 0 0 0 0 0 62 74 80 81 78 72 
65 57 49 41 35 29 24 19 16 12 9 7 4 1 0 15 17 19 21 23 26 29 33 37 42 48 54 62 70 78 86 94 
99 101 100 94 83 67 0 0 0 0 0 0 0 0 0 0 
0 0 0 0 0 0 0 0 0 40 57 68 74 76 73 68 
61 54 46 39 32 27 22 18 14 11 8 5 3 0 0 14 15 17 19 21 24 27 30 34 38 44 50 56 64 71 78 84 
89 90 89 83 73 58 38 0 0 0 0 0 0 0 0 0 
0 0 0 0 0 0 0 0 0 36 52 62 68 69 67 63 
57 50 43 36 30 25 20 16 13 10 7 4 2 0 0 12 14 16 17 19 22 24 27 31 35 40 45 51 57 63 70 75 
78 79 77 72 62 49 31 0 0 0 0 0 0 0 0 0 
0 0 0 0 0 0 0 0 13 31 45 55 60 62 60 56 
51 45 39 33 27 23 18 15 11 9 6 4 1 0 0 11 13 14 16 18 20 22 25 28 32 36 41 46 51 56 61 65 
68 68 66 61 53 41 26 8 0 0 0 0 0 0 0 0 
0 0 0 0 0 0 0 0 11 26 39 47 52 54 53 50 
46 40 35 30 25 20 17 13 10 8 5 3 1 0 0 10 12 13 15 16 18 20 23 26 29 33 37 41 45 50 54 57 
58 58 56 51 44 34 21 7 0 0 0 0 0 0 0 0 
0 0 0 0 0 0 0 0 8 22 32 40 44 46 46 43 
40 36 31 26 22 18 15 12 9 7 5 3 1 0 0 9 11 12 13 15 17 19 21 24 26 29 33 36 40 44 47 49 
50 50 47 43 37 28 18 6 0 0 0 0 0 0 0 0 
0 0 0 0 0 0 0 0 6 17 26 33 37 39 39 37 
34 31 27 23 20 16 13 11 8 6 4 2 1 0 0 9 10 11 12 14 16 17 20 22 24 27 30 33 36 38 41 42 
43 42 40 36 30 23 15 6 0 0 0 0 0 0 0 0 
0 0 0 0 0 0 0 0 3 12 20 26 29 31 32 31 
29 26 23 20 17 15 12 10 7 6 4 2 0 0 0 8 9 10 12 13 15 16 18 20 22 25 27 29 32 34 35 36 
36 35 33 30 25 19 13 6 0 0 0 0 14 27 35 36 
29 16 0 0 0 0 0 0 0 8 14 19 23 25 26 25 
24 22 20 18 15 13 11 9 7 5 3 2 1 0 0 7 9 10 11 12 14 15 17 19 21 23 25 27 29 30 31 32 
31 30 28 25 21 16 11 0 0 0 5 25 48 72 89 92 
80 56 29 4 0 0 0 0 0 4 9 14 17 19 20 20 
20 18 17 15 13 11 9 8 6 5 3 2 1 0 0 7 8 9 10 12 13 15 16 18 20 21 23 25 26 27 28 28 
27 26 24 21 17 13 9 0 0 3 22 51 89 129 161 169 
148 108 63 25 0 0 0 0 0 0 5 9 12 14 15 16 
16 15 14 13 11 10 8 7 6 4 3 2 1 0 0 7 8 9 10 11 13 14 15 17 19 20 22 23 24 25 25 25 
24 22 20 17 14 11 0 0 0 10 33 71 127 193 249 255 
232 166 97 43 8 0 0 0 0 0 1 5 8 10 11 12 
12 12 11 10 9 8 7 6 5 4 3 2 1 0 0 6 7 8 10 11 12 13 15 16 18 19 20 21 22 22 22 22 
21 20 17 15 12 8 0 0 0 10 33 76 145 239 255 255 
255 211 116 49 10 0 0 0 0 0 0 1 4 6 8 9 
9 9 9 8 8 7 6 5 4 3 3 2 1 0 0 6 7 8 9 10 11 13 14 15 17 18 19 20 20 21 20 20 
19 17 15 13 10 6 0 0 0 2 18 52 117 221 255 255 
255 203 99 34 1 0 0 0 0 0 0 0 1 3 5 6 
6 7 7 7 6 6 5 5 4 3 2 2 1 0 0 6 7 8 9 10 11 12 13 15 16 17 18 18 19 19 19 18 
17 15 13 11 8 8 3 0 0 0 0 0 29 94 183 233 
190 102 34 0 0 0 0 0 0 0 0 0 0 1 2 3 
4 5 5 5 5 5 4 4 3 3 2 1 1 0 0 6 6 7 8 9 10 12 13 14 15 16 17 17 17 17 17 16 
15 14 12 10 7 14 7 0 0 0 0 0 0 0 0 0 
0 0 0 0 0 0 0 0 0 0 0 0 0 0 0 1 
2 3 3 3 4 4 3 3 3 2 2 1 1 0 0 5 6 7 8 9 10 11 12 13 14 15 15 16 16 16 16 15 
14 13 11 9 6 20 12 1 0 0 0 0 0 0 0 0 
0 0 0 0 0 0 0 0 1 6 0 0 0 0 0 0 
0 1 2 2 2 3 3 2 2 2 2 1 1 0 0 5 6 7 7 8 9 10 11 12 13 14 14 14 15 14 14 13 
13 11 10 9 7 4 18 7 0 0 0 0 0 0 0 0 
0 0 0 0 0 0 0 1 7 0 0 0 0 0 0 0 
0 0 0 1 1 2 2 2 2 1 1 1 1 0 0 5 5 6 7 8 9 9 10 11 12 12 13 13 13 13 13 12 
11 11 10 9 7 5 26 16 1 0 0 0 0 0 0 0 
0 0 0 0 0 0 1 9 14 0 0 0 0 0 0 0 
0 0 0 0 0 1 1 1 1 1 1 1 0 0 0 4 5 6 6 7 8 9 9 10 11 11 11 12 12 12 11 11 
10 10 9 9 8 7 34 26 13 0 0 0 0 0 0 0 
0 0 0 0 0 3 12 17 21 0 0 0 0 0 0 0 
0 0 0 0 0 0 0 1 1 1 1 0 0 0 0 4 4 5 6 6 7 8 8 9 9 10 10 10 10 10 10 10 
9 9 9 9 9 9 9 36 27 14 0 0 0 0 0 0 
0 0 0 0 8 16 22 26 4 2 0 0 0 0 0 0 
0 0 0 0 0 0 0 0 0 0 0 0 0 0 0 4 4 5 5 6 6 7 7 8 8 8 9 9 9 9 9 9 
9 9 9 9 10 11 13 14 39 31 21 9 0 0 0 0 
0 0 8 17 23 28 31 11 7 4 2 0 0 0 0 0 
0 0 0 0 0 0 0 0 0 0 0 0 0 0 0 3 4 4 5 5 5 6 6 7 7 7 7 7 7 7 7 7 
8 8 9 10 11 13 15 18 21 44 38 32 25 20 18 18 
20 24 29 33 35 37 19 14 10 7 3 1 0 0 0 0 
0 0 0 0 0 0 0 0 0 0 0 0 0 0 0 3 3 3 4 4 5 5 5 6 6 6 6 6 6 6 6 6 
7 7 8 10 12 14 17 21 25 30 51 47 43 41 39 39 
39 41 42 43 44 28 22 17 12 8 5 2 0 0 0 0 
0 0 0 0 0 0 0 0 0 0 0 0 0 0 0 2 3 3 3 4 4 4 4 5 5 5 5 5 5 5 5 5 
6 7 8 10 12 15 18 23 28 33 39 44 55 53 52 51 
51 51 50 43 37 30 24 19 14 10 6 3 1 0 0 0 
0 0 0 0 0 0 0 0 0 0 0 0 0 0 0 2 2 3 3 3 3 3 4 4 4 4 4 4 4 4 4 4 
5 6 7 9 11 15 18 23 28 34 41 46 52 50 52 59 
58 54 50 44 38 31 25 20 15 11 7 4 2 0 0 0 
0 0 0 0 0 0 0 0 0 0 0 0 0 0 0 2 2 2 2 2 3 3 3 3 3 3 3 3 3 3 3 3 
4 5 6 8 11 14 18 22 28 34 40 46 46 50 51 51 
50 54 49 43 37 31 25 20 15 11 7 4 2 0 0 0 
0 0 0 0 0 0 0 0 0 0 0 0 0 0 0 1 1 2 2 2 2 2 2 2 2 2 2 2 2 2 2 2 
3 4 5 7 9 12 16 21 26 32 38 38 43 46 48 49 
47 51 46 41 35 30 24 19 15 11 7 5 2 1 0 0 
0 0 0 0 0 0 0 0 0 0 0 0 0 0 0 1 1 1 1 1 1 1 1 1 1 1 1 1 1 1 1 2 
2 3 4 6 8 11 14 18 23 28 33 34 38 42 43 44 
43 46 42 37 32 27 22 18 14 10 7 5 3 1 0 0 
0 0 0 0 0 0 0 0 0 0 0 0 0 0 0 1 1 1 1 1 1 1 1 1 1 1 0 0 0 0 0 1 
1 2 3 4 6 8 11 15 19 23 28 33 32 35 37 37 
37 40 37 33 29 24 20 16 12 9 7 4 2 1 0 0 
0 0 0 0 0 0 0 0 0 0 0 0 0 0 0 1 1 1 1 1 1 0 0 0 0 0 0 0 0 0 0 0 
0 1 1 3 4 6 8 11 15 18 22 26 25 28 30 30 
35 33 31 28 24 21 17 14 11 8 6 4 2 1 0 0 
0 0 0 0 0 0 0 0 0 0 0 0 0 0 0 0 0 0 0 0 0 0 0 0 0 0 0 0 0 0 0 0 
0 0 0 1 2 4 5 8 10 13 16 20 22 25 27 27 
27 26 24 22 20 17 14 11 9 7 5 3 2 1 0 0 
0 0 0 0 0 0 0 0 0 0 0 0 0 0 0 0 0 0 0 0 0 0 0 0 0 0 0 0 0 0 0 0 
0 0 0 0 0 1 3 4 6 9 11 13 16 18 19 20 
20 20 18 17 15 13 11 9 7 5 4 2 1 0 0 0 
0 0 0 0 0 0 0 0 0 0 0 0 0 0 0 0 0 0 0 0 0 0 0 0 0 0 0 0 0 0 0 0 
0 0 0 0 0 0 0 1 3 5 6 8 10 11 13 13 
14 14 13 12 11 10 8 7 5 4 3 2 1 0 0 0 
0 0 0 0 0 0 0 0 0 0 0 0 0 0 0 0 0 0 0 0 0 0 0 0 0 0 0 0 0 0 0 0 
0 0 0 0 0 0 0 0 0 1 2 4 5 6 7 8 
9 9 8 8 7 6 5 4 3 3 2 1 0 0 0 0 
0 0 0 0 0 0 0 0 0 0 0 0 0 0 0 0 0 0 0 0 0 0 0 0 0 0 0 0 0 0 0 0 
0 0 0 0 0 0 0 0 0 0 0 0 1 2 3 4 
4 5 5 5 4 4 3 3 2 1 1 0 0 0 0 0 
0 0 0 0 0 0 0 0 0 0 0 0 0 0 0 0 0 0 0 0 0 0 0 0 0 0 0 0 0 0 0 0 
0 0 0 0 0 0 0 0 0 0 0 0 0 0 0 0 
1 1 2 2 2 2 1 1 1 0 0 0 0 0 0 0 
0 0 0 0 0 0 0 0 0 0 0 0 0 0 0 0 0 0 0 0 0 0 0 0 0 0 0 0 0 0 0 0 
0 0 0 0 0 0 0 0 0 0 0 0 0 0 0 0 
0 0 0 0 0 0 0 0 0 0 0 0 0 0 0 0 
0 0 0 0 0 0 0 0 0 0 0 0 0 0 0 0 0 0 0 0 0 0 0 0 0 0 0 0 0 0 0 0 
0 0 0 0 0 0 0 0 0 0 0 0 0 0 0 0 
0 0 0 0 0 0 0 0 0 0 0 0 0 0 0 0 
0 0 0 0 0 0 0 0 0 0 0 0 0 0 0 