P2
# Created by IrfanView
64 64
255
0 0 0 0 0 0 0 0 0 0 0 0 0 0 0 0 0 
0 0 0 0 0 0 0 0 1 2 3 4 4 4 5 5 
5 4 4 3 3 2 1 1 0 0 0 0 0 0 0 0 
0 0 0 0 0 0 0 0 0 0 0 0 0 0 0 0 0 0 0 0 0 0 0 0 0 0 0 0 0 0 0 0 
0 0 0 0 0 0 0 2 3 4 5 6 6 6 6 6 
6 6 6 5 5 4 3 2 1 0 0 0 0 0 0 0 
0 0 0 0 0 0 0 0 0 0 0 0 0 0 0 0 0 0 0 0 0 0 0 0 0 0 0 0 0 0 0 0 
0 0 0 0 0 1 3 4 5 6 7 8 8 9 9 9 
8 8 8 7 6 6 5 4 3 1 0 0 0 0 0 0 
0 0 0 0 0 0 0 0 0 0 0 0 0 0 0 0 0 0 0 0 0 0 0 0 0 0 0 0 0 0 0 0 
0 0 0 0 1 4 5 7 8 9 10 11 11 11 11 11 
11 11 10 9 9 8 7 6 5 3 2 0 0 0 0 0 
0 0 0 0 0 0 0 0 0 0 0 0 0 0 0 0 0 0 0 0 0 0 0 0 0 0 0 0 0 0 0 0 
0 0 0 2 5 7 9 11 12 13 13 14 14 15 15 15 
14 14 13 12 12 11 10 8 7 6 4 3 1 0 0 0 
0 0 0 0 0 0 0 0 0 0 0 0 0 0 0 0 0 0 0 0 0 0 0 0 0 0 0 0 0 0 0 0 
0 0 4 7 9 11 13 15 16 17 18 18 19 19 19 19 
18 18 17 16 15 14 13 11 10 9 7 6 4 2 0 0 
0 0 0 0 0 0 0 0 0 0 0 0 0 0 0 0 0 0 0 0 0 0 0 0 0 0 0 0 0 0 0 0 
1 5 9 12 14 16 18 20 21 22 23 23 24 24 24 24 
23 22 21 20 19 18 16 15 14 12 11 9 7 5 3 1 
0 0 0 0 0 0 0 0 0 0 0 0 0 0 0 0 0 0 0 0 0 0 0 0 0 0 0 0 0 0 0 4 
8 12 15 18 20 22 24 25 27 28 28 29 30 30 30 30 
29 28 27 25 24 22 21 19 18 16 14 13 11 9 7 5 
3 0 0 0 0 0 0 0 0 0 0 0 0 0 0 0 0 0 0 0 0 0 0 0 0 0 0 0 0 2 7 12 
16 20 23 25 28 29 31 32 33 35 36 37 37 38 38 38 
37 35 34 32 30 28 26 24 22 21 19 17 15 14 12 9 
7 5 3 1 0 0 0 0 0 0 0 0 0 0 0 0 0 0 0 0 0 0 0 0 0 0 0 1 6 11 16 21 
25 28 31 34 36 37 39 40 41 43 44 46 47 48 48 48 
47 45 42 40 37 34 32 30 28 26 24 22 21 19 17 14 
12 10 8 5 4 2 1 0 0 0 0 0 1 2 3 0 0 0 0 0 0 0 0 0 0 4 8 13 17 22 27 31 
35 38 41 43 45 46 48 49 51 53 55 57 59 61 62 61 
60 57 54 50 46 42 39 36 34 32 30 28 26 24 22 20 
18 15 13 11 9 7 6 5 5 4 4 5 6 7 7 0 0 1 1 2 3 5 7 10 13 16 20 24 29 34 38 42 
46 49 52 54 55 57 58 59 61 64 68 71 76 81 84 85 
83 80 74 63 57 51 47 43 41 38 36 35 33 31 29 26 
24 21 19 16 14 13 11 10 10 9 9 10 10 11 11 7 8 9 11 13 15 17 19 22 25 28 32 36 41 46 50 54 
58 61 64 65 67 68 69 71 74 78 74 84 93 99 103 104 
102 97 89 80 71 63 56 52 48 46 44 42 40 38 35 33 
30 27 25 22 20 18 16 15 14 14 14 14 14 14 14 13 15 17 20 22 25 27 30 33 36 40 44 48 53 57 62 67 
71 74 76 78 79 80 81 84 87 75 88 100 110 119 124 125 
123 116 106 94 82 69 58 61 56 54 51 50 48 45 43 40 
37 33 30 28 25 23 21 20 19 18 18 17 17 17 16 18 21 24 27 30 33 36 39 43 46 50 54 59 64 69 75 80 
84 88 90 91 92 93 94 97 72 85 100 115 128 139 146 148 
144 135 122 107 91 77 64 52 65 62 60 58 56 54 51 47 
44 40 36 33 30 27 25 23 22 21 21 20 19 19 18 23 26 29 32 36 39 43 46 50 54 58 63 68 74 80 87 93 
98 102 104 105 106 106 107 64 78 93 111 128 145 159 167 169 
164 152 136 118 99 82 67 54 44 70 69 67 65 62 59 55 
51 46 42 38 34 31 28 26 25 24 23 22 21 19 17 26 29 32 36 40 44 47 51 55 60 65 70 77 84 91 98 105 
111 116 119 120 119 119 54 66 81 98 118 138 158 173 182 184 
178 164 146 124 102 83 66 53 43 79 77 76 74 72 68 63 
57 52 47 42 38 34 31 29 27 25 24 22 21 19 16 27 31 34 38 42 46 50 54 59 64 69 76 83 91 100 109 117 
124 129 132 133 132 130 53 65 80 98 119 141 162 177 183 182 
176 164 146 123 99 78 61 49 39 33 86 86 84 81 76 71 
64 58 51 46 41 36 33 30 28 26 24 22 20 17 14 28 31 35 39 43 47 51 56 61 66 72 80 88 98 108 118 128 
136 142 145 146 144 41 50 61 75 93 113 135 153 159 152 141 
140 141 132 112 89 68 52 41 33 28 94 95 94 90 85 78 
71 63 55 49 43 38 34 30 28 25 23 21 19 16 11 28 31 35 39 42 46 51 55 61 67 74 82 91 102 114 125 137 
146 153 157 156 153 37 44 53 65 80 99 117 127 114 67 25 
43 86 100 89 69 51 38 29 24 21 101 103 103 99 93 85 
76 67 59 51 44 39 34 30 27 24 22 20 17 13 9 27 30 34 37 41 45 49 54 59 66 74 83 93 105 118 131 143 
154 161 165 164 159 31 36 42 51 62 76 90 92 54 0 0 
0 15 61 58 42 28 19 15 13 13 107 110 110 107 100 91 
81 71 61 53 45 39 33 29 26 23 20 18 14 11 6 26 29 32 35 39 43 47 52 57 64 72 82 93 105 119 133 147 
158 166 170 168 161 25 26 29 33 39 47 56 56 21 0 0 
0 0 29 23 10 2 0 0 2 5 9 116 116 113 106 96 
85 74 63 53 45 38 33 28 24 21 18 15 12 9 4 24 27 30 33 36 40 44 49 54 61 69 79 91 104 118 133 147 
159 167 170 168 159 18 16 15 14 14 16 19 22 15 0 0 
0 5 0 0 0 0 0 0 0 0 111 119 120 117 109 99 
87 75 64 53 44 37 31 26 22 19 16 13 10 6 2 22 24 27 30 33 37 41 45 51 58 66 76 87 100 115 129 143 
155 163 166 163 153 11 7 2 0 0 0 0 0 0 0 5 
1 0 0 0 0 0 0 0 0 0 110 119 121 118 110 100 
87 75 63 52 43 36 30 25 21 17 14 11 8 4 0 20 22 25 28 30 34 37 42 47 54 62 71 82 95 109 123 137 
148 156 158 154 144 6 0 0 0 0 0 0 0 0 0 0 
0 0 0 0 0 0 0 0 0 0 107 116 119 116 108 98 
86 73 61 51 41 34 28 23 19 15 12 9 6 3 0 18 20 22 25 28 31 34 38 43 50 57 66 76 88 101 115 127 
138 144 146 142 131 114 0 0 0 0 0 0 0 0 0 0 
0 0 0 0 0 0 0 0 0 0 101 110 114 111 104 94 
82 70 59 48 39 32 26 21 17 13 10 7 4 1 0 16 18 20 22 25 28 31 35 40 45 52 60 70 81 93 105 116 
125 131 132 127 117 100 0 0 0 0 0 0 0 0 0 0 
0 0 0 0 0 0 0 0 0 76 93 102 106 104 97 88 
77 66 55 45 37 29 24 19 15 12 9 6 3 0 0 14 16 18 20 22 25 28 32 36 41 47 55 63 73 83 94 103 
111 116 116 111 101 86 65 0 0 0 0 0 0 0 0 0 
0 0 0 0 0 0 0 0 0 68 83 92 96 94 89 81 
71 61 51 42 34 27 22 17 13 10 7 5 2 0 0 13 14 16 18 20 23 25 29 32 37 43 49 57 65 74 83 91 
97 100 100 95 86 72 54 31 0 0 0 0 0 0 0 0 
0 0 0 0 0 0 0 0 40 59 72 81 85 84 79 72 
64 55 46 38 31 25 20 15 12 9 6 4 1 0 0 12 13 15 16 18 20 23 26 29 34 38 44 50 57 65 72 78 
83 85 85 80 72 59 43 24 3 0 0 0 0 0 0 0 
0 0 0 0 0 0 0 13 33 49 61 69 73 73 69 63 
56 49 41 34 28 22 18 14 11 8 5 3 1 0 0 10 12 13 15 17 19 21 24 27 30 35 39 45 51 56 62 67 
71 72 71 66 59 48 35 19 1 0 0 0 0 0 0 0 
0 0 0 0 0 0 0 9 26 40 51 58 61 61 59 55 
49 43 36 30 25 20 16 13 9 7 5 3 0 0 0 9 11 12 14 15 17 19 22 25 28 31 35 40 44 49 54 57 
59 60 58 54 48 39 27 14 0 0 0 0 0 0 0 0 
0 0 0 0 0 0 0 5 19 31 40 47 50 51 49 46 
42 37 32 27 22 18 14 11 9 6 4 2 0 0 0 9 10 11 13 14 16 18 20 23 26 29 32 36 39 43 46 49 
50 50 48 44 38 31 21 11 0 0 0 0 0 0 0 0 
0 0 0 0 0 0 0 0 12 22 31 36 40 41 40 38 
35 31 27 23 19 16 13 10 8 6 4 2 0 0 0 8 9 11 12 14 15 17 19 21 24 26 29 32 35 38 40 42 
42 42 40 36 31 24 16 8 0 0 0 0 7 19 27 28 
20 5 0 0 0 0 0 0 5 14 22 27 31 32 32 31 
29 26 23 20 17 14 12 9 7 5 4 2 0 0 0 8 9 10 11 13 14 16 18 20 22 25 27 29 32 34 35 36 
36 35 33 29 24 19 12 0 0 0 0 17 41 65 83 85 
71 45 16 0 0 0 0 0 0 7 14 19 23 25 25 25 
24 22 19 17 15 13 10 8 7 5 3 2 1 0 0 7 8 10 11 12 14 16 17 19 21 23 25 27 29 30 31 31 
31 29 27 24 19 14 0 0 0 0 13 42 83 128 164 172 
146 99 49 10 0 0 0 0 0 1 7 12 16 18 19 19 
19 18 16 14 13 11 9 8 6 5 3 2 1 0 0 7 8 9 11 12 13 15 17 18 20 22 24 25 27 28 28 28 
27 25 23 19 15 10 0 0 0 0 23 63 126 206 255 255 
252 165 83 24 0 0 0 0 0 0 1 6 10 12 14 14 
14 14 13 12 11 10 8 7 6 4 3 2 1 0 0 7 8 9 10 11 13 14 16 18 19 21 23 24 25 25 25 25 
24 22 19 16 12 0 0 0 0 0 21 67 150 255 255 255 
255 227 103 27 0 0 0 0 0 0 0 1 5 7 9 10 
11 11 10 10 9 8 7 6 5 4 3 2 1 0 0 6 7 9 10 11 13 14 16 17 19 20 21 22 23 23 23 22 
21 19 16 13 9 0 0 0 0 0 2 37 119 255 255 255 
255 231 83 9 0 0 0 0 0 0 0 0 1 3 5 6 
7 8 8 8 7 7 6 5 5 4 3 2 1 0 0 6 7 8 9 11 12 13 15 16 18 19 20 21 22 22 21 20 
19 17 14 11 7 3 0 0 0 0 0 0 5 103 255 255 
255 103 5 0 0 0 0 0 0 0 0 0 0 0 2 3 
4 5 5 6 6 5 5 5 4 3 3 2 1 0 0 6 7 8 9 10 12 13 14 16 17 18 19 20 20 20 19 18 
17 15 12 9 5 8 0 0 0 0 0 0 0 0 0 0 
0 0 0 0 0 0 0 0 0 0 0 0 0 0 0 1 
2 3 3 4 4 4 4 4 3 3 2 2 1 0 0 6 7 8 9 10 11 12 13 15 16 17 18 18 18 18 18 17 
15 13 11 8 5 14 5 0 0 0 0 0 0 0 0 0 
0 0 0 0 0 0 0 0 0 0 0 0 0 0 0 0 
0 1 1 2 3 3 3 3 3 2 2 2 1 1 0 5 6 7 8 9 10 11 13 14 15 16 16 17 17 16 16 15 
13 12 10 7 5 20 12 0 0 0 0 0 0 0 0 0 
0 0 0 0 0 0 0 0 1 6 0 0 0 0 0 0 
0 0 0 1 1 2 2 2 2 2 2 1 1 0 0 5 6 7 8 9 9 11 12 13 13 14 15 15 15 15 14 13 
12 11 9 7 5 3 20 9 0 0 0 0 0 0 0 0 
0 0 0 0 0 0 0 3 9 0 0 0 0 0 0 0 
0 0 0 0 0 1 1 1 1 1 1 1 1 0 0 5 5 6 7 8 9 10 10 11 12 13 13 13 13 13 12 11 
11 9 8 7 6 5 28 19 7 0 0 0 0 0 0 0 
0 0 0 0 0 0 8 13 16 0 0 0 0 0 0 0 
0 0 0 0 0 0 0 1 1 1 1 1 1 0 0 4 5 6 6 7 8 9 9 10 11 11 11 11 11 11 11 10 
9 9 8 7 7 7 6 30 21 9 0 0 0 0 0 0 
0 0 0 0 8 14 18 21 0 0 0 0 0 0 0 0 
0 0 0 0 0 0 0 0 0 0 1 0 0 0 0 4 4 5 6 6 7 8 8 9 9 9 10 10 10 9 9 8 
8 8 8 8 8 9 9 39 33 26 17 7 0 0 0 0 
0 4 12 18 22 25 27 27 4 0 0 0 0 0 0 0 
0 0 0 0 0 0 0 0 0 0 0 0 0 0 0 3 4 4 5 5 6 7 7 7 8 8 8 8 8 8 7 7 
7 7 7 8 9 10 12 14 43 39 34 28 24 21 19 20 
23 26 29 32 33 33 33 11 6 3 0 0 0 0 0 0 
0 0 0 0 0 0 0 0 0 0 0 0 0 0 0 3 3 4 4 5 5 6 6 6 6 7 7 7 6 6 6 6 
6 6 7 8 9 11 14 17 21 48 45 43 40 39 38 38 
39 40 40 40 39 38 18 13 8 5 1 0 0 0 0 0 
0 0 0 0 0 0 0 0 0 0 0 0 0 0 0 3 3 3 4 4 4 5 5 5 5 5 5 5 5 5 5 5 
5 5 6 8 9 12 15 18 23 27 32 51 50 49 48 48 
47 47 46 45 32 26 20 15 10 6 3 0 0 0 0 0 
0 0 0 0 0 0 0 0 0 0 0 0 0 0 0 2 3 3 3 3 4 4 4 4 4 4 4 4 4 4 4 4 
4 5 6 7 9 12 15 19 23 28 33 38 43 47 49 50 
49 46 42 37 32 26 21 15 11 7 4 1 0 0 0 0 
0 0 0 0 0 0 0 0 0 0 0 0 0 0 0 2 2 2 2 3 3 3 3 3 3 3 3 3 3 3 3 3 
3 4 5 7 9 11 15 18 23 28 33 37 42 45 47 48 
47 44 41 36 31 26 20 16 11 7 4 2 0 0 0 0 
0 0 0 0 0 0 0 0 0 0 0 0 0 0 0 1 2 2 2 2 2 2 2 2 2 2 2 2 2 2 2 2 
2 3 4 6 8 10 13 17 21 26 31 35 39 42 44 45 
44 41 38 34 29 24 20 15 11 8 5 2 0 0 0 0 
0 0 0 0 0 0 0 0 0 0 0 0 0 0 0 1 1 1 1 2 2 2 2 2 1 1 1 1 1 1 1 1 
2 2 3 5 6 9 12 15 19 23 27 31 35 38 40 40 
39 37 34 31 27 22 18 14 11 7 5 2 0 0 0 0 
0 0 0 0 0 0 0 0 0 0 0 0 0 0 0 1 1 1 1 1 1 1 1 1 1 1 0 0 0 0 0 0 
1 1 2 3 5 7 10 13 16 20 23 27 30 33 34 35 
34 33 30 27 24 20 16 13 10 7 4 2 1 0 0 0 
0 0 0 0 0 0 0 0 0 0 0 0 0 0 0 1 1 1 1 1 1 1 0 0 0 0 0 0 0 0 0 0 
0 0 1 2 4 5 7 10 13 16 19 22 25 27 28 29 
29 27 25 23 20 17 14 11 8 6 4 2 1 0 0 0 
0 0 0 0 0 0 0 0 0 0 0 0 0 0 0 0 0 0 0 0 0 0 0 0 0 0 0 0 0 0 0 0 
0 0 0 1 2 3 5 7 9 12 14 17 19 21 22 23 
23 22 21 19 16 14 12 9 7 5 3 2 1 0 0 0 
0 0 0 0 0 0 0 0 0 0 0 0 0 0 0 0 0 0 0 0 0 0 0 0 0 0 0 0 0 0 0 0 
0 0 0 0 1 2 3 4 6 8 10 12 14 16 17 17 
17 17 16 14 13 11 9 7 6 4 3 1 0 0 0 0 
0 0 0 0 0 0 0 0 0 0 0 0 0 0 0 0 0 0 0 0 0 0 0 0 0 0 0 0 0 0 0 0 
0 0 0 0 0 0 1 2 3 5 6 8 9 11 12 12 
12 12 12 11 10 8 7 6 4 3 2 1 0 0 0 0 
0 0 0 0 0 0 0 0 0 0 0 0 0 0 0 0 0 0 0 0 0 0 0 0 0 0 0 0 0 0 0 0 
0 0 0 0 0 0 0 0 1 2 3 4 5 6 7 8 
8 8 8 7 7 6 5 4 3 2 1 0 0 0 0 0 
0 0 0 0 0 0 0 0 0 0 0 0 0 0 0 0 0 0 0 0 0 0 0 0 0 0 0 0 0 0 0 0 
0 0 0 0 0 0 0 0 0 0 1 1 2 3 4 4 
5 5 5 5 4 4 3 2 2 1 0 0 0 0 0 0 
0 0 0 0 0 0 0 0 0 0 0 0 0 0 0 0 0 0 0 0 0 0 0 0 0 0 0 0 0 0 0 0 
0 0 0 0 0 0 0 0 0 0 0 0 0 0 1 1 
2 2 2 2 2 2 1 1 1 0 0 0 0 0 0 0 
0 0 0 0 0 0 0 0 0 0 0 0 0 0 0 0 0 0 0 0 0 0 0 0 0 0 0 0 0 0 0 0 
0 0 0 0 0 0 0 0 0 0 0 0 0 0 0 0 
0 0 0 0 0 0 0 0 0 0 0 0 0 0 0 0 
0 0 0 0 0 0 0 0 0 0 0 0 0 0 0 0 0 0 0 0 0 0 0 0 0 0 0 0 0 0 0 0 
0 0 0 0 0 0 0 0 0 0 0 0 0 0 0 0 
0 0 0 0 0 0 0 0 0 0 0 0 0 0 0 0 
0 0 0 0 0 0 0 0 0 0 0 0 0 0 0 