P2
# Created by IrfanView
64 64
255
0 0 0 0 0 0 0 0 0 0 0 0 0 0 0 0 0 
0 0 0 0 0 0 0 0 1 2 3 3 4 4 5 5 
4 4 4 3 3 2 1 0 0 0 0 0 0 0 0 0 
0 0 0 0 0 0 0 0 0 0 0 0 0 0 0 0 0 0 0 0 0 0 0 0 0 0 0 0 0 0 0 0 
0 0 0 0 0 0 0 1 3 4 5 5 6 6 6 6 
6 6 6 5 4 4 3 2 0 0 0 0 0 0 0 0 
0 0 0 0 0 0 0 0 0 0 0 0 0 0 0 0 0 0 0 0 0 0 0 0 0 0 0 0 0 0 0 0 
0 0 0 0 0 0 2 4 5 6 7 8 8 9 9 9 
9 8 8 7 6 6 5 3 2 1 0 0 0 0 0 0 
0 0 0 0 0 0 0 0 0 0 0 0 0 0 0 0 0 0 0 0 0 0 0 0 0 0 0 0 0 0 0 0 
0 0 0 0 1 3 5 7 8 9 10 11 11 11 12 11 
11 11 10 10 9 8 7 6 4 3 1 0 0 0 0 0 
0 0 0 0 0 0 0 0 0 0 0 0 0 0 0 0 0 0 0 0 0 0 0 0 0 0 0 0 0 0 0 0 
0 0 0 1 4 7 9 11 12 13 14 14 15 15 15 15 
15 14 13 13 12 11 10 8 7 6 4 2 0 0 0 0 
0 0 0 0 0 0 0 0 0 0 0 0 0 0 0 0 0 0 0 0 0 0 0 0 0 0 0 0 0 0 0 0 
0 0 2 6 9 11 13 15 16 17 18 19 19 19 19 19 
19 18 17 16 15 14 13 12 10 9 7 5 3 1 0 0 
0 0 0 0 0 0 0 0 0 0 0 0 0 0 0 0 0 0 0 0 0 0 0 0 0 0 0 0 0 0 0 0 
0 4 8 12 15 17 19 20 22 22 23 24 24 24 24 24 
24 23 22 21 20 18 17 16 14 13 11 9 7 5 2 0 
0 0 0 0 0 0 0 0 0 0 0 0 0 0 0 0 0 0 0 0 0 0 0 0 0 0 0 0 0 0 0 1 
7 11 15 19 21 24 25 27 28 29 30 30 31 31 31 31 
30 29 28 26 25 23 22 20 18 17 15 13 11 9 7 4 
1 0 0 0 0 0 0 0 0 0 0 0 0 0 0 0 0 0 0 0 0 0 0 0 0 0 0 0 0 0 5 11 
16 20 24 27 29 31 33 34 35 36 37 38 39 39 39 39 
38 37 35 33 31 29 27 25 24 22 20 18 16 14 12 9 
7 4 1 0 0 0 0 0 0 0 0 0 0 0 0 0 0 0 0 0 0 0 0 0 0 0 0 0 4 10 16 21 
26 30 34 37 39 40 42 43 44 45 46 48 49 50 50 49 
48 46 44 41 39 36 34 32 30 28 26 24 22 20 18 15 
13 10 7 5 2 1 0 0 0 0 0 0 1 3 5 0 0 0 0 0 0 0 0 0 0 1 6 12 17 23 29 34 
38 42 45 48 49 51 52 53 54 56 57 59 61 63 64 63 
62 59 56 52 48 45 42 39 37 35 33 31 29 27 25 22 
19 16 14 11 9 7 6 5 4 4 5 6 7 9 10 0 0 1 1 2 3 5 7 10 13 17 22 26 32 37 42 47 
52 55 58 60 62 63 63 64 66 68 71 74 78 84 87 88 
87 83 71 66 60 55 51 47 45 43 41 39 37 35 32 29 
26 23 21 18 16 14 12 11 11 11 11 12 13 14 16 9 10 12 14 16 18 20 23 26 29 33 37 41 46 52 57 62 
66 70 72 74 75 76 76 78 80 83 77 88 97 104 109 110 
108 102 95 85 74 67 61 57 54 52 50 48 46 43 41 37 
34 31 28 25 22 20 19 18 17 17 17 18 18 19 20 17 19 22 25 28 31 34 37 40 43 47 51 56 61 66 72 77 
82 86 88 90 90 91 91 92 95 79 92 105 117 126 132 134 
131 124 113 101 88 75 74 68 64 61 59 57 55 53 50 46 
42 38 35 31 28 26 24 23 22 22 22 22 23 23 24 23 26 30 34 38 41 45 48 52 55 59 63 69 74 80 87 93 
98 103 105 107 107 106 106 108 76 91 107 123 138 150 157 159 
155 146 133 117 100 84 70 80 75 72 70 68 66 63 59 55 
51 46 41 38 34 31 29 28 27 26 26 26 26 26 26 28 32 36 40 45 49 53 57 60 64 69 74 80 87 94 102 109 
116 121 124 125 125 123 123 69 84 102 120 140 158 173 182 184 
179 168 151 131 111 92 75 61 87 84 82 80 78 75 70 65 
59 53 48 43 39 36 33 31 30 29 28 28 28 27 26 31 35 40 44 49 54 58 62 66 71 76 82 89 98 107 116 125 
133 139 143 144 143 141 59 73 90 109 131 153 175 192 203 206 
200 186 166 142 118 96 78 62 50 96 95 94 91 87 82 75 
68 61 54 48 43 39 36 34 32 31 30 29 28 27 25 33 37 42 46 51 56 60 65 70 75 81 88 97 107 118 130 141 
151 158 162 163 161 158 60 74 91 112 136 161 185 203 214 215 
208 194 172 147 120 96 76 60 48 108 108 107 105 100 93 85 
77 68 60 52 46 42 38 35 33 31 30 28 27 25 23 33 37 42 46 51 56 60 65 71 77 84 93 103 115 128 142 155 
167 176 181 182 179 173 58 72 89 110 134 160 183 198 202 199 
194 185 167 142 114 90 70 55 44 35 122 122 119 114 105 96 
85 74 65 56 49 43 38 35 32 30 29 27 25 23 19 33 37 41 45 50 54 59 64 70 76 85 94 106 120 136 152 168 
182 192 198 199 194 44 53 66 82 101 124 148 167 173 161 146 
147 153 146 125 100 77 59 46 37 30 134 136 133 127 117 105 
93 80 69 59 50 43 38 34 31 29 27 25 22 20 16 31 35 39 43 47 51 56 61 67 75 84 94 108 123 140 159 177 
193 205 212 212 205 39 47 57 70 86 106 126 139 132 99 69 
79 107 114 99 78 58 44 34 27 24 145 148 146 139 128 114 
99 85 72 60 51 43 37 33 29 27 24 22 19 16 12 29 33 36 40 44 48 53 58 64 72 81 93 107 124 142 163 183 
200 214 221 220 212 33 38 45 54 66 80 95 104 94 58 24 
38 69 78 66 49 35 25 20 17 16 154 158 157 149 136 121 
105 88 74 61 51 42 36 31 27 24 21 19 16 13 8 27 30 33 37 40 44 49 54 60 68 77 89 104 121 141 162 183 
202 216 223 222 213 26 29 32 37 43 51 60 67 64 47 31 
35 45 42 30 18 10 6 6 7 9 159 165 164 156 142 125 
108 90 74 61 50 41 34 29 25 21 19 16 13 9 5 24 27 30 33 36 40 44 49 55 63 73 85 99 117 137 158 179 
198 212 219 218 207 20 20 19 19 20 22 24 27 29 26 22 
19 12 2 0 0 0 0 0 0 3 160 167 166 158 144 127 
108 90 74 59 48 39 32 26 22 19 16 13 10 6 2 22 24 27 30 33 36 40 45 51 58 67 79 93 110 129 150 170 
189 202 209 207 195 176 12 8 4 0 0 0 0 0 0 0 
0 0 0 0 0 0 0 0 0 0 157 165 164 156 142 125 
106 88 72 57 46 36 29 24 20 16 13 10 7 4 0 19 22 24 26 29 32 36 40 46 53 61 72 86 101 119 139 158 
174 187 192 190 178 159 6 0 0 0 0 0 0 0 0 0 
0 0 0 0 0 0 0 0 0 0 149 157 157 150 136 120 
102 84 68 54 43 34 27 21 17 14 11 8 5 2 0 17 19 21 23 26 29 32 36 41 48 56 65 78 92 108 125 142 
157 168 172 169 158 139 2 0 0 0 0 0 0 0 0 0 
0 0 0 0 0 0 0 0 0 121 137 145 146 139 127 112 
95 79 64 51 40 31 24 19 15 12 9 6 3 0 0 15 17 19 21 23 26 29 32 37 43 50 59 69 82 96 111 125 
138 147 150 147 136 119 96 0 0 0 0 0 0 0 0 0 
0 0 0 0 0 0 0 0 85 107 122 131 131 126 115 102 
87 72 59 47 37 29 22 17 13 10 7 5 2 0 0 13 15 17 18 21 23 26 29 33 38 45 52 62 72 84 97 108 
118 125 127 124 114 99 79 54 0 0 0 0 0 0 0 0 
0 0 0 0 0 0 0 0 72 92 106 114 115 111 102 91 
78 65 53 42 33 26 20 15 12 9 6 3 1 0 0 12 13 15 17 18 21 23 26 30 34 40 47 54 63 73 83 92 
100 105 106 103 94 80 63 42 19 0 0 0 0 0 0 0 
0 0 0 0 0 0 0 37 59 77 89 96 98 95 88 79 
68 57 47 38 30 23 18 14 10 7 5 3 0 0 0 10 12 13 15 17 19 21 24 27 31 36 42 48 55 63 71 78 
84 87 87 83 76 64 49 31 12 0 0 0 0 0 0 0 
0 0 0 0 0 0 7 28 46 61 73 79 82 80 75 67 
59 50 41 34 27 21 16 13 9 7 4 2 0 0 0 9 11 12 14 15 17 20 22 25 28 33 37 43 48 54 60 66 
70 72 71 67 60 50 37 23 7 0 0 0 0 0 0 0 
0 0 0 0 0 0 0 18 34 47 57 63 66 65 62 56 
50 43 36 29 24 19 15 11 9 6 4 2 0 0 0 9 10 11 13 14 16 18 21 23 26 30 34 38 43 47 52 55 
58 59 57 53 47 38 28 16 0 0 0 0 0 0 0 0 
0 0 0 0 0 0 0 8 22 34 43 49 52 52 50 46 
42 36 31 26 21 17 13 11 8 6 4 2 0 0 0 8 9 11 12 14 15 17 20 22 25 28 31 35 38 42 45 47 
48 48 46 42 37 29 20 0 0 0 0 0 0 1 7 6 
0 0 0 0 0 0 0 0 11 22 30 36 39 41 40 37 
34 30 26 22 19 15 12 10 7 5 4 2 0 0 0 8 9 10 12 13 15 17 19 21 24 26 29 32 35 37 39 41 
41 40 38 34 28 21 13 0 0 0 0 0 19 40 53 54 
39 15 0 0 0 0 0 0 1 11 19 25 29 31 31 29 
28 25 22 19 16 14 11 9 7 5 3 2 0 0 0 7 9 10 11 13 14 16 18 20 23 25 28 30 32 34 35 35 
35 33 31 27 21 15 0 0 0 0 0 20 55 95 125 130 
102 57 13 0 0 0 0 0 0 2 10 16 20 22 23 23 
22 20 18 16 14 12 10 8 7 5 3 2 1 0 0 7 8 10 11 13 14 16 18 20 22 24 26 28 30 31 32 31 
30 28 25 21 16 10 0 0 0 0 3 36 92 166 233 248 
195 110 35 0 0 0 0 0 0 0 2 8 12 15 16 17 
17 16 15 14 12 11 9 8 6 5 3 2 1 0 0 7 8 9 11 12 14 16 18 20 22 23 25 27 28 29 29 28 
27 24 21 17 12 0 0 0 0 0 0 36 111 235 255 255 
255 157 43 0 0 0 0 0 0 0 0 1 5 8 10 12 
12 12 12 11 10 9 8 7 6 5 3 2 1 0 0 7 8 9 10 12 14 15 17 19 21 23 24 26 26 27 27 26 
24 21 18 13 8 0 0 0 0 0 0 5 76 235 255 255 
255 147 15 0 0 0 0 0 0 0 0 0 0 3 5 7 
8 9 9 9 9 8 7 6 5 4 3 2 1 0 0 6 8 9 10 12 13 15 17 18 20 22 23 24 25 25 24 23 
21 18 15 11 6 0 0 0 0 0 0 0 0 49 255 255 
255 14 0 0 0 0 0 0 0 0 0 0 0 0 1 3 
4 5 6 7 7 6 6 5 5 4 3 2 1 1 0 6 7 9 10 11 13 14 16 18 19 21 22 23 23 23 22 21 
19 16 13 9 4 3 0 0 0 0 0 0 0 0 0 0 
0 0 0 0 0 0 0 0 0 0 0 0 0 0 0 0 
1 3 4 4 5 5 5 5 4 4 3 2 1 1 0 6 7 8 9 11 12 14 15 17 18 20 21 21 22 21 20 19 
17 14 11 7 3 9 0 0 0 0 0 0 0 0 0 0 
0 0 0 0 0 0 0 0 0 0 0 0 0 0 0 0 
0 0 1 2 3 4 4 4 3 3 3 2 1 1 0 6 7 8 9 10 11 13 14 16 17 18 19 19 19 19 18 17 
15 12 10 7 3 15 6 0 0 0 0 0 0 0 0 0 
0 0 0 0 0 0 0 0 0 1 0 0 0 0 0 0 
0 0 0 1 1 2 3 3 3 3 2 2 1 1 0 5 6 7 8 9 11 12 13 14 15 16 17 17 17 17 16 14 
13 11 8 6 3 1 15 4 0 0 0 0 0 0 0 0 
0 0 0 0 0 0 0 0 4 0 0 0 0 0 0 0 
0 0 0 0 0 1 1 2 2 2 2 1 1 1 0 5 6 7 8 9 10 11 12 13 14 14 15 15 15 14 14 12 
11 9 7 6 4 2 23 15 4 0 0 0 0 0 0 0 
0 0 0 0 0 3 6 9 11 0 0 0 0 0 0 0 
0 0 0 0 0 0 0 1 1 1 1 1 1 1 0 5 5 6 7 8 9 10 11 11 12 13 13 13 13 12 11 10 
9 8 7 6 5 4 31 25 18 9 0 0 0 0 0 0 
0 0 7 11 14 15 16 17 17 0 0 0 0 0 0 0 
0 0 0 0 0 0 0 0 1 1 1 1 1 0 0 4 5 5 6 7 8 8 9 10 10 11 11 11 11 10 9 8 
7 7 6 6 6 6 7 34 29 24 18 12 8 7 8 12 
17 22 24 25 25 24 24 23 0 0 0 0 0 0 0 0 
0 0 0 0 0 0 0 0 0 0 0 0 0 0 0 4 4 5 5 6 7 7 8 8 9 9 9 9 8 8 7 7 
6 6 5 6 6 7 9 11 38 35 32 30 28 28 29 31 
33 35 35 34 32 30 28 7 3 0 0 0 0 0 0 0 
0 0 0 0 0 0 0 0 0 0 0 0 0 0 0 3 4 4 5 5 6 6 7 7 7 7 7 7 7 6 6 5 
5 5 5 6 7 8 11 14 17 43 42 40 40 40 41 42 
42 42 41 39 36 34 15 9 5 0 0 0 0 0 0 0 
0 0 0 0 0 0 0 0 0 0 0 0 0 0 0 3 3 4 4 4 5 5 5 6 6 6 6 5 5 5 4 4 
4 4 5 5 7 9 12 15 19 23 28 46 46 46 46 46 
46 45 43 40 28 22 16 11 6 2 0 0 0 0 0 0 
0 0 0 0 0 0 0 0 0 0 0 0 0 0 0 2 3 3 3 4 4 4 4 4 4 4 4 4 4 3 3 3 
3 3 4 5 7 9 12 15 19 24 28 33 37 41 48 47 
46 41 37 33 27 22 16 11 7 3 0 0 0 0 0 0 
0 0 0 0 0 0 0 0 0 0 0 0 0 0 0 2 2 2 3 3 3 3 3 3 3 3 3 3 2 2 2 2 
2 3 3 5 6 9 11 15 19 23 27 31 35 38 40 41 
40 38 35 30 26 21 16 12 8 4 1 0 0 0 0 0 
0 0 0 0 0 0 0 0 0 0 0 0 0 0 0 2 2 2 2 2 2 2 2 2 2 2 2 2 1 1 1 1 
1 2 3 4 6 8 11 14 17 21 25 29 32 35 37 37 
36 35 32 28 24 20 15 11 8 4 2 0 0 0 0 0 
0 0 0 0 0 0 0 0 0 0 0 0 0 0 0 1 1 1 2 2 2 2 2 2 1 1 1 1 1 1 0 0 
1 1 2 3 5 7 9 12 15 19 22 26 29 31 33 33 
32 31 28 25 22 18 14 11 7 5 2 0 0 0 0 0 
0 0 0 0 0 0 0 0 0 0 0 0 0 0 0 1 1 1 1 1 1 1 1 1 1 1 0 0 0 0 0 0 
0 1 1 2 4 6 8 10 13 16 19 22 25 27 28 29 
28 27 25 22 19 16 13 10 7 4 2 0 0 0 0 0 
0 0 0 0 0 0 0 0 0 0 0 0 0 0 0 1 1 1 1 1 1 1 1 0 0 0 0 0 0 0 0 0 
0 0 1 1 3 4 6 8 11 13 16 18 21 22 23 24 
24 23 21 19 16 14 11 9 6 4 2 0 0 0 0 0 
0 0 0 0 0 0 0 0 0 0 0 0 0 0 0 0 0 0 0 0 0 0 0 0 0 0 0 0 0 0 0 0 
0 0 0 1 2 3 4 6 8 10 12 14 16 18 19 19 
19 18 17 15 14 11 9 7 5 3 2 0 0 0 0 0 
0 0 0 0 0 0 0 0 0 0 0 0 0 0 0 0 0 0 0 0 0 0 0 0 0 0 0 0 0 0 0 0 
0 0 0 0 0 1 3 4 6 7 9 11 12 13 14 15 
15 14 13 12 11 9 7 6 4 3 1 0 0 0 0 0 
0 0 0 0 0 0 0 0 0 0 0 0 0 0 0 0 0 0 0 0 0 0 0 0 0 0 0 0 0 0 0 0 
0 0 0 0 0 0 1 2 3 5 6 7 9 10 10 11 
11 11 10 9 8 7 6 4 3 2 1 0 0 0 0 0 
0 0 0 0 0 0 0 0 0 0 0 0 0 0 0 0 0 0 0 0 0 0 0 0 0 0 0 0 0 0 0 0 
0 0 0 0 0 0 0 0 1 2 3 4 5 6 7 7 
7 7 7 7 6 5 4 3 2 1 0 0 0 0 0 0 
0 0 0 0 0 0 0 0 0 0 0 0 0 0 0 0 0 0 0 0 0 0 0 0 0 0 0 0 0 0 0 0 
0 0 0 0 0 0 0 0 0 0 1 2 3 3 4 4 
5 5 5 4 4 3 3 2 1 0 0 0 0 0 0 0 
0 0 0 0 0 0 0 0 0 0 0 0 0 0 0 0 0 0 0 0 0 0 0 0 0 0 0 0 0 0 0 0 
0 0 0 0 0 0 0 0 0 0 0 0 1 1 2 2 
2 2 2 2 2 2 1 1 0 0 0 0 0 0 0 0 
0 0 0 0 0 0 0 0 0 0 0 0 0 0 0 0 0 0 0 0 0 0 0 0 0 0 0 0 0 0 0 0 
0 0 0 0 0 0 0 0 0 0 0 0 0 0 0 0 
0 1 1 1 1 0 0 0 0 0 0 0 0 0 0 0 
0 0 0 0 0 0 0 0 0 0 0 0 0 0 0 0 0 0 0 0 0 0 0 0 0 0 0 0 0 0 0 0 
0 0 0 0 0 0 0 0 0 0 0 0 0 0 0 0 
0 0 0 0 0 0 0 0 0 0 0 0 0 0 0 0 
0 0 0 0 0 0 0 0 0 0 0 0 0 0 0 