P2
# Created by IrfanView
64 64
255
0 0 0 0 0 0 0 0 0 0 0 0 0 0 0 0 0 
0 0 0 0 0 0 0 0 0 1 2 3 4 4 4 4 
4 4 4 3 2 2 1 0 0 0 0 0 0 0 0 0 
0 0 0 0 0 0 0 0 0 0 0 0 0 0 0 0 0 0 0 0 0 0 0 0 0 0 0 0 0 0 0 0 
0 0 0 0 0 0 0 1 2 3 4 5 6 6 6 6 
6 6 5 5 4 3 2 1 0 0 0 0 0 0 0 0 
0 0 0 0 0 0 0 0 0 0 0 0 0 0 0 0 0 0 0 0 0 0 0 0 0 0 0 0 0 0 0 0 
0 0 0 0 0 0 1 3 5 6 7 8 8 8 9 9 
8 8 8 7 6 5 4 3 2 0 0 0 0 0 0 0 
0 0 0 0 0 0 0 0 0 0 0 0 0 0 0 0 0 0 0 0 0 0 0 0 0 0 0 0 0 0 0 0 
0 0 0 0 0 2 4 6 8 9 10 11 11 11 11 11 
11 11 10 9 9 8 7 5 4 2 0 0 0 0 0 0 
0 0 0 0 0 0 0 0 0 0 0 0 0 0 0 0 0 0 0 0 0 0 0 0 0 0 0 0 0 0 0 0 
0 0 0 0 3 6 8 10 12 13 14 14 15 15 15 15 
14 14 13 13 12 11 9 8 7 5 3 1 0 0 0 0 
0 0 0 0 0 0 0 0 0 0 0 0 0 0 0 0 0 0 0 0 0 0 0 0 0 0 0 0 0 0 0 0 
0 0 1 5 8 11 13 15 16 17 18 19 19 19 19 19 
18 18 17 16 15 14 13 12 10 8 7 5 2 0 0 0 
0 0 0 0 0 0 0 0 0 0 0 0 0 0 0 0 0 0 0 0 0 0 0 0 0 0 0 0 0 0 0 0 
0 2 7 11 14 17 19 20 22 23 23 24 24 24 24 24 
23 23 22 21 20 18 17 16 14 13 11 9 6 4 1 0 
0 0 0 0 0 0 0 0 0 0 0 0 0 0 0 0 0 0 0 0 0 0 0 0 0 0 0 0 0 0 0 0 
5 10 15 19 22 24 26 27 28 29 30 30 31 31 31 30 
30 29 28 26 25 23 22 20 19 17 16 14 11 9 6 3 
0 0 0 0 0 0 0 0 0 0 0 0 0 0 0 0 0 0 0 0 0 0 0 0 0 0 0 0 0 0 2 9 
15 20 25 28 31 33 34 35 36 37 37 38 39 39 39 38 
38 36 35 33 31 29 28 26 25 23 21 19 17 15 12 9 
6 2 0 0 0 0 0 0 0 0 0 0 0 0 0 0 0 0 0 0 0 0 0 0 0 0 0 0 0 8 15 22 
27 32 36 39 41 43 44 44 45 46 47 48 49 49 49 49 
48 46 44 41 39 37 35 33 31 30 28 26 24 22 19 16 
13 9 6 3 0 0 0 0 0 0 0 0 0 3 6 0 0 0 0 0 0 0 0 0 0 0 3 10 17 23 30 36 
41 46 49 52 53 54 55 55 56 57 58 60 61 62 63 62 
61 58 55 52 49 46 43 41 39 37 36 34 32 29 27 24 
20 17 14 11 8 6 5 4 4 4 5 6 8 11 14 1 1 1 11 10 9 9 8 8 8 8 23 28 34 40 46 52 
57 61 64 66 67 68 68 68 69 70 72 74 77 79 80 88 
86 75 70 65 61 56 53 50 48 46 45 43 41 38 36 32 
29 25 22 19 17 15 13 12 12 12 13 15 16 19 21 12 13 16 27 28 28 28 28 27 26 25 42 47 52 58 64 69 
74 78 81 83 83 83 83 82 83 85 88 88 97 104 109 110 
108 103 95 86 75 69 64 60 58 56 55 53 51 49 45 42 
38 34 31 27 25 23 21 20 20 20 21 22 24 26 28 21 25 28 33 43 44 45 44 43 41 56 59 64 69 75 82 88 
93 98 100 102 102 100 99 99 100 103 93 106 118 127 133 135 
132 125 115 103 90 76 77 73 70 68 67 65 63 60 56 52 
48 43 39 35 32 30 28 27 27 27 27 28 30 31 33 29 34 39 44 49 56 57 57 56 67 71 75 80 86 93 100 107 
114 119 122 123 122 120 118 117 77 93 109 125 140 152 159 161 
158 149 136 121 104 88 73 86 83 81 80 79 76 73 69 63 
58 52 47 43 39 36 34 33 32 32 32 33 34 35 37 35 40 45 51 57 62 67 71 74 78 82 87 93 101 109 119 128 
136 142 146 146 144 141 138 70 87 105 124 143 162 176 186 188 
184 173 156 137 117 97 80 65 98 96 96 94 92 88 82 75 
68 61 55 49 45 41 39 37 36 36 36 36 36 37 38 38 44 49 55 61 67 71 76 80 85 90 96 104 114 125 136 148 
159 167 171 172 169 164 158 76 94 114 136 159 181 198 210 213 
207 193 174 150 127 104 84 68 54 113 113 112 109 104 97 88 
79 70 62 55 49 45 42 40 38 37 37 37 37 37 37 40 45 51 57 62 68 73 78 83 88 95 103 113 125 139 154 169 
182 192 198 198 194 187 63 79 97 119 144 170 194 214 226 229 
223 207 185 158 132 107 85 68 54 131 132 132 128 122 112 101 
90 78 68 59 52 47 43 40 39 37 37 36 36 35 34 39 45 50 56 61 67 72 77 82 89 97 106 119 133 151 169 188 
205 218 225 226 220 210 63 78 97 120 145 173 198 218 229 230 
224 209 186 158 130 104 82 65 51 149 152 153 149 141 129 115 
100 86 74 63 55 48 43 40 38 36 35 34 33 32 30 38 43 48 53 58 63 68 74 80 87 96 108 122 140 160 182 205 
226 242 251 251 244 230 60 74 92 114 139 166 190 207 213 211 
205 194 175 148 120 95 74 58 46 37 173 174 170 160 146 128 
111 93 78 66 56 48 43 39 36 34 32 31 29 27 24 36 40 45 50 54 59 64 69 76 84 94 107 123 143 166 192 219 
243 255 255 255 255 44 54 67 83 102 125 148 169 181 181 175 
171 166 151 128 103 80 62 48 39 32 192 195 190 178 161 141 
119 99 82 67 56 47 41 36 33 31 29 27 25 22 19 33 37 41 45 49 54 59 64 71 79 90 104 121 143 169 198 227 
254 255 255 255 255 39 47 57 69 85 103 122 139 147 145 138 
134 131 119 99 78 60 46 36 30 26 209 213 208 194 174 151 
127 104 84 68 55 45 38 33 30 27 25 23 20 17 13 30 33 37 41 44 48 53 58 65 73 84 99 117 140 167 197 229 
255 255 255 255 255 33 38 45 54 64 77 91 103 110 109 104 
100 94 82 66 50 38 29 24 20 19 220 225 220 205 183 157 
131 106 85 67 53 43 35 30 26 23 21 19 16 13 9 27 30 33 36 39 43 47 52 59 67 78 92 111 134 161 192 224 
253 255 255 255 255 252 30 33 37 43 50 57 64 69 70 67 
62 54 43 32 22 16 13 11 12 13 225 231 226 210 187 160 
132 106 84 65 51 40 33 27 23 20 17 15 12 9 5 23 26 29 32 35 38 42 47 53 61 71 85 103 125 151 181 212 
241 255 255 255 255 237 22 22 23 23 25 26 28 29 28 25 
20 13 7 1 0 0 0 1 4 8 222 229 224 208 185 158 
130 104 81 63 48 37 29 24 20 16 14 11 9 5 1 20 23 25 28 30 33 37 41 47 54 64 77 94 114 139 166 194 
221 242 253 252 239 214 16 13 11 8 4 1 0 0 0 0 
0 0 0 0 0 0 0 0 0 193 211 219 214 200 177 151 
124 99 77 59 45 34 27 21 17 14 11 8 6 3 0 18 20 22 24 26 29 32 36 41 48 57 69 84 102 124 148 173 
196 214 224 223 210 187 157 7 2 0 0 0 0 0 0 0 
0 0 0 0 0 0 0 0 0 176 194 202 198 185 164 140 
115 92 72 55 42 31 24 18 14 11 8 6 3 1 0 15 17 19 21 23 26 28 32 37 43 51 61 74 90 109 129 150 
170 185 192 191 179 159 131 3 0 0 0 0 0 0 0 0 
0 0 0 0 0 0 0 0 130 155 172 179 177 165 148 127 
105 84 65 50 38 28 21 16 12 9 7 4 2 0 0 13 15 17 18 20 23 25 28 33 38 45 54 65 78 94 111 128 
143 155 160 158 148 130 106 78 0 0 0 0 0 0 0 0 
0 0 0 0 0 0 0 82 110 133 148 155 153 144 129 112 
93 75 59 45 34 26 19 14 11 8 5 3 1 0 0 12 13 15 16 18 20 23 26 29 34 40 47 57 68 80 94 107 
119 128 131 129 120 104 84 60 35 0 0 0 0 0 0 0 
0 0 0 0 0 0 38 65 90 109 123 129 129 122 110 96 
81 66 52 41 31 23 17 13 9 7 4 2 0 0 0 10 12 13 15 16 18 21 23 27 31 36 42 50 59 69 79 89 
98 104 106 103 95 81 64 44 23 1 0 0 0 0 0 0 
0 0 0 0 0 2 26 49 70 87 99 105 106 101 92 81 
69 57 46 36 28 21 16 12 9 6 4 1 0 0 0 9 11 12 14 15 17 19 22 25 28 33 38 44 51 59 67 74 
80 84 84 81 73 62 48 31 13 0 0 0 0 0 0 0 
0 0 0 0 0 0 13 33 51 66 77 83 84 82 75 67 
58 48 39 32 25 19 15 11 8 5 3 1 0 0 0 8 10 11 13 14 16 18 20 23 26 30 35 40 45 51 57 62 
66 68 67 63 56 46 34 20 0 0 0 0 0 0 0 0 
0 0 0 0 0 0 0 18 34 47 57 63 65 64 61 55 
48 41 34 28 22 17 13 10 8 5 3 1 0 0 0 8 9 11 12 14 15 17 20 22 25 29 32 36 41 45 49 52 
54 55 53 49 43 34 23 0 0 0 0 0 0 0 0 0 
0 0 0 0 0 0 0 0 18 31 40 46 49 50 48 44 
39 34 29 24 20 16 13 10 7 5 3 2 0 0 0 7 9 10 12 13 15 17 19 22 25 28 31 34 37 40 43 45 
46 45 43 38 32 24 14 0 0 0 0 0 0 0 5 2 
0 0 0 0 0 0 0 0 5 16 26 32 36 37 36 34 
32 28 25 21 18 14 12 9 7 5 3 2 0 0 0 7 9 10 11 13 15 17 19 22 24 27 30 32 35 37 39 39 
39 37 34 30 23 15 0 0 0 0 0 0 8 31 47 44 
21 0 0 0 0 0 0 0 0 4 13 20 24 26 27 26 
25 23 21 18 16 13 11 9 7 5 4 2 1 0 0 7 8 10 11 13 15 17 19 22 24 26 29 31 33 35 35 35 
34 32 28 23 17 9 0 0 0 0 0 0 27 70 104 102 
60 5 0 0 0 0 0 0 0 0 3 10 14 17 19 19 
19 18 17 15 14 12 10 9 7 5 4 3 1 0 0 7 8 10 11 13 15 17 19 21 24 26 28 30 32 33 33 32 
30 27 23 18 12 0 0 0 0 0 0 0 30 96 160 160 
83 0 0 0 0 0 0 0 0 0 0 2 6 10 12 13 
14 14 14 13 12 11 9 8 7 5 4 3 1 0 0 7 8 10 11 13 15 17 19 21 24 26 28 29 31 31 31 29 
27 24 20 14 8 0 0 0 0 0 0 0 0 60 141 121 
10 0 0 0 0 0 0 0 0 0 0 0 0 3 6 8 
9 10 10 10 10 9 8 7 6 5 4 3 2 1 0 7 8 9 11 13 14 16 19 21 23 25 27 28 29 29 29 27 
24 21 16 11 5 0 0 0 0 0 0 0 0 0 0 0 
0 0 0 0 0 0 0 0 0 0 0 0 0 0 0 3 
5 6 7 8 8 8 7 7 6 5 4 3 2 1 0 7 8 9 11 12 14 16 18 20 22 24 26 27 28 27 26 24 
22 18 14 9 3 0 0 0 0 0 0 0 0 0 0 255 
0 0 0 0 0 0 0 0 0 0 0 0 0 0 0 0 
1 3 4 5 6 6 6 6 5 4 4 3 2 1 0 6 8 9 10 12 14 15 17 19 21 23 24 25 26 25 24 22 
19 16 12 7 2 4 0 0 0 0 0 0 0 0 0 167 
88 0 0 0 0 0 0 0 0 0 0 0 0 0 0 0 
0 0 1 3 4 5 5 5 4 4 3 3 2 1 1 6 7 8 10 11 13 14 16 18 20 21 22 23 23 22 21 19 
16 13 10 6 2 11 3 0 0 0 0 0 0 0 0 59 
71 24 0 0 0 0 0 0 0 0 0 0 0 0 0 0 
0 0 0 0 2 3 3 4 4 3 3 2 2 1 1 6 7 8 9 11 12 13 15 16 18 19 20 20 20 20 18 16 
14 11 8 5 2 17 11 2 0 0 0 0 0 0 0 36 
54 40 19 5 0 0 0 0 0 3 0 0 0 0 0 0 
0 0 0 0 0 1 2 2 3 3 2 2 2 1 1 5 6 7 8 10 11 12 14 15 16 17 18 18 17 17 15 13 
11 9 6 4 2 0 19 13 5 0 0 0 0 0 14 37 
49 45 33 22 14 9 7 7 7 0 0 0 0 0 0 0 
0 0 0 0 0 0 1 1 2 2 2 2 1 1 1 5 6 7 8 9 10 11 12 13 14 15 15 15 14 14 12 11 
9 7 5 4 3 2 26 22 17 12 8 7 9 17 30 42 
48 47 40 32 25 19 16 14 13 0 0 0 0 0 0 0 
0 0 0 0 0 0 0 0 1 1 1 1 1 1 0 4 5 6 7 8 9 9 10 11 12 12 12 12 12 11 10 8 
7 5 4 3 3 3 5 30 27 24 23 23 26 32 39 46 
49 48 43 37 30 25 21 18 0 0 0 0 0 0 0 0 
0 0 0 0 0 0 0 0 0 0 1 1 1 1 0 4 5 5 6 7 7 8 9 9 10 10 10 10 9 8 7 6 
5 4 3 3 4 5 6 9 34 33 33 34 36 40 44 47 
49 47 43 38 33 28 24 4 0 0 0 0 0 0 0 0 
0 0 0 0 0 0 0 0 0 0 0 0 0 0 0 3 4 5 5 6 6 7 7 8 8 8 8 7 7 6 5 4 
3 3 3 3 4 5 8 11 15 38 39 40 41 44 46 47 
47 45 42 38 34 29 12 6 0 0 0 0 0 0 0 0 
0 0 0 0 0 0 0 0 0 0 0 0 0 0 0 3 3 4 4 5 5 6 6 6 6 6 6 5 5 4 3 3 
2 2 2 3 4 6 9 12 16 20 26 42 43 44 45 45 
45 43 40 36 26 19 13 7 2 0 0 0 0 0 0 0 
0 0 0 0 0 0 0 0 0 0 0 0 0 0 0 3 3 3 4 4 4 4 5 5 5 5 4 4 3 3 2 2 
1 1 2 3 4 6 9 12 16 20 24 29 34 37 43 42 
41 38 34 29 24 18 13 7 3 0 0 0 0 0 0 0 
0 0 0 0 0 0 0 0 0 0 0 0 0 0 0 2 2 3 3 3 3 3 4 4 3 3 3 3 2 2 1 1 
1 1 1 2 4 6 9 12 15 19 23 27 30 33 35 36 
35 33 30 26 22 17 12 8 4 0 0 0 0 0 0 0 
0 0 0 0 0 0 0 0 0 0 0 0 0 0 0 2 2 2 2 2 3 3 3 3 2 2 2 1 1 1 0 0 
0 0 1 2 4 5 8 11 14 17 21 24 27 30 31 32 
31 29 27 23 20 16 12 8 4 1 0 0 0 0 0 0 
0 0 0 0 0 0 0 0 0 0 0 0 0 0 0 1 1 2 2 2 2 2 2 2 1 1 1 1 0 0 0 0 
0 0 1 2 3 5 7 10 12 15 18 21 24 26 27 28 
27 26 23 21 18 14 11 7 4 1 0 0 0 0 0 0 
0 0 0 0 0 0 0 0 0 0 0 0 0 0 0 1 1 1 1 1 1 1 1 1 1 1 0 0 0 0 0 0 
0 0 0 1 2 4 6 8 11 13 16 18 20 22 23 24 
23 22 20 18 15 13 10 7 4 2 0 0 0 0 0 0 
0 0 0 0 0 0 0 0 0 0 0 0 0 0 0 1 1 1 1 1 1 1 1 0 0 0 0 0 0 0 0 0 
0 0 0 0 2 3 5 7 9 11 13 15 17 18 19 20 
19 19 17 15 13 11 8 6 4 2 0 0 0 0 0 0 
0 0 0 0 0 0 0 0 0 0 0 0 0 0 0 0 0 0 0 0 0 0 0 0 0 0 0 0 0 0 0 0 
0 0 0 0 1 2 3 5 7 9 10 12 14 15 16 16 
16 15 14 13 11 9 7 5 3 2 0 0 0 0 0 0 
0 0 0 0 0 0 0 0 0 0 0 0 0 0 0 0 0 0 0 0 0 0 0 0 0 0 0 0 0 0 0 0 
0 0 0 0 0 1 2 3 5 6 8 9 10 11 12 13 
12 12 11 10 9 7 6 4 3 1 0 0 0 0 0 0 
0 0 0 0 0 0 0 0 0 0 0 0 0 0 0 0 0 0 0 0 0 0 0 0 0 0 0 0 0 0 0 0 
0 0 0 0 0 0 1 2 3 4 5 6 7 8 9 9 
9 9 8 8 7 6 4 3 2 1 0 0 0 0 0 0 
0 0 0 0 0 0 0 0 0 0 0 0 0 0 0 0 0 0 0 0 0 0 0 0 0 0 0 0 0 0 0 0 
0 0 0 0 0 0 0 0 1 2 3 4 5 6 6 7 
7 6 6 5 5 4 3 2 1 0 0 0 0 0 0 0 
0 0 0 0 0 0 0 0 0 0 0 0 0 0 0 0 0 0 0 0 0 0 0 0 0 0 0 0 0 0 0 0 
0 0 0 0 0 0 0 0 0 1 1 2 3 3 4 4 
4 4 4 4 3 3 2 1 1 0 0 0 0 0 0 0 
0 0 0 0 0 0 0 0 0 0 0 0 0 0 0 0 0 0 0 0 0 0 0 0 0 0 0 0 0 0 0 0 
0 0 0 0 0 0 0 0 0 0 0 0 1 1 2 2 
2 2 2 2 2 1 1 0 0 0 0 0 0 0 0 0 
0 0 0 0 0 0 0 0 0 0 0 0 0 0 0 0 0 0 0 0 0 0 0 0 0 0 0 0 0 0 0 0 
0 0 0 0 0 0 0 0 0 0 0 0 0 0 0 1 
1 1 1 1 1 0 0 0 0 0 0 0 0 0 0 0 
0 0 0 0 0 0 0 0 0 0 0 0 0 0 0 0 0 0 0 0 0 0 0 0 0 0 0 0 0 0 0 0 
0 0 0 0 0 0 0 0 0 0 0 0 0 0 0 0 
0 0 0 0 0 0 0 0 0 0 0 0 0 0 0 0 
0 0 0 0 0 0 0 0 0 0 0 0 0 0 0 