P2
# Created by IrfanView
64 64
255
0 0 0 0 0 0 0 0 0 0 0 0 0 0 0 0 0 
0 0 0 0 0 0 0 0 0 1 2 3 3 4 4 4 
4 4 3 3 2 1 0 0 0 0 0 0 0 0 0 0 
0 0 0 0 0 0 0 0 0 0 0 0 0 0 0 0 0 0 0 0 0 0 0 0 0 0 0 0 0 0 0 0 
0 0 0 0 0 0 0 0 2 3 4 5 5 6 6 6 
6 5 5 4 4 3 2 0 0 0 0 0 0 0 0 0 
0 0 0 0 0 0 0 0 0 0 0 0 0 0 0 0 0 0 0 0 0 0 0 0 0 0 0 0 0 0 0 0 
0 0 0 0 0 0 0 2 4 5 6 7 8 8 8 8 
8 8 7 7 6 5 4 2 1 0 0 0 0 0 0 0 
0 0 0 0 0 0 0 0 0 0 0 0 0 0 0 0 0 0 0 0 0 0 0 0 0 0 0 0 0 0 0 0 
0 0 0 0 0 1 3 6 7 8 9 10 11 11 11 11 
11 10 10 9 8 7 6 5 3 1 0 0 0 0 0 0 
0 0 0 0 0 0 0 0 0 0 0 0 0 0 0 0 0 0 0 0 0 0 0 0 0 0 0 0 0 0 0 0 
0 0 0 0 2 5 7 9 11 12 13 14 14 14 14 14 
14 13 13 12 11 10 9 8 6 4 2 0 0 0 0 0 
0 0 0 0 0 0 0 0 0 0 0 0 0 0 0 0 0 0 0 0 0 0 0 0 0 0 0 0 0 0 0 0 
0 0 0 3 7 10 12 14 16 17 17 18 18 18 18 18 
18 17 16 16 15 14 12 11 10 8 6 3 1 0 0 0 
0 0 0 0 0 0 0 0 0 0 0 0 0 0 0 0 0 0 0 0 0 0 0 0 0 0 0 0 0 0 0 0 
0 0 5 10 14 16 19 20 21 22 23 23 23 23 23 23 
22 22 21 20 19 18 17 15 14 12 10 8 5 2 0 0 
0 0 0 0 0 0 0 0 0 0 0 0 0 0 0 0 0 0 0 0 0 0 0 0 0 0 0 0 0 0 0 0 
2 9 14 18 22 24 26 27 28 29 29 29 30 30 29 29 
28 28 27 25 24 23 22 20 19 17 15 13 11 8 4 1 
0 0 0 0 0 0 0 0 0 0 0 0 0 0 0 0 0 0 0 0 0 0 0 0 0 0 0 0 0 0 0 6 
14 20 25 29 31 33 35 35 36 36 37 37 37 37 37 37 
36 35 33 32 30 29 27 26 25 23 22 20 17 14 11 8 
4 0 0 0 0 0 0 0 0 0 0 0 0 0 0 0 0 0 0 0 0 0 0 0 0 0 0 0 0 4 13 21 
28 33 38 41 43 44 45 45 45 45 46 46 46 47 47 46 
45 44 42 40 38 36 34 33 32 30 29 27 25 22 19 16 
12 8 4 1 0 0 0 0 0 0 0 0 0 3 7 0 0 0 0 0 0 0 0 0 0 0 0 0 15 23 31 38 
44 49 53 55 56 57 57 57 56 56 57 57 58 59 59 58 
57 55 52 50 47 45 43 41 40 39 37 36 34 31 28 25 
21 17 14 10 7 5 3 2 2 3 4 7 10 13 17 1 12 11 10 9 9 8 7 7 7 7 7 8 36 43 50 57 
62 67 70 72 72 72 71 70 69 69 70 71 73 74 75 74 
72 70 66 62 58 55 52 51 49 48 47 46 44 42 39 35 
31 27 24 20 18 16 14 13 13 14 16 18 20 23 27 15 28 30 32 33 34 34 33 32 30 28 26 25 58 64 71 77 
83 87 90 91 91 89 87 85 84 84 85 88 93 100 105 106 
104 99 92 77 72 67 64 62 61 60 59 58 56 54 50 46 
42 37 34 30 28 26 24 24 24 24 26 28 30 33 37 27 32 46 50 53 55 56 56 54 51 47 43 39 79 86 92 99 
106 110 113 114 112 109 106 103 101 101 90 103 114 123 129 130 
128 122 112 101 88 82 77 75 74 73 73 72 70 67 63 58 
53 48 43 40 37 34 33 33 33 33 34 36 38 41 45 37 43 59 64 68 72 73 73 70 67 62 56 93 99 106 115 123 
131 136 140 140 137 132 127 122 120 90 106 122 136 147 154 156 
153 145 133 118 103 87 92 89 89 89 89 89 87 83 78 72 
65 58 53 48 44 42 40 39 39 40 41 42 44 47 50 43 50 58 73 78 82 84 83 81 77 71 102 108 116 126 137 148 
158 166 170 169 165 158 151 144 85 103 121 140 157 171 180 182 
178 168 153 135 116 97 80 106 106 108 109 109 106 101 94 86 
77 69 61 55 51 47 45 44 44 44 44 46 47 50 53 47 54 62 70 77 87 89 88 86 102 106 112 120 131 144 159 174 
188 198 203 203 197 187 176 75 93 113 134 156 176 193 204 207 
202 189 171 150 127 106 86 69 126 129 131 132 129 122 113 102 
90 79 69 61 55 51 48 46 46 46 46 47 48 50 52 48 55 63 70 77 84 89 94 99 104 110 118 129 143 161 180 200 
219 233 240 240 232 219 203 79 98 120 143 168 191 210 222 225 
219 205 184 159 134 110 89 71 57 153 158 159 155 146 134 119 
103 89 76 66 58 53 49 47 46 45 45 46 46 47 49 47 54 61 67 74 80 86 91 96 102 110 121 135 153 175 200 226 
250 255 255 255 255 251 64 80 99 122 147 173 198 218 230 234 
227 212 189 162 135 110 88 70 55 180 187 189 184 172 156 136 
117 98 82 69 60 53 48 45 44 43 43 43 43 43 43 45 51 57 63 69 74 80 85 91 98 108 121 138 160 187 218 250 
255 255 255 255 255 255 62 78 96 118 143 169 194 214 226 228 
221 206 183 156 129 104 82 65 52 208 218 221 215 200 179 154 
129 107 87 72 60 52 46 43 41 39 39 38 37 37 35 41 47 52 57 62 67 72 78 84 92 103 118 138 163 195 231 255 
255 255 255 255 255 255 58 72 89 109 132 157 180 197 207 208 
201 187 166 141 116 92 73 58 46 235 250 254 246 228 202 171 
141 114 91 73 59 50 43 39 37 35 34 33 32 30 27 37 42 47 51 56 60 65 70 77 85 97 113 135 163 198 238 255 
255 255 255 255 255 255 52 64 78 95 115 136 155 170 177 177 
171 159 140 118 96 76 60 48 39 32 255 255 255 252 221 186 
151 119 93 72 57 47 39 35 32 30 29 27 26 23 20 33 37 41 45 49 53 57 62 69 77 89 106 129 158 195 239 255 
255 255 255 255 255 255 45 54 64 77 92 108 123 135 141 140 
134 123 107 89 72 57 45 37 31 27 255 255 255 255 235 196 
157 122 93 71 55 43 35 30 27 25 23 22 20 17 13 29 32 36 39 42 46 50 54 61 69 81 98 120 150 187 231 255 
255 255 255 255 255 255 37 43 50 59 68 79 89 96 100 99 
94 84 72 59 47 38 31 26 23 255 255 255 255 255 242 200 
158 122 92 69 51 39 31 26 23 20 18 17 14 12 8 25 28 31 33 36 39 43 47 53 61 73 88 110 138 174 216 255 
255 255 255 255 255 255 29 33 36 41 45 51 56 59 60 58 
54 47 39 31 25 20 17 16 16 255 255 255 255 255 240 197 
156 119 88 65 48 36 28 22 19 16 14 12 10 7 3 21 24 26 29 31 34 37 41 46 54 64 79 99 125 157 196 238 
255 255 255 255 255 255 238 24 24 25 26 27 27 27 26 24 
20 16 12 8 6 6 6 8 10 255 255 255 255 255 229 188 
148 113 84 61 44 32 24 19 15 13 10 9 6 3 0 18 20 22 24 26 29 31 35 40 47 56 69 87 110 139 172 209 
245 255 255 255 255 247 205 17 15 13 11 9 6 4 1 0 
0 0 0 0 0 0 0 3 212 247 255 255 255 243 210 173 
137 104 77 56 40 29 21 16 12 10 8 6 3 1 0 15 17 19 21 23 25 27 30 35 41 49 60 76 95 120 148 178 
207 231 245 246 233 207 171 130 9 6 2 0 0 0 0 0 
0 0 0 0 0 0 0 146 185 216 237 243 235 215 187 155 
123 94 70 51 37 26 19 14 10 7 5 3 1 0 0 13 15 16 18 20 21 24 27 30 36 43 52 65 82 102 124 149 
171 190 200 200 189 167 137 102 67 2 0 0 0 0 0 0 
0 0 0 0 0 0 0 121 155 183 200 206 201 185 161 135 
108 84 63 46 33 24 17 12 8 6 4 2 0 0 0 11 13 14 16 17 19 21 24 27 32 38 46 57 70 86 103 122 
139 153 160 159 149 131 106 78 48 19 0 0 0 0 0 0 
0 0 0 0 0 32 64 96 125 149 164 170 166 154 136 115 
93 73 55 41 30 21 15 11 7 5 3 1 0 0 0 10 11 13 14 16 17 19 22 25 29 34 41 49 60 72 86 100 
112 121 126 124 115 100 80 56 31 7 0 0 0 0 0 0 
0 0 0 0 0 17 45 72 97 117 130 136 134 125 112 95 
79 63 48 36 27 20 14 10 7 4 2 1 0 0 0 9 10 11 13 14 16 18 20 23 27 31 37 44 52 62 72 81 
90 96 98 95 88 75 58 38 17 0 0 0 0 0 0 0 
0 0 0 0 0 1 26 49 71 88 100 105 105 100 90 78 
65 53 42 32 24 18 13 10 7 4 2 0 0 0 0 8 9 11 12 14 15 17 20 22 26 30 34 40 46 53 61 67 
73 76 76 73 66 54 40 23 0 0 0 0 0 0 0 0 
0 0 0 0 0 0 0 28 47 63 73 79 81 78 71 63 
54 45 36 29 22 17 13 9 7 4 3 1 0 0 0 8 9 10 12 13 15 17 19 22 25 29 33 37 42 47 52 57 
60 61 60 56 49 38 26 0 0 0 0 0 0 0 0 0 
0 0 0 0 0 0 0 0 27 41 51 57 60 59 56 50 
44 37 31 25 20 16 12 9 7 5 3 1 0 0 0 7 9 10 12 13 15 17 20 22 25 28 32 36 40 43 47 49 
50 50 47 43 36 26 14 0 0 0 0 0 0 0 0 0 
0 0 0 0 0 0 0 0 9 22 33 39 43 44 42 39 
35 31 27 22 19 15 12 9 7 5 3 2 0 0 0 7 8 10 12 13 15 18 20 23 26 29 32 35 38 41 43 43 
43 42 38 33 26 16 0 0 0 0 0 0 0 0 0 0 
0 0 0 0 0 0 0 0 0 7 17 24 29 31 31 30 
28 26 23 20 17 14 12 10 7 6 4 2 1 0 0 7 8 10 12 14 16 18 20 23 26 29 32 35 37 39 40 40 
38 35 31 25 18 9 0 0 0 0 0 0 0 0 0 0 
0 0 0 0 0 0 0 0 0 0 5 12 17 20 22 22 
22 21 19 17 15 13 11 9 8 6 4 3 1 0 0 7 8 10 12 14 16 18 21 24 26 29 32 35 36 38 38 37 
34 31 26 20 12 0 0 0 0 0 0 0 0 0 0 0 
0 0 0 0 0 0 0 0 0 0 0 2 7 11 13 15 
16 16 16 15 14 12 11 9 8 6 5 3 2 1 0 7 8 10 12 14 16 18 21 24 27 29 32 34 36 36 36 34 
31 27 22 15 8 0 0 0 0 0 0 0 0 0 0 0 
0 0 0 0 0 0 0 0 0 0 0 0 0 3 6 8 
10 11 12 12 12 11 10 9 7 6 5 3 2 1 0 7 8 10 12 14 16 18 21 24 26 29 32 34 35 35 34 32 
28 24 18 12 5 0 0 0 0 0 0 0 0 0 0 0 
0 0 0 0 0 0 0 0 0 0 0 0 0 0 0 2 
5 7 9 9 10 10 9 8 7 6 5 4 3 1 0 7 8 10 12 13 16 18 20 23 26 28 31 32 33 33 21 19 
16 21 15 9 3 0 0 0 0 0 0 0 0 0 133 255 
142 0 0 0 0 0 0 0 0 0 0 0 0 0 0 0 
0 3 5 7 7 8 8 7 7 6 5 4 3 2 1 7 8 9 11 13 15 17 20 22 25 27 29 30 31 30 19 17 
14 11 12 7 1 0 0 0 0 0 0 0 0 87 255 255 
255 191 46 0 0 0 0 0 0 0 0 0 0 0 0 0 
0 0 1 3 5 6 6 6 6 5 4 3 3 2 1 6 8 9 11 12 14 16 19 21 23 25 27 28 28 19 17 15 
12 8 10 5 0 7 0 0 0 0 0 0 13 113 255 255 
255 216 95 30 0 0 0 0 0 0 0 0 0 0 0 0 
0 0 0 1 3 4 5 5 5 4 4 3 2 2 1 6 7 9 10 12 13 15 17 19 21 23 24 25 24 23 14 12 
9 6 7 3 0 0 8 2 0 0 0 2 33 98 187 251 
239 170 99 49 20 5 0 0 0 0 0 0 0 0 0 0 
0 0 0 0 0 2 3 3 4 3 3 3 2 2 1 6 7 8 9 11 12 14 15 17 19 20 21 21 21 19 17 8 
6 8 5 2 0 0 15 11 8 6 9 19 42 80 124 155 
153 124 86 54 31 16 8 4 3 0 0 0 0 0 0 0 
0 0 0 0 0 0 1 2 2 3 2 2 2 1 1 5 6 7 8 10 11 12 14 15 16 17 17 17 17 15 13 11 
8 5 3 1 0 0 22 19 17 18 21 29 45 67 90 105 
106 92 72 51 35 23 15 10 8 0 0 0 0 0 0 0 
0 0 0 0 0 0 0 1 1 2 2 2 1 1 1 5 6 7 7 9 10 11 12 13 13 14 14 14 13 12 10 8 
5 3 2 0 0 0 2 25 25 26 29 35 45 58 70 78 
79 72 60 47 35 25 18 14 0 0 0 0 0 0 0 0 
0 0 0 0 0 0 0 0 0 1 1 1 1 1 1 4 5 6 7 7 8 9 10 11 11 11 11 11 10 8 7 5 
3 2 1 0 0 1 3 7 30 31 33 38 44 52 58 62 
62 58 50 42 33 26 20 0 0 0 0 0 0 0 0 0 
0 0 0 0 0 0 0 0 0 0 0 1 1 1 0 4 4 5 6 6 7 7 8 8 9 9 8 8 7 6 4 3 
1 0 0 0 1 2 5 8 13 33 35 38 42 46 50 52 
51 48 43 36 30 24 9 2 0 0 0 0 0 0 0 0 
0 0 0 0 0 0 0 0 0 0 0 0 0 0 0 3 4 4 5 5 6 6 6 7 7 7 6 5 5 4 2 1 
0 0 0 0 1 3 5 9 13 18 23 37 39 42 43 44 
43 40 36 31 23 16 9 3 0 0 0 0 0 0 0 0 
0 0 0 0 0 0 0 0 0 0 0 0 0 0 0 3 3 3 4 4 5 5 5 5 5 5 4 4 3 2 1 0 
0 0 0 0 1 3 5 9 12 17 21 26 31 35 37 37 
35 35 31 26 20 14 9 3 0 0 0 0 0 0 0 0 
0 0 0 0 0 0 0 0 0 0 0 0 0 0 0 2 3 3 3 3 4 4 4 4 4 3 3 2 1 1 0 0 
0 0 0 0 1 3 5 8 12 15 19 23 27 30 31 32 
31 29 26 22 18 13 8 4 0 0 0 0 0 0 0 0 
0 0 0 0 0 0 0 0 0 0 0 0 0 0 0 2 2 2 2 3 3 3 3 3 2 2 2 1 0 0 0 0 
0 0 0 0 1 3 5 8 11 14 17 20 23 25 27 27 
27 25 23 19 16 12 8 4 1 0 0 0 0 0 0 0 
0 0 0 0 0 0 0 0 0 0 0 0 0 0 0 1 2 2 2 2 2 2 2 2 1 1 1 0 0 0 0 0 
0 0 0 0 1 3 5 7 9 12 15 18 20 22 23 23 
23 21 19 17 14 11 7 4 1 0 0 0 0 0 0 0 
0 0 0 0 0 0 0 0 0 0 0 0 0 0 0 1 1 1 1 1 1 1 1 1 1 0 0 0 0 0 0 0 
0 0 0 0 1 2 4 6 8 10 13 15 17 18 19 20 
19 18 17 14 12 9 7 4 1 0 0 0 0 0 0 0 
0 0 0 0 0 0 0 0 0 0 0 0 0 0 0 1 1 1 1 1 1 1 0 0 0 0 0 0 0 0 0 0 
0 0 0 0 0 1 3 5 7 9 11 12 14 15 16 16 
16 15 14 12 10 8 6 4 1 0 0 0 0 0 0 0 
0 0 0 0 0 0 0 0 0 0 0 0 0 0 0 0 0 0 0 0 0 0 0 0 0 0 0 0 0 0 0 0 
0 0 0 0 0 1 2 4 5 7 8 10 11 12 13 13 
13 12 11 10 8 7 5 3 1 0 0 0 0 0 0 0 
0 0 0 0 0 0 0 0 0 0 0 0 0 0 0 0 0 0 0 0 0 0 0 0 0 0 0 0 0 0 0 0 
0 0 0 0 0 0 1 2 4 5 6 8 9 10 10 10 
10 10 9 8 7 5 4 2 1 0 0 0 0 0 0 0 
0 0 0 0 0 0 0 0 0 0 0 0 0 0 0 0 0 0 0 0 0 0 0 0 0 0 0 0 0 0 0 0 
0 0 0 0 0 0 0 1 2 3 4 5 6 7 8 8 
8 7 7 6 5 4 3 2 1 0 0 0 0 0 0 0 
0 0 0 0 0 0 0 0 0 0 0 0 0 0 0 0 0 0 0 0 0 0 0 0 0 0 0 0 0 0 0 0 
0 0 0 0 0 0 0 0 1 2 3 4 4 5 5 6 
6 5 5 4 4 3 2 1 0 0 0 0 0 0 0 0 
0 0 0 0 0 0 0 0 0 0 0 0 0 0 0 0 0 0 0 0 0 0 0 0 0 0 0 0 0 0 0 0 
0 0 0 0 0 0 0 0 0 1 1 2 3 3 3 4 
4 4 3 3 2 2 1 1 0 0 0 0 0 0 0 0 
0 0 0 0 0 0 0 0 0 0 0 0 0 0 0 0 0 0 0 0 0 0 0 0 0 0 0 0 0 0 0 0 
0 0 0 0 0 0 0 0 0 0 0 1 1 1 2 2 
2 2 2 2 1 1 0 0 0 0 0 0 0 0 0 0 
0 0 0 0 0 0 0 0 0 0 0 0 0 0 0 0 0 0 0 0 0 0 0 0 0 0 0 0 0 0 0 0 
0 0 0 0 0 0 0 0 0 0 0 0 0 0 0 1 
1 1 1 1 0 0 0 0 0 0 0 0 0 0 0 0 
0 0 0 0 0 0 0 0 0 0 0 0 0 0 0 0 0 0 0 0 0 0 0 0 0 0 0 0 0 0 0 0 
0 0 0 0 0 0 0 0 0 0 0 0 0 0 0 0 
0 0 0 0 0 0 0 0 0 0 0 0 0 0 0 0 
0 0 0 0 0 0 0 0 0 0 0 0 0 0 0 