P2
# Created by IrfanView
64 64
255
0 0 0 0 0 0 0 0 0 0 0 0 0 0 0 0 0 
0 0 0 0 0 0 0 0 0 0 1 2 3 3 3 4 
3 3 3 2 1 0 0 0 0 0 0 0 0 0 0 0 
0 0 0 0 0 0 0 0 0 0 0 0 0 0 0 0 0 0 0 0 0 0 0 0 0 0 0 0 0 0 0 0 
0 0 0 0 0 0 0 0 1 2 3 4 5 5 5 5 
5 5 4 4 3 2 1 0 0 0 0 0 0 0 0 0 
0 0 0 0 0 0 0 0 0 0 0 0 0 0 0 0 0 0 0 0 0 0 0 0 0 0 0 0 0 0 0 0 
0 0 0 0 0 0 0 1 3 5 6 6 7 7 7 7 
7 7 6 6 5 4 3 1 0 0 0 0 0 0 0 0 
0 0 0 0 0 0 0 0 0 0 0 0 0 0 0 0 0 0 0 0 0 0 0 0 0 0 0 0 0 0 0 0 
0 0 0 0 0 0 2 5 6 8 9 9 10 10 10 10 
10 9 9 8 7 6 5 4 2 0 0 0 0 0 0 0 
0 0 0 0 0 0 0 0 0 0 0 0 0 0 0 0 0 0 0 0 0 0 0 0 0 0 0 0 0 0 0 0 
0 0 0 0 0 4 6 8 10 11 12 13 13 13 13 13 
13 12 12 11 10 9 8 7 5 3 1 0 0 0 0 0 
0 0 0 0 0 0 0 0 0 0 0 0 0 0 0 0 0 0 0 0 0 0 0 0 0 0 0 0 0 0 0 0 
0 0 0 1 5 9 11 13 15 16 16 17 17 17 17 17 
16 16 15 15 14 13 12 10 9 7 5 2 0 0 0 0 
0 0 0 0 0 0 0 0 0 0 0 0 0 0 0 0 0 0 0 0 0 0 0 0 0 0 0 0 0 0 0 0 
0 0 3 8 12 15 18 19 20 21 21 22 22 22 22 21 
21 20 20 19 18 17 16 14 13 11 9 7 4 0 0 0 
0 0 0 0 0 0 0 0 0 0 0 0 0 0 0 0 0 0 0 0 0 0 0 0 0 0 0 0 0 0 0 0 
0 6 13 17 21 23 25 26 27 27 28 28 28 27 27 27 
26 25 25 24 23 22 20 19 18 17 15 12 10 6 2 0 
0 0 0 0 0 0 0 0 0 0 0 0 0 0 0 0 0 0 0 0 0 0 0 0 0 0 0 0 0 0 0 2 
11 19 24 28 31 33 34 35 35 35 35 35 34 34 34 33 
33 32 31 29 28 27 26 25 24 23 21 19 17 14 10 6 
1 0 0 0 0 0 0 0 0 0 0 0 0 0 0 0 0 0 0 0 0 0 0 0 0 0 0 0 0 0 10 19 
27 34 38 42 44 45 45 45 44 44 43 43 43 43 42 42 
41 39 38 37 35 34 33 32 31 30 29 27 25 22 19 15 
10 6 1 0 0 0 0 0 0 0 0 0 0 1 7 0 0 0 0 0 0 0 0 0 0 0 0 0 0 0 30 39 
46 51 55 58 59 59 58 56 55 54 53 53 53 53 53 52 
51 49 47 45 43 42 41 40 40 39 38 37 35 33 29 25 
21 17 13 9 5 3 1 0 0 1 3 6 10 15 20 13 12 11 10 9 8 8 7 6 6 5 6 6 7 46 53 61 
67 72 75 76 76 75 72 70 68 66 65 65 65 66 66 65 
64 61 59 56 53 51 50 50 50 50 49 49 47 44 41 37 
33 29 25 21 18 16 15 15 15 16 18 21 24 29 34 30 33 36 38 41 42 42 42 40 37 34 31 28 25 71 78 85 
91 96 98 99 97 94 90 86 82 80 79 79 80 82 83 98 
96 77 73 69 65 63 61 61 61 62 63 62 61 58 54 50 
45 41 36 33 31 29 28 28 29 30 32 34 37 42 47 45 51 57 62 67 70 72 71 68 64 59 53 47 41 96 103 111 
118 123 126 125 122 117 110 104 99 96 95 95 106 114 119 121 
119 113 105 94 79 76 74 74 75 77 78 78 77 74 69 64 
58 53 48 44 41 40 39 40 40 41 43 45 48 52 58 47 65 73 80 87 91 93 93 89 84 77 69 61 113 120 129 139 
148 155 158 157 152 144 134 125 117 113 99 113 126 136 143 145 
142 135 124 111 97 82 89 89 92 95 97 98 97 93 87 80 
72 65 58 54 50 48 48 48 49 50 51 53 56 60 66 54 74 83 91 99 104 106 106 103 97 89 80 71 133 143 156 170 
182 191 196 194 187 175 161 148 138 97 114 131 146 158 166 169 
165 157 143 127 110 93 77 107 112 117 121 123 121 115 107 97 
86 76 68 62 57 54 53 53 54 55 56 58 60 65 70 58 68 87 96 104 109 112 111 108 102 94 85 138 149 164 183 202 
220 233 240 238 228 212 193 174 88 107 126 146 164 179 188 191 
187 176 160 142 121 102 84 128 135 143 150 152 150 142 130 116 
101 88 76 68 61 58 56 55 55 56 57 59 61 65 70 58 68 77 87 103 108 111 110 107 101 127 135 147 163 184 209 236 
255 255 255 255 255 254 227 76 94 114 136 158 178 195 206 209 
204 191 173 152 129 107 87 70 162 175 185 188 184 173 156 137 
117 98 83 72 64 59 56 54 54 55 56 57 59 62 66 56 64 73 82 89 97 102 108 112 118 125 136 151 173 201 235 255 
255 255 255 255 255 255 255 78 96 117 140 164 186 204 215 219 
213 199 179 156 132 109 88 71 194 213 226 231 225 209 186 159 
133 109 89 74 64 57 53 51 51 51 52 53 54 56 58 52 60 67 74 81 87 93 98 103 110 119 133 153 180 215 255 255 
255 255 255 255 255 255 255 77 95 116 138 162 185 203 215 218 
212 198 177 153 128 105 85 68 54 255 255 255 255 249 218 183 
148 118 94 75 63 54 49 47 46 46 46 46 47 48 48 48 54 60 66 72 77 82 87 93 100 111 128 151 183 224 255 255 
255 255 255 255 255 255 255 73 90 109 130 153 174 192 203 205 
199 185 165 142 118 97 78 62 50 255 255 255 255 255 250 206 
163 126 97 75 60 50 44 41 40 39 39 39 39 39 37 42 47 53 57 62 67 71 76 82 90 102 120 145 181 228 255 255 
255 255 255 255 255 255 255 66 81 98 117 136 155 170 180 182 
176 163 145 124 103 84 67 54 255 255 255 255 255 255 255 226 
175 132 98 73 56 45 39 35 33 33 32 32 31 30 27 37 41 45 49 53 57 61 65 71 79 91 110 137 174 224 255 255 
255 255 255 255 255 255 255 58 69 83 99 114 130 142 149 150 
144 133 118 101 83 68 55 45 255 255 255 255 255 255 255 240 
183 135 98 70 52 40 33 29 27 26 26 25 24 22 18 31 35 39 42 45 48 51 55 60 68 81 99 125 163 213 255 255 
255 255 255 255 255 255 255 48 57 67 78 90 101 109 114 114 
109 100 88 75 63 51 42 35 255 255 255 255 255 255 255 247 
186 135 95 67 47 35 27 23 21 20 19 18 17 15 11 27 29 32 35 37 40 43 46 51 58 70 87 112 148 195 255 255 
255 255 255 255 255 255 255 250 45 51 58 65 72 77 79 78 
74 68 59 51 43 36 30 26 255 255 255 255 255 255 255 243 
182 131 91 62 43 30 23 18 16 15 14 13 11 9 5 22 25 27 29 31 33 35 38 43 49 60 75 98 130 173 227 255 
255 255 255 255 255 255 255 228 34 37 40 44 46 48 49 47 
44 40 35 30 26 22 20 19 255 255 255 255 255 255 255 231 
172 123 85 57 38 26 18 14 12 10 9 8 7 4 0 18 20 22 24 26 27 29 32 36 42 51 64 84 112 149 196 249 
255 255 255 255 255 255 255 197 25 26 26 27 27 26 25 23 
21 18 16 14 13 12 12 13 255 255 255 255 255 255 255 211 
158 113 78 52 35 23 15 11 9 7 6 5 3 1 0 15 17 19 20 21 23 24 27 30 35 43 55 72 95 126 164 207 
251 255 255 255 255 255 215 160 107 17 16 14 13 11 9 7 
5 4 3 3 4 6 8 199 251 255 255 255 255 255 234 186 
140 102 71 47 31 20 13 9 6 5 3 2 0 0 0 13 14 16 17 18 19 21 23 26 30 37 47 61 80 105 135 168 
202 230 248 252 238 209 170 125 81 41 10 7 5 2 0 0 
0 0 0 0 0 3 117 164 209 244 255 255 255 234 198 159 
122 89 63 43 28 18 12 7 5 3 2 0 0 0 0 11 12 13 14 16 17 18 20 23 27 33 41 52 68 87 110 135 
159 180 192 194 183 160 129 93 57 24 0 4 1 0 0 0 
0 0 0 0 17 52 90 130 166 196 214 219 211 191 164 133 
104 77 55 38 26 17 11 7 4 2 1 0 0 0 0 9 10 12 13 14 15 17 19 21 25 30 37 46 58 72 89 108 
125 139 147 147 137 119 95 67 37 9 0 0 0 0 0 0 
0 0 0 0 1 31 64 97 127 151 166 172 166 152 132 109 
87 66 48 34 24 16 11 7 4 2 1 0 0 0 0 8 9 11 12 13 14 16 18 20 24 28 34 41 50 61 74 87 
98 107 112 110 102 87 67 44 20 0 0 0 0 0 0 0 
0 0 0 0 0 11 39 67 92 112 125 131 128 119 105 89 
72 56 42 31 22 16 11 7 5 3 1 0 0 0 0 7 9 10 11 13 14 16 18 20 24 28 32 38 46 54 62 71 
79 84 85 82 75 62 45 26 5 0 0 0 0 0 0 0 
0 0 0 0 0 0 16 40 62 79 91 97 97 91 82 71 
59 47 37 28 21 15 11 8 5 3 1 0 0 0 0 7 8 10 11 13 14 16 19 21 24 28 32 37 43 49 55 60 
64 67 66 62 54 43 28 11 0 0 0 0 0 0 0 0 
0 0 0 0 0 0 0 16 36 52 63 69 71 69 63 56 
48 40 32 26 20 15 12 9 6 4 2 1 0 0 0 7 8 10 11 13 15 17 19 22 25 29 33 37 41 46 49 53 
54 54 52 47 39 28 15 0 0 0 0 0 0 0 0 0 
0 0 0 0 0 0 0 0 14 29 40 47 50 50 48 44 
39 34 28 23 19 15 12 9 7 5 3 1 0 0 0 7 8 10 12 13 16 18 20 23 27 30 34 38 41 44 46 48 
47 46 42 36 28 17 0 0 0 0 0 0 0 0 0 0 
0 0 0 0 0 0 0 0 0 11 22 29 33 35 35 34 
31 28 25 21 18 15 13 10 8 6 4 2 1 0 0 7 8 10 12 14 16 19 22 25 28 32 35 39 41 44 45 45 
43 40 35 28 19 9 0 0 0 0 0 0 0 0 0 0 
0 0 0 0 0 0 0 0 0 0 7 14 19 23 24 25 
24 23 22 20 17 15 13 11 9 7 5 3 2 0 0 7 9 10 12 14 17 20 23 26 29 33 37 40 42 44 27 25 
22 35 29 22 13 2 0 0 0 0 0 0 0 0 0 0 
0 0 0 0 0 0 0 0 0 0 0 2 8 12 0 1 
18 18 18 17 16 14 13 11 9 7 5 4 2 1 0 7 9 10 12 15 17 20 23 27 30 34 37 41 43 30 29 27 
24 20 15 17 8 0 0 0 0 0 0 0 0 0 0 0 
0 0 0 0 0 0 0 0 0 0 0 0 0 0 0 0 
1 4 15 15 14 13 12 11 9 7 6 4 3 1 0 7 9 11 13 15 17 20 24 27 31 34 38 41 31 31 30 27 
23 19 14 10 5 0 0 0 0 0 0 0 0 0 0 0 
0 0 0 0 0 0 0 0 0 0 0 0 0 0 0 0 
0 2 4 12 12 12 11 10 9 7 6 5 3 2 1 7 9 10 12 15 17 20 23 27 30 34 37 29 31 31 29 26 
22 17 12 8 4 0 0 0 0 0 0 0 0 82 221 255 
219 84 0 0 0 0 0 0 0 0 0 0 0 0 0 0 
0 0 2 4 10 10 10 9 8 7 6 5 3 2 1 7 9 10 12 14 17 20 23 26 29 32 35 28 29 29 27 23 
19 14 9 5 1 0 0 0 0 0 0 0 63 203 255 255 
255 252 102 23 0 0 0 0 0 0 0 0 0 0 0 0 
0 0 0 2 7 8 8 8 7 7 5 4 3 2 1 7 8 10 12 14 16 19 21 24 27 30 33 26 26 26 23 20 
15 11 6 2 0 3 0 0 0 0 0 28 94 218 255 255 
255 255 145 62 17 0 0 0 0 0 0 0 0 0 0 0 
0 0 0 0 4 5 6 6 6 6 5 4 3 2 2 7 8 9 11 13 15 17 20 22 25 27 29 22 23 21 19 15 
11 7 2 0 0 0 5 2 0 3 15 42 95 178 255 255 
255 225 140 75 34 11 0 0 0 0 0 0 0 0 0 0 
0 0 0 0 1 3 4 5 5 5 4 4 3 2 1 6 7 9 10 12 14 16 18 20 22 24 25 18 18 17 14 11 
7 3 0 0 0 0 11 10 10 14 25 47 83 133 183 212 
204 165 115 72 40 20 8 2 0 0 0 0 0 0 0 0 
0 0 0 0 0 0 2 3 3 4 3 3 3 2 1 6 7 8 9 11 12 14 15 17 19 20 20 20 14 12 9 6 
3 0 0 0 0 0 0 16 17 21 30 46 70 98 125 141 
137 117 90 62 40 23 13 6 0 0 0 0 0 0 0 0 
0 0 0 0 0 0 0 1 2 2 3 2 2 2 1 5 6 7 8 9 11 12 13 14 15 16 16 16 15 8 5 2 
0 0 0 0 0 0 0 21 22 26 32 43 58 74 89 97 
96 85 69 51 36 23 14 9 0 0 0 0 0 0 0 0 
0 0 0 0 0 0 0 0 1 1 2 2 1 1 1 5 5 6 7 8 9 10 11 12 12 13 12 12 10 8 6 3 
1 0 0 0 0 0 0 4 25 27 32 40 48 58 66 70 
69 62 52 41 30 21 14 0 0 0 0 0 0 0 0 0 
0 0 0 0 0 0 0 0 0 0 1 1 1 1 1 4 5 5 6 7 8 8 9 9 10 9 9 8 7 5 3 1 
0 0 0 0 0 0 1 5 10 27 31 35 41 46 50 52 
51 46 40 32 25 18 5 0 0 0 0 0 0 0 0 0 
0 0 0 0 0 0 0 0 0 0 0 0 1 1 0 3 4 5 5 6 6 7 7 7 7 7 6 5 4 3 1 0 
0 0 0 0 0 0 1 5 9 15 21 31 34 37 39 39 
38 35 30 24 20 12 5 0 0 0 0 0 0 0 0 0 
0 0 0 0 0 0 0 0 0 0 0 0 0 0 0 3 3 4 4 5 5 5 5 5 5 5 4 3 2 1 0 0 
0 0 0 0 0 0 2 5 9 13 18 23 28 32 35 36 
35 32 28 23 17 11 5 0 0 0 0 0 0 0 0 0 
0 0 0 0 0 0 0 0 0 0 0 0 0 0 0 2 3 3 3 4 4 4 4 4 4 3 2 2 1 0 0 0 
0 0 0 0 0 0 2 5 8 12 16 20 23 26 28 29 
28 26 23 19 14 9 4 0 0 0 0 0 0 0 0 0 
0 0 0 0 0 0 0 0 0 0 0 0 0 0 0 2 2 2 3 3 3 3 3 3 2 2 1 0 0 0 0 0 
0 0 0 0 0 0 2 5 7 11 14 17 20 22 23 24 
23 21 19 16 12 8 4 0 0 0 0 0 0 0 0 0 
0 0 0 0 0 0 0 0 0 0 0 0 0 0 0 1 2 2 2 2 2 2 2 2 1 1 0 0 0 0 0 0 
0 0 0 0 0 0 2 4 7 9 12 14 16 18 19 20 
19 18 16 13 10 7 4 1 0 0 0 0 0 0 0 0 
0 0 0 0 0 0 0 0 0 0 0 0 0 0 0 1 1 1 1 1 1 1 1 1 0 0 0 0 0 0 0 0 
0 0 0 0 0 0 2 4 6 8 10 12 14 15 16 16 
16 15 13 11 9 6 4 1 0 0 0 0 0 0 0 0 
0 0 0 0 0 0 0 0 0 0 0 0 0 0 0 1 1 1 1 1 1 1 0 0 0 0 0 0 0 0 0 0 
0 0 0 0 0 0 1 3 5 6 8 10 11 12 13 13 
13 12 11 9 7 5 3 1 0 0 0 0 0 0 0 0 
0 0 0 0 0 0 0 0 0 0 0 0 0 0 0 0 0 0 0 0 0 0 0 0 0 0 0 0 0 0 0 0 
0 0 0 0 0 0 1 2 3 5 6 8 9 10 11 11 
11 10 9 8 6 5 3 1 0 0 0 0 0 0 0 0 
0 0 0 0 0 0 0 0 0 0 0 0 0 0 0 0 0 0 0 0 0 0 0 0 0 0 0 0 0 0 0 0 
0 0 0 0 0 0 0 1 2 4 5 6 7 8 8 8 
8 8 7 6 5 4 2 1 0 0 0 0 0 0 0 0 
0 0 0 0 0 0 0 0 0 0 0 0 0 0 0 0 0 0 0 0 0 0 0 0 0 0 0 0 0 0 0 0 
0 0 0 0 0 0 0 0 1 2 3 4 5 6 6 6 
6 6 5 5 4 3 2 1 0 0 0 0 0 0 0 0 
0 0 0 0 0 0 0 0 0 0 0 0 0 0 0 0 0 0 0 0 0 0 0 0 0 0 0 0 0 0 0 0 
0 0 0 0 0 0 0 0 1 1 2 3 3 4 4 5 
5 4 4 3 3 2 1 0 0 0 0 0 0 0 0 0 
0 0 0 0 0 0 0 0 0 0 0 0 0 0 0 0 0 0 0 0 0 0 0 0 0 0 0 0 0 0 0 0 
0 0 0 0 0 0 0 0 0 0 1 2 2 3 3 3 
3 3 3 2 2 1 0 0 0 0 0 0 0 0 0 0 
0 0 0 0 0 0 0 0 0 0 0 0 0 0 0 0 0 0 0 0 0 0 0 0 0 0 0 0 0 0 0 0 
0 0 0 0 0 0 0 0 0 0 0 0 1 1 1 2 
2 2 1 1 1 0 0 0 0 0 0 0 0 0 0 0 
0 0 0 0 0 0 0 0 0 0 0 0 0 0 0 0 0 0 0 0 0 0 0 0 0 0 0 0 0 0 0 0 
0 0 0 0 0 0 0 0 0 0 0 0 0 0 0 1 
1 1 1 0 0 0 0 0 0 0 0 0 0 0 0 0 
0 0 0 0 0 0 0 0 0 0 0 0 0 0 0 0 0 0 0 0 0 0 0 0 0 0 0 0 0 0 0 0 
0 0 0 0 0 0 0 0 0 0 0 0 0 0 0 0 
0 0 0 0 0 0 0 0 0 0 0 0 0 0 0 0 
0 0 0 0 0 0 0 0 0 0 0 0 0 0 0 