P2
# Created by IrfanView
64 64
255
0 0 0 0 0 0 0 0 0 0 0 0 0 0 0 0 0 
0 0 0 0 0 0 0 0 0 0 1 2 2 3 3 3 
3 3 2 2 1 0 0 0 0 0 0 0 0 0 0 0 
0 0 0 0 0 0 0 0 0 0 0 0 0 0 0 0 0 0 0 0 0 0 0 0 0 0 0 0 0 0 0 0 
0 0 0 0 0 0 0 0 0 1 2 3 4 4 5 5 
5 4 4 3 2 1 0 0 0 0 0 0 0 0 0 0 
0 0 0 0 0 0 0 0 0 0 0 0 0 0 0 0 0 0 0 0 0 0 0 0 0 0 0 0 0 0 0 0 
0 0 0 0 0 0 0 0 2 4 5 6 6 7 7 7 
6 6 6 5 4 3 2 0 0 0 0 0 0 0 0 0 
0 0 0 0 0 0 0 0 0 0 0 0 0 0 0 0 0 0 0 0 0 0 0 0 0 0 0 0 0 0 0 0 
0 0 0 0 0 0 1 3 5 7 8 8 9 9 9 9 
9 8 8 7 6 5 4 3 1 0 0 0 0 0 0 0 
0 0 0 0 0 0 0 0 0 0 0 0 0 0 0 0 0 0 0 0 0 0 0 0 0 0 0 0 0 0 0 0 
0 0 0 0 0 2 5 7 9 10 11 11 12 12 12 12 
12 11 11 10 9 8 7 6 4 2 0 0 0 0 0 0 
0 0 0 0 0 0 0 0 0 0 0 0 0 0 0 0 0 0 0 0 0 0 0 0 0 0 0 0 0 0 0 0 
0 0 0 0 4 7 10 12 13 14 15 15 15 15 15 15 
15 14 14 13 12 11 10 9 7 5 3 0 0 0 0 0 
0 0 0 0 0 0 0 0 0 0 0 0 0 0 0 0 0 0 0 0 0 0 0 0 0 0 0 0 0 0 0 0 
0 0 0 6 11 14 16 18 19 19 20 20 20 20 19 19 
19 18 17 17 16 15 14 13 12 10 8 5 1 0 0 0 
0 0 0 0 0 0 0 0 0 0 0 0 0 0 0 0 0 0 0 0 0 0 0 0 0 0 0 0 0 0 0 0 
0 3 10 16 20 22 24 25 25 25 25 25 25 24 24 24 
23 22 22 21 20 20 19 18 17 15 14 11 8 4 0 0 
0 0 0 0 0 0 0 0 0 0 0 0 0 0 0 0 0 0 0 0 0 0 0 0 0 0 0 0 0 0 0 0 
8 17 23 28 31 32 33 33 33 32 32 31 31 30 30 29 
28 28 27 26 25 25 24 24 23 22 20 18 16 12 8 3 
0 0 0 0 0 0 0 0 0 0 0 0 0 0 0 0 0 0 0 0 0 0 0 0 0 0 0 0 0 0 5 16 
26 33 38 42 44 44 44 43 42 40 39 38 38 37 36 36 
35 34 33 32 31 31 30 30 30 30 29 27 25 22 18 13 
8 3 0 0 0 0 0 0 0 0 0 0 0 0 5 0 0 0 0 0 0 0 0 0 0 0 0 0 0 0 0 39 
47 53 57 59 60 59 57 55 52 50 48 47 46 45 45 44 
43 42 40 39 38 38 38 38 38 39 39 38 36 33 30 25 
21 16 11 6 3 1 0 0 0 0 1 2 4 16 23 13 12 12 11 11 10 9 8 7 6 5 5 5 6 7 56 64 
71 76 79 80 79 76 72 68 64 61 58 56 56 55 55 54 
53 51 49 47 46 46 46 47 48 50 50 50 49 46 43 39 
34 29 25 22 19 17 18 19 19 20 20 20 20 34 41 35 39 43 48 51 54 55 54 51 47 42 37 33 29 26 85 92 
98 103 106 105 102 97 91 84 78 73 69 68 67 67 67 66 
65 62 60 57 56 55 56 58 60 63 64 65 64 62 58 53 
48 44 39 36 34 33 35 36 37 37 37 36 35 51 58 54 62 70 78 85 90 92 92 88 81 74 65 56 49 42 114 122 
130 135 137 136 131 122 112 102 93 87 82 81 80 102 106 108 
106 101 73 69 67 66 67 70 74 79 82 84 83 80 75 69 
63 57 53 49 48 47 49 51 52 53 52 50 61 66 73 68 79 90 100 110 116 119 119 114 106 97 85 74 64 54 145 155 
166 173 176 173 165 153 138 124 111 102 96 102 113 122 127 129 
127 121 112 100 79 78 80 85 92 99 104 106 106 102 95 87 
78 71 64 60 58 57 58 59 64 64 65 68 71 76 84 77 90 102 114 124 131 135 134 129 121 111 98 86 74 161 175 191 
207 218 223 220 208 190 169 148 130 118 103 117 131 142 148 150 
148 140 129 115 100 85 96 103 113 124 132 136 135 129 119 107 
94 83 74 68 65 63 64 65 67 69 71 73 76 82 90 72 94 107 119 129 136 140 139 135 127 116 104 91 168 185 207 231 
254 255 255 255 255 236 206 176 152 97 114 131 147 159 167 170 
166 158 145 129 111 94 78 125 140 156 168 173 171 162 147 129 
111 95 82 74 68 66 65 66 68 69 71 74 77 82 91 71 83 105 117 127 133 137 136 132 125 115 103 164 182 207 239 255 
255 255 255 255 255 255 249 208 86 104 123 142 159 173 183 185 
181 171 156 138 119 100 82 151 174 197 214 221 217 202 180 154 
129 106 89 76 69 65 63 64 65 67 68 71 74 78 85 67 77 88 99 118 125 128 128 124 117 140 150 166 192 226 255 255 
255 255 255 255 255 255 255 241 89 108 128 148 167 182 192 194 
190 179 162 143 122 102 84 68 215 233 255 255 255 255 219 182 
147 117 93 77 66 61 58 58 59 61 62 64 67 70 75 61 70 79 87 95 102 108 112 116 121 129 143 165 197 242 255 255 
255 255 255 255 255 255 255 237 89 108 128 148 167 183 193 195 
191 179 162 142 120 100 82 174 236 255 255 255 255 255 255 212 
165 126 96 75 62 55 52 51 52 53 54 56 58 60 63 55 62 69 76 82 87 92 96 100 106 117 133 159 198 252 255 255 
255 255 255 255 255 255 255 255 85 103 122 142 160 175 184 187 
182 170 153 134 114 94 77 214 255 255 255 255 255 255 255 255 
183 134 97 72 56 48 44 42 43 44 46 47 48 49 49 47 53 59 64 69 73 77 80 85 92 103 121 150 194 255 255 255 
255 255 255 255 255 255 255 255 79 94 112 129 145 159 167 169 
164 153 138 120 102 84 69 254 255 255 255 255 255 255 255 255 
218 139 96 68 50 40 35 34 34 35 36 37 38 37 36 41 45 50 54 57 60 63 66 70 77 88 107 137 183 255 255 255 
255 255 255 255 255 255 255 255 190 83 97 112 125 136 143 144 
140 130 117 102 86 72 59 255 255 255 255 255 255 255 255 255 
226 141 94 62 43 32 27 25 26 26 28 28 28 27 24 34 38 41 44 47 49 51 53 57 63 74 93 122 167 255 255 255 
255 255 255 255 255 255 255 255 189 70 81 92 102 110 115 116 
112 104 93 81 69 58 49 255 255 255 255 255 255 255 255 255 
228 140 90 57 36 25 20 18 18 19 20 20 20 18 15 28 31 34 36 38 39 41 43 46 51 61 78 105 148 234 255 255 
255 255 255 255 255 255 255 255 180 56 64 72 79 84 87 87 
83 78 70 61 53 45 38 255 255 255 255 255 255 255 255 255 
222 134 84 51 30 19 14 12 11 12 13 13 12 11 7 23 25 27 29 30 31 32 33 36 41 49 64 89 126 181 255 255 
255 255 255 255 255 255 255 255 163 44 48 53 57 60 61 61 
58 54 48 43 38 33 222 255 255 255 255 255 255 255 255 255 
210 126 78 46 26 14 9 7 6 7 7 7 7 5 1 18 20 22 23 24 25 25 26 28 32 40 52 73 105 151 234 255 
255 255 255 255 255 255 255 227 142 33 35 38 39 40 40 39 
37 35 31 28 26 23 207 255 255 255 255 255 255 255 255 255 
191 114 71 41 22 11 6 3 3 3 3 3 2 0 0 15 16 18 19 19 20 20 21 23 26 32 43 60 86 124 173 249 
255 255 255 255 255 255 255 188 117 59 26 26 26 26 25 24 
22 21 19 18 17 17 183 255 255 255 255 255 255 255 255 229 
153 102 63 37 20 10 4 2 1 1 1 0 0 0 0 12 13 14 15 16 16 17 17 19 22 27 36 50 71 100 138 199 
243 255 255 255 255 255 207 148 87 39 1 18 17 16 15 14 
13 12 11 11 12 93 150 212 255 255 255 255 255 255 247 182 
131 89 56 33 18 9 4 1 0 0 0 0 0 0 0 10 11 12 13 13 14 14 15 17 19 24 31 43 59 81 109 142 
177 215 234 238 225 196 151 106 61 22 0 0 0 11 9 8 
8 7 8 0 26 68 115 166 213 252 255 255 255 233 193 150 
110 76 50 31 18 9 4 1 0 0 0 0 0 0 0 8 9 10 11 12 13 13 14 16 18 22 29 38 50 67 88 111 
134 155 168 170 160 138 108 74 39 6 0 0 0 0 0 0 
0 0 0 0 7 43 83 123 160 190 208 213 203 181 152 121 
91 65 44 29 17 10 5 2 0 0 0 0 0 0 0 7 8 9 10 11 12 13 15 16 19 23 28 35 45 57 72 88 
104 116 124 124 115 98 75 48 20 0 0 0 0 0 0 0 
0 0 0 0 0 19 52 85 115 139 154 158 153 139 119 97 
75 56 39 27 18 11 7 4 2 0 0 0 0 0 0 6 8 9 10 11 13 14 16 18 20 24 29 35 42 51 61 72 
82 89 93 91 82 68 50 27 4 0 0 0 0 0 0 0 
0 0 0 0 0 0 24 52 77 97 110 115 113 105 92 77 
62 48 35 26 18 13 8 5 3 2 0 0 0 0 0 6 8 9 10 12 13 15 17 20 22 26 30 35 41 48 55 62 
67 71 71 67 59 46 30 11 0 0 0 0 0 0 0 0 
0 0 0 0 0 0 0 24 46 63 75 81 82 78 70 61 
51 41 32 25 19 14 10 7 5 3 1 0 0 0 0 6 8 9 11 12 14 16 19 22 25 29 33 37 42 47 52 55 
58 58 56 50 42 30 15 0 0 0 0 0 0 0 0 0 
0 0 0 0 0 0 0 0 20 36 48 55 57 57 53 48 
42 35 29 24 19 15 12 9 7 5 3 1 0 0 0 6 8 10 11 13 16 18 21 24 28 32 36 40 44 48 50 52 
52 50 45 39 30 18 3 0 0 0 0 0 0 0 0 0 
0 0 0 0 0 0 0 0 0 15 26 34 38 40 39 37 
34 31 27 23 20 16 13 11 8 6 4 2 1 0 0 7 8 10 12 14 17 20 23 27 31 35 39 43 47 33 33 31 
27 23 19 30 21 9 0 0 0 0 0 0 0 0 0 0 
0 0 0 0 0 0 0 0 0 0 9 17 0 0 3 6 
9 11 25 22 20 17 14 12 10 7 5 4 2 0 0 7 9 10 13 15 18 21 25 29 33 38 42 34 37 38 37 34 
30 25 20 15 14 2 0 0 0 0 0 0 0 0 0 0 
0 0 0 0 0 0 0 0 0 0 0 0 0 0 0 3 
7 10 12 13 19 17 15 13 10 8 6 5 3 1 0 7 9 11 13 16 19 22 26 30 35 40 34 38 40 41 39 36 
31 26 20 14 9 0 0 0 0 0 0 0 0 0 0 0 
0 0 0 0 0 0 0 0 0 0 0 0 0 0 0 0 
4 8 11 13 13 17 15 13 11 9 7 5 4 2 1 7 9 11 13 16 19 23 27 31 36 41 36 40 42 42 40 36 
31 24 18 12 7 0 0 0 0 0 0 0 0 0 0 0 
0 0 0 0 0 0 0 0 0 0 0 0 0 0 0 0 
0 5 8 11 12 16 14 13 11 9 7 6 4 3 1 7 9 11 13 16 19 23 27 31 36 32 37 40 41 41 39 34 
28 22 15 9 4 0 0 0 0 0 0 0 23 90 170 207 
165 84 16 0 0 0 0 0 0 0 0 0 0 0 0 0 
0 0 5 8 10 11 13 12 11 9 7 6 4 3 2 7 9 11 13 16 19 22 26 30 35 31 35 38 39 38 35 30 
24 18 11 5 0 0 0 0 0 0 0 23 84 185 255 255 
255 204 100 32 0 0 0 0 0 0 0 0 0 0 0 0 
0 0 1 5 7 9 11 11 10 8 7 6 4 3 2 7 9 11 13 15 18 21 25 29 33 29 32 35 35 34 30 25 
19 12 6 1 0 0 0 0 0 0 14 49 112 208 255 255 
255 237 139 66 22 0 0 0 0 0 0 0 0 0 0 0 
0 0 0 1 4 6 9 9 8 7 6 5 4 3 2 7 8 10 12 14 17 20 23 26 29 26 28 30 30 28 24 19 
13 7 1 0 0 0 2 0 2 9 26 58 111 182 253 255 
255 208 137 77 37 12 0 0 0 0 0 0 0 0 0 0 
0 0 0 0 1 3 6 7 7 6 6 5 4 3 2 6 8 9 11 13 15 18 20 23 26 21 24 24 24 21 17 12 
7 1 0 0 0 0 7 7 10 17 32 57 95 141 184 206 
197 161 115 73 41 19 5 0 0 0 0 0 0 0 0 0 
0 0 0 0 0 1 3 5 5 5 5 4 3 3 2 6 7 8 10 12 13 15 18 20 22 23 18 19 17 15 11 6 
1 0 0 0 0 0 0 12 15 21 33 52 77 105 130 142 
137 117 89 61 38 20 8 1 0 0 0 0 0 0 0 0 
0 0 0 0 0 0 1 2 3 4 3 3 3 2 2 5 6 8 9 10 12 13 15 16 18 18 19 13 12 9 6 1 
0 0 0 0 0 0 0 0 17 23 31 44 60 77 91 98 
95 83 66 48 31 18 8 0 0 0 0 0 0 0 0 0 
0 0 0 0 0 0 0 1 2 2 2 2 2 2 1 5 6 7 8 9 10 11 12 13 14 14 14 13 7 5 1 0 
0 0 0 0 0 0 0 0 6 22 28 36 46 56 64 68 
66 59 48 36 24 14 0 0 0 0 0 0 0 0 0 0 
0 0 0 0 0 0 0 0 0 1 1 2 1 1 1 4 5 6 6 7 8 9 10 10 10 10 10 8 6 1 0 0 
0 0 0 0 0 0 0 0 6 13 24 29 35 41 45 47 
45 40 33 25 17 9 0 0 0 0 0 0 0 0 0 0 
0 0 0 0 0 0 0 0 0 0 1 1 1 1 1 4 4 5 5 6 7 7 7 8 8 7 6 5 3 1 0 0 
0 0 0 0 0 0 0 1 6 11 18 24 26 29 31 31 
30 26 21 24 16 8 0 0 0 0 0 0 0 0 0 0 
0 0 0 0 0 0 0 0 0 0 0 0 0 0 0 3 3 4 4 5 5 5 6 6 5 5 4 3 1 0 0 0 
0 0 0 0 0 0 0 1 5 10 15 20 25 29 31 32 
31 28 24 19 13 6 0 0 0 0 0 0 0 0 0 0 
0 0 0 0 0 0 0 0 0 0 0 0 0 0 0 2 3 3 3 4 4 4 4 4 3 3 2 1 0 0 0 0 
0 0 0 0 0 0 0 1 5 9 12 16 20 23 24 25 
24 22 19 15 10 5 0 0 0 0 0 0 0 0 0 0 
0 0 0 0 0 0 0 0 0 0 0 0 0 0 0 2 2 2 3 3 3 3 3 2 2 1 1 0 0 0 0 0 
0 0 0 0 0 0 0 1 4 7 11 13 16 18 20 20 
19 18 15 12 9 5 1 0 0 0 0 0 0 0 0 0 
0 0 0 0 0 0 0 0 0 0 0 0 0 0 0 1 2 2 2 2 2 2 2 1 1 0 0 0 0 0 0 0 
0 0 0 0 0 0 0 1 4 6 9 11 13 15 16 16 
16 14 13 10 7 4 1 0 0 0 0 0 0 0 0 0 
0 0 0 0 0 0 0 0 0 0 0 0 0 0 0 1 1 1 1 1 1 1 1 1 0 0 0 0 0 0 0 0 
0 0 0 0 0 0 0 1 3 5 7 9 11 12 13 13 
13 12 10 8 6 3 1 0 0 0 0 0 0 0 0 0 
0 0 0 0 0 0 0 0 0 0 0 0 0 0 0 1 1 1 1 1 1 1 0 0 0 0 0 0 0 0 0 0 
0 0 0 0 0 0 0 1 3 4 6 7 9 10 11 11 
10 10 8 7 5 3 1 0 0 0 0 0 0 0 0 0 
0 0 0 0 0 0 0 0 0 0 0 0 0 0 0 0 0 0 0 0 0 0 0 0 0 0 0 0 0 0 0 0 
0 0 0 0 0 0 0 0 2 3 5 6 7 8 8 9 
8 8 7 6 4 2 1 0 0 0 0 0 0 0 0 0 
0 0 0 0 0 0 0 0 0 0 0 0 0 0 0 0 0 0 0 0 0 0 0 0 0 0 0 0 0 0 0 0 
0 0 0 0 0 0 0 0 1 2 3 4 5 6 7 7 
6 6 5 4 3 2 1 0 0 0 0 0 0 0 0 0 
0 0 0 0 0 0 0 0 0 0 0 0 0 0 0 0 0 0 0 0 0 0 0 0 0 0 0 0 0 0 0 0 
0 0 0 0 0 0 0 0 1 1 2 3 4 4 5 5 
5 5 4 3 2 1 0 0 0 0 0 0 0 0 0 0 
0 0 0 0 0 0 0 0 0 0 0 0 0 0 0 0 0 0 0 0 0 0 0 0 0 0 0 0 0 0 0 0 
0 0 0 0 0 0 0 0 0 1 1 2 3 3 3 4 
3 3 3 2 2 1 0 0 0 0 0 0 0 0 0 0 
0 0 0 0 0 0 0 0 0 0 0 0 0 0 0 0 0 0 0 0 0 0 0 0 0 0 0 0 0 0 0 0 
0 0 0 0 0 0 0 0 0 0 1 1 1 2 2 2 
2 2 2 1 1 0 0 0 0 0 0 0 0 0 0 0 
0 0 0 0 0 0 0 0 0 0 0 0 0 0 0 0 0 0 0 0 0 0 0 0 0 0 0 0 0 0 0 0 
0 0 0 0 0 0 0 0 0 0 0 0 1 1 1 1 
1 1 1 1 0 0 0 0 0 0 0 0 0 0 0 0 
0 0 0 0 0 0 0 0 0 0 0 0 0 0 0 0 0 0 0 0 0 0 0 0 0 0 0 0 0 0 0 0 
0 0 0 0 0 0 0 0 0 0 0 0 0 0 0 0 
0 0 0 0 0 0 0 0 0 0 0 0 0 0 0 0 
0 0 0 0 0 0 0 0 0 0 0 0 0 0 0 0 0 0 0 0 0 0 0 0 0 0 0 0 0 0 0 0 
0 0 0 0 0 0 0 0 0 0 0 0 0 0 0 0 
0 0 0 0 0 0 0 0 0 0 0 0 0 0 0 0 
0 0 0 0 0 0 0 0 0 0 0 0 0 0 0 