P2
# Created by IrfanView
64 64
255
0 0 0 0 0 0 0 0 0 0 0 0 0 0 0 0 0 
0 0 0 0 0 0 0 0 0 0 0 1 1 2 2 2 
2 2 1 1 0 0 0 0 0 0 0 0 0 0 0 0 
0 0 0 0 0 0 0 0 0 0 0 0 0 0 0 0 0 0 0 0 0 0 0 0 0 0 0 0 0 0 0 0 
0 0 0 0 0 0 0 0 0 0 2 3 3 4 4 4 
4 3 3 2 1 0 0 0 0 0 0 0 0 0 0 0 
0 0 0 0 0 0 0 0 0 0 0 0 0 0 0 0 0 0 0 0 0 0 0 0 0 0 0 0 0 0 0 0 
0 0 0 0 0 0 0 0 1 3 4 5 5 5 6 6 
5 5 5 4 3 2 1 0 0 0 0 0 0 0 0 0 
0 0 0 0 0 0 0 0 0 0 0 0 0 0 0 0 0 0 0 0 0 0 0 0 0 0 0 0 0 0 0 0 
0 0 0 0 0 0 0 2 4 5 6 7 7 8 8 8 
8 7 7 6 5 4 3 1 0 0 0 0 0 0 0 0 
0 0 0 0 0 0 0 0 0 0 0 0 0 0 0 0 0 0 0 0 0 0 0 0 0 0 0 0 0 0 0 0 
0 0 0 0 0 0 3 6 7 9 9 10 10 10 10 10 
10 10 9 8 8 7 6 4 2 0 0 0 0 0 0 0 
0 0 0 0 0 0 0 0 0 0 0 0 0 0 0 0 0 0 0 0 0 0 0 0 0 0 0 0 0 0 0 0 
0 0 0 0 1 5 8 10 12 13 13 13 13 13 13 13 
13 12 12 11 11 10 9 7 6 4 1 0 0 0 0 0 
0 0 0 0 0 0 0 0 0 0 0 0 0 0 0 0 0 0 0 0 0 0 0 0 0 0 0 0 0 0 0 0 
0 0 0 4 9 12 14 16 17 17 17 17 17 17 17 16 
16 15 15 14 14 13 12 11 10 8 6 3 0 0 0 0 
0 0 0 0 0 0 0 0 0 0 0 0 0 0 0 0 0 0 0 0 0 0 0 0 0 0 0 0 0 0 0 0 
0 0 8 14 18 20 22 23 23 23 22 22 21 21 20 20 
19 19 18 18 18 17 17 16 15 14 12 9 6 1 0 0 
0 0 0 0 0 0 0 0 0 0 0 0 0 0 0 0 0 0 0 0 0 0 0 0 0 0 0 0 0 0 0 0 
4 14 21 26 29 31 31 31 30 29 28 27 26 25 25 24 
24 23 22 22 22 22 21 21 21 20 19 17 14 10 5 0 
0 0 0 0 0 0 0 0 0 0 0 0 0 0 0 0 0 0 0 0 0 0 0 0 0 0 0 0 0 0 0 13 
24 32 38 41 43 43 42 40 38 36 34 33 31 30 30 29 
28 28 27 27 26 27 27 28 28 28 28 26 24 21 16 11 
5 0 0 0 0 0 0 0 0 0 0 0 0 0 0 0 0 0 0 0 0 0 0 0 0 0 0 0 0 0 0 38 
47 53 58 60 60 58 55 51 48 44 41 39 37 36 35 35 
34 33 32 32 32 32 33 35 36 37 38 37 36 33 29 25 
19 14 8 0 0 0 0 0 0 0 0 0 0 2 4 14 13 14 14 14 14 13 12 10 8 6 5 5 5 6 8 66 
74 79 82 82 80 76 70 64 58 53 49 46 44 43 42 41 
40 39 38 37 38 39 40 43 46 48 50 51 50 48 44 40 
35 30 26 16 17 18 19 19 20 21 21 21 21 21 20 41 47 54 60 66 70 72 71 67 61 53 46 39 33 29 25 98 
105 110 112 110 105 98 89 79 71 63 58 54 52 50 50 49 
47 46 45 44 44 46 48 52 57 61 65 67 67 65 61 56 
51 46 43 32 35 38 41 43 45 45 45 43 41 38 35 64 75 87 98 108 116 119 118 113 104 92 80 68 57 48 41 133 
140 146 148 145 137 125 111 97 84 74 67 62 60 59 58 57 
56 54 52 51 51 53 58 64 71 78 84 87 88 85 80 74 
68 62 58 56 50 55 60 63 65 66 65 62 58 53 90 81 95 110 125 138 147 152 151 145 134 120 105 90 76 63 159 170 
182 190 193 188 177 159 139 118 100 86 76 70 68 105 110 111 
109 104 60 58 59 62 68 77 88 99 108 113 114 110 103 94 
84 76 71 68 62 68 74 78 80 81 79 76 71 65 104 92 108 124 140 154 164 169 168 162 151 136 120 103 87 73 193 212 
231 245 250 244 228 202 173 143 117 97 85 102 113 122 128 130 
127 121 112 101 67 71 81 94 111 127 140 147 147 141 129 115 
101 89 80 75 74 75 83 87 90 90 88 84 96 102 112 96 113 129 145 158 168 173 172 166 156 142 125 109 93 204 229 255 
255 255 255 255 255 255 215 172 136 109 100 114 127 137 144 146 
143 136 126 112 98 82 96 116 140 164 183 193 192 181 162 140 
119 101 87 79 75 75 78 81 93 93 90 92 96 102 113 85 111 126 141 153 162 167 167 161 152 139 124 108 198 227 255 255 
255 255 255 255 255 255 252 180 155 92 108 124 138 149 157 159 
156 148 136 121 105 89 114 144 159 204 240 255 255 249 224 169 
137 111 91 79 73 71 72 75 78 82 84 87 91 97 89 79 92 118 131 142 150 154 154 149 141 129 116 178 206 248 255 255 
255 255 255 255 255 255 255 212 130 96 113 129 145 157 165 167 
164 155 142 126 109 92 76 143 205 255 255 255 255 255 255 222 
156 119 93 76 67 63 64 66 69 72 76 78 82 87 77 71 82 92 103 112 134 137 137 133 131 137 149 171 208 255 255 255 
255 255 255 255 255 255 255 246 145 96 113 130 146 158 166 168 
165 156 142 126 108 91 109 184 255 255 255 255 255 255 255 252 
195 126 92 70 58 53 53 55 58 61 64 67 70 74 78 62 71 79 87 93 99 102 105 107 110 117 133 160 205 255 255 255 
255 255 255 255 255 255 255 255 159 66 110 126 141 153 160 163 
159 150 136 121 104 87 140 232 255 255 255 255 255 255 255 255 
209 151 88 61 47 41 41 43 46 49 52 55 57 59 61 53 60 66 72 76 80 82 84 86 89 98 114 145 211 255 255 255 
255 255 255 255 255 255 255 255 170 67 102 117 130 141 148 150 
146 137 125 110 95 80 175 255 255 255 255 255 255 255 255 255 
220 152 83 52 36 29 28 30 34 37 40 43 44 45 45 44 49 54 58 61 63 65 65 67 70 78 95 126 196 255 255 255 
255 255 255 255 255 255 255 255 176 65 91 103 115 124 130 131 
128 120 109 97 83 71 208 255 255 255 255 255 255 255 255 255 
227 150 76 42 25 18 17 19 23 26 29 31 33 32 31 36 40 44 46 48 49 49 49 50 53 60 76 105 176 249 255 255 
255 255 255 255 255 255 255 255 175 63 78 88 97 104 108 109 
106 100 91 81 70 126 236 255 255 255 255 255 255 255 255 255 
227 146 91 33 16 8 7 9 13 16 19 21 22 21 19 29 32 35 36 37 37 37 36 36 38 44 58 84 153 220 255 255 
255 255 255 255 255 255 255 255 167 58 64 72 78 83 86 87 
84 79 72 64 56 139 252 255 255 255 255 255 255 255 255 255 
220 138 61 26 8 1 0 2 5 8 11 13 13 12 9 23 25 27 28 28 28 27 26 25 26 31 42 65 129 187 255 255 
255 255 255 255 255 255 255 255 151 52 51 56 61 64 65 65 
63 59 55 49 44 144 254 255 255 255 255 255 255 255 255 255 
207 129 54 21 3 0 0 0 0 2 5 6 7 5 2 18 20 21 22 22 21 20 18 17 18 21 30 49 82 155 223 255 
255 255 255 255 255 255 255 239 131 44 0 43 45 47 48 47 
46 43 40 36 33 140 240 255 255 255 255 255 255 255 255 255 
189 118 49 18 1 0 0 0 0 0 0 1 1 0 0 14 15 16 17 16 16 14 13 12 12 15 22 37 63 126 180 250 
255 255 255 255 255 255 255 196 108 35 0 32 33 34 34 33 
32 31 29 27 61 126 214 255 255 255 255 255 255 255 255 246 
166 89 44 16 1 0 0 0 0 0 0 0 0 0 0 11 12 13 13 13 12 11 10 9 9 11 17 29 50 82 143 195 
253 255 255 255 255 255 227 154 84 24 0 0 0 25 24 24 
23 22 21 0 45 105 180 255 255 255 255 255 255 255 255 206 
142 77 40 16 2 0 0 0 0 0 0 0 0 0 0 8 9 10 11 10 10 9 9 8 8 11 16 25 41 65 98 149 
191 230 255 255 252 218 170 114 57 11 0 0 0 0 0 0 
0 0 0 0 28 78 137 205 255 255 255 255 255 255 223 160 
108 67 37 17 4 0 0 0 0 0 0 0 0 0 0 7 8 9 9 9 9 9 9 9 10 12 16 24 36 54 78 106 
137 168 186 191 181 156 121 76 35 0 0 0 0 0 0 0 
0 0 0 0 10 51 98 148 195 235 255 255 242 210 169 127 
89 58 34 18 7 1 0 0 0 0 0 0 0 0 0 6 7 8 9 9 9 10 10 11 12 15 19 25 35 48 64 84 
104 121 132 135 126 107 80 48 16 0 0 0 0 0 0 0 
0 0 0 0 0 25 63 102 138 166 183 187 177 157 130 101 
74 51 33 19 10 4 1 0 0 0 0 0 0 0 0 5 7 8 9 9 10 11 12 14 16 18 22 28 36 45 57 69 
81 91 97 96 88 73 52 27 1 0 0 0 0 0 0 0 
0 0 0 0 0 0 32 64 92 114 128 133 128 116 99 80 
61 45 31 21 13 8 5 2 1 0 0 0 0 0 0 5 7 8 9 10 12 13 15 17 20 23 27 32 38 45 53 61 
68 72 73 70 62 48 31 10 0 0 0 0 0 0 0 0 
0 0 0 0 0 0 5 32 56 74 87 92 92 85 75 64 
52 40 30 22 16 11 8 5 3 2 1 0 0 0 0 5 7 8 10 12 14 16 18 21 24 28 32 37 42 48 53 57 
60 60 58 53 44 31 15 0 0 0 0 0 0 0 0 0 
0 0 0 0 0 0 0 5 27 43 55 62 64 62 57 51 
44 37 30 24 19 15 11 8 6 4 3 1 0 0 0 6 7 9 11 13 15 18 21 25 29 33 38 43 36 37 36 34 
31 26 21 41 31 19 3 0 0 0 0 0 0 0 0 0 
0 0 0 0 0 0 0 0 3 19 30 38 1 4 7 11 
14 16 17 25 21 17 14 11 9 6 4 3 1 0 0 6 8 10 12 14 17 20 24 28 33 38 44 40 42 43 42 40 
35 30 24 18 12 10 0 0 0 0 0 0 0 0 0 0 
0 0 0 0 0 0 0 0 0 0 0 0 0 1 5 10 
14 16 18 19 23 20 16 14 11 8 6 4 2 0 0 7 9 11 13 16 19 22 27 32 37 43 41 45 48 49 47 44 
38 32 25 18 12 7 0 0 0 0 0 0 0 0 0 0 
0 0 0 0 0 0 0 0 0 0 0 0 0 0 2 7 
12 16 18 20 19 21 18 15 12 10 8 5 3 2 0 7 9 11 14 17 20 24 29 34 40 39 45 50 52 53 51 46 
40 32 24 17 10 5 0 0 0 0 0 0 0 0 0 0 
0 0 0 0 0 0 0 0 0 0 0 0 0 0 0 3 
9 13 17 19 20 18 19 16 13 11 9 6 4 3 1 7 9 12 14 17 21 25 30 36 42 41 47 52 54 54 51 46 
39 30 22 14 7 2 0 0 0 0 0 0 0 0 0 0 
0 0 0 0 0 0 0 0 0 0 0 0 0 0 0 0 
3 9 14 17 18 18 19 16 14 11 9 7 5 3 2 8 9 12 14 17 21 25 31 36 35 42 48 52 54 53 49 43 
35 26 18 9 3 0 0 0 0 0 0 0 18 59 99 115 
94 51 8 0 0 0 0 0 0 0 0 0 0 0 0 0 
0 4 10 14 16 16 15 16 14 11 9 7 5 4 2 8 9 12 14 17 21 25 30 36 34 41 46 49 50 49 45 38 
30 21 12 4 0 0 0 0 0 0 0 23 67 127 187 214 
190 132 70 23 0 0 0 0 0 0 0 0 0 0 0 0 
0 0 4 9 12 14 13 14 13 11 9 7 6 4 3 7 9 11 14 17 20 24 28 33 32 37 42 44 45 43 38 31 
22 13 5 0 0 0 0 0 0 0 15 45 93 154 212 240 
220 166 103 52 16 0 0 0 0 0 0 0 0 0 0 0 
0 0 0 4 8 10 11 12 11 10 8 7 5 4 3 7 9 11 13 16 19 22 26 30 28 33 36 38 37 35 29 22 
14 6 0 0 0 0 0 0 0 9 26 54 95 145 190 212 
198 158 107 62 29 7 0 0 0 0 0 0 0 0 0 0 
0 0 0 0 3 6 8 9 9 8 7 6 5 4 3 7 8 10 12 14 17 20 23 27 24 28 30 31 29 26 20 14 
6 0 0 0 0 0 0 3 6 14 29 53 84 120 150 165 
157 130 94 60 32 12 0 0 0 0 0 0 0 0 0 0 
0 0 0 0 0 3 5 7 7 7 6 5 4 3 3 6 8 9 11 13 15 17 20 23 25 22 23 23 21 17 12 6 
0 0 0 0 0 0 0 6 10 17 29 46 68 91 111 120 
115 98 74 50 29 12 1 0 0 0 0 0 0 0 0 0 
0 0 0 0 0 0 2 4 5 5 5 4 4 3 2 6 7 8 9 11 13 15 17 18 20 16 17 16 14 10 5 0 
0 0 0 0 0 0 0 0 11 16 25 37 52 67 78 83 
80 70 54 38 22 10 1 0 0 0 0 0 0 0 0 0 
0 0 0 0 0 0 0 2 3 3 3 3 3 2 2 5 6 7 8 9 11 12 13 15 15 16 11 10 8 4 0 0 
0 0 0 0 0 0 0 0 1 14 20 28 37 46 53 56 
54 47 37 25 14 5 0 0 0 0 0 0 0 0 0 0 
0 0 0 0 0 0 0 0 1 2 2 2 2 2 2 4 5 6 7 8 9 10 11 11 11 11 10 5 3 0 0 0 
0 0 0 0 0 0 0 0 1 8 17 20 26 31 34 36 
34 29 22 14 14 3 0 0 0 0 0 0 0 0 0 0 
0 0 0 0 0 0 0 0 0 1 1 1 1 1 1 4 4 5 6 6 7 8 8 8 8 7 6 4 2 0 0 0 
0 0 0 0 0 0 0 0 1 7 13 20 26 18 20 20 
18 15 26 19 11 2 0 0 0 0 0 0 0 0 0 0 
0 0 0 0 0 0 0 0 0 0 0 1 1 1 1 3 4 4 5 5 5 6 6 6 5 5 3 2 0 0 0 0 
0 0 0 0 0 0 0 0 1 6 11 16 20 24 27 28 
27 24 20 14 8 2 0 0 0 0 0 0 0 0 0 0 
0 0 0 0 0 0 0 0 0 0 0 0 0 0 0 3 3 3 4 4 4 4 4 4 3 2 1 0 0 0 0 0 
0 0 0 0 0 0 0 0 1 5 9 13 16 19 20 21 
20 18 15 11 6 1 0 0 0 0 0 0 0 0 0 0 
0 0 0 0 0 0 0 0 0 0 0 0 0 0 0 2 2 2 3 3 3 3 3 2 2 1 0 0 0 0 0 0 
0 0 0 0 0 0 0 0 1 4 7 10 13 15 16 16 
16 14 12 9 5 1 0 0 0 0 0 0 0 0 0 0 
0 0 0 0 0 0 0 0 0 0 0 0 0 0 0 1 2 2 2 2 2 2 2 1 1 0 0 0 0 0 0 0 
0 0 0 0 0 0 0 0 1 3 6 8 10 12 13 13 
13 11 9 7 4 1 0 0 0 0 0 0 0 0 0 0 
0 0 0 0 0 0 0 0 0 0 0 0 0 0 0 1 1 1 1 1 1 1 1 0 0 0 0 0 0 0 0 0 
0 0 0 0 0 0 0 0 1 3 5 7 8 9 10 10 
10 9 8 6 3 1 0 0 0 0 0 0 0 0 0 0 
0 0 0 0 0 0 0 0 0 0 0 0 0 0 0 1 1 1 1 1 1 0 0 0 0 0 0 0 0 0 0 0 
0 0 0 0 0 0 0 0 0 2 4 5 7 8 8 8 
8 7 6 5 3 1 0 0 0 0 0 0 0 0 0 0 
0 0 0 0 0 0 0 0 0 0 0 0 0 0 0 0 0 0 0 0 0 0 0 0 0 0 0 0 0 0 0 0 
0 0 0 0 0 0 0 0 0 2 3 4 5 6 6 7 
6 6 5 4 2 1 0 0 0 0 0 0 0 0 0 0 
0 0 0 0 0 0 0 0 0 0 0 0 0 0 0 0 0 0 0 0 0 0 0 0 0 0 0 0 0 0 0 0 
0 0 0 0 0 0 0 0 0 1 2 3 4 5 5 5 
5 4 4 3 2 0 0 0 0 0 0 0 0 0 0 0 
0 0 0 0 0 0 0 0 0 0 0 0 0 0 0 0 0 0 0 0 0 0 0 0 0 0 0 0 0 0 0 0 
0 0 0 0 0 0 0 0 0 0 1 2 3 3 4 4 
4 3 3 2 1 0 0 0 0 0 0 0 0 0 0 0 
0 0 0 0 0 0 0 0 0 0 0 0 0 0 0 0 0 0 0 0 0 0 0 0 0 0 0 0 0 0 0 0 
0 0 0 0 0 0 0 0 0 0 1 1 2 2 2 3 
3 2 2 1 1 0 0 0 0 0 0 0 0 0 0 0 
0 0 0 0 0 0 0 0 0 0 0 0 0 0 0 0 0 0 0 0 0 0 0 0 0 0 0 0 0 0 0 0 
0 0 0 0 0 0 0 0 0 0 0 0 1 1 1 2 
2 1 1 1 0 0 0 0 0 0 0 0 0 0 0 0 
0 0 0 0 0 0 0 0 0 0 0 0 0 0 0 0 0 0 0 0 0 0 0 0 0 0 0 0 0 0 0 0 
0 0 0 0 0 0 0 0 0 0 0 0 0 0 1 1 
1 1 0 0 0 0 0 0 0 0 0 0 0 0 0 0 
0 0 0 0 0 0 0 0 0 0 0 0 0 0 0 0 0 0 0 0 0 0 0 0 0 0 0 0 0 0 0 0 
0 0 0 0 0 0 0 0 0 0 0 0 0 0 0 0 
0 0 0 0 0 0 0 0 0 0 0 0 0 0 0 0 
0 0 0 0 0 0 0 0 0 0 0 0 0 0 0 0 0 0 0 0 0 0 0 0 0 0 0 0 0 0 0 0 
0 0 0 0 0 0 0 0 0 0 0 0 0 0 0 0 
0 0 0 0 0 0 0 0 0 0 0 0 0 0 0 0 
0 0 0 0 0 0 0 0 0 0 0 0 0 0 0 