P2
# Created by IrfanView
64 64
255
0 0 0 0 0 0 0 0 0 0 0 0 0 0 0 0 0 
0 0 0 0 0 0 0 0 0 0 0 0 1 1 2 2 
1 1 1 0 0 0 0 0 0 0 0 0 0 0 0 0 
0 0 0 0 0 0 0 0 0 0 0 0 0 0 0 0 0 0 0 0 0 0 0 0 0 0 0 0 0 0 0 0 
0 0 0 0 0 0 0 0 0 0 1 2 2 3 3 3 
3 3 2 1 1 0 0 0 0 0 0 0 0 0 0 0 
0 0 0 0 0 0 0 0 0 0 0 0 0 0 0 0 0 0 0 0 0 0 0 0 0 0 0 0 0 0 0 0 
0 0 0 0 0 0 0 0 0 1 3 3 4 4 5 5 
4 4 4 3 2 1 0 0 0 0 0 0 0 0 0 0 
0 0 0 0 0 0 0 0 0 0 0 0 0 0 0 0 0 0 0 0 0 0 0 0 0 0 0 0 0 0 0 0 
0 0 0 0 0 0 0 0 2 4 5 6 6 6 6 6 
6 6 5 5 4 3 2 0 0 0 0 0 0 0 0 0 
0 0 0 0 0 0 0 0 0 0 0 0 0 0 0 0 0 0 0 0 0 0 0 0 0 0 0 0 0 0 0 0 
0 0 0 0 0 0 1 4 6 7 8 8 9 9 9 8 
8 8 7 7 6 5 4 3 1 0 0 0 0 0 0 0 
0 0 0 0 0 0 0 0 0 0 0 0 0 0 0 0 0 0 0 0 0 0 0 0 0 0 0 0 0 0 0 0 
0 0 0 0 0 3 6 8 10 11 11 11 11 11 11 11 
10 10 10 9 9 8 7 6 4 2 0 0 0 0 0 0 
0 0 0 0 0 0 0 0 0 0 0 0 0 0 0 0 0 0 0 0 0 0 0 0 0 0 0 0 0 0 0 0 
0 0 0 1 6 10 12 14 14 15 15 14 14 14 14 13 
13 13 12 12 11 11 10 9 8 6 4 0 0 0 0 0 
0 0 0 0 0 0 0 0 0 0 0 0 0 0 0 0 0 0 0 0 0 0 0 0 0 0 0 0 0 0 0 0 
0 0 4 11 15 18 20 20 20 20 19 18 17 17 16 16 
15 15 15 15 14 14 14 14 13 12 10 7 3 0 0 0 
0 0 0 0 0 0 0 0 0 0 0 0 0 0 0 0 0 0 0 0 0 0 0 0 0 0 0 0 0 0 0 0 
0 10 18 24 27 28 28 28 26 25 23 22 21 20 19 19 
18 18 18 17 18 18 18 19 19 18 17 15 12 8 2 0 
0 0 0 0 0 0 0 0 0 0 0 0 0 0 0 0 0 0 0 0 0 0 0 0 0 0 0 0 0 0 0 0 
20 30 36 40 41 41 39 37 34 31 28 26 25 23 22 22 
21 21 20 20 21 22 23 24 25 26 26 25 23 19 14 8 
1 0 0 0 0 0 0 0 0 0 0 0 0 0 0 0 0 0 0 0 0 0 0 0 0 0 0 0 0 0 0 0 
46 53 57 59 58 56 52 47 42 37 34 31 28 27 25 25 
24 23 23 24 24 26 28 30 33 35 36 37 35 33 29 23 
17 11 0 0 0 0 0 0 0 0 0 0 0 0 0 15 16 17 19 21 22 22 20 17 13 10 7 5 5 6 7 9 
75 81 83 83 80 74 67 59 51 44 39 35 32 30 29 28 
27 26 26 26 28 30 33 37 42 46 49 50 50 48 45 40 
35 30 16 16 17 18 20 21 22 23 23 23 23 22 21 48 57 66 76 85 91 93 92 87 78 68 57 47 39 33 28 25 
109 114 115 113 106 96 85 72 61 51 44 39 35 33 32 31 
30 29 29 29 31 34 39 45 52 59 64 67 68 67 63 59 
54 49 33 37 41 45 50 53 55 56 55 53 49 45 41 76 90 106 122 136 147 151 150 143 131 115 98 82 68 56 46 141 
149 154 155 150 140 125 107 89 72 59 48 42 38 36 34 33 
32 31 31 31 33 38 45 54 65 75 83 89 91 89 84 78 
72 67 47 54 61 68 74 79 82 83 81 77 72 65 58 96 114 134 153 171 184 190 189 181 166 147 127 107 89 73 60 183 
195 204 206 200 184 161 134 108 84 65 52 44 39 37 36 35 
34 33 32 32 35 42 52 65 81 96 109 117 119 116 109 99 
89 82 77 67 76 85 93 98 102 102 100 95 88 79 71 108 128 149 170 188 202 208 208 199 184 165 144 122 102 84 208 230 
252 255 255 255 243 209 169 130 96 71 53 43 39 37 106 108 
106 101 32 32 36 45 59 79 102 125 144 155 158 151 138 122 
106 94 86 84 85 95 103 110 113 114 111 105 97 88 135 112 132 153 173 191 204 210 210 202 188 170 149 128 108 90 248 255 
255 255 255 255 255 255 209 143 110 74 52 40 106 115 120 122 
120 114 105 95 36 48 69 98 120 162 197 219 225 217 198 148 
123 104 91 85 84 99 107 113 117 117 114 109 101 124 109 110 129 149 167 183 194 200 199 193 180 164 145 126 107 241 255 255 
255 255 255 255 255 255 255 168 92 75 46 104 116 125 131 133 
130 124 114 103 90 52 43 97 155 211 255 255 255 255 235 197 
140 110 90 80 77 79 84 111 114 115 112 107 111 117 101 93 121 138 154 167 177 182 182 176 166 152 135 118 211 255 255 255 
255 255 255 255 255 255 255 196 99 25 96 109 122 131 137 139 
137 130 120 107 93 2 57 127 203 255 255 255 255 255 255 223 
172 130 85 70 65 65 70 76 82 87 91 95 99 104 88 82 94 107 137 148 156 161 160 156 147 135 148 168 205 255 255 255 
255 255 255 255 255 255 255 226 105 16 0 111 123 133 139 141 
138 131 121 108 94 9 79 168 255 255 255 255 255 255 255 251 
181 128 77 56 49 49 53 59 66 72 76 80 84 88 94 70 80 89 98 105 110 113 112 111 110 112 123 148 197 255 255 255 
255 255 255 255 255 255 255 255 111 7 0 108 120 130 136 137 
134 128 117 105 91 22 109 222 255 255 255 255 255 255 255 255 
188 122 79 40 31 31 35 42 49 55 60 64 67 70 74 59 66 73 79 83 86 86 85 83 82 85 96 123 180 255 255 255 
255 255 255 255 255 255 255 255 116 0 0 101 112 121 127 128 
125 119 109 97 0 41 147 255 255 255 255 255 255 255 255 255 
192 114 65 22 13 13 18 25 33 39 45 49 52 53 54 48 54 58 62 65 65 64 62 59 57 59 69 107 156 236 255 255 
255 255 255 255 255 255 255 255 119 0 0 92 101 109 113 115 
112 106 97 87 0 66 189 255 255 255 255 255 255 255 255 255 
193 104 51 6 0 0 2 10 18 25 31 35 37 38 37 38 42 46 48 49 48 46 43 39 35 36 44 84 127 203 255 255 
255 255 255 255 255 255 255 255 118 0 0 80 88 94 97 98 
96 91 84 75 0 92 227 255 255 255 255 255 255 255 255 255 
189 94 39 0 0 0 0 0 6 13 19 23 25 25 23 30 33 35 36 36 34 31 27 22 18 17 22 62 99 166 255 255 
255 255 255 255 255 255 255 255 113 0 0 0 73 78 80 81 
79 75 69 62 15 114 254 255 255 255 255 255 255 255 255 255 
181 86 30 0 0 0 0 0 0 3 9 13 14 14 12 23 25 26 27 26 24 20 15 10 5 3 6 44 73 130 223 255 
255 255 255 255 255 255 255 255 104 0 0 0 59 62 64 64 
63 59 55 50 29 127 255 255 255 255 255 255 255 255 255 255 
169 78 25 0 0 0 0 0 0 0 1 5 6 6 3 17 19 20 19 18 16 12 7 2 0 0 0 6 54 99 174 255 
255 255 255 255 255 255 255 225 91 0 0 0 47 49 50 50 
48 46 43 39 38 130 254 255 255 255 255 255 255 255 255 255 
154 72 24 0 0 0 0 0 0 0 0 0 0 0 0 12 14 14 14 13 10 7 2 0 0 0 0 0 40 75 134 217 
255 255 255 255 255 255 255 183 76 0 0 0 0 38 38 38 
37 35 0 0 40 122 230 255 255 255 255 255 255 255 255 236 
137 67 25 0 0 0 0 0 0 0 0 0 0 0 0 9 10 11 10 9 7 4 0 0 0 0 0 0 13 59 102 163 
237 255 255 255 255 255 232 141 59 0 0 0 0 0 0 0 
0 0 0 0 34 106 195 255 255 255 255 255 255 255 255 198 
119 62 9 0 0 0 0 0 0 0 0 0 0 0 0 7 8 8 8 7 5 3 0 0 0 0 0 0 11 34 79 122 
174 225 255 255 255 228 170 105 43 0 0 0 0 0 0 0 
0 0 0 0 21 79 155 233 255 255 255 255 255 255 232 161 
100 45 13 0 0 0 0 0 0 0 0 0 0 0 0 5 6 7 7 6 5 4 2 0 0 0 0 4 14 31 56 92 
127 161 187 197 188 161 120 73 23 0 0 0 0 0 0 0 
0 0 0 0 6 53 108 173 229 255 255 255 255 230 178 127 
78 42 17 1 0 0 0 0 0 0 0 0 0 0 0 4 5 6 6 6 6 5 5 4 3 4 6 10 19 31 49 71 
95 113 130 135 128 109 79 44 8 0 0 0 0 0 0 0 
0 0 0 0 0 27 70 115 158 191 210 211 195 170 134 98 
66 40 20 8 0 0 0 0 0 0 0 0 0 0 0 4 5 6 7 7 8 8 8 9 9 11 14 18 25 35 47 61 
76 89 97 98 90 74 50 23 0 0 0 0 0 0 0 0 
0 0 0 0 0 2 38 72 104 129 144 148 140 124 102 78 
56 38 24 13 6 2 0 0 0 0 0 0 0 0 0 4 5 7 8 9 10 11 12 14 16 19 22 27 33 40 48 57 
65 71 74 71 63 48 30 7 0 0 0 0 0 0 0 0 
0 0 0 0 0 0 9 38 63 83 96 101 99 90 78 64 
50 37 27 19 13 8 5 3 2 0 0 0 0 0 0 5 6 7 9 11 13 14 17 20 23 27 31 36 36 38 37 35 
32 27 22 54 44 31 14 0 0 0 0 0 0 0 0 0 
0 0 0 0 0 0 0 10 32 49 61 67 5 8 12 15 
18 20 20 23 18 14 11 8 6 4 2 1 0 0 0 5 7 9 10 13 15 18 21 25 30 35 40 42 45 46 45 43 
38 32 26 20 14 19 3 0 0 0 0 0 0 0 0 0 
0 0 0 0 0 0 0 0 7 22 0 0 3 7 12 16 
20 22 24 23 23 19 15 12 9 7 5 3 1 0 0 6 8 10 12 14 18 21 25 30 36 43 45 50 53 54 53 49 
43 36 29 21 14 9 0 0 0 0 0 0 0 0 0 0 
0 0 0 0 0 0 0 0 0 0 0 0 0 4 10 15 
20 24 26 26 25 23 19 16 12 10 7 5 3 1 0 6 8 11 13 16 20 24 29 35 42 45 52 57 60 61 59 54 
47 39 30 21 13 7 3 0 0 0 0 0 0 0 0 0 
0 0 0 0 0 0 0 0 0 0 0 0 0 0 6 13 
19 24 27 28 27 25 22 18 15 12 9 6 4 2 0 7 9 11 14 18 22 26 32 39 41 49 57 62 66 66 63 57 
49 39 29 19 11 4 0 0 0 0 0 0 0 0 0 0 
0 0 0 0 0 0 0 0 0 0 0 0 0 0 0 7 
15 21 26 28 28 26 23 20 17 13 10 8 5 3 1 7 10 12 15 18 23 28 34 41 44 52 59 65 68 68 64 57 
47 36 25 15 6 0 0 0 0 0 0 0 0 0 0 0 
0 0 0 0 0 0 0 0 0 0 0 0 0 0 0 0 
9 16 22 26 27 26 23 21 17 14 11 9 6 4 2 8 10 12 15 19 23 28 35 36 44 53 60 65 67 66 61 53 
43 31 19 9 1 0 0 0 0 0 0 0 2 24 44 50 
40 17 0 0 0 0 0 0 0 0 0 0 0 0 0 0 
0 9 17 21 24 24 22 19 17 14 11 9 7 5 3 8 10 12 15 19 23 28 34 35 43 51 57 61 63 61 55 46 
35 23 11 1 0 0 0 0 0 0 0 11 39 72 101 113 
101 71 36 7 0 0 0 0 0 0 0 0 0 0 0 0 
0 1 9 15 19 20 19 17 16 14 11 9 7 5 3 8 10 12 15 18 22 27 33 33 40 47 52 55 55 52 46 36 
25 13 2 0 0 0 0 0 0 0 8 30 61 97 127 141 
130 100 63 29 5 0 0 0 0 0 0 0 0 0 0 0 
0 0 1 9 13 16 16 15 15 12 10 8 7 5 4 7 9 11 14 17 21 25 30 29 35 41 45 47 46 42 35 25 
14 3 0 0 0 0 0 0 0 3 17 38 67 98 125 136 
128 103 70 40 15 0 0 0 0 0 0 0 0 0 0 0 
0 0 0 1 7 11 12 12 12 11 9 8 6 5 4 7 9 11 13 15 19 22 26 25 30 34 37 37 35 30 23 13 
3 0 0 0 0 0 0 0 0 7 20 38 61 85 105 114 
108 89 64 39 18 2 0 0 0 0 0 0 0 0 0 0 
0 0 0 0 1 6 8 9 9 9 8 7 5 4 3 6 8 10 12 14 16 19 22 26 24 27 28 27 25 19 12 3 
0 0 0 0 0 0 0 0 2 8 19 33 50 67 80 86 
82 69 51 32 15 2 0 0 0 0 0 0 0 0 0 0 
0 0 0 0 0 1 4 6 7 7 6 5 5 4 3 6 7 9 10 12 14 16 18 21 18 20 20 19 15 10 3 0 
0 0 0 0 0 0 0 0 0 7 15 25 36 48 57 60 
57 48 36 22 9 0 0 0 0 0 0 0 0 0 0 0 
0 0 0 0 0 0 1 3 4 5 5 4 4 3 3 5 6 7 9 10 12 13 15 16 17 14 13 11 8 3 0 0 
0 0 0 0 0 0 0 0 0 3 10 16 24 31 36 38 
36 30 21 12 2 0 0 0 0 0 0 0 0 0 0 0 
0 0 0 0 0 0 0 1 2 3 3 3 3 2 2 5 5 6 7 8 9 10 11 12 12 12 8 5 2 0 0 0 
0 0 0 0 0 0 0 0 0 3 11 19 13 17 20 20 
19 14 8 17 7 0 0 0 0 0 0 0 0 0 0 0 
0 0 0 0 0 0 0 0 0 1 2 2 2 2 2 4 4 5 6 7 7 8 8 8 8 7 6 1 0 0 0 0 
0 0 0 0 0 0 0 0 0 2 8 15 21 25 29 30 
29 25 19 13 5 0 0 0 0 0 0 0 0 0 0 0 
0 0 0 0 0 0 0 0 0 0 1 1 1 1 1 3 4 4 5 5 6 6 6 6 5 4 2 0 0 0 0 0 
0 0 0 0 0 0 0 0 0 1 6 11 16 19 21 22 
21 18 14 9 3 0 0 0 0 0 0 0 0 0 0 0 
0 0 0 0 0 0 0 0 0 0 0 0 1 1 1 3 3 3 4 4 4 4 4 4 3 2 0 0 0 0 0 0 
0 0 0 0 0 0 0 0 0 1 5 9 12 15 16 17 
16 14 11 7 2 0 0 0 0 0 0 0 0 0 0 0 
0 0 0 0 0 0 0 0 0 0 0 0 0 0 0 2 2 3 3 3 3 3 2 2 1 0 0 0 0 0 0 0 
0 0 0 0 0 0 0 0 0 1 4 7 9 11 13 13 
12 11 8 5 1 0 0 0 0 0 0 0 0 0 0 0 
0 0 0 0 0 0 0 0 0 0 0 0 0 0 0 1 2 2 2 2 2 2 1 1 0 0 0 0 0 0 0 0 
0 0 0 0 0 0 0 0 0 0 3 5 7 9 10 10 
9 8 6 4 1 0 0 0 0 0 0 0 0 0 0 0 
0 0 0 0 0 0 0 0 0 0 0 0 0 0 0 1 1 1 1 1 1 1 0 0 0 0 0 0 0 0 0 0 
0 0 0 0 0 0 0 0 0 0 2 4 6 7 8 8 
7 6 5 3 1 0 0 0 0 0 0 0 0 0 0 0 
0 0 0 0 0 0 0 0 0 0 0 0 0 0 0 1 1 1 1 1 0 0 0 0 0 0 0 0 0 0 0 0 
0 0 0 0 0 0 0 0 0 0 2 3 4 5 6 6 
6 5 4 2 1 0 0 0 0 0 0 0 0 0 0 0 
0 0 0 0 0 0 0 0 0 0 0 0 0 0 0 0 0 0 0 0 0 0 0 0 0 0 0 0 0 0 0 0 
0 0 0 0 0 0 0 0 0 0 1 2 3 4 5 5 
4 4 3 2 0 0 0 0 0 0 0 0 0 0 0 0 
0 0 0 0 0 0 0 0 0 0 0 0 0 0 0 0 0 0 0 0 0 0 0 0 0 0 0 0 0 0 0 0 
0 0 0 0 0 0 0 0 0 0 1 2 2 3 3 3 
3 3 2 1 0 0 0 0 0 0 0 0 0 0 0 0 
0 0 0 0 0 0 0 0 0 0 0 0 0 0 0 0 0 0 0 0 0 0 0 0 0 0 0 0 0 0 0 0 
0 0 0 0 0 0 0 0 0 0 0 1 2 2 2 3 
2 2 1 1 0 0 0 0 0 0 0 0 0 0 0 0 
0 0 0 0 0 0 0 0 0 0 0 0 0 0 0 0 0 0 0 0 0 0 0 0 0 0 0 0 0 0 0 0 
0 0 0 0 0 0 0 0 0 0 0 0 1 1 2 2 
2 1 1 0 0 0 0 0 0 0 0 0 0 0 0 0 
0 0 0 0 0 0 0 0 0 0 0 0 0 0 0 0 0 0 0 0 0 0 0 0 0 0 0 0 0 0 0 0 
0 0 0 0 0 0 0 0 0 0 0 0 0 1 1 1 
1 1 0 0 0 0 0 0 0 0 0 0 0 0 0 0 
0 0 0 0 0 0 0 0 0 0 0 0 0 0 0 0 0 0 0 0 0 0 0 0 0 0 0 0 0 0 0 0 
0 0 0 0 0 0 0 0 0 0 0 0 0 0 0 0 
0 0 0 0 0 0 0 0 0 0 0 0 0 0 0 0 
0 0 0 0 0 0 0 0 0 0 0 0 0 0 0 0 0 0 0 0 0 0 0 0 0 0 0 0 0 0 0 0 
0 0 0 0 0 0 0 0 0 0 0 0 0 0 0 0 
0 0 0 0 0 0 0 0 0 0 0 0 0 0 0 0 
0 0 0 0 0 0 0 0 0 0 0 0 0 0 0 0 0 0 0 0 0 0 0 0 0 0 0 0 0 0 0 0 
0 0 0 0 0 0 0 0 0 0 0 0 0 0 0 0 
0 0 0 0 0 0 0 0 0 0 0 0 0 0 0 0 
0 0 0 0 0 0 0 0 0 0 0 0 0 0 0 