P2
# Created by IrfanView
64 64
255
0 0 0 0 0 0 0 0 0 0 0 0 0 0 0 0 0 
0 0 0 0 0 0 0 0 0 0 0 0 0 1 1 1 
1 1 0 0 0 0 0 0 0 0 0 0 0 0 0 0 
0 0 0 0 0 0 0 0 0 0 0 0 0 0 0 0 0 0 0 0 0 0 0 0 0 0 0 0 0 0 0 0 
0 0 0 0 0 0 0 0 0 0 0 1 1 2 2 2 
2 2 1 1 0 0 0 0 0 0 0 0 0 0 0 0 
0 0 0 0 0 0 0 0 0 0 0 0 0 0 0 0 0 0 0 0 0 0 0 0 0 0 0 0 0 0 0 0 
0 0 0 0 0 0 0 0 0 0 1 2 3 3 3 3 
3 3 3 2 1 0 0 0 0 0 0 0 0 0 0 0 
0 0 0 0 0 0 0 0 0 0 0 0 0 0 0 0 0 0 0 0 0 0 0 0 0 0 0 0 0 0 0 0 
0 0 0 0 0 0 0 0 1 2 4 4 5 5 5 5 
5 5 4 3 3 2 0 0 0 0 0 0 0 0 0 0 
0 0 0 0 0 0 0 0 0 0 0 0 0 0 0 0 0 0 0 0 0 0 0 0 0 0 0 0 0 0 0 0 
0 0 0 0 0 0 0 2 4 5 6 6 7 7 7 7 
6 6 6 5 5 4 3 1 0 0 0 0 0 0 0 0 
0 0 0 0 0 0 0 0 0 0 0 0 0 0 0 0 0 0 0 0 0 0 0 0 0 0 0 0 0 0 0 0 
0 0 0 0 0 1 4 6 8 8 9 9 9 9 9 8 
8 8 8 7 7 6 5 4 2 0 0 0 0 0 0 0 
0 0 0 0 0 0 0 0 0 0 0 0 0 0 0 0 0 0 0 0 0 0 0 0 0 0 0 0 0 0 0 0 
0 0 0 0 4 7 10 11 12 12 12 12 11 11 10 10 
10 10 9 9 9 9 8 7 6 4 2 0 0 0 0 0 
0 0 0 0 0 0 0 0 0 0 0 0 0 0 0 0 0 0 0 0 0 0 0 0 0 0 0 0 0 0 0 0 
0 0 1 8 13 16 17 17 17 16 15 14 13 13 12 12 
11 11 11 11 11 11 11 11 11 10 8 5 0 0 0 0 
0 0 0 0 0 0 0 0 0 0 0 0 0 0 0 0 0 0 0 0 0 0 0 0 0 0 0 0 0 0 0 0 
0 7 15 21 24 26 25 24 22 21 19 17 16 14 14 13 
13 13 13 13 13 14 15 16 16 16 15 13 10 5 0 0 
0 0 0 0 0 0 0 0 0 0 0 0 0 0 0 0 0 0 0 0 0 0 0 0 0 0 0 0 0 0 0 0 
16 27 33 37 38 38 35 32 29 25 22 20 18 16 15 14 
14 13 14 14 15 17 18 20 22 24 24 23 21 17 11 4 
0 0 0 0 0 0 0 0 0 0 0 0 0 0 0 0 0 0 0 0 0 0 0 0 0 0 0 0 0 0 0 0 
44 51 56 57 56 52 47 41 35 30 25 22 19 17 15 15 
14 14 14 15 17 19 22 25 29 32 34 35 34 32 27 22 
15 0 0 0 0 0 0 0 0 0 0 0 0 0 0 17 19 23 26 30 32 32 30 26 21 15 10 7 6 6 7 8 
75 80 83 82 77 70 61 51 42 34 28 23 19 17 15 14 
14 13 14 15 17 21 25 31 37 42 47 50 50 49 45 41 
35 15 15 16 18 20 22 24 26 27 27 26 25 24 23 56 68 81 94 105 112 113 112 107 97 84 70 56 45 37 31 26 
112 116 116 112 104 92 78 63 49 38 29 23 18 16 14 13 
12 12 12 14 17 21 28 36 45 54 62 67 69 68 65 61 
56 32 37 42 49 55 61 66 69 70 69 65 60 54 48 88 106 127 148 166 178 184 182 174 159 140 118 97 79 63 52 42 
154 159 159 152 138 120 98 76 56 40 28 20 15 13 11 10 
9 9 9 11 14 21 30 42 56 69 81 89 92 91 87 81 
76 47 55 64 74 84 93 100 104 105 102 97 89 79 70 110 134 159 184 206 222 230 229 219 201 177 151 126 103 83 67 54 
204 214 215 205 185 156 123 91 63 41 25 15 10 7 6 5 
4 4 4 5 10 18 31 48 68 89 106 118 123 120 113 103 
94 87 69 81 93 105 116 124 129 129 126 119 109 97 85 124 148 175 201 225 242 251 250 239 220 196 169 142 117 96 78 241 
255 255 255 255 255 217 161 108 68 38 18 6 1 0 0 0 
0 0 0 0 2 13 31 56 86 121 153 176 185 183 143 126 
110 98 78 91 104 117 129 137 142 142 139 131 120 108 95 128 152 178 203 225 241 249 249 239 221 199 173 147 123 101 255 255 
255 255 255 255 255 255 193 119 54 30 5 0 0 0 0 0 
0 0 0 0 0 6 7 52 102 152 194 221 230 221 199 171 
123 103 92 95 108 121 132 141 145 146 142 134 124 111 117 125 148 171 193 212 227 234 233 225 210 190 167 144 121 234 255 255 
255 255 255 255 255 255 232 132 48 0 0 0 0 101 106 107 
105 101 0 0 0 0 4 62 130 198 253 255 255 255 232 188 
147 114 85 78 106 119 129 137 141 141 138 130 120 109 109 107 137 157 176 193 205 211 210 203 191 174 155 134 184 242 255 255 
255 255 255 255 255 255 255 147 38 0 0 0 99 107 112 113 
111 106 98 0 0 0 5 82 173 255 255 255 255 255 255 205 
147 103 70 59 60 67 78 127 131 131 128 114 117 122 96 93 107 140 155 169 179 184 183 178 168 154 138 151 172 239 255 255 
255 255 255 255 255 255 255 163 27 0 0 0 101 109 114 115 
113 108 100 90 0 0 14 116 239 255 255 255 255 255 255 221 
142 86 53 34 34 42 53 65 76 84 90 94 98 102 108 78 89 100 109 117 152 156 155 151 105 99 101 105 149 223 255 255 
255 255 255 255 255 255 255 181 14 0 0 0 99 107 111 113 
111 106 98 0 0 0 35 168 255 255 255 255 255 255 255 237 
132 64 26 12 6 15 28 41 53 62 69 74 78 81 85 64 72 80 86 90 91 89 84 77 68 62 63 75 116 192 255 255 
255 255 255 255 255 255 255 199 2 0 0 0 94 101 105 107 
105 100 92 0 0 0 70 238 255 255 255 255 255 255 255 251 
119 39 0 0 0 0 4 19 31 42 50 55 59 61 63 51 57 62 66 67 66 62 56 47 37 28 26 42 77 150 255 255 
255 255 255 255 255 255 255 213 0 0 0 0 86 92 96 97 
95 90 84 0 0 0 117 255 255 255 255 255 255 255 255 255 
105 14 0 0 0 0 0 0 13 24 32 38 42 44 43 40 44 47 49 49 46 41 33 23 11 0 0 10 37 102 226 255 
255 255 255 255 255 255 255 219 0 0 0 0 0 81 84 85 
83 79 74 0 0 12 167 255 255 255 255 255 255 255 255 255 
91 0 0 0 0 0 0 0 0 9 18 24 27 28 27 30 33 35 35 34 30 24 15 4 0 0 0 0 3 57 166 255 
255 255 255 255 255 255 255 212 0 0 0 0 0 69 71 72 
71 67 63 0 0 45 209 255 255 255 255 255 255 255 255 253 
81 0 0 0 0 0 0 0 0 0 6 12 15 16 14 22 24 25 25 22 18 11 2 0 0 0 0 0 0 21 112 255 
255 255 255 255 255 255 255 194 3 0 0 0 0 57 59 59 
58 55 0 0 0 73 234 255 255 255 255 255 255 255 255 235 
74 0 0 0 0 0 0 0 0 0 0 3 6 7 5 16 17 18 17 14 10 3 0 0 0 0 0 0 0 0 70 191 
255 255 255 255 255 255 255 167 9 0 0 0 0 0 0 0 
0 0 0 0 0 89 236 255 255 255 255 255 255 255 255 211 
71 0 0 0 0 0 0 0 0 0 0 0 0 0 0 11 12 12 11 8 4 0 0 0 0 0 0 0 0 0 43 134 
255 255 255 255 255 255 255 136 13 0 0 0 0 0 0 0 
0 0 0 0 3 93 219 255 255 255 255 255 255 255 255 184 
68 0 0 0 0 0 0 0 0 0 0 0 0 0 0 7 8 8 7 5 1 0 0 0 0 0 0 0 0 0 29 95 
183 255 255 255 255 255 214 106 13 0 0 0 0 0 0 0 
0 0 0 0 10 87 189 255 255 255 255 255 255 255 255 156 
65 6 0 0 0 0 0 0 0 0 0 0 0 0 0 5 5 5 5 3 0 0 0 0 0 0 0 0 0 0 22 69 
130 195 250 255 255 222 154 79 10 0 0 0 0 0 0 0 
0 0 0 0 2 72 152 244 255 255 255 255 255 255 217 130 
61 14 0 0 0 0 0 0 0 0 0 0 0 0 0 3 4 4 4 2 0 0 0 0 0 0 0 0 0 0 21 53 
93 136 171 189 182 153 108 55 5 0 0 0 0 0 0 0 
0 0 0 0 0 45 114 182 246 255 255 255 255 231 166 105 
55 14 0 0 0 0 0 0 0 0 0 0 0 0 0 2 3 4 4 3 2 0 0 0 0 0 0 0 0 7 24 41 
68 95 117 127 123 103 72 35 0 0 0 0 0 0 0 0 
0 0 0 0 0 23 71 127 173 209 227 226 204 167 124 86 
49 21 2 0 0 0 0 0 0 0 0 0 0 0 0 2 3 4 5 5 5 4 4 3 2 2 3 6 11 20 31 47 
64 80 79 84 80 71 46 17 0 0 0 0 0 0 0 0 
0 0 0 0 0 1 39 77 112 140 156 158 147 125 98 71 
46 27 13 3 0 0 0 0 0 0 0 0 0 0 0 3 4 5 6 7 8 9 9 10 12 14 17 20 26 35 35 33 
30 26 22 69 61 46 27 4 0 0 0 0 0 0 0 0 
0 0 0 0 0 0 12 41 68 89 102 107 102 12 15 18 
20 22 21 13 8 4 2 1 0 0 0 0 0 0 0 3 5 6 8 10 11 13 15 18 21 25 30 41 44 46 45 42 
38 33 26 20 15 30 13 0 0 0 0 0 0 0 0 0 
0 0 0 0 0 0 0 14 35 52 0 4 8 12 17 21 
24 26 27 26 17 13 10 7 5 3 2 0 0 0 0 4 6 8 10 12 15 18 21 26 31 36 46 51 55 56 55 51 
45 38 31 23 16 10 3 0 0 0 0 0 0 0 0 0 
0 0 0 0 0 0 0 0 10 0 0 1 6 11 17 23 
27 30 32 31 29 21 17 13 10 7 5 3 1 0 0 5 7 9 12 14 18 22 27 33 39 47 55 61 65 66 64 59 
52 43 33 24 16 9 4 0 0 0 0 0 0 0 0 0 
0 0 0 0 0 0 0 0 0 0 0 0 2 8 16 23 
29 33 35 35 34 30 23 18 14 11 8 6 3 1 0 6 8 11 13 17 21 26 32 39 45 54 63 69 73 74 71 65 
56 46 34 24 14 7 2 0 0 0 0 0 0 0 0 0 
0 0 0 0 0 0 0 0 0 0 0 0 0 3 12 20 
28 34 37 38 37 33 29 22 18 14 11 8 5 3 1 7 9 12 15 18 23 29 35 40 50 60 69 76 80 80 76 69 
58 45 32 20 11 3 0 0 0 0 0 0 0 0 0 0 
0 0 0 0 0 0 0 0 0 0 0 0 0 0 4 15 
24 32 37 39 38 35 31 26 20 16 12 9 7 4 2 7 10 12 16 20 25 31 38 43 53 63 72 79 83 82 77 68 
56 41 27 15 5 0 0 0 0 0 0 0 0 0 0 0 
0 0 0 0 0 0 0 0 0 0 0 0 0 0 0 5 
17 26 33 36 37 35 31 26 22 17 14 10 8 5 3 8 10 13 16 20 25 32 39 43 54 63 72 79 81 80 73 63 
49 34 19 7 0 0 0 0 0 0 0 0 0 0 6 8 
3 0 0 0 0 0 0 0 0 0 0 0 0 0 0 0 
6 18 26 32 33 33 30 26 22 18 14 11 8 6 4 8 10 13 16 20 25 31 39 42 52 61 69 74 76 73 65 53 
38 23 9 0 0 0 0 0 0 0 0 0 12 30 44 49 
42 26 7 0 0 0 0 0 0 0 0 0 0 0 0 0 
0 7 17 24 28 29 27 24 21 17 14 11 8 6 4 8 10 13 16 19 24 30 31 40 48 56 62 66 66 62 53 40 
25 10 0 0 0 0 0 0 0 0 0 11 29 49 65 71 
65 49 27 7 0 0 0 0 0 0 0 0 0 0 0 0 
0 0 7 16 21 23 23 20 17 16 13 10 8 6 5 8 10 12 15 18 22 28 34 35 42 49 53 55 54 48 38 26 
11 0 0 0 0 0 0 0 0 0 4 18 36 55 70 76 
70 55 36 16 0 0 0 0 0 0 0 0 0 0 0 0 
0 0 0 6 13 16 17 17 16 14 12 9 8 6 4 7 9 11 14 17 20 24 29 30 36 40 43 43 40 34 24 11 
0 0 0 0 0 0 0 0 0 0 7 19 35 50 62 66 
62 50 34 17 2 0 0 0 0 0 0 0 0 0 0 0 
0 0 0 0 5 10 12 12 13 11 10 8 7 5 4 7 8 10 12 15 18 21 25 24 28 31 32 31 27 20 10 0 
0 0 0 0 0 0 0 0 0 0 5 16 27 39 48 51 
48 39 26 12 0 0 0 0 0 0 0 0 0 0 0 0 
0 0 0 0 0 4 7 8 9 9 8 7 6 5 4 6 7 9 11 13 15 17 20 18 21 23 23 20 16 9 0 0 
0 0 0 0 0 0 0 0 0 0 2 9 18 26 32 34 
31 24 15 5 0 0 0 0 0 0 0 0 0 0 0 0 
0 0 0 0 0 0 3 5 6 6 6 5 5 4 3 5 6 8 9 11 12 14 16 17 15 15 14 11 7 0 0 0 
0 0 0 0 0 0 0 0 0 0 5 2 8 13 16 17 
15 11 4 0 0 0 0 0 0 0 0 0 0 0 0 0 
0 0 0 0 0 0 0 2 3 4 4 4 4 3 3 5 5 6 7 9 10 11 12 13 13 9 8 5 0 0 0 0 
0 0 0 0 0 0 0 0 0 0 4 12 19 25 3 3 
1 24 17 9 0 0 0 0 0 0 0 0 0 0 0 0 
0 0 0 0 0 0 0 0 1 2 3 3 3 2 2 4 5 5 6 7 8 8 9 9 8 7 3 0 0 0 0 0 
0 0 0 0 0 0 0 0 0 0 3 9 14 18 21 22 
21 18 13 6 0 0 0 0 0 0 0 0 0 0 0 0 
0 0 0 0 0 0 0 0 0 1 1 2 2 2 1 3 4 4 5 5 6 6 6 6 5 3 1 0 0 0 0 0 
0 0 0 0 0 0 0 0 0 0 2 6 11 14 16 16 
16 13 9 4 0 0 0 0 0 0 0 0 0 0 0 0 
0 0 0 0 0 0 0 0 0 0 0 1 1 1 1 3 3 3 4 4 4 4 4 3 2 1 0 0 0 0 0 0 
0 0 0 0 0 0 0 0 0 0 1 5 8 10 12 12 
12 10 7 3 0 0 0 0 0 0 0 0 0 0 0 0 
0 0 0 0 0 0 0 0 0 0 0 0 0 0 1 2 2 2 3 3 3 3 2 2 1 0 0 0 0 0 0 0 
0 0 0 0 0 0 0 0 0 0 0 3 6 8 9 9 
9 7 5 2 0 0 0 0 0 0 0 0 0 0 0 0 
0 0 0 0 0 0 0 0 0 0 0 0 0 0 0 1 2 2 2 2 2 1 1 0 0 0 0 0 0 0 0 0 
0 0 0 0 0 0 0 0 0 0 0 3 4 6 7 7 
7 5 3 1 0 0 0 0 0 0 0 0 0 0 0 0 
0 0 0 0 0 0 0 0 0 0 0 0 0 0 0 1 1 1 1 1 1 1 0 0 0 0 0 0 0 0 0 0 
0 0 0 0 0 0 0 0 0 0 0 2 3 5 5 5 
5 4 3 1 0 0 0 0 0 0 0 0 0 0 0 0 
0 0 0 0 0 0 0 0 0 0 0 0 0 0 0 1 1 1 1 0 0 0 0 0 0 0 0 0 0 0 0 0 
0 0 0 0 0 0 0 0 0 0 0 1 2 3 4 4 
4 3 2 0 0 0 0 0 0 0 0 0 0 0 0 0 
0 0 0 0 0 0 0 0 0 0 0 0 0 0 0 0 0 0 0 0 0 0 0 0 0 0 0 0 0 0 0 0 
0 0 0 0 0 0 0 0 0 0 0 1 2 2 3 3 
3 2 1 0 0 0 0 0 0 0 0 0 0 0 0 0 
0 0 0 0 0 0 0 0 0 0 0 0 0 0 0 0 0 0 0 0 0 0 0 0 0 0 0 0 0 0 0 0 
0 0 0 0 0 0 0 0 0 0 0 0 1 2 2 2 
2 1 1 0 0 0 0 0 0 0 0 0 0 0 0 0 
0 0 0 0 0 0 0 0 0 0 0 0 0 0 0 0 0 0 0 0 0 0 0 0 0 0 0 0 0 0 0 0 
0 0 0 0 0 0 0 0 0 0 0 0 1 1 1 1 
1 1 0 0 0 0 0 0 0 0 0 0 0 0 0 0 
0 0 0 0 0 0 0 0 0 0 0 0 0 0 0 0 0 0 0 0 0 0 0 0 0 0 0 0 0 0 0 0 
0 0 0 0 0 0 0 0 0 0 0 0 0 1 1 1 
1 0 0 0 0 0 0 0 0 0 0 0 0 0 0 0 
0 0 0 0 0 0 0 0 0 0 0 0 0 0 0 0 0 0 0 0 0 0 0 0 0 0 0 0 0 0 0 0 
0 0 0 0 0 0 0 0 0 0 0 0 0 0 0 0 
0 0 0 0 0 0 0 0 0 0 0 0 0 0 0 0 
0 0 0 0 0 0 0 0 0 0 0 0 0 0 0 0 0 0 0 0 0 0 0 0 0 0 0 0 0 0 0 0 
0 0 0 0 0 0 0 0 0 0 0 0 0 0 0 0 
0 0 0 0 0 0 0 0 0 0 0 0 0 0 0 0 
0 0 0 0 0 0 0 0 0 0 0 0 0 0 0 0 0 0 0 0 0 0 0 0 0 0 0 0 0 0 0 0 
0 0 0 0 0 0 0 0 0 0 0 0 0 0 0 0 
0 0 0 0 0 0 0 0 0 0 0 0 0 0 0 0 
0 0 0 0 0 0 0 0 0 0 0 0 0 0 0 0 0 0 0 0 0 0 0 0 0 0 0 0 0 0 0 0 
0 0 0 0 0 0 0 0 0 0 0 0 0 0 0 0 
0 0 0 0 0 0 0 0 0 0 0 0 0 0 0 0 
0 0 0 0 0 0 0 0 0 0 0 0 0 0 0 