P2
# Created by IrfanView
64 64
255
0 0 0 0 0 0 0 0 0 0 0 0 0 0 0 0 0 
0 0 0 0 0 0 0 0 0 0 0 0 0 0 0 0 
0 0 0 0 0 0 0 0 0 0 0 0 0 0 0 0 
0 0 0 0 0 0 0 0 0 0 0 0 0 0 0 0 0 0 0 0 0 0 0 0 0 0 0 0 0 0 0 0 
0 0 0 0 0 0 0 0 0 0 0 0 1 1 1 1 
1 1 0 0 0 0 0 0 0 0 0 0 0 0 0 0 
0 0 0 0 0 0 0 0 0 0 0 0 0 0 0 0 0 0 0 0 0 0 0 0 0 0 0 0 0 0 0 0 
0 0 0 0 0 0 0 0 0 0 0 1 2 2 2 2 
2 2 2 1 0 0 0 0 0 0 0 0 0 0 0 0 
0 0 0 0 0 0 0 0 0 0 0 0 0 0 0 0 0 0 0 0 0 0 0 0 0 0 0 0 0 0 0 0 
0 0 0 0 0 0 0 0 0 1 2 3 3 4 4 4 
4 3 3 2 1 0 0 0 0 0 0 0 0 0 0 0 
0 0 0 0 0 0 0 0 0 0 0 0 0 0 0 0 0 0 0 0 0 0 0 0 0 0 0 0 0 0 0 0 
0 0 0 0 0 0 0 0 2 4 4 5 5 5 5 5 
5 5 4 4 3 2 1 0 0 0 0 0 0 0 0 0 
0 0 0 0 0 0 0 0 0 0 0 0 0 0 0 0 0 0 0 0 0 0 0 0 0 0 0 0 0 0 0 0 
0 0 0 0 0 0 2 4 6 6 7 7 7 7 6 6 
6 6 5 5 5 4 3 2 1 0 0 0 0 0 0 0 
0 0 0 0 0 0 0 0 0 0 0 0 0 0 0 0 0 0 0 0 0 0 0 0 0 0 0 0 0 0 0 0 
0 0 0 0 1 5 8 9 9 9 9 9 8 8 7 7 
7 7 7 7 7 6 6 5 4 2 0 0 0 0 0 0 
0 0 0 0 0 0 0 0 0 0 0 0 0 0 0 0 0 0 0 0 0 0 0 0 0 0 0 0 0 0 0 0 
0 0 0 5 10 13 14 14 14 13 12 11 10 9 8 8 
7 7 7 8 8 8 9 9 9 8 6 2 0 0 0 0 
0 0 0 0 0 0 0 0 0 0 0 0 0 0 0 0 0 0 0 0 0 0 0 0 0 0 0 0 0 0 0 0 
0 3 12 18 21 22 22 20 18 16 14 12 10 9 8 8 
7 7 8 8 9 10 12 13 14 14 13 11 7 1 0 0 
0 0 0 0 0 0 0 0 0 0 0 0 0 0 0 0 0 0 0 0 0 0 0 0 0 0 0 0 0 0 0 0 
0 23 30 34 35 34 31 27 23 19 16 13 11 9 8 7 
7 7 7 8 10 12 14 17 19 21 22 21 19 15 8 0 
0 0 0 0 0 0 0 0 0 0 0 0 0 0 0 0 0 0 0 0 0 0 0 0 0 0 0 0 0 0 0 0 
0 48 53 54 52 47 41 35 28 22 17 13 10 7 6 5 
5 5 6 7 9 12 16 20 25 29 32 34 33 31 26 19 
0 0 0 0 0 0 0 0 0 0 0 0 0 0 0 20 24 29 35 38 36 29 27 31 29 23 15 10 7 6 7 8 
10 78 80 78 73 64 54 43 33 24 16 11 7 4 3 2 
1 1 2 4 7 11 17 24 31 38 44 48 50 49 45 41 
14 14 15 16 19 22 26 29 32 33 33 31 29 27 25 64 79 96 111 121 119 111 109 113 112 100 83 66 52 41 34 28 
111 115 114 109 99 84 68 51 36 23 14 7 2 0 0 0 
0 0 0 0 3 9 17 27 38 49 58 65 69 69 66 62 
31 36 42 49 58 67 76 83 88 89 86 81 74 65 57 100 123 148 173 192 201 202 201 196 185 164 138 112 89 71 57 46 
154 159 158 149 132 110 85 60 38 20 8 0 0 0 0 0 
0 0 0 0 0 3 14 28 45 61 76 87 93 93 90 84 
45 54 65 77 90 104 116 126 132 133 129 121 109 96 83 125 153 183 214 240 255 255 255 253 234 206 175 144 116 93 74 59 
206 216 250 234 204 164 106 68 37 13 0 0 0 0 0 0 
0 0 0 0 0 0 8 28 52 78 120 141 123 122 115 106 
97 68 81 97 113 129 144 155 162 162 157 147 134 118 102 139 168 200 232 255 255 255 255 255 255 226 193 161 132 106 85 255 
255 255 255 255 254 199 137 78 31 0 0 0 0 0 0 0 
0 0 0 0 0 0 0 22 64 106 144 171 183 182 169 151 
111 77 92 109 126 143 158 170 176 177 172 161 147 130 113 143 171 201 231 255 255 255 255 255 254 226 196 166 137 112 249 255 
255 255 255 255 255 243 157 75 8 0 0 0 0 0 0 0 
0 0 0 0 0 0 0 13 69 127 177 211 222 213 190 160 
130 100 96 113 130 147 161 172 178 179 174 164 150 134 119 139 165 192 218 241 255 255 255 255 238 214 188 160 134 208 255 255 
255 255 255 255 255 255 180 69 0 0 0 0 0 0 0 0 
0 0 0 0 0 0 0 5 81 161 229 255 255 254 212 164 
121 89 75 111 127 142 156 165 171 171 167 157 145 130 111 129 152 175 197 216 230 237 237 229 214 194 172 149 146 200 255 255 
255 255 255 255 255 255 208 57 0 0 0 0 0 0 0 0 
0 0 0 0 0 0 0 3 106 218 255 255 255 255 238 163 
102 61 39 43 54 132 144 152 157 157 153 145 134 139 99 103 135 154 172 188 199 205 204 198 186 171 152 82 115 175 255 255 
255 255 255 255 255 255 246 42 0 0 0 0 0 0 0 0 
0 0 0 0 0 0 0 12 156 255 255 255 255 255 255 156 
72 22 0 0 15 34 54 72 139 139 106 110 113 116 121 86 98 109 120 159 168 172 172 167 158 78 66 42 71 132 243 255 
255 255 255 255 255 255 255 24 0 0 0 0 0 0 0 90 
0 0 0 0 0 0 0 43 243 255 255 255 255 255 255 142 
32 0 0 0 0 0 20 40 57 70 79 85 89 92 95 69 78 86 92 95 95 90 81 67 49 30 0 0 15 72 190 255 
255 255 255 255 255 255 255 8 0 0 0 0 0 0 85 86 
84 0 0 0 0 0 0 104 255 255 255 255 255 255 255 123 
0 0 0 0 0 0 0 11 30 45 55 62 67 69 70 54 60 65 68 69 66 59 47 31 11 0 0 0 0 1 115 255 
255 255 255 255 255 255 255 0 0 0 0 0 0 0 0 79 
0 0 0 0 0 0 0 193 255 255 255 255 255 255 255 101 
0 0 0 0 0 0 0 0 7 23 34 42 47 49 49 41 46 48 49 48 43 34 21 3 0 0 0 0 0 0 31 250 
255 255 255 255 255 255 255 2 0 0 0 0 0 0 0 0 
0 0 0 0 0 0 21 255 255 255 255 255 255 255 255 83 
0 0 0 0 0 0 0 0 0 5 17 25 30 32 31 30 33 35 34 31 25 15 1 0 0 0 0 0 0 0 0 146 
255 255 255 255 255 255 255 14 0 0 0 0 0 0 0 0 
0 0 0 0 0 0 87 255 255 255 255 255 255 255 255 72 
0 0 0 0 0 0 0 0 0 0 3 11 16 18 17 21 23 24 22 18 12 1 0 0 0 0 0 0 0 0 0 59 
255 255 255 255 255 255 255 30 0 0 0 0 0 0 0 0 
0 0 0 0 0 0 139 255 255 255 255 255 255 255 255 68 
0 0 0 0 0 0 0 0 0 0 0 1 6 7 6 14 15 15 13 9 3 0 0 0 0 0 0 0 0 0 0 6 
209 255 255 255 255 255 255 41 0 0 0 0 0 0 0 0 
0 0 0 0 0 6 167 255 255 255 255 255 255 255 255 69 
0 0 0 0 0 0 0 0 0 0 0 0 0 0 0 9 10 9 7 3 0 0 0 0 0 0 0 0 0 0 0 0 
126 255 255 255 255 255 224 46 0 0 0 0 0 0 0 0 
0 0 0 0 0 32 170 255 255 255 255 255 255 255 255 71 
0 0 0 0 0 0 0 0 0 0 0 0 0 0 0 5 6 5 3 0 0 0 0 0 0 0 0 0 0 0 0 0 
79 201 255 255 255 255 166 44 0 0 0 0 0 0 0 0 
0 0 0 0 0 43 155 255 255 255 255 255 255 255 213 71 
0 0 0 0 0 0 0 0 0 0 0 0 0 0 0 2 3 3 1 0 0 0 0 0 0 0 0 0 0 0 0 0 
54 134 206 249 245 196 120 37 0 0 0 0 0 0 0 0 
0 0 0 0 0 42 129 232 255 255 255 255 255 255 169 68 
0 0 0 0 0 0 0 0 0 0 0 0 0 0 0 1 2 2 1 0 0 0 0 0 0 0 0 0 0 0 0 0 
41 93 138 165 163 133 84 28 0 0 0 0 0 0 0 0 
0 0 0 0 0 33 99 173 246 255 255 255 255 209 132 62 
9 0 0 0 0 0 0 0 0 0 0 0 0 0 0 0 1 2 1 0 0 0 0 0 0 0 0 0 0 0 0 4 
33 66 94 110 108 89 56 18 0 0 0 0 0 0 0 0 
0 0 0 0 0 11 69 122 172 211 230 225 196 152 101 54 
17 0 0 0 0 0 0 0 0 0 0 0 0 0 0 1 2 2 3 2 2 0 0 0 0 0 0 0 0 1 11 27 
27 47 64 72 70 57 34 7 0 0 0 0 0 0 0 0 
0 0 0 0 0 0 34 74 113 140 154 152 135 107 75 56 
30 11 0 0 0 0 0 0 0 0 0 0 0 0 0 1 3 4 5 5 6 6 6 7 7 8 10 13 40 42 41 39 
35 30 25 19 57 42 22 0 0 0 0 0 0 0 0 0 
0 0 0 0 0 0 10 40 68 90 103 7 11 16 20 24 
26 28 28 7 3 0 0 0 0 0 0 0 0 0 0 2 4 5 7 8 10 12 14 16 19 23 43 48 52 53 52 49 
44 37 30 23 16 11 10 0 0 0 0 0 0 0 0 0 
0 0 0 0 0 0 0 14 36 0 2 6 11 17 23 28 
32 34 35 33 31 12 9 7 5 3 2 0 0 0 0 3 5 7 9 11 14 17 21 26 31 46 54 60 64 65 63 59 
52 44 34 25 17 11 5 0 0 0 0 0 0 0 0 0 
0 0 0 0 0 0 0 0 0 0 0 3 10 17 24 31 
36 40 41 40 37 33 19 14 11 8 6 4 2 0 0 5 7 9 11 14 18 22 28 35 46 55 64 71 75 77 74 68 
59 49 37 26 17 9 3 0 0 0 0 0 0 0 0 0 
0 0 0 0 0 0 0 0 0 0 0 0 6 14 23 32 
39 44 46 46 43 39 33 21 17 13 9 7 4 2 0 6 8 10 13 17 21 27 34 42 53 63 73 81 86 87 83 76 
65 51 38 25 14 6 0 0 0 0 0 0 0 0 0 0 
0 0 0 0 0 0 0 0 0 0 0 0 0 8 19 30 
39 46 50 50 47 43 37 30 21 16 12 9 6 4 1 6 9 12 15 19 24 31 39 47 58 70 80 89 93 94 89 79 
66 50 35 21 9 0 0 0 0 0 0 0 0 0 0 0 
0 0 0 0 0 0 0 0 0 0 0 0 0 0 11 24 
36 45 50 51 50 45 39 33 25 19 15 11 8 5 3 7 10 13 16 21 26 33 38 50 62 74 84 93 97 96 89 77 
62 45 28 13 1 0 0 0 0 0 0 0 0 0 0 0 
0 0 0 0 0 0 0 0 0 0 0 0 0 0 0 14 
28 39 46 50 49 46 40 34 27 21 16 12 9 6 4 8 10 13 17 21 27 34 39 51 62 74 84 92 95 91 82 68 
52 34 17 2 0 0 0 0 0 0 0 0 0 0 0 0 
0 0 0 0 0 0 0 0 0 0 0 0 0 0 0 0 
15 29 39 44 45 43 39 33 27 22 17 13 10 7 5 8 10 13 17 21 27 34 39 49 60 71 80 86 87 82 70 55 
38 20 4 0 0 0 0 0 0 0 0 0 0 0 6 8 
4 0 0 0 0 0 0 0 0 0 0 0 0 0 0 0 
1 16 28 36 39 38 35 31 25 21 17 13 10 7 5 8 10 13 16 21 26 33 36 46 56 65 72 76 75 68 55 39 
22 5 0 0 0 0 0 0 0 0 0 0 3 14 22 25 
21 12 0 0 0 0 0 0 0 0 0 0 0 0 0 0 
0 1 15 25 30 32 30 27 23 20 16 13 10 7 5 8 10 12 16 19 24 30 32 41 49 56 61 63 60 52 39 23 
6 0 0 0 0 0 0 0 0 0 0 0 10 20 28 31 
27 18 7 0 0 0 0 0 0 0 0 0 0 0 0 0 
0 0 2 13 20 24 24 22 19 17 14 11 9 7 5 7 9 11 14 18 22 27 28 34 41 46 49 48 44 35 22 6 
0 0 0 0 0 0 0 0 0 0 0 0 10 19 26 28 
25 17 7 0 0 0 0 0 0 0 0 0 0 0 0 0 
0 0 0 2 10 15 17 17 15 14 12 10 8 6 5 7 8 10 13 15 19 23 22 28 32 35 36 34 28 19 6 0 
0 0 0 0 0 0 0 0 0 0 0 0 5 13 18 19 
17 11 2 0 0 0 0 0 0 0 0 0 0 0 0 0 
0 0 0 0 2 8 11 12 11 11 10 8 7 6 4 6 7 9 11 13 16 19 22 21 24 25 24 21 15 5 0 0 
0 0 0 0 0 0 0 0 0 0 0 0 0 4 7 8 
6 1 0 0 0 0 0 0 0 0 0 0 0 0 0 0 
0 0 0 0 0 1 5 7 9 8 8 7 6 5 4 5 7 8 9 11 13 15 17 15 16 16 15 11 4 0 0 0 
0 0 0 0 0 0 0 0 0 0 0 6 14 0 0 0 
0 0 12 2 0 0 0 0 0 0 0 0 0 0 0 0 
0 0 0 0 0 0 1 3 5 6 5 5 5 4 3 5 6 7 8 9 10 11 12 13 10 10 7 3 0 0 0 0 
0 0 0 0 0 0 0 0 0 0 0 4 11 16 19 20 
18 15 9 1 0 0 0 0 0 0 0 0 0 0 0 0 
0 0 0 0 0 0 0 1 2 3 4 4 3 3 3 4 5 5 6 7 8 8 9 9 8 5 2 0 0 0 0 0 
0 0 0 0 0 0 0 0 0 0 0 3 8 12 14 15 
14 11 6 0 0 0 0 0 0 0 0 0 0 0 0 0 
0 0 0 0 0 0 0 0 0 1 2 2 2 2 2 3 4 4 5 5 6 6 6 5 4 2 0 0 0 0 0 0 
0 0 0 0 0 0 0 0 0 0 0 2 6 9 11 11 
10 8 4 0 0 0 0 0 0 0 0 0 0 0 0 0 
0 0 0 0 0 0 0 0 0 0 1 1 1 1 1 3 3 3 4 4 4 4 3 3 2 0 0 0 0 0 0 0 
0 0 0 0 0 0 0 0 0 0 0 1 4 6 8 8 
7 6 3 0 0 0 0 0 0 0 0 0 0 0 0 0 
0 0 0 0 0 0 0 0 0 0 0 0 1 1 1 2 2 2 3 3 3 2 2 1 0 0 0 0 0 0 0 0 
0 0 0 0 0 0 0 0 0 0 0 0 3 5 6 6 
5 4 2 0 0 0 0 0 0 0 0 0 0 0 0 0 
0 0 0 0 0 0 0 0 0 0 0 0 0 0 0 1 2 2 2 2 1 1 1 0 0 0 0 0 0 0 0 0 
0 0 0 0 0 0 0 0 0 0 0 0 2 3 4 4 
4 3 1 0 0 0 0 0 0 0 0 0 0 0 0 0 
0 0 0 0 0 0 0 0 0 0 0 0 0 0 0 1 1 1 1 1 1 0 0 0 0 0 0 0 0 0 0 0 
0 0 0 0 0 0 0 0 0 0 0 0 1 2 3 3 
3 2 0 0 0 0 0 0 0 0 0 0 0 0 0 0 
0 0 0 0 0 0 0 0 0 0 0 0 0 0 0 1 1 1 1 0 0 0 0 0 0 0 0 0 0 0 0 0 
0 0 0 0 0 0 0 0 0 0 0 0 1 2 2 2 
2 1 0 0 0 0 0 0 0 0 0 0 0 0 0 0 
0 0 0 0 0 0 0 0 0 0 0 0 0 0 0 0 0 0 0 0 0 0 0 0 0 0 0 0 0 0 0 0 
0 0 0 0 0 0 0 0 0 0 0 0 0 1 1 2 
1 1 0 0 0 0 0 0 0 0 0 0 0 0 0 0 
0 0 0 0 0 0 0 0 0 0 0 0 0 0 0 0 0 0 0 0 0 0 0 0 0 0 0 0 0 0 0 0 
0 0 0 0 0 0 0 0 0 0 0 0 0 1 1 1 
1 0 0 0 0 0 0 0 0 0 0 0 0 0 0 0 
0 0 0 0 0 0 0 0 0 0 0 0 0 0 0 0 0 0 0 0 0 0 0 0 0 0 0 0 0 0 0 0 
0 0 0 0 0 0 0 0 0 0 0 0 0 0 0 0 
0 0 0 0 0 0 0 0 0 0 0 0 0 0 0 0 
0 0 0 0 0 0 0 0 0 0 0 0 0 0 0 0 0 0 0 0 0 0 0 0 0 0 0 0 0 0 0 0 
0 0 0 0 0 0 0 0 0 0 0 0 0 0 0 0 
0 0 0 0 0 0 0 0 0 0 0 0 0 0 0 0 
0 0 0 0 0 0 0 0 0 0 0 0 0 0 0 0 0 0 0 0 0 0 0 0 0 0 0 0 0 0 0 0 
0 0 0 0 0 0 0 0 0 0 0 0 0 0 0 0 
0 0 0 0 0 0 0 0 0 0 0 0 0 0 0 0 
0 0 0 0 0 0 0 0 0 0 0 0 0 0 0 0 0 0 0 0 0 0 0 0 0 0 0 0 0 0 0 0 
0 0 0 0 0 0 0 0 0 0 0 0 0 0 0 0 
0 0 0 0 0 0 0 0 0 0 0 0 0 0 0 0 
0 0 0 0 0 0 0 0 0 0 0 0 0 0 0 0 0 0 0 0 0 0 0 0 0 0 0 0 0 0 0 0 
0 0 0 0 0 0 0 0 0 0 0 0 0 0 0 0 
0 0 0 0 0 0 0 0 0 0 0 0 0 0 0 0 
0 0 0 0 0 0 0 0 0 0 0 0 0 0 0 0 0 0 0 0 0 0 0 0 0 0 0 0 0 0 0 0 
0 0 0 0 0 0 0 0 0 0 0 0 0 0 0 0 
0 0 0 0 0 0 0 0 0 0 0 0 0 0 0 0 
0 0 0 0 0 0 0 0 0 0 0 0 0 0 0 