P2
# Created by IrfanView
64 64
255
0 0 0 0 0 0 0 0 0 0 0 0 0 0 0 0 0 
0 0 0 0 0 0 0 0 0 0 0 0 0 0 0 0 
0 0 0 0 0 0 0 0 0 0 0 0 0 0 0 0 
0 0 0 0 0 0 0 0 0 0 0 0 0 0 0 0 0 0 0 0 0 0 0 0 0 0 0 0 0 0 0 0 
0 0 0 0 0 0 0 0 0 0 0 0 0 0 1 1 
0 0 0 0 0 0 0 0 0 0 0 0 0 0 0 0 
0 0 0 0 0 0 0 0 0 0 0 0 0 0 0 0 0 0 0 0 0 0 0 0 0 0 0 0 0 0 0 0 
0 0 0 0 0 0 0 0 0 0 0 0 1 1 1 2 
1 1 1 0 0 0 0 0 0 0 0 0 0 0 0 0 
0 0 0 0 0 0 0 0 0 0 0 0 0 0 0 0 0 0 0 0 0 0 0 0 0 0 0 0 0 0 0 0 
0 0 0 0 0 0 0 0 0 0 1 2 2 2 3 3 
2 2 2 1 0 0 0 0 0 0 0 0 0 0 0 0 
0 0 0 0 0 0 0 0 0 0 0 0 0 0 0 0 0 0 0 0 0 0 0 0 0 0 0 0 0 0 0 0 
0 0 0 0 0 0 0 0 1 2 3 3 3 3 3 3 
3 3 3 2 2 1 0 0 0 0 0 0 0 0 0 0 
0 0 0 0 0 0 0 0 0 0 0 0 0 0 0 0 0 0 0 0 0 0 0 0 0 0 0 0 0 0 0 0 
0 0 0 0 0 0 0 2 4 4 5 5 5 4 4 4 
4 4 4 3 3 3 2 1 0 0 0 0 0 0 0 0 
0 0 0 0 0 0 0 0 0 0 0 0 0 0 0 0 0 0 0 0 0 0 0 0 0 0 0 0 0 0 0 0 
0 0 0 0 0 3 5 7 7 7 7 6 6 5 5 4 
4 4 4 4 4 4 4 4 3 1 0 0 0 0 0 0 
0 0 0 0 0 0 0 0 0 0 0 0 0 0 0 0 0 0 0 0 0 0 0 0 0 0 0 0 0 0 0 0 
0 0 0 2 7 10 11 11 11 9 8 7 6 5 5 4 
4 4 4 5 5 6 7 7 7 6 4 0 0 0 0 0 
0 0 0 0 0 0 0 0 0 0 0 0 0 0 0 0 0 0 0 0 0 0 0 0 0 0 0 0 0 0 0 0 
0 0 9 15 18 19 18 17 14 12 9 7 6 4 4 3 
3 3 3 4 6 7 9 10 11 12 11 9 5 0 0 0 
0 0 0 0 0 0 0 0 0 0 0 0 0 0 0 0 0 0 0 0 0 94 101 0 0 0 0 0 0 0 0 0 
0 20 27 31 31 30 26 22 18 13 10 7 4 3 1 1 
1 1 2 3 5 7 10 13 16 19 20 20 17 13 5 0 
0 0 0 0 0 0 0 0 0 0 0 0 0 0 0 0 0 0 0 0 14 61 66 20 0 0 0 0 0 0 0 0 
0 45 49 50 47 42 35 28 21 14 9 4 1 0 0 0 
0 0 0 0 2 6 11 16 21 26 30 32 32 29 24 0 
0 0 0 0 0 0 0 0 0 0 0 0 0 0 0 23 29 36 42 37 4 0 0 0 29 29 21 13 9 7 7 8 
9 75 76 73 67 57 45 34 22 13 5 0 0 0 0 0 
0 0 0 0 0 3 9 17 26 35 42 47 49 49 46 13 
13 13 15 17 21 26 31 36 40 41 41 38 35 31 27 71 89 108 123 121 86 36 33 79 111 111 95 75 58 45 36 30 
26 110 109 102 91 75 56 38 22 9 0 0 0 0 0 0 
0 0 0 0 0 0 5 17 30 43 55 64 69 70 68 29 
33 39 47 57 69 82 94 103 109 111 107 100 90 78 66 110 137 166 193 207 203 188 185 196 198 182 155 125 99 78 61 49 
150 154 152 141 122 96 69 41 18 0 0 0 0 0 0 0 
0 0 0 0 0 0 0 14 33 53 71 85 93 94 92 87 
50 61 75 90 108 126 143 156 164 165 160 149 133 116 98 137 169 204 238 255 255 255 255 255 255 230 194 159 127 101 80 63 
231 242 239 221 188 145 98 41 8 0 0 0 0 0 0 0 
0 0 0 0 0 0 0 6 45 80 113 137 152 155 117 108 
64 78 95 114 135 156 176 191 200 201 194 180 162 141 121 151 185 221 255 255 255 255 255 255 255 251 214 177 144 115 92 243 
255 255 255 255 228 168 102 40 0 0 0 0 0 0 0 0 
0 0 0 0 0 0 0 0 36 84 127 159 175 175 163 144 
124 88 107 128 150 172 192 207 216 216 209 195 176 155 133 155 187 221 255 255 255 255 255 255 255 250 215 181 149 121 221 255 
255 255 255 255 255 194 102 17 0 0 0 0 0 0 0 0 
0 0 0 0 0 0 0 0 24 89 148 189 205 197 173 142 
112 89 111 132 154 175 193 207 215 216 209 196 178 158 136 150 178 209 238 255 255 255 255 255 255 234 204 174 145 166 222 255 
255 255 255 255 255 229 96 0 0 0 0 0 0 0 0 0 
0 0 0 0 0 0 0 0 9 99 182 235 247 223 178 128 
87 58 42 129 149 168 184 197 204 204 198 186 170 152 132 138 164 189 214 235 251 255 255 249 233 211 186 160 92 135 206 255 
255 255 255 255 255 255 85 0 0 0 0 0 0 0 0 0 
0 0 0 0 0 0 0 0 0 126 245 255 255 255 178 100 
42 8 0 0 138 154 169 179 185 185 180 170 156 140 123 113 145 166 186 203 215 222 221 214 201 184 164 22 38 80 163 255 
255 255 255 255 255 255 67 0 0 0 0 0 0 0 0 0 
0 0 0 0 0 0 0 0 0 191 255 255 255 255 171 50 
0 0 0 0 0 137 149 158 162 163 158 150 138 129 131 93 105 118 157 171 181 186 185 180 170 156 0 0 0 0 86 255 
255 255 255 255 255 255 46 0 0 0 0 0 0 0 0 0 
0 0 0 0 0 0 0 0 36 255 255 255 255 255 156 0 
0 0 0 0 0 0 12 41 64 80 91 97 100 102 103 74 83 90 96 99 97 89 75 54 25 0 0 0 0 0 0 165 
255 255 255 255 255 255 28 0 0 0 0 0 0 0 0 0 
0 0 0 0 0 0 0 0 138 255 255 255 255 255 134 0 
0 0 0 0 0 0 0 4 30 48 61 69 74 76 77 57 63 68 70 69 64 53 37 12 0 0 0 0 0 0 0 24 
255 255 255 255 255 255 24 0 0 0 0 0 0 0 0 0 
0 0 0 0 0 0 0 0 255 255 255 255 255 255 109 0 
0 0 0 0 0 0 0 0 1 22 36 46 51 54 54 42 46 49 49 46 38 26 7 0 0 0 0 0 0 0 0 0 
255 255 255 255 255 255 40 0 0 0 0 0 0 0 0 0 
0 0 0 0 0 0 0 15 255 255 255 255 255 255 88 0 
0 0 0 0 0 0 0 0 0 1 16 26 32 35 34 30 33 34 32 28 19 5 0 0 0 0 0 0 0 0 0 0 
92 255 255 255 255 255 70 0 0 0 0 0 0 0 0 0 
0 0 0 0 0 0 0 149 255 255 255 255 255 255 78 0 
0 0 0 0 0 0 0 0 0 0 1 11 17 20 19 20 22 22 19 14 5 0 0 0 0 0 0 0 0 0 0 0 
0 255 255 255 255 255 96 0 0 0 0 0 0 0 0 0 
0 0 0 0 0 0 0 248 255 255 255 255 255 255 78 0 
0 0 0 0 0 0 0 0 0 0 0 0 6 8 7 12 13 13 10 5 0 0 0 0 0 0 0 0 0 0 0 0 
0 236 255 255 255 255 107 0 0 0 0 0 0 0 0 0 
0 0 0 0 0 0 26 255 255 255 255 255 255 255 84 0 
0 0 0 0 0 0 0 0 0 0 0 0 0 0 0 6 7 6 4 0 0 0 0 0 0 0 0 0 0 0 0 0 
0 114 255 255 255 255 102 0 0 0 0 0 0 0 0 0 
0 0 0 0 0 0 71 255 255 255 255 255 255 255 89 0 
0 0 0 0 0 0 0 0 0 0 0 0 0 0 0 2 3 2 0 0 0 0 0 0 0 0 0 0 0 0 0 0 
0 62 214 255 255 225 89 0 0 0 0 0 0 0 0 0 
0 0 0 0 0 0 87 241 255 255 255 255 255 255 89 0 
0 0 0 0 0 0 0 0 0 0 0 0 0 0 0 0 0 0 0 0 0 0 0 0 0 0 0 0 0 0 0 0 
0 42 135 196 202 154 72 0 0 0 0 0 0 0 0 0 
0 0 0 0 0 0 82 193 255 255 255 255 255 219 83 0 
0 0 0 0 0 0 0 0 0 0 0 0 0 0 0 0 0 0 0 0 0 0 0 0 0 0 0 0 0 0 0 0 
0 34 91 128 134 106 55 0 0 0 0 0 0 0 0 0 
0 0 0 0 0 2 68 146 225 255 255 255 246 162 74 0 
0 0 0 0 0 0 0 0 0 0 0 0 0 0 0 0 0 0 0 0 0 0 0 0 0 0 0 0 0 0 0 0 
0 29 64 86 89 72 39 0 0 0 0 0 0 0 0 0 
0 0 0 0 0 0 48 103 156 197 215 206 171 120 63 13 
0 0 0 0 0 0 0 0 0 0 0 0 0 0 0 0 0 0 0 0 0 0 0 0 0 0 0 0 0 35 35 0 
1 24 45 58 58 46 24 0 0 0 0 0 0 0 0 0 
0 0 0 0 0 0 23 67 103 130 143 139 118 86 51 19 
25 26 0 0 0 0 0 0 0 0 0 0 0 0 0 0 1 2 3 3 3 3 3 3 2 2 3 42 45 47 46 43 
39 33 27 21 36 37 17 0 0 0 0 0 0 0 0 0 
0 0 0 0 0 0 5 35 63 85 6 10 15 20 25 29 
33 34 34 32 0 0 0 0 0 0 0 0 0 0 0 1 3 4 5 7 8 10 12 14 17 42 49 54 58 59 58 54 
48 41 33 24 17 11 8 0 0 0 0 0 0 0 0 0 
0 0 0 0 0 0 0 12 33 0 4 9 16 23 29 35 
40 42 43 41 38 33 9 6 4 3 2 0 0 0 0 2 4 6 8 11 13 17 21 26 43 52 61 67 72 73 71 66 
58 48 37 27 18 10 5 0 0 0 0 0 0 0 0 0 
0 0 0 0 0 0 0 0 0 0 1 7 15 23 32 40 
46 50 51 49 46 40 34 16 12 9 6 4 2 0 0 4 6 8 11 14 18 23 29 41 52 62 72 80 85 86 83 76 
66 53 40 27 17 8 2 0 0 0 0 0 0 0 0 0 
0 0 0 0 0 0 0 0 0 0 0 2 11 21 32 43 
51 56 58 57 53 47 40 32 19 14 11 8 5 2 0 5 7 10 13 17 22 28 36 48 60 71 82 91 97 97 93 84 
71 55 39 25 13 4 0 0 0 0 0 0 0 0 0 0 
0 0 0 0 0 0 0 0 0 0 0 0 3 16 29 42 
53 60 63 63 59 53 45 37 25 19 14 11 7 5 2 6 9 11 15 20 25 32 41 53 66 79 90 100 105 105 98 86 
70 53 35 19 6 0 0 0 0 0 0 0 0 0 0 0 
0 0 0 0 0 0 0 0 0 0 0 0 0 5 20 36 
49 59 65 66 62 56 49 40 31 23 17 13 9 6 4 7 9 13 16 21 28 35 43 56 69 83 95 104 108 105 95 80 
62 44 26 9 0 0 0 0 0 0 0 0 0 0 0 0 
0 0 0 0 0 0 0 0 0 0 0 0 0 0 7 24 
40 53 62 65 63 57 50 41 33 25 19 14 11 8 5 8 10 13 17 22 29 37 44 57 70 83 95 103 104 97 82 64 
47 30 12 0 0 0 0 0 0 0 0 0 0 0 0 0 
0 0 0 0 0 0 0 0 0 0 0 0 0 0 0 8 
25 41 53 59 59 55 48 41 33 26 20 15 11 8 6 8 10 14 17 22 29 37 43 55 67 80 90 96 94 83 64 45 
29 14 0 0 0 0 0 0 0 0 0 0 0 0 0 0 
0 0 0 0 0 0 0 0 0 0 0 0 0 0 0 0 
9 26 41 49 52 50 45 38 31 26 20 15 12 9 6 8 10 13 17 22 28 35 40 51 62 72 80 84 80 67 47 29 
13 0 0 0 0 0 0 0 0 0 0 0 0 0 0 0 
0 0 0 0 0 0 0 0 0 0 0 0 0 0 0 0 
0 10 26 36 41 42 39 34 28 24 19 15 11 9 6 8 10 13 16 20 26 32 36 45 54 62 67 68 63 50 32 15 
0 0 0 0 0 0 0 0 0 0 0 0 0 0 0 0 
0 0 0 0 0 0 0 0 0 0 0 0 0 0 0 0 
0 0 10 22 30 32 31 28 24 21 17 14 11 8 6 7 9 12 15 18 23 28 31 38 44 50 53 51 45 32 16 0 
0 0 0 0 0 0 0 0 0 0 0 0 0 0 0 0 
0 0 0 0 0 0 0 0 0 0 0 0 0 0 0 0 
0 0 0 8 17 22 23 22 19 18 15 12 10 8 6 7 9 11 13 16 20 24 25 30 35 38 38 35 27 15 0 0 
0 0 0 0 0 0 0 0 0 0 0 0 0 0 0 0 
0 0 0 0 0 0 0 0 0 0 0 0 0 0 0 0 
0 0 0 0 7 13 15 16 14 14 12 10 8 7 5 6 8 9 11 14 16 19 19 23 25 26 25 20 12 0 0 0 
0 0 0 0 0 0 0 0 0 0 0 0 5 12 0 0 
0 10 3 0 0 0 0 0 0 0 0 0 0 0 0 0 
0 0 0 0 0 5 9 10 10 11 9 8 7 6 5 5 7 8 9 11 13 15 17 16 17 17 14 9 1 0 0 0 
0 0 0 0 0 0 0 0 0 0 0 0 4 10 13 14 
13 9 2 0 0 0 0 0 0 0 0 0 0 0 0 0 
0 0 0 0 0 0 3 5 7 7 7 6 5 5 4 5 6 7 8 9 10 11 12 13 11 9 6 1 0 0 0 0 
0 0 0 0 0 0 0 0 0 0 0 0 3 8 11 11 
10 7 1 0 0 0 0 0 0 0 0 0 0 0 0 0 
0 0 0 0 0 0 0 2 4 5 5 5 4 4 3 4 5 5 6 7 8 8 8 8 6 4 1 0 0 0 0 0 
0 0 0 0 0 0 0 0 0 0 0 0 2 6 8 9 
8 5 1 0 0 0 0 0 0 0 0 0 0 0 0 0 
0 0 0 0 0 0 0 0 1 2 3 3 3 3 2 3 4 4 5 5 5 6 5 5 3 1 0 0 0 0 0 0 
0 0 0 0 0 0 0 0 0 0 0 0 1 4 6 6 
5 3 0 0 0 0 0 0 0 0 0 0 0 0 0 0 
0 0 0 0 0 0 0 0 0 1 1 2 2 2 2 2 3 3 3 4 4 4 3 2 1 0 0 0 0 0 0 0 
0 0 0 0 0 0 0 0 0 0 0 0 0 3 4 5 
4 2 0 0 0 0 0 0 0 0 0 0 0 0 0 0 
0 0 0 0 0 0 0 0 0 0 0 1 1 1 1 2 2 2 2 2 2 2 1 0 0 0 0 0 0 0 0 0 
0 0 0 0 0 0 0 0 0 0 0 0 0 2 3 3 
3 1 0 0 0 0 0 0 0 0 0 0 0 0 0 0 
0 0 0 0 0 0 0 0 0 0 0 0 0 1 1 1 1 2 2 1 1 1 0 0 0 0 0 0 0 0 0 0 
0 0 0 0 0 0 0 0 0 0 0 0 0 1 2 2 
2 1 0 0 0 0 0 0 0 0 0 0 0 0 0 0 
0 0 0 0 0 0 0 0 0 0 0 0 0 0 0 1 1 1 1 1 0 0 0 0 0 0 0 0 0 0 0 0 
0 0 0 0 0 0 0 0 0 0 0 0 0 1 1 1 
1 0 0 0 0 0 0 0 0 0 0 0 0 0 0 0 
0 0 0 0 0 0 0 0 0 0 0 0 0 0 0 1 1 0 0 0 0 0 0 0 0 0 0 0 0 0 0 0 
0 0 0 0 0 0 0 0 0 0 0 0 0 0 1 1 
0 0 0 0 0 0 0 0 0 0 0 0 0 0 0 0 
0 0 0 0 0 0 0 0 0 0 0 0 0 0 0 0 0 0 0 0 0 0 0 0 0 0 0 0 0 0 0 0 
0 0 0 0 0 0 0 0 0 0 0 0 0 0 0 0 
0 0 0 0 0 0 0 0 0 0 0 0 0 0 0 0 
0 0 0 0 0 0 0 0 0 0 0 0 0 0 0 0 0 0 0 0 0 0 0 0 0 0 0 0 0 0 0 0 
0 0 0 0 0 0 0 0 0 0 0 0 0 0 0 0 
0 0 0 0 0 0 0 0 0 0 0 0 0 0 0 0 
0 0 0 0 0 0 0 0 0 0 0 0 0 0 0 0 0 0 0 0 0 0 0 0 0 0 0 0 0 0 0 0 
0 0 0 0 0 0 0 0 0 0 0 0 0 0 0 0 
0 0 0 0 0 0 0 0 0 0 0 0 0 0 0 0 
0 0 0 0 0 0 0 0 0 0 0 0 0 0 0 0 0 0 0 0 0 0 0 0 0 0 0 0 0 0 0 0 
0 0 0 0 0 0 0 0 0 0 0 0 0 0 0 0 
0 0 0 0 0 0 0 0 0 0 0 0 0 0 0 0 
0 0 0 0 0 0 0 0 0 0 0 0 0 0 0 0 0 0 0 0 0 0 0 0 0 0 0 0 0 0 0 0 
0 0 0 0 0 0 0 0 0 0 0 0 0 0 0 0 
0 0 0 0 0 0 0 0 0 0 0 0 0 0 0 0 
0 0 0 0 0 0 0 0 0 0 0 0 0 0 0 0 0 0 0 0 0 0 0 0 0 0 0 0 0 0 0 0 
0 0 0 0 0 0 0 0 0 0 0 0 0 0 0 0 
0 0 0 0 0 0 0 0 0 0 0 0 0 0 0 0 
0 0 0 0 0 0 0 0 0 0 0 0 0 0 0 0 0 0 0 0 0 0 0 0 0 0 0 0 0 0 0 0 
0 0 0 0 0 0 0 0 0 0 0 0 0 0 0 0 
0 0 0 0 0 0 0 0 0 0 0 0 0 0 0 0 
0 0 0 0 0 0 0 0 0 0 0 0 0 0 0 0 0 0 0 0 0 0 0 0 0 0 0 0 0 0 0 0 
0 0 0 0 0 0 0 0 0 0 0 0 0 0 0 0 
0 0 0 0 0 0 0 0 0 0 0 0 0 0 0 0 
0 0 0 0 0 0 0 0 0 0 0 0 0 0 0 