P2
# Created by IrfanView
64 64
255
0 0 0 0 0 0 0 0 0 0 0 0 0 0 0 0 0 
0 0 0 0 0 0 0 0 0 0 0 0 0 0 0 0 
0 0 0 0 0 0 0 0 0 0 0 0 0 0 0 0 
0 0 0 0 0 0 0 0 0 0 0 0 0 0 0 0 0 0 0 0 0 0 0 0 0 0 0 0 0 0 0 0 
0 0 0 0 0 0 0 0 0 0 0 0 0 0 0 0 
0 0 0 0 0 0 0 0 0 0 0 0 0 0 0 0 
0 0 0 0 0 0 0 0 0 0 0 0 0 0 0 0 0 0 0 0 0 0 0 0 0 0 0 0 0 0 0 0 
0 0 0 0 0 0 0 0 0 0 0 0 0 1 1 1 
1 0 0 0 0 0 0 0 0 0 0 0 0 0 0 0 
0 0 0 0 0 0 0 0 0 0 0 0 0 0 0 0 0 0 0 0 0 0 0 0 0 0 0 0 0 0 0 0 
0 0 0 0 0 0 0 0 0 0 0 1 1 1 2 2 
1 1 1 0 0 0 0 0 0 0 0 0 0 0 0 0 
0 0 0 0 0 0 0 0 0 0 0 0 0 0 0 0 0 0 0 0 0 0 0 0 0 0 0 0 0 0 0 0 
0 0 0 0 0 0 0 0 0 1 1 2 2 2 2 2 
2 2 2 1 1 0 0 0 0 0 0 0 0 0 0 0 
0 0 0 0 0 0 0 0 0 0 0 0 0 0 0 0 0 0 0 0 0 0 0 0 0 0 0 0 0 0 0 0 
0 0 0 0 0 0 0 1 2 3 3 3 3 3 3 2 
2 2 2 2 2 1 1 0 0 0 0 0 0 0 0 0 
0 0 0 0 0 0 0 0 0 0 0 0 0 0 0 0 0 0 0 0 0 0 0 0 0 0 0 0 0 0 0 0 
0 0 0 0 0 1 3 4 5 5 4 4 3 3 2 2 
2 2 2 3 3 3 3 2 1 0 0 0 0 0 0 0 
0 0 0 0 0 0 0 0 0 0 0 0 0 0 0 0 0 0 0 0 0 0 0 0 0 0 0 0 0 0 0 0 
0 0 0 0 5 8 9 9 8 7 5 4 3 2 2 1 
1 1 2 2 3 4 5 5 5 4 2 0 0 0 0 0 
0 0 0 0 0 0 0 0 0 0 0 0 0 0 0 0 0 0 0 0 0 114 123 0 0 0 0 0 0 0 0 0 
0 0 6 12 15 16 15 13 11 8 6 3 2 1 0 0 
0 0 0 1 3 4 6 8 10 11 10 8 3 0 0 0 
0 0 0 0 0 0 0 0 0 0 0 0 0 0 0 0 0 0 0 0 168 255 255 199 0 0 0 0 0 0 0 0 
0 16 23 27 27 25 22 18 13 8 5 1 0 0 0 0 
0 0 0 0 1 4 7 11 14 17 19 19 16 11 3 0 
0 0 0 0 0 0 0 0 0 0 0 0 0 0 0 0 0 0 0 0 78 193 220 105 3 0 0 0 0 0 0 0 
0 41 45 45 42 37 29 22 14 7 2 0 0 0 0 0 
0 0 0 0 0 1 6 12 19 24 29 32 32 29 23 0 
0 0 0 0 0 0 0 0 0 0 0 0 0 0 0 26 33 41 45 20 0 0 0 0 13 33 25 16 11 8 8 8 
10 70 70 67 60 49 37 25 13 3 0 0 0 0 0 0 
0 0 0 0 0 0 3 12 22 32 40 46 49 49 46 12 
12 13 15 18 24 31 38 44 48 49 49 46 41 36 30 77 96 117 128 104 0 0 0 0 93 115 103 82 63 49 38 31 
27 104 102 94 81 64 44 26 9 0 0 0 0 0 0 0 
0 0 0 0 0 0 0 9 24 39 53 63 70 72 71 30 
36 43 53 66 81 97 112 122 128 130 127 120 107 92 77 117 147 179 204 210 181 138 135 174 200 193 166 134 106 82 64 51 
41 145 141 129 107 80 51 23 0 0 0 0 0 0 0 0 
0 0 0 0 0 0 0 1 23 46 67 84 94 97 95 45 
56 69 85 105 127 150 171 187 196 197 191 178 159 136 114 145 180 218 255 255 255 255 255 255 255 246 208 170 135 107 84 66 
215 224 220 200 165 120 71 26 0 0 0 0 0 0 0 0 
0 0 0 0 0 0 0 0 30 69 105 133 150 155 150 112 
71 88 108 132 158 185 210 229 239 241 232 215 192 166 140 160 196 235 255 255 255 255 255 255 255 255 228 188 152 121 96 217 
246 255 255 238 191 127 60 0 0 0 0 0 0 0 0 0 
0 0 0 0 0 0 0 0 8 61 110 146 166 168 156 138 
117 99 121 147 174 202 227 246 255 255 249 231 207 180 153 163 197 234 255 255 255 255 255 255 255 255 228 191 156 127 183 229 
255 255 255 255 222 131 35 0 0 0 0 0 0 0 0 0 
0 0 0 0 0 0 0 0 0 45 113 162 184 178 154 124 
95 74 126 151 177 203 226 244 254 255 246 230 207 182 156 157 188 220 252 255 255 255 255 255 255 248 216 183 152 114 162 228 
255 255 255 255 255 130 0 0 0 0 0 0 0 0 0 0 
0 0 0 0 0 0 0 0 0 23 119 186 206 185 139 90 
51 27 17 147 170 193 213 229 237 238 230 216 196 174 150 145 171 199 225 248 255 255 255 255 245 222 195 168 30 57 112 201 
255 255 255 255 255 123 0 0 0 0 0 0 0 0 0 0 
0 0 0 0 0 0 0 0 0 0 140 232 244 187 102 26 
0 0 0 0 157 176 193 206 213 213 207 195 179 159 139 122 151 174 195 213 226 233 233 225 211 193 171 0 0 0 20 133 
255 255 255 255 255 112 0 0 0 0 0 0 0 0 0 0 
0 0 0 0 0 0 0 0 0 0 204 255 255 185 30 0 
0 0 0 0 0 155 169 180 185 185 180 171 157 141 138 99 111 123 164 179 189 194 194 188 178 163 0 0 0 0 0 0 
255 255 255 255 255 103 0 0 0 0 0 0 0 0 0 0 
0 0 0 0 0 0 0 0 0 7 255 255 255 182 0 0 
0 0 0 0 0 0 6 152 157 157 153 109 111 110 109 77 86 94 99 100 96 86 67 38 0 0 0 0 0 0 0 0 
108 255 255 255 255 110 0 0 0 0 0 0 0 0 0 0 
0 0 0 0 0 0 0 0 0 160 255 255 255 186 0 0 
0 0 0 0 0 0 0 0 31 53 68 77 81 82 82 58 65 69 70 68 61 47 25 0 0 0 0 0 0 0 0 0 
0 255 255 255 255 150 0 0 0 0 0 0 0 0 0 0 
0 0 0 0 0 0 0 0 0 255 255 255 255 199 0 0 
0 0 0 0 0 0 0 0 0 22 39 50 56 58 58 42 46 48 48 43 33 17 0 0 0 0 0 0 0 0 0 0 
0 255 255 255 255 219 0 0 0 0 0 0 0 0 0 0 
0 0 0 0 0 0 0 0 0 255 255 255 255 210 0 0 
0 0 0 0 0 0 0 0 0 0 16 28 35 38 38 29 31 32 30 24 13 0 0 0 0 0 0 0 0 0 0 0 
0 6 255 255 255 255 0 0 0 0 0 0 0 0 0 0 
0 0 0 0 0 0 0 0 249 255 255 255 255 203 0 0 
0 0 0 0 0 0 0 0 0 0 0 11 19 22 21 18 20 20 16 10 0 0 0 0 0 0 0 0 0 0 0 0 
0 0 255 255 255 255 0 0 0 0 0 0 0 0 0 0 
0 0 0 0 0 0 0 0 255 255 255 255 255 183 0 0 
0 0 0 0 0 0 0 0 0 0 0 0 6 9 9 9 11 10 7 0 0 0 0 0 0 0 0 0 0 0 0 0 
0 0 255 255 255 229 0 0 0 0 0 0 0 0 0 0 
0 0 0 0 0 0 0 50 255 255 255 255 255 164 0 0 
0 0 0 0 0 0 0 0 0 0 0 0 0 0 0 3 5 4 0 0 0 0 0 0 0 0 0 0 0 0 0 0 
0 0 118 255 255 182 0 0 0 0 0 0 0 0 0 0 
0 0 0 0 0 0 0 123 255 255 255 255 255 146 0 0 
0 0 0 0 0 0 0 0 0 0 0 0 0 0 0 0 0 0 0 0 0 0 0 0 0 0 0 0 0 0 0 0 
0 0 64 206 231 140 0 0 0 0 0 0 0 0 0 0 
0 0 0 0 0 0 0 139 255 255 255 255 255 128 0 0 
0 0 0 0 0 0 0 0 0 0 0 0 0 0 0 0 0 0 0 0 0 0 0 0 0 0 0 0 0 0 0 0 
0 0 47 131 151 106 23 0 0 0 0 0 0 0 0 0 
0 0 0 0 0 0 16 126 250 255 255 255 255 110 0 0 
0 0 0 0 0 0 0 0 0 0 0 0 0 0 0 0 0 0 0 0 0 0 0 0 0 0 0 0 0 0 0 0 
0 0 40 90 104 79 28 0 0 0 0 0 0 0 0 0 
0 0 0 0 0 0 24 101 182 247 255 254 186 92 0 0 
0 0 0 0 0 0 0 0 0 0 0 0 0 0 0 0 0 0 0 0 0 0 0 0 0 0 0 0 0 0 0 0 
0 0 35 64 72 57 24 0 0 0 0 0 0 0 0 0 
0 0 0 0 0 0 20 74 127 168 185 172 132 75 16 0 
0 0 0 0 0 0 0 0 0 0 0 0 0 0 0 0 0 0 0 0 0 0 0 0 0 0 0 0 37 38 37 0 
0 3 28 45 49 38 16 0 0 0 0 0 0 0 0 0 
0 0 0 0 0 0 10 48 84 111 123 116 93 58 21 0 
30 31 30 0 0 0 0 0 0 0 0 0 0 0 0 0 0 1 1 1 1 1 0 0 0 0 41 46 49 50 49 46 
41 35 28 22 30 22 13 0 0 0 0 0 0 0 0 0 
0 0 0 0 0 0 0 25 53 69 78 13 19 25 30 35 
39 40 40 38 34 0 0 0 0 0 0 0 0 0 0 0 1 3 4 5 7 8 10 12 15 46 53 59 63 64 63 58 
51 43 34 25 17 10 5 0 0 0 0 0 0 0 0 0 
0 0 0 0 0 0 0 7 0 2 7 13 20 28 36 43 
48 50 50 48 44 38 9 6 5 3 2 1 0 0 0 1 3 5 7 10 12 16 20 25 47 57 66 73 77 79 76 70 
61 50 38 27 17 9 4 0 0 0 0 0 0 0 0 0 
0 0 0 0 0 0 0 0 0 0 4 11 20 30 41 50 
56 60 61 58 54 47 40 18 14 10 7 5 3 1 0 3 5 7 10 14 18 23 29 45 56 68 78 86 92 93 89 81 
69 55 40 27 15 6 0 0 0 0 0 0 0 0 0 0 
0 0 0 0 0 0 0 0 0 0 0 6 17 29 42 54 
63 69 70 68 63 55 47 38 22 16 12 9 6 3 1 4 7 9 13 17 22 29 40 52 65 77 89 99 104 105 99 88 
73 56 39 23 10 1 0 0 0 0 0 0 0 0 0 0 
0 0 0 0 0 0 0 0 0 0 0 0 9 24 40 54 
66 74 78 76 70 62 53 43 34 22 16 12 8 5 3 6 8 11 15 20 26 34 44 57 71 85 98 108 113 111 101 87 
70 51 33 15 2 0 0 0 0 0 0 0 0 0 0 0 
0 0 0 0 0 0 0 0 0 0 0 0 0 13 31 48 
63 74 80 80 75 67 57 47 37 26 20 15 11 7 5 7 9 13 16 22 28 37 47 61 75 89 103 112 114 106 90 72 
55 39 20 3 0 0 0 0 0 0 0 0 0 0 0 0 
0 0 0 0 0 0 0 0 0 0 0 0 0 0 15 32 
50 66 77 80 76 69 59 49 39 29 22 16 12 9 6 7 10 13 17 23 30 36 48 61 76 90 102 109 106 90 63 40 
29 20 5 0 0 0 0 0 0 0 0 0 0 0 0 0 
0 0 0 0 0 0 0 0 0 0 0 0 0 0 0 11 
29 50 67 74 73 67 58 48 39 29 23 17 13 10 7 8 10 14 18 23 30 35 47 59 72 85 96 100 92 68 31 5 
4 4 0 0 0 0 0 0 0 0 0 0 0 0 0 0 
0 0 0 0 0 0 0 0 0 0 0 0 0 0 0 0 
9 31 52 63 65 61 54 46 37 28 23 18 13 10 7 8 10 13 17 22 29 33 43 55 66 77 85 86 76 50 15 0 
0 0 0 0 0 0 0 0 0 0 0 0 0 0 0 0 
0 0 0 0 0 0 0 0 0 0 0 0 0 0 1 2 
0 15 35 48 53 52 48 41 33 26 22 17 13 10 7 8 10 13 16 21 26 29 38 48 57 65 70 69 59 39 15 2 
0 0 0 0 0 0 0 0 0 0 0 0 0 0 0 0 
0 0 0 0 0 0 0 0 0 0 0 0 0 0 0 0 
0 1 19 33 40 41 39 34 29 23 20 16 12 9 7 7 9 12 15 19 23 25 33 40 47 52 54 51 42 25 7 0 
0 0 0 0 0 0 0 0 0 0 0 0 0 0 0 0 
0 0 0 0 0 0 0 0 0 0 0 0 0 0 0 0 
0 0 2 16 26 30 30 27 23 19 17 14 11 9 7 7 8 11 13 16 20 24 26 31 36 38 38 33 23 9 0 0 
0 0 0 0 0 0 0 0 0 0 0 0 0 1 4 5 
4 0 0 0 0 0 0 0 0 0 0 0 0 0 0 0 
0 0 0 2 13 18 20 20 18 17 14 12 10 8 6 6 7 9 11 14 16 20 20 23 26 26 24 18 7 0 0 0 
0 0 0 0 0 0 0 0 0 0 0 0 0 2 5 6 
5 1 0 0 0 0 0 0 0 0 0 0 0 0 0 0 
0 0 0 0 2 9 12 13 13 13 11 9 8 7 5 5 6 8 9 11 13 15 17 16 17 16 12 6 0 0 0 0 
0 0 0 0 0 0 0 0 0 0 0 0 0 2 5 6 
5 1 0 0 0 0 0 0 0 0 0 0 0 0 0 0 
0 0 0 0 0 1 6 8 9 9 8 7 6 5 4 4 5 6 8 9 10 11 12 10 10 8 4 0 0 0 0 0 
0 0 0 0 0 0 0 0 0 0 0 0 0 2 4 5 
4 1 0 0 0 0 0 0 0 0 0 0 0 0 0 0 
0 0 0 0 0 0 1 4 5 6 6 5 5 4 4 4 4 5 6 7 7 8 8 7 5 3 0 0 0 0 0 0 
0 0 0 0 0 0 0 0 0 0 0 0 0 1 3 4 
3 0 0 0 0 0 0 0 0 0 0 0 0 0 0 0 
0 0 0 0 0 0 0 1 2 3 4 4 4 3 3 3 3 4 5 5 5 5 5 4 2 0 0 0 0 0 0 0 
0 0 0 0 0 0 0 0 0 0 0 0 0 0 2 3 
2 0 0 0 0 0 0 0 0 0 0 0 0 0 0 0 
0 0 0 0 0 0 0 0 0 1 2 2 2 2 2 2 3 3 3 3 3 3 2 1 0 0 0 0 0 0 0 0 
0 0 0 0 0 0 0 0 0 0 0 0 0 0 1 2 
1 0 0 0 0 0 0 0 0 0 0 0 0 0 0 0 
0 0 0 0 0 0 0 0 0 0 1 1 1 1 1 2 2 2 2 2 2 2 1 0 0 0 0 0 0 0 0 0 
0 0 0 0 0 0 0 0 0 0 0 0 0 0 1 1 
0 0 0 0 0 0 0 0 0 0 0 0 0 0 0 0 
0 0 0 0 0 0 0 0 0 0 0 0 1 1 1 1 1 1 1 1 1 0 0 0 0 0 0 0 0 0 0 0 
0 0 0 0 0 0 0 0 0 0 0 0 0 0 0 0 
0 0 0 0 0 0 0 0 0 0 0 0 0 0 0 0 
0 0 0 0 0 0 0 0 0 0 0 0 0 0 0 1 1 1 1 1 0 0 0 0 0 0 0 0 0 0 0 0 
0 0 0 0 0 0 0 0 0 0 0 0 0 0 0 0 
0 0 0 0 0 0 0 0 0 0 0 0 0 0 0 0 
0 0 0 0 0 0 0 0 0 0 0 0 0 0 0 0 0 0 0 0 0 0 0 0 0 0 0 0 0 0 0 0 
0 0 0 0 0 0 0 0 0 0 0 0 0 0 0 0 
0 0 0 0 0 0 0 0 0 0 0 0 0 0 0 0 
0 0 0 0 0 0 0 0 0 0 0 0 0 0 0 0 0 0 0 0 0 0 0 0 0 0 0 0 0 0 0 0 
0 0 0 0 0 0 0 0 0 0 0 0 0 0 0 0 
0 0 0 0 0 0 0 0 0 0 0 0 0 0 0 0 
0 0 0 0 0 0 0 0 0 0 0 0 0 0 0 0 0 0 0 0 0 0 0 0 0 0 0 0 0 0 0 0 
0 0 0 0 0 0 0 0 0 0 0 0 0 0 0 0 
0 0 0 0 0 0 0 0 0 0 0 0 0 0 0 0 
0 0 0 0 0 0 0 0 0 0 0 0 0 0 0 0 0 0 0 0 0 0 0 0 0 0 0 0 0 0 0 0 
0 0 0 0 0 0 0 0 0 0 0 0 0 0 0 0 
0 0 0 0 0 0 0 0 0 0 0 0 0 0 0 0 
0 0 0 0 0 0 0 0 0 0 0 0 0 0 0 0 0 0 0 0 0 0 0 0 0 0 0 0 0 0 0 0 
0 0 0 0 0 0 0 0 0 0 0 0 0 0 0 0 
0 0 0 0 0 0 0 0 0 0 0 0 0 0 0 0 
0 0 0 0 0 0 0 0 0 0 0 0 0 0 0 0 0 0 0 0 0 0 0 0 0 0 0 0 0 0 0 0 
0 0 0 0 0 0 0 0 0 0 0 0 0 0 0 0 
0 0 0 0 0 0 0 0 0 0 0 0 0 0 0 0 
0 0 0 0 0 0 0 0 0 0 0 0 0 0 0 0 0 0 0 0 0 0 0 0 0 0 0 0 0 0 0 0 
0 0 0 0 0 0 0 0 0 0 0 0 0 0 0 0 
0 0 0 0 0 0 0 0 0 0 0 0 0 0 0 0 
0 0 0 0 0 0 0 0 0 0 0 0 0 0 0 0 0 0 0 0 0 0 0 0 0 0 0 0 0 0 0 0 
0 0 0 0 0 0 0 0 0 0 0 0 0 0 0 0 
0 0 0 0 0 0 0 0 0 0 0 0 0 0 0 0 
0 0 0 0 0 0 0 0 0 0 0 0 0 0 0 0 0 0 0 0 0 0 0 0 0 0 0 0 0 0 0 0 
0 0 0 0 0 0 0 0 0 0 0 0 0 0 0 0 
0 0 0 0 0 0 0 0 0 0 0 0 0 0 0 0 
0 0 0 0 0 0 0 0 0 0 0 0 0 0 0 