P2
# Created by IrfanView
64 64
255
0 0 0 0 0 0 0 0 0 0 0 0 0 0 0 0 0 
0 0 0 0 0 0 0 0 0 0 0 0 0 0 0 0 
0 0 0 0 0 0 0 0 0 0 0 0 0 0 0 0 
0 0 0 0 0 0 0 0 0 0 0 0 0 0 0 0 0 0 0 0 0 0 0 0 0 0 0 0 0 0 0 0 
0 0 0 0 0 0 0 0 0 0 0 0 0 0 0 0 
0 0 0 0 0 0 0 0 0 0 0 0 0 0 0 0 
0 0 0 0 0 0 0 0 0 0 0 0 0 0 0 0 0 0 0 0 0 0 0 0 0 0 0 0 0 0 0 0 
0 0 0 0 0 0 0 0 0 0 0 0 0 0 0 0 
0 0 0 0 0 0 0 0 0 0 0 0 0 0 0 0 
0 0 0 0 0 0 0 0 0 0 0 0 0 0 0 0 0 0 0 0 0 0 0 0 0 0 0 0 0 0 0 0 
0 0 0 0 0 0 0 0 0 0 0 0 0 1 1 1 
1 1 0 0 0 0 0 0 0 0 0 0 0 0 0 0 
0 0 0 0 0 0 0 0 0 0 0 0 0 0 0 0 0 0 0 0 0 0 0 0 0 0 0 0 0 0 0 0 
0 0 0 0 0 0 0 0 0 0 1 1 1 1 1 1 
1 1 1 1 0 0 0 0 0 0 0 0 0 0 0 0 
0 0 0 0 0 0 0 0 0 0 0 0 0 0 0 0 0 0 0 0 0 0 0 0 0 0 0 0 0 0 0 0 
0 0 0 0 0 0 0 0 1 1 2 2 2 1 1 1 
1 1 1 1 1 1 0 0 0 0 0 0 0 0 0 0 
0 0 0 0 0 0 0 0 0 0 0 0 0 0 0 0 0 0 0 0 0 0 0 0 0 0 0 0 0 0 0 0 
0 0 0 0 0 0 2 3 3 3 3 2 2 1 1 1 
1 1 1 1 2 2 2 2 0 0 0 0 0 0 0 0 
0 0 0 0 0 0 0 0 0 0 0 0 0 0 0 0 0 0 0 0 0 0 0 0 0 0 0 0 0 0 0 0 
0 0 0 0 3 6 7 6 6 4 3 2 1 0 0 0 
0 0 0 1 2 3 4 4 5 4 1 0 0 0 0 0 
0 0 0 0 0 0 0 0 0 0 0 0 0 0 0 0 0 0 0 0 8 231 244 24 0 0 0 0 0 0 0 0 
0 0 3 9 12 13 12 10 8 5 3 0 0 0 0 0 
0 0 0 0 1 3 5 7 9 10 9 7 2 0 0 0 
0 0 0 0 0 0 0 0 0 0 0 0 0 0 0 0 0 0 0 0 255 255 255 255 0 0 0 0 0 0 0 0 
0 13 20 24 24 22 18 14 9 4 1 0 0 0 0 0 
0 0 0 0 0 1 5 9 13 17 18 18 16 10 0 0 
0 0 0 0 0 0 0 0 0 0 0 0 0 0 0 0 0 0 0 10 100 197 246 140 17 0 0 0 0 0 0 0 
0 37 40 40 37 31 24 16 9 2 0 0 0 0 0 0 
0 0 0 0 0 0 4 10 17 24 29 32 32 29 0 0 
0 0 0 0 0 0 0 0 0 0 0 0 0 0 0 28 36 44 47 7 0 0 0 0 1 34 28 19 13 9 9 9 
10 64 64 60 53 42 29 17 5 0 0 0 0 0 0 0 
0 0 0 0 0 0 0 9 20 31 40 47 51 51 12 11 
11 12 15 19 27 35 43 44 40 42 49 52 48 40 33 80 100 121 131 93 0 0 0 0 82 117 107 85 66 50 40 32 
27 96 93 84 71 53 33 14 0 0 0 0 0 0 0 0 
0 0 0 0 0 0 0 4 20 37 53 65 72 75 74 31 
38 47 59 74 93 111 125 128 125 127 133 133 122 105 87 121 151 184 209 210 168 110 106 160 199 198 171 138 109 85 66 52 
42 133 170 153 127 64 34 6 0 0 0 0 0 0 0 0 
0 0 0 0 0 0 0 0 16 42 66 122 97 101 101 48 
60 75 95 119 146 173 195 208 214 216 214 203 182 156 129 149 185 224 255 255 255 255 255 255 255 252 214 174 139 109 86 67 
196 203 197 176 140 94 46 1 0 0 0 0 0 0 0 0 
0 0 0 0 0 0 0 0 19 61 101 132 151 158 153 141 
77 97 120 149 181 213 241 255 255 255 255 248 221 189 158 163 200 241 255 255 255 255 255 255 255 255 233 192 155 124 98 188 
214 230 227 200 151 87 19 0 0 0 0 0 0 0 0 0 
0 0 0 0 0 0 0 0 0 43 97 140 163 166 155 136 
116 109 135 165 198 231 255 255 255 255 255 255 237 204 172 166 201 239 255 255 255 255 255 255 255 255 233 195 159 129 143 183 
225 255 255 228 158 66 0 0 0 0 0 0 0 0 0 0 
0 0 0 0 0 0 0 0 0 10 86 143 170 168 144 113 
85 65 140 168 199 230 255 255 255 255 255 255 235 205 174 160 191 224 255 255 255 255 255 255 255 253 220 186 155 63 99 154 
221 255 255 255 162 23 0 0 0 0 0 0 0 0 0 0 
0 0 0 0 0 0 0 0 0 0 63 144 174 155 110 62 
26 6 0 163 190 217 241 255 255 255 255 243 220 194 167 147 174 202 229 252 255 255 255 255 250 226 199 171 0 0 15 84 
187 255 255 255 163 0 0 0 0 0 0 0 0 0 0 0 
0 0 0 0 0 0 0 0 0 0 28 147 173 119 36 0 
0 0 0 0 174 196 216 231 239 239 232 218 199 177 153 129 154 177 198 217 230 237 237 229 215 196 174 0 0 0 0 0 
93 255 255 255 168 0 0 0 0 0 0 0 0 0 0 0 
0 0 0 0 0 0 0 0 0 0 0 171 173 40 0 0 
0 0 0 0 0 172 188 199 206 206 200 189 174 155 144 103 115 126 167 181 192 197 197 191 180 166 0 0 0 0 0 0 
0 245 255 255 200 0 0 0 0 0 0 0 0 0 0 0 
0 0 0 0 0 0 0 0 0 0 0 255 197 0 0 0 
0 0 0 0 0 0 159 168 173 173 169 160 121 118 113 80 88 95 99 99 94 81 58 23 0 0 0 0 0 0 0 0 
0 34 255 255 255 0 0 0 0 0 0 0 0 0 0 0 
0 0 0 0 0 0 0 0 0 0 150 255 255 0 0 0 
0 0 0 0 0 0 0 0 35 59 75 84 88 88 85 59 65 69 69 66 57 40 14 0 0 0 0 0 0 0 0 0 
0 0 255 255 255 0 0 0 0 0 0 0 0 0 0 0 
0 0 0 0 0 0 0 0 0 0 255 255 255 0 0 0 
0 0 0 0 0 0 0 0 0 24 43 54 60 62 61 42 46 47 46 40 28 10 0 0 0 0 0 0 0 0 0 0 
0 0 255 255 255 0 0 0 0 0 0 0 0 0 0 0 
0 0 0 0 0 0 0 0 0 0 255 255 255 0 0 0 
0 0 0 0 0 0 0 0 0 0 18 31 38 41 40 27 30 30 27 20 7 0 0 0 0 0 0 0 0 0 0 0 
0 0 30 255 255 0 0 0 0 0 0 0 0 0 0 0 
0 0 0 0 0 0 0 0 0 255 255 255 255 0 0 0 
0 0 0 0 0 0 0 0 0 0 0 12 20 24 24 15 18 17 13 6 0 0 0 0 0 0 0 0 0 0 0 0 
0 0 0 255 255 0 0 0 0 0 0 0 0 0 0 0 
0 0 0 0 0 0 0 0 0 255 255 255 255 0 0 0 
0 0 0 0 0 0 0 0 0 0 0 0 7 11 11 7 8 7 3 0 0 0 0 0 0 0 0 0 0 0 0 0 
0 0 0 255 255 0 0 0 0 0 0 0 0 0 0 0 
0 0 0 0 0 0 0 0 77 255 255 255 255 0 0 0 
0 0 0 0 0 0 0 0 0 0 0 0 0 1 2 0 2 1 0 0 0 0 0 0 0 0 0 0 0 0 0 0 
0 0 0 160 227 33 0 0 0 0 0 0 0 0 0 0 
0 0 0 0 0 0 0 0 184 255 255 255 255 0 0 0 
0 0 0 0 0 0 0 0 0 0 0 0 0 0 0 0 0 0 0 0 0 0 0 0 0 0 0 0 0 0 0 0 
0 0 0 107 162 77 0 0 0 0 0 0 0 0 0 0 
0 0 0 0 0 0 0 5 190 255 255 255 189 0 0 0 
0 0 0 0 0 0 0 0 0 0 0 0 0 0 0 0 0 0 0 0 0 0 0 0 0 0 0 0 0 0 0 0 
0 0 0 83 119 79 0 0 0 0 0 0 0 0 0 0 
0 0 0 0 0 0 0 42 162 255 255 255 144 0 0 0 
0 0 0 0 0 0 0 0 0 0 0 0 0 0 0 0 0 0 0 0 0 0 0 0 0 0 0 0 0 0 0 0 
0 0 5 67 89 68 16 0 0 0 0 0 0 0 0 0 
0 0 0 0 0 0 0 48 125 188 213 186 111 13 0 0 
0 0 0 0 0 0 0 0 0 0 0 0 0 0 0 0 0 0 0 0 0 0 0 0 0 0 0 0 0 0 0 0 
0 0 17 53 65 52 19 0 0 0 0 0 0 0 0 0 
0 0 0 0 0 0 0 40 91 130 145 129 85 26 0 0 
0 0 0 0 0 0 0 0 0 0 0 0 0 0 0 0 0 0 0 0 0 0 0 0 0 0 0 0 38 39 39 0 
0 0 19 40 46 37 14 0 0 0 0 0 0 0 0 0 
0 0 0 0 0 0 0 27 61 87 97 89 64 28 0 0 
34 35 34 0 0 0 0 0 0 0 0 0 0 0 0 0 0 0 0 0 0 0 0 0 0 0 43 48 51 52 51 48 
42 36 29 21 29 22 6 0 0 0 0 0 0 0 0 0 
0 0 0 0 0 0 0 13 36 54 62 16 22 29 35 41 
44 46 45 43 39 0 0 0 0 0 0 0 0 0 0 0 0 2 3 4 5 7 9 11 13 48 55 61 65 66 65 60 
52 43 34 24 16 9 4 0 0 0 0 0 0 0 0 0 
0 0 0 0 0 0 0 1 0 4 10 17 25 34 42 50 
55 57 57 54 49 43 9 7 5 4 2 1 0 0 0 0 2 4 6 9 11 15 19 25 49 59 68 76 80 81 79 72 
62 50 38 26 16 8 2 0 0 0 0 0 0 0 0 0 
0 0 0 0 0 0 0 0 0 0 7 15 26 37 49 58 
66 69 69 66 61 53 44 20 15 11 8 6 3 1 0 2 4 7 9 13 17 22 29 47 59 70 81 90 95 96 92 82 
70 54 39 25 13 4 0 0 0 0 0 0 0 0 0 0 
0 0 0 0 0 0 0 0 0 0 1 11 24 38 52 65 
75 80 81 78 71 63 53 43 24 18 14 10 7 4 2 4 6 9 12 16 22 29 42 54 67 81 93 103 108 107 100 88 
72 54 36 20 6 0 0 0 0 0 0 0 0 0 0 0 
0 0 0 0 0 0 0 0 0 0 0 3 17 33 50 66 
79 88 90 88 80 71 60 49 38 24 18 13 10 6 4 5 8 11 15 19 26 34 46 60 74 88 102 112 115 111 98 82 
64 46 27 10 0 0 0 0 0 0 0 0 0 0 0 0 
0 0 0 0 0 0 0 0 0 0 0 0 5 22 40 57 
74 87 94 93 87 77 65 53 41 29 22 16 12 8 5 6 9 12 16 22 28 37 49 63 78 93 106 115 114 99 74 51 
38 28 13 0 0 0 0 0 0 0 0 0 0 0 0 0 
0 0 0 0 0 0 0 0 0 0 0 0 0 6 19 32 
52 75 90 94 89 79 68 55 44 33 24 18 14 10 7 7 10 13 17 23 30 37 50 63 78 93 105 110 101 69 18 0 
0 6 0 0 0 0 0 0 0 0 0 0 0 0 0 0 
0 0 0 0 0 0 0 0 0 0 0 0 0 0 0 0 
12 49 76 87 86 78 67 55 44 33 26 19 15 11 8 7 10 13 18 23 30 37 48 61 75 88 97 99 81 31 0 0 
0 1 0 0 0 0 0 0 0 0 0 0 0 0 0 0 
0 0 0 0 0 0 0 0 0 0 0 0 0 13 22 0 
0 20 58 75 77 72 63 52 42 32 26 20 15 11 8 7 10 13 17 22 29 34 45 56 68 78 85 83 63 14 0 0 
3 19 0 0 0 0 0 0 0 0 0 0 0 0 0 0 
0 0 0 0 0 0 0 0 0 0 0 0 0 44 104 37 
0 7 41 59 65 62 56 47 38 30 25 19 14 11 8 7 10 13 16 21 26 30 39 49 58 66 70 66 50 18 0 0 
35 11 0 0 0 0 0 0 0 0 0 0 0 0 0 0 
0 0 0 0 0 0 0 0 0 0 0 0 0 18 84 57 
5 5 26 43 50 50 46 40 33 26 22 17 14 11 8 7 9 12 15 19 23 26 33 40 47 52 53 48 35 15 0 0 
0 0 0 0 0 0 0 0 0 0 0 0 0 0 0 0 
0 0 0 0 0 0 0 0 0 0 0 0 0 0 0 0 
0 0 10 25 34 37 36 32 27 22 19 15 12 10 7 6 8 10 13 16 20 24 26 31 35 37 36 29 17 1 0 0 
0 0 0 0 0 0 0 0 0 0 0 0 0 0 0 0 
0 0 0 0 0 0 0 0 0 0 0 0 0 0 0 0 
0 0 0 9 19 24 26 24 21 20 16 13 11 9 7 6 7 9 11 13 16 19 20 23 25 25 21 13 1 0 0 0 
0 0 0 0 0 0 0 0 0 0 0 0 0 0 0 0 
0 0 0 0 0 0 0 0 0 0 0 0 0 0 0 0 
0 0 0 0 7 13 16 17 15 15 13 11 9 7 6 5 6 8 9 11 13 15 14 16 16 14 9 1 0 0 0 0 
0 0 0 0 0 0 0 0 0 0 0 0 0 0 0 0 
0 0 0 0 0 0 0 0 0 0 0 0 0 0 0 0 
0 0 0 0 0 5 9 10 10 11 10 9 7 6 5 4 5 6 7 8 10 11 11 10 9 6 1 0 0 0 0 0 
0 0 0 0 0 0 0 0 0 0 0 0 0 0 0 1 
0 0 0 0 0 0 0 0 0 0 0 0 0 0 0 0 
0 0 0 0 0 0 3 5 7 7 7 6 6 5 4 4 4 5 6 6 7 7 7 6 4 1 0 0 0 0 0 0 
0 0 0 0 0 0 0 0 0 0 0 0 0 0 0 0 
0 0 0 0 0 0 0 0 0 0 0 0 0 0 0 0 
0 0 0 0 0 0 0 2 4 4 5 5 4 4 3 3 3 4 4 5 5 5 4 3 1 0 0 0 0 0 0 0 
0 0 0 0 0 0 0 0 0 0 0 0 0 0 0 0 
0 0 0 0 0 0 0 0 0 0 0 0 0 0 0 0 
0 0 0 0 0 0 0 0 1 2 3 3 3 3 2 2 3 3 3 3 3 3 2 0 0 0 0 0 0 0 0 0 
0 0 0 0 0 0 0 0 0 0 0 0 0 0 0 0 
0 0 0 0 0 0 0 0 0 0 0 0 0 0 0 0 
0 0 0 0 0 0 0 0 0 1 1 2 2 2 2 2 2 2 2 2 2 1 0 0 0 0 0 0 0 0 0 0 
0 0 0 0 0 0 0 0 0 0 0 0 0 0 0 0 
0 0 0 0 0 0 0 0 0 0 0 0 0 0 0 0 
0 0 0 0 0 0 0 0 0 0 0 1 1 1 1 1 1 1 1 1 1 0 0 0 0 0 0 0 0 0 0 0 
0 0 0 0 0 0 0 0 0 0 0 0 0 0 0 0 
0 0 0 0 0 0 0 0 0 0 0 0 0 0 0 0 
0 0 0 0 0 0 0 0 0 0 0 0 0 1 1 1 1 1 1 0 0 0 0 0 0 0 0 0 0 0 0 0 
0 0 0 0 0 0 0 0 0 0 0 0 0 0 0 0 
0 0 0 0 0 0 0 0 0 0 0 0 0 0 0 0 
0 0 0 0 0 0 0 0 0 0 0 0 0 0 0 0 0 0 0 0 0 0 0 0 0 0 0 0 0 0 0 0 
0 0 0 0 0 0 0 0 0 0 0 0 0 0 0 0 
0 0 0 0 0 0 0 0 0 0 0 0 0 0 0 0 
0 0 0 0 0 0 0 0 0 0 0 0 0 0 0 0 0 0 0 0 0 0 0 0 0 0 0 0 0 0 0 0 
0 0 0 0 0 0 0 0 0 0 0 0 0 0 0 0 
0 0 0 0 0 0 0 0 0 0 0 0 0 0 0 0 
0 0 0 0 0 0 0 0 0 0 0 0 0 0 0 0 0 0 0 0 0 0 0 0 0 0 0 0 0 0 0 0 
0 0 0 0 0 0 0 0 0 0 0 0 0 0 0 0 
0 0 0 0 0 0 0 0 0 0 0 0 0 0 0 0 
0 0 0 0 0 0 0 0 0 0 0 0 0 0 0 0 0 0 0 0 0 0 0 0 0 0 0 0 0 0 0 0 
0 0 0 0 0 0 0 0 0 0 0 0 0 0 0 0 
0 0 0 0 0 0 0 0 0 0 0 0 0 0 0 0 
0 0 0 0 0 0 0 0 0 0 0 0 0 0 0 0 0 0 0 0 0 0 0 0 0 0 0 0 0 0 0 0 
0 0 0 0 0 0 0 0 0 0 0 0 0 0 0 0 
0 0 0 0 0 0 0 0 0 0 0 0 0 0 0 0 
0 0 0 0 0 0 0 0 0 0 0 0 0 0 0 0 0 0 0 0 0 0 0 0 0 0 0 0 0 0 0 0 
0 0 0 0 0 0 0 0 0 0 0 0 0 0 0 0 
0 0 0 0 0 0 0 0 0 0 0 0 0 0 0 0 
0 0 0 0 0 0 0 0 0 0 0 0 0 0 0 0 0 0 0 0 0 0 0 0 0 0 0 0 0 0 0 0 
0 0 0 0 0 0 0 0 0 0 0 0 0 0 0 0 
0 0 0 0 0 0 0 0 0 0 0 0 0 0 0 0 
0 0 0 0 0 0 0 0 0 0 0 0 0 0 0 0 0 0 0 0 0 0 0 0 0 0 0 0 0 0 0 0 
0 0 0 0 0 0 0 0 0 0 0 0 0 0 0 0 
0 0 0 0 0 0 0 0 0 0 0 0 0 0 0 0 
0 0 0 0 0 0 0 0 0 0 0 0 0 0 0 0 0 0 0 0 0 0 0 0 0 0 0 0 0 0 0 0 
0 0 0 0 0 0 0 0 0 0 0 0 0 0 0 0 
0 0 0 0 0 0 0 0 0 0 0 0 0 0 0 0 
0 0 0 0 0 0 0 0 0 0 0 0 0 0 0 