P2
# Created by IrfanView
64 64
255
0 0 0 0 0 0 0 0 0 0 0 0 0 0 0 0 0 
0 0 0 0 0 0 0 0 0 0 0 0 0 0 0 0 
0 0 0 0 0 0 0 0 0 0 0 0 0 0 0 0 
0 0 0 0 0 0 0 0 0 0 0 0 0 0 0 0 0 0 0 0 0 0 0 0 0 0 0 0 0 0 0 0 
0 0 0 0 0 0 0 0 0 0 0 0 0 0 0 0 
0 0 0 0 0 0 0 0 0 0 0 0 0 0 0 0 
0 0 0 0 0 0 0 0 0 0 0 0 0 0 0 0 0 0 0 0 0 0 0 0 0 0 0 0 0 0 0 0 
0 0 0 0 0 0 0 0 0 0 0 0 0 0 0 0 
0 0 0 0 0 0 0 0 0 0 0 0 0 0 0 0 
0 0 0 0 0 0 0 0 0 0 0 0 0 0 0 0 0 0 0 0 0 0 0 0 0 0 0 0 0 0 0 0 
0 0 0 0 0 0 0 0 0 0 0 0 0 0 0 1 
0 0 0 0 0 0 0 0 0 0 0 0 0 0 0 0 
0 0 0 0 0 0 0 0 0 0 0 0 0 0 0 0 0 0 0 0 0 0 0 0 0 0 0 0 0 0 0 0 
0 0 0 0 0 0 0 0 0 0 0 0 1 1 1 1 
1 1 1 0 0 0 0 0 0 0 0 0 0 0 0 0 
0 0 0 0 0 0 0 0 0 0 0 0 0 0 0 0 0 0 0 0 0 0 0 0 0 0 0 0 0 0 0 0 
0 0 0 0 0 0 0 0 0 1 1 1 1 1 1 1 
1 1 1 1 1 0 0 0 0 0 0 0 0 0 0 0 
0 0 0 0 0 0 0 0 0 0 0 0 0 0 0 0 0 0 0 0 0 0 0 0 0 0 0 0 0 0 0 0 
0 0 0 0 0 0 1 2 2 2 2 1 1 0 0 0 
0 0 0 1 1 2 2 1 0 0 0 0 0 0 0 0 
0 0 0 0 0 0 0 0 0 0 0 0 0 0 0 0 0 0 0 0 0 0 0 0 0 0 0 0 0 0 0 0 
0 0 0 0 2 4 5 5 4 3 2 1 0 0 0 0 
0 0 0 0 1 2 3 4 4 3 1 0 0 0 0 0 
0 0 0 0 0 0 0 0 0 0 0 0 0 0 0 0 0 0 0 0 0 84 92 0 0 0 0 0 0 0 0 0 
0 0 2 8 11 11 10 8 6 3 1 0 0 0 0 0 
0 0 0 0 0 2 5 7 9 10 9 7 1 0 0 0 
0 0 0 0 0 0 0 0 0 0 0 0 0 0 0 0 0 0 0 0 136 255 255 163 0 0 0 0 0 0 0 0 
0 11 18 21 21 19 15 11 6 2 0 0 0 0 0 0 
0 0 0 0 0 1 5 9 14 17 19 19 16 10 0 0 
0 0 0 0 0 0 0 0 58 54 0 0 0 0 0 0 0 0 0 0 58 132 152 79 0 0 0 0 0 0 0 0 
0 33 37 36 33 27 20 12 5 0 0 0 0 0 0 0 
0 0 0 0 0 0 3 10 18 25 30 33 34 31 0 0 
0 0 0 0 0 0 0 9 37 34 5 0 0 0 0 29 37 45 49 24 0 0 0 0 17 37 30 20 14 11 9 10 
11 59 59 54 47 36 24 11 0 0 0 0 0 0 0 0 
0 0 0 0 0 0 0 9 20 32 42 50 54 54 11 11 
10 11 14 20 29 38 38 9 0 0 13 46 51 44 36 79 99 121 133 110 13 0 0 3 99 120 106 85 66 51 40 33 
27 87 84 76 62 44 25 7 0 0 0 0 0 0 0 0 
0 0 0 0 0 0 0 3 20 39 56 69 77 80 27 32 
39 49 63 81 102 119 121 93 53 56 100 131 132 115 95 119 149 181 208 215 189 148 145 181 205 197 169 137 108 84 66 52 
42 120 156 139 113 51 22 0 0 0 0 0 0 0 0 0 
0 0 0 0 0 0 0 0 15 43 103 128 145 109 109 51 
64 81 103 130 160 189 207 207 199 201 213 216 200 172 142 147 182 220 255 255 255 255 255 255 255 248 211 172 137 108 85 162 
176 182 176 154 118 74 27 0 0 0 0 0 0 0 0 0 
0 0 0 0 0 0 0 0 18 62 105 139 160 167 162 149 
82 104 131 163 199 235 255 255 255 255 255 255 243 208 172 161 197 237 255 255 255 255 255 255 255 255 229 189 153 122 137 162 
185 198 193 166 117 55 0 0 0 0 0 0 0 0 0 0 
0 0 0 0 0 0 0 0 0 40 99 145 171 176 164 144 
122 117 146 180 217 254 255 255 255 255 255 255 255 224 187 164 198 235 255 255 255 255 255 255 255 255 229 192 157 83 109 143 
180 206 209 175 106 16 0 0 0 0 0 0 0 0 0 0 
0 0 0 0 0 0 0 0 0 0 80 145 177 175 151 119 
89 67 151 183 218 252 255 255 255 255 255 255 255 223 189 157 188 221 253 255 255 255 255 255 255 249 216 184 13 23 49 93 
150 202 220 179 77 0 0 0 0 0 0 0 0 0 0 0 
0 0 0 0 0 0 0 0 0 0 42 136 173 157 111 61 
24 3 0 175 206 236 255 255 255 255 255 255 240 210 180 145 172 199 226 248 255 255 255 255 246 223 196 0 0 0 0 0 
72 169 224 178 19 0 0 0 0 0 0 0 0 0 0 0 
0 0 0 0 0 0 0 0 0 0 0 114 154 103 18 0 
0 0 0 0 187 212 234 251 255 255 252 236 215 190 165 133 152 174 195 213 227 233 233 226 212 193 0 0 0 0 0 0 
0 71 216 177 0 0 0 0 0 0 0 0 0 0 0 0 
0 0 0 0 0 0 0 0 0 0 0 77 106 0 0 0 
0 0 0 0 0 185 202 215 222 223 216 204 187 167 145 106 117 126 165 179 189 195 194 189 178 163 0 0 0 0 0 0 
0 0 176 199 0 0 0 0 0 0 0 0 0 0 0 0 
0 0 0 0 0 0 0 0 0 0 0 41 0 0 0 0 
0 0 0 0 0 157 170 181 186 186 181 172 158 123 116 81 89 94 97 96 89 74 49 11 0 0 0 0 0 0 0 0 
0 0 33 255 0 0 0 0 0 0 0 0 0 0 0 0 
0 0 0 0 0 0 0 0 0 0 0 104 0 0 0 0 
0 0 0 0 0 0 0 2 41 67 82 91 93 92 88 59 65 67 67 63 52 34 5 0 0 0 0 0 0 0 0 0 
0 0 0 255 0 0 0 0 0 0 0 0 0 0 0 0 
0 0 0 0 0 0 0 0 0 0 0 255 0 0 0 0 
0 0 0 0 0 0 0 0 0 28 47 59 64 65 63 40 44 46 43 37 24 3 0 0 0 0 0 0 0 0 0 0 
0 0 0 255 0 0 0 0 0 0 0 0 0 0 0 0 
0 0 0 0 0 0 0 0 0 0 0 255 0 0 0 0 
0 0 0 0 0 0 0 0 0 0 20 33 41 43 43 25 28 28 25 17 3 0 0 0 0 0 0 0 0 0 0 0 
0 0 0 254 0 0 0 0 0 0 0 0 0 0 0 0 
0 0 0 0 0 0 0 0 0 0 255 255 0 0 0 0 
0 0 0 0 0 0 0 0 0 0 0 14 22 26 26 13 15 15 11 2 0 0 0 0 0 0 0 0 0 0 0 0 
0 0 0 93 0 0 0 0 0 0 0 0 0 0 0 0 
0 0 0 0 0 0 0 0 0 0 255 255 0 0 0 0 
0 0 0 0 0 0 0 0 0 0 0 0 9 13 13 4 6 5 1 0 0 0 0 0 0 0 0 0 0 0 0 0 
0 0 0 96 227 0 0 0 0 0 0 0 0 0 0 0 
0 0 0 0 0 0 0 0 0 123 255 255 0 0 0 0 
0 0 0 0 0 0 0 0 0 0 0 0 0 3 4 0 0 0 0 0 0 0 0 0 0 0 0 0 0 0 0 0 
0 0 0 104 221 24 0 0 0 0 0 0 0 0 0 0 
0 0 0 0 0 0 0 0 0 231 255 255 0 0 0 0 
0 0 0 0 0 0 0 0 0 0 0 0 0 0 0 0 0 0 0 0 0 0 0 0 0 0 0 0 0 0 0 0 
0 0 0 100 177 94 0 0 0 0 0 0 0 0 0 0 
0 0 0 0 0 0 0 0 38 213 255 225 0 0 0 0 
0 0 0 0 0 0 0 0 0 0 0 0 0 0 0 0 0 0 0 0 0 0 0 0 0 0 0 0 0 0 0 0 
0 0 0 89 136 98 8 0 0 0 0 0 0 0 0 0 
0 0 0 0 0 0 0 0 70 169 212 161 28 0 0 0 
0 0 0 0 0 0 0 0 0 0 0 0 0 0 0 0 0 0 0 0 0 0 0 0 0 0 0 0 0 0 0 0 
0 0 4 75 103 83 29 0 0 0 0 0 0 0 0 0 
0 0 0 0 0 0 0 0 69 127 149 119 43 0 0 0 
0 0 0 0 0 0 0 0 0 0 0 0 0 0 0 0 0 0 0 0 0 0 0 0 0 0 0 0 0 0 0 0 
0 0 19 60 76 64 30 0 0 0 0 0 0 0 0 0 
0 0 0 0 0 0 0 8 55 92 105 88 44 0 0 0 
0 0 0 0 0 0 0 0 0 0 0 0 0 0 0 0 0 0 0 0 0 0 0 0 0 0 0 0 38 39 39 0 
0 0 22 45 54 45 22 0 0 0 0 0 0 0 0 0 
0 0 0 0 0 0 0 6 39 63 72 63 38 3 0 0 
37 38 37 0 0 0 0 0 0 0 0 0 0 0 0 0 0 0 0 0 0 0 0 0 0 0 43 48 51 52 51 47 
42 35 28 20 35 28 11 0 0 0 0 0 0 0 0 0 
0 0 0 0 0 0 0 2 22 39 46 18 25 32 39 45 
48 50 49 46 42 0 0 0 0 0 0 0 0 0 0 0 0 0 2 3 4 6 7 9 40 48 55 61 65 66 64 59 
51 42 32 23 15 8 3 0 0 0 0 0 0 0 0 0 
0 0 0 0 0 0 0 0 2 6 12 20 29 39 48 55 
60 63 62 59 53 46 38 8 6 4 3 2 1 0 0 0 1 3 5 8 10 14 18 39 49 59 68 75 80 81 77 70 
60 48 35 23 13 5 0 0 0 0 0 0 0 0 0 0 
0 0 0 0 0 0 0 0 0 3 10 20 31 43 55 66 
73 76 76 72 66 57 48 38 17 13 9 7 4 2 0 1 3 6 9 12 16 21 28 47 59 71 81 89 94 95 90 80 
67 51 35 21 9 1 0 0 0 0 0 0 0 0 0 0 
0 0 0 0 0 0 0 0 0 0 5 16 30 45 60 74 
84 89 89 85 78 68 57 46 27 20 15 11 8 5 2 3 5 8 12 16 21 28 42 54 67 80 92 102 107 105 97 84 
67 49 31 15 2 0 0 0 0 0 0 0 0 0 0 0 
0 0 0 0 0 0 0 0 0 0 0 9 24 42 60 76 
89 98 100 97 88 77 65 52 41 26 20 15 11 7 5 4 7 10 14 19 25 33 46 60 74 88 101 110 113 106 91 73 
56 39 20 3 0 0 0 0 0 0 0 0 0 0 0 0 
0 0 0 0 0 0 0 0 0 0 0 0 13 31 48 65 
83 98 105 104 96 84 71 57 45 32 24 18 13 9 6 6 8 12 16 21 28 37 49 63 77 92 105 112 108 88 56 30 
22 18 5 0 0 0 0 0 0 0 0 0 0 0 0 0 
0 0 0 0 0 0 0 0 0 0 0 0 0 12 18 25 
50 80 100 105 99 87 74 60 47 35 26 20 15 11 8 6 9 12 17 22 29 37 50 63 78 92 103 105 91 46 0 0 
0 0 0 0 0 0 0 0 0 0 0 0 0 0 0 0 
0 0 0 0 0 0 0 0 0 0 0 0 0 0 0 0 
0 41 83 98 96 86 74 60 48 36 28 21 16 12 8 7 10 13 17 22 29 36 48 61 74 86 95 93 67 0 0 0 
0 23 0 0 0 0 0 0 0 0 0 0 0 0 0 0 
0 0 0 0 0 0 0 0 0 0 0 0 0 42 3 0 
0 0 60 84 88 81 70 57 46 35 28 21 16 12 9 7 10 13 17 22 28 34 44 55 66 76 82 77 49 0 0 0 
151 98 0 0 0 0 0 0 0 0 0 0 0 0 0 0 
0 0 0 0 0 0 0 0 0 0 0 0 0 128 255 0 
0 0 43 69 75 71 62 52 42 32 27 20 16 12 9 7 9 12 16 20 26 30 39 48 56 63 66 60 39 1 0 63 
173 78 0 0 0 0 0 0 0 0 0 0 0 0 0 0 
0 0 0 0 0 0 0 0 0 0 0 0 0 92 227 128 
0 1 32 52 59 58 52 45 37 29 24 19 15 11 9 7 9 11 14 18 23 25 32 39 45 49 49 42 26 7 0 26 
37 0 0 0 0 0 0 0 0 0 0 0 0 0 0 0 
0 0 0 0 0 0 0 0 0 0 0 0 0 0 44 35 
1 1 18 34 42 44 41 36 30 24 21 17 13 11 8 6 8 10 12 15 19 20 26 30 33 35 32 24 10 0 0 0 
0 0 0 0 0 0 0 0 0 0 0 0 0 0 0 0 
0 0 0 0 0 0 0 0 0 0 0 0 0 0 0 0 
0 0 2 17 26 30 30 28 24 19 18 14 12 9 7 5 7 9 11 13 15 18 19 22 23 22 17 8 0 0 0 0 
0 0 0 0 0 0 0 0 0 0 0 0 0 0 0 0 
0 0 0 0 0 0 0 0 0 0 0 0 0 0 0 0 
0 0 0 2 12 18 20 20 17 17 14 12 10 8 6 5 6 7 9 10 12 14 13 14 14 11 6 0 0 0 0 0 
0 0 0 0 0 0 0 0 0 0 0 0 0 0 0 0 
0 0 0 0 0 0 0 0 0 0 0 0 0 0 0 0 
0 0 0 0 2 8 12 13 12 12 11 9 8 7 5 4 5 6 7 8 9 10 10 9 7 4 0 0 0 0 0 0 
0 0 0 0 0 0 0 0 0 0 0 0 0 0 0 0 
0 0 0 0 0 0 0 0 0 0 0 0 0 0 0 0 
0 0 0 0 0 1 5 7 9 9 8 7 6 5 5 3 4 5 5 6 6 6 6 5 2 0 0 0 0 0 0 0 
0 0 0 0 0 0 0 0 0 0 0 0 0 0 0 0 
0 0 0 0 0 0 0 0 0 0 0 0 0 0 0 0 
0 0 0 0 0 0 1 4 5 6 6 5 5 4 4 3 3 3 4 4 4 4 3 2 0 0 0 0 0 0 0 0 
0 0 0 0 0 0 0 0 0 0 0 0 0 0 0 0 
0 0 0 0 0 0 0 0 0 0 0 0 0 0 0 0 
0 0 0 0 0 0 0 1 2 3 3 4 3 3 3 2 2 3 3 3 2 2 1 0 0 0 0 0 0 0 0 0 
0 0 0 0 0 0 0 0 0 0 0 0 0 0 0 0 
0 0 0 0 0 0 0 0 0 0 0 0 0 0 0 0 
0 0 0 0 0 0 0 0 0 1 2 2 2 2 2 1 2 2 2 2 1 1 0 0 0 0 0 0 0 0 0 0 
0 0 0 0 0 0 0 0 0 0 0 0 0 0 0 0 
0 0 0 0 0 0 0 0 0 0 0 0 0 0 0 0 
0 0 0 0 0 0 0 0 0 0 1 1 1 1 1 1 1 1 1 1 0 0 0 0 0 0 0 0 0 0 0 0 
0 0 0 0 0 0 0 0 0 0 0 0 0 0 0 0 
0 0 0 0 0 0 0 0 0 0 0 0 0 0 0 0 
0 0 0 0 0 0 0 0 0 0 0 0 1 1 1 1 1 0 0 0 0 0 0 0 0 0 0 0 0 0 0 0 
0 0 0 0 0 0 0 0 0 0 0 0 0 0 0 0 
0 0 0 0 0 0 0 0 0 0 0 0 0 0 0 0 
0 0 0 0 0 0 0 0 0 0 0 0 0 0 0 0 0 0 0 0 0 0 0 0 0 0 0 0 0 0 0 0 
0 0 0 0 0 0 0 0 0 0 0 0 0 0 0 0 
0 0 0 0 0 0 0 0 0 0 0 0 0 0 0 0 
0 0 0 0 0 0 0 0 0 0 0 0 0 0 0 0 0 0 0 0 0 0 0 0 0 0 0 0 0 0 0 0 
0 0 0 0 0 0 0 0 0 0 0 0 0 0 0 0 
0 0 0 0 0 0 0 0 0 0 0 0 0 0 0 0 
0 0 0 0 0 0 0 0 0 0 0 0 0 0 0 0 0 0 0 0 0 0 0 0 0 0 0 0 0 0 0 0 
0 0 0 0 0 0 0 0 0 0 0 0 0 0 0 0 
0 0 0 0 0 0 0 0 0 0 0 0 0 0 0 0 
0 0 0 0 0 0 0 0 0 0 0 0 0 0 0 0 0 0 0 0 0 0 0 0 0 0 0 0 0 0 0 0 
0 0 0 0 0 0 0 0 0 0 0 0 0 0 0 0 
0 0 0 0 0 0 0 0 0 0 0 0 0 0 0 0 
0 0 0 0 0 0 0 0 0 0 0 0 0 0 0 0 0 0 0 0 0 0 0 0 0 0 0 0 0 0 0 0 
0 0 0 0 0 0 0 0 0 0 0 0 0 0 0 0 
0 0 0 0 0 0 0 0 0 0 0 0 0 0 0 0 
0 0 0 0 0 0 0 0 0 0 0 0 0 0 0 0 0 0 0 0 0 0 0 0 0 0 0 0 0 0 0 0 
0 0 0 0 0 0 0 0 0 0 0 0 0 0 0 0 
0 0 0 0 0 0 0 0 0 0 0 0 0 0 0 0 
0 0 0 0 0 0 0 0 0 0 0 0 0 0 0 0 0 0 0 0 0 0 0 0 0 0 0 0 0 0 0 0 
0 0 0 0 0 0 0 0 0 0 0 0 0 0 0 0 
0 0 0 0 0 0 0 0 0 0 0 0 0 0 0 0 
0 0 0 0 0 0 0 0 0 0 0 0 0 0 0 0 0 0 0 0 0 0 0 0 0 0 0 0 0 0 0 0 
0 0 0 0 0 0 0 0 0 0 0 0 0 0 0 0 
0 0 0 0 0 0 0 0 0 0 0 0 0 0 0 0 
0 0 0 0 0 0 0 0 0 0 0 0 0 0 0 0 0 0 0 0 0 0 0 0 0 0 0 0 0 0 0 0 
0 0 0 0 0 0 0 0 0 0 0 0 0 0 0 0 
0 0 0 0 0 0 0 0 0 0 0 0 0 0 0 0 
0 0 0 0 0 0 0 0 0 0 0 0 0 0 0 