P2
# Created by IrfanView
64 64
255
0 0 0 0 0 0 0 0 0 0 0 0 0 0 0 0 0 
0 0 0 0 0 0 0 0 0 0 0 0 0 0 0 0 
0 0 0 0 0 0 0 0 0 0 0 0 0 0 0 0 
0 0 0 0 0 0 0 0 0 0 0 0 0 0 0 0 0 0 0 0 0 0 0 0 0 0 0 0 0 0 0 0 
0 0 0 0 0 0 0 0 0 0 0 0 0 0 0 0 
0 0 0 0 0 0 0 0 0 0 0 0 0 0 0 0 
0 0 0 0 0 0 0 0 0 0 0 0 0 0 0 0 0 0 0 0 0 0 0 0 0 0 0 0 0 0 0 0 
0 0 0 0 0 0 0 0 0 0 0 0 0 0 0 0 
0 0 0 0 0 0 0 0 0 0 0 0 0 0 0 0 
0 0 0 0 0 0 0 0 0 0 0 0 0 0 0 0 0 0 0 0 0 0 0 0 0 0 0 0 0 0 0 0 
0 0 0 0 0 0 0 0 0 0 0 0 0 0 0 1 
0 0 0 0 0 0 0 0 0 0 0 0 0 0 0 0 
0 0 0 0 0 0 0 0 0 0 0 0 0 0 0 0 0 0 0 0 0 0 0 0 0 0 0 0 0 0 0 0 
0 0 0 0 0 0 0 0 0 0 0 0 1 1 1 1 
1 1 1 0 0 0 0 0 0 0 0 0 0 0 0 0 
0 0 0 0 0 0 0 0 0 0 0 0 0 0 0 0 0 0 0 0 0 0 0 0 0 0 0 0 0 0 0 0 
0 0 0 0 0 0 0 0 0 0 1 1 1 1 1 1 
1 1 1 1 1 1 0 0 0 0 0 0 0 0 0 0 
0 0 0 0 0 0 0 0 0 0 0 0 0 0 0 0 0 0 0 0 0 0 0 0 0 0 0 0 0 0 0 0 
0 0 0 0 0 0 0 1 2 2 1 1 0 0 0 0 
0 0 1 1 2 2 2 2 1 0 0 0 0 0 0 0 
0 0 0 0 0 0 0 0 0 0 0 0 0 0 0 0 0 0 0 0 0 0 0 0 0 0 0 0 0 0 0 0 
0 0 0 0 1 3 4 4 3 2 1 0 0 0 0 0 
0 0 0 1 2 3 4 5 5 4 2 0 0 0 0 0 
0 0 0 0 0 0 0 0 0 0 0 0 0 0 0 0 0 0 0 0 0 0 0 0 0 0 0 0 0 0 0 0 
0 0 1 7 9 10 9 7 5 2 0 0 0 0 0 0 
0 0 0 0 1 3 6 8 10 11 11 8 2 0 0 0 
0 0 0 0 0 0 0 0 92 84 0 0 0 0 0 0 0 0 0 0 0 54 58 0 0 0 0 0 0 0 0 0 
0 10 16 19 19 17 14 9 5 1 0 0 0 0 0 0 
0 0 0 0 0 2 6 11 15 19 21 21 18 11 0 0 
0 0 0 0 0 0 0 163 255 255 136 0 0 0 0 0 0 0 0 0 5 34 37 9 0 0 0 0 0 0 0 0 
0 31 34 33 30 25 18 10 3 0 0 0 0 0 0 0 
0 0 0 0 0 0 5 12 20 27 33 36 37 33 0 0 
0 0 0 0 0 0 0 79 152 132 58 0 0 0 0 29 36 44 51 46 13 0 0 9 38 38 29 20 14 11 10 11 
11 54 54 50 42 32 20 9 0 0 0 0 0 0 0 0 
0 0 0 0 0 0 0 11 24 36 47 54 59 59 11 10 
9 11 14 20 30 37 17 0 0 0 0 24 49 45 37 76 95 115 132 131 100 56 53 93 121 119 102 81 63 49 39 32 
27 80 77 69 56 39 20 3 0 0 0 0 0 0 0 0 
0 0 0 0 0 0 0 7 25 44 62 76 84 87 27 33 
40 51 66 85 106 120 99 3 0 0 13 110 133 121 99 114 142 172 200 216 213 201 199 207 207 189 160 130 103 81 64 51 
109 109 145 128 103 43 15 0 0 0 0 0 0 0 0 0 
0 0 0 0 0 0 0 0 22 51 113 139 156 120 42 52 
66 84 108 137 169 197 205 181 145 148 189 215 208 181 149 140 172 208 243 255 255 255 255 255 255 235 199 163 131 104 82 149 
162 167 160 139 105 62 18 0 0 0 0 0 0 0 0 0 
0 0 0 0 0 0 0 0 27 74 118 154 176 182 176 162 
85 108 137 172 211 248 255 255 255 255 255 255 255 220 182 153 187 224 255 255 255 255 255 255 255 254 217 180 146 117 122 144 
164 176 171 145 99 40 0 0 0 0 0 0 0 0 0 0 
0 0 0 0 0 0 0 0 0 55 117 166 193 198 185 162 
137 122 153 189 229 255 255 255 255 255 255 255 255 237 197 156 189 223 255 255 255 255 255 255 255 252 218 183 151 67 89 119 
151 175 177 145 80 0 0 0 0 0 0 0 0 0 0 0 
0 0 0 0 0 0 0 0 0 16 106 175 209 206 180 143 
109 83 157 192 229 255 255 255 255 255 255 255 255 235 198 151 180 210 240 255 255 255 255 255 255 236 206 175 0 3 24 61 
111 157 173 136 42 0 0 0 0 0 0 0 0 0 0 0 
0 0 0 0 0 0 0 0 0 0 77 179 220 202 150 93 
49 23 13 184 216 249 255 255 255 255 255 255 253 221 188 139 165 190 215 236 252 255 255 251 234 212 187 0 0 0 0 0 
18 103 154 114 0 0 0 0 0 0 0 0 0 0 0 0 
0 0 0 0 0 0 0 0 0 0 19 178 224 169 72 0 
0 0 0 0 196 223 246 255 255 255 255 248 226 199 172 137 145 167 187 204 216 223 222 215 202 185 0 0 0 0 0 0 
0 0 106 77 0 0 0 0 0 0 0 0 0 0 0 0 
0 0 0 0 0 0 0 0 0 0 0 177 216 71 0 0 
0 0 0 0 0 193 212 226 233 233 227 213 195 174 152 108 116 123 158 172 181 186 186 181 170 157 0 0 0 0 0 0 
0 0 0 41 0 0 0 0 0 0 0 0 0 0 0 0 
0 0 0 0 0 0 0 0 0 0 0 199 176 0 0 0 
0 0 0 0 0 163 178 189 194 195 189 179 165 126 117 82 88 92 93 91 82 67 41 2 0 0 0 0 0 0 0 0 
0 0 0 104 0 0 0 0 0 0 0 0 0 0 0 0 
0 0 0 0 0 0 0 0 0 0 0 255 33 0 0 0 
0 0 0 0 0 0 0 11 49 74 89 96 97 94 89 58 63 65 64 59 47 28 0 0 0 0 0 0 0 0 0 0 
0 0 0 255 0 0 0 0 0 0 0 0 0 0 0 0 
0 0 0 0 0 0 0 0 0 0 0 255 0 0 0 0 
0 0 0 0 0 0 0 0 5 34 52 63 67 67 65 39 43 43 41 33 20 0 0 0 0 0 0 0 0 0 0 0 
0 0 0 255 0 0 0 0 0 0 0 0 0 0 0 0 
0 0 0 0 0 0 0 0 0 0 0 255 0 0 0 0 
0 0 0 0 0 0 0 0 0 3 24 37 43 46 44 23 26 26 22 14 0 0 0 0 0 0 0 0 0 0 0 0 
0 0 0 255 255 0 0 0 0 0 0 0 0 0 0 0 
0 0 0 0 0 0 0 0 0 0 0 254 0 0 0 0 
0 0 0 0 0 0 0 0 0 0 3 17 25 28 28 10 13 13 9 0 0 0 0 0 0 0 0 0 0 0 0 0 
0 0 0 255 255 0 0 0 0 0 0 0 0 0 0 0 
0 0 0 0 0 0 0 0 0 0 0 93 0 0 0 0 
0 0 0 0 0 0 0 0 0 0 0 2 11 15 15 1 4 3 0 0 0 0 0 0 0 0 0 0 0 0 0 0 
0 0 0 255 255 123 0 0 0 0 0 0 0 0 0 0 
0 0 0 0 0 0 0 0 0 0 227 96 0 0 0 0 
0 0 0 0 0 0 0 0 0 0 0 0 1 5 6 0 0 0 0 0 0 0 0 0 0 0 0 0 0 0 0 0 
0 0 0 255 255 231 0 0 0 0 0 0 0 0 0 0 
0 0 0 0 0 0 0 0 0 24 221 104 0 0 0 0 
0 0 0 0 0 0 0 0 0 0 0 0 0 0 0 0 0 0 0 0 0 0 0 0 0 0 0 0 0 0 0 0 
0 0 0 225 255 213 38 0 0 0 0 0 0 0 0 0 
0 0 0 0 0 0 0 0 0 94 177 100 0 0 0 0 
0 0 0 0 0 0 0 0 0 0 0 0 0 0 0 0 0 0 0 0 0 0 0 0 0 0 0 0 0 0 0 0 
0 0 28 161 212 169 70 0 0 0 0 0 0 0 0 0 
0 0 0 0 0 0 0 0 8 98 136 89 0 0 0 0 
0 0 0 0 0 0 0 0 0 0 0 0 0 0 0 0 0 0 0 0 0 0 0 0 0 0 0 0 0 0 0 0 
0 0 43 119 149 127 69 0 0 0 0 0 0 0 0 0 
0 0 0 0 0 0 0 0 29 83 103 75 4 0 0 0 
0 0 0 0 0 0 0 0 0 0 0 0 0 0 0 0 0 0 0 0 0 0 0 0 0 0 0 0 0 0 0 0 
0 0 44 88 105 92 55 8 0 0 0 0 0 0 0 0 
0 0 0 0 0 0 0 0 30 64 76 60 19 0 0 0 
0 0 0 0 0 0 0 0 0 0 0 0 0 0 0 0 0 0 0 0 0 0 0 0 0 0 0 0 37 38 37 0 
0 3 38 63 72 63 39 6 0 0 0 0 0 0 0 0 
0 0 0 0 0 0 0 0 22 45 54 45 22 0 0 0 
39 39 38 0 0 0 0 0 0 0 0 0 0 0 0 0 0 0 0 0 0 0 0 0 0 0 42 46 49 50 48 45 
39 32 25 18 46 39 22 2 0 0 0 0 0 0 0 0 
0 0 0 0 0 0 0 0 11 28 35 20 28 35 42 47 
51 52 51 48 43 0 0 0 0 0 0 0 0 0 0 0 0 0 1 2 3 4 6 8 38 46 53 59 62 63 60 55 
48 39 29 20 12 6 2 0 0 0 0 0 0 0 0 0 
0 0 0 0 0 0 0 0 3 8 15 23 32 42 51 59 
64 66 65 61 55 48 40 9 7 6 4 3 2 0 0 0 0 2 4 7 9 13 17 38 48 57 66 72 76 76 73 66 
55 43 31 20 10 3 0 0 0 0 0 0 0 0 0 0 
0 0 0 0 0 0 0 0 0 5 13 23 35 48 60 70 
77 81 80 75 68 59 49 39 18 14 10 8 5 3 1 0 2 5 8 11 15 20 27 46 57 68 78 85 89 89 84 74 
60 45 30 16 5 0 0 0 0 0 0 0 0 0 0 0 
0 0 0 0 0 0 0 0 0 1 9 21 35 51 67 80 
90 95 94 89 81 71 59 47 28 21 16 12 9 6 3 2 5 7 11 15 20 26 41 52 65 77 88 97 100 98 89 76 
60 42 24 9 0 0 0 0 0 0 0 0 0 0 0 0 
0 0 0 0 0 0 0 0 0 0 2 15 31 49 67 84 
97 105 107 102 92 80 67 54 42 28 21 16 12 8 5 4 6 9 13 18 24 32 45 57 71 84 96 104 105 98 83 65 
48 31 13 0 0 0 0 0 0 0 0 0 0 0 0 0 
0 0 0 0 0 0 0 0 0 0 0 3 20 39 56 73 
91 106 113 110 101 88 74 60 46 33 25 19 14 10 7 5 8 11 15 20 26 35 47 60 74 87 99 105 100 80 50 25 
18 12 0 0 0 0 0 0 0 0 0 0 0 0 0 0 
0 0 0 0 0 0 0 0 0 0 0 0 5 18 22 30 
56 88 108 112 105 92 77 63 49 37 28 21 16 12 8 6 8 12 16 21 28 36 48 60 74 86 96 98 83 41 0 0 
0 0 0 0 0 0 0 0 0 0 0 0 0 0 0 0 
0 0 0 0 0 0 0 0 0 0 0 0 0 0 0 0 
0 46 91 105 103 92 78 63 50 37 29 22 17 12 9 6 9 12 16 21 28 35 46 57 70 81 88 84 60 0 0 0 
3 42 0 0 0 0 0 0 0 0 0 0 0 0 0 0 
0 0 0 0 0 0 0 0 0 0 0 0 0 23 0 0 
0 0 67 93 95 86 74 61 48 36 29 22 17 13 10 7 9 12 16 20 27 32 42 52 62 71 75 69 43 0 0 0 
255 128 0 0 0 0 0 0 0 0 0 0 0 0 0 0 
0 0 0 0 0 0 0 0 0 0 0 0 0 98 151 0 
0 0 49 77 82 76 66 55 44 34 28 22 17 13 10 7 9 11 15 19 24 29 37 45 52 58 59 52 32 1 0 128 
227 92 0 0 0 0 0 0 0 0 0 0 0 0 0 0 
0 0 0 0 0 0 0 0 0 0 0 0 0 78 173 63 
0 1 39 60 66 63 56 48 39 30 26 20 16 12 9 6 8 11 13 17 21 24 30 36 41 44 42 34 18 1 1 35 
44 0 0 0 0 0 0 0 0 0 0 0 0 0 0 0 
0 0 0 0 0 0 0 0 0 0 0 0 0 0 37 26 
0 7 26 42 49 49 45 39 32 25 23 18 14 11 9 6 7 9 12 14 18 19 24 28 30 30 26 17 2 0 0 0 
0 0 0 0 0 0 0 0 0 0 0 0 0 0 0 0 
0 0 0 0 0 0 0 0 0 0 0 0 0 0 0 0 
0 0 10 24 32 35 33 30 26 20 19 15 12 10 8 5 6 8 10 12 14 17 17 20 20 18 12 2 0 0 0 0 
0 0 0 0 0 0 0 0 0 0 0 0 0 0 0 0 
0 0 0 0 0 0 0 0 0 0 0 0 0 0 0 0 
0 0 0 8 17 22 23 22 19 18 15 13 11 9 7 4 5 7 8 9 11 12 12 13 12 8 2 0 0 0 0 0 
0 0 0 0 0 0 0 0 0 0 0 0 0 0 0 0 
0 0 0 0 0 0 0 0 0 0 0 0 0 0 0 0 
0 0 0 0 6 11 14 14 13 14 12 10 9 7 6 4 5 5 6 7 8 9 9 7 5 1 0 0 0 0 0 0 
0 0 0 0 0 0 0 0 0 0 0 0 0 0 0 0 
0 0 0 0 0 0 0 0 0 0 0 0 0 0 0 0 
0 0 0 0 0 4 7 9 10 10 9 8 7 6 5 3 4 4 5 5 6 6 5 4 1 0 0 0 0 0 0 0 
0 0 0 0 0 0 0 0 0 0 0 0 0 0 0 0 
0 0 0 0 0 0 0 0 0 0 0 0 0 0 0 0 
0 0 0 0 0 0 2 5 6 6 6 6 5 5 4 2 3 3 3 4 3 3 2 1 0 0 0 0 0 0 0 0 
0 0 0 0 0 0 0 0 0 0 0 0 0 0 0 0 
0 0 0 0 0 0 0 0 0 0 0 0 0 0 0 0 
0 0 0 0 0 0 0 2 3 4 4 4 4 3 3 2 2 2 2 2 2 1 0 0 0 0 0 0 0 0 0 0 
0 0 0 0 0 0 0 0 0 0 0 0 0 0 0 0 
0 0 0 0 0 0 0 0 0 0 0 0 0 0 0 0 
0 0 0 0 0 0 0 0 1 2 2 3 3 3 2 1 1 1 1 1 1 0 0 0 0 0 0 0 0 0 0 0 
0 0 0 0 0 0 0 0 0 0 0 0 0 0 0 0 
0 0 0 0 0 0 0 0 0 0 0 0 0 0 0 0 
0 0 0 0 0 0 0 0 0 1 1 2 2 2 2 1 1 1 1 0 0 0 0 0 0 0 0 0 0 0 0 0 
0 0 0 0 0 0 0 0 0 0 0 0 0 0 0 0 
0 0 0 0 0 0 0 0 0 0 0 0 0 0 0 0 
0 0 0 0 0 0 0 0 0 0 0 1 1 1 1 0 0 0 0 0 0 0 0 0 0 0 0 0 0 0 0 0 
0 0 0 0 0 0 0 0 0 0 0 0 0 0 0 0 
0 0 0 0 0 0 0 0 0 0 0 0 0 0 0 0 
0 0 0 0 0 0 0 0 0 0 0 0 0 0 1 0 0 0 0 0 0 0 0 0 0 0 0 0 0 0 0 0 
0 0 0 0 0 0 0 0 0 0 0 0 0 0 0 0 
0 0 0 0 0 0 0 0 0 0 0 0 0 0 0 0 
0 0 0 0 0 0 0 0 0 0 0 0 0 0 0 0 0 0 0 0 0 0 0 0 0 0 0 0 0 0 0 0 
0 0 0 0 0 0 0 0 0 0 0 0 0 0 0 0 
0 0 0 0 0 0 0 0 0 0 0 0 0 0 0 0 
0 0 0 0 0 0 0 0 0 0 0 0 0 0 0 0 0 0 0 0 0 0 0 0 0 0 0 0 0 0 0 0 
0 0 0 0 0 0 0 0 0 0 0 0 0 0 0 0 
0 0 0 0 0 0 0 0 0 0 0 0 0 0 0 0 
0 0 0 0 0 0 0 0 0 0 0 0 0 0 0 0 0 0 0 0 0 0 0 0 0 0 0 0 0 0 0 0 
0 0 0 0 0 0 0 0 0 0 0 0 0 0 0 0 
0 0 0 0 0 0 0 0 0 0 0 0 0 0 0 0 
0 0 0 0 0 0 0 0 0 0 0 0 0 0 0 0 0 0 0 0 0 0 0 0 0 0 0 0 0 0 0 0 
0 0 0 0 0 0 0 0 0 0 0 0 0 0 0 0 
0 0 0 0 0 0 0 0 0 0 0 0 0 0 0 0 
0 0 0 0 0 0 0 0 0 0 0 0 0 0 0 0 0 0 0 0 0 0 0 0 0 0 0 0 0 0 0 0 
0 0 0 0 0 0 0 0 0 0 0 0 0 0 0 0 
0 0 0 0 0 0 0 0 0 0 0 0 0 0 0 0 
0 0 0 0 0 0 0 0 0 0 0 0 0 0 0 0 0 0 0 0 0 0 0 0 0 0 0 0 0 0 0 0 
0 0 0 0 0 0 0 0 0 0 0 0 0 0 0 0 
0 0 0 0 0 0 0 0 0 0 0 0 0 0 0 0 
0 0 0 0 0 0 0 0 0 0 0 0 0 0 0 0 0 0 0 0 0 0 0 0 0 0 0 0 0 0 0 0 
0 0 0 0 0 0 0 0 0 0 0 0 0 0 0 0 
0 0 0 0 0 0 0 0 0 0 0 0 0 0 0 0 
0 0 0 0 0 0 0 0 0 0 0 0 0 0 0 0 0 0 0 0 0 0 0 0 0 0 0 0 0 0 0 0 
0 0 0 0 0 0 0 0 0 0 0 0 0 0 0 0 
0 0 0 0 0 0 0 0 0 0 0 0 0 0 0 0 
0 0 0 0 0 0 0 0 0 0 0 0 0 0 0 