P2
# Created by IrfanView
64 64
255
0 0 0 0 0 0 0 0 0 0 0 0 0 0 0 0 0 
0 0 0 0 0 0 0 0 0 0 0 0 0 0 0 0 
0 0 0 0 0 0 0 0 0 0 0 0 0 0 0 0 
0 0 0 0 0 0 0 0 0 0 0 0 0 0 0 0 0 0 0 0 0 0 0 0 0 0 0 0 0 0 0 0 
0 0 0 0 0 0 0 0 0 0 0 0 0 0 0 0 
0 0 0 0 0 0 0 0 0 0 0 0 0 0 0 0 
0 0 0 0 0 0 0 0 0 0 0 0 0 0 0 0 0 0 0 0 0 0 0 0 0 0 0 0 0 0 0 0 
0 0 0 0 0 0 0 0 0 0 0 0 0 0 1 1 
1 1 0 0 0 0 0 0 0 0 0 0 0 0 0 0 
0 0 0 0 0 0 0 0 0 0 0 0 0 0 0 0 0 0 0 0 0 0 0 0 0 0 0 0 0 0 0 0 
0 0 0 0 0 0 0 0 0 0 0 0 1 1 1 2 
2 1 1 1 0 0 0 0 0 0 0 0 0 0 0 0 
0 0 0 0 0 0 0 0 0 0 0 0 0 0 0 0 0 0 0 0 0 0 0 0 0 0 0 0 0 0 0 0 
0 0 0 0 0 0 0 0 0 0 1 1 2 2 2 2 
2 2 2 2 1 1 0 0 0 0 0 0 0 0 0 0 
0 0 0 0 0 0 0 0 0 0 0 0 0 0 0 0 0 0 0 0 0 0 0 0 0 0 0 0 0 0 0 0 
0 0 0 0 0 0 0 0 1 1 2 2 2 2 2 2 
3 3 3 3 3 3 2 1 0 0 0 0 0 0 0 0 
0 0 0 0 0 0 0 0 0 0 0 0 0 0 0 0 0 0 0 0 0 0 0 0 0 0 0 0 0 0 0 0 
0 0 0 0 0 0 1 2 3 3 3 3 2 2 2 2 
2 3 3 4 4 5 5 4 3 1 0 0 0 0 0 0 
0 0 0 0 0 0 0 0 0 0 0 0 0 0 0 0 0 0 0 0 0 0 0 0 0 0 0 0 0 0 0 0 
0 0 0 0 2 4 5 5 5 4 3 2 2 1 1 1 
2 2 3 4 5 7 8 9 9 8 5 0 0 0 0 0 
0 0 0 0 0 0 0 0 0 0 0 0 0 0 0 0 0 0 0 0 0 0 0 0 0 0 0 0 0 0 0 0 
0 0 3 8 10 11 10 8 6 4 3 1 0 0 0 0 
0 1 2 3 6 8 11 13 15 16 15 12 6 0 0 0 
0 0 0 0 0 0 0 0 123 114 0 0 0 0 0 0 0 0 0 0 0 0 0 0 0 0 0 0 0 0 0 0 
3 11 16 19 19 17 14 11 7 4 1 0 0 0 0 0 
0 0 0 1 5 8 13 18 22 25 27 27 23 16 0 0 
0 0 0 0 0 0 0 199 255 255 168 0 0 0 0 0 0 0 0 0 0 0 0 0 0 0 0 0 0 0 0 0 
23 29 32 32 29 24 19 12 6 1 0 0 0 0 0 0 
0 0 0 0 2 7 14 22 29 37 42 45 45 41 0 0 
0 0 0 0 0 0 3 105 220 193 78 0 0 0 0 26 30 36 41 46 49 49 48 44 38 31 24 18 15 13 12 12 
46 49 49 46 40 32 22 12 3 0 0 0 0 0 0 0 
0 0 0 0 0 3 13 25 37 49 60 67 70 70 10 8 
8 8 11 16 25 33 13 0 0 0 0 20 45 41 33 63 77 92 107 120 127 130 128 122 112 97 81 66 53 43 36 30 
71 72 70 63 53 39 24 9 0 0 0 0 0 0 0 0 
0 0 0 0 0 0 9 26 44 64 81 94 102 104 27 31 
38 49 63 82 103 115 93 0 0 0 0 104 128 117 96 94 114 136 159 178 191 197 196 187 171 150 127 105 85 69 56 45 
95 97 94 84 67 46 23 1 0 0 0 0 0 0 0 0 
0 0 0 0 0 0 0 23 51 80 107 129 141 145 41 51 
64 82 106 134 166 193 200 174 135 138 181 210 204 179 147 115 140 166 192 215 232 241 239 229 210 185 158 132 108 88 71 112 
150 155 150 133 105 69 30 0 0 0 0 0 0 0 0 0 
0 0 0 0 0 0 0 26 71 120 165 200 220 224 215 66 
84 107 135 170 208 246 255 255 255 255 255 255 255 218 180 134 153 180 207 231 249 255 255 246 227 202 174 147 121 99 117 138 
156 168 166 146 110 61 8 0 0 0 0 0 0 0 0 0 
0 0 0 0 0 0 0 0 60 127 191 238 255 255 246 217 
96 121 152 188 228 255 255 255 255 255 255 255 255 235 196 132 156 182 207 230 246 255 254 244 226 203 177 151 126 74 95 124 
154 178 184 162 113 45 0 0 0 0 0 0 0 0 0 0 
0 0 0 0 0 0 0 0 35 131 222 255 255 255 255 229 
183 127 156 191 228 255 255 255 255 255 255 255 255 234 197 124 150 174 196 216 230 238 237 229 213 193 170 147 17 27 51 90 
139 185 206 186 119 23 0 0 0 0 0 0 0 0 0 0 
0 0 0 0 0 0 0 0 0 130 255 255 255 255 255 228 
162 114 152 183 216 248 255 255 255 255 255 255 252 220 188 110 139 159 179 195 207 213 213 206 193 176 157 0 0 0 0 26 
102 187 244 232 140 0 0 0 0 0 0 0 0 0 0 0 
0 0 0 0 0 0 0 0 0 123 255 255 255 255 255 201 
112 57 30 168 195 222 245 255 255 255 255 248 225 199 171 92 138 141 157 171 180 185 185 180 169 155 0 0 0 0 0 0 
30 185 255 255 204 0 0 0 0 0 0 0 0 0 0 0 
0 0 0 0 0 0 0 0 0 112 255 255 255 255 255 133 
20 0 0 0 171 193 211 225 233 233 226 213 195 174 151 108 109 110 111 109 153 157 157 152 6 0 0 0 0 0 0 0 
0 182 255 255 255 7 0 0 0 0 0 0 0 0 0 0 
0 0 0 0 0 0 0 0 0 103 255 255 255 255 255 0 
0 0 0 0 0 163 178 188 194 194 189 179 164 123 111 79 82 82 81 77 68 53 31 0 0 0 0 0 0 0 0 0 
0 186 255 255 255 160 0 0 0 0 0 0 0 0 0 0 
0 0 0 0 0 0 0 0 0 110 255 255 255 255 108 0 
0 0 0 0 0 0 0 38 67 86 96 100 99 94 86 55 58 58 56 50 39 22 0 0 0 0 0 0 0 0 0 0 
0 199 255 255 255 255 0 0 0 0 0 0 0 0 0 0 
0 0 0 0 0 0 0 0 0 150 255 255 255 255 0 0 
0 0 0 0 0 0 0 0 25 47 61 68 70 69 65 34 38 38 35 28 16 0 0 0 0 0 0 0 0 0 0 0 
0 210 255 255 255 255 0 0 0 0 0 0 0 0 0 0 
0 0 0 0 0 0 0 0 0 219 255 255 255 255 0 0 
0 0 0 0 0 0 0 0 0 17 33 43 48 48 46 18 21 22 19 11 0 0 0 0 0 0 0 0 0 0 0 0 
0 203 255 255 255 255 249 0 0 0 0 0 0 0 0 0 
0 0 0 0 0 0 0 0 0 255 255 255 255 6 0 0 
0 0 0 0 0 0 0 0 0 0 13 24 30 32 31 5 9 9 6 0 0 0 0 0 0 0 0 0 0 0 0 0 
0 183 255 255 255 255 255 0 0 0 0 0 0 0 0 0 
0 0 0 0 0 0 0 0 0 255 255 255 255 0 0 0 
0 0 0 0 0 0 0 0 0 0 0 10 16 20 20 0 0 0 0 0 0 0 0 0 0 0 0 0 0 0 0 0 
0 164 255 255 255 255 255 50 0 0 0 0 0 0 0 0 
0 0 0 0 0 0 0 0 0 229 255 255 255 0 0 0 
0 0 0 0 0 0 0 0 0 0 0 0 7 10 11 0 0 0 0 0 0 0 0 0 0 0 0 0 0 0 0 0 
0 146 255 255 255 255 255 123 0 0 0 0 0 0 0 0 
0 0 0 0 0 0 0 0 0 182 255 255 118 0 0 0 
0 0 0 0 0 0 0 0 0 0 0 0 0 4 5 0 0 0 0 0 0 0 0 0 0 0 0 0 0 0 0 0 
0 128 255 255 255 255 255 139 0 0 0 0 0 0 0 0 
0 0 0 0 0 0 0 0 0 140 231 206 64 0 0 0 
0 0 0 0 0 0 0 0 0 0 0 0 0 0 0 0 0 0 0 0 0 0 0 0 0 0 0 0 0 0 0 0 
0 110 255 255 255 255 250 126 16 0 0 0 0 0 0 0 
0 0 0 0 0 0 0 0 23 106 151 131 47 0 0 0 
0 0 0 0 0 0 0 0 0 0 0 0 0 0 0 0 0 0 0 0 0 0 0 0 0 0 0 0 0 0 0 0 
0 92 186 254 255 247 182 101 24 0 0 0 0 0 0 0 
0 0 0 0 0 0 0 0 28 79 104 90 40 0 0 0 
0 0 0 0 0 0 0 0 0 0 0 0 0 0 0 0 0 0 0 0 0 0 0 0 0 0 0 0 0 0 0 0 
16 75 132 172 185 168 127 74 20 0 0 0 0 0 0 0 
0 0 0 0 0 0 0 0 24 57 72 64 35 0 0 0 
0 0 0 0 0 0 0 0 0 0 0 0 0 0 0 0 0 0 0 0 0 0 0 0 0 0 0 0 30 31 30 0 
21 58 93 116 123 111 84 48 10 0 0 0 0 0 0 0 
0 0 0 0 0 0 0 0 16 38 49 45 28 3 0 0 
37 38 37 0 0 0 0 0 0 0 0 0 0 0 0 0 0 0 0 0 0 0 0 0 0 0 34 38 40 40 39 35 
30 25 19 13 78 69 53 25 0 0 0 0 0 0 0 0 
0 0 0 0 0 0 0 0 13 22 30 22 28 35 41 46 
49 50 49 46 41 0 0 0 0 1 1 1 1 1 0 0 0 0 0 1 2 3 5 6 9 38 44 48 50 50 48 43 
36 28 20 13 7 2 0 7 0 0 0 0 0 0 0 0 
0 0 0 0 0 0 0 0 5 10 17 25 34 43 51 58 
63 64 63 59 53 46 15 12 10 8 7 5 4 3 1 0 0 1 3 5 7 10 14 18 40 47 54 58 61 60 56 50 
41 30 20 11 4 0 0 0 0 0 0 0 0 0 0 0 
0 0 0 0 0 0 0 0 4 9 17 27 38 50 61 70 
76 79 77 73 66 57 47 25 20 16 12 10 7 5 3 0 1 3 6 9 12 16 22 38 47 55 63 68 70 69 63 54 
42 29 17 6 0 0 0 0 0 0 0 0 0 0 0 0 
0 0 0 0 0 0 0 0 0 6 15 27 40 55 69 81 
89 93 92 86 78 68 56 45 29 23 18 14 10 7 5 1 3 5 8 12 16 22 34 43 53 62 70 76 78 74 66 54 
40 24 9 0 0 0 0 0 0 0 0 0 0 0 0 0 
0 0 0 0 0 0 0 0 0 1 10 23 39 56 73 88 
99 105 104 99 89 77 65 52 40 29 22 17 13 9 7 2 5 7 11 15 20 26 37 47 57 67 75 80 80 74 63 48 
31 13 0 0 0 0 0 0 0 0 0 0 0 0 0 0 
0 0 0 0 0 0 0 0 0 0 2 15 33 51 70 87 
101 111 113 108 98 85 71 57 44 34 26 20 15 11 8 3 6 9 12 16 22 29 39 49 59 69 76 80 77 66 50 32 
15 0 0 0 0 0 0 0 0 0 0 0 0 0 0 0 
0 0 0 0 0 0 0 0 0 0 0 3 20 39 55 72 
90 106 114 112 103 89 75 61 47 37 28 22 16 13 9 4 7 10 13 17 23 29 39 48 58 67 73 74 67 50 29 11 
0 0 0 0 0 0 0 0 0 0 0 0 0 0 0 0 
0 0 0 0 0 0 0 0 0 0 0 0 5 20 29 40 
63 90 106 109 102 90 76 61 48 36 30 23 17 13 10 5 7 10 13 18 23 28 37 46 54 61 65 63 52 31 9 0 
0 0 0 0 0 0 0 0 0 0 0 0 0 0 0 0 
0 0 0 0 0 0 0 0 0 0 0 0 0 4 4 5 
31 68 92 100 96 85 72 59 47 35 30 23 18 14 10 5 7 10 13 17 22 26 33 41 48 52 53 48 35 15 0 2 
1 0 0 0 0 0 0 0 0 0 0 0 0 0 0 0 
0 0 0 0 0 0 0 0 0 0 0 0 0 0 0 0 
15 50 76 86 85 77 66 55 43 33 29 22 17 13 10 5 7 9 12 16 20 23 29 34 39 41 40 33 19 1 0 0 
0 0 0 0 0 0 0 0 0 0 0 0 0 0 0 0 
0 0 0 0 0 0 0 0 0 0 0 0 0 0 0 2 
15 39 59 69 70 65 57 48 38 29 26 21 16 13 10 5 7 9 11 14 17 19 23 27 30 30 26 16 2 0 0 0 
0 0 0 0 0 0 0 0 0 0 0 0 0 0 0 0 
0 0 0 0 0 0 0 0 0 0 0 0 0 0 0 0 
7 25 42 51 54 52 47 40 33 25 23 19 15 12 9 5 6 8 10 12 14 17 18 20 20 18 13 2 0 0 0 0 
0 0 0 0 0 0 0 0 0 0 0 0 0 0 4 5 
4 1 0 0 0 0 0 0 0 0 0 0 0 0 0 0 
0 9 23 33 38 38 36 31 26 24 20 16 13 11 8 4 5 7 8 9 11 13 13 13 12 9 2 0 0 0 0 0 
0 0 0 0 0 0 0 0 0 0 0 0 0 1 5 6 
5 2 0 0 0 0 0 0 0 0 0 0 0 0 0 0 
0 0 7 18 24 26 26 23 20 20 16 14 11 9 7 4 4 5 6 7 8 9 9 8 6 1 0 0 0 0 0 0 
0 0 0 0 0 0 0 0 0 0 0 0 0 1 5 6 
5 2 0 0 0 0 0 0 0 0 0 0 0 0 0 0 
0 0 0 6 12 16 17 16 17 15 13 11 9 8 6 3 4 4 5 5 6 6 5 4 1 0 0 0 0 0 0 0 
0 0 0 0 0 0 0 0 0 0 0 0 0 1 4 5 
4 2 0 0 0 0 0 0 0 0 0 0 0 0 0 0 
0 0 0 0 4 8 10 10 12 11 10 9 8 6 5 2 3 3 4 4 4 3 2 1 0 0 0 0 0 0 0 0 
0 0 0 0 0 0 0 0 0 0 0 0 0 0 3 4 
3 1 0 0 0 0 0 0 0 0 0 0 0 0 0 0 
0 0 0 0 0 3 5 7 8 8 7 7 6 5 4 2 2 2 2 2 2 1 0 0 0 0 0 0 0 0 0 0 
0 0 0 0 0 0 0 0 0 0 0 0 0 0 2 3 
2 0 0 0 0 0 0 0 0 0 0 0 0 0 0 0 
0 0 0 0 0 0 2 4 5 5 5 5 5 4 3 1 1 1 1 1 1 0 0 0 0 0 0 0 0 0 0 0 
0 0 0 0 0 0 0 0 0 0 0 0 0 0 1 2 
1 0 0 0 0 0 0 0 0 0 0 0 0 0 0 0 
0 0 0 0 0 0 0 1 2 3 3 3 3 3 3 1 1 1 1 0 0 0 0 0 0 0 0 0 0 0 0 0 
0 0 0 0 0 0 0 0 0 0 0 0 0 0 0 1 
1 0 0 0 0 0 0 0 0 0 0 0 0 0 0 0 
0 0 0 0 0 0 0 0 1 2 2 2 2 2 2 0 0 0 0 0 0 0 0 0 0 0 0 0 0 0 0 0 
0 0 0 0 0 0 0 0 0 0 0 0 0 0 0 0 
0 0 0 0 0 0 0 0 0 0 0 0 0 0 0 0 
0 0 0 0 0 0 0 0 0 0 1 1 1 1 1 0 0 0 0 0 0 0 0 0 0 0 0 0 0 0 0 0 
0 0 0 0 0 0 0 0 0 0 0 0 0 0 0 0 
0 0 0 0 0 0 0 0 0 0 0 0 0 0 0 0 
0 0 0 0 0 0 0 0 0 0 0 1 1 1 1 0 0 0 0 0 0 0 0 0 0 0 0 0 0 0 0 0 
0 0 0 0 0 0 0 0 0 0 0 0 0 0 0 0 
0 0 0 0 0 0 0 0 0 0 0 0 0 0 0 0 
0 0 0 0 0 0 0 0 0 0 0 0 0 0 0 0 0 0 0 0 0 0 0 0 0 0 0 0 0 0 0 0 
0 0 0 0 0 0 0 0 0 0 0 0 0 0 0 0 
0 0 0 0 0 0 0 0 0 0 0 0 0 0 0 0 
0 0 0 0 0 0 0 0 0 0 0 0 0 0 0 0 0 0 0 0 0 0 0 0 0 0 0 0 0 0 0 0 
0 0 0 0 0 0 0 0 0 0 0 0 0 0 0 0 
0 0 0 0 0 0 0 0 0 0 0 0 0 0 0 0 
0 0 0 0 0 0 0 0 0 0 0 0 0 0 0 0 0 0 0 0 0 0 0 0 0 0 0 0 0 0 0 0 
0 0 0 0 0 0 0 0 0 0 0 0 0 0 0 0 
0 0 0 0 0 0 0 0 0 0 0 0 0 0 0 0 
0 0 0 0 0 0 0 0 0 0 0 0 0 0 0 0 0 0 0 0 0 0 0 0 0 0 0 0 0 0 0 0 
0 0 0 0 0 0 0 0 0 0 0 0 0 0 0 0 
0 0 0 0 0 0 0 0 0 0 0 0 0 0 0 0 
0 0 0 0 0 0 0 0 0 0 0 0 0 0 0 0 0 0 0 0 0 0 0 0 0 0 0 0 0 0 0 0 
0 0 0 0 0 0 0 0 0 0 0 0 0 0 0 0 
0 0 0 0 0 0 0 0 0 0 0 0 0 0 0 0 
0 0 0 0 0 0 0 0 0 0 0 0 0 0 0 0 0 0 0 0 0 0 0 0 0 0 0 0 0 0 0 0 
0 0 0 0 0 0 0 0 0 0 0 0 0 0 0 0 
0 0 0 0 0 0 0 0 0 0 0 0 0 0 0 0 
0 0 0 0 0 0 0 0 0 0 0 0 0 0 0 0 0 0 0 0 0 0 0 0 0 0 0 0 0 0 0 0 
0 0 0 0 0 0 0 0 0 0 0 0 0 0 0 0 
0 0 0 0 0 0 0 0 0 0 0 0 0 0 0 0 
0 0 0 0 0 0 0 0 0 0 0 0 0 0 0 0 0 0 0 0 0 0 0 0 0 0 0 0 0 0 0 0 
0 0 0 0 0 0 0 0 0 0 0 0 0 0 0 0 
0 0 0 0 0 0 0 0 0 0 0 0 0 0 0 0 
0 0 0 0 0 0 0 0 0 0 0 0 0 0 0 