P2
# Created by IrfanView
64 64
255
0 0 0 0 0 0 0 0 0 0 0 0 0 0 0 0 0 
0 0 0 0 0 0 0 0 0 0 0 0 0 0 0 0 
0 0 0 0 0 0 0 0 0 0 0 0 0 0 0 0 
0 0 0 0 0 0 0 0 0 0 0 0 0 0 0 0 0 0 0 0 0 0 0 0 0 0 0 0 0 0 0 0 
0 0 0 0 0 0 0 0 0 0 0 0 0 0 0 1 
1 0 0 0 0 0 0 0 0 0 0 0 0 0 0 0 
0 0 0 0 0 0 0 0 0 0 0 0 0 0 0 0 0 0 0 0 0 0 0 0 0 0 0 0 0 0 0 0 
0 0 0 0 0 0 0 0 0 0 0 0 1 1 1 2 
1 1 1 0 0 0 0 0 0 0 0 0 0 0 0 0 
0 0 0 0 0 0 0 0 0 0 0 0 0 0 0 0 0 0 0 0 0 0 0 0 0 0 0 0 0 0 0 0 
0 0 0 0 0 0 0 0 0 0 0 1 2 2 2 3 
3 2 2 2 1 0 0 0 0 0 0 0 0 0 0 0 
0 0 0 0 0 0 0 0 0 0 0 0 0 0 0 0 0 0 0 0 0 0 0 0 0 0 0 0 0 0 0 0 
0 0 0 0 0 0 0 0 0 1 2 2 3 3 3 3 
3 3 3 3 3 2 1 0 0 0 0 0 0 0 0 0 
0 0 0 0 0 0 0 0 0 0 0 0 0 0 0 0 0 0 0 0 0 0 0 0 0 0 0 0 0 0 0 0 
0 0 0 0 0 0 0 1 2 3 3 3 4 4 4 4 
4 4 5 5 5 4 4 2 0 0 0 0 0 0 0 0 
0 0 0 0 0 0 0 0 0 0 0 0 0 0 0 0 0 0 0 0 0 0 0 0 0 0 0 0 0 0 0 0 
0 0 0 0 0 1 3 4 4 4 4 4 4 4 4 4 
5 5 6 6 7 7 7 7 5 3 0 0 0 0 0 0 
0 0 0 0 0 0 0 0 0 0 0 0 0 0 0 0 0 0 0 0 0 0 0 0 0 0 0 0 0 0 0 0 
0 0 0 0 4 6 7 7 7 6 5 5 4 4 4 4 
5 5 6 7 8 9 11 11 11 10 7 2 0 0 0 0 
0 0 0 0 0 0 0 0 0 0 0 0 0 0 0 0 0 0 0 0 0 0 0 0 0 0 0 0 0 0 0 0 
0 0 5 9 11 12 11 10 9 7 6 4 3 3 3 3 
4 4 6 7 9 12 14 17 18 19 18 15 9 0 0 0 
0 0 0 0 0 0 0 0 0 0 0 0 0 0 0 0 0 0 0 0 0 0 0 0 0 0 0 0 0 0 0 0 
5 13 17 20 20 19 16 13 10 7 5 3 2 1 1 1 
1 3 4 7 10 13 18 22 26 30 31 31 27 20 0 0 
0 0 0 0 0 0 0 0 101 94 0 0 0 0 0 0 0 0 0 0 0 0 0 0 0 0 0 0 0 0 0 0 
24 29 32 32 30 26 21 16 11 6 2 0 0 0 0 0 
0 0 1 4 9 14 21 28 35 42 47 50 49 45 0 0 
0 0 0 0 0 0 0 20 66 61 14 0 0 0 0 24 27 31 35 38 41 41 40 36 31 26 21 17 15 13 13 13 
46 49 49 47 42 35 26 17 9 3 0 0 0 0 0 0 
0 0 0 0 5 13 22 34 45 57 67 73 76 75 9 8 
7 7 9 13 21 29 29 0 0 0 4 37 42 36 29 56 66 78 90 100 107 111 109 103 94 82 69 57 47 39 33 29 
68 70 69 64 55 43 30 17 5 0 0 0 0 0 0 0 
0 0 0 0 0 9 22 38 56 75 91 102 109 110 26 30 
36 45 58 75 95 111 111 79 33 36 86 121 123 108 89 82 98 116 133 149 160 165 164 156 143 126 108 90 75 61 50 87 
92 94 93 85 71 53 33 14 0 0 0 0 0 0 0 0 
0 0 0 0 0 0 18 41 69 96 122 141 152 154 150 49 
61 78 99 125 155 182 198 196 185 188 203 207 193 166 137 140 121 141 162 180 194 201 200 191 176 156 135 114 95 78 64 108 
117 155 152 137 113 80 45 6 0 0 0 0 0 0 0 0 
0 0 0 0 0 0 8 41 98 145 188 221 239 242 231 63 
80 101 127 159 194 230 255 255 255 255 255 255 238 204 169 144 133 155 176 195 209 216 216 207 192 172 150 128 107 88 124 144 
163 175 175 159 127 84 36 0 0 0 0 0 0 0 0 0 
0 0 0 0 0 0 0 40 102 168 228 255 255 255 255 243 
92 115 144 177 214 251 255 255 255 255 255 255 255 221 185 142 136 158 178 196 209 216 215 207 193 175 154 132 111 89 112 142 
173 197 205 189 148 89 24 0 0 0 0 0 0 0 0 0 
0 0 0 0 0 0 0 17 102 194 255 255 255 255 255 255 
221 121 149 181 215 250 255 255 255 255 255 255 255 221 187 133 132 152 170 186 198 204 204 197 184 168 149 129 42 58 87 128 
178 223 247 235 182 99 9 0 0 0 0 0 0 0 0 0 
0 0 0 0 0 0 0 0 96 229 255 255 255 255 255 255 
222 166 145 174 204 234 255 255 255 255 255 255 238 209 178 117 123 140 156 170 180 185 185 179 169 154 138 0 0 8 42 100 
178 255 255 255 245 126 0 0 0 0 0 0 0 0 0 0 
0 0 0 0 0 0 0 0 85 255 255 255 255 255 255 255 
206 135 92 160 186 211 233 249 255 255 251 235 214 189 164 97 131 129 138 150 158 163 162 158 149 137 0 0 0 0 0 50 
171 255 255 255 255 191 0 0 0 0 0 0 0 0 0 0 
0 0 0 0 0 0 0 0 67 255 255 255 255 255 255 255 
163 80 38 22 164 184 201 214 221 222 215 203 186 166 145 76 103 102 100 97 91 80 64 41 12 0 0 0 0 0 0 0 
156 255 255 255 255 255 36 0 0 0 0 0 0 0 0 0 
0 0 0 0 0 0 0 0 46 255 255 255 255 255 255 255 
86 0 0 0 0 156 170 180 185 186 181 171 157 118 105 76 77 76 74 69 61 48 30 4 0 0 0 0 0 0 0 0 
134 255 255 255 255 255 138 0 0 0 0 0 0 0 0 0 
0 0 0 0 0 0 0 0 28 255 255 255 255 255 255 165 
0 0 0 0 0 0 25 54 75 89 97 99 96 90 83 51 54 54 51 46 36 22 1 0 0 0 0 0 0 0 0 0 
109 255 255 255 255 255 255 0 0 0 0 0 0 0 0 0 
0 0 0 0 0 0 0 0 24 255 255 255 255 255 255 24 
0 0 0 0 0 0 0 12 37 53 64 69 70 68 63 31 34 35 32 26 16 1 0 0 0 0 0 0 0 0 0 0 
88 255 255 255 255 255 255 15 0 0 0 0 0 0 0 0 
0 0 0 0 0 0 0 0 40 255 255 255 255 255 255 0 
0 0 0 0 0 0 0 0 7 26 38 46 49 49 46 15 19 20 17 11 1 0 0 0 0 0 0 0 0 0 0 0 
78 255 255 255 255 255 255 149 0 0 0 0 0 0 0 0 
0 0 0 0 0 0 0 0 70 255 255 255 255 255 92 0 
0 0 0 0 0 0 0 0 0 5 19 28 32 34 33 3 7 8 6 0 0 0 0 0 0 0 0 0 0 0 0 0 
78 255 255 255 255 255 255 248 0 0 0 0 0 0 0 0 
0 0 0 0 0 0 0 0 96 255 255 255 255 255 0 0 
0 0 0 0 0 0 0 0 0 0 5 14 19 22 22 0 0 0 0 0 0 0 0 0 0 0 0 0 0 0 0 0 
84 255 255 255 255 255 255 255 26 0 0 0 0 0 0 0 
0 0 0 0 0 0 0 0 107 255 255 255 255 236 0 0 
0 0 0 0 0 0 0 0 0 0 0 5 10 13 13 0 0 0 0 0 0 0 0 0 0 0 0 0 0 0 0 0 
89 255 255 255 255 255 255 255 71 0 0 0 0 0 0 0 
0 0 0 0 0 0 0 0 102 255 255 255 255 114 0 0 
0 0 0 0 0 0 0 0 0 0 0 0 4 6 7 0 0 0 0 0 0 0 0 0 0 0 0 0 0 0 0 0 
89 255 255 255 255 255 255 241 87 0 0 0 0 0 0 0 
0 0 0 0 0 0 0 0 89 225 255 255 214 62 0 0 
0 0 0 0 0 0 0 0 0 0 0 0 0 2 3 0 0 0 0 0 0 0 0 0 0 0 0 0 0 0 0 0 
83 219 255 255 255 255 255 193 82 0 0 0 0 0 0 0 
0 0 0 0 0 0 0 0 72 154 202 196 135 42 0 0 
0 0 0 0 0 0 0 0 0 0 0 0 0 0 0 0 0 0 0 0 0 0 0 0 0 0 0 0 0 0 0 0 
74 162 246 255 255 255 225 146 68 2 0 0 0 0 0 0 
0 0 0 0 0 0 0 0 55 106 134 128 91 34 0 0 
0 0 0 0 0 0 0 0 0 0 0 0 0 0 0 0 0 0 0 0 0 0 0 0 0 0 0 0 0 0 0 13 
63 120 171 206 215 197 156 103 48 0 0 0 0 0 0 0 
0 0 0 0 0 0 0 0 39 72 89 86 64 29 0 0 
0 0 0 0 0 0 0 0 0 0 0 0 0 0 0 0 0 0 0 0 0 0 0 0 0 0 0 0 0 26 25 19 
51 86 118 139 143 130 103 67 23 0 0 0 0 0 0 0 
0 0 0 0 0 0 0 0 24 46 58 58 45 24 1 0 
35 35 0 0 0 0 0 0 0 0 0 0 0 0 0 0 0 0 0 0 0 0 0 0 0 0 0 32 34 34 33 29 
25 20 15 10 6 85 63 35 5 0 0 0 0 0 0 0 
0 0 0 0 0 0 0 0 17 37 36 21 27 33 39 43 
46 47 45 42 3 2 2 3 3 3 3 3 3 2 1 0 0 0 0 0 2 3 4 6 9 33 38 41 43 42 40 35 
29 23 16 9 4 0 33 12 0 0 0 0 0 0 0 0 
0 0 0 0 0 0 0 0 8 11 17 24 33 41 48 54 
58 59 58 54 49 42 17 14 12 10 8 7 5 4 3 0 0 0 2 4 6 9 12 16 34 40 46 49 51 50 46 40 
32 23 15 7 1 0 0 0 0 0 0 0 0 0 0 0 
0 0 0 0 0 0 0 0 5 10 18 27 37 48 58 66 
71 73 72 67 61 52 43 26 21 17 13 11 8 6 4 0 0 2 5 8 11 14 19 32 40 47 53 57 58 56 51 43 
32 21 11 2 0 0 0 0 0 0 0 0 0 0 0 0 
0 0 0 0 0 0 0 0 2 8 17 27 40 53 66 76 
83 86 85 80 72 62 52 41 29 23 18 14 11 8 6 0 2 5 7 11 14 19 25 37 45 53 59 63 63 60 53 42 
29 16 3 0 0 0 0 0 0 0 0 0 0 0 0 0 
0 0 0 0 0 0 0 0 0 4 13 25 39 55 71 84 
93 97 97 91 82 71 60 48 36 28 22 17 13 10 7 1 4 6 9 13 17 23 31 40 49 56 62 66 65 59 49 36 
20 5 0 0 0 0 0 0 0 0 0 0 0 0 0 0 
0 0 0 0 0 0 0 0 0 0 6 19 35 53 70 86 
98 105 105 100 90 79 66 53 41 32 25 20 15 11 9 3 5 8 11 14 19 25 33 41 50 57 63 65 62 53 40 24 
7 0 0 0 0 0 0 0 0 0 0 0 0 0 0 0 
0 0 0 0 0 0 0 0 0 0 0 9 26 44 62 80 
95 105 108 104 95 83 69 56 43 35 28 21 16 13 9 4 6 8 11 15 20 26 33 41 48 55 59 59 53 41 25 8 
0 0 0 0 0 0 0 0 0 0 0 0 0 0 0 0 
0 0 0 0 0 0 0 0 0 0 0 0 12 30 47 64 
82 97 104 103 95 83 70 57 44 37 29 22 17 13 10 4 6 9 12 15 20 26 31 38 45 50 52 49 41 26 9 0 
0 0 0 0 0 0 0 0 0 0 0 0 0 0 0 0 
0 0 0 0 0 0 0 0 0 0 0 0 0 14 29 45 
64 83 94 96 90 80 67 55 43 37 29 22 17 14 10 4 6 9 11 15 19 24 28 34 39 42 41 36 26 10 0 0 
0 0 0 0 0 0 0 0 0 0 0 0 0 0 0 0 
0 0 0 0 0 0 0 0 0 0 0 0 0 0 13 29 
47 67 80 84 80 72 62 51 40 35 28 22 17 13 10 5 6 8 11 14 17 21 24 28 31 32 30 22 10 0 0 0 
0 0 0 0 0 0 0 0 0 0 0 0 0 0 0 0 
0 0 0 0 0 0 0 0 0 0 0 0 0 0 0 15 
32 50 63 68 67 62 54 45 36 32 26 20 16 13 10 4 6 8 10 12 15 18 19 22 23 22 17 8 0 0 0 0 
0 0 0 0 0 0 0 0 0 0 0 0 0 0 0 0 
0 0 0 0 0 0 0 0 0 0 0 0 0 0 0 0 
16 32 45 51 53 50 44 38 31 28 23 18 15 12 9 4 5 7 8 10 12 14 14 16 15 13 7 0 0 0 0 0 
0 0 0 0 0 0 0 0 0 0 0 0 0 0 0 0 
0 0 0 0 0 0 0 0 0 0 0 0 0 0 0 0 
0 15 27 35 38 38 35 30 25 24 20 16 13 11 9 4 5 6 7 8 9 11 10 10 9 5 0 0 0 0 0 0 
0 0 0 0 0 0 0 0 0 0 0 0 3 10 0 0 
0 12 5 0 0 0 0 0 0 0 0 0 0 0 0 0 
0 0 12 20 25 26 25 23 19 19 16 14 11 9 8 3 4 5 5 6 7 7 7 5 3 0 0 0 0 0 0 0 
0 0 0 0 0 0 0 0 0 0 0 0 2 9 13 14 
13 10 4 0 0 0 0 0 0 0 0 0 0 0 0 0 
0 0 1 9 14 17 17 16 17 15 13 11 9 8 7 3 3 4 4 5 5 5 4 2 0 0 0 0 0 0 0 0 
0 0 0 0 0 0 0 0 0 0 0 0 1 7 10 11 
11 8 3 0 0 0 0 0 0 0 0 0 0 0 0 0 
0 0 0 1 6 9 11 13 12 11 10 9 8 7 6 2 2 3 3 3 3 2 1 0 0 0 0 0 0 0 0 0 
0 0 0 0 0 0 0 0 0 0 0 0 1 5 8 9 
8 6 2 0 0 0 0 0 0 0 0 0 0 0 0 0 
0 0 0 0 1 4 6 8 8 8 8 7 6 5 5 1 2 2 2 2 1 1 0 0 0 0 0 0 0 0 0 0 
0 0 0 0 0 0 0 0 0 0 0 0 0 3 5 6 
6 4 1 0 0 0 0 0 0 0 0 0 0 0 0 0 
0 0 0 0 0 1 3 5 5 6 5 5 5 4 4 1 1 1 1 1 0 0 0 0 0 0 0 0 0 0 0 0 
0 0 0 0 0 0 0 0 0 0 0 0 0 2 4 5 
4 3 0 0 0 0 0 0 0 0 0 0 0 0 0 0 
0 0 0 0 0 0 1 2 3 4 4 4 3 3 3 1 1 1 0 0 0 0 0 0 0 0 0 0 0 0 0 0 
0 0 0 0 0 0 0 0 0 0 0 0 0 1 3 3 
3 2 0 0 0 0 0 0 0 0 0 0 0 0 0 0 
0 0 0 0 0 0 0 0 1 2 2 2 2 2 2 0 0 0 0 0 0 0 0 0 0 0 0 0 0 0 0 0 
0 0 0 0 0 0 0 0 0 0 0 0 0 1 2 2 
2 1 0 0 0 0 0 0 0 0 0 0 0 0 0 0 
0 0 0 0 0 0 0 0 0 1 1 1 2 2 1 0 0 0 0 0 0 0 0 0 0 0 0 0 0 0 0 0 
0 0 0 0 0 0 0 0 0 0 0 0 0 0 1 1 
1 1 0 0 0 0 0 0 0 0 0 0 0 0 0 0 
0 0 0 0 0 0 0 0 0 0 0 1 1 1 1 0 0 0 0 0 0 0 0 0 0 0 0 0 0 0 0 0 
0 0 0 0 0 0 0 0 0 0 0 0 0 0 0 1 
1 0 0 0 0 0 0 0 0 0 0 0 0 0 0 0 
0 0 0 0 0 0 0 0 0 0 0 0 0 0 1 0 0 0 0 0 0 0 0 0 0 0 0 0 0 0 0 0 
0 0 0 0 0 0 0 0 0 0 0 0 0 0 0 0 
0 0 0 0 0 0 0 0 0 0 0 0 0 0 0 0 
0 0 0 0 0 0 0 0 0 0 0 0 0 0 0 0 0 0 0 0 0 0 0 0 0 0 0 0 0 0 0 0 
0 0 0 0 0 0 0 0 0 0 0 0 0 0 0 0 
0 0 0 0 0 0 0 0 0 0 0 0 0 0 0 0 
0 0 0 0 0 0 0 0 0 0 0 0 0 0 0 0 0 0 0 0 0 0 0 0 0 0 0 0 0 0 0 0 
0 0 0 0 0 0 0 0 0 0 0 0 0 0 0 0 
0 0 0 0 0 0 0 0 0 0 0 0 0 0 0 0 
0 0 0 0 0 0 0 0 0 0 0 0 0 0 0 0 0 0 0 0 0 0 0 0 0 0 0 0 0 0 0 0 
0 0 0 0 0 0 0 0 0 0 0 0 0 0 0 0 
0 0 0 0 0 0 0 0 0 0 0 0 0 0 0 0 
0 0 0 0 0 0 0 0 0 0 0 0 0 0 0 0 0 0 0 0 0 0 0 0 0 0 0 0 0 0 0 0 
0 0 0 0 0 0 0 0 0 0 0 0 0 0 0 0 
0 0 0 0 0 0 0 0 0 0 0 0 0 0 0 0 
0 0 0 0 0 0 0 0 0 0 0 0 0 0 0 0 0 0 0 0 0 0 0 0 0 0 0 0 0 0 0 0 
0 0 0 0 0 0 0 0 0 0 0 0 0 0 0 0 
0 0 0 0 0 0 0 0 0 0 0 0 0 0 0 0 
0 0 0 0 0 0 0 0 0 0 0 0 0 0 0 0 0 0 0 0 0 0 0 0 0 0 0 0 0 0 0 0 
0 0 0 0 0 0 0 0 0 0 0 0 0 0 0 0 
0 0 0 0 0 0 0 0 0 0 0 0 0 0 0 0 
0 0 0 0 0 0 0 0 0 0 0 0 0 0 0 0 0 0 0 0 0 0 0 0 0 0 0 0 0 0 0 0 
0 0 0 0 0 0 0 0 0 0 0 0 0 0 0 0 
0 0 0 0 0 0 0 0 0 0 0 0 0 0 0 0 
0 0 0 0 0 0 0 0 0 0 0 0 0 0 0 