P2
# Created by IrfanView
64 64
255
0 0 0 0 0 0 0 0 0 0 0 0 0 0 0 0 0 
0 0 0 0 0 0 0 0 0 0 0 0 0 0 0 0 
0 0 0 0 0 0 0 0 0 0 0 0 0 0 0 0 
0 0 0 0 0 0 0 0 0 0 0 0 0 0 0 0 0 0 0 0 0 0 0 0 0 0 0 0 0 0 0 0 
0 0 0 0 0 0 0 0 0 0 0 0 0 1 1 1 
1 1 1 0 0 0 0 0 0 0 0 0 0 0 0 0 
0 0 0 0 0 0 0 0 0 0 0 0 0 0 0 0 0 0 0 0 0 0 0 0 0 0 0 0 0 0 0 0 
0 0 0 0 0 0 0 0 0 0 0 1 2 2 2 2 
2 2 2 1 0 0 0 0 0 0 0 0 0 0 0 0 
0 0 0 0 0 0 0 0 0 0 0 0 0 0 0 0 0 0 0 0 0 0 0 0 0 0 0 0 0 0 0 0 
0 0 0 0 0 0 0 0 0 0 1 2 3 3 4 4 
4 4 3 3 2 1 0 0 0 0 0 0 0 0 0 0 
0 0 0 0 0 0 0 0 0 0 0 0 0 0 0 0 0 0 0 0 0 0 0 0 0 0 0 0 0 0 0 0 
0 0 0 0 0 0 0 0 1 2 3 4 4 5 5 5 
5 5 5 5 4 4 2 0 0 0 0 0 0 0 0 0 
0 0 0 0 0 0 0 0 0 0 0 0 0 0 0 0 0 0 0 0 0 0 0 0 0 0 0 0 0 0 0 0 
0 0 0 0 0 0 1 2 3 4 5 5 5 6 6 6 
6 7 7 7 7 6 6 4 2 0 0 0 0 0 0 0 
0 0 0 0 0 0 0 0 0 0 0 0 0 0 0 0 0 0 0 0 0 0 0 0 0 0 0 0 0 0 0 0 
0 0 0 0 0 2 4 5 6 6 7 7 7 7 7 7 
7 8 8 9 9 9 9 9 8 5 1 0 0 0 0 0 
0 0 0 0 0 0 0 0 0 0 0 0 0 0 0 0 0 0 0 0 0 0 0 0 0 0 0 0 0 0 0 0 
0 0 0 2 6 8 9 9 9 8 8 8 7 7 7 8 
8 9 10 11 12 13 14 14 14 13 10 5 0 0 0 0 
0 0 0 0 0 0 0 0 0 0 0 0 0 0 0 0 0 0 0 0 0 0 0 0 0 0 0 0 0 0 0 0 
0 1 7 11 13 14 14 13 12 10 9 8 8 7 7 8 
8 9 10 12 14 16 18 20 22 22 21 18 12 3 0 0 
0 0 0 0 0 0 0 0 0 0 0 0 0 0 0 0 0 0 0 0 0 0 0 0 0 0 0 0 0 0 0 0 
8 15 19 21 22 21 19 17 14 12 10 8 7 7 7 7 
8 9 11 13 16 19 23 27 31 34 35 34 30 23 0 0 
0 0 0 0 0 0 0 0 0 0 0 0 0 0 0 0 0 0 0 0 0 0 0 0 0 0 0 0 0 0 0 19 
26 31 33 34 32 29 25 20 16 12 9 7 6 5 5 5 
6 7 10 13 17 22 28 35 41 47 52 54 53 48 0 0 
0 0 0 0 0 0 0 0 0 0 0 0 0 0 0 23 25 27 29 31 33 33 32 29 26 22 19 16 15 14 14 41 
45 49 50 48 44 38 31 24 17 11 7 4 2 1 1 2 
3 4 7 11 16 24 33 43 54 64 73 78 80 78 10 8 
7 6 7 10 15 23 29 31 27 29 36 38 35 29 24 49 57 65 74 81 86 89 88 83 76 67 58 49 42 36 31 62 
66 69 69 65 58 49 38 27 17 9 3 0 0 0 0 0 
0 0 2 7 14 23 36 51 68 84 99 109 114 115 111 28 
34 41 52 66 83 100 112 113 109 111 119 121 111 96 79 71 83 96 109 121 129 133 132 126 116 104 90 77 65 54 45 84 
90 93 93 87 76 61 45 28 14 3 0 0 0 0 0 0 
0 0 0 0 8 20 38 60 85 110 132 149 158 159 154 46 
57 71 89 112 138 164 185 196 201 202 201 192 173 148 123 144 102 118 134 147 157 162 162 155 144 129 113 97 81 68 97 106 
115 122 123 141 120 78 52 28 8 0 0 0 0 0 0 0 
0 0 0 0 0 13 37 68 106 164 204 234 250 216 206 59 
74 93 116 144 175 206 234 253 255 255 255 240 214 183 153 149 113 130 147 161 172 177 176 170 158 143 126 109 92 77 111 151 
169 182 183 171 144 106 64 22 0 0 0 0 0 0 0 0 
0 0 0 0 0 0 31 78 137 199 254 255 255 255 255 255 
85 106 132 161 193 226 255 255 255 255 255 255 232 200 168 147 119 134 150 164 174 179 178 172 161 147 130 113 96 100 130 160 
190 213 222 211 177 127 69 13 0 0 0 0 0 0 0 0 
0 0 0 0 0 0 8 75 157 243 255 255 255 255 255 255 
249 112 137 166 196 226 254 255 255 255 255 255 231 201 171 136 111 130 145 157 167 171 171 165 156 142 127 111 75 89 121 164 
212 254 255 255 229 161 81 5 0 0 0 0 0 0 0 0 
0 0 0 0 0 0 0 69 180 255 255 255 255 255 255 255 
255 208 134 160 188 214 238 255 255 255 255 241 218 192 165 119 99 139 134 145 153 157 157 152 144 132 54 43 39 61 102 163 
238 255 255 255 255 218 106 3 0 0 0 0 0 0 0 0 
0 0 0 0 0 0 0 57 208 255 255 255 255 255 255 255 
255 200 146 149 172 194 214 229 237 237 230 216 197 175 152 98 121 116 113 110 106 139 139 72 54 34 15 0 0 22 72 156 
255 255 255 255 255 255 156 12 0 0 0 0 0 0 0 0 
0 0 0 0 0 0 0 42 246 255 255 255 255 255 255 255 
255 175 115 82 152 171 186 198 204 205 199 188 172 154 135 75 95 92 89 85 79 70 57 40 20 0 0 0 0 0 32 142 
255 255 255 255 255 255 243 43 0 0 0 0 0 0 0 90 
0 0 0 0 0 0 0 24 255 255 255 255 255 255 255 255 
243 132 71 42 66 78 158 167 172 172 168 159 120 109 98 54 70 69 67 62 55 45 30 11 0 0 0 0 0 0 0 123 
255 255 255 255 255 255 255 104 0 0 0 0 0 0 84 86 
85 0 0 0 0 0 0 8 255 255 255 255 255 255 255 255 
190 72 15 0 0 30 49 67 81 90 95 95 92 86 78 46 49 49 47 42 34 23 7 0 0 0 0 0 0 0 0 101 
255 255 255 255 255 255 255 193 0 0 0 0 0 0 0 79 
0 0 0 0 0 0 0 0 255 255 255 255 255 255 255 255 
115 1 0 0 0 0 11 31 47 59 66 69 68 65 60 27 31 32 30 25 17 5 0 0 0 0 0 0 0 0 0 83 
255 255 255 255 255 255 255 255 21 0 0 0 0 0 0 0 
0 0 0 0 0 0 0 2 255 255 255 255 255 255 255 250 
31 0 0 0 0 0 0 3 21 34 43 48 49 48 46 12 17 18 16 11 3 0 0 0 0 0 0 0 0 0 0 72 
255 255 255 255 255 255 255 255 87 0 0 0 0 0 0 0 
0 0 0 0 0 0 0 14 255 255 255 255 255 255 255 146 
0 0 0 0 0 0 0 0 1 15 25 31 34 35 33 1 6 7 6 1 0 0 0 0 0 0 0 0 0 0 0 68 
255 255 255 255 255 255 255 255 139 0 0 0 0 0 0 0 
0 0 0 0 0 0 0 30 255 255 255 255 255 255 255 59 
0 0 0 0 0 0 0 0 0 1 12 18 22 24 23 0 0 0 0 0 0 0 0 0 0 0 0 0 0 0 0 69 
255 255 255 255 255 255 255 255 167 6 0 0 0 0 0 0 
0 0 0 0 0 0 0 41 255 255 255 255 255 255 209 6 
0 0 0 0 0 0 0 0 0 0 3 9 13 15 15 0 0 0 0 0 0 0 0 0 0 0 0 0 0 0 0 71 
255 255 255 255 255 255 255 255 170 32 0 0 0 0 0 0 
0 0 0 0 0 0 0 46 224 255 255 255 255 255 126 0 
0 0 0 0 0 0 0 0 0 0 0 3 7 9 10 0 0 0 0 0 0 0 0 0 0 0 0 0 0 0 0 71 
213 255 255 255 255 255 255 255 155 43 0 0 0 0 0 0 
0 0 0 0 0 0 0 44 166 255 255 255 255 201 79 0 
0 0 0 0 0 0 0 0 0 0 0 0 3 5 6 0 0 0 0 0 0 0 0 0 0 0 0 0 0 0 0 68 
169 255 255 255 255 255 255 232 129 42 0 0 0 0 0 0 
0 0 0 0 0 0 0 37 120 196 245 249 206 134 54 0 
0 0 0 0 0 0 0 0 0 0 0 0 1 3 3 0 0 0 0 0 0 0 0 0 0 0 0 0 0 0 9 62 
132 209 255 255 255 255 246 173 99 33 0 0 0 0 0 0 
0 0 0 0 0 0 0 28 84 133 163 165 138 93 41 0 
0 0 0 0 0 0 0 0 0 0 0 0 1 2 2 0 0 0 0 0 0 0 0 0 0 0 0 0 0 0 17 54 
101 152 196 225 230 211 172 122 69 11 0 0 0 0 0 0 
0 0 0 0 0 0 0 18 56 89 108 110 94 66 33 4 
0 0 0 0 0 0 0 0 0 0 0 0 1 2 1 0 0 0 0 0 0 0 0 0 0 0 0 0 0 11 30 56 
75 107 135 152 154 140 113 74 34 0 0 0 0 0 0 0 
0 0 0 0 0 0 0 7 34 57 70 72 64 47 27 27 
11 1 0 0 0 0 0 0 0 0 2 2 3 2 2 0 0 0 0 0 0 0 0 0 0 0 3 7 28 28 26 24 
20 16 11 7 103 90 68 40 10 0 0 0 0 0 0 0 
0 0 0 0 0 0 0 0 22 42 57 19 25 30 35 39 
41 42 40 13 10 8 7 7 6 6 6 5 5 4 3 0 0 0 0 0 2 3 5 7 9 12 31 33 35 34 32 28 
23 17 11 6 2 0 36 14 0 0 0 0 0 0 0 0 
0 0 0 0 0 0 0 0 10 11 16 23 30 37 44 49 
52 53 52 48 43 23 19 16 14 12 10 8 7 5 4 0 0 0 2 4 6 8 11 14 19 33 37 40 41 40 36 31 
24 17 10 3 0 0 0 0 0 0 0 0 0 0 0 0 
0 0 0 0 0 0 0 0 5 11 17 25 34 44 52 59 
63 65 64 60 54 46 31 26 21 17 14 11 9 7 5 0 0 2 4 7 9 13 17 21 33 39 43 46 46 44 39 32 
23 14 6 0 0 0 0 0 0 0 0 0 0 0 0 0 
0 0 0 0 0 0 0 0 3 9 17 26 37 49 59 68 
74 77 75 71 64 55 46 35 28 22 18 14 11 9 7 0 1 4 6 9 12 16 21 30 37 43 47 50 50 46 39 30 
19 8 0 0 0 0 0 0 0 0 0 0 0 0 0 0 
0 0 0 0 0 0 0 0 0 6 14 25 38 51 65 76 
83 87 86 81 73 63 53 42 34 27 21 17 13 10 8 1 3 5 8 11 15 19 25 33 39 45 50 51 50 45 36 24 
11 0 0 0 0 0 0 0 0 0 0 0 0 0 0 0 
0 0 0 0 0 0 0 0 0 0 9 21 35 50 66 79 
89 94 93 89 80 70 58 47 39 31 24 19 15 12 9 2 4 6 9 12 16 21 27 34 40 46 49 50 46 39 28 14 
0 0 0 0 0 0 0 0 0 0 0 0 0 0 0 0 
0 0 0 0 0 0 0 0 0 0 1 13 28 45 62 77 
89 96 97 93 84 74 62 50 38 33 26 21 16 13 10 3 5 7 10 13 17 22 27 33 39 43 45 44 39 29 15 0 
0 0 0 0 0 0 0 0 0 0 0 0 0 0 0 0 
0 0 0 0 0 0 0 0 0 0 0 2 17 34 52 68 
82 91 95 92 84 74 62 51 39 34 27 21 17 13 10 3 5 7 10 13 17 21 25 31 35 38 39 36 28 16 1 0 
0 0 0 0 0 0 0 0 0 0 0 0 0 0 4 8 
6 0 0 0 0 0 0 0 0 0 0 0 4 20 38 55 
70 82 87 86 80 71 60 49 39 34 27 21 17 13 10 4 5 7 10 13 16 20 23 27 30 32 30 25 15 1 0 0 
0 0 0 0 0 0 0 0 0 0 0 0 0 12 21 25 
22 14 3 0 0 0 0 0 0 0 0 0 0 5 22 39 
55 68 75 76 72 65 56 46 36 33 26 21 16 13 10 4 5 7 9 11 14 17 19 22 24 24 20 13 2 0 0 0 
0 0 0 0 0 0 0 0 0 0 0 0 7 18 27 31 
28 20 10 0 0 0 0 0 0 0 0 0 0 0 6 23 
39 52 60 63 61 56 49 41 32 30 24 19 16 12 10 4 5 6 8 10 12 14 15 17 17 15 10 2 0 0 0 0 
0 0 0 0 0 0 0 0 0 0 0 0 7 17 25 28 
26 19 10 0 0 0 0 0 0 0 0 0 0 0 0 6 
22 35 44 48 49 46 41 34 28 27 22 18 14 11 9 3 4 6 7 8 10 11 11 12 11 8 2 0 0 0 0 0 
0 0 0 0 0 0 0 0 0 0 0 0 2 11 17 19 
18 13 5 0 0 0 0 0 0 0 0 0 0 0 0 0 
6 19 28 34 36 35 32 28 22 23 19 15 13 10 8 3 4 5 6 7 8 8 9 7 5 1 0 0 0 0 0 0 
0 0 0 0 0 0 0 0 0 0 0 0 0 1 6 8 
7 4 0 0 0 0 0 0 0 0 0 0 0 0 0 0 
0 5 15 21 24 25 24 21 22 19 16 13 11 9 7 3 3 4 5 5 5 6 5 3 1 0 0 0 0 0 0 0 
0 0 0 0 0 0 0 0 0 0 0 2 12 0 0 0 
0 0 14 6 0 0 0 0 0 0 0 0 0 0 0 0 
0 0 4 11 15 16 16 15 17 15 13 11 9 8 7 2 3 3 3 4 4 3 2 1 0 0 0 0 0 0 0 0 
0 0 0 0 0 0 0 0 0 0 0 1 9 15 18 20 
19 16 11 4 0 0 0 0 0 0 0 0 0 0 0 0 
0 0 0 3 7 10 10 13 12 11 10 9 8 7 6 2 2 2 2 2 2 1 0 0 0 0 0 0 0 0 0 0 
0 0 0 0 0 0 0 0 0 0 0 0 6 11 14 15 
14 12 8 3 0 0 0 0 0 0 0 0 0 0 0 0 
0 0 0 0 2 5 8 9 9 8 8 7 6 5 5 1 1 1 1 1 1 0 0 0 0 0 0 0 0 0 0 0 
0 0 0 0 0 0 0 0 0 0 0 0 4 8 10 11 
11 9 6 2 0 0 0 0 0 0 0 0 0 0 0 0 
0 0 0 0 0 2 4 5 6 6 6 5 5 4 4 1 1 1 1 0 0 0 0 0 0 0 0 0 0 0 0 0 
0 0 0 0 0 0 0 0 0 0 0 0 3 6 7 8 
8 6 4 1 0 0 0 0 0 0 0 0 0 0 0 0 
0 0 0 0 0 0 2 3 3 4 4 4 4 3 3 0 0 0 0 0 0 0 0 0 0 0 0 0 0 0 0 0 
0 0 0 0 0 0 0 0 0 0 0 0 2 4 5 6 
6 5 3 0 0 0 0 0 0 0 0 0 0 0 0 0 
0 0 0 0 0 0 0 1 2 2 3 3 3 2 2 0 0 0 0 0 0 0 0 0 0 0 0 0 0 0 0 0 
0 0 0 0 0 0 0 0 0 0 0 0 1 3 4 4 
4 3 2 0 0 0 0 0 0 0 0 0 0 0 0 0 
0 0 0 0 0 0 0 0 1 1 1 2 2 2 2 0 0 0 0 0 0 0 0 0 0 0 0 0 0 0 0 0 
0 0 0 0 0 0 0 0 0 0 0 0 0 2 3 3 
3 2 1 0 0 0 0 0 0 0 0 0 0 0 0 0 
0 0 0 0 0 0 0 0 0 0 1 1 1 1 1 0 0 0 0 0 0 0 0 0 0 0 0 0 0 0 0 0 
0 0 0 0 0 0 0 0 0 0 0 0 0 1 2 2 
2 2 1 0 0 0 0 0 0 0 0 0 0 0 0 0 
0 0 0 0 0 0 0 0 0 0 0 0 1 1 1 0 0 0 0 0 0 0 0 0 0 0 0 0 0 0 0 0 
0 0 0 0 0 0 0 0 0 0 0 0 0 1 1 2 
1 1 0 0 0 0 0 0 0 0 0 0 0 0 0 0 
0 0 0 0 0 0 0 0 0 0 0 0 0 0 0 0 0 0 0 0 0 0 0 0 0 0 0 0 0 0 0 0 
0 0 0 0 0 0 0 0 0 0 0 0 0 0 1 1 
1 1 0 0 0 0 0 0 0 0 0 0 0 0 0 0 
0 0 0 0 0 0 0 0 0 0 0 0 0 0 0 0 0 0 0 0 0 0 0 0 0 0 0 0 0 0 0 0 
0 0 0 0 0 0 0 0 0 0 0 0 0 0 0 0 
0 0 0 0 0 0 0 0 0 0 0 0 0 0 0 0 
0 0 0 0 0 0 0 0 0 0 0 0 0 0 0 0 0 0 0 0 0 0 0 0 0 0 0 0 0 0 0 0 
0 0 0 0 0 0 0 0 0 0 0 0 0 0 0 0 
0 0 0 0 0 0 0 0 0 0 0 0 0 0 0 0 
0 0 0 0 0 0 0 0 0 0 0 0 0 0 0 0 0 0 0 0 0 0 0 0 0 0 0 0 0 0 0 0 
0 0 0 0 0 0 0 0 0 0 0 0 0 0 0 0 
0 0 0 0 0 0 0 0 0 0 0 0 0 0 0 0 
0 0 0 0 0 0 0 0 0 0 0 0 0 0 0 0 0 0 0 0 0 0 0 0 0 0 0 0 0 0 0 0 
0 0 0 0 0 0 0 0 0 0 0 0 0 0 0 0 
0 0 0 0 0 0 0 0 0 0 0 0 0 0 0 0 
0 0 0 0 0 0 0 0 0 0 0 0 0 0 0 0 0 0 0 0 0 0 0 0 0 0 0 0 0 0 0 0 
0 0 0 0 0 0 0 0 0 0 0 0 0 0 0 0 
0 0 0 0 0 0 0 0 0 0 0 0 0 0 0 0 
0 0 0 0 0 0 0 0 0 0 0 0 0 0 0 0 0 0 0 0 0 0 0 0 0 0 0 0 0 0 0 0 
0 0 0 0 0 0 0 0 0 0 0 0 0 0 0 0 
0 0 0 0 0 0 0 0 0 0 0 0 0 0 0 0 
0 0 0 0 0 0 0 0 0 0 0 0 0 0 0 