P2
# Created by IrfanView
64 64
255
0 0 0 0 0 0 0 0 0 0 0 0 0 0 0 0 0 
0 0 0 0 0 0 0 0 0 0 0 0 0 1 1 1 
1 1 0 0 0 0 0 0 0 0 0 0 0 0 0 0 
0 0 0 0 0 0 0 0 0 0 0 0 0 0 0 0 0 0 0 0 0 0 0 0 0 0 0 0 0 0 0 0 
0 0 0 0 0 0 0 0 0 0 0 1 1 2 2 2 
2 2 1 1 0 0 0 0 0 0 0 0 0 0 0 0 
0 0 0 0 0 0 0 0 0 0 0 0 0 0 0 0 0 0 0 0 0 0 0 0 0 0 0 0 0 0 0 0 
0 0 0 0 0 0 0 0 0 0 1 2 3 3 3 3 
3 3 3 2 1 0 0 0 0 0 0 0 0 0 0 0 
0 0 0 0 0 0 0 0 0 0 0 0 0 0 0 0 0 0 0 0 0 0 0 0 0 0 0 0 0 0 0 0 
0 0 0 0 0 0 0 0 0 2 3 3 4 5 5 5 
5 5 5 4 4 2 1 0 0 0 0 0 0 0 0 0 
0 0 0 0 0 0 0 0 0 0 0 0 0 0 0 0 0 0 0 0 0 0 0 0 0 0 0 0 0 0 0 0 
0 0 0 0 0 0 0 1 3 4 5 5 6 6 6 7 
7 7 7 6 6 5 4 2 0 0 0 0 0 0 0 0 
0 0 0 0 0 0 0 0 0 0 0 0 0 0 0 0 0 0 0 0 0 0 0 0 0 0 0 0 0 0 0 0 
0 0 0 0 0 0 2 4 5 6 7 7 8 8 8 8 
9 9 9 9 9 8 8 6 4 1 0 0 0 0 0 0 
0 0 0 0 0 0 0 0 0 0 0 0 0 0 0 0 0 0 0 0 0 0 0 0 0 0 0 0 0 0 0 0 
0 0 0 0 2 4 6 7 8 9 9 9 9 10 10 10 
10 11 11 12 12 12 12 11 10 7 4 0 0 0 0 0 
0 0 0 0 0 0 0 0 0 0 0 0 0 0 0 0 0 0 0 0 0 0 0 0 0 0 0 0 0 0 0 0 
0 0 0 5 8 10 11 11 11 11 11 11 11 11 11 12 
12 13 13 14 15 16 17 17 17 16 13 8 1 0 0 0 
0 0 0 0 0 0 0 0 0 0 0 0 0 0 0 0 0 0 0 0 0 0 0 0 0 0 0 0 0 0 0 0 
0 5 10 13 15 16 16 16 15 14 13 13 13 13 13 13 
14 14 16 17 19 21 22 24 25 26 24 21 15 7 0 0 
0 0 0 0 0 0 0 0 0 0 0 0 0 0 0 0 0 0 0 0 0 0 0 0 0 0 0 0 0 0 0 4 
11 17 21 23 24 24 22 20 18 17 15 14 14 13 14 14 
15 16 18 20 22 25 29 32 35 38 38 37 33 27 16 0 
0 0 0 0 0 0 0 0 0 0 0 0 0 0 0 0 0 0 0 0 0 0 0 0 0 0 0 0 0 0 15 22 
27 32 34 35 34 32 29 25 22 19 17 15 14 14 14 15 
15 17 19 22 25 30 35 41 47 52 56 57 56 51 44 0 
0 0 0 0 0 0 0 0 0 0 0 0 0 0 0 22 23 24 25 26 27 27 26 24 22 20 18 16 15 15 35 41 
45 49 50 50 47 42 37 31 25 21 17 15 14 13 14 14 
15 17 19 23 28 34 42 51 61 70 77 82 83 80 75 8 
7 6 6 7 10 15 21 26 30 32 32 30 26 23 19 43 48 54 60 65 69 70 69 66 61 55 49 42 37 32 56 61 
65 68 69 67 62 54 45 36 28 21 17 14 12 12 12 13 
14 16 18 23 29 38 49 63 78 92 104 112 116 116 112 26 
31 37 45 56 70 84 97 107 112 113 112 105 94 81 68 60 70 79 89 97 102 105 104 100 93 84 74 64 55 47 76 81 
87 91 92 89 81 69 56 42 30 21 14 11 9 9 9 10 
11 13 15 20 28 40 56 76 98 120 138 152 159 159 154 42 
52 63 79 97 118 140 159 174 182 184 178 166 148 127 106 142 85 97 109 119 126 129 129 124 116 105 93 81 69 87 94 103 
113 120 123 118 106 89 68 48 31 18 10 5 4 4 4 5 
6 7 10 15 25 41 63 91 123 156 185 205 215 214 204 54 
67 83 103 126 151 177 201 219 229 230 222 206 184 159 134 147 95 108 120 131 139 142 142 137 129 117 104 91 78 98 110 126 
143 183 185 176 153 121 86 56 31 13 2 0 0 0 0 0 
0 0 1 6 18 38 68 108 161 217 255 255 255 255 255 241 
78 96 117 142 169 196 220 239 250 251 242 225 201 175 148 144 117 111 124 134 142 146 145 141 132 121 108 95 92 103 123 171 
199 221 230 221 194 152 102 52 7 6 0 0 0 0 0 0 
0 0 0 0 5 30 54 119 193 255 255 255 255 255 255 255 
255 101 123 147 173 199 221 239 249 249 241 225 203 178 152 133 109 109 120 130 138 141 141 137 129 119 106 78 85 114 147 188 
232 255 255 255 253 198 130 62 4 0 0 0 0 101 105 107 
106 101 0 0 0 0 48 132 232 255 255 255 255 255 255 255 
255 234 121 144 167 190 210 225 233 234 227 212 193 171 148 115 96 122 117 114 128 131 131 127 78 67 60 59 70 103 147 205 
255 255 255 255 255 255 173 82 5 0 0 0 98 106 111 113 
112 107 99 0 0 0 38 147 255 255 255 255 255 255 255 255 
255 242 184 134 155 174 191 203 210 211 205 193 176 157 137 93 108 102 98 94 90 84 76 65 53 42 34 34 53 86 142 221 
255 255 255 255 255 255 239 116 14 0 0 90 100 108 113 115 
114 109 101 0 0 0 27 163 255 255 255 255 255 255 255 255 
255 239 172 151 138 154 168 178 183 184 179 169 155 140 107 70 85 81 78 74 69 62 53 41 28 15 6 12 26 64 132 237 
255 255 255 255 255 255 255 168 35 0 0 0 98 106 111 113 
111 107 99 0 0 0 14 181 255 255 255 255 255 255 255 255 
255 223 149 105 101 99 105 151 155 156 152 117 109 100 89 49 63 61 59 55 50 42 31 19 4 0 0 0 0 39 119 251 
255 255 255 255 255 255 255 238 70 0 0 0 92 100 105 107 
105 101 94 0 0 0 2 199 255 255 255 255 255 255 255 255 
255 192 116 75 63 62 68 77 84 89 91 90 86 80 72 40 43 44 42 38 32 24 13 0 0 0 0 0 0 14 105 255 
255 255 255 255 255 255 255 255 117 0 0 0 84 90 95 97 
96 92 86 0 0 0 0 213 255 255 255 255 255 255 255 255 
255 150 77 42 26 28 37 47 56 62 66 67 66 62 57 23 27 28 27 24 18 9 0 0 0 0 0 0 0 0 91 255 
255 255 255 255 255 255 255 255 167 12 0 0 74 79 83 85 
84 81 0 0 0 0 0 219 255 255 255 255 255 255 255 255 
226 102 37 10 0 0 11 23 33 41 46 49 49 47 44 10 14 16 15 12 6 0 0 0 0 0 0 0 0 0 81 253 
255 255 255 255 255 255 255 255 209 45 0 0 63 67 71 72 
71 69 0 0 0 0 0 212 255 255 255 255 255 255 255 255 
166 57 3 0 0 0 0 4 15 24 30 34 35 35 33 0 5 7 6 3 0 0 0 0 0 0 0 0 0 0 74 235 
255 255 255 255 255 255 255 255 234 73 0 0 0 55 58 59 
59 57 0 0 0 0 3 194 255 255 255 255 255 255 255 255 
112 21 0 0 0 0 0 0 2 11 18 22 25 25 24 0 0 0 0 0 0 0 0 0 0 0 0 0 0 0 71 211 
255 255 255 255 255 255 255 255 236 89 0 0 0 0 0 0 
0 0 0 0 0 0 9 167 255 255 255 255 255 255 255 191 
70 0 0 0 0 0 0 0 0 3 10 14 17 18 17 0 0 0 0 0 0 0 0 0 0 0 0 0 0 0 68 184 
255 255 255 255 255 255 255 255 219 93 3 0 0 0 0 0 
0 0 0 0 0 0 13 136 255 255 255 255 255 255 255 134 
43 0 0 0 0 0 0 0 0 0 4 8 11 12 12 0 0 0 0 0 0 0 0 0 0 0 0 0 0 6 65 156 
255 255 255 255 255 255 255 255 189 87 10 0 0 0 0 0 
0 0 0 0 0 0 13 106 214 255 255 255 255 255 183 95 
29 0 0 0 0 0 0 0 0 0 1 5 7 8 8 0 0 0 0 0 0 0 0 0 0 0 0 0 0 14 61 130 
217 255 255 255 255 255 255 244 152 72 2 0 0 0 0 0 
0 0 0 0 0 0 10 79 154 222 255 255 250 195 130 69 
22 0 0 0 0 0 0 0 0 0 0 3 5 5 5 0 0 0 0 0 0 0 0 0 0 0 0 0 0 14 55 105 
166 231 255 255 255 255 246 182 114 45 0 0 0 0 0 0 
0 0 0 0 0 0 5 55 108 153 182 189 171 136 93 53 
21 0 0 0 0 0 0 0 0 0 0 2 4 4 4 0 0 0 0 0 0 0 0 0 0 0 0 0 2 21 49 86 
124 167 204 226 227 209 173 127 71 23 0 0 0 0 0 0 
0 0 0 0 0 0 0 35 72 103 123 127 117 95 68 41 
24 7 0 0 0 0 0 0 0 0 2 3 4 4 3 0 0 0 0 0 0 0 0 0 0 0 0 3 13 27 46 71 
98 125 147 158 156 140 112 77 39 1 0 0 0 0 0 0 
0 0 0 0 0 0 0 17 46 71 80 84 79 80 64 47 
31 20 11 6 3 2 2 3 4 4 5 5 5 4 3 0 0 0 0 0 0 0 0 1 2 4 8 13 21 22 20 18 
15 12 102 107 102 89 68 41 12 0 0 0 0 0 0 0 
0 0 0 0 0 0 0 4 27 46 61 69 22 26 30 33 
35 35 26 20 17 14 12 10 9 9 8 7 6 5 4 0 0 0 0 0 2 3 5 7 10 13 17 26 27 26 24 21 
17 12 8 4 0 52 35 14 0 0 0 0 0 0 0 0 
0 0 0 0 0 0 0 0 13 30 15 20 26 33 38 42 
45 46 44 41 30 25 21 18 15 13 11 10 8 6 5 0 0 0 1 3 5 7 10 13 17 21 29 31 32 30 27 23 
17 11 6 1 0 0 10 0 0 0 0 0 0 0 0 0 
0 0 0 0 0 0 0 0 3 10 16 23 31 38 45 51 
55 56 55 51 46 36 31 26 21 18 15 12 10 8 6 0 0 1 3 6 8 11 14 18 23 30 34 35 35 33 29 23 
16 8 2 0 0 0 0 0 0 0 0 0 0 0 0 0 
0 0 0 0 0 0 0 0 4 9 16 24 33 43 52 59 
64 66 65 61 55 47 39 33 27 22 18 14 12 9 7 0 1 3 5 8 11 14 18 22 29 33 37 38 37 34 28 20 
12 3 0 0 0 0 0 0 0 0 0 0 0 0 0 0 
0 0 0 0 0 0 0 0 2 7 14 24 34 46 56 65 
71 74 73 69 63 54 45 39 32 26 21 17 13 11 8 0 2 4 7 9 12 16 20 26 31 35 38 39 37 32 24 15 
4 0 0 0 0 0 0 0 0 0 0 0 0 0 0 0 
0 0 0 0 0 0 0 0 0 3 11 20 32 45 58 69 
76 80 80 76 69 60 50 40 35 29 23 18 15 12 9 1 3 5 8 10 14 17 22 26 31 35 37 36 33 26 17 5 
0 0 0 0 0 0 0 0 0 0 0 0 0 0 0 0 
0 0 0 0 0 0 0 0 0 0 5 15 27 41 56 68 
77 82 83 79 72 63 53 43 38 31 25 20 16 12 10 2 4 6 8 11 14 18 22 26 30 33 33 32 26 18 6 0 
0 0 0 0 0 0 0 0 0 0 0 0 0 0 3 8 
6 0 0 0 0 0 0 0 0 0 0 7 19 34 49 63 
73 80 81 79 72 63 54 43 39 32 25 20 16 13 10 3 4 6 8 11 14 17 21 24 27 29 28 24 17 7 0 0 
0 0 0 0 0 0 0 0 0 0 0 0 7 26 42 49 
44 30 12 0 0 0 0 0 0 0 0 0 9 23 38 53 
65 73 76 74 69 61 52 42 39 31 25 20 16 13 10 3 5 6 8 10 13 16 17 20 23 23 21 16 7 0 0 0 
0 0 0 0 0 0 0 0 0 0 0 7 27 49 65 71 
65 49 29 11 0 0 0 0 0 0 0 0 0 10 25 40 
53 62 66 66 62 56 48 40 31 30 24 19 16 13 10 3 4 6 8 9 12 14 16 17 17 16 13 6 0 0 0 0 
0 0 0 0 0 0 0 0 0 0 0 16 36 55 70 76 
70 55 36 18 4 0 0 0 0 0 0 0 0 0 11 26 
38 48 54 55 53 49 42 35 34 28 22 18 15 12 10 3 4 5 7 8 10 11 13 12 12 10 5 0 0 0 0 0 
0 0 0 0 0 0 0 0 0 0 2 17 34 50 62 66 
62 50 35 19 7 0 0 0 0 0 0 0 0 0 0 11 
24 34 40 43 43 40 36 30 29 24 20 17 14 11 9 3 4 5 6 7 8 9 9 8 7 4 0 0 0 0 0 0 
0 0 0 0 0 0 0 0 0 0 0 12 26 39 48 51 
48 39 27 16 5 0 0 0 0 0 0 0 0 0 0 0 
10 20 27 31 32 31 28 24 25 21 18 15 12 10 8 2 3 4 5 5 6 6 6 5 3 0 0 0 0 0 0 0 
0 0 0 0 0 0 0 0 0 0 0 5 15 24 31 34 
32 26 18 9 2 0 0 0 0 0 0 0 0 0 0 0 
0 9 16 20 23 23 21 18 20 17 15 13 11 9 7 2 3 3 4 4 4 4 3 2 0 0 0 0 0 0 0 0 
0 0 0 0 0 0 0 0 0 0 0 0 4 11 15 17 
16 13 8 2 5 0 0 0 0 0 0 0 0 0 0 0 
0 0 7 11 14 15 15 17 16 14 12 11 9 8 6 2 2 2 3 3 3 2 1 0 0 0 0 0 0 0 0 0 
0 0 0 0 0 0 0 0 0 0 0 9 17 24 1 3 
3 25 19 12 4 0 0 0 0 0 0 0 0 0 0 0 
0 0 0 5 8 9 13 13 12 11 10 9 7 6 5 1 1 2 2 2 1 1 0 0 0 0 0 0 0 0 0 0 
0 0 0 0 0 0 0 0 0 0 0 6 13 18 21 22 
21 18 14 9 3 0 0 0 0 0 0 0 0 0 0 0 
0 0 0 0 3 7 8 9 9 8 8 7 6 5 5 1 1 1 1 1 0 0 0 0 0 0 0 0 0 0 0 0 
0 0 0 0 0 0 0 0 0 0 0 4 9 13 16 16 
16 14 11 6 2 0 0 0 0 0 0 0 0 0 0 0 
0 0 0 0 1 3 5 6 6 6 6 5 5 4 4 0 1 0 0 0 0 0 0 0 0 0 0 0 0 0 0 0 
0 0 0 0 0 0 0 0 0 0 0 3 7 10 12 12 
12 10 8 5 1 0 0 0 0 0 0 0 0 0 0 0 
0 0 0 0 0 1 2 3 4 4 4 4 4 3 3 0 0 0 0 0 0 0 0 0 0 0 0 0 0 0 0 0 
0 0 0 0 0 0 0 0 0 0 0 2 5 7 9 9 
9 8 6 3 0 0 0 0 0 0 0 0 0 0 0 0 
0 0 0 0 0 0 1 2 2 3 3 3 3 2 2 0 0 0 0 0 0 0 0 0 0 0 0 0 0 0 0 0 
0 0 0 0 0 0 0 0 0 0 0 1 3 5 7 7 
7 6 4 3 0 0 0 0 0 0 0 0 0 0 0 0 
0 0 0 0 0 0 0 0 1 1 2 2 2 2 2 0 0 0 0 0 0 0 0 0 0 0 0 0 0 0 0 0 
0 0 0 0 0 0 0 0 0 0 0 1 3 4 5 5 
5 5 3 2 0 0 0 0 0 0 0 0 0 0 0 0 
0 0 0 0 0 0 0 0 0 1 1 1 1 1 1 0 0 0 0 0 0 0 0 0 0 0 0 0 0 0 0 0 
0 0 0 0 0 0 0 0 0 0 0 0 2 3 4 4 
4 3 2 1 0 0 0 0 0 0 0 0 0 0 0 0 
0 0 0 0 0 0 0 0 0 0 0 0 1 1 1 0 0 0 0 0 0 0 0 0 0 0 0 0 0 0 0 0 
0 0 0 0 0 0 0 0 0 0 0 0 1 2 3 3 
3 2 2 1 0 0 0 0 0 0 0 0 0 0 0 0 
0 0 0 0 0 0 0 0 0 0 0 0 0 0 0 0 0 0 0 0 0 0 0 0 0 0 0 0 0 0 0 0 
0 0 0 0 0 0 0 0 0 0 0 0 1 1 2 2 
2 2 1 0 0 0 0 0 0 0 0 0 0 0 0 0 
0 0 0 0 0 0 0 0 0 0 0 0 0 0 0 0 0 0 0 0 0 0 0 0 0 0 0 0 0 0 0 0 
0 0 0 0 0 0 0 0 0 0 0 0 0 1 1 1 
1 1 1 0 0 0 0 0 0 0 0 0 0 0 0 0 
0 0 0 0 0 0 0 0 0 0 0 0 0 0 0 0 0 0 0 0 0 0 0 0 0 0 0 0 0 0 0 0 
0 0 0 0 0 0 0 0 0 0 0 0 0 0 1 1 
1 1 0 0 0 0 0 0 0 0 0 0 0 0 0 0 
0 0 0 0 0 0 0 0 0 0 0 0 0 0 0 0 0 0 0 0 0 0 0 0 0 0 0 0 0 0 0 0 
0 0 0 0 0 0 0 0 0 0 0 0 0 0 0 0 
0 0 0 0 0 0 0 0 0 0 0 0 0 0 0 0 
0 0 0 0 0 0 0 0 0 0 0 0 0 0 0 0 0 0 0 0 0 0 0 0 0 0 0 0 0 0 0 0 
0 0 0 0 0 0 0 0 0 0 0 0 0 0 0 0 
0 0 0 0 0 0 0 0 0 0 0 0 0 0 0 0 
0 0 0 0 0 0 0 0 0 0 0 0 0 0 0 0 0 0 0 0 0 0 0 0 0 0 0 0 0 0 0 0 
0 0 0 0 0 0 0 0 0 0 0 0 0 0 0 0 
0 0 0 0 0 0 0 0 0 0 0 0 0 0 0 0 
0 0 0 0 0 0 0 0 0 0 0 0 0 0 0 0 0 0 0 0 0 0 0 0 0 0 0 0 0 0 0 0 
0 0 0 0 0 0 0 0 0 0 0 0 0 0 0 0 
0 0 0 0 0 0 0 0 0 0 0 0 0 0 0 0 
0 0 0 0 0 0 0 0 0 0 0 0 0 0 0 