P2
# Created by IrfanView
64 64
255
0 0 0 0 0 0 0 0 0 0 0 0 0 0 0 0 0 
0 0 0 0 0 0 0 0 0 0 0 0 1 1 1 2 
2 1 1 0 0 0 0 0 0 0 0 0 0 0 0 0 
0 0 0 0 0 0 0 0 0 0 0 0 0 0 0 0 0 0 0 0 0 0 0 0 0 0 0 0 0 0 0 0 
0 0 0 0 0 0 0 0 0 0 1 1 2 3 3 3 
3 3 2 2 1 0 0 0 0 0 0 0 0 0 0 0 
0 0 0 0 0 0 0 0 0 0 0 0 0 0 0 0 0 0 0 0 0 0 0 0 0 0 0 0 0 0 0 0 
0 0 0 0 0 0 0 0 0 1 2 3 4 4 4 5 
5 4 4 3 3 1 0 0 0 0 0 0 0 0 0 0 
0 0 0 0 0 0 0 0 0 0 0 0 0 0 0 0 0 0 0 0 0 0 0 0 0 0 0 0 0 0 0 0 
0 0 0 0 0 0 0 0 2 3 4 5 5 6 6 6 
6 6 6 6 5 4 2 0 0 0 0 0 0 0 0 0 
0 0 0 0 0 0 0 0 0 0 0 0 0 0 0 0 0 0 0 0 0 0 0 0 0 0 0 0 0 0 0 0 
0 0 0 0 0 0 1 3 4 5 6 7 7 8 8 8 
9 9 9 8 8 7 6 4 1 0 0 0 0 0 0 0 
0 0 0 0 0 0 0 0 0 0 0 0 0 0 0 0 0 0 0 0 0 0 0 0 0 0 0 0 0 0 0 0 
0 0 0 0 0 2 4 6 7 8 9 9 10 10 10 11 
11 11 11 11 11 11 10 8 6 3 0 0 0 0 0 0 
0 0 0 0 0 0 0 0 0 0 0 0 0 0 0 0 0 0 0 0 0 0 0 0 0 0 0 0 0 0 0 0 
0 0 0 0 4 6 8 9 10 11 11 12 12 13 13 13 
14 14 14 14 15 15 14 14 12 10 6 1 0 0 0 0 
0 0 0 0 0 0 0 0 0 0 0 0 0 0 0 0 0 0 0 0 0 0 0 0 0 0 0 0 0 0 0 0 
0 0 3 7 10 12 13 14 14 14 14 15 15 15 15 16 
16 17 17 18 19 20 20 20 20 18 15 11 4 0 0 0 
0 0 0 0 0 0 0 0 0 0 0 0 0 0 0 0 0 0 0 0 0 0 0 0 0 0 0 0 0 0 0 0 
2 8 12 15 17 18 19 19 18 18 18 17 18 18 18 19 
19 20 21 22 23 25 26 28 28 28 27 24 18 10 0 0 
0 0 0 0 0 0 0 0 0 0 0 0 0 0 0 0 0 0 0 0 0 0 0 0 0 0 0 0 0 0 1 8 
14 19 23 25 26 26 25 24 23 22 21 20 20 21 21 22 
22 23 25 26 28 31 34 37 39 41 41 40 36 30 20 0 
0 0 0 0 0 0 0 0 0 0 0 0 0 0 0 3 0 0 0 0 0 0 0 0 0 0 0 0 0 11 17 23 
29 33 35 37 36 35 33 30 28 26 24 24 23 23 24 25 
25 27 28 31 34 37 42 47 52 56 58 59 57 53 46 0 
0 0 0 0 0 0 0 0 0 0 0 0 0 0 0 21 21 22 23 23 23 23 22 21 20 18 17 16 16 30 35 40 
45 48 50 50 49 46 42 37 33 30 28 26 26 26 27 28 
29 30 32 35 39 44 51 59 67 74 80 83 83 81 75 9 
7 6 5 5 7 10 13 17 20 22 22 21 19 17 16 37 41 45 49 53 55 56 55 53 50 45 41 37 33 49 54 59 
63 67 68 67 64 59 52 45 39 34 31 29 29 29 30 31 
32 33 35 39 44 51 61 72 85 96 106 113 115 114 109 25 
28 33 39 47 57 68 78 87 92 93 91 85 76 66 57 51 58 65 72 77 81 83 82 79 74 68 61 54 47 67 72 78 
84 89 91 89 83 75 65 54 45 38 33 31 31 31 32 33 
34 36 38 42 48 59 72 89 107 125 140 150 155 154 149 141 
46 56 68 82 98 115 131 143 150 151 147 136 122 106 90 134 71 79 88 95 100 102 102 98 93 85 76 67 77 82 89 99 
109 116 119 117 109 96 81 65 52 42 35 32 32 33 34 35 
36 37 39 44 52 65 84 108 134 161 184 200 206 204 195 183 
60 73 89 107 127 147 166 181 189 190 184 171 153 134 114 137 135 88 97 105 111 114 113 110 103 95 85 84 86 94 106 122 
138 151 158 155 144 125 102 79 59 45 36 32 32 101 106 108 
106 37 39 43 53 71 96 130 169 209 243 255 255 255 252 230 
208 84 102 122 144 165 184 199 208 208 202 188 170 149 128 133 109 124 101 109 114 117 117 113 107 99 84 85 91 104 123 148 
198 217 225 219 197 162 120 98 69 48 36 95 105 114 120 122 
120 115 106 40 52 74 110 143 209 255 255 255 255 255 255 255 
248 90 108 128 149 170 188 202 210 210 204 191 173 153 132 122 101 117 111 107 112 115 114 111 84 79 77 80 90 110 140 197 
235 255 255 255 255 211 155 97 43 52 90 103 114 124 130 133 
131 125 116 104 46 75 92 168 255 255 255 255 255 255 255 255 
255 241 107 126 145 164 180 193 199 200 194 183 167 149 129 105 88 104 99 95 91 87 82 76 70 65 65 70 85 130 172 223 
255 255 255 255 255 255 203 127 57 2 93 107 120 130 137 139 
137 131 122 109 96 25 99 196 255 255 255 255 255 255 255 255 
255 255 211 118 135 152 166 176 182 182 177 167 154 138 121 83 94 88 84 80 76 72 66 59 53 49 49 56 77 128 181 251 
255 255 255 255 255 255 255 168 79 9 94 108 121 131 138 141 
139 133 123 111 0 16 105 226 255 255 255 255 255 255 255 255 
255 255 205 168 148 135 147 156 160 161 156 148 137 107 94 62 74 70 67 64 60 55 49 42 35 31 31 40 79 122 188 255 
255 255 255 255 255 255 255 222 109 22 91 105 117 128 134 137 
136 130 120 108 0 7 111 255 255 255 255 255 255 255 255 255 
255 255 197 148 123 112 110 111 112 113 110 105 98 89 80 42 54 53 52 49 45 39 33 25 18 13 13 22 65 114 192 255 
255 255 255 255 255 255 255 255 147 41 0 97 109 119 125 128 
127 121 112 101 0 0 116 255 255 255 255 255 255 255 255 255 
255 255 180 123 96 85 82 83 85 86 86 83 79 73 66 34 37 38 37 35 31 25 18 10 2 0 0 6 51 104 193 255 
255 255 255 255 255 255 255 255 189 66 0 87 97 106 112 115 
113 109 101 92 0 0 119 255 255 255 255 255 255 255 255 255 
255 236 156 107 69 59 57 59 62 64 65 65 62 58 54 18 23 25 25 23 19 13 6 0 0 0 0 0 39 94 189 255 
255 255 255 255 255 255 255 255 227 92 0 75 84 91 96 98 
97 94 88 80 0 0 118 255 255 255 255 255 255 255 255 255 
255 203 127 84 44 36 35 39 43 46 48 49 48 46 42 7 12 14 14 13 9 3 0 0 0 0 0 0 30 86 181 255 
255 255 255 255 255 255 255 255 254 114 15 62 69 75 79 81 
80 78 73 0 0 0 113 255 255 255 255 255 255 255 255 255 
255 166 99 62 22 17 18 22 27 31 34 36 36 35 33 0 3 6 6 5 1 0 0 0 0 0 0 0 25 78 169 255 
255 255 255 255 255 255 255 255 255 127 29 50 55 59 63 64 
64 62 59 0 0 0 104 255 255 255 255 255 255 255 255 255 
223 130 73 44 6 3 5 10 15 20 24 26 27 26 25 0 0 0 0 0 0 0 0 0 0 0 0 0 24 72 154 255 
255 255 255 255 255 255 255 255 254 130 38 39 43 46 48 50 
50 49 47 0 0 0 91 225 255 255 255 255 255 255 255 255 
174 99 54 6 0 0 0 2 7 12 16 18 19 20 19 0 0 0 0 0 0 0 0 0 0 0 0 0 25 67 137 236 
255 255 255 255 255 255 255 255 230 122 40 0 0 35 37 38 
38 38 0 0 0 0 76 183 255 255 255 255 255 255 255 217 
134 75 40 0 0 0 0 0 2 7 10 13 14 14 14 0 0 0 0 0 0 0 0 0 0 0 0 0 9 62 119 198 
255 255 255 255 255 255 255 255 195 106 34 0 0 0 0 0 
0 0 0 0 0 0 59 141 232 255 255 255 255 255 237 163 
102 59 13 0 0 0 0 0 0 4 7 9 10 11 10 0 0 0 0 0 0 0 0 0 0 0 0 0 13 45 100 161 
232 255 255 255 255 255 255 233 155 79 21 0 0 0 0 0 
0 0 0 0 0 0 43 105 170 228 255 255 255 225 174 122 
79 34 11 0 0 0 0 0 0 3 5 7 8 8 8 0 0 0 0 0 0 0 0 0 0 0 0 1 17 42 78 127 
178 230 255 255 255 255 229 173 108 53 6 0 0 0 0 0 
0 0 0 0 0 0 23 73 120 161 188 197 187 161 127 92 
56 31 14 4 0 0 0 0 2 4 5 6 7 7 6 0 0 0 0 0 0 0 0 0 0 0 0 8 20 40 66 98 
134 170 195 211 210 191 158 115 70 27 0 0 0 0 0 0 
0 0 0 0 0 0 8 44 79 109 128 135 130 113 95 71 
49 31 19 10 6 4 3 4 5 5 6 6 6 6 5 0 0 0 0 0 0 0 0 0 0 2 6 13 24 38 56 78 
102 124 140 148 144 129 104 72 38 2 0 0 0 0 0 0 
0 0 0 0 0 0 0 23 50 74 90 98 97 89 76 61 
47 35 25 18 14 11 9 9 8 8 8 7 7 6 5 0 0 0 0 0 0 0 2 3 5 8 13 19 27 37 50 64 
78 90 99 101 96 83 63 38 9 0 0 0 0 0 0 0 
0 0 0 0 0 0 0 7 30 48 63 71 74 71 65 57 
48 40 33 27 22 19 16 14 12 11 10 9 8 7 5 0 0 0 0 1 2 4 6 8 11 14 18 23 20 20 18 15 
12 8 5 67 61 49 32 10 0 0 0 0 0 0 0 0 
0 0 0 0 0 0 0 0 14 31 44 54 22 27 32 35 
37 38 36 36 31 27 23 20 17 14 13 11 9 7 6 0 0 0 1 3 5 7 9 12 15 19 23 23 24 22 20 16 
12 7 3 0 0 22 7 0 0 0 0 0 0 0 0 0 
0 0 0 0 0 0 0 0 3 19 14 20 26 32 38 43 
45 46 45 42 40 35 30 25 21 18 15 13 10 9 7 0 0 1 3 5 7 10 12 16 19 23 25 26 26 24 20 15 
10 4 0 0 0 0 0 0 0 0 0 0 0 0 0 0 
0 0 0 0 0 0 0 0 0 9 14 21 29 36 43 49 
53 54 53 50 45 43 36 30 25 21 18 14 12 10 8 0 0 2 4 6 9 12 15 18 22 25 27 28 27 24 19 13 
6 0 0 0 0 0 0 0 0 0 0 0 0 0 0 0 
0 0 0 0 0 0 0 0 3 7 13 21 30 39 47 54 
59 61 60 57 52 45 42 35 29 24 20 16 13 11 8 0 1 3 5 8 10 13 17 20 23 26 28 28 26 21 15 7 
0 0 0 0 0 0 0 0 0 0 0 0 0 0 0 0 
0 0 0 0 0 0 0 0 0 4 11 19 29 39 49 57 
63 66 66 62 57 49 41 39 32 26 22 18 14 11 9 1 2 4 6 9 11 14 17 21 23 26 27 26 22 16 9 0 
0 0 0 0 0 0 0 0 0 0 0 0 0 0 0 0 
0 0 0 0 0 0 0 0 0 0 6 15 25 36 47 57 
64 68 68 65 59 52 44 41 34 28 23 18 15 12 10 2 3 5 7 9 11 14 17 19 22 24 24 21 17 9 0 0 
0 0 0 0 0 0 0 0 0 0 0 0 0 17 40 50 
44 24 2 0 0 0 0 0 0 0 1 9 19 31 43 53 
61 66 67 65 60 53 44 36 35 28 23 19 15 12 10 2 3 5 7 9 11 14 16 17 19 20 19 15 9 1 0 0 
0 0 0 0 0 0 0 0 0 0 0 7 36 71 101 113 
101 72 39 11 0 0 0 0 0 0 0 1 11 23 35 46 
55 61 63 61 57 51 43 35 34 28 23 19 15 12 10 2 4 5 7 8 10 12 15 15 16 16 13 9 1 0 0 0 
0 0 0 0 0 0 0 0 0 0 5 29 63 100 130 141 
127 97 61 30 8 0 0 0 0 0 0 0 2 13 25 36 
46 52 55 55 52 47 40 33 33 27 22 18 15 12 10 2 4 5 6 8 9 11 12 12 12 11 7 1 0 0 0 0 
0 0 0 0 0 0 0 0 0 0 15 40 70 103 128 136 
125 98 67 38 17 3 0 0 0 0 0 0 0 3 14 25 
35 42 46 47 45 41 35 29 30 25 21 17 14 11 9 2 3 4 5 7 8 9 9 9 8 6 1 0 0 0 0 0 
0 0 0 0 0 0 0 0 0 2 18 39 64 89 108 114 
105 85 61 38 20 7 0 0 0 0 0 0 0 0 3 13 
23 30 35 37 37 34 30 25 26 22 19 15 13 11 9 2 3 4 5 5 6 7 7 6 4 1 0 0 0 0 0 0 
0 0 0 0 0 0 0 0 0 2 15 32 51 69 82 86 
80 67 50 33 19 8 2 0 0 0 0 0 0 0 0 3 
12 19 25 27 28 27 24 26 22 19 16 14 12 10 8 2 3 3 4 4 5 5 4 3 1 0 0 0 0 0 0 0 
0 0 0 0 0 0 0 0 0 0 9 22 36 48 57 60 
57 48 36 25 15 7 0 0 0 0 0 0 0 0 0 0 
3 10 15 19 20 20 18 21 18 16 14 12 10 9 7 2 2 2 3 3 3 3 2 1 0 0 0 0 0 0 0 0 
0 0 0 0 0 0 0 0 0 0 2 12 21 30 36 38 
36 31 24 16 10 3 0 0 0 0 0 0 0 0 0 0 
0 3 8 11 13 14 17 16 15 13 12 10 9 7 6 1 2 2 2 2 2 1 0 0 0 0 0 0 0 0 0 0 
0 0 0 0 0 0 0 0 0 0 7 17 8 14 19 20 
20 17 13 19 11 3 0 0 0 0 0 0 0 0 0 0 
0 0 2 5 8 12 12 12 11 10 9 8 7 6 5 1 1 1 1 1 1 0 0 0 0 0 0 0 0 0 0 0 
0 0 0 0 0 0 0 0 0 0 5 13 19 25 29 30 
29 25 21 15 8 2 0 0 0 0 0 0 0 0 0 0 
0 0 0 1 6 7 8 8 8 8 7 7 6 5 4 1 1 1 1 0 0 0 0 0 0 0 0 0 0 0 0 0 
0 0 0 0 0 0 0 0 0 0 3 9 14 18 21 22 
21 19 16 11 6 1 0 0 0 0 0 0 0 0 0 0 
0 0 0 0 2 4 5 6 6 6 6 5 5 4 4 0 0 0 0 0 0 0 0 0 0 0 0 0 0 0 0 0 
0 0 0 0 0 0 0 0 0 0 2 7 11 14 16 17 
16 15 12 9 5 1 0 0 0 0 0 0 0 0 0 0 
0 0 0 0 0 2 3 4 4 4 4 4 4 3 3 0 0 0 0 0 0 0 0 0 0 0 0 0 0 0 0 0 
0 0 0 0 0 0 0 0 0 0 1 5 8 11 12 13 
13 11 9 7 4 1 0 0 0 0 0 0 0 0 0 0 
0 0 0 0 0 0 1 2 2 3 3 3 3 3 2 0 0 0 0 0 0 0 0 0 0 0 0 0 0 0 0 0 
0 0 0 0 0 0 0 0 0 0 1 4 6 8 9 10 
10 9 7 5 3 0 0 0 0 0 0 0 0 0 0 0 
0 0 0 0 0 0 0 1 1 2 2 2 2 2 2 0 0 0 0 0 0 0 0 0 0 0 0 0 0 0 0 0 
0 0 0 0 0 0 0 0 0 0 1 3 5 6 7 8 
8 7 6 4 2 0 0 0 0 0 0 0 0 0 0 0 
0 0 0 0 0 0 0 0 0 1 1 1 1 1 1 0 0 0 0 0 0 0 0 0 0 0 0 0 0 0 0 0 
0 0 0 0 0 0 0 0 0 0 1 2 4 5 6 6 
6 5 4 3 2 0 0 0 0 0 0 0 0 0 0 0 
0 0 0 0 0 0 0 0 0 0 0 1 1 1 1 0 0 0 0 0 0 0 0 0 0 0 0 0 0 0 0 0 
0 0 0 0 0 0 0 0 0 0 0 2 3 4 4 5 
5 4 3 2 1 0 0 0 0 0 0 0 0 0 0 0 
0 0 0 0 0 0 0 0 0 0 0 0 0 0 0 0 0 0 0 0 0 0 0 0 0 0 0 0 0 0 0 0 
0 0 0 0 0 0 0 0 0 0 0 1 2 3 3 3 
3 3 2 2 1 0 0 0 0 0 0 0 0 0 0 0 
0 0 0 0 0 0 0 0 0 0 0 0 0 0 0 0 0 0 0 0 0 0 0 0 0 0 0 0 0 0 0 0 
0 0 0 0 0 0 0 0 0 0 0 1 1 2 2 3 
2 2 2 1 0 0 0 0 0 0 0 0 0 0 0 0 
0 0 0 0 0 0 0 0 0 0 0 0 0 0 0 0 0 0 0 0 0 0 0 0 0 0 0 0 0 0 0 0 
0 0 0 0 0 0 0 0 0 0 0 0 1 1 2 2 
2 1 1 0 0 0 0 0 0 0 0 0 0 0 0 0 
0 0 0 0 0 0 0 0 0 0 0 0 0 0 0 0 0 0 0 0 0 0 0 0 0 0 0 0 0 0 0 0 
0 0 0 0 0 0 0 0 0 0 0 0 0 1 1 1 
1 1 0 0 0 0 0 0 0 0 0 0 0 0 0 0 
0 0 0 0 0 0 0 0 0 0 0 0 0 0 0 0 0 0 0 0 0 0 0 0 0 0 0 0 0 0 0 0 
0 0 0 0 0 0 0 0 0 0 0 0 0 0 0 0 
0 0 0 0 0 0 0 0 0 0 0 0 0 0 0 0 
0 0 0 0 0 0 0 0 0 0 0 0 0 0 0 0 0 0 0 0 0 0 0 0 0 0 0 0 0 0 0 0 
0 0 0 0 0 0 0 0 0 0 0 0 0 0 0 0 
0 0 0 0 0 0 0 0 0 0 0 0 0 0 0 0 
0 0 0 0 0 0 0 0 0 0 0 0 0 0 0 0 0 0 0 0 0 0 0 0 0 0 0 0 0 0 0 0 
0 0 0 0 0 0 0 0 0 0 0 0 0 0 0 0 
0 0 0 0 0 0 0 0 0 0 0 0 0 0 0 0 
0 0 0 0 0 0 0 0 0 0 0 0 0 0 0 