P2
# Created by IrfanView
64 64
255
0 0 0 0 0 0 0 0 0 0 0 0 0 0 0 0 0 
0 0 0 0 0 0 0 0 0 0 0 1 1 2 2 2 
2 2 1 1 0 0 0 0 0 0 0 0 0 0 0 0 
0 0 0 0 0 0 0 0 0 0 0 0 0 0 0 0 0 0 0 0 0 0 0 0 0 0 0 0 0 0 0 0 
0 0 0 0 0 0 0 0 0 0 1 2 3 3 4 4 
4 4 3 3 2 0 0 0 0 0 0 0 0 0 0 0 
0 0 0 0 0 0 0 0 0 0 0 0 0 0 0 0 0 0 0 0 0 0 0 0 0 0 0 0 0 0 0 0 
0 0 0 0 0 0 0 0 1 2 3 4 5 5 5 6 
6 5 5 5 4 3 1 0 0 0 0 0 0 0 0 0 
0 0 0 0 0 0 0 0 0 0 0 0 0 0 0 0 0 0 0 0 0 0 0 0 0 0 0 0 0 0 0 0 
0 0 0 0 0 0 0 1 3 4 5 6 7 7 8 8 
8 8 7 7 6 5 4 2 0 0 0 0 0 0 0 0 
0 0 0 0 0 0 0 0 0 0 0 0 0 0 0 0 0 0 0 0 0 0 0 0 0 0 0 0 0 0 0 0 
0 0 0 0 0 0 2 4 6 7 8 8 9 10 10 10 
10 10 10 10 9 9 7 6 3 0 0 0 0 0 0 0 
0 0 0 0 0 0 0 0 0 0 0 0 0 0 0 0 0 0 0 0 0 0 0 0 0 0 0 0 0 0 0 0 
0 0 0 0 1 4 6 7 9 10 11 11 12 12 13 13 
13 13 13 13 13 13 12 10 8 5 1 0 0 0 0 0 
0 0 0 0 0 0 0 0 0 0 0 0 0 0 0 0 0 0 0 0 0 0 0 0 0 0 0 0 0 0 0 0 
0 0 0 3 6 8 10 11 12 13 14 14 15 15 16 16 
17 17 17 17 17 17 17 16 14 12 9 4 0 0 0 0 
0 0 0 0 0 0 0 0 0 0 0 0 0 0 0 0 0 0 0 0 0 0 0 0 0 0 0 0 0 0 0 0 
0 1 6 9 12 14 15 16 17 17 18 18 18 19 19 20 
20 21 21 22 22 23 23 23 22 20 18 14 8 0 0 0 
0 0 0 0 0 0 0 0 0 0 0 0 0 0 0 0 0 0 0 0 0 0 0 0 0 0 0 0 0 0 0 0 
5 10 14 17 19 20 21 21 21 22 22 22 22 23 24 24 
25 25 26 27 28 29 30 31 31 31 29 26 21 14 4 0 
0 0 0 0 0 0 0 0 0 0 0 0 0 0 0 12 0 0 0 0 0 0 0 0 0 0 0 0 0 0 5 11 
16 21 24 26 28 28 28 28 27 27 26 27 27 28 28 29 
30 30 31 33 34 36 38 40 42 43 43 41 38 32 24 13 
0 0 0 0 0 0 0 0 0 0 0 0 0 0 0 34 4 2 0 0 0 0 0 0 0 0 0 0 8 14 19 25 
29 33 36 37 38 37 36 35 33 32 32 32 32 33 34 35 
35 36 37 39 41 44 48 51 55 58 60 60 58 53 47 38 
0 0 0 0 0 0 0 0 0 0 0 0 0 0 0 57 20 21 21 21 21 21 20 19 19 18 17 16 26 30 35 40 
44 48 50 51 50 48 46 43 40 39 38 37 38 39 40 41 
42 43 44 46 49 53 58 64 70 76 80 82 82 79 74 66 
8 6 5 5 5 6 8 10 12 13 14 14 14 14 13 81 35 38 41 43 45 45 45 43 41 38 35 32 43 46 51 56 
61 65 67 67 65 61 57 52 48 46 44 44 45 46 47 49 
50 50 52 54 58 63 71 79 89 98 105 110 112 110 105 98 
25 29 33 39 46 53 61 67 71 72 70 66 60 54 47 102 90 53 58 62 65 66 65 63 60 55 50 56 58 62 68 74 
80 85 88 87 84 78 71 64 58 53 51 51 52 54 56 57 
58 59 60 62 67 74 84 97 111 125 137 145 148 146 140 133 
41 48 57 68 80 92 104 113 118 119 116 108 98 87 75 120 104 65 71 76 79 81 80 78 74 68 62 68 71 76 84 94 
103 110 114 113 108 99 88 77 68 62 59 58 60 104 109 111 
110 105 68 70 76 86 100 118 139 159 177 188 193 190 182 170 
159 63 76 90 105 120 134 145 151 152 147 138 125 110 95 122 112 102 96 84 88 90 90 87 83 75 74 75 80 89 101 115 
129 141 147 147 140 127 111 94 81 71 67 101 112 121 127 130 
128 122 113 102 85 97 117 143 173 202 228 244 250 245 231 212 
193 73 87 103 120 136 151 162 168 169 164 154 140 124 108 117 113 102 96 92 90 93 93 81 78 75 75 79 87 101 119 140 
162 181 192 193 183 164 140 116 96 82 98 112 126 136 143 146 
144 137 127 114 100 109 136 172 215 255 255 255 255 255 255 255 
229 204 93 109 125 142 156 166 172 173 168 158 145 129 113 106 89 97 91 87 84 82 78 75 72 71 73 79 91 111 137 169 
224 249 255 255 240 204 159 144 114 89 105 121 136 148 156 159 
157 149 138 124 108 92 155 180 252 255 255 255 255 255 255 255 
255 227 198 108 124 139 152 161 167 167 162 153 141 126 111 90 77 87 82 78 76 72 69 66 64 63 67 76 93 119 156 222 
255 255 255 255 255 255 205 143 76 92 109 126 142 155 164 167 
165 157 145 129 113 96 130 212 255 255 255 255 255 255 255 255 
255 248 206 178 116 129 141 149 154 154 150 142 131 118 92 71 78 74 70 67 64 61 58 55 53 53 58 70 92 126 195 252 
255 255 255 255 255 255 255 184 109 91 108 126 142 156 165 168 
166 158 146 130 113 96 145 246 255 255 255 255 255 255 255 255 
255 255 208 171 149 137 131 133 137 137 134 112 103 92 82 51 61 59 57 55 52 49 46 43 41 41 47 61 88 151 209 255 
255 255 255 255 255 255 255 232 140 87 104 121 136 150 159 163 
160 153 141 126 110 66 159 255 255 255 255 255 255 255 255 255 
255 255 205 160 133 117 110 107 105 102 99 93 87 79 71 43 45 45 44 43 40 37 34 30 28 29 36 52 83 152 220 255 
255 255 255 255 255 255 255 255 175 80 95 110 125 137 146 150 
148 141 130 117 102 67 170 255 255 255 255 255 255 255 255 255 
255 255 211 145 114 98 89 86 84 82 80 76 72 66 60 26 31 32 33 31 29 26 23 19 17 18 25 42 76 150 227 255 
255 255 255 255 255 255 255 255 208 71 83 97 109 120 128 131 
130 124 115 103 91 65 176 255 255 255 255 255 255 255 255 255 
255 255 196 126 95 78 70 67 65 65 63 61 58 54 49 14 19 21 22 21 19 16 13 9 7 8 16 33 91 146 227 255 
255 255 255 255 255 255 255 255 236 126 70 81 91 100 106 109 
108 104 97 88 78 63 175 255 255 255 255 255 255 255 255 255 
255 249 176 105 76 60 53 50 49 49 49 48 46 44 40 4 9 12 13 13 11 8 5 2 0 1 8 26 61 138 220 255 
255 255 255 255 255 255 255 255 252 139 56 64 72 79 84 87 
86 83 78 72 64 58 167 255 255 255 255 255 255 255 255 255 
255 220 153 84 58 44 38 36 36 37 37 37 36 35 32 0 2 5 7 6 5 2 0 0 0 0 3 21 54 129 207 255 
255 255 255 255 255 255 255 255 254 144 44 49 55 59 63 65 
65 64 61 56 51 52 151 255 255 255 255 255 255 255 255 255 
255 187 129 65 42 31 26 25 26 27 28 28 28 27 25 0 0 0 1 1 0 0 0 0 0 0 1 18 49 118 189 255 
255 255 255 255 255 255 255 255 240 140 33 36 40 43 46 47 
48 47 45 43 0 44 131 239 255 255 255 255 255 255 255 255 
223 155 82 49 30 21 18 17 18 20 21 22 22 21 20 0 0 0 0 0 0 0 0 0 0 0 1 16 44 89 166 246 
255 255 255 255 255 255 255 255 214 126 61 27 29 31 32 33 
34 34 33 32 0 35 108 196 255 255 255 255 255 255 255 250 
180 126 63 37 22 15 12 12 13 14 16 16 17 16 15 0 0 0 0 0 0 0 0 0 0 0 2 16 40 77 142 206 
255 255 255 255 255 255 255 255 180 105 45 0 21 22 23 24 
24 25 0 0 0 24 84 154 227 255 255 255 255 255 253 195 
143 82 50 29 17 11 9 9 10 11 12 13 13 13 12 0 0 0 0 0 0 0 0 0 0 0 4 17 37 67 108 160 
223 255 255 255 255 255 255 205 137 78 28 0 0 0 0 0 
0 0 0 0 0 11 57 114 170 218 252 255 255 230 191 149 
98 65 41 25 16 11 8 8 9 9 10 10 11 10 9 0 0 0 0 0 0 0 0 0 0 1 7 18 34 58 89 127 
169 210 242 255 255 235 195 148 98 51 10 0 0 0 0 0 
0 0 0 0 0 0 35 76 121 156 181 191 186 168 137 106 
78 54 36 24 16 12 10 9 9 9 9 9 9 9 8 0 0 0 0 0 0 0 0 0 1 4 10 19 33 51 74 101 
130 157 177 187 183 166 138 102 63 25 0 0 0 0 0 0 
0 0 0 0 0 0 16 48 80 107 126 135 132 121 104 84 
64 48 35 25 19 15 12 11 10 10 9 9 9 8 7 0 0 0 0 0 0 0 1 2 5 8 13 21 31 45 61 80 
99 116 128 133 128 114 92 64 32 0 0 0 0 0 0 0 
0 0 0 0 0 0 1 27 52 73 88 96 97 91 81 69 
57 45 36 28 22 18 16 14 12 11 10 9 9 8 7 0 0 0 0 0 1 2 3 5 8 11 16 22 30 40 52 64 
75 85 92 92 87 74 56 32 5 0 0 0 0 0 0 0 
0 0 0 0 0 0 0 10 31 48 62 70 73 72 68 61 
53 45 38 32 27 23 20 17 15 13 12 10 9 8 7 0 0 0 0 1 3 4 6 8 11 15 19 24 30 37 44 51 
57 62 64 62 55 43 27 5 0 0 0 0 0 0 0 0 
0 0 0 0 0 0 0 0 15 31 44 53 58 60 60 57 
53 48 42 37 32 28 24 21 18 16 14 12 10 8 7 0 0 0 1 3 4 6 9 11 14 17 21 25 17 16 14 11 
7 4 1 38 30 19 3 0 0 0 0 0 0 0 0 0 
0 0 0 0 0 0 0 0 3 19 31 41 21 26 31 34 
36 37 36 43 38 33 29 25 21 18 15 13 11 9 7 0 0 0 2 4 6 8 11 14 16 20 23 19 18 16 14 10 
5 1 0 0 0 0 0 0 0 0 0 0 0 0 0 0 
0 0 0 0 0 0 0 0 0 10 12 18 24 30 35 40 
42 43 42 40 44 38 33 28 24 20 17 14 12 10 8 0 0 2 3 5 8 10 12 15 18 21 19 20 18 16 12 7 
2 0 0 0 0 0 0 0 0 0 0 0 0 0 0 0 
0 0 0 0 0 0 0 0 0 7 12 18 25 32 38 44 
47 49 48 45 41 43 37 32 27 22 19 16 13 11 9 0 1 3 4 6 9 11 13 16 19 18 20 19 17 13 9 3 
0 0 0 0 0 0 0 0 0 0 0 0 0 0 0 0 
0 0 0 0 0 0 0 0 0 5 10 17 24 32 40 46 
51 53 52 50 45 39 40 34 29 24 20 17 14 11 9 0 2 3 5 7 9 11 14 16 19 18 18 17 14 9 3 0 
0 0 0 0 0 0 0 0 0 0 0 0 0 0 0 0 
0 0 0 0 0 0 0 0 0 2 7 14 22 30 39 46 
51 54 54 52 47 41 42 36 30 25 21 17 14 12 9 1 2 4 5 7 9 11 14 16 15 16 16 14 10 4 0 0 
0 0 0 0 0 0 0 0 0 0 0 0 8 51 94 115 
99 59 18 0 0 0 0 0 0 0 3 9 18 26 35 43 
49 53 54 52 48 42 35 36 31 25 21 17 14 12 9 1 3 4 6 7 9 11 13 14 13 14 12 9 4 0 0 0 
0 0 0 0 0 0 0 0 0 0 0 23 70 132 190 214 
187 127 67 23 0 0 0 0 0 0 0 4 12 21 30 38 
45 49 50 49 46 41 34 36 30 25 21 17 14 12 9 2 3 4 5 7 8 10 11 12 11 10 8 4 0 0 0 0 
0 0 0 0 0 0 0 0 0 0 16 52 103 166 220 240 
212 154 93 45 15 0 0 0 0 0 0 0 5 13 22 31 
38 43 45 44 42 37 32 33 28 24 20 17 14 11 9 2 3 4 5 6 7 8 9 9 8 6 3 0 0 0 0 0 
0 0 0 0 0 0 0 0 0 7 29 62 107 158 198 212 
190 145 95 54 26 9 0 0 0 0 0 0 0 6 14 22 
29 35 37 38 36 33 28 30 26 22 19 16 13 11 9 2 3 3 4 5 6 7 7 7 5 3 0 0 0 0 0 0 
0 0 0 0 0 0 0 0 0 12 32 60 94 130 157 165 
150 120 84 53 29 14 6 3 0 0 0 0 0 0 6 14 
20 26 29 31 30 28 24 27 23 20 17 14 12 10 8 2 2 3 4 4 5 5 5 4 2 0 0 0 0 0 0 0 
0 0 0 0 0 0 0 0 1 12 29 50 74 98 115 120 
111 91 68 46 29 17 10 6 0 0 0 0 0 0 0 6 
12 17 21 23 23 22 25 23 20 17 15 13 11 9 8 1 2 2 3 3 3 3 3 2 0 0 0 0 0 0 0 0 
0 0 0 0 0 0 0 0 1 10 22 38 54 70 80 83 
78 67 52 37 25 16 11 0 0 0 0 0 0 0 0 0 
5 10 14 16 17 16 20 18 17 15 13 11 9 8 7 1 2 2 2 2 2 2 1 0 0 0 0 0 0 0 0 0 
0 0 0 0 0 0 0 0 0 5 14 25 37 47 54 56 
53 46 37 28 20 14 1 0 0 0 0 0 0 0 0 0 
0 4 8 10 11 16 15 15 13 12 11 9 8 7 6 1 1 1 1 1 1 1 0 0 0 0 0 0 0 0 0 0 
0 0 0 0 0 0 0 0 0 3 14 14 22 29 34 36 
34 31 26 20 17 8 1 0 0 0 0 0 0 0 0 0 
0 0 3 5 10 11 11 11 11 10 9 8 7 6 5 1 1 1 1 1 0 0 0 0 0 0 0 0 0 0 0 0 
0 0 0 0 0 0 0 0 0 2 11 19 26 15 18 20 
20 18 26 20 13 7 1 0 0 0 0 0 0 0 0 0 
0 0 2 4 6 7 8 8 8 8 7 6 6 5 4 0 0 0 0 0 0 0 0 0 0 0 0 0 0 0 0 0 
0 0 0 0 0 0 0 0 0 2 8 14 20 24 27 28 
27 24 20 16 11 6 1 0 0 0 0 0 0 0 0 0 
0 0 0 2 3 5 5 6 6 6 5 5 5 4 4 0 0 0 0 0 0 0 0 0 0 0 0 0 0 0 0 0 
0 0 0 0 0 0 0 0 0 1 6 11 15 18 20 21 
20 19 16 13 9 5 1 0 0 0 0 0 0 0 0 0 
0 0 0 0 1 2 3 4 4 4 4 4 4 3 3 0 0 0 0 0 0 0 0 0 0 0 0 0 0 0 0 0 
0 0 0 0 0 0 0 0 0 1 5 9 12 14 16 16 
16 15 13 10 7 4 1 0 0 0 0 0 0 0 0 0 
0 0 0 0 0 1 2 2 3 3 3 3 3 2 2 0 0 0 0 0 0 0 0 0 0 0 0 0 0 0 0 0 
0 0 0 0 0 0 0 0 0 1 4 7 9 11 13 13 
13 12 10 8 6 3 1 0 0 0 0 0 0 0 0 0 
0 0 0 0 0 0 1 1 2 2 2 2 2 2 2 0 0 0 0 0 0 0 0 0 0 0 0 0 0 0 0 0 
0 0 0 0 0 0 0 0 0 1 3 6 8 9 10 10 
10 9 8 7 5 3 1 0 0 0 0 0 0 0 0 0 
0 0 0 0 0 0 0 0 1 1 1 1 1 1 1 0 0 0 0 0 0 0 0 0 0 0 0 0 0 0 0 0 
0 0 0 0 0 0 0 0 0 1 3 5 6 7 8 8 
8 8 7 5 4 2 0 0 0 0 0 0 0 0 0 0 
0 0 0 0 0 0 0 0 0 0 1 1 1 1 1 0 0 0 0 0 0 0 0 0 0 0 0 0 0 0 0 0 
0 0 0 0 0 0 0 0 0 1 2 4 5 6 6 7 
6 6 5 4 3 2 0 0 0 0 0 0 0 0 0 0 
0 0 0 0 0 0 0 0 0 0 0 0 0 0 0 0 0 0 0 0 0 0 0 0 0 0 0 0 0 0 0 0 
0 0 0 0 0 0 0 0 0 0 2 3 4 4 5 5 
5 5 4 3 2 1 0 0 0 0 0 0 0 0 0 0 
0 0 0 0 0 0 0 0 0 0 0 0 0 0 0 0 0 0 0 0 0 0 0 0 0 0 0 0 0 0 0 0 
0 0 0 0 0 0 0 0 0 0 1 2 3 3 4 4 
4 3 3 2 1 0 0 0 0 0 0 0 0 0 0 0 
0 0 0 0 0 0 0 0 0 0 0 0 0 0 0 0 0 0 0 0 0 0 0 0 0 0 0 0 0 0 0 0 
0 0 0 0 0 0 0 0 0 0 1 1 2 2 3 3 
2 2 2 1 1 0 0 0 0 0 0 0 0 0 0 0 
0 0 0 0 0 0 0 0 0 0 0 0 0 0 0 0 0 0 0 0 0 0 0 0 0 0 0 0 0 0 0 0 
0 0 0 0 0 0 0 0 0 0 0 1 1 1 2 2 
1 1 1 0 0 0 0 0 0 0 0 0 0 0 0 0 
0 0 0 0 0 0 0 0 0 0 0 0 0 0 0 0 0 0 0 0 0 0 0 0 0 0 0 0 0 0 0 0 
0 0 0 0 0 0 0 0 0 0 0 0 0 1 1 1 
1 0 0 0 0 0 0 0 0 0 0 0 0 0 0 0 
0 0 0 0 0 0 0 0 0 0 0 0 0 0 0 0 0 0 0 0 0 0 0 0 0 0 0 0 0 0 0 0 
0 0 0 0 0 0 0 0 0 0 0 0 0 0 0 0 
0 0 0 0 0 0 0 0 0 0 0 0 0 0 0 0 
0 0 0 0 0 0 0 0 0 0 0 0 0 0 0 0 0 0 0 0 0 0 0 0 0 0 0 0 0 0 0 0 
0 0 0 0 0 0 0 0 0 0 0 0 0 0 0 0 
0 0 0 0 0 0 0 0 0 0 0 0 0 0 0 0 
0 0 0 0 0 0 0 0 0 0 0 0 0 0 0 