P2
# Created by IrfanView
64 64
255
0 0 0 0 0 0 0 0 0 0 0 0 0 0 0 0 0 
0 0 0 0 0 0 0 0 0 0 1 2 2 3 3 3 
3 3 2 2 1 0 0 0 0 0 0 0 0 0 0 0 
0 0 0 0 0 0 0 0 0 0 0 0 0 0 0 0 0 0 0 0 0 0 0 0 0 0 0 0 0 0 0 0 
0 0 0 0 0 0 0 0 0 1 2 3 4 4 5 5 
5 4 4 3 2 1 0 0 0 0 0 0 0 0 0 0 
0 0 0 0 0 0 0 0 0 0 0 0 0 0 0 0 0 0 0 0 0 0 0 0 0 0 0 0 0 0 0 0 
0 0 0 0 0 0 0 0 2 3 4 5 6 6 6 7 
7 7 6 6 5 4 2 0 0 0 0 0 0 0 0 0 
0 0 0 0 0 0 0 0 0 0 0 0 0 0 0 0 0 0 0 0 0 0 0 0 0 0 0 0 0 0 0 0 
0 0 0 0 0 0 1 3 4 5 6 7 8 8 9 9 
9 9 9 8 8 7 5 3 1 0 0 0 0 0 0 0 
0 0 0 0 0 0 0 0 0 0 0 0 0 0 0 0 0 0 0 0 0 0 0 0 0 0 0 0 0 0 0 0 
0 0 0 0 0 2 4 6 7 8 9 10 11 11 12 12 
12 12 12 11 11 10 9 7 5 2 0 0 0 0 0 0 
0 0 0 0 0 0 0 0 0 0 0 0 0 0 0 0 0 0 0 0 0 0 0 0 0 0 0 0 0 0 0 0 
0 0 0 0 3 5 7 9 10 11 12 13 14 14 15 15 
15 15 15 15 15 14 13 12 10 7 4 0 0 0 0 0 
0 0 0 0 0 0 0 0 0 0 0 0 0 0 0 0 0 0 0 0 0 0 0 0 0 0 0 0 0 0 0 0 
0 0 1 5 8 10 12 13 14 15 16 17 17 18 19 19 
19 20 20 20 20 19 19 18 16 14 11 6 0 0 0 0 
0 0 0 0 0 0 0 0 0 0 0 0 0 0 0 0 0 0 0 0 0 0 0 0 0 0 0 0 0 0 0 0 
0 4 8 11 14 15 17 18 19 20 20 21 22 22 23 24 
24 24 25 25 25 25 25 25 24 22 20 16 10 3 0 0 
0 0 0 0 0 0 0 0 0 0 0 0 0 0 0 0 0 0 0 0 0 0 0 0 0 0 0 0 0 0 0 3 
8 12 16 18 20 22 23 24 24 25 25 26 27 28 28 29 
30 30 31 31 32 32 33 33 33 32 31 28 23 17 8 0 
0 0 0 0 0 0 0 0 0 0 0 0 0 0 0 13 5 0 0 0 0 0 0 0 0 0 0 0 0 3 8 13 
18 22 25 27 29 30 30 30 30 31 31 32 33 34 35 36 
36 37 38 38 39 40 42 43 44 44 44 42 38 33 26 16 
5 0 0 0 0 0 0 0 0 0 0 0 0 0 0 30 23 16 4 2 1 0 0 0 0 1 3 6 11 16 21 25 
30 33 36 38 39 39 38 38 38 38 38 39 40 42 43 44 
45 45 46 47 48 50 52 55 57 59 60 59 57 53 47 39 
0 0 0 0 0 0 0 0 0 0 0 0 0 0 0 49 41 34 20 20 20 20 19 19 18 17 19 22 25 29 34 39 
43 46 49 50 50 50 48 47 46 46 46 47 49 51 53 54 
55 55 56 56 58 61 64 68 72 76 79 80 79 76 71 64 
56 7 6 5 5 5 6 7 8 9 10 11 11 12 12 67 58 51 35 36 37 37 37 36 35 33 34 36 39 44 48 53 
58 62 64 65 64 63 60 58 56 55 56 57 60 62 65 66 
67 67 67 68 69 73 78 84 91 97 102 105 106 103 98 92 
85 26 29 33 37 42 47 51 54 55 54 51 48 43 39 83 73 66 61 50 52 53 52 51 49 47 48 49 53 57 63 69 
75 80 83 84 82 79 74 70 67 66 67 69 73 101 106 108 
106 102 80 81 82 87 93 102 112 122 131 136 137 135 130 122 
114 42 49 56 65 74 81 88 92 92 90 85 78 70 62 103 84 76 71 68 65 64 64 59 58 57 58 60 64 71 78 87 
95 102 106 106 104 99 92 85 80 78 79 100 112 121 127 129 
127 122 113 102 96 102 111 124 138 153 165 173 176 173 166 155 
145 54 64 74 85 97 106 114 119 119 116 110 100 90 79 103 90 82 76 73 71 69 67 65 64 63 65 68 74 83 94 107 
119 129 135 136 132 124 113 103 96 85 100 115 129 140 148 150 
148 142 131 117 103 118 130 148 169 190 208 220 223 218 207 191 
175 161 74 86 98 111 121 129 134 135 131 124 114 102 90 98 91 82 77 74 71 69 68 66 65 66 68 74 82 95 111 129 
147 162 171 173 168 156 140 125 78 94 111 129 145 158 166 170 
167 159 147 131 114 97 152 176 206 236 255 255 255 255 254 231 
207 185 168 91 104 116 127 135 139 140 136 129 119 107 94 88 85 78 74 71 68 67 65 64 63 65 69 76 89 106 129 154 
180 202 217 221 214 197 174 151 82 100 119 138 156 171 181 185 
183 173 159 142 123 104 86 208 249 255 255 255 255 255 255 255 
239 207 182 164 103 115 125 132 136 137 133 127 117 105 83 73 75 70 67 64 62 61 59 58 58 61 66 77 93 117 147 182 
219 255 255 255 255 233 215 68 84 102 122 143 162 179 190 194 
192 182 167 148 128 108 89 241 255 255 255 255 255 255 255 255 
255 226 192 166 150 140 117 124 128 128 125 118 99 88 77 56 63 60 58 56 54 53 52 51 52 55 62 75 96 126 165 212 
255 255 255 255 255 255 236 174 82 100 120 142 162 179 191 195 
193 183 167 148 128 108 89 237 255 255 255 255 255 255 255 255 
255 242 197 165 143 129 121 116 112 108 102 95 87 79 70 39 49 49 48 47 46 44 43 42 44 48 56 72 97 134 183 255 
255 255 255 255 255 255 255 214 77 94 114 134 153 170 182 187 
184 175 160 142 122 103 85 255 255 255 255 255 255 255 255 255 
255 252 198 159 133 117 106 100 96 92 87 82 76 69 62 32 36 37 38 37 36 35 34 34 35 40 50 68 96 139 218 255 
255 255 255 255 255 255 255 254 69 84 102 120 138 153 164 169 
167 159 145 129 112 94 79 255 255 255 255 255 255 255 255 255 
255 255 194 150 121 103 92 85 80 77 73 69 64 59 53 19 24 27 28 28 28 26 26 25 27 32 43 62 94 141 226 255 
255 255 255 255 255 255 255 255 59 72 86 102 117 130 140 144 
143 136 125 112 97 83 190 255 255 255 255 255 255 255 255 255 
255 255 183 137 107 88 77 70 66 63 60 57 54 50 45 9 15 18 20 20 20 19 18 18 20 25 36 57 90 140 228 255 
255 255 255 255 255 255 255 255 49 58 69 81 93 104 112 116 
115 110 102 92 81 70 189 255 255 255 255 255 255 255 255 255 
255 255 167 122 93 74 63 57 53 51 49 47 44 41 38 2 7 11 12 13 13 12 11 12 14 19 30 51 84 134 222 255 
255 255 255 255 255 255 255 255 38 45 53 61 70 78 83 87 
87 84 79 72 64 56 180 255 255 255 255 255 255 255 255 255 
255 234 148 105 78 61 51 46 43 41 39 38 36 34 31 0 1 5 7 7 7 7 6 7 9 14 26 46 78 126 210 255 
255 255 255 255 255 255 255 255 222 33 38 43 48 54 58 61 
61 60 57 53 48 44 163 255 255 255 255 255 255 255 255 255 
255 181 126 89 64 49 41 36 33 32 31 30 29 27 25 0 0 0 2 3 3 3 3 3 6 11 22 41 71 114 191 255 
255 255 255 255 255 255 255 255 207 23 26 28 31 35 37 39 
40 40 39 38 35 33 142 227 255 255 255 255 255 255 255 255 
234 151 105 73 52 40 32 28 26 25 25 24 23 22 20 0 0 0 0 0 1 1 1 2 4 10 20 37 63 102 153 229 
255 255 255 255 255 255 255 255 183 17 17 18 19 21 22 24 
25 26 26 26 26 59 117 188 255 255 255 255 255 255 255 249 
173 124 86 60 43 32 26 23 21 20 20 19 19 18 16 0 0 0 0 0 0 0 0 1 4 9 18 33 56 89 131 182 
247 255 255 255 255 255 255 212 150 93 12 11 11 12 13 14 
15 16 17 18 1 39 87 148 207 255 255 255 255 255 243 199 
138 100 71 50 36 27 22 19 17 17 16 16 15 14 13 0 0 0 0 0 0 0 0 1 4 9 18 31 50 76 110 150 
193 233 255 255 255 252 213 166 115 68 26 0 8 7 8 8 
9 11 0 0 0 22 61 106 151 196 225 238 234 215 177 142 
109 81 59 43 31 24 19 17 15 14 14 13 13 12 11 0 0 0 0 0 0 0 0 2 5 10 17 29 44 65 91 121 
152 181 203 213 208 190 160 123 83 43 7 0 0 0 0 0 
0 0 0 0 0 6 39 74 108 138 160 170 168 155 134 111 
88 67 50 38 29 22 18 16 14 13 13 12 11 10 9 0 0 0 0 0 0 0 2 4 7 11 18 27 39 56 75 97 
119 139 153 158 154 139 115 85 52 19 0 0 0 0 0 0 
0 0 0 0 0 0 20 48 75 98 115 124 124 116 104 88 
72 57 45 35 28 23 19 16 15 13 12 11 10 9 8 0 0 0 0 0 0 2 3 5 8 13 18 26 35 48 62 77 
92 105 113 115 110 97 77 52 24 0 0 0 0 0 0 0 
0 0 0 0 0 0 4 27 50 68 82 91 93 89 82 72 
61 51 42 35 29 24 20 18 16 14 13 11 10 9 8 0 0 0 0 0 1 3 5 7 10 14 19 25 32 41 51 61 
70 78 82 81 75 63 46 24 0 0 0 0 0 0 0 0 
0 0 0 0 0 0 0 11 30 46 59 67 71 71 67 62 
55 48 41 35 30 26 22 20 17 15 13 12 10 9 8 0 0 0 0 1 3 5 7 9 12 15 19 24 29 35 42 48 
53 57 57 55 48 36 20 0 0 0 0 0 0 0 0 0 
0 0 0 0 0 0 0 0 15 30 42 50 56 58 58 55 
52 47 42 37 33 29 25 22 19 16 14 12 11 9 8 0 0 0 1 2 4 6 8 11 13 16 20 23 27 31 34 37 
39 40 38 34 26 15 0 0 0 0 0 0 0 0 0 0 
0 0 0 0 0 0 0 0 3 18 30 39 45 50 52 52 
50 48 44 40 36 32 28 24 21 18 16 13 11 10 8 0 0 0 2 4 5 7 10 12 14 17 20 22 25 11 9 6 
3 0 0 17 9 0 0 0 0 0 0 0 0 0 0 0 
0 0 0 0 0 0 0 0 0 9 21 30 19 23 27 31 
33 33 47 43 39 35 31 27 23 20 17 14 12 10 8 0 0 1 3 5 6 8 10 13 15 17 19 13 12 10 7 3 
0 0 0 0 0 0 0 0 0 0 0 0 0 0 0 0 
0 0 0 0 0 0 0 0 0 2 14 15 20 25 30 34 
37 38 37 34 42 38 33 29 25 21 18 15 13 10 9 0 1 2 4 5 7 9 11 13 15 17 13 13 11 8 4 0 
0 0 0 0 0 0 0 0 0 0 0 0 0 0 0 0 
0 0 0 0 0 0 0 0 0 0 9 14 20 26 31 36 
39 41 40 38 34 40 35 30 26 22 19 16 13 11 9 0 1 3 4 6 7 9 11 13 14 16 12 11 8 5 0 0 
0 0 0 0 0 0 0 0 0 0 0 0 0 0 0 0 
0 0 0 0 0 0 0 0 0 0 7 12 18 24 31 36 
40 42 42 40 36 41 36 31 27 23 19 16 13 11 9 1 2 3 4 6 7 9 11 12 13 11 10 8 5 0 0 0 
0 0 0 0 0 0 0 0 0 0 0 0 16 84 165 207 
170 90 23 0 0 0 0 0 0 0 4 9 15 22 28 34 
39 41 41 40 37 32 36 31 27 23 19 16 13 11 9 1 2 3 4 6 7 8 10 11 11 9 7 5 1 0 0 0 
0 0 0 0 0 0 0 0 0 0 0 32 100 204 255 255 
255 185 84 23 0 0 0 0 0 0 0 5 11 18 24 30 
35 38 39 38 35 31 35 30 26 22 19 16 13 11 9 1 2 3 4 5 6 7 8 9 9 6 4 1 0 0 0 0 
0 0 0 0 0 0 0 0 0 0 22 66 139 237 255 255 
255 208 112 49 14 0 0 0 0 0 0 1 6 12 19 25 
30 34 35 35 32 29 33 29 25 21 18 15 13 11 9 1 2 3 4 5 6 6 7 7 6 3 1 0 0 0 0 0 
0 0 0 0 0 0 0 0 0 12 37 77 137 208 255 255 
253 182 111 58 26 9 2 0 2 0 0 0 1 7 13 19 
24 28 30 30 28 26 29 26 23 20 17 14 12 10 8 1 2 3 3 4 5 5 5 5 3 1 0 0 0 0 0 0 
0 0 0 0 0 0 0 0 5 19 41 73 115 161 197 206 
184 141 95 57 32 17 10 7 7 0 0 0 0 1 7 12 
17 21 24 24 24 21 26 23 20 18 15 13 11 9 8 1 2 2 3 3 3 4 3 2 1 0 0 0 0 0 0 0 
0 0 0 0 0 0 0 1 8 20 38 61 89 117 137 142 
130 105 77 52 33 21 15 12 0 0 0 0 0 0 1 6 
11 15 17 19 18 23 22 20 18 15 13 12 10 8 7 1 1 2 2 2 2 2 2 1 0 0 0 0 0 0 0 0 
0 0 0 0 0 0 0 0 8 18 31 48 66 83 95 98 
91 77 60 44 31 23 17 0 0 0 0 0 0 0 0 1 
6 9 12 13 19 18 18 16 15 13 12 10 9 8 6 1 1 1 1 2 1 1 0 0 0 0 0 0 0 0 0 0 
0 0 0 0 0 0 0 0 0 14 24 36 48 59 66 68 
64 56 46 36 28 22 6 0 0 0 0 0 0 0 0 0 
1 5 7 13 14 14 14 13 12 11 10 9 8 7 6 1 1 1 1 1 1 0 0 0 0 0 0 0 0 0 0 0 
0 0 0 0 0 0 0 0 0 9 17 25 33 40 45 47 
45 41 35 29 24 13 6 0 0 0 0 0 0 0 0 0 
0 1 6 8 10 10 10 10 10 9 8 7 6 6 5 0 0 0 0 0 0 0 0 0 0 0 0 0 0 0 0 0 
0 0 0 0 0 0 0 0 0 8 16 24 21 26 30 31 
31 29 26 24 18 11 6 1 0 0 0 0 0 0 0 0 
0 1 3 5 6 7 8 8 7 7 7 6 5 5 4 0 0 0 0 0 0 0 0 0 0 0 0 0 0 0 0 0 
0 0 0 0 0 0 0 0 0 6 13 19 24 28 31 32 
31 29 25 20 15 10 5 1 0 0 0 0 0 0 0 0 
0 0 1 3 4 5 5 6 6 5 5 5 4 4 3 0 0 0 0 0 0 0 0 0 0 0 0 0 0 0 0 0 
0 0 0 0 0 0 0 0 0 5 10 15 19 22 24 25 
24 23 20 16 12 9 5 1 0 0 0 0 0 0 0 0 
0 0 0 1 2 3 3 4 4 4 4 4 3 3 3 0 0 0 0 0 0 0 0 0 0 0 0 0 0 0 0 0 
0 0 0 0 0 0 0 0 1 5 9 12 15 18 19 20 
20 18 16 13 11 7 4 1 0 0 0 0 0 0 0 0 
0 0 0 0 1 1 2 2 3 3 3 3 3 2 2 0 0 0 0 0 0 0 0 0 0 0 0 0 0 0 0 0 
0 0 0 0 0 0 0 0 1 4 7 10 13 14 16 16 
16 15 13 11 9 6 4 1 0 0 0 0 0 0 0 0 
0 0 0 0 0 0 1 1 2 2 2 2 2 2 2 0 0 0 0 0 0 0 0 0 0 0 0 0 0 0 0 0 
0 0 0 0 0 0 0 0 1 3 6 8 10 12 13 13 
13 12 11 9 7 5 3 1 0 0 0 0 0 0 0 0 
0 0 0 0 0 0 0 1 1 1 1 1 1 1 1 0 0 0 0 0 0 0 0 0 0 0 0 0 0 0 0 0 
0 0 0 0 0 0 0 0 1 3 5 7 8 10 10 11 
11 10 9 7 6 4 3 1 0 0 0 0 0 0 0 0 
0 0 0 0 0 0 0 0 0 1 1 1 1 1 1 0 0 0 0 0 0 0 0 0 0 0 0 0 0 0 0 0 
0 0 0 0 0 0 0 0 1 2 4 6 7 8 8 9 
8 8 7 6 5 3 2 0 0 0 0 0 0 0 0 0 
0 0 0 0 0 0 0 0 0 0 0 0 0 0 0 0 0 0 0 0 0 0 0 0 0 0 0 0 0 0 0 0 
0 0 0 0 0 0 0 0 1 2 3 4 5 6 6 7 
7 6 5 4 3 2 1 0 0 0 0 0 0 0 0 0 
0 0 0 0 0 0 0 0 0 0 0 0 0 0 0 0 0 0 0 0 0 0 0 0 0 0 0 0 0 0 0 0 
0 0 0 0 0 0 0 0 0 1 2 3 4 5 5 5 
5 4 4 3 2 1 1 0 0 0 0 0 0 0 0 0 
0 0 0 0 0 0 0 0 0 0 0 0 0 0 0 0 0 0 0 0 0 0 0 0 0 0 0 0 0 0 0 0 
0 0 0 0 0 0 0 0 0 1 2 2 3 3 3 4 
3 3 3 2 1 1 0 0 0 0 0 0 0 0 0 0 
0 0 0 0 0 0 0 0 0 0 0 0 0 0 0 0 0 0 0 0 0 0 0 0 0 0 0 0 0 0 0 0 
0 0 0 0 0 0 0 0 0 0 1 1 2 2 2 2 
2 2 1 1 1 0 0 0 0 0 0 0 0 0 0 0 
0 0 0 0 0 0 0 0 0 0 0 0 0 0 0 0 0 0 0 0 0 0 0 0 0 0 0 0 0 0 0 0 
0 0 0 0 0 0 0 0 0 0 0 1 1 1 1 1 
1 1 1 0 0 0 0 0 0 0 0 0 0 0 0 0 
0 0 0 0 0 0 0 0 0 0 0 0 0 0 0 0 0 0 0 0 0 0 0 0 0 0 0 0 0 0 0 0 
0 0 0 0 0 0 0 0 0 0 0 0 0 0 0 0 
0 0 0 0 0 0 0 0 0 0 0 0 0 0 0 0 
0 0 0 0 0 0 0 0 0 0 0 0 0 0 0 0 0 0 0 0 0 0 0 0 0 0 0 0 0 0 0 0 
0 0 0 0 0 0 0 0 0 0 0 0 0 0 0 0 
0 0 0 0 0 0 0 0 0 0 0 0 0 0 0 0 
0 0 0 0 0 0 0 0 0 0 0 0 0 0 0 