P2
# Created by IrfanView
64 64
255
0 0 0 0 0 0 0 0 0 0 0 0 0 0 0 0 0 
0 0 0 0 0 0 0 0 0 0 1 2 3 3 3 4 
3 3 3 2 1 0 0 0 0 0 0 0 0 0 0 0 
0 0 0 0 0 0 0 0 0 0 0 0 0 0 0 0 0 0 0 0 0 0 0 0 0 0 0 0 0 0 0 0 
0 0 0 0 0 0 0 0 1 2 3 4 4 5 5 5 
5 5 5 4 3 2 1 0 0 0 0 0 0 0 0 0 
0 0 0 0 0 0 0 0 0 0 0 0 0 0 0 0 0 0 0 0 0 0 0 0 0 0 0 0 0 0 0 0 
0 0 0 0 0 0 0 1 3 4 5 6 6 7 7 7 
7 7 7 6 6 5 3 1 0 0 0 0 0 0 0 0 
0 0 0 0 0 0 0 0 0 0 0 0 0 0 0 0 0 0 0 0 0 0 0 0 0 0 0 0 0 0 0 0 
0 0 0 0 0 0 2 4 5 6 7 8 9 9 10 10 
10 10 10 9 9 8 6 5 2 0 0 0 0 0 0 0 
0 0 0 0 0 0 0 0 0 0 0 0 0 0 0 0 0 0 0 0 0 0 0 0 0 0 0 0 0 0 0 0 
0 0 0 0 1 3 5 7 8 9 10 11 12 12 13 13 
13 13 13 13 12 11 10 8 6 4 0 0 0 0 0 0 
0 0 0 0 0 0 0 0 0 0 0 0 0 0 0 0 0 0 0 0 0 0 0 0 0 0 0 0 0 0 0 0 
0 0 0 2 5 7 9 10 12 13 14 15 15 16 16 17 
17 17 17 17 16 16 15 13 11 9 5 1 0 0 0 0 
0 0 0 0 0 0 0 0 0 0 0 0 0 0 0 0 0 0 0 0 0 0 0 0 0 0 0 0 0 0 0 0 
0 0 4 7 9 11 13 14 16 17 18 19 20 20 21 21 
22 22 22 22 21 21 20 19 18 15 12 8 3 0 0 0 
0 0 0 0 0 0 0 0 0 0 0 0 0 0 0 0 0 0 0 0 0 0 0 0 0 0 0 0 0 0 0 0 
2 6 10 12 15 17 18 19 20 22 23 24 25 25 26 27 
27 27 28 28 28 27 27 26 25 23 21 17 13 6 0 0 
0 0 0 0 0 0 0 0 0 0 0 0 0 0 0 0 0 0 0 0 0 0 0 0 0 0 0 0 0 0 1 6 
10 14 17 19 21 23 24 25 26 27 28 29 31 32 33 33 
34 34 34 35 35 35 35 35 34 33 31 28 24 19 11 2 
0 0 0 0 0 0 0 0 0 0 0 0 0 0 0 13 7 1 0 0 0 0 0 0 0 0 0 0 1 6 10 15 
19 22 25 27 29 30 31 32 33 34 35 37 38 39 41 42 
42 43 43 43 43 44 44 45 45 45 44 42 38 34 27 19 
10 0 0 0 0 0 0 0 0 0 0 0 0 0 0 26 20 15 10 6 3 1 0 0 1 3 5 9 13 17 21 25 
29 33 35 37 38 39 40 40 41 42 43 45 47 49 51 52 
53 53 53 53 53 54 55 56 58 59 59 58 55 51 46 39 
30 0 0 0 0 0 0 0 0 0 0 0 0 0 0 40 34 29 24 21 18 16 15 15 15 16 18 21 25 29 33 37 
41 44 47 49 49 50 50 50 50 51 53 56 59 61 64 65 
66 66 65 65 65 66 68 70 72 75 76 76 75 72 67 61 
53 46 7 6 6 5 6 6 7 8 8 9 10 11 12 54 47 42 37 34 32 30 29 28 28 29 31 33 36 41 45 50 
54 58 61 62 63 62 61 61 61 63 65 69 73 77 96 98 
83 82 80 79 79 80 82 86 90 94 97 99 98 96 91 85 
78 71 25 28 31 34 37 40 42 42 42 41 38 36 33 65 58 52 48 45 43 41 40 40 39 40 41 44 48 53 58 64 
69 74 77 78 78 77 75 74 74 76 79 94 105 113 119 121 
119 114 106 95 95 96 99 104 110 117 122 125 126 123 118 111 
103 96 41 47 53 59 64 68 71 72 70 67 62 57 51 74 66 60 56 53 51 50 49 48 48 48 50 54 58 65 72 80 
87 93 97 98 97 95 92 89 89 82 97 111 124 135 142 145 
143 136 126 113 99 113 117 125 134 144 152 157 158 155 148 139 
129 120 113 61 69 77 84 89 93 93 91 87 80 73 65 79 70 65 60 58 56 55 54 53 53 54 57 62 68 76 86 97 
107 115 121 123 121 117 112 107 77 93 110 127 143 157 165 169 
166 158 146 131 114 97 138 148 161 175 187 194 196 191 182 170 
156 143 133 71 80 89 97 103 106 106 104 99 91 83 74 78 70 65 61 59 57 56 55 55 56 58 61 68 76 88 101 116 
130 142 150 152 150 143 135 128 84 102 121 142 160 176 187 191 
188 179 164 146 126 107 88 174 193 212 228 238 240 233 220 202 
183 164 149 138 85 94 102 108 111 112 109 104 96 87 68 69 66 62 59 57 56 55 54 54 56 59 64 72 83 98 117 137 
156 173 184 188 185 175 162 70 87 107 129 152 173 191 204 209 
206 195 178 158 136 114 94 76 227 254 255 255 255 255 255 236 
209 184 163 147 135 127 101 107 110 111 108 103 87 77 68 56 58 56 54 53 52 51 51 51 53 57 64 74 89 109 133 159 
186 209 225 231 226 213 194 71 88 109 132 156 179 199 213 219 
215 204 186 164 140 117 96 78 255 255 255 255 255 255 255 255 
235 201 173 151 136 125 118 112 108 102 97 89 82 73 64 42 48 48 47 46 46 46 46 47 49 54 63 75 94 118 148 183 
218 249 255 255 255 255 54 68 85 105 128 153 177 198 212 218 
215 203 185 162 138 116 95 77 255 255 255 255 255 255 255 255 
255 215 180 153 133 119 110 103 98 93 87 81 74 67 60 34 37 39 39 39 39 39 40 41 44 50 60 75 97 126 163 206 
250 255 255 255 255 255 50 62 78 97 118 142 165 185 199 205 
203 192 174 153 130 109 90 73 255 255 255 255 255 255 255 255 
255 224 183 151 128 111 100 93 87 82 77 72 66 60 54 23 27 30 31 32 32 33 33 35 39 45 56 73 98 132 175 226 
255 255 255 255 255 255 255 54 67 84 103 124 145 163 176 182 
180 170 155 136 117 98 81 66 255 255 255 255 255 255 255 255 
255 228 181 145 120 102 90 82 76 71 67 62 57 53 47 13 18 22 24 25 26 26 27 29 33 40 52 70 98 135 183 240 
255 255 255 255 255 255 255 45 55 68 83 101 118 133 144 150 
149 142 130 114 99 83 69 58 255 255 255 255 255 255 255 255 
255 224 174 137 110 91 79 71 65 61 57 53 49 45 41 5 11 15 17 18 19 20 21 23 27 35 47 67 95 135 186 247 
255 255 255 255 255 255 255 35 42 51 63 75 88 100 109 114 
114 109 101 90 78 67 57 48 255 255 255 255 255 255 255 255 
255 213 163 125 99 81 68 60 55 51 48 45 42 39 35 0 5 9 11 13 14 15 16 18 23 30 43 62 91 131 182 243 
255 255 255 255 255 255 255 26 30 36 43 51 59 68 74 78 
79 77 72 65 58 51 45 250 255 255 255 255 255 255 255 255 
255 195 148 112 87 70 58 51 46 43 40 37 35 32 29 0 0 4 7 8 9 10 12 14 18 26 38 57 85 123 172 231 
255 255 255 255 255 255 255 19 20 22 26 30 35 40 44 47 
49 48 46 44 40 37 34 228 255 255 255 255 255 255 255 255 
227 173 130 98 75 60 49 43 38 35 33 31 29 27 25 0 0 1 3 5 6 7 9 11 15 23 35 52 78 113 158 211 
255 255 255 255 255 255 255 13 12 12 13 14 16 18 21 23 
25 26 27 27 26 26 25 197 255 255 255 255 255 255 255 249 
196 149 112 84 64 51 42 36 32 29 27 26 24 22 20 0 0 0 0 2 3 5 6 9 13 20 31 47 71 102 140 186 
234 255 255 255 255 255 251 199 8 6 4 3 3 4 5 7 
9 11 13 14 16 17 107 160 215 255 255 255 255 255 251 207 
164 126 95 72 55 43 35 30 27 24 23 21 20 19 17 0 0 0 0 0 2 3 5 7 12 18 28 43 63 89 122 159 
198 234 255 255 255 244 209 164 117 3 0 0 0 0 0 0 
0 2 5 7 10 41 81 125 170 209 238 252 248 230 202 168 
135 105 80 61 47 37 30 26 23 21 19 18 17 16 14 0 0 0 0 0 1 2 4 7 11 17 26 38 55 77 104 133 
164 191 211 219 214 196 166 130 90 52 17 0 0 0 0 0 
0 0 1 4 0 24 57 93 129 160 183 194 192 180 159 135 
110 87 68 52 41 33 27 23 20 18 17 16 14 13 12 0 0 0 0 0 1 2 4 7 11 16 24 34 48 66 87 109 
132 152 166 172 166 151 127 97 64 31 1 0 0 0 0 0 
0 0 0 0 0 9 37 67 95 119 137 147 147 139 125 108 
89 72 58 46 37 30 25 21 19 17 15 14 13 12 10 0 0 0 0 0 1 3 5 7 11 16 22 31 42 56 72 89 
105 119 128 131 125 112 92 67 39 11 0 0 0 0 0 0 
0 0 0 0 0 0 20 44 67 87 102 110 112 107 98 87 
74 61 50 41 34 28 24 20 18 16 14 13 12 11 9 0 0 0 0 0 1 3 5 8 11 15 21 28 37 47 59 71 
82 91 97 97 91 79 62 40 16 0 0 0 0 0 0 0 
0 0 0 0 0 0 5 26 45 62 75 82 85 84 79 71 
62 54 46 38 32 28 24 20 18 16 14 13 11 10 9 0 0 0 0 1 2 4 6 9 12 15 20 26 32 40 48 56 
63 69 71 69 63 52 36 16 0 0 0 0 0 0 0 0 
0 0 0 0 0 0 0 11 28 43 54 62 66 67 64 60 
55 49 43 37 32 28 24 21 19 16 14 13 11 10 8 0 0 0 0 1 3 5 7 9 12 15 19 23 28 34 39 44 
48 50 50 47 40 29 14 0 0 0 0 0 0 0 0 0 
0 0 0 0 0 0 0 0 15 28 39 47 52 54 54 53 
49 46 41 37 33 29 25 22 19 17 15 13 11 10 8 0 0 0 1 2 4 6 8 10 13 15 18 21 25 28 31 34 
35 35 33 29 22 11 0 0 0 0 0 0 0 0 0 0 
0 0 0 0 0 0 0 0 0 17 28 36 42 46 47 48 
46 44 41 38 34 30 27 23 20 18 16 13 12 10 8 0 0 0 2 3 5 7 9 11 13 15 17 20 22 23 24 25 
24 23 19 14 7 0 0 0 0 0 0 0 0 0 0 0 
0 0 0 0 0 0 0 0 0 9 19 28 35 40 43 45 
45 44 41 39 35 32 28 25 22 19 16 14 12 10 8 0 0 1 2 4 5 7 9 11 13 14 16 17 18 18 18 1 
0 12 8 2 0 0 0 0 0 0 0 0 0 0 0 0 
0 0 0 0 0 0 0 0 0 2 13 22 29 35 22 25 
27 44 42 40 37 33 29 26 23 20 17 14 12 10 9 0 0 1 3 4 6 7 9 11 12 13 14 15 15 4 1 0 
0 0 0 0 0 0 0 0 0 0 0 0 0 0 0 0 
0 0 0 0 0 0 0 0 0 0 8 17 15 20 24 27 
29 30 43 41 37 34 30 27 23 20 17 15 12 10 9 0 1 2 3 5 6 7 9 10 11 12 12 12 4 2 0 0 
0 0 0 0 0 0 0 0 0 0 0 0 0 0 0 0 
0 0 0 0 0 0 0 0 0 0 5 10 14 19 23 27 
30 31 31 41 38 34 31 27 24 20 17 15 13 11 9 0 1 2 3 5 6 7 8 9 10 10 10 4 2 0 0 0 
0 0 0 0 0 0 0 0 0 0 0 0 0 84 219 255 
221 82 0 0 0 0 0 0 0 0 4 8 12 17 22 26 
29 31 31 29 37 34 30 27 23 20 17 15 12 10 9 0 1 2 3 4 5 7 7 8 8 8 7 2 0 0 0 0 
0 0 0 0 0 0 0 0 0 0 0 23 102 252 255 255 
255 203 63 0 0 0 0 0 0 0 1 5 9 14 19 23 
27 29 29 28 35 32 29 26 23 20 17 14 12 10 9 1 2 2 3 4 5 6 6 6 6 5 4 0 0 0 0 0 
0 0 0 0 0 0 0 0 0 0 17 62 145 255 255 255 
255 218 94 28 0 0 0 0 0 3 0 2 6 11 15 20 
23 26 26 26 33 30 27 24 21 19 16 14 12 10 8 1 1 2 3 4 4 5 5 5 4 3 1 0 0 0 0 0 
0 0 0 0 0 0 0 0 0 11 34 75 140 225 255 255 
255 178 95 42 15 3 0 2 5 0 0 0 2 7 11 15 
19 21 23 22 29 27 25 22 20 17 15 13 11 9 8 1 1 2 3 3 3 4 3 3 2 0 0 0 0 0 0 0 
0 0 0 0 0 0 0 2 8 20 40 72 115 165 204 212 
183 133 83 47 25 14 10 10 11 0 0 0 0 3 7 11 
14 17 18 18 25 24 22 20 18 16 14 12 10 9 7 1 1 2 2 2 3 2 2 1 0 0 0 0 0 0 0 0 
0 0 0 0 0 0 0 6 13 23 40 62 90 117 137 141 
125 98 70 46 30 21 17 16 0 0 0 0 0 0 3 6 
9 12 14 20 20 20 19 17 15 14 12 11 9 8 7 1 1 1 1 2 2 1 1 0 0 0 0 0 0 0 0 0 
0 0 0 0 0 0 0 9 14 23 36 51 69 85 96 97 
89 74 58 43 32 26 22 21 0 0 0 0 0 0 0 2 
5 8 15 16 16 16 15 14 13 12 11 9 8 7 6 0 1 1 1 1 1 0 0 0 0 0 0 0 0 0 0 0 
0 0 0 0 0 0 0 0 14 21 30 41 52 62 69 70 
66 58 48 40 32 27 25 4 0 0 0 0 0 0 1 3 
6 8 10 12 12 13 12 12 11 10 9 8 7 6 5 0 0 1 1 0 0 0 0 0 0 0 0 0 0 0 0 0 
0 0 0 0 0 0 0 0 5 18 25 32 40 46 51 52 
50 46 41 35 31 27 10 5 1 0 0 0 0 0 0 1 
3 5 7 8 9 9 10 9 9 8 8 7 6 5 5 0 0 0 0 0 0 0 0 0 0 0 0 0 0 0 0 0 
0 0 0 0 0 0 0 0 5 12 20 24 30 35 38 39 
39 37 34 31 21 15 9 5 1 0 0 0 0 0 0 0 
1 3 4 5 6 7 7 7 7 7 6 6 5 5 4 0 0 0 0 0 0 0 0 0 0 0 0 0 0 0 0 0 
0 0 0 0 0 0 0 0 5 11 17 23 28 32 35 36 
35 32 28 23 18 13 9 5 2 0 0 0 0 0 0 0 
0 1 2 3 4 5 5 5 5 5 5 5 4 4 3 0 0 0 0 0 0 0 0 0 0 0 0 0 0 0 0 0 
0 0 0 0 0 0 0 0 4 9 14 19 23 26 28 29 
28 26 23 20 16 12 8 5 2 0 0 0 0 0 0 0 
0 0 1 2 2 3 4 4 4 4 4 4 3 3 3 0 0 0 0 0 0 0 0 0 0 0 0 0 0 0 0 0 
0 0 0 0 0 0 0 0 4 8 12 16 19 21 23 24 
23 22 20 17 14 11 7 5 2 0 0 0 0 0 0 0 
0 0 0 0 1 2 2 3 3 3 3 3 3 2 2 0 0 0 0 0 0 0 0 0 0 0 0 0 0 0 0 0 
0 0 0 0 0 0 0 1 4 7 10 13 16 18 19 20 
19 18 16 14 12 9 7 4 2 0 0 0 0 0 0 0 
0 0 0 0 0 1 1 2 2 2 2 2 2 2 2 0 0 0 0 0 0 0 0 0 0 0 0 0 0 0 0 0 
0 0 0 0 0 0 0 1 4 6 9 11 13 15 16 16 
16 15 14 12 10 8 6 4 2 0 0 0 0 0 0 0 
0 0 0 0 0 0 0 1 1 1 1 1 1 1 1 0 0 0 0 0 0 0 0 0 0 0 0 0 0 0 0 0 
0 0 0 0 0 0 0 1 3 5 8 9 11 12 13 13 
13 12 11 10 8 6 5 3 1 0 0 0 0 0 0 0 
0 0 0 0 0 0 0 0 0 1 1 1 1 1 1 0 0 0 0 0 0 0 0 0 0 0 0 0 0 0 0 0 
0 0 0 0 0 0 0 1 3 5 6 8 9 10 11 11 
11 10 9 8 6 5 3 2 1 0 0 0 0 0 0 0 
0 0 0 0 0 0 0 0 0 0 0 0 0 0 0 0 0 0 0 0 0 0 0 0 0 0 0 0 0 0 0 0 
0 0 0 0 0 0 0 1 2 4 5 6 7 8 8 8 
8 8 7 6 5 4 2 1 0 0 0 0 0 0 0 0 
0 0 0 0 0 0 0 0 0 0 0 0 0 0 0 0 0 0 0 0 0 0 0 0 0 0 0 0 0 0 0 0 
0 0 0 0 0 0 0 1 2 3 4 5 5 6 6 6 
6 6 5 4 3 2 1 0 0 0 0 0 0 0 0 0 
0 0 0 0 0 0 0 0 0 0 0 0 0 0 0 0 0 0 0 0 0 0 0 0 0 0 0 0 0 0 0 0 
0 0 0 0 0 0 0 0 1 2 3 3 4 4 5 5 
4 4 3 3 2 1 1 0 0 0 0 0 0 0 0 0 
0 0 0 0 0 0 0 0 0 0 0 0 0 0 0 0 0 0 0 0 0 0 0 0 0 0 0 0 0 0 0 0 
0 0 0 0 0 0 0 0 0 1 2 2 3 3 3 3 
3 3 2 2 1 0 0 0 0 0 0 0 0 0 0 0 
0 0 0 0 0 0 0 0 0 0 0 0 0 0 0 0 0 0 0 0 0 0 0 0 0 0 0 0 0 0 0 0 
0 0 0 0 0 0 0 0 0 0 1 1 1 2 2 2 
1 1 1 0 0 0 0 0 0 0 0 0 0 0 0 0 
0 0 0 0 0 0 0 0 0 0 0 0 0 0 0 0 0 0 0 0 0 0 0 0 0 0 0 0 0 0 0 0 
0 0 0 0 0 0 0 0 0 0 0 0 1 1 1 1 
0 0 0 0 0 0 0 0 0 0 0 0 0 0 0 0 
0 0 0 0 0 0 0 0 0 0 0 0 0 0 0 0 0 0 0 0 0 0 0 0 0 0 0 0 0 0 0 0 
0 0 0 0 0 0 0 0 0 0 0 0 0 0 0 0 
0 0 0 0 0 0 0 0 0 0 0 0 0 0 0 0 
0 0 0 0 0 0 0 0 0 0 0 0 0 0 0 