P2
# Created by IrfanView
64 64
255
0 0 0 0 0 0 0 0 0 0 0 0 0 0 0 0 0 
0 0 0 0 0 0 0 0 0 1 2 3 3 4 4 4 
4 4 3 3 2 1 0 0 0 0 0 0 0 0 0 0 
0 0 0 0 0 0 0 0 0 0 0 0 0 0 0 0 0 0 0 0 0 0 0 0 0 0 0 0 0 0 0 0 
0 0 0 0 0 0 0 0 2 3 4 4 5 5 6 6 
6 6 5 5 4 3 2 0 0 0 0 0 0 0 0 0 
0 0 0 0 0 0 0 0 0 0 0 0 0 0 0 0 0 0 0 0 0 0 0 0 0 0 0 0 0 0 0 0 
0 0 0 0 0 0 1 2 4 5 6 7 7 8 8 8 
8 8 8 7 6 5 4 2 0 0 0 0 0 0 0 0 
0 0 0 0 0 0 0 0 0 0 0 0 0 0 0 0 0 0 0 0 0 0 0 0 0 0 0 0 0 0 0 0 
0 0 0 0 0 1 3 5 6 7 8 9 10 10 11 11 
11 11 11 10 9 8 7 6 3 1 0 0 0 0 0 0 
0 0 0 0 0 0 0 0 0 0 0 0 0 0 0 0 0 0 0 0 0 0 0 0 0 0 0 0 0 0 0 0 
0 0 0 0 2 4 6 8 9 10 11 12 13 13 14 14 
14 14 14 14 13 12 11 9 7 5 2 0 0 0 0 0 
0 0 0 0 0 0 0 0 0 0 0 0 0 0 0 0 0 0 0 0 0 0 0 0 0 0 0 0 0 0 0 0 
0 0 1 3 6 8 10 11 12 14 15 16 16 17 18 18 
18 18 18 18 17 17 16 14 12 10 7 3 0 0 0 0 
0 0 0 0 0 0 0 0 0 0 0 0 0 0 0 0 0 0 0 0 0 0 0 0 0 0 0 0 0 0 0 0 
0 2 5 8 10 12 14 15 17 18 19 20 21 22 22 23 
23 23 23 23 23 22 21 20 19 16 14 10 5 0 0 0 
0 0 0 0 0 0 0 0 0 0 0 0 0 0 0 0 0 0 0 0 0 0 0 0 0 0 0 0 0 0 0 1 
4 8 11 13 15 17 19 20 22 23 24 25 27 28 28 29 
29 30 30 29 29 29 28 27 26 24 22 18 14 9 2 0 
0 0 0 0 0 0 0 0 0 0 0 0 0 0 0 1 0 0 0 0 0 0 0 0 0 0 0 0 0 0 4 8 
11 14 17 20 22 23 25 26 27 29 30 32 33 35 36 37 
37 37 37 37 37 36 36 35 35 33 31 29 25 20 14 6 
0 0 0 0 0 0 0 0 0 0 0 0 0 0 0 11 7 3 0 0 0 0 0 0 0 0 0 1 4 8 12 16 
19 22 25 27 29 30 32 33 34 36 38 40 42 44 45 46 
47 47 46 46 46 45 45 45 45 44 43 41 38 33 28 21 
13 4 0 0 0 0 0 0 0 0 0 0 0 0 0 21 17 13 10 7 4 3 2 2 3 5 7 10 14 17 21 25 
28 31 34 36 37 39 40 41 43 45 47 50 52 55 57 58 
59 59 58 57 57 56 56 57 57 57 56 55 53 49 44 38 
31 23 15 0 0 0 0 0 0 0 0 0 0 0 0 31 27 23 20 18 16 14 13 13 14 16 18 20 24 27 31 35 
39 42 44 46 47 48 49 51 52 55 58 62 66 70 72 74 
75 74 73 71 70 69 69 70 71 72 72 72 70 67 62 57 
50 43 36 8 7 7 7 7 7 8 9 9 10 11 12 41 37 33 30 28 26 24 24 24 24 26 28 30 34 37 42 46 
50 54 56 58 59 60 61 62 64 67 72 77 92 99 104 106 
105 100 93 88 85 84 84 85 87 89 91 91 90 87 83 77 
71 64 58 25 26 28 30 32 33 34 34 33 32 30 28 49 45 41 38 36 34 33 33 33 33 34 37 40 43 48 53 58 
63 67 70 72 73 73 74 75 77 82 88 101 112 122 128 130 
129 123 114 103 90 101 101 103 106 109 112 114 113 110 106 99 
92 86 79 39 43 47 51 54 56 56 55 53 50 46 32 55 50 47 44 42 41 40 39 39 40 42 44 48 53 58 65 72 
78 83 87 89 89 89 89 89 92 87 103 118 133 145 153 156 
154 147 136 122 106 90 120 122 127 132 137 140 140 136 131 123 
115 106 99 93 56 62 67 70 73 73 72 68 64 59 43 57 53 50 47 46 44 44 44 44 45 47 51 55 61 69 77 86 
94 101 106 109 109 108 106 106 80 97 116 135 153 168 178 182 
180 171 157 140 121 103 85 144 151 158 165 169 170 166 158 148 
137 126 116 108 102 71 77 81 83 84 82 78 73 58 50 55 52 50 48 47 46 46 46 46 48 51 55 61 69 79 90 102 
113 122 129 132 131 129 126 69 86 106 127 150 171 189 202 207 
204 193 176 156 134 113 93 75 176 187 197 203 203 198 188 174 
159 144 131 120 112 106 102 86 88 89 87 77 70 62 54 50 49 47 46 46 45 45 46 47 49 53 58 66 76 89 103 119 
134 146 155 159 158 153 57 71 89 110 134 159 184 205 219 225 
222 210 191 168 143 120 98 79 203 219 232 240 240 233 219 200 
180 161 143 129 118 110 104 99 94 89 84 77 70 63 55 42 43 43 43 43 43 43 44 45 48 53 60 69 82 98 117 136 
156 172 184 189 187 180 55 70 88 110 135 162 189 212 227 234 
230 218 198 173 147 122 99 80 64 251 255 255 255 255 250 226 
200 175 153 135 121 110 102 96 91 86 80 74 67 61 54 32 35 37 37 38 39 39 41 43 46 52 60 72 87 107 129 154 
179 200 215 221 218 208 52 65 82 104 129 156 183 206 221 228 
226 214 194 169 143 118 96 78 62 255 255 255 255 255 255 250 
218 187 160 138 121 108 98 91 85 80 74 69 63 57 51 23 27 30 32 33 34 35 37 39 43 50 59 73 91 114 141 171 
202 228 246 254 250 235 46 58 73 92 116 141 166 187 201 208 
207 197 180 157 132 109 89 72 58 255 255 255 255 255 255 255 
231 195 163 138 118 103 92 84 78 72 67 62 57 52 47 14 20 23 26 27 29 30 32 35 39 47 57 72 93 119 151 186 
221 252 255 255 255 32 39 48 60 76 96 118 140 159 171 177 
177 170 155 136 115 95 78 64 52 255 255 255 255 255 255 255 
238 198 163 135 113 97 85 77 70 65 60 56 51 47 42 8 13 17 20 22 23 25 27 30 35 43 55 71 93 122 157 196 
235 255 255 255 255 27 31 37 45 57 72 89 107 123 134 140 
141 135 123 108 92 77 64 54 45 255 255 255 255 255 255 255 
239 195 158 129 106 89 77 69 62 57 53 49 45 41 37 2 8 12 14 17 18 20 23 26 31 39 51 69 92 122 158 200 
242 255 255 255 255 255 23 26 31 38 47 59 72 84 94 99 
100 96 89 79 68 59 50 43 37 255 255 255 255 255 255 255 
231 187 150 120 98 81 69 61 54 50 46 42 39 36 32 0 3 7 10 12 14 16 19 22 28 36 48 65 88 119 156 197 
240 255 255 255 255 255 16 16 17 20 25 31 39 47 54 58 
60 59 56 51 45 41 36 33 29 255 255 255 255 255 255 255 
216 174 138 110 88 73 61 53 47 43 39 36 33 31 28 0 0 3 6 9 10 13 15 19 24 32 44 61 84 113 148 188 
229 255 255 255 255 255 10 8 6 6 6 8 12 16 20 24 
26 27 27 27 26 25 24 24 238 255 255 255 255 255 255 238 
196 157 125 99 79 64 54 46 41 37 34 31 29 26 24 0 0 1 3 6 8 10 12 16 21 29 40 56 77 104 137 173 
210 243 255 255 255 247 212 3 0 0 0 0 0 0 0 0 
1 4 6 9 11 13 15 17 205 247 255 255 255 255 245 209 
172 139 110 87 69 56 47 40 35 31 29 26 24 22 20 0 0 0 1 3 5 7 10 14 19 26 37 51 70 94 123 155 
187 215 235 243 237 216 185 146 0 0 0 0 0 0 0 0 
0 0 0 0 2 6 9 130 171 207 233 246 245 231 207 178 
148 120 95 76 60 49 41 35 30 27 25 23 21 19 17 0 0 0 0 2 4 6 8 12 17 24 33 46 63 84 108 135 
161 185 201 206 200 183 155 121 0 0 0 0 0 0 0 0 
0 0 0 0 0 2 67 102 137 167 189 200 200 190 171 149 
124 102 82 65 52 43 36 30 27 24 21 20 18 16 15 0 0 0 0 1 3 5 7 11 15 21 30 41 55 73 93 115 
136 154 166 170 164 149 125 96 64 32 0 0 0 0 0 0 
0 0 0 0 0 19 48 78 106 131 149 159 160 153 139 122 
103 86 70 57 46 38 32 27 24 21 19 17 16 14 13 0 0 0 0 1 2 4 7 10 14 20 27 36 48 63 79 95 
112 125 134 136 130 117 97 72 45 17 0 0 0 0 0 0 
0 0 0 0 0 7 31 56 80 100 115 124 126 121 112 100 
86 72 60 49 41 34 29 25 22 19 17 16 14 13 11 0 0 0 0 0 2 4 7 10 13 18 24 32 42 53 65 78 
90 100 105 105 100 88 71 49 26 1 0 0 0 0 0 0 
0 0 0 0 0 0 17 38 58 75 88 95 98 96 90 81 
72 62 52 44 37 31 27 23 20 18 16 14 13 11 10 0 0 0 0 1 3 4 7 9 13 17 22 29 36 45 54 63 
71 78 81 79 73 63 47 28 0 0 0 0 0 0 0 0 
0 0 0 0 0 0 0 23 40 54 66 73 76 76 73 67 
61 53 46 40 34 30 26 22 20 17 15 14 12 11 9 0 0 0 0 1 3 5 7 9 12 16 20 25 31 37 44 50 
56 59 60 57 51 41 27 0 0 0 0 0 0 0 0 0 
0 0 0 0 0 0 0 0 26 38 49 56 60 61 60 57 
52 47 42 37 33 29 25 22 19 17 15 13 12 10 9 0 0 0 0 2 3 5 7 9 12 15 19 22 27 31 35 39 
42 44 43 39 33 22 9 0 0 0 0 0 0 0 0 0 
0 0 0 0 0 0 0 0 14 26 36 43 47 50 50 49 
47 43 40 36 32 28 25 22 20 17 15 13 12 10 9 0 0 0 1 2 4 6 7 10 12 14 17 20 23 26 28 30 
31 31 29 24 17 7 0 0 0 0 0 0 0 0 0 0 
0 0 0 0 0 0 0 0 0 16 26 33 38 42 43 43 
43 41 38 35 32 29 26 23 20 18 15 13 12 10 8 0 0 0 1 3 4 6 8 9 11 13 15 17 19 21 22 22 
22 20 17 12 5 0 0 0 0 0 0 0 0 0 0 0 
0 0 0 0 0 0 0 0 0 9 18 25 31 35 38 40 
40 39 37 35 32 29 26 23 20 18 16 14 12 10 8 0 0 1 2 3 5 6 8 9 11 12 14 15 16 16 16 15 
13 11 7 2 0 0 0 0 0 0 0 0 0 0 0 0 
0 0 0 0 0 0 0 0 0 0 12 20 26 31 34 37 
38 38 36 35 32 29 26 24 21 18 16 14 12 10 8 0 0 1 2 3 5 6 7 9 10 11 12 12 12 11 10 8 
6 3 0 0 0 0 0 0 0 0 0 0 0 0 0 0 
0 0 0 0 0 0 0 0 0 0 8 15 22 27 31 34 
36 36 36 34 32 29 27 24 21 18 16 14 12 10 8 0 0 1 3 4 5 6 7 8 9 10 10 9 9 7 5 2 
0 0 0 0 0 0 0 0 0 0 0 0 0 0 0 0 
0 0 0 0 0 0 0 0 0 0 5 12 18 24 28 32 
34 35 35 34 32 29 26 24 21 18 16 14 12 10 8 0 1 2 3 4 5 6 7 7 8 8 7 7 5 3 0 0 
0 0 0 0 0 0 0 0 0 0 0 0 0 0 142 255 
133 0 0 0 0 0 0 0 0 0 3 9 15 21 16 19 
21 33 33 32 31 28 26 23 20 18 16 13 12 10 8 0 1 2 3 3 4 5 6 6 6 6 5 3 1 0 0 0 
0 0 0 0 0 0 0 0 0 0 0 0 46 191 255 255 
255 87 0 0 0 0 0 0 0 0 1 7 12 11 14 17 
19 30 31 30 29 27 25 22 20 17 15 13 11 9 8 0 1 2 2 3 4 4 5 5 5 4 3 1 0 0 0 0 
0 0 0 0 0 0 0 0 0 0 0 30 95 216 255 255 
255 113 13 0 0 0 0 0 0 7 0 5 10 8 12 15 
17 19 28 28 27 25 23 21 19 16 14 12 11 9 8 0 1 2 2 3 3 3 4 3 3 2 0 0 0 0 0 0 
0 0 0 0 0 0 0 0 0 5 20 49 99 170 239 251 
187 98 33 2 0 0 0 2 8 0 0 3 7 6 9 12 
14 23 24 25 24 23 21 19 17 15 13 12 10 9 7 0 1 1 2 2 2 3 2 2 1 0 0 0 0 0 0 0 
0 0 0 0 0 0 3 4 8 16 31 54 86 124 153 155 
124 80 42 19 9 6 8 11 15 0 0 2 5 8 6 8 
17 19 21 21 21 20 19 17 15 14 12 11 9 8 7 0 1 1 1 2 2 2 1 1 0 0 0 0 0 0 0 0 
0 0 0 0 0 0 8 10 15 23 35 51 72 92 106 105 
90 67 45 29 21 18 17 19 22 0 0 1 3 5 8 11 
13 15 17 17 17 17 16 15 14 12 11 10 8 7 6 0 1 1 1 1 1 1 0 0 0 0 0 0 0 0 0 0 
0 0 0 0 0 0 0 14 18 25 35 47 60 72 79 78 
70 58 45 35 29 26 25 25 2 0 0 0 2 3 5 8 
10 12 13 14 14 14 13 13 12 11 10 9 7 7 6 0 0 1 1 1 0 0 0 0 0 0 0 0 0 0 0 0 
0 0 0 0 0 0 0 0 20 26 33 42 50 58 62 62 
58 52 44 38 33 31 30 7 3 1 0 0 1 2 3 5 
7 8 10 11 11 11 11 11 10 9 8 7 7 6 5 0 0 0 0 0 0 0 0 0 0 0 0 0 0 0 0 0 
0 0 0 0 0 0 0 2 9 24 30 36 43 48 51 52 
50 46 42 38 35 33 13 8 5 2 1 0 0 0 1 3 
4 6 7 8 8 9 9 8 8 7 7 6 6 5 4 0 0 0 0 0 0 0 0 0 0 0 0 0 0 0 0 0 
0 0 0 0 0 0 0 3 9 16 23 31 36 40 43 44 
43 42 39 37 23 18 13 9 5 3 1 0 0 0 0 1 
2 4 5 5 6 7 7 7 6 6 6 5 5 4 4 0 0 0 0 0 0 0 0 0 0 0 0 0 0 0 0 0 
0 0 0 0 0 0 0 3 9 14 20 26 31 35 35 37 
37 35 31 26 21 17 12 9 5 3 1 0 0 0 0 0 
1 2 3 4 4 5 5 5 5 5 5 4 4 3 3 0 0 0 0 0 0 0 0 0 0 0 0 0 0 0 0 0 
0 0 0 0 0 0 0 4 8 13 18 22 26 29 31 32 
31 30 27 23 19 15 12 8 5 3 1 0 0 0 0 0 
0 1 1 2 3 3 4 4 4 4 4 3 3 3 3 0 0 0 0 0 0 0 0 0 0 0 0 0 0 0 0 0 
0 0 0 0 0 0 1 4 8 12 16 19 23 25 27 27 
27 25 23 20 17 14 11 8 5 3 1 0 0 0 0 0 
0 0 0 1 2 2 2 3 3 3 3 3 2 2 2 0 0 0 0 0 0 0 0 0 0 0 0 0 0 0 0 0 
0 0 0 0 0 0 1 4 7 11 14 17 19 21 23 23 
23 22 20 18 15 12 9 7 5 3 1 0 0 0 0 0 
0 0 0 0 1 1 1 2 2 2 2 2 2 2 2 0 0 0 0 0 0 0 0 0 0 0 0 0 0 0 0 0 
0 0 0 0 0 0 1 4 7 9 12 14 17 18 19 20 
19 18 17 15 13 10 8 6 4 2 1 0 0 0 0 0 
0 0 0 0 0 0 1 1 1 1 1 1 1 1 1 0 0 0 0 0 0 0 0 0 0 0 0 0 0 0 0 0 
0 0 0 0 0 0 1 4 6 8 10 12 14 15 16 16 
16 15 14 12 11 9 7 5 3 1 0 0 0 0 0 0 
0 0 0 0 0 0 0 0 0 1 1 1 1 1 1 0 0 0 0 0 0 0 0 0 0 0 0 0 0 0 0 0 
0 0 0 0 0 0 1 3 5 7 8 10 11 12 13 13 
13 12 11 10 8 7 5 4 2 1 0 0 0 0 0 0 
0 0 0 0 0 0 0 0 0 0 0 0 0 0 0 0 0 0 0 0 0 0 0 0 0 0 0 0 0 0 0 0 
0 0 0 0 0 0 1 2 4 5 7 8 9 10 10 10 
10 10 9 8 6 5 4 2 1 0 0 0 0 0 0 0 
0 0 0 0 0 0 0 0 0 0 0 0 0 0 0 0 0 0 0 0 0 0 0 0 0 0 0 0 0 0 0 0 
0 0 0 0 0 0 1 2 3 4 5 6 7 7 8 8 
8 7 6 5 4 3 2 1 0 0 0 0 0 0 0 0 
0 0 0 0 0 0 0 0 0 0 0 0 0 0 0 0 0 0 0 0 0 0 0 0 0 0 0 0 0 0 0 0 
0 0 0 0 0 0 0 1 2 3 4 4 5 5 6 6 
5 5 4 4 3 2 1 0 0 0 0 0 0 0 0 0 
0 0 0 0 0 0 0 0 0 0 0 0 0 0 0 0 0 0 0 0 0 0 0 0 0 0 0 0 0 0 0 0 
0 0 0 0 0 0 0 1 1 2 2 3 3 4 4 4 
3 3 3 2 1 1 0 0 0 0 0 0 0 0 0 0 
0 0 0 0 0 0 0 0 0 0 0 0 0 0 0 0 0 0 0 0 0 0 0 0 0 0 0 0 0 0 0 0 
0 0 0 0 0 0 0 0 0 1 1 2 2 2 2 2 
2 1 1 1 0 0 0 0 0 0 0 0 0 0 0 0 
0 0 0 0 0 0 0 0 0 0 0 0 0 0 0 0 0 0 0 0 0 0 0 0 0 0 0 0 0 0 0 0 
0 0 0 0 0 0 0 0 0 0 0 1 1 1 1 1 
0 0 0 0 0 0 0 0 0 0 0 0 0 0 0 0 
0 0 0 0 0 0 0 0 0 0 0 0 0 0 0 0 0 0 0 0 0 0 0 0 0 0 0 0 0 0 0 0 
0 0 0 0 0 0 0 0 0 0 0 0 0 0 0 0 
0 0 0 0 0 0 0 0 0 0 0 0 0 0 0 0 
0 0 0 0 0 0 0 0 0 0 0 0 0 0 0 