P2
# Created by IrfanView
64 64
255
0 0 0 0 0 0 0 0 0 0 0 0 0 0 0 0 0 
0 0 0 0 0 0 0 0 1 2 2 3 4 4 4 4 
4 4 4 3 2 1 0 0 0 0 0 0 0 0 0 0 
0 0 0 0 0 0 0 0 0 0 0 0 0 0 0 0 0 0 0 0 0 0 0 0 0 0 0 0 0 0 0 0 
0 0 0 0 0 0 0 1 2 3 4 5 5 6 6 6 
6 6 6 5 4 3 2 1 0 0 0 0 0 0 0 0 
0 0 0 0 0 0 0 0 0 0 0 0 0 0 0 0 0 0 0 0 0 0 0 0 0 0 0 0 0 0 0 0 
0 0 0 0 0 0 2 3 4 5 6 7 8 8 8 9 
9 8 8 8 7 6 5 3 1 0 0 0 0 0 0 0 
0 0 0 0 0 0 0 0 0 0 0 0 0 0 0 0 0 0 0 0 0 0 0 0 0 0 0 0 0 0 0 0 
0 0 0 0 0 2 4 5 7 8 9 9 10 11 11 11 
11 11 11 11 10 9 8 6 4 2 0 0 0 0 0 0 
0 0 0 0 0 0 0 0 0 0 0 0 0 0 0 0 0 0 0 0 0 0 0 0 0 0 0 0 0 0 0 0 
0 0 0 1 3 5 7 8 9 11 12 13 13 14 14 15 
15 15 15 14 14 13 12 10 8 6 3 0 0 0 0 0 
0 0 0 0 0 0 0 0 0 0 0 0 0 0 0 0 0 0 0 0 0 0 0 0 0 0 0 0 0 0 0 0 
0 0 2 5 7 8 10 12 13 14 15 16 17 18 18 19 
19 19 19 19 18 17 16 15 13 11 8 5 1 0 0 0 
0 0 0 0 0 0 0 0 0 0 0 0 0 0 0 0 0 0 0 0 0 0 0 0 0 0 0 0 0 0 0 0 
1 4 6 9 11 13 14 16 17 18 20 21 22 23 23 24 
24 24 24 24 23 23 22 20 19 17 14 11 7 2 0 0 
0 0 0 0 0 0 0 0 0 0 0 0 0 0 0 0 0 0 0 0 0 0 0 0 0 0 0 0 0 0 0 3 
6 9 11 14 16 17 19 20 22 23 25 26 28 29 30 30 
31 31 31 30 30 29 28 27 26 24 22 19 15 10 5 0 
0 0 0 0 0 0 0 0 0 0 0 0 0 0 0 2 0 0 0 0 0 0 0 0 0 0 0 0 0 2 6 9 
12 15 17 19 21 23 25 26 28 29 31 33 35 36 38 38 
39 39 39 38 37 37 36 35 34 33 31 28 25 20 15 9 
2 0 0 0 0 0 0 0 0 0 0 0 0 0 0 9 6 3 0 0 0 0 0 0 0 0 0 3 6 9 13 16 
19 22 24 26 28 30 31 33 35 37 39 41 44 46 48 49 
49 49 49 48 47 46 45 44 44 43 41 39 36 32 27 22 
15 8 0 0 0 0 0 0 0 0 0 0 0 0 0 16 14 11 8 6 5 4 4 4 5 6 8 11 14 17 20 24 
27 29 32 34 36 37 39 41 43 46 49 52 55 58 61 62 
63 62 61 60 58 57 56 55 55 54 53 52 49 46 41 36 
30 23 17 10 3 0 0 0 0 0 0 0 0 0 0 24 21 19 16 15 13 12 12 12 13 15 17 19 22 25 29 32 
36 38 41 43 45 46 48 50 53 56 61 65 70 75 86 88 
80 79 77 74 72 70 69 68 68 68 67 66 64 61 57 52 
46 40 34 28 23 8 8 8 8 9 9 10 11 1 1 30 28 26 24 22 21 20 20 20 21 23 25 27 31 34 38 42 
45 49 51 53 55 56 58 60 64 69 75 86 95 103 108 110 
109 104 97 88 88 85 83 82 83 83 83 83 81 78 74 69 
64 58 52 47 42 25 26 27 28 28 28 28 27 16 13 35 33 31 30 28 27 27 27 27 28 30 32 35 39 43 48 52 
56 60 63 65 67 68 70 73 77 76 90 103 115 125 132 135 
133 127 118 106 93 103 100 99 99 100 102 102 100 98 93 88 
82 75 69 64 59 56 41 43 44 45 44 43 33 28 25 39 37 35 34 33 32 32 32 33 34 36 39 43 47 52 58 63 
69 73 76 79 80 81 83 86 73 88 104 121 136 149 158 161 
159 152 140 125 109 93 77 117 118 120 122 123 122 119 114 107 
100 93 86 80 75 71 67 56 57 57 56 49 44 39 34 39 38 37 36 36 36 36 36 37 39 41 45 49 55 61 68 75 
82 88 92 94 96 96 98 65 80 97 117 137 156 173 184 188 
186 176 162 143 124 105 87 70 138 141 144 146 146 142 136 128 
119 109 101 93 87 82 78 74 71 67 62 57 51 45 40 37 37 37 37 37 37 37 38 40 42 45 49 55 62 70 79 88 
97 104 109 112 113 113 54 68 84 104 127 150 174 193 207 213 
210 198 181 159 136 114 94 76 158 164 169 172 171 167 159 148 
136 125 114 104 96 90 85 80 76 71 67 61 55 49 44 32 34 35 36 36 37 37 39 40 43 47 52 59 68 78 90 101 
112 122 128 132 132 131 54 68 85 107 132 158 185 207 223 229 
226 214 194 170 144 119 97 79 63 187 194 198 198 192 182 169 
154 139 125 113 103 95 88 83 78 73 68 62 57 51 45 26 30 32 33 34 35 36 38 40 43 48 55 63 74 86 100 115 
129 141 149 153 152 149 51 65 82 104 130 158 186 209 224 230 
229 218 198 173 145 120 97 78 63 210 220 226 225 218 205 188 
169 151 133 119 106 97 89 82 77 72 67 61 56 50 45 20 24 27 29 31 32 34 36 39 43 48 56 66 78 93 111 128 
146 160 170 174 173 37 46 58 74 95 120 148 175 194 205 211 
213 207 190 166 139 114 92 74 60 230 244 251 251 242 226 205 
182 160 140 122 108 96 87 80 74 68 63 58 53 48 43 13 19 22 25 27 29 31 33 36 41 47 56 67 82 99 119 141 
161 178 190 195 192 32 39 48 62 80 103 128 151 166 171 175 
181 181 169 148 125 102 83 67 54 44 255 255 255 255 243 219 
192 166 143 123 107 94 84 76 69 64 59 54 50 45 40 8 13 17 20 23 25 27 30 33 38 45 55 68 84 104 127 151 
174 194 208 213 209 26 30 36 46 60 78 99 119 131 134 138 
145 147 139 122 103 85 69 57 47 39 255 255 255 255 254 227 
198 169 143 121 104 90 79 71 64 59 54 49 45 41 37 3 9 13 16 19 21 23 26 30 35 43 53 67 85 106 131 157 
183 205 220 225 220 19 20 24 29 38 50 66 82 94 100 104 
109 110 103 91 77 64 54 45 38 33 255 255 255 255 255 229 
197 167 140 117 99 84 73 65 58 53 48 44 41 37 33 0 5 9 12 15 17 20 23 27 33 40 51 65 84 106 132 160 
187 210 226 231 225 13 12 11 13 16 22 32 43 54 62 67 
70 69 64 57 50 43 37 33 30 252 255 255 255 255 253 224 
192 161 134 111 92 78 67 59 52 47 43 39 36 33 30 0 1 5 9 11 14 16 20 24 29 37 48 63 81 104 130 158 
185 208 224 229 222 8 4 1 0 0 0 1 7 13 20 25 
28 29 28 26 25 23 23 22 22 237 255 255 255 255 241 212 
181 151 125 103 85 71 61 53 47 42 38 35 32 29 26 0 0 3 6 8 11 14 17 21 27 34 45 59 77 99 124 151 
177 200 214 219 211 193 0 0 0 0 0 0 0 0 0 0 
0 0 0 1 4 8 11 13 16 214 239 252 253 242 221 194 
166 139 114 94 77 64 54 47 41 37 33 30 28 25 23 0 0 1 3 6 8 11 14 18 24 31 42 55 72 92 115 140 
164 185 198 202 194 176 0 0 0 0 0 0 0 0 0 0 
0 0 0 0 0 0 2 7 157 187 210 223 224 214 196 173 
148 124 102 84 69 57 48 41 36 32 29 26 24 22 20 0 0 0 2 4 7 9 12 16 21 28 38 50 65 84 105 127 
148 165 177 179 172 155 130 0 0 0 0 0 0 0 0 0 
0 0 0 0 0 0 0 3 131 159 179 191 192 185 170 150 
129 109 90 74 61 51 43 37 32 28 26 23 21 19 17 0 0 0 1 3 5 8 11 14 19 26 34 45 59 75 93 112 
129 144 153 155 148 133 110 82 0 0 0 0 0 0 0 0 
0 0 0 0 0 0 0 78 106 130 148 158 160 155 143 128 
111 94 78 65 54 45 38 33 28 25 23 20 18 17 15 0 0 0 0 2 4 7 9 13 17 23 31 41 52 66 81 96 
110 122 129 129 123 109 90 65 38 0 0 0 0 0 0 0 
0 0 0 0 0 0 35 60 84 104 120 129 131 128 119 107 
94 80 68 57 47 40 34 29 26 23 20 18 16 15 13 0 0 0 0 1 4 6 9 12 16 21 28 36 46 57 69 81 
92 101 106 105 99 87 70 49 26 2 0 0 0 0 0 0 
0 0 0 0 0 1 23 44 64 81 95 103 106 104 98 89 
79 69 59 50 42 36 31 27 23 21 18 16 15 13 12 0 0 0 0 1 3 5 8 11 15 19 25 32 39 48 58 67 
75 82 84 83 77 66 51 33 13 0 0 0 0 0 0 0 
0 0 0 0 0 0 13 31 48 62 73 81 84 84 80 74 
67 59 51 44 38 33 28 25 22 19 17 15 14 12 11 0 0 0 0 1 3 5 8 10 13 17 22 28 34 41 48 55 
61 64 65 63 57 47 34 18 0 0 0 0 0 0 0 0 
0 0 0 0 0 0 0 20 34 46 56 63 67 68 66 62 
57 51 45 40 35 30 26 23 20 18 16 14 13 11 10 0 0 0 0 2 3 5 7 10 13 16 20 24 29 34 39 44 
48 50 49 46 40 31 18 0 0 0 0 0 0 0 0 0 
0 0 0 0 0 0 0 0 23 34 43 49 53 55 54 52 
49 45 41 36 32 29 25 22 20 17 15 14 12 11 9 0 0 0 0 2 3 5 7 9 12 14 18 21 25 28 32 34 
36 37 36 32 26 16 5 0 0 0 0 0 0 0 0 2 
5 0 0 0 0 0 0 0 14 24 32 38 43 45 46 45 
43 40 37 34 31 28 25 22 19 17 15 13 12 10 9 0 0 0 1 2 4 5 7 9 11 13 16 18 21 23 25 26 
27 26 24 20 13 4 0 0 0 0 0 0 0 0 21 44 
47 31 8 0 0 0 0 0 0 15 23 30 34 37 39 39 
39 37 35 32 30 27 24 22 19 17 15 13 11 10 9 0 0 0 1 3 4 5 7 9 10 12 14 15 17 18 19 19 
19 17 14 10 3 0 0 0 0 0 0 0 0 5 60 102 
104 70 27 0 0 0 0 0 0 9 17 23 28 32 34 35 
35 35 33 31 29 26 24 22 19 17 15 13 11 10 8 0 0 0 1 3 4 5 7 8 9 11 12 13 14 14 14 13 
12 10 6 2 0 0 0 0 0 0 0 0 0 0 83 160 
160 96 30 0 0 0 0 0 0 0 12 18 23 27 30 32 
33 33 32 30 28 26 24 21 19 17 15 13 11 10 8 0 0 1 2 3 4 5 6 7 8 9 10 10 10 10 9 8 
6 3 0 0 0 0 0 0 0 0 0 0 0 0 10 121 
141 60 0 0 0 0 0 0 0 0 8 14 20 24 27 29 
31 31 31 29 28 26 24 21 19 17 15 13 11 10 8 0 0 1 2 3 4 5 6 7 7 8 8 8 7 6 5 3 
0 0 0 0 0 0 0 0 0 0 0 0 0 0 0 0 
0 0 0 0 0 0 0 0 0 0 5 11 16 21 24 27 
29 29 29 28 27 25 23 21 19 16 14 13 11 9 8 0 0 1 2 3 4 4 5 6 6 6 6 5 4 3 1 0 
0 0 0 0 0 0 0 0 0 0 0 0 0 0 0 255 
0 0 0 0 0 0 0 0 0 0 3 9 14 18 22 24 
26 27 28 27 26 24 22 20 18 16 14 12 11 9 8 0 1 1 2 3 3 4 4 5 5 5 4 3 1 0 0 0 
0 0 0 0 0 0 0 0 0 0 0 0 0 0 88 167 
0 0 0 0 0 0 0 0 0 4 2 7 12 16 19 22 
24 25 26 25 24 23 21 19 17 15 14 12 10 9 8 0 1 1 2 2 3 3 4 4 3 3 2 0 0 0 0 0 
0 0 0 0 0 0 0 0 0 0 0 0 0 24 71 59 
0 0 0 0 0 0 0 0 3 11 2 6 10 13 16 19 
21 22 23 23 22 21 20 18 16 14 13 11 10 8 7 0 1 1 2 2 2 3 3 2 2 1 0 0 0 0 0 0 
0 0 0 0 0 3 0 0 0 0 0 5 19 40 54 36 
0 0 0 0 0 0 0 2 11 17 2 5 8 11 14 16 
18 20 20 20 20 19 18 16 15 13 12 11 9 8 7 0 1 1 1 2 2 2 2 1 1 0 0 0 0 0 0 0 
0 0 0 0 0 0 7 7 7 9 14 22 33 45 49 37 
14 0 0 0 0 0 5 13 19 0 2 4 6 9 11 13 
15 17 17 18 18 17 16 15 14 12 11 10 8 7 6 0 0 1 1 1 1 1 1 0 0 0 0 0 0 0 0 0 
0 0 0 0 0 0 13 14 16 19 25 32 40 47 48 42 
30 17 9 7 8 12 17 22 26 2 3 4 5 7 9 11 
12 14 14 15 15 15 14 13 12 11 10 9 8 7 6 0 0 1 1 1 1 0 0 0 0 0 0 0 0 0 0 0 
0 0 0 0 0 0 0 18 21 25 30 37 43 48 49 46 
39 32 26 23 23 24 27 30 5 3 3 3 4 5 7 8 
10 11 12 12 12 12 12 11 10 9 9 8 7 6 5 0 0 0 0 0 0 0 0 0 0 0 0 0 0 0 0 0 
0 0 0 0 0 0 0 4 24 28 33 38 43 47 49 47 
44 40 36 34 33 33 34 9 6 5 4 3 3 4 5 6 
7 8 9 10 10 10 10 9 9 8 7 7 6 5 5 0 0 0 0 0 0 0 0 0 0 0 0 0 0 0 0 0 
0 0 0 0 0 0 0 6 12 29 34 38 42 45 47 47 
46 44 41 40 39 38 15 11 8 5 4 3 3 3 3 4 
5 6 7 7 8 8 8 8 7 7 6 6 5 5 4 0 0 0 0 0 0 0 0 0 0 0 0 0 0 0 0 0 
0 0 0 0 0 0 2 7 13 19 26 36 40 43 45 45 
45 44 43 42 26 20 16 12 9 6 4 3 2 2 2 3 
3 4 5 5 6 6 6 6 6 6 5 5 4 4 3 0 0 0 0 0 0 0 0 0 0 0 0 0 0 0 0 0 
0 0 0 0 0 0 3 7 13 18 24 29 34 38 41 42 
43 37 34 29 24 20 16 12 9 6 4 3 2 1 1 2 
2 3 3 4 4 5 5 5 5 4 4 4 4 3 3 0 0 0 0 0 0 0 0 0 0 0 0 0 0 0 0 0 
0 0 0 0 0 0 4 8 12 17 22 26 30 33 35 36 
35 33 30 27 23 19 15 12 9 6 4 2 1 1 1 1 
1 2 2 3 3 3 3 4 4 3 3 3 3 3 2 0 0 0 0 0 0 0 0 0 0 0 0 0 0 0 0 0 
0 0 0 0 0 1 4 8 12 16 20 23 27 29 31 32 
31 30 27 24 21 17 14 11 8 5 4 2 1 0 0 0 
0 1 1 1 2 2 2 3 3 3 3 2 2 2 2 0 0 0 0 0 0 0 0 0 0 0 0 0 0 0 0 0 
0 0 0 0 0 1 4 7 11 14 18 21 23 26 27 28 
27 26 24 21 18 15 12 10 7 5 3 2 1 0 0 0 
0 0 0 1 1 1 1 2 2 2 2 2 2 2 1 0 0 0 0 0 0 0 0 0 0 0 0 0 0 0 0 0 
0 0 0 0 0 2 4 7 10 13 15 18 20 22 23 24 
23 22 20 18 16 13 11 8 6 4 2 1 0 0 0 0 
0 0 0 0 0 1 1 1 1 1 1 1 1 1 1 0 0 0 0 0 0 0 0 0 0 0 0 0 0 0 0 0 
0 0 0 0 0 2 4 6 8 11 13 15 17 19 19 20 
19 18 17 15 13 11 9 7 5 3 2 0 0 0 0 0 
0 0 0 0 0 0 0 0 1 1 1 1 1 1 1 0 0 0 0 0 0 0 0 0 0 0 0 0 0 0 0 0 
0 0 0 0 0 2 3 5 7 9 11 13 14 15 16 16 
16 15 14 12 10 9 7 5 3 2 1 0 0 0 0 0 
0 0 0 0 0 0 0 0 0 0 0 0 0 0 0 0 0 0 0 0 0 0 0 0 0 0 0 0 0 0 0 0 
0 0 0 0 0 1 3 4 6 7 9 10 11 12 12 13 
12 11 10 9 8 6 5 3 2 1 0 0 0 0 0 0 
0 0 0 0 0 0 0 0 0 0 0 0 0 0 0 0 0 0 0 0 0 0 0 0 0 0 0 0 0 0 0 0 
0 0 0 0 0 1 2 3 4 6 7 8 8 9 9 9 
9 8 7 6 5 4 3 2 1 0 0 0 0 0 0 0 
0 0 0 0 0 0 0 0 0 0 0 0 0 0 0 0 0 0 0 0 0 0 0 0 0 0 0 0 0 0 0 0 
0 0 0 0 0 0 1 2 3 4 5 5 6 6 7 7 
6 6 5 4 3 2 1 0 0 0 0 0 0 0 0 0 
0 0 0 0 0 0 0 0 0 0 0 0 0 0 0 0 0 0 0 0 0 0 0 0 0 0 0 0 0 0 0 0 
0 0 0 0 0 0 1 1 2 3 3 4 4 4 4 4 
4 3 3 2 1 1 0 0 0 0 0 0 0 0 0 0 
0 0 0 0 0 0 0 0 0 0 0 0 0 0 0 0 0 0 0 0 0 0 0 0 0 0 0 0 0 0 0 0 
0 0 0 0 0 0 0 0 1 1 2 2 2 2 2 2 
2 1 1 0 0 0 0 0 0 0 0 0 0 0 0 0 
0 0 0 0 0 0 0 0 0 0 0 0 0 0 0 0 0 0 0 0 0 0 0 0 0 0 0 0 0 0 0 0 
0 0 0 0 0 0 0 0 0 0 1 1 1 1 1 1 
0 0 0 0 0 0 0 0 0 0 0 0 0 0 0 0 
0 0 0 0 0 0 0 0 0 0 0 0 0 0 0 0 0 0 0 0 0 0 0 0 0 0 0 0 0 0 0 0 
0 0 0 0 0 0 0 0 0 0 0 0 0 0 0 0 
0 0 0 0 0 0 0 0 0 0 0 0 0 0 0 0 
0 0 0 0 0 0 0 0 0 0 0 0 0 0 0 