P2
# Created by IrfanView
64 64
255
0 0 0 0 0 0 0 0 0 0 0 0 0 0 0 0 0 
0 0 0 0 0 0 0 0 1 2 3 3 4 4 4 5 
5 4 4 3 3 2 1 0 0 0 0 0 0 0 0 0 
0 0 0 0 0 0 0 0 0 0 0 0 0 0 0 0 0 0 0 0 0 0 0 0 0 0 0 0 0 0 0 0 
0 0 0 0 0 0 0 2 3 4 4 5 6 6 6 6 
6 6 6 5 5 4 3 1 0 0 0 0 0 0 0 0 
0 0 0 0 0 0 0 0 0 0 0 0 0 0 0 0 0 0 0 0 0 0 0 0 0 0 0 0 0 0 0 0 
0 0 0 0 0 1 2 3 5 6 6 7 8 8 9 9 
9 9 8 8 7 6 5 4 2 0 0 0 0 0 0 0 
0 0 0 0 0 0 0 0 0 0 0 0 0 0 0 0 0 0 0 0 0 0 0 0 0 0 0 0 0 0 0 0 
0 0 0 0 1 3 4 6 7 8 9 10 10 11 11 11 
12 11 11 11 10 9 8 7 5 3 1 0 0 0 0 0 
0 0 0 0 0 0 0 0 0 0 0 0 0 0 0 0 0 0 0 0 0 0 0 0 0 0 0 0 0 0 0 0 
0 0 0 2 4 6 7 8 10 11 12 13 13 14 15 15 
15 15 15 14 14 13 12 11 9 7 4 1 0 0 0 0 
0 0 0 0 0 0 0 0 0 0 0 0 0 0 0 0 0 0 0 0 0 0 0 0 0 0 0 0 0 0 0 0 
0 1 3 5 7 9 10 12 13 14 15 16 17 18 19 19 
19 19 19 19 18 17 16 15 13 11 9 6 2 0 0 0 
0 0 0 0 0 0 0 0 0 0 0 0 0 0 0 0 0 0 0 0 0 0 0 0 0 0 0 0 0 0 0 0 
2 5 7 9 11 13 14 16 17 18 20 21 22 23 24 24 
24 24 24 24 23 22 22 20 19 17 15 12 8 4 0 0 
0 0 0 0 0 0 0 0 0 0 0 0 0 0 0 0 0 0 0 0 0 0 0 0 0 0 0 0 0 0 1 4 
7 9 11 13 15 17 18 20 22 23 25 26 28 29 30 31 
31 31 31 30 30 29 28 27 25 24 21 19 15 11 7 1 
0 0 0 0 0 0 0 0 0 0 0 0 0 0 0 1 0 0 0 0 0 0 0 0 0 0 0 0 1 4 7 9 
12 14 16 18 20 22 24 25 27 29 31 33 35 37 38 39 
39 39 39 38 37 36 35 34 33 31 29 27 24 20 16 11 
5 0 0 0 0 0 0 0 0 0 0 0 0 0 0 7 5 3 1 0 0 0 0 0 0 1 2 5 7 10 13 15 
18 20 22 24 26 28 30 32 34 36 39 41 44 46 48 49 
50 50 49 48 46 45 44 43 42 40 39 37 34 30 26 21 
16 10 4 0 0 0 0 0 0 0 0 0 0 0 0 12 10 9 7 6 5 4 4 5 6 7 9 11 14 16 19 22 
25 27 29 31 33 35 37 39 42 45 48 52 56 59 62 63 
64 63 61 59 57 56 54 53 52 51 49 48 45 42 38 34 
29 23 17 12 6 1 0 0 0 0 0 0 0 0 0 17 16 14 13 12 11 11 11 11 12 14 16 18 21 23 26 29 
32 35 37 39 41 43 45 47 51 55 60 66 71 83 87 88 
87 84 78 74 71 68 66 64 63 63 62 60 58 55 52 47 
42 37 32 26 22 17 13 10 7 5 3 2 1 1 0 21 20 19 18 18 17 17 17 18 19 20 22 25 28 31 34 37 
41 43 46 48 50 52 54 57 61 67 74 85 95 102 108 110 
109 104 97 88 77 83 80 78 76 76 75 74 72 70 66 62 
57 52 46 41 37 33 29 26 23 20 18 16 14 12 10 24 24 23 23 22 22 22 22 23 24 26 28 31 35 38 42 46 
50 53 55 57 59 61 64 68 74 75 88 101 113 124 131 134 
132 126 117 105 92 79 95 92 91 91 90 90 88 86 82 77 
72 66 61 56 51 47 43 40 37 34 31 28 25 22 19 26 26 26 26 26 26 26 27 28 29 31 34 38 41 46 51 55 
59 63 66 68 70 72 75 80 70 84 100 117 133 146 155 159 
157 150 138 123 107 91 76 108 106 106 107 107 105 103 98 93 
87 80 74 69 63 59 55 52 48 45 41 38 34 30 26 25 26 27 28 28 28 29 30 31 33 36 39 43 48 53 59 65 
70 75 78 80 82 84 87 61 75 92 111 131 151 168 179 184 
182 173 158 140 120 102 84 69 123 123 125 125 124 121 116 109 
102 94 87 80 74 69 64 60 57 53 49 45 40 36 32 0 25 27 28 29 30 31 32 34 36 39 43 48 54 61 68 75 
82 87 91 94 95 96 50 62 78 96 118 142 166 186 200 206 
203 192 175 153 131 109 90 73 59 141 143 144 143 139 133 125 
116 107 98 89 82 76 71 66 62 58 54 49 44 40 35 0 23 25 27 28 30 31 33 35 38 42 46 52 60 68 77 85 
93 100 105 107 108 108 48 60 76 96 120 147 172 194 208 215 
214 203 185 161 136 112 91 74 60 158 161 163 162 158 151 141 
130 118 107 97 88 81 75 70 65 60 56 51 46 42 37 0 19 23 25 27 29 30 32 35 38 43 49 56 65 74 85 96 
105 114 119 122 122 35 44 55 70 90 114 142 167 185 194 199 
202 198 183 160 134 110 89 72 58 173 179 182 181 176 167 155 
142 128 115 103 93 84 77 71 65 60 56 51 46 42 37 0 16 20 22 25 27 29 31 34 38 43 50 59 69 80 93 105 
117 127 133 136 134 30 37 46 59 77 100 125 146 153 147 146 
161 173 167 148 124 101 82 66 53 44 194 199 198 192 182 168 
152 136 120 106 94 85 76 70 64 59 54 50 45 41 37 6 12 16 19 22 24 27 29 33 37 43 51 60 72 85 99 114 
128 139 146 148 145 24 27 34 44 58 78 99 114 107 79 69 
99 132 139 126 106 86 70 57 47 39 205 212 212 205 193 177 
159 140 123 108 94 84 75 67 61 56 51 47 43 39 35 2 8 13 16 19 21 24 27 31 36 42 51 61 74 88 105 121 
136 149 157 158 154 16 17 20 25 35 49 66 78 69 38 24 
58 94 104 95 80 66 54 45 38 33 212 220 221 214 200 183 
163 142 124 107 93 81 72 64 58 53 48 44 40 36 33 0 5 9 13 16 19 21 25 29 34 41 50 61 74 90 108 125 
142 156 164 165 159 9 7 6 6 10 18 30 42 45 35 31 
47 64 67 60 51 43 37 32 29 26 213 222 223 216 202 183 
162 141 121 104 89 77 68 60 54 49 44 40 37 33 30 0 2 6 10 13 16 19 22 26 32 39 48 59 74 90 108 127 
144 158 166 167 160 3 0 0 0 0 0 0 2 12 19 22 
26 29 27 24 22 20 19 19 20 20 207 218 219 212 198 179 
158 137 117 99 85 73 63 55 49 44 40 36 33 30 27 0 0 4 7 10 13 16 20 24 29 36 46 57 72 88 106 125 
142 156 164 165 157 0 0 0 0 0 0 0 0 0 0 0 
0 0 0 0 0 0 4 8 12 176 195 207 209 202 189 170 
150 129 110 93 79 67 58 51 45 40 36 33 30 27 24 0 0 2 5 8 11 14 17 21 27 34 43 54 68 84 102 120 
136 150 157 157 149 0 0 0 0 0 0 0 0 0 0 0 
0 0 0 0 0 0 0 0 6 159 178 190 192 187 174 158 
139 119 101 86 72 61 53 46 40 36 32 29 26 24 22 0 0 0 3 6 9 12 15 19 24 31 40 51 64 79 95 112 
127 139 146 145 137 121 0 0 0 0 0 0 0 0 0 0 
0 0 0 0 0 0 0 0 2 139 158 169 172 168 157 142 
125 108 92 78 65 56 48 41 36 32 29 26 23 21 19 0 0 0 2 5 7 10 13 17 22 29 37 47 59 72 87 102 
115 126 131 131 122 107 85 0 0 0 0 0 0 0 0 0 
0 0 0 0 0 0 0 0 96 119 136 147 150 147 138 125 
111 96 82 69 59 50 43 37 32 29 26 23 21 19 17 0 0 0 1 3 6 9 12 15 20 26 33 42 53 65 78 91 
102 111 115 114 106 92 72 0 0 0 0 0 0 0 0 0 
0 0 0 0 0 0 0 54 79 99 114 124 127 125 118 108 
97 84 72 62 52 45 38 33 29 26 23 21 18 17 15 0 0 0 0 3 5 7 10 14 18 23 30 38 47 57 68 79 
88 95 98 96 89 77 59 37 0 0 0 0 0 0 0 0 
0 0 0 0 0 0 19 42 63 80 94 103 106 105 100 92 
83 73 63 54 47 40 34 30 26 23 21 18 17 15 13 0 0 0 0 2 4 7 9 13 16 21 27 34 41 50 59 67 
75 80 82 79 73 61 46 28 7 0 0 0 0 0 0 0 
0 0 0 0 0 0 12 31 49 64 76 83 87 87 84 78 
71 63 55 48 42 36 31 27 24 21 19 17 15 13 12 0 0 0 0 2 4 6 9 11 15 19 24 29 36 43 50 56 
62 65 66 63 57 47 34 18 0 0 0 0 0 0 0 0 
0 0 0 0 0 0 7 23 37 50 60 67 71 72 70 66 
60 54 48 43 37 33 28 25 22 20 17 15 14 12 11 0 0 0 0 2 4 6 8 11 13 17 21 26 31 36 42 46 
50 52 52 49 43 34 22 8 0 0 0 0 0 0 0 0 
0 0 0 0 0 0 0 16 28 38 47 53 57 59 58 55 
52 47 43 38 34 30 26 23 21 18 16 14 13 11 10 0 0 0 0 2 4 5 7 10 12 15 19 22 26 30 34 37 
40 41 39 36 30 22 11 0 0 0 0 0 0 0 0 6 
7 1 0 0 0 0 0 0 20 29 37 42 46 48 48 47 
45 42 38 35 31 28 25 22 20 17 15 14 12 11 9 0 0 0 0 2 3 5 7 9 11 14 16 19 22 25 28 29 
31 31 29 25 19 11 1 0 0 0 0 0 0 15 39 54 
53 40 19 0 0 0 0 0 13 21 28 34 38 40 41 41 
39 37 35 32 29 26 24 21 19 17 15 13 12 10 9 0 0 0 1 2 3 5 7 8 10 12 14 16 18 20 22 23 
23 22 20 16 10 2 0 0 0 0 0 0 13 57 102 130 
125 95 55 20 0 0 0 0 0 15 21 27 31 33 35 35 
35 34 32 30 28 25 23 20 18 16 14 13 11 10 9 0 0 0 1 2 3 5 6 8 9 11 12 14 15 16 17 17 
16 15 12 8 2 0 0 0 0 0 0 0 35 110 195 248 
233 166 92 36 3 0 0 0 0 10 16 21 25 28 30 31 
32 31 30 28 26 24 22 20 18 16 14 13 11 10 8 0 0 0 1 2 3 5 6 7 8 9 10 11 12 12 12 12 
10 8 5 1 0 0 0 0 0 0 0 0 43 157 255 255 
255 235 111 36 0 0 0 0 0 0 12 17 21 24 27 28 
29 29 28 27 25 23 22 20 18 16 14 12 11 9 8 0 0 0 1 2 3 4 5 6 7 8 9 9 9 9 8 7 
5 3 0 0 0 0 0 0 0 0 0 0 15 147 255 255 
255 235 76 5 0 0 0 0 0 0 8 13 18 21 24 26 
27 27 26 26 24 23 21 19 17 15 14 12 10 9 8 0 0 1 1 2 3 4 5 5 6 6 7 7 6 5 4 3 
1 0 0 0 0 0 0 0 0 0 0 0 0 14 255 255 
255 49 0 0 0 0 0 0 0 0 6 11 15 18 21 23 
24 25 25 24 23 22 20 18 17 15 13 12 10 9 8 0 0 1 1 2 3 4 4 5 5 5 5 4 4 3 1 0 
0 0 0 0 0 0 0 0 0 0 0 0 0 0 0 0 
0 0 0 0 0 0 0 0 0 3 4 9 13 16 19 21 
22 23 23 23 22 21 19 18 16 14 13 11 10 9 7 0 0 1 1 2 3 3 3 4 4 4 3 2 1 0 0 0 
0 0 0 0 0 0 0 0 0 0 0 0 0 0 0 0 
0 0 0 0 0 0 0 0 0 9 3 7 11 14 17 19 
20 21 22 21 21 20 18 17 15 14 12 11 9 8 7 0 0 1 1 2 2 3 3 3 3 2 1 1 0 0 0 0 
0 0 0 0 0 1 0 0 0 0 0 0 0 0 0 0 
0 0 0 0 0 0 0 0 6 15 3 7 10 12 15 17 
18 19 19 19 19 18 17 16 14 13 11 10 9 8 7 0 0 1 1 1 2 2 2 2 1 1 0 0 0 0 0 0 
0 0 0 0 0 0 4 0 0 0 0 0 0 0 0 0 
0 0 0 0 0 0 0 4 15 1 3 6 8 11 13 14 
16 17 17 17 17 16 15 14 13 12 11 9 8 7 6 0 0 1 1 1 1 1 1 1 0 0 0 0 0 0 0 0 
0 0 0 0 0 0 11 9 6 3 0 0 0 0 0 0 
0 0 0 0 0 0 4 15 23 2 4 6 7 9 11 12 
14 14 15 15 15 14 14 13 12 11 10 9 8 7 6 0 0 0 1 1 1 1 1 0 0 0 0 0 0 0 0 0 
0 0 0 0 0 0 17 17 16 15 14 11 7 0 0 0 
0 0 0 0 0 9 18 25 31 4 5 6 7 8 9 10 
11 12 13 13 13 13 12 11 11 10 9 8 7 6 5 0 0 0 0 0 0 0 0 0 0 0 0 0 0 0 0 0 
0 0 0 0 0 0 0 23 24 24 25 25 24 22 17 12 
8 7 8 12 18 24 29 34 7 6 6 6 6 7 7 8 
9 10 11 11 11 11 10 10 9 8 8 7 6 5 5 0 0 0 0 0 0 0 0 0 0 0 0 0 0 0 0 0 
0 0 0 0 0 0 3 7 28 30 32 34 35 35 33 31 
29 28 28 30 32 35 38 11 9 7 6 6 5 6 6 7 
7 8 8 9 9 9 9 8 8 7 7 6 5 5 4 0 0 0 0 0 0 0 0 0 0 0 0 0 0 0 0 0 
0 0 0 0 0 0 5 9 15 34 36 39 41 42 42 42 
41 40 40 40 42 43 17 14 11 8 7 6 5 5 5 5 
6 6 7 7 7 7 7 7 7 6 6 5 5 4 4 0 0 0 0 0 0 0 0 0 0 0 0 0 0 0 0 0 
0 0 0 0 0 2 6 11 16 22 28 40 43 45 46 46 
46 46 46 46 28 23 19 15 12 9 7 5 5 4 4 4 
4 5 5 5 6 6 6 6 5 5 5 4 4 4 3 0 0 0 0 0 0 0 0 0 0 0 0 0 0 0 0 0 
0 0 0 0 0 3 7 11 16 22 27 33 37 41 46 47 
48 41 37 33 28 24 19 15 12 9 7 5 4 3 3 3 
3 3 4 4 4 4 4 4 4 4 4 4 3 3 3 0 0 0 0 0 0 0 0 0 0 0 0 0 0 0 0 0 
0 0 0 0 1 4 8 12 16 21 26 30 35 38 40 41 
40 38 35 31 27 23 19 15 11 9 6 5 3 3 2 2 
2 2 2 3 3 3 3 3 3 3 3 3 3 2 2 0 0 0 0 0 0 0 0 0 0 0 0 0 0 0 0 0 
0 0 0 0 2 4 8 11 15 20 24 28 32 35 36 37 
37 35 32 29 25 21 17 14 11 8 6 4 3 2 1 1 
1 1 1 2 2 2 2 2 2 2 2 2 2 2 2 0 0 0 0 0 0 0 0 0 0 0 0 0 0 0 0 0 
0 0 0 0 2 5 7 11 14 18 22 25 28 31 32 33 
33 31 29 26 22 19 15 12 9 7 5 3 2 1 1 0 
0 1 1 1 1 1 1 2 2 2 2 2 2 1 1 0 0 0 0 0 0 0 0 0 0 0 0 0 0 0 0 0 
0 0 0 0 2 4 7 10 13 16 19 22 25 27 28 29 
28 27 25 22 19 16 13 10 8 6 4 2 1 1 0 0 
0 0 0 0 0 1 1 1 1 1 1 1 1 1 1 0 0 0 0 0 0 0 0 0 0 0 0 0 0 0 0 0 
0 0 0 0 2 4 6 9 11 14 16 19 21 23 24 24 
23 22 21 18 16 13 11 8 6 4 3 1 1 0 0 0 
0 0 0 0 0 0 0 0 1 1 1 1 1 1 1 0 0 0 0 0 0 0 0 0 0 0 0 0 0 0 0 0 
0 0 0 0 2 3 5 7 9 11 14 15 17 18 19 19 
19 18 16 14 12 10 8 6 4 3 2 1 0 0 0 0 
0 0 0 0 0 0 0 0 0 0 0 0 0 0 0 0 0 0 0 0 0 0 0 0 0 0 0 0 0 0 0 0 
0 0 0 0 1 3 4 6 7 9 11 12 13 14 15 15 
14 13 12 11 9 7 6 4 3 1 0 0 0 0 0 0 
0 0 0 0 0 0 0 0 0 0 0 0 0 0 0 0 0 0 0 0 0 0 0 0 0 0 0 0 0 0 0 0 
0 0 0 0 1 2 3 4 6 7 8 9 10 11 11 11 
10 10 9 7 6 5 3 2 1 0 0 0 0 0 0 0 
0 0 0 0 0 0 0 0 0 0 0 0 0 0 0 0 0 0 0 0 0 0 0 0 0 0 0 0 0 0 0 0 
0 0 0 0 0 1 2 3 4 5 6 7 7 7 7 7 
7 6 5 4 3 2 1 0 0 0 0 0 0 0 0 0 
0 0 0 0 0 0 0 0 0 0 0 0 0 0 0 0 0 0 0 0 0 0 0 0 0 0 0 0 0 0 0 0 
0 0 0 0 0 0 1 2 3 3 4 4 5 5 5 4 
4 3 3 2 1 0 0 0 0 0 0 0 0 0 0 0 
0 0 0 0 0 0 0 0 0 0 0 0 0 0 0 0 0 0 0 0 0 0 0 0 0 0 0 0 0 0 0 0 
0 0 0 0 0 0 0 1 1 2 2 2 2 2 2 2 
2 1 1 0 0 0 0 0 0 0 0 0 0 0 0 0 
0 0 0 0 0 0 0 0 0 0 0 0 0 0 0 0 0 0 0 0 0 0 0 0 0 0 0 0 0 0 0 0 
0 0 0 0 0 0 0 0 0 0 1 1 1 1 0 0 
0 0 0 0 0 0 0 0 0 0 0 0 0 0 0 0 
0 0 0 0 0 0 0 0 0 0 0 0 0 0 0 0 0 0 0 0 0 0 0 0 0 0 0 0 0 0 0 0 
0 0 0 0 0 0 0 0 0 0 0 0 0 0 0 0 
0 0 0 0 0 0 0 0 0 0 0 0 0 0 0 0 
0 0 0 0 0 0 0 0 0 0 0 0 0 0 0 