P2
# Created by IrfanView
64 64
255
0 0 0 0 0 0 0 0 0 0 0 0 0 0 0 0 0 
0 0 0 0 0 0 0 1 2 2 3 3 4 4 4 4 
4 4 4 4 3 2 2 0 0 0 0 0 0 0 0 0 
0 0 0 0 0 0 0 0 0 0 0 0 0 0 0 0 0 0 0 0 0 0 0 0 0 0 0 0 0 0 0 0 
0 0 0 0 0 0 1 2 3 4 4 5 5 6 6 6 
6 6 6 5 5 4 3 2 1 0 0 0 0 0 0 0 
0 0 0 0 0 0 0 0 0 0 0 0 0 0 0 0 0 0 0 0 0 0 0 0 0 0 0 0 0 0 0 0 
0 0 0 0 1 2 3 4 5 5 6 7 7 8 8 8 
8 8 8 8 7 6 5 4 3 1 0 0 0 0 0 0 
0 0 0 0 0 0 0 0 0 0 0 0 0 0 0 0 0 0 0 0 0 0 0 0 0 0 0 0 0 0 0 0 
0 0 0 1 2 3 5 6 7 8 8 9 10 10 11 11 
11 11 11 10 10 9 8 7 6 4 2 0 0 0 0 0 
0 0 0 0 0 0 0 0 0 0 0 0 0 0 0 0 0 0 0 0 0 0 0 0 0 0 0 0 0 0 0 0 
0 0 2 3 4 6 7 8 9 10 11 12 12 13 14 14 
14 14 14 13 13 12 11 10 9 7 5 3 1 0 0 0 
0 0 0 0 0 0 0 0 0 0 0 0 0 0 0 0 0 0 0 0 0 0 0 0 0 0 0 0 0 0 0 0 
1 2 4 5 7 8 9 11 12 13 14 15 16 17 17 18 
18 18 18 17 17 16 15 14 13 11 9 7 4 1 0 0 
0 0 0 0 0 0 0 0 0 0 0 0 0 0 0 0 0 0 0 0 0 0 0 0 0 0 0 0 0 0 0 2 
4 5 7 8 10 11 13 14 15 16 18 19 20 21 22 22 
22 22 22 22 21 20 19 18 17 16 14 12 9 6 3 0 
0 0 0 0 0 0 0 0 0 0 0 0 0 0 0 0 0 0 0 0 0 0 0 0 0 0 0 0 0 1 3 5 
7 9 10 12 13 15 16 18 19 20 22 24 25 26 27 28 
28 28 28 27 27 26 25 24 22 21 19 17 15 12 9 5 
1 0 0 0 0 0 0 0 0 0 0 0 0 0 0 0 0 0 0 0 0 0 0 0 0 0 0 2 3 5 7 9 
11 12 14 16 17 19 20 22 24 25 27 29 31 33 34 35 
35 35 35 34 33 32 31 30 28 27 25 23 21 18 15 12 
8 4 0 0 0 0 0 0 0 0 0 0 0 0 0 3 2 1 1 0 0 0 0 1 2 3 4 6 8 9 11 13 
15 17 18 20 21 23 25 27 29 31 34 36 39 41 43 44 
45 44 44 42 41 39 38 37 35 34 32 31 28 26 23 20 
16 12 8 4 0 0 0 0 0 0 0 0 0 0 0 5 5 5 4 4 4 4 4 5 6 7 9 10 12 14 16 18 
20 22 23 25 26 28 30 32 35 38 41 45 49 52 55 56 
57 56 54 52 50 48 46 44 43 42 40 39 37 34 31 28 
25 21 17 13 9 6 2 0 0 0 0 0 0 0 0 7 8 8 8 8 8 8 8 9 10 11 13 15 17 19 21 23 
25 27 28 30 31 33 35 38 41 46 51 62 68 73 77 78 
78 75 70 65 61 58 55 53 52 50 49 47 45 43 41 37 
34 30 26 22 19 15 12 9 7 5 4 3 2 1 1 9 10 10 10 11 11 11 12 13 14 16 17 19 22 24 26 28 
30 32 34 36 37 39 41 45 49 55 64 72 81 87 92 94 
94 90 84 77 68 70 66 63 61 59 58 57 55 53 50 47 
44 40 36 32 28 25 22 19 16 14 12 11 9 8 7 9 11 12 13 13 14 15 16 17 18 20 22 24 26 29 31 34 
36 38 40 42 43 45 47 51 52 61 72 83 93 102 108 111 
110 106 99 89 79 68 77 73 71 69 68 67 65 63 61 57 
54 50 46 42 38 34 31 28 25 22 20 18 16 14 12 8 11 13 14 15 16 17 18 20 21 23 26 28 31 34 37 40 
42 45 46 48 49 51 54 45 54 65 78 91 104 116 124 128 
127 121 112 101 88 76 64 53 80 79 78 77 76 74 71 68 
64 59 55 50 46 42 39 35 32 30 27 24 22 19 17 0 10 13 15 16 18 19 21 22 24 27 29 32 35 39 43 46 
49 51 53 54 55 56 37 45 54 67 81 97 113 127 137 142 
141 135 124 110 95 80 68 56 90 89 88 88 87 85 82 78 
73 68 63 58 54 49 45 42 38 35 32 29 26 24 21 0 9 13 15 17 19 20 22 24 26 29 32 36 40 44 48 52 
55 58 59 60 61 61 34 41 51 63 79 97 115 132 143 149 
149 142 130 114 97 82 68 56 47 98 98 98 97 95 92 88 
82 77 71 65 60 55 51 47 43 39 36 33 30 27 24 0 7 11 14 17 19 21 23 25 28 31 35 39 43 48 53 58 
61 64 66 66 66 25 28 34 43 55 71 89 108 123 132 137 
140 137 127 111 94 78 64 53 44 105 106 107 107 105 102 97 
91 84 77 71 65 59 54 50 46 42 39 35 32 29 26 0 0 10 13 16 19 21 23 26 29 33 37 42 47 52 58 63 
67 70 72 71 69 18 20 23 30 40 54 71 86 90 82 79 
95 110 110 99 83 68 56 47 40 34 113 115 116 114 110 104 
98 90 82 75 68 62 57 52 47 43 40 36 33 30 27 0 3 8 12 15 18 20 23 26 29 33 38 44 50 56 62 68 
73 76 77 76 72 11 9 9 12 18 30 44 51 27 0 0 
0 56 79 76 64 52 43 37 32 29 118 122 123 121 117 111 
103 95 86 78 70 64 58 52 48 44 40 36 33 30 27 0 2 7 11 14 17 19 22 26 29 34 39 45 52 59 66 72 
77 81 81 79 6 2 0 0 0 0 0 11 17 0 0 0 
0 0 43 45 37 31 27 24 23 22 121 126 128 126 122 115 
107 98 88 79 71 64 58 52 47 43 39 35 32 29 26 0 1 5 9 12 15 18 21 25 29 34 39 46 53 60 68 75 
81 84 84 81 0 0 0 0 0 0 0 0 0 0 0 0 
0 0 13 10 6 6 8 10 13 15 120 127 130 129 125 117 
109 99 89 79 71 63 57 51 46 41 38 34 31 28 25 0 0 4 8 11 14 17 20 24 28 33 39 46 53 61 69 77 
83 86 86 82 0 0 0 0 0 0 0 0 0 50 112 83 
51 10 0 0 0 0 0 0 3 8 117 125 129 129 124 117 
108 98 88 78 69 61 55 49 44 39 36 32 29 26 24 0 0 3 6 9 12 15 19 22 27 32 38 45 53 61 69 77 
83 86 86 81 70 0 0 0 0 0 0 0 0 0 75 98 
36 0 0 0 0 0 0 0 0 2 111 121 125 125 121 114 
105 95 85 75 67 59 52 46 41 37 33 30 27 25 22 0 0 2 5 8 11 14 17 21 25 30 36 43 51 60 68 75 
81 84 84 78 67 0 0 0 0 0 0 0 0 0 0 0 
0 0 0 0 0 0 0 0 0 0 103 114 119 119 116 109 
100 91 81 72 63 55 49 43 39 35 31 28 25 23 20 0 0 1 4 7 9 12 16 19 24 29 35 41 49 57 65 72 
78 81 80 74 62 0 0 0 0 0 0 0 0 0 0 0 
0 0 0 0 0 0 0 0 0 77 94 105 110 111 108 102 
94 85 76 67 59 52 45 40 36 32 29 26 23 21 19 0 0 0 3 5 8 11 14 18 22 27 32 39 46 54 61 68 
73 76 74 68 57 40 0 0 0 0 0 0 0 0 0 0 
0 0 0 0 0 0 0 0 0 67 83 94 100 101 99 94 
86 78 70 62 54 48 42 37 33 29 26 23 21 19 17 0 0 0 2 4 7 10 13 16 20 25 30 36 43 50 57 63 
67 69 68 62 52 36 0 0 0 0 0 0 0 0 0 0 
0 0 0 0 0 0 0 0 38 58 73 83 89 90 89 84 
78 71 64 56 50 44 38 34 30 27 24 21 19 17 15 0 0 0 1 4 6 9 11 15 18 23 27 33 39 45 51 56 
60 62 60 55 45 31 13 0 0 0 0 0 0 0 0 0 
0 0 0 0 0 0 0 0 31 49 62 72 77 79 78 75 
70 63 57 51 45 40 35 31 27 24 22 19 17 16 14 0 0 0 1 3 5 8 10 13 17 20 25 30 35 40 46 50 
53 54 52 47 39 26 11 0 0 0 0 0 0 0 0 0 
0 0 0 0 0 0 0 8 26 41 53 61 66 68 68 65 
61 56 51 46 41 36 32 28 25 22 20 18 16 14 13 0 0 0 1 3 5 7 9 12 15 18 22 26 31 36 40 43 
46 46 44 40 32 22 8 0 0 0 0 0 0 0 0 0 
0 0 0 0 0 0 0 7 21 34 44 51 56 58 58 57 
54 50 45 41 37 33 29 26 23 20 18 16 15 13 12 0 0 0 1 2 4 6 8 11 13 16 20 23 27 31 34 37 
39 39 37 33 26 17 6 0 0 0 0 0 0 0 0 0 
0 0 0 0 0 0 0 6 18 28 37 43 47 50 50 49 
47 44 40 36 33 29 26 24 21 19 17 15 13 12 11 0 0 0 0 2 4 6 7 10 12 15 17 20 23 26 29 31 
32 31 29 26 20 12 3 0 0 0 0 0 0 0 0 0 
0 0 0 0 0 0 0 6 15 23 30 36 40 42 43 42 
41 38 36 33 30 27 24 22 20 17 16 14 12 11 10 0 0 0 1 2 3 5 7 9 11 13 15 18 20 22 24 25 
26 25 23 19 14 8 0 0 0 0 0 0 0 16 29 36 
35 27 14 0 0 0 0 6 13 19 25 30 33 35 36 36 
35 34 32 29 27 25 22 20 18 16 15 13 12 10 9 0 0 0 1 2 3 5 6 8 9 11 13 15 17 18 20 20 
20 19 17 14 9 4 0 0 0 0 0 4 29 56 80 92 
89 72 48 25 5 0 0 0 11 16 21 25 28 30 31 32 
31 30 29 27 25 23 21 19 17 15 14 12 11 10 9 0 0 0 1 2 3 4 6 7 8 10 11 13 14 15 16 16 
15 14 12 9 5 0 0 0 0 0 0 25 63 108 148 169 
161 129 89 51 22 3 0 0 9 13 17 21 24 26 27 28 
28 27 26 25 23 21 20 18 16 15 13 12 10 9 8 0 0 0 1 2 3 4 5 6 7 8 9 10 11 12 12 12 
11 10 8 5 1 0 0 0 0 0 8 43 97 166 232 255 
249 193 127 71 33 10 0 0 0 11 14 17 20 22 24 25 
25 25 24 23 22 20 19 17 15 14 13 11 10 9 8 0 0 0 1 2 3 3 4 5 6 7 8 8 9 9 9 9 
8 6 4 1 0 0 0 0 0 0 10 49 116 211 255 255 
255 239 145 76 33 10 0 0 0 8 12 15 17 20 21 22 
22 22 22 21 20 19 18 16 15 13 12 11 10 8 7 0 0 0 1 2 2 3 4 5 5 6 6 7 7 7 6 6 
5 3 1 0 0 0 0 0 0 0 1 34 99 203 255 255 
255 221 117 52 18 2 0 0 0 6 10 13 15 17 19 20 
20 21 20 20 19 18 17 15 14 13 11 10 9 8 7 0 0 0 1 1 2 3 3 4 4 5 5 5 5 5 4 3 
2 1 0 0 0 0 0 0 0 0 0 0 34 102 190 233 
183 94 29 0 0 0 0 0 3 8 8 11 13 15 17 18 
19 19 19 18 18 17 16 15 13 12 11 10 9 8 7 0 0 0 1 1 2 2 3 3 3 4 4 3 3 3 2 1 
0 0 0 0 0 0 0 0 0 0 0 0 0 0 0 0 
0 0 0 0 0 0 0 0 7 14 7 10 12 14 15 16 
17 17 17 17 17 16 15 14 13 12 10 9 8 7 6 0 0 0 1 1 2 2 2 2 3 3 2 2 2 1 0 0 
0 0 0 0 0 6 1 0 0 0 0 0 0 0 0 0 
0 0 0 0 0 0 0 1 12 20 6 9 11 13 14 15 
16 16 16 16 15 15 14 13 12 11 10 9 8 7 6 0 0 0 1 1 1 1 2 2 2 2 1 1 0 0 0 0 
0 0 0 0 0 0 7 1 0 0 0 0 0 0 0 0 
0 0 0 0 0 0 0 7 18 4 7 9 10 11 13 13 
14 14 15 14 14 14 13 12 11 10 9 8 7 7 6 0 0 0 0 1 1 1 1 1 1 1 0 0 0 0 0 0 
0 0 0 0 0 0 14 9 1 0 0 0 0 0 0 0 
0 0 0 0 0 0 1 16 26 5 7 9 10 11 11 12 
13 13 13 13 13 12 12 11 10 9 9 8 7 6 5 0 0 0 0 0 1 1 1 1 0 0 0 0 0 0 0 0 
0 0 0 0 0 0 21 17 12 3 0 0 0 0 0 0 
0 0 0 0 0 0 13 26 34 7 8 9 9 10 10 11 
11 12 12 12 11 11 11 10 9 9 8 7 6 6 5 0 0 0 0 0 0 0 0 0 0 0 0 0 0 0 0 0 
0 0 0 0 0 2 4 26 22 16 8 0 0 0 0 0 
0 0 0 0 0 14 27 36 9 9 9 9 9 9 9 10 
10 10 10 10 10 10 9 9 8 8 7 6 6 5 4 0 0 0 0 0 0 0 0 0 0 0 0 0 0 0 0 0 
0 0 0 0 2 4 7 11 31 28 23 17 8 0 0 0 
0 0 0 9 21 31 39 14 13 11 10 9 9 9 9 9 
9 9 9 9 9 8 8 8 7 7 6 6 5 5 4 0 0 0 0 0 0 0 0 0 0 0 0 0 0 0 0 0 
0 0 0 1 3 7 10 14 19 37 35 33 29 24 20 18 
18 20 25 32 38 44 21 18 15 13 11 10 9 8 8 7 
7 7 7 7 7 7 7 7 6 6 5 5 5 4 4 0 0 0 0 0 0 0 0 0 0 0 0 0 0 0 0 0 
0 0 0 2 5 8 12 17 22 28 44 43 42 41 39 39 
39 41 43 47 51 30 25 21 17 14 12 10 8 7 7 6 
6 6 6 6 6 6 6 6 5 5 5 4 4 3 3 0 0 0 0 0 0 0 0 0 0 0 0 0 0 0 0 0 
0 0 1 3 6 10 14 19 24 30 37 43 50 51 51 51 
52 53 55 44 39 33 28 23 18 15 12 10 8 7 6 5 
5 5 5 5 5 5 5 5 4 4 4 4 3 3 3 0 0 0 0 0 0 0 0 0 0 0 0 0 0 0 0 0 
0 0 2 4 7 11 15 20 25 31 38 44 50 54 58 59 
52 50 52 46 41 34 28 23 18 15 11 9 7 6 5 4 
4 4 4 4 4 4 4 4 4 3 3 3 3 3 2 0 0 0 0 0 0 0 0 0 0 0 0 0 0 0 0 0 
0 0 2 4 7 11 15 20 25 31 37 43 49 54 50 51 
51 50 46 46 40 34 28 22 18 14 11 8 6 5 4 3 
3 3 3 3 3 3 3 3 3 3 3 2 2 2 2 0 0 0 0 0 0 0 0 0 0 0 0 0 0 0 0 0 
0 1 2 5 7 11 15 19 24 30 35 41 46 51 47 49 
48 46 43 38 38 32 26 21 16 12 9 7 5 4 3 2 
2 2 2 2 2 2 2 2 2 2 2 2 2 2 1 0 0 0 0 0 0 0 0 0 0 0 0 0 0 0 0 0 
0 1 3 5 7 10 14 18 22 27 32 37 42 46 43 44 
43 42 38 34 33 28 23 18 14 11 8 6 4 3 2 2 
1 1 1 1 1 1 1 1 1 1 1 1 1 1 1 0 0 0 0 0 0 0 0 0 0 0 0 0 0 0 0 0 
0 1 2 4 7 9 12 16 20 24 29 33 37 40 37 37 
37 35 32 33 28 23 19 15 11 8 6 4 3 2 1 1 
0 0 0 0 0 1 1 1 1 1 1 1 1 1 1 0 0 0 0 0 0 0 0 0 0 0 0 0 0 0 0 0 
0 1 2 4 6 8 11 14 17 21 24 28 31 33 35 30 
30 28 25 26 22 18 15 11 8 6 4 3 1 1 0 0 
0 0 0 0 0 0 0 0 0 0 1 1 1 1 1 0 0 0 0 0 0 0 0 0 0 0 0 0 0 0 0 0 
0 1 2 3 5 7 9 11 14 17 20 22 24 26 27 27 
27 25 22 20 16 13 10 8 5 4 2 1 0 0 0 0 
0 0 0 0 0 0 0 0 0 0 0 0 0 0 0 0 0 0 0 0 0 0 0 0 0 0 0 0 0 0 0 0 
0 0 1 2 4 5 7 9 11 13 15 17 18 20 20 20 
19 18 16 13 11 9 6 4 3 1 0 0 0 0 0 0 
0 0 0 0 0 0 0 0 0 0 0 0 0 0 0 0 0 0 0 0 0 0 0 0 0 0 0 0 0 0 0 0 
0 0 1 2 3 4 5 7 8 10 11 12 13 14 14 13 
13 11 10 8 6 5 3 1 0 0 0 0 0 0 0 0 
0 0 0 0 0 0 0 0 0 0 0 0 0 0 0 0 0 0 0 0 0 0 0 0 0 0 0 0 0 0 0 0 
0 0 0 1 2 3 3 4 5 6 7 8 8 9 9 8 
7 6 5 4 2 1 0 0 0 0 0 0 0 0 0 0 
0 0 0 0 0 0 0 0 0 0 0 0 0 0 0 0 0 0 0 0 0 0 0 0 0 0 0 0 0 0 0 0 
0 0 0 0 1 1 2 3 3 4 4 5 5 5 4 4 
3 2 1 0 0 0 0 0 0 0 0 0 0 0 0 0 
0 0 0 0 0 0 0 0 0 0 0 0 0 0 0 0 0 0 0 0 0 0 0 0 0 0 0 0 0 0 0 0 
0 0 0 0 0 0 1 1 1 2 2 2 2 1 1 0 
0 0 0 0 0 0 0 0 0 0 0 0 0 0 0 0 
0 0 0 0 0 0 0 0 0 0 0 0 0 0 0 0 0 0 0 0 0 0 0 0 0 0 0 0 0 0 0 0 
0 0 0 0 0 0 0 0 0 0 0 0 0 0 0 0 
0 0 0 0 0 0 0 0 0 0 0 0 0 0 0 0 
0 0 0 0 0 0 0 0 0 0 0 0 0 0 0 0 0 0 0 0 0 0 0 0 0 0 0 0 0 0 0 0 
0 0 0 0 0 0 0 0 0 0 0 0 0 0 0 0 
0 0 0 0 0 0 0 0 0 0 0 0 0 0 0 0 
0 0 0 0 0 0 0 0 0 0 0 0 0 0 0 