P2
# Created by IrfanView
64 64
255
0 0 0 0 0 0 0 0 0 0 0 0 0 0 0 0 0 
0 0 0 0 0 0 0 1 2 2 3 3 4 4 4 4 
4 4 4 4 3 2 2 1 0 0 0 0 0 0 0 0 
0 0 0 0 0 0 0 0 0 0 0 0 0 0 0 0 0 0 0 0 0 0 0 0 0 0 0 0 0 0 0 0 
0 0 0 0 0 0 1 2 3 4 4 5 5 5 6 6 
6 6 6 5 5 4 3 2 1 0 0 0 0 0 0 0 
0 0 0 0 0 0 0 0 0 0 0 0 0 0 0 0 0 0 0 0 0 0 0 0 0 0 0 0 0 0 0 0 
0 0 0 0 1 2 3 4 4 5 6 6 7 7 8 8 
8 8 7 7 7 6 5 4 3 2 0 0 0 0 0 0 
0 0 0 0 0 0 0 0 0 0 0 0 0 0 0 0 0 0 0 0 0 0 0 0 0 0 0 0 0 0 0 0 
0 0 0 1 2 3 4 5 6 7 8 8 9 9 10 10 
10 10 10 10 9 8 8 7 6 4 3 1 0 0 0 0 
0 0 0 0 0 0 0 0 0 0 0 0 0 0 0 0 0 0 0 0 0 0 0 0 0 0 0 0 0 0 0 0 
0 1 2 3 4 5 6 7 8 9 10 11 11 12 12 13 
13 13 13 12 12 11 11 10 8 7 5 3 1 0 0 0 
0 0 0 0 0 0 0 0 0 0 0 0 0 0 0 0 0 0 0 0 0 0 0 0 0 0 0 0 0 0 0 0 
1 3 4 5 6 8 9 10 11 12 13 14 14 15 16 16 
16 16 16 16 15 15 14 13 12 10 9 7 5 2 0 0 
0 0 0 0 0 0 0 0 0 0 0 0 0 0 0 0 0 0 0 0 0 0 0 0 0 0 0 0 0 0 1 2 
4 5 6 8 9 10 11 12 14 15 16 17 18 19 20 20 
20 20 20 20 19 19 18 17 16 14 13 11 9 6 4 1 
0 0 0 0 0 0 0 0 0 0 0 0 0 0 0 0 0 0 0 0 0 0 0 0 0 0 0 0 1 2 4 5 
7 8 9 11 12 13 14 16 17 18 20 21 22 23 24 25 
25 25 25 25 24 23 22 21 20 19 17 16 14 11 9 6 
3 0 0 0 0 0 0 0 0 0 0 0 0 0 0 0 0 0 0 0 0 0 0 0 0 0 1 2 4 5 7 8 
10 11 12 14 15 16 18 19 21 22 24 26 28 29 30 31 
32 32 31 30 30 29 28 27 25 24 23 21 19 17 14 11 
8 5 2 0 0 0 0 0 0 0 0 0 0 0 0 1 1 1 1 0 0 1 1 1 2 3 4 6 7 9 10 12 
13 15 16 17 18 20 21 23 25 27 29 32 34 36 38 39 
39 39 39 37 36 35 34 32 31 30 29 27 25 23 21 18 
15 12 8 5 2 0 0 0 0 0 0 0 0 0 0 3 3 3 3 3 3 4 4 5 6 7 8 9 11 12 14 16 
17 18 20 21 22 24 25 27 29 32 35 39 42 45 48 49 
50 49 48 46 44 42 40 39 38 36 35 34 32 30 28 25 
22 19 16 13 9 7 4 2 0 0 0 0 0 0 0 4 5 5 5 6 6 7 7 8 9 10 12 13 15 16 18 20 
21 23 24 25 26 28 29 32 35 38 43 54 60 64 67 69 
68 66 62 56 53 50 48 46 44 43 42 41 39 37 35 33 
30 27 24 20 17 14 12 9 7 5 4 3 2 1 1 5 6 7 8 8 9 9 10 11 12 14 15 17 19 20 22 24 
26 27 28 29 30 32 34 36 40 48 55 62 69 75 79 81 
80 78 73 67 60 59 56 54 52 51 50 48 47 45 43 41 
38 35 31 28 25 22 19 17 14 12 11 9 8 7 6 5 6 8 9 10 11 12 13 14 15 17 19 20 22 24 26 28 
30 31 33 34 35 36 38 41 43 51 59 68 77 84 89 92 
92 89 83 76 67 59 51 61 59 58 57 56 55 54 51 49 
46 43 39 36 32 29 26 24 21 19 17 15 13 12 10 3 6 8 10 12 13 14 15 17 18 20 22 24 26 29 31 33 
35 36 37 38 39 39 41 37 43 52 61 72 82 91 98 102 
102 98 91 82 73 63 54 46 66 65 65 64 63 62 60 57 
54 50 47 43 39 36 33 30 27 25 22 20 18 16 14 0 5 8 11 12 14 15 17 19 20 22 25 27 30 33 35 37 
39 41 42 42 42 42 29 34 40 49 59 71 83 95 103 108 
108 104 96 86 75 64 55 47 73 72 72 72 71 70 68 65 
61 58 54 49 46 42 38 35 32 29 27 24 22 19 17 0 4 8 11 13 15 17 18 20 22 25 27 30 33 36 39 42 
44 45 46 46 45 44 24 28 33 41 52 64 78 91 100 106 
107 102 94 84 72 62 52 45 38 78 78 79 79 78 75 72 
69 64 60 55 51 47 43 39 36 33 30 27 25 22 20 0 3 7 10 13 15 17 19 21 24 26 29 33 36 40 43 46 
48 49 50 49 47 16 16 18 21 28 37 49 63 75 83 88 
91 90 84 74 63 54 46 39 34 82 84 85 85 85 82 79 
75 70 65 60 55 50 46 42 39 35 32 29 27 24 22 0 0 6 10 12 15 17 20 22 25 28 31 35 39 43 47 50 
52 53 53 51 48 9 6 5 5 8 15 26 37 44 42 42 
53 62 62 56 47 40 35 31 28 26 87 90 91 91 88 85 
80 75 69 63 58 53 48 44 41 37 34 31 28 25 22 0 0 5 9 12 14 17 19 22 25 29 32 37 41 45 50 53 
56 57 56 53 47 0 0 0 0 0 0 0 8 8 0 0 
0 23 32 28 24 21 19 19 19 20 89 93 95 95 93 89 
84 78 72 66 60 55 50 45 41 38 34 31 28 25 23 0 0 4 8 11 14 16 19 22 25 29 33 38 42 47 52 56 
58 59 58 53 0 0 0 0 0 0 0 0 0 18 0 0 
0 3 2 0 0 0 1 5 9 13 89 95 98 98 96 92 
87 81 74 67 61 55 50 45 41 37 34 31 28 25 23 0 0 3 7 10 13 15 18 21 25 29 33 38 43 49 54 58 
60 61 59 53 0 0 0 0 0 0 0 0 0 128 255 232 
157 35 0 0 0 0 0 0 0 5 86 94 98 99 98 94 
88 81 74 67 61 55 49 44 40 36 33 30 27 24 22 0 0 2 6 9 12 14 17 21 24 28 33 38 44 49 54 58 
61 61 59 52 0 0 0 0 0 0 0 0 0 150 255 255 
255 38 0 0 0 0 0 0 0 0 82 92 97 99 97 93 
87 81 73 66 60 54 48 43 39 35 32 29 26 23 21 0 0 1 5 8 11 13 16 20 23 28 32 38 43 49 54 58 
61 61 58 50 38 0 0 0 0 0 0 0 0 0 168 225 
88 0 0 0 0 0 0 0 0 0 77 87 93 96 94 91 
85 78 71 64 58 52 46 41 37 33 30 27 25 22 20 0 0 1 4 7 9 12 15 18 22 26 31 36 42 48 53 57 
59 59 56 48 35 0 0 0 0 0 0 0 0 0 0 0 
0 0 0 0 0 0 0 0 0 0 71 82 88 91 90 87 
82 75 68 61 55 49 44 39 35 31 28 25 23 21 18 0 0 0 3 6 8 11 14 17 21 25 30 35 40 46 51 55 
57 57 53 45 32 0 0 0 0 0 0 0 0 0 0 0 
0 0 0 0 0 0 0 0 0 47 64 75 82 85 84 81 
77 71 64 58 52 46 41 37 33 29 26 24 21 19 17 0 0 0 2 5 7 10 13 16 19 23 28 33 38 43 48 51 
54 53 49 42 29 11 0 0 0 0 0 0 0 0 0 0 
0 0 0 0 0 0 0 0 0 40 56 67 74 78 78 75 
71 65 60 54 48 43 38 34 30 27 24 22 20 18 16 0 0 0 2 4 6 9 12 15 18 22 26 30 35 40 44 48 
49 49 45 38 26 10 0 0 0 0 0 0 0 0 0 0 
0 0 0 0 0 0 0 0 15 35 49 60 66 70 70 68 
64 60 55 49 44 39 35 31 28 25 22 20 18 16 14 0 0 0 1 3 6 8 11 13 16 20 24 28 32 36 40 43 
44 44 40 34 24 9 0 0 0 0 0 0 0 0 0 0 
0 0 0 0 0 0 0 0 12 29 43 52 58 62 62 61 
58 54 49 45 40 36 32 29 26 23 21 18 17 15 13 0 0 0 1 3 5 7 9 12 15 18 22 25 29 33 36 38 
39 39 35 29 20 8 0 0 0 0 0 0 0 0 0 0 
0 0 0 0 0 0 0 0 11 25 37 45 51 54 55 54 
51 48 44 40 37 33 29 26 24 21 19 17 15 14 12 0 0 0 1 3 4 6 9 11 13 16 19 23 26 29 32 33 
34 33 30 25 17 7 0 0 0 0 0 0 0 0 0 0 
0 0 0 0 0 0 0 0 9 21 31 39 44 47 48 47 
45 43 40 36 33 30 27 24 22 19 17 16 14 12 11 0 0 0 1 2 4 6 8 10 12 14 17 20 23 25 27 29 
29 28 25 21 14 5 0 0 0 0 0 0 0 0 0 0 
0 0 0 0 0 0 0 0 9 19 27 33 37 40 41 41 
40 38 35 33 30 27 25 22 20 18 16 14 13 11 10 0 0 0 1 2 4 5 7 9 11 13 15 17 20 22 23 24 
24 23 21 17 11 4 0 0 0 0 0 0 0 0 0 0 
0 0 0 0 0 0 0 1 9 16 23 28 32 35 36 36 
35 34 32 29 27 25 23 20 18 17 15 13 12 11 9 0 0 0 1 2 3 5 6 8 9 11 13 15 17 18 19 20 
20 19 16 13 8 2 0 0 0 0 0 0 2 16 27 33 
32 24 13 0 0 0 0 4 9 15 20 24 27 30 31 31 
31 30 28 27 25 23 21 19 17 15 14 13 11 10 9 0 0 0 1 2 3 4 6 7 8 10 11 13 14 15 16 16 
16 15 12 9 5 1 0 0 0 0 0 9 30 52 71 80 
78 64 44 24 7 0 0 6 9 13 17 21 24 26 27 28 
27 27 26 24 23 21 19 18 16 14 13 12 11 9 8 0 0 0 1 2 3 4 5 6 7 9 10 11 12 13 13 13 
12 11 9 6 3 0 0 0 0 0 5 29 60 95 125 139 
133 110 78 48 23 6 0 0 9 12 15 18 20 22 24 24 
24 24 23 22 21 19 18 16 15 14 12 11 10 9 8 0 0 0 1 1 2 3 4 5 6 7 8 9 10 10 10 10 
9 8 6 4 1 0 0 0 0 0 16 45 87 137 181 202 
190 154 107 66 35 14 2 0 0 11 13 16 18 20 21 22 
22 22 21 20 19 18 17 16 14 13 12 11 9 8 7 0 0 0 1 1 2 3 4 5 5 6 7 7 8 8 8 7 
6 5 4 1 0 0 0 0 0 0 19 52 101 163 220 248 
230 178 119 70 37 16 6 1 0 9 12 14 16 17 19 19 
20 20 20 19 18 17 16 15 13 12 11 10 9 8 7 0 0 0 1 1 2 3 3 4 5 5 5 6 6 6 6 5 
4 3 2 0 0 0 0 0 0 0 14 42 87 149 209 237 
214 157 97 53 26 12 6 4 5 8 10 12 14 16 17 18 
18 18 18 18 17 16 15 14 13 12 11 9 8 8 7 0 0 0 1 1 2 2 3 3 4 4 4 4 4 4 4 3 
2 1 0 0 0 0 0 0 0 0 1 15 42 80 120 136 
115 74 37 15 5 2 3 6 10 7 9 11 13 14 15 16 
17 17 17 16 16 15 14 13 12 11 10 9 8 7 6 0 0 0 1 1 1 2 2 3 3 3 3 3 3 3 2 2 
1 0 0 0 0 0 2 0 0 0 0 0 0 0 0 0 
0 0 0 0 0 0 0 8 14 6 8 10 12 13 14 15 
15 15 15 15 15 14 13 12 11 10 9 9 8 7 6 0 0 0 0 1 1 2 2 2 2 2 2 2 2 1 1 1 
0 0 0 0 0 0 7 2 0 0 0 0 0 0 0 0 
0 0 0 0 0 0 0 11 19 6 8 10 11 12 13 14 
14 14 14 14 14 13 12 11 11 10 9 8 7 6 6 0 0 0 0 1 1 1 1 1 1 1 1 1 1 0 0 0 
0 0 0 0 0 0 13 8 1 0 0 0 0 0 0 0 
0 0 0 0 0 0 3 16 26 7 8 10 11 11 12 12 
13 13 13 13 12 12 11 11 10 9 8 7 7 6 5 0 0 0 0 0 1 1 1 1 1 1 1 0 0 0 0 0 
0 0 0 0 0 0 20 16 9 0 0 0 0 0 0 0 
0 0 0 0 0 0 11 24 33 8 9 10 10 11 11 11 
12 12 12 12 11 11 10 10 9 8 8 7 6 5 5 0 0 0 0 0 0 0 0 0 0 0 0 0 0 0 0 0 
0 0 0 0 1 3 4 24 18 10 0 0 0 0 0 0 
0 0 0 0 0 8 23 33 10 10 10 10 10 10 10 10 
11 11 11 10 10 10 9 9 8 8 7 6 6 5 4 0 0 0 0 0 0 0 0 0 0 0 0 0 0 0 0 0 
0 0 0 2 3 5 8 31 28 22 14 2 0 0 0 0 
0 0 0 0 9 24 35 43 13 12 11 11 10 10 10 9 
9 9 9 9 9 9 8 8 7 7 6 6 5 5 4 0 0 0 0 0 0 0 0 0 0 0 0 0 0 0 0 0 
0 0 1 3 5 8 11 15 36 33 28 22 13 4 0 0 
0 0 7 18 29 39 46 18 16 14 13 11 10 9 9 9 
8 8 8 8 8 8 7 7 6 6 6 5 5 4 4 0 0 0 0 0 0 0 0 0 0 0 0 0 0 0 0 0 
0 1 2 4 7 10 14 18 23 42 40 37 33 29 25 23 
23 27 32 39 45 51 27 23 19 16 14 12 10 9 8 8 
7 7 7 7 7 6 6 6 6 5 5 4 4 4 3 0 0 0 0 0 0 0 0 0 0 0 0 0 0 0 0 0 
0 1 3 5 8 12 16 21 27 33 40 48 47 45 44 44 
44 46 50 54 43 37 31 26 21 17 14 12 10 8 7 7 
6 6 6 6 6 5 5 5 5 4 4 4 3 3 3 0 0 0 0 0 0 0 0 0 0 0 0 0 0 0 0 0 
0 2 4 6 9 13 18 23 30 36 44 51 57 56 56 57 
58 65 61 55 48 41 34 28 22 18 14 11 9 8 7 6 
5 5 5 5 5 4 4 4 4 4 3 3 3 3 2 0 0 0 0 0 0 0 0 0 0 0 0 0 0 0 0 0 
1 2 4 7 10 14 19 24 31 38 45 53 56 62 67 69 
69 67 62 56 48 42 35 28 22 17 14 11 8 7 6 5 
4 4 4 4 4 3 3 3 3 3 3 3 2 2 2 0 0 0 0 0 0 0 0 0 0 0 0 0 0 0 0 0 
1 2 5 7 10 14 19 24 31 38 45 53 55 62 66 68 
68 65 61 54 47 39 34 27 21 16 13 10 7 6 5 4 
3 3 3 3 3 3 3 3 2 2 2 2 2 2 2 0 0 0 0 0 0 0 0 0 0 0 0 0 0 0 0 0 
1 3 5 7 10 14 18 23 29 36 43 46 52 58 62 64 
63 61 56 50 43 35 31 25 19 14 11 8 6 5 3 3 
2 2 2 2 2 2 2 2 2 2 2 2 2 1 1 0 0 0 0 0 0 0 0 0 0 0 0 0 0 0 0 0 
1 3 4 7 9 13 17 22 27 33 39 41 47 52 56 57 
56 54 49 44 37 30 27 21 16 12 9 6 5 3 2 2 
1 1 1 1 1 1 1 1 1 1 1 1 1 1 1 0 0 0 0 0 0 0 0 0 0 0 0 0 0 0 0 0 
1 2 4 6 9 12 15 19 24 29 34 40 41 45 47 48 
47 45 41 36 30 24 22 17 13 9 7 4 3 2 1 1 
0 0 0 0 0 0 1 1 1 1 1 1 1 1 1 0 0 0 0 0 0 0 0 0 0 0 0 0 0 0 0 0 
1 2 3 5 7 10 13 16 20 24 29 33 33 36 38 38 
37 35 32 27 23 18 16 12 9 6 4 3 1 1 0 0 
0 0 0 0 0 0 0 0 0 0 0 0 0 0 0 0 0 0 0 0 0 0 0 0 0 0 0 0 0 0 0 0 
1 2 3 4 6 8 11 13 16 20 23 26 25 27 28 28 
27 25 22 19 15 14 11 8 5 3 2 1 0 0 0 0 
0 0 0 0 0 0 0 0 0 0 0 0 0 0 0 0 0 0 0 0 0 0 0 0 0 0 0 0 0 0 0 0 
0 1 2 3 5 6 8 10 13 15 17 19 21 19 19 19 
18 16 14 11 11 8 6 4 2 1 0 0 0 0 0 0 
0 0 0 0 0 0 0 0 0 0 0 0 0 0 0 0 0 0 0 0 0 0 0 0 0 0 0 0 0 0 0 0 
0 1 1 2 3 5 6 7 9 11 12 13 14 15 15 14 
10 9 9 7 5 3 2 0 0 0 0 0 0 0 0 0 
0 0 0 0 0 0 0 0 0 0 0 0 0 0 0 0 0 0 0 0 0 0 0 0 0 0 0 0 0 0 0 0 
0 0 1 1 2 3 4 5 6 7 8 8 9 9 8 7 
6 5 3 2 1 0 0 0 0 0 0 0 0 0 0 0 
0 0 0 0 0 0 0 0 0 0 0 0 0 0 0 0 0 0 0 0 0 0 0 0 0 0 0 0 0 0 0 0 
0 0 0 0 1 1 2 3 3 4 4 4 4 4 3 2 
1 0 0 0 0 0 0 0 0 0 0 0 0 0 0 0 
0 0 0 0 0 0 0 0 0 0 0 0 0 0 0 0 0 0 0 0 0 0 0 0 0 0 0 0 0 0 0 0 
0 0 0 0 0 0 1 1 1 1 1 1 1 0 0 0 
0 0 0 0 0 0 0 0 0 0 0 0 0 0 0 0 
0 0 0 0 0 0 0 0 0 0 0 0 0 0 0 0 0 0 0 0 0 0 0 0 0 0 0 0 0 0 0 0 
0 0 0 0 0 0 0 0 0 0 0 0 0 0 0 0 
0 0 0 0 0 0 0 0 0 0 0 0 0 0 0 0 
0 0 0 0 0 0 0 0 0 0 0 0 0 0 0 0 0 0 0 0 0 0 0 0 0 0 0 0 0 0 0 0 
0 0 0 0 0 0 0 0 0 0 0 0 0 0 0 0 
0 0 0 0 0 0 0 0 0 0 0 0 0 0 0 0 
0 0 0 0 0 0 0 0 0 0 0 0 0 0 0 