P2
# Created by IrfanView
64 64
255
0 0 0 0 0 0 0 0 0 0 0 0 0 0 0 0 0 
0 0 0 0 0 0 0 1 2 2 3 3 3 4 4 4 
4 4 4 3 3 2 2 1 0 0 0 0 0 0 0 0 
0 0 0 0 0 0 0 0 0 0 0 0 0 0 0 0 0 0 0 0 0 0 0 0 0 0 0 0 0 0 0 0 
0 0 0 0 0 1 1 2 3 3 4 4 5 5 5 5 
5 5 5 5 4 4 3 2 1 0 0 0 0 0 0 0 
0 0 0 0 0 0 0 0 0 0 0 0 0 0 0 0 0 0 0 0 0 0 0 0 0 0 0 0 0 0 0 0 
0 0 0 0 1 2 3 3 4 5 5 6 6 7 7 7 
7 7 7 7 6 6 5 4 3 2 1 0 0 0 0 0 
0 0 0 0 0 0 0 0 0 0 0 0 0 0 0 0 0 0 0 0 0 0 0 0 0 0 0 0 0 0 0 0 
0 0 0 1 2 3 4 5 6 6 7 7 8 8 9 9 
9 9 9 9 8 8 7 6 5 4 3 1 0 0 0 0 
0 0 0 0 0 0 0 0 0 0 0 0 0 0 0 0 0 0 0 0 0 0 0 0 0 0 0 0 0 0 0 0 
0 1 2 3 4 5 6 7 7 8 9 9 10 11 11 11 
11 11 11 11 11 10 9 9 8 7 5 4 2 0 0 0 
0 0 0 0 0 0 0 0 0 0 0 0 0 0 0 0 0 0 0 0 0 0 0 0 0 0 0 0 0 0 0 0 
1 3 4 5 6 7 8 8 9 10 11 12 13 13 14 14 
14 14 14 14 14 13 12 12 11 9 8 7 5 3 1 0 
0 0 0 0 0 0 0 0 0 0 0 0 0 0 0 0 0 0 0 0 0 0 0 0 0 0 0 0 0 0 1 2 
3 5 6 7 8 9 10 11 12 13 14 15 16 16 17 17 
18 18 18 17 17 16 16 15 14 13 12 10 8 6 4 2 
0 0 0 0 0 0 0 0 0 0 0 0 0 0 0 0 0 0 0 0 0 0 0 0 0 0 0 0 1 2 3 5 
6 7 8 9 10 11 12 13 14 15 17 18 19 20 21 22 
22 22 22 21 21 20 20 19 18 17 15 14 12 11 8 6 
3 1 0 0 0 0 0 0 0 0 0 0 0 0 0 0 0 0 0 0 0 0 0 0 0 1 1 3 4 5 6 7 
8 10 11 12 13 14 15 16 17 19 20 22 23 25 26 26 
27 27 27 26 26 25 24 23 22 21 20 19 17 15 13 11 
8 6 3 0 0 0 0 0 0 0 0 0 0 0 0 0 0 0 0 0 0 1 1 2 2 3 4 5 7 8 9 10 
11 12 13 14 15 16 18 19 20 22 24 26 28 30 31 32 
33 33 32 32 31 30 29 28 27 26 25 24 22 20 18 16 
14 11 9 6 3 1 0 0 0 0 0 0 0 0 0 1 2 2 2 2 3 3 4 4 5 6 7 8 9 11 12 13 
14 15 16 17 18 19 20 22 24 26 28 31 34 37 39 40 
41 40 39 38 37 35 34 33 32 31 30 29 28 26 24 22 
20 17 14 12 9 7 5 3 1 0 0 0 0 0 0 2 3 3 4 4 5 5 6 7 8 9 10 11 13 14 15 16 
18 19 19 20 21 22 23 25 27 30 33 37 50 54 56 58 
58 56 53 46 43 41 40 38 37 36 35 35 33 32 30 28 
26 23 21 18 16 13 11 9 7 5 4 3 2 1 1 2 3 4 5 6 7 8 8 9 10 12 13 14 16 17 18 20 
21 22 23 23 24 25 26 28 30 34 45 50 55 60 63 65 
65 63 60 56 51 48 45 44 43 42 41 40 39 38 37 35 
32 30 27 24 22 19 17 15 13 11 9 8 7 6 5 1 3 5 6 7 9 10 11 12 13 14 16 17 19 20 22 23 
24 25 26 26 26 27 28 30 35 40 45 52 58 64 68 71 
71 69 65 60 54 48 51 49 48 47 47 46 46 45 43 41 
39 36 33 31 28 25 23 20 18 16 14 13 11 10 9 0 3 5 7 9 10 11 12 14 15 17 18 20 22 24 25 27 
28 28 29 29 28 28 29 28 32 37 43 50 57 64 70 73 
73 71 67 62 55 49 43 54 52 52 52 52 52 51 49 47 
45 42 39 36 33 31 28 25 23 21 19 17 15 13 12 0 2 5 7 9 11 12 14 15 17 19 21 23 25 27 28 30 
31 31 31 31 30 29 21 23 26 30 36 43 51 59 66 70 
71 69 65 59 53 47 41 36 56 56 57 57 57 57 56 54 
51 48 45 42 39 35 32 30 27 25 22 20 18 16 14 0 1 5 7 10 12 13 15 17 19 21 23 25 27 29 31 33 
34 34 34 32 30 28 14 14 15 18 23 29 38 46 54 58 
60 59 56 50 45 40 36 32 29 59 61 62 63 62 61 59 
57 53 50 46 43 39 36 33 30 28 25 23 21 19 17 0 0 4 7 10 12 14 16 18 20 22 25 27 30 32 34 36 
37 37 36 33 30 8 5 2 0 0 3 8 16 24 32 37 
40 40 38 34 31 28 26 25 24 60 63 66 67 67 66 64 
61 58 54 50 46 43 39 36 33 30 27 25 22 20 18 0 0 3 7 9 12 14 16 18 21 23 26 29 32 34 37 38 
39 39 37 34 28 0 0 0 0 0 0 0 0 0 5 9 
12 13 12 10 10 11 12 14 16 18 64 68 70 71 70 68 
65 62 58 53 49 45 41 38 35 31 29 26 24 21 19 0 0 2 6 9 11 14 16 19 21 24 27 30 33 36 39 40 
41 40 38 33 26 0 0 0 0 0 0 0 0 0 6 10 
1 0 0 0 0 0 0 1 6 11 64 69 73 74 73 71 
68 64 60 55 51 47 43 39 35 32 29 27 24 22 20 0 0 2 5 8 11 13 16 19 21 24 28 31 34 37 40 42 
43 41 38 32 0 0 0 0 0 0 0 0 0 27 136 162 
75 0 0 0 0 0 0 0 0 3 62 69 74 75 75 73 
70 66 61 56 52 47 43 39 36 32 29 27 24 22 20 0 0 1 5 8 10 13 16 18 21 24 28 31 35 38 41 43 
43 42 38 30 0 0 0 0 0 0 0 0 0 110 255 255 
247 16 0 0 0 0 0 0 0 0 59 67 73 76 76 74 
71 67 62 57 52 47 43 39 35 32 29 26 24 21 19 0 0 1 4 7 10 12 15 18 21 24 28 31 35 39 41 43 
44 42 37 29 0 0 0 0 0 0 0 0 0 74 255 255 
227 0 0 0 0 0 0 0 0 0 54 65 71 74 75 73 
70 66 61 56 51 46 42 38 34 31 28 25 23 21 19 0 0 0 3 6 9 11 14 17 20 23 27 31 35 38 41 43 
43 41 36 27 12 0 0 0 0 0 0 0 0 0 61 109 
3 0 0 0 0 0 0 0 0 0 50 61 68 72 73 71 
68 64 59 54 49 45 40 36 33 30 27 24 22 20 18 0 0 0 3 5 8 11 13 16 19 22 26 30 34 37 40 42 
42 40 34 25 10 0 0 0 0 0 0 0 0 0 0 0 
0 0 0 0 0 0 0 0 0 0 44 56 64 68 69 68 
65 62 57 52 47 43 39 35 31 28 25 23 21 19 17 0 0 0 2 5 7 10 12 15 18 21 25 29 32 36 38 40 
40 38 32 23 9 0 0 0 0 0 0 0 0 0 0 0 
0 0 0 0 0 0 0 0 0 22 39 51 59 64 65 64 
62 58 54 49 45 40 36 33 29 26 24 22 19 17 16 0 0 0 2 4 6 9 11 14 17 20 23 27 30 34 36 38 
38 35 30 21 7 0 0 0 0 0 0 0 0 0 0 0 
0 0 0 0 0 0 0 0 0 18 35 46 54 58 60 59 
57 54 50 46 42 38 34 31 27 25 22 20 18 16 14 0 0 0 1 4 6 8 10 13 16 19 22 25 28 31 34 35 
35 32 27 19 7 0 0 0 0 0 0 0 0 0 0 0 
0 0 0 0 0 0 0 0 0 16 30 41 48 53 54 54 
52 50 46 42 39 35 31 28 26 23 21 19 17 15 13 0 0 0 1 3 5 7 9 12 14 17 20 23 26 29 31 32 
31 29 25 17 6 0 0 0 0 0 0 0 0 0 0 0 
0 0 0 0 0 0 0 0 0 13 26 36 43 47 49 49 
48 45 42 39 35 32 29 26 24 21 19 17 15 14 12 0 0 0 1 3 5 6 9 11 13 16 18 21 24 26 28 28 
28 26 22 15 6 0 0 0 0 0 0 0 0 0 0 0 
0 0 0 0 0 0 0 0 0 12 23 32 38 42 43 44 
43 41 38 35 32 29 27 24 22 20 18 16 14 13 11 0 0 0 1 2 4 6 8 10 12 14 16 19 21 23 24 25 
24 23 19 13 5 0 0 0 0 0 0 0 0 0 0 0 
0 0 0 0 0 0 0 0 0 11 20 28 33 36 38 39 
38 36 34 32 29 27 24 22 20 18 16 15 13 12 11 0 0 0 1 2 4 5 7 9 11 13 15 17 18 20 21 22 
21 19 16 11 4 0 0 0 0 0 0 0 0 0 0 0 
0 0 0 0 0 0 0 0 1 10 18 24 29 32 34 34 
34 33 31 29 27 25 22 20 18 17 15 14 12 11 10 0 0 0 1 2 3 5 6 8 9 11 13 14 16 17 18 18 
18 16 13 9 4 0 0 0 0 0 0 0 0 0 0 0 
0 0 0 0 0 0 0 0 3 10 16 21 25 28 29 30 
30 29 28 26 24 22 21 19 17 16 14 13 11 10 9 0 0 0 0 2 3 4 5 7 8 10 11 13 14 15 15 15 
15 13 11 7 3 0 0 0 0 0 0 0 0 9 18 23 
22 16 6 0 0 0 0 0 5 10 15 19 22 24 26 27 
27 26 25 24 22 21 19 17 16 14 13 12 11 9 8 0 0 0 0 1 3 4 5 6 7 8 10 11 12 12 13 13 
12 10 8 5 2 0 0 0 0 0 0 6 23 40 54 60 
58 48 33 18 4 0 0 4 7 10 14 17 20 22 23 24 
24 23 23 22 20 19 18 16 15 13 12 11 10 9 8 0 0 0 0 1 2 3 4 5 6 7 8 9 10 10 10 10 
9 8 6 4 1 0 0 0 0 0 6 24 48 72 92 102 
98 82 60 38 19 5 0 8 8 10 13 15 17 19 20 21 
21 21 21 20 19 18 16 15 14 13 11 10 9 8 7 0 0 0 0 1 2 3 4 5 5 6 7 8 8 8 8 8 
7 6 4 2 0 0 0 0 0 1 16 39 69 101 128 141 
134 112 82 54 31 14 4 0 9 10 12 14 16 17 18 19 
19 19 19 18 17 16 15 14 13 12 11 10 9 8 7 0 0 0 0 1 2 3 3 4 5 5 6 6 6 7 6 6 
5 4 3 1 0 0 0 0 0 6 21 46 78 116 148 162 
153 125 90 58 34 19 10 5 10 10 11 13 14 16 17 17 
18 18 17 17 16 15 14 13 12 11 10 9 8 7 7 0 0 0 0 1 2 2 3 3 4 4 5 5 5 5 5 4 
4 3 2 0 0 0 0 0 0 7 19 40 69 104 134 148 
137 109 76 48 29 18 12 10 10 10 11 12 13 14 15 16 
16 16 16 16 15 14 13 12 12 11 10 9 8 7 6 0 0 0 0 1 1 2 2 3 3 3 4 4 4 4 3 3 
3 2 1 0 0 0 3 2 2 5 11 23 41 63 82 89 
79 60 39 24 16 12 12 13 15 9 10 11 12 13 14 14 
15 15 15 14 14 13 13 12 11 10 9 8 7 7 6 0 0 0 0 1 1 2 2 2 2 3 3 3 3 3 2 2 
2 1 1 0 0 0 8 6 4 2 1 1 3 5 5 3 
0 0 0 0 0 5 11 16 21 9 10 11 12 12 13 13 
14 14 14 13 13 12 12 11 10 9 9 8 7 6 5 0 0 0 0 1 1 1 1 2 2 2 2 2 2 2 1 1 
1 1 1 0 0 0 14 10 6 1 0 0 0 0 0 0 
0 0 0 0 0 2 12 20 26 9 10 11 11 12 12 12 
13 13 13 12 12 11 11 10 9 9 8 7 7 6 5 0 0 0 0 0 1 1 1 1 1 1 1 1 1 1 1 1 
1 1 1 1 1 2 20 16 11 4 0 0 0 0 0 0 
0 0 0 0 0 3 16 26 33 10 10 11 11 11 11 12 
12 12 12 11 11 11 10 9 9 8 7 7 6 5 5 0 0 0 0 0 0 1 1 1 1 1 1 1 0 0 0 0 
1 1 1 2 3 4 5 23 18 10 0 0 0 0 0 0 
0 0 0 0 0 10 24 33 11 11 11 11 11 11 11 11 
11 11 11 10 10 10 9 9 8 7 7 6 6 5 4 0 0 0 0 0 0 0 0 0 0 0 0 0 0 0 0 0 
1 1 2 3 5 6 8 30 26 20 10 0 0 0 0 0 
0 0 0 0 7 22 33 42 14 13 13 12 11 11 10 10 
10 10 9 9 9 9 8 8 7 7 6 6 5 5 4 0 0 0 0 0 0 0 0 0 0 0 0 0 0 0 0 0 
1 2 3 5 7 9 12 15 35 30 23 14 3 0 0 0 
0 0 0 10 24 35 44 19 17 15 14 12 11 10 10 9 
9 9 9 8 8 8 7 7 6 6 6 5 5 4 4 0 0 0 0 0 0 0 0 0 0 0 0 0 0 0 0 0 
1 2 4 6 8 12 15 19 24 40 36 31 24 17 11 8 
9 14 22 31 40 48 28 24 21 18 15 13 11 10 9 9 
8 8 7 7 7 7 6 6 6 5 5 5 4 4 3 0 0 0 0 0 0 0 0 0 0 0 0 0 0 0 0 1 
2 3 5 7 10 14 18 23 29 35 47 44 41 37 35 33 
34 38 43 48 54 40 34 28 23 19 16 13 11 10 9 8 
7 7 6 6 6 6 6 5 5 5 4 4 4 3 3 0 0 0 0 0 0 0 0 0 0 0 0 0 0 0 0 1 
2 3 5 8 12 16 20 26 33 40 48 56 54 52 52 52 
53 79 74 66 58 48 39 32 26 20 16 13 11 9 8 7 
6 6 5 5 5 5 5 4 4 4 4 3 3 3 3 0 0 0 0 0 0 0 0 0 0 0 0 0 0 0 0 1 
2 4 6 9 13 17 22 28 36 44 53 61 70 78 84 87 
87 84 78 70 61 51 41 33 26 21 16 13 10 8 7 6 
5 5 5 4 4 4 4 4 3 3 3 3 3 2 2 0 0 0 0 0 0 0 0 0 0 0 0 0 0 0 0 1 
2 4 6 9 13 17 23 29 37 46 52 63 72 80 86 89 
89 85 79 71 61 51 41 34 26 20 16 12 9 7 6 5 
4 4 4 3 3 3 3 3 3 3 3 2 2 2 2 0 0 0 0 0 0 0 0 0 0 0 0 0 0 0 0 1 
3 4 7 9 13 17 23 29 37 46 52 62 71 79 84 87 
87 83 77 68 58 48 38 32 25 19 14 11 8 6 5 4 
3 3 3 2 2 2 2 2 2 2 2 2 2 2 1 0 0 0 0 0 0 0 0 0 0 0 0 0 0 0 0 1 
3 4 6 9 13 17 22 28 35 43 49 58 67 74 79 81 
80 77 70 62 53 43 34 26 22 16 12 9 6 5 4 3 
2 2 2 2 2 2 2 2 2 2 1 1 1 1 1 0 0 0 0 0 0 0 0 0 0 0 0 0 0 0 0 1 
2 4 6 8 12 15 20 26 32 40 44 52 59 66 70 72 
71 67 61 54 45 37 29 21 18 13 9 7 5 3 2 2 
1 1 1 1 1 1 1 1 1 1 1 1 1 1 1 0 0 0 0 0 0 0 0 0 0 0 0 0 0 0 0 1 
2 3 5 8 10 14 18 22 28 34 38 44 50 55 58 60 
58 55 50 43 36 29 22 16 13 9 7 4 3 2 1 0 
0 0 0 0 0 0 0 0 1 1 1 1 1 1 1 0 0 0 0 0 0 0 0 0 0 0 0 0 0 0 0 1 
2 3 5 6 9 12 15 19 23 28 30 36 40 44 46 46 
45 42 37 32 26 20 15 13 9 6 4 2 1 0 0 0 
0 0 0 0 0 0 0 0 0 0 0 0 0 0 0 0 0 0 0 0 0 0 0 0 0 0 0 0 0 0 0 0 
1 2 4 5 7 9 12 15 18 22 26 27 30 32 33 33 
32 29 25 21 16 12 8 7 4 2 1 0 0 0 0 0 
0 0 0 0 0 0 0 0 0 0 0 0 0 0 0 0 0 0 0 0 0 0 0 0 0 0 0 0 0 0 0 0 
1 2 3 4 5 7 9 11 14 16 19 18 20 21 22 21 
20 17 14 11 8 5 4 2 0 0 0 0 0 0 0 0 
0 0 0 0 0 0 0 0 0 0 0 0 0 0 0 0 0 0 0 0 0 0 0 0 0 0 0 0 0 0 0 0 
0 1 2 3 4 5 6 8 9 11 13 14 12 12 12 11 
10 8 5 3 1 1 0 0 0 0 0 0 0 0 0 0 
0 0 0 0 0 0 0 0 0 0 0 0 0 0 0 0 0 0 0 0 0 0 0 0 0 0 0 0 0 0 0 0 
0 0 1 2 2 3 4 5 6 7 7 8 8 7 4 3 
2 0 0 0 0 0 0 0 0 0 0 0 0 0 0 0 
0 0 0 0 0 0 0 0 0 0 0 0 0 0 0 0 0 0 0 0 0 0 0 0 0 0 0 0 0 0 0 0 
0 0 0 1 1 1 2 2 3 3 3 3 3 2 1 0 
0 0 0 0 0 0 0 0 0 0 0 0 0 0 0 0 
0 0 0 0 0 0 0 0 0 0 0 0 0 0 0 0 0 0 0 0 0 0 0 0 0 0 0 0 0 0 0 0 
0 0 0 0 0 0 0 0 0 0 0 0 0 0 0 0 
0 0 0 0 0 0 0 0 0 0 0 0 0 0 0 0 
0 0 0 0 0 0 0 0 0 0 0 0 0 0 0 0 0 0 0 0 0 0 0 0 0 0 0 0 0 0 0 0 
0 0 0 0 0 0 0 0 0 0 0 0 0 0 0 0 
0 0 0 0 0 0 0 0 0 0 0 0 0 0 0 0 
0 0 0 0 0 0 0 0 0 0 0 0 0 0 0 0 0 0 0 0 0 0 0 0 0 0 0 0 0 0 0 0 
0 0 0 0 0 0 0 0 0 0 0 0 0 0 0 0 
0 0 0 0 0 0 0 0 0 0 0 0 0 0 0 0 
0 0 0 0 0 0 0 0 0 0 0 0 0 0 0 