P2
# Created by IrfanView
64 64
255
0 0 0 0 0 0 0 0 0 0 0 0 0 0 0 0 0 
0 0 0 0 0 0 0 1 1 2 2 3 3 3 3 3 
3 3 3 3 3 2 2 1 0 0 0 0 0 0 0 0 
0 0 0 0 0 0 0 0 0 0 0 0 0 0 0 0 0 0 0 0 0 0 0 0 0 0 0 0 0 0 0 0 
0 0 0 0 0 1 1 2 2 3 3 4 4 4 5 5 
5 5 4 4 4 3 3 2 1 0 0 0 0 0 0 0 
0 0 0 0 0 0 0 0 0 0 0 0 0 0 0 0 0 0 0 0 0 0 0 0 0 0 0 0 0 0 0 0 
0 0 0 0 1 2 2 3 3 4 5 5 5 6 6 6 
6 6 6 6 5 5 4 4 3 2 1 0 0 0 0 0 
0 0 0 0 0 0 0 0 0 0 0 0 0 0 0 0 0 0 0 0 0 0 0 0 0 0 0 0 0 0 0 0 
0 0 0 1 2 3 3 4 5 5 6 6 7 7 7 8 
8 8 8 8 7 7 6 6 5 4 3 1 0 0 0 0 
0 0 0 0 0 0 0 0 0 0 0 0 0 0 0 0 0 0 0 0 0 0 0 0 0 0 0 0 0 0 0 0 
0 1 2 3 3 4 5 5 6 7 7 8 9 9 9 10 
10 10 10 10 9 9 8 8 7 6 5 3 2 0 0 0 
0 0 0 0 0 0 0 0 0 0 0 0 0 0 0 0 0 0 0 0 0 0 0 0 0 0 0 0 0 0 0 0 
1 2 3 4 5 6 6 7 8 9 9 10 11 11 12 12 
12 12 12 12 12 11 11 10 9 8 7 6 5 3 1 0 
0 0 0 0 0 0 0 0 0 0 0 0 0 0 0 0 0 0 0 0 0 0 0 0 0 0 0 0 0 0 1 2 
3 4 5 6 6 7 8 9 10 10 11 12 13 14 14 15 
15 15 15 15 14 14 14 13 12 11 10 9 8 6 4 2 
0 0 0 0 0 0 0 0 0 0 0 0 0 0 0 0 0 0 0 0 0 0 0 0 0 0 0 0 1 2 3 4 
5 6 7 7 8 9 10 11 12 13 14 14 15 16 17 18 
18 18 18 18 18 17 17 16 15 14 13 12 11 9 8 6 
4 2 0 0 0 0 0 0 0 0 0 0 0 0 0 0 0 0 0 0 0 0 0 0 0 1 2 2 3 4 5 6 
7 8 9 9 10 11 12 13 14 15 16 17 18 20 20 21 
22 22 22 21 21 21 20 19 19 18 17 16 15 13 12 10 
8 6 4 2 0 0 0 0 0 0 0 0 0 0 0 0 0 0 0 0 0 1 1 2 2 3 4 5 6 7 8 8 
9 10 11 11 12 13 14 15 16 17 18 20 22 23 24 25 
26 26 26 25 25 24 24 23 22 22 21 20 19 18 16 14 
12 10 8 6 4 2 0 0 0 0 0 0 0 0 0 0 0 1 1 2 2 3 3 4 4 5 6 7 8 9 10 11 
12 12 13 14 14 15 15 16 18 19 21 23 25 27 29 30 
31 31 30 30 29 28 27 27 26 26 25 24 23 22 21 19 
17 15 13 11 9 7 5 3 2 1 0 0 0 0 0 0 1 2 3 3 4 4 5 6 7 8 9 9 11 12 13 13 
14 15 15 16 16 16 17 18 19 21 23 26 40 43 45 46 
46 45 36 35 33 32 31 31 30 30 29 29 28 27 26 24 
22 20 18 16 14 12 10 8 7 5 4 3 2 2 1 0 1 3 4 4 5 6 7 8 9 10 11 12 13 14 15 16 
16 17 17 17 18 18 18 19 20 22 34 38 42 45 47 49 
49 48 47 44 41 36 35 34 34 33 33 33 32 32 31 29 
27 25 23 21 19 17 15 13 11 10 8 7 6 5 4 0 1 3 4 5 7 8 9 10 11 12 13 14 15 17 18 18 
19 19 19 19 19 18 18 19 26 29 32 36 40 43 47 49 
49 49 47 44 41 38 38 37 37 37 37 37 37 37 36 34 
32 30 28 26 24 22 19 17 15 14 12 11 9 8 7 0 1 3 5 6 8 9 10 11 13 14 15 16 18 19 20 21 
21 21 21 20 19 18 17 20 21 23 25 29 33 37 41 44 
45 45 43 41 38 35 33 39 39 40 41 41 41 41 40 39 
37 35 33 31 28 26 24 21 19 18 16 14 13 11 10 0 0 3 5 7 8 10 11 13 14 16 17 19 20 21 22 23 
23 23 22 21 19 17 14 12 12 12 14 17 21 25 29 32 
35 35 34 33 31 30 28 26 40 42 43 45 45 45 45 44 
42 40 38 35 32 30 27 25 23 21 19 17 15 14 12 0 0 2 5 7 9 11 12 14 15 17 19 20 22 23 24 25 
25 25 23 21 18 14 5 2 0 0 0 0 0 4 9 13 
16 18 18 19 19 19 20 20 21 42 45 47 49 49 49 48 
46 44 42 39 36 33 31 28 26 23 21 19 17 16 14 0 0 2 5 7 9 11 13 15 16 18 20 22 24 25 26 27 
27 26 24 20 16 1 0 0 0 0 0 0 0 0 0 0 
0 0 0 0 1 4 8 11 14 41 46 49 51 52 53 52 
50 48 45 42 39 36 33 30 28 25 23 21 19 17 15 0 0 1 4 7 9 11 13 15 17 19 21 23 25 27 28 29 
28 27 24 19 12 0 0 0 0 0 0 0 0 0 0 0 
0 0 0 0 0 0 0 0 5 10 45 50 53 55 55 55 
53 50 48 44 41 38 35 32 29 27 24 22 20 18 16 0 0 1 4 7 9 11 13 15 18 20 22 24 26 28 29 30 
29 27 23 17 8 0 0 0 0 0 0 0 0 0 0 0 
0 0 0 0 0 0 0 0 0 3 43 50 54 56 57 57 
55 52 49 46 43 39 36 33 30 28 25 23 21 19 17 0 0 0 3 6 9 11 13 15 18 20 22 25 27 29 30 31 
30 27 22 15 4 0 0 0 0 0 0 0 0 0 0 17 
0 0 0 0 0 0 0 0 0 0 40 48 54 57 58 58 
56 54 50 47 44 40 37 34 31 28 25 23 21 19 17 0 0 0 3 6 8 11 13 15 18 20 23 25 27 29 31 31 
30 27 21 12 0 0 0 0 0 0 0 0 0 0 61 103 
9 0 0 0 0 0 0 0 0 0 36 46 53 57 58 58 
56 54 51 47 44 40 37 33 30 28 25 23 21 19 17 0 0 0 3 5 8 10 12 15 17 20 22 25 27 29 31 31 
30 26 20 10 0 0 0 0 0 0 0 0 0 0 8 49 
0 0 0 0 0 0 0 0 0 0 32 43 51 55 57 57 
56 53 50 47 43 39 36 33 30 27 25 22 20 18 16 0 0 0 2 5 7 10 12 14 17 19 22 25 27 29 30 30 
29 25 19 8 0 0 0 0 0 0 0 0 0 0 0 0 
0 0 0 0 0 0 0 0 0 0 28 40 48 53 55 56 
54 52 49 46 42 38 35 32 29 26 24 22 19 18 16 0 0 0 2 4 7 9 11 14 16 19 21 24 26 28 29 29 
28 24 17 7 0 0 0 0 0 0 0 0 0 0 0 0 
0 0 0 0 0 0 0 0 0 0 24 36 45 50 53 53 
52 50 47 44 40 37 34 30 28 25 23 20 19 17 15 0 0 0 2 4 6 8 10 13 15 18 20 23 25 27 28 28 
27 23 16 6 0 0 0 0 0 0 0 0 0 0 0 0 
0 0 0 0 0 0 0 0 0 3 20 33 41 47 49 50 
49 47 45 41 38 35 32 29 26 24 21 19 18 16 14 0 0 0 1 3 5 8 10 12 14 17 19 22 24 26 27 27 
25 21 15 5 0 0 0 0 0 0 0 0 0 0 0 0 
0 0 0 0 0 0 0 0 0 1 17 29 38 43 46 47 
46 44 42 39 36 33 30 27 25 22 20 18 16 15 13 0 0 0 1 3 5 7 9 11 13 15 18 20 22 24 25 25 
23 19 13 4 0 0 0 0 0 0 0 0 0 0 0 0 
0 0 0 0 0 0 0 0 0 1 15 26 34 39 42 43 
42 41 39 36 33 31 28 25 23 21 19 17 15 14 12 0 0 0 1 3 4 6 8 10 12 14 16 18 20 22 23 22 
21 18 12 4 0 0 0 0 0 0 0 0 0 0 0 0 
0 0 0 0 0 0 0 0 0 1 13 23 30 35 38 39 
39 37 36 33 31 28 26 24 21 19 18 16 14 13 11 0 0 0 1 2 4 6 7 9 11 13 15 17 18 20 20 20 
19 16 11 4 0 0 0 0 0 0 0 0 0 0 0 0 
0 0 0 0 0 0 0 0 0 1 12 21 27 31 34 35 
35 34 32 30 28 26 24 22 20 18 16 15 13 12 11 0 0 0 1 2 3 5 7 8 10 12 13 15 16 18 18 18 
16 14 10 4 0 0 0 0 0 0 0 0 0 0 0 0 
0 0 0 0 0 0 0 0 0 2 11 19 24 28 30 31 
31 31 29 28 26 24 22 20 18 17 15 14 12 11 10 0 0 0 0 2 3 5 6 7 9 11 12 13 15 15 16 16 
14 12 8 3 0 0 0 0 0 0 0 0 0 0 0 0 
0 0 0 0 0 0 0 0 0 3 11 17 21 25 27 28 
28 28 27 25 24 22 20 19 17 15 14 13 11 10 9 0 0 0 0 2 3 4 5 7 8 9 11 12 13 13 14 13 
12 10 7 3 0 0 0 0 0 0 0 0 0 0 0 0 
0 0 0 0 0 0 0 0 0 5 11 15 19 22 24 25 
25 25 24 23 22 20 19 17 16 14 13 12 11 10 9 0 0 0 0 1 2 4 5 6 7 8 9 10 11 12 12 11 
10 8 6 2 0 0 0 0 0 0 0 0 0 0 6 9 
8 4 0 0 0 0 0 0 2 6 10 14 17 20 21 22 
23 22 22 21 20 18 17 16 15 13 12 11 10 9 8 0 0 0 0 1 2 3 4 5 6 7 8 9 9 10 10 9 
8 7 5 2 0 0 0 0 0 0 0 0 12 24 34 38 
37 30 20 8 0 0 1 2 5 7 11 13 16 18 19 20 
20 20 20 19 18 17 16 15 14 12 11 10 9 8 7 0 0 0 0 1 2 3 4 5 5 6 7 7 8 8 8 8 
7 6 4 2 0 0 0 0 0 0 2 16 33 49 62 68 
66 56 41 26 13 2 0 6 7 9 11 13 15 16 17 18 
18 18 18 17 17 16 15 14 13 12 11 10 9 8 7 0 0 0 0 1 2 2 3 4 5 5 6 6 7 7 7 6 
5 4 3 1 0 0 0 0 0 1 13 29 49 69 86 93 
89 76 58 40 24 12 4 10 9 9 11 12 14 15 16 16 
17 17 16 16 15 15 14 13 12 11 10 9 8 7 7 0 0 0 0 1 1 2 3 3 4 4 5 5 5 5 5 5 
4 3 2 1 0 0 0 0 0 8 19 36 57 79 97 105 
100 85 65 46 30 18 11 7 10 10 11 12 13 14 15 15 
15 15 15 15 14 14 13 12 11 10 9 8 8 7 6 0 0 0 0 1 1 2 2 3 3 4 4 4 4 4 4 4 
3 3 2 1 0 0 0 2 5 11 21 35 53 73 89 96 
91 76 58 42 29 20 16 13 11 10 11 11 12 13 14 14 
14 14 14 14 13 13 12 11 10 10 9 8 7 6 6 0 0 0 0 1 1 1 2 2 3 3 3 3 3 3 3 3 
3 2 2 1 1 1 1 7 9 12 17 26 38 51 61 64 
60 50 39 29 23 19 18 18 11 11 11 11 12 12 13 13 
13 13 13 13 12 12 11 10 10 9 8 7 7 6 5 0 0 0 0 0 1 1 2 2 2 2 2 3 3 2 2 2 
2 2 2 1 1 2 2 12 12 12 12 14 17 19 21 20 
18 15 13 13 15 17 20 23 11 11 11 11 11 12 12 12 
12 12 12 12 11 11 10 10 9 8 8 7 6 6 5 0 0 0 0 0 1 1 1 1 2 2 2 2 2 2 2 2 
2 2 2 2 3 3 4 18 15 12 9 4 0 0 0 0 
0 0 0 0 9 16 23 28 12 12 11 11 11 11 11 12 
11 11 11 11 11 10 10 9 8 8 7 7 6 5 5 0 0 0 0 0 0 1 1 1 1 1 1 1 1 1 1 1 
2 2 2 3 4 5 6 23 20 16 9 1 0 0 0 0 
0 0 0 0 8 19 28 35 13 13 12 12 11 11 11 11 
11 11 10 10 10 9 9 8 8 7 7 6 5 5 4 0 0 0 0 0 0 0 1 1 1 1 1 1 1 1 1 1 
2 2 3 4 6 7 9 30 27 22 15 5 0 0 0 0 
0 0 0 1 14 26 35 42 15 14 13 12 12 11 11 10 
10 10 9 9 9 8 8 8 7 7 6 6 5 5 4 0 0 0 0 0 0 0 0 0 0 0 0 0 1 1 1 1 
2 3 4 6 7 10 12 15 34 30 24 15 5 0 0 0 
0 0 1 13 25 35 44 20 18 16 15 13 12 11 10 10 
9 9 9 8 8 8 7 7 6 6 5 5 5 4 4 0 0 0 0 0 0 0 0 0 0 0 0 0 0 1 1 1 
2 3 5 7 9 12 16 20 24 39 34 28 21 13 7 5 
6 11 19 29 38 47 29 25 22 19 16 14 12 11 10 9 
9 8 8 7 7 7 6 6 6 5 5 5 4 4 3 0 0 0 0 0 0 0 0 0 0 0 0 0 0 0 1 2 
3 4 6 8 11 15 19 24 30 36 45 41 37 32 29 27 
28 32 38 45 52 41 36 30 25 21 17 14 12 11 9 8 
8 7 7 7 6 6 6 5 5 5 4 4 4 3 3 0 0 0 0 0 0 0 0 0 0 0 0 0 0 0 1 2 
3 5 7 10 13 17 22 28 35 43 51 53 51 48 47 46 
91 88 83 74 65 54 42 35 28 23 18 15 12 10 9 8 
7 6 6 6 5 5 5 5 4 4 4 4 3 3 3 0 0 0 0 0 0 0 0 0 0 0 0 0 0 0 1 2 
3 5 8 11 14 19 25 31 39 49 59 71 81 91 98 101 
101 98 91 82 71 59 48 38 30 24 19 15 12 10 8 7 
6 5 5 5 5 4 4 4 4 3 3 3 3 3 2 0 0 0 0 0 0 0 0 0 0 0 0 0 0 0 1 2 
4 6 8 11 15 20 26 34 43 53 63 76 87 97 104 108 
108 104 97 86 74 62 50 38 31 24 18 14 11 9 7 6 
5 5 4 4 4 4 3 3 3 3 3 3 2 2 2 0 0 0 0 0 0 0 0 0 0 0 0 0 0 0 1 2 
4 6 8 12 16 21 27 35 44 53 65 77 89 99 107 111 
110 106 98 87 74 61 49 38 30 23 17 13 10 8 6 5 
4 4 3 3 3 3 3 3 2 2 2 2 2 2 2 0 0 0 0 0 0 0 0 0 0 0 0 0 0 0 1 2 
4 6 8 11 15 20 27 34 44 52 64 76 87 97 104 108 
107 102 94 83 71 58 46 35 25 21 15 11 8 6 5 4 
3 3 2 2 2 2 2 2 2 2 2 2 2 1 1 0 0 0 0 0 0 0 0 0 0 0 0 0 0 0 1 2 
4 5 8 11 15 19 25 33 41 49 60 71 81 90 97 100 
99 94 85 75 63 51 40 30 21 17 13 9 6 5 3 3 
2 2 1 1 1 1 1 1 1 1 1 1 1 1 1 0 0 0 0 0 0 0 0 0 0 0 0 0 0 0 1 2 
3 5 7 10 13 18 23 30 37 43 53 63 72 80 85 87 
85 80 73 63 53 42 32 24 16 13 9 6 4 3 2 1 
1 1 1 1 1 1 1 1 1 1 1 1 1 1 1 0 0 0 0 0 0 0 0 0 0 0 0 0 0 0 1 2 
3 4 6 9 12 16 20 26 32 37 45 53 60 66 70 71 
69 64 57 49 40 31 24 17 11 9 6 4 2 1 0 0 
0 0 0 0 0 0 0 0 0 0 0 1 1 1 1 0 0 0 0 0 0 0 0 0 0 0 0 0 0 0 1 1 
2 4 5 7 10 13 17 21 26 29 36 42 47 51 53 53 
51 47 41 34 27 21 15 10 7 5 2 1 0 0 0 0 
0 0 0 0 0 0 0 0 0 0 0 0 0 0 0 0 0 0 0 0 0 0 0 0 0 0 0 0 0 0 0 1 
2 3 4 6 8 10 13 16 20 22 26 30 34 36 37 36 
34 30 26 20 15 10 6 3 2 0 0 0 0 0 0 0 
0 0 0 0 0 0 0 0 0 0 0 0 0 0 0 0 0 0 0 0 0 0 0 0 0 0 0 0 0 0 0 1 
1 2 3 4 6 8 10 12 15 17 17 20 22 23 22 21 
19 16 12 8 5 2 0 0 0 0 0 0 0 0 0 0 
0 0 0 0 0 0 0 0 0 0 0 0 0 0 0 0 0 0 0 0 0 0 0 0 0 0 0 0 0 0 0 0 
1 1 2 3 4 5 7 8 10 11 12 11 12 11 11 9 
7 4 1 0 0 0 0 0 0 0 0 0 0 0 0 0 
0 0 0 0 0 0 0 0 0 0 0 0 0 0 0 0 0 0 0 0 0 0 0 0 0 0 0 0 0 0 0 0 
0 0 1 2 2 3 4 5 5 6 6 6 4 3 2 0 
0 0 0 0 0 0 0 0 0 0 0 0 0 0 0 0 
0 0 0 0 0 0 0 0 0 0 0 0 0 0 0 0 0 0 0 0 0 0 0 0 0 0 0 0 0 0 0 0 
0 0 0 0 1 1 1 2 2 2 1 1 0 0 0 0 
0 0 0 0 0 0 0 0 0 0 0 0 0 0 0 0 
0 0 0 0 0 0 0 0 0 0 0 0 0 0 0 0 0 0 0 0 0 0 0 0 0 0 0 0 0 0 0 0 
0 0 0 0 0 0 0 0 0 0 0 0 0 0 0 0 
0 0 0 0 0 0 0 0 0 0 0 0 0 0 0 0 
0 0 0 0 0 0 0 0 0 0 0 0 0 0 0 0 0 0 0 0 0 0 0 0 0 0 0 0 0 0 0 0 
0 0 0 0 0 0 0 0 0 0 0 0 0 0 0 0 
0 0 0 0 0 0 0 0 0 0 0 0 0 0 0 0 
0 0 0 0 0 0 0 0 0 0 0 0 0 0 0 0 0 0 0 0 0 0 0 0 0 0 0 0 0 0 0 0 
0 0 0 0 0 0 0 0 0 0 0 0 0 0 0 0 
0 0 0 0 0 0 0 0 0 0 0 0 0 0 0 0 
0 0 0 0 0 0 0 0 0 0 0 0 0 0 0 