P2
# Created by IrfanView
64 64
255
0 0 0 0 0 0 0 0 0 0 0 0 0 0 0 0 0 
0 0 0 0 0 0 0 1 1 1 2 2 2 3 3 3 
3 3 3 3 2 2 1 1 0 0 0 0 0 0 0 0 
0 0 0 0 0 0 0 0 0 0 0 0 0 0 0 0 0 0 0 0 0 0 0 0 0 0 0 0 0 0 0 0 
0 0 0 0 0 0 1 1 2 2 3 3 3 4 4 4 
4 4 4 4 3 3 3 2 1 0 0 0 0 0 0 0 
0 0 0 0 0 0 0 0 0 0 0 0 0 0 0 0 0 0 0 0 0 0 0 0 0 0 0 0 0 0 0 0 
0 0 0 0 1 1 2 2 3 3 4 4 4 5 5 5 
5 5 5 5 5 4 4 3 3 2 1 0 0 0 0 0 
0 0 0 0 0 0 0 0 0 0 0 0 0 0 0 0 0 0 0 0 0 0 0 0 0 0 0 0 0 0 0 0 
0 0 0 1 2 2 3 3 4 4 5 5 6 6 6 6 
7 7 7 6 6 6 5 5 4 3 2 1 0 0 0 0 
0 0 0 0 0 0 0 0 0 0 0 0 0 0 0 0 0 0 0 0 0 0 0 0 0 0 0 0 0 0 0 0 
0 1 1 2 3 3 4 4 5 5 6 7 7 7 8 8 
8 8 8 8 8 7 7 7 6 5 4 3 2 1 0 0 
0 0 0 0 0 0 0 0 0 0 0 0 0 0 0 0 0 0 0 0 0 0 0 0 0 0 0 0 0 0 0 0 
1 2 3 3 4 4 5 6 6 7 7 8 8 9 9 10 
10 10 10 10 10 9 9 9 8 7 6 5 4 3 1 0 
0 0 0 0 0 0 0 0 0 0 0 0 0 0 0 0 0 0 0 0 0 0 0 0 0 0 0 0 0 0 1 2 
3 3 4 5 5 6 6 7 7 8 9 9 10 11 11 11 
12 12 12 12 12 12 11 11 10 9 9 8 7 5 4 3 
1 0 0 0 0 0 0 0 0 0 0 0 0 0 0 0 0 0 0 0 0 0 0 0 0 0 0 1 1 2 3 3 
4 5 5 6 6 7 8 8 9 9 10 11 12 12 13 14 
14 14 14 14 14 14 14 13 13 12 11 10 9 8 7 5 
4 2 1 0 0 0 0 0 0 0 0 0 0 0 0 0 0 0 0 0 0 0 0 0 0 1 2 2 3 4 4 5 
6 6 7 7 8 8 9 9 10 11 12 13 13 14 15 16 
16 17 17 17 16 16 16 16 15 15 14 13 13 11 10 9 
7 6 4 2 1 0 0 0 0 0 0 0 0 0 0 0 0 0 0 0 0 1 1 1 2 3 3 4 5 5 6 7 
7 8 8 9 9 9 10 10 11 12 13 14 15 16 17 18 
19 19 19 19 19 19 18 18 18 18 17 17 16 15 14 12 
11 9 8 6 4 3 1 0 0 0 0 0 0 0 0 0 0 0 1 1 2 2 3 3 4 4 5 6 7 7 8 9 
9 10 10 10 10 10 11 11 12 13 14 15 17 18 19 20 
21 22 22 22 21 21 21 21 21 20 20 20 19 18 17 16 
15 13 12 10 8 7 5 4 2 1 0 0 0 0 0 0 0 1 2 2 3 3 4 5 5 6 7 8 9 9 10 10 
11 11 11 11 11 11 11 11 12 13 14 16 17 33 34 35 
36 24 24 24 23 23 23 23 23 23 23 23 23 22 21 20 
19 17 16 14 12 11 9 7 6 5 4 3 2 2 1 0 0 1 2 3 4 5 6 6 7 8 9 10 11 11 12 12 
13 13 13 12 12 11 11 11 11 12 25 27 29 31 33 34 
35 35 34 33 25 24 25 25 25 26 26 26 26 26 25 24 
23 21 20 18 16 14 13 11 10 8 7 6 5 4 4 0 0 1 3 4 5 6 7 8 9 10 11 12 12 13 14 14 
14 14 13 13 12 11 10 9 8 19 20 21 23 25 27 29 
30 31 31 30 29 28 25 26 27 28 28 29 29 29 29 28 
27 25 24 22 20 18 17 15 13 12 10 9 8 7 6 0 0 1 3 5 6 7 8 9 10 11 12 13 14 15 15 16 
16 15 14 13 11 9 7 5 11 11 10 11 12 14 16 18 
20 22 22 23 23 23 23 25 27 29 30 32 32 33 32 32 
31 29 28 26 24 22 20 18 16 15 13 12 11 9 8 0 0 1 3 5 6 8 9 10 11 13 14 15 16 17 17 17 
17 16 14 12 10 6 2 4 1 0 0 0 0 0 0 1 
3 6 9 11 13 15 16 18 26 29 32 34 35 36 36 35 
34 33 31 29 27 25 23 21 19 18 16 14 13 12 10 0 0 1 3 5 7 8 10 11 12 14 15 16 17 18 18 18 
18 16 14 11 7 2 0 0 0 0 0 0 0 0 0 0 
0 0 0 0 0 2 6 10 23 28 32 35 37 38 39 38 
37 36 34 32 30 28 26 24 22 20 18 16 15 13 12 0 0 0 3 5 7 9 10 12 13 15 16 17 18 19 20 20 
19 17 14 9 4 0 0 0 0 0 0 0 0 0 0 0 
0 0 0 0 0 0 0 0 6 25 31 35 38 40 41 41 
40 39 37 35 33 30 28 26 24 22 20 18 16 15 13 0 0 0 3 5 7 9 11 12 14 15 17 18 20 20 21 20 
19 17 13 7 0 0 0 0 0 0 0 0 0 0 0 0 
0 0 0 0 0 0 0 0 0 22 29 35 39 41 43 43 
42 41 39 37 34 32 30 27 25 23 21 19 17 16 14 0 0 0 2 5 7 9 11 13 14 16 18 19 20 21 21 21 
19 16 11 4 0 0 0 0 0 0 0 0 0 0 0 0 
0 0 0 0 0 0 0 0 0 16 26 34 39 42 44 44 
44 42 40 38 36 33 31 28 26 24 22 20 18 16 14 0 0 0 2 5 7 9 11 13 14 16 18 19 21 22 22 21 
19 15 10 1 0 0 0 0 0 0 0 0 0 0 0 0 
0 0 0 0 0 0 0 0 0 0 23 32 38 42 44 45 
44 43 41 39 36 34 31 29 26 24 22 20 18 16 15 0 0 0 2 4 7 9 11 12 14 16 18 20 21 22 22 21 
19 15 8 0 0 0 0 0 0 0 0 0 0 0 0 0 
0 0 0 0 0 0 0 0 0 0 19 29 36 41 44 45 
45 43 41 39 37 34 31 29 26 24 22 20 18 16 15 0 0 0 2 4 6 8 10 12 14 16 18 20 21 22 22 21 
18 14 7 0 0 0 0 0 0 0 0 0 0 0 0 0 
0 0 0 0 0 0 0 0 0 0 15 26 34 40 43 44 
44 43 41 39 36 33 31 28 26 24 22 20 18 16 14 0 0 0 2 4 6 8 10 12 14 16 17 19 21 21 21 20 
18 13 5 0 0 0 0 0 0 0 0 0 0 0 0 0 
0 0 0 0 0 0 0 0 0 0 11 23 32 38 41 43 
43 42 40 38 35 33 30 28 25 23 21 19 17 16 14 0 0 0 1 3 5 7 9 11 13 15 17 19 20 21 21 20 
17 12 4 0 0 0 0 0 0 0 0 0 0 0 0 0 
0 0 0 0 0 0 0 0 0 0 8 21 30 36 39 41 
41 40 39 36 34 31 29 26 24 22 20 18 16 15 13 0 0 0 1 3 5 7 9 11 12 14 16 18 19 20 20 19 
16 11 3 0 0 0 0 0 0 0 0 0 0 0 0 0 
0 0 0 0 0 0 0 0 0 0 6 18 27 33 37 39 
39 38 37 35 32 30 28 25 23 21 19 17 16 14 13 0 0 0 1 3 5 6 8 10 12 13 15 17 18 19 19 17 
15 10 3 0 0 0 0 0 0 0 0 0 0 0 0 0 
0 0 0 0 0 0 0 0 0 0 4 16 25 30 34 36 
36 36 34 33 31 28 26 24 22 20 18 16 15 13 12 0 0 0 1 2 4 6 7 9 11 13 14 16 17 17 17 16 
14 9 3 0 0 0 0 0 0 0 0 0 0 0 0 0 
0 0 0 0 0 0 0 0 0 0 3 14 22 28 31 33 
34 33 32 30 29 26 24 22 20 19 17 15 14 13 11 0 0 0 1 2 4 5 7 8 10 12 13 14 15 16 16 15 
12 8 3 0 0 0 0 0 0 0 0 0 0 0 0 0 
0 0 0 0 0 0 0 0 0 0 3 13 20 25 28 30 
31 31 30 28 26 25 23 21 19 17 16 14 13 12 11 0 0 0 1 2 3 5 6 8 9 11 12 13 14 14 14 13 
11 8 2 0 0 0 0 0 0 0 0 0 0 0 0 0 
0 0 0 0 0 0 0 0 0 0 3 12 18 23 26 27 
28 28 27 26 24 23 21 19 18 16 15 13 12 11 10 0 0 0 0 2 3 4 6 7 8 10 11 12 13 13 13 12 
10 7 2 0 0 0 0 0 0 0 0 0 0 0 0 0 
0 0 0 0 0 0 0 0 0 0 4 11 17 21 23 25 
25 25 25 24 22 21 20 18 16 15 14 13 11 10 9 0 0 0 0 1 3 4 5 6 7 9 10 11 11 11 11 10 
9 6 2 0 0 0 0 0 0 0 0 0 0 0 0 0 
0 0 0 0 0 0 0 0 0 0 5 11 15 19 21 22 
23 23 23 22 21 19 18 17 15 14 13 12 11 9 9 0 0 0 0 1 2 3 4 5 7 8 8 9 10 10 10 9 
8 5 2 0 0 0 0 0 0 0 0 0 0 0 0 0 
0 0 0 0 0 0 0 0 0 0 6 10 14 17 19 20 
21 21 20 20 19 18 17 15 14 13 12 11 10 9 8 0 0 0 0 1 2 3 4 5 6 7 7 8 9 9 8 8 
6 5 2 0 0 0 0 0 0 0 0 0 0 0 0 0 
0 0 0 0 0 0 0 0 0 3 7 10 13 16 17 18 
19 19 19 18 17 16 15 14 13 12 11 10 9 8 7 0 0 0 0 1 2 3 3 4 5 6 6 7 7 7 7 7 
5 4 2 0 0 0 0 0 0 0 0 0 1 9 15 18 
18 13 6 0 0 0 0 0 2 5 8 10 13 14 16 17 
17 17 17 17 16 15 14 13 12 11 10 9 9 8 7 0 0 0 0 1 2 2 3 4 4 5 5 6 6 6 6 5 
5 3 2 0 0 0 0 0 0 0 0 7 18 29 37 41 
39 33 24 14 5 0 5 5 5 7 8 10 12 13 15 15 
16 16 16 15 15 14 13 12 11 11 10 9 8 7 6 0 0 0 0 1 1 2 3 3 4 4 5 5 5 5 5 5 
4 3 2 0 0 0 0 0 0 0 8 19 32 45 54 59 
57 49 39 27 16 8 10 8 8 8 9 10 12 13 14 14 
14 15 14 14 14 13 12 11 11 10 9 8 7 7 6 0 0 0 0 1 1 2 2 3 3 4 4 4 4 4 4 4 
3 3 2 1 0 0 0 0 1 7 16 27 40 53 63 68 
66 58 46 34 24 16 11 11 10 10 10 11 11 12 13 13 
13 14 13 13 13 12 11 11 10 9 8 8 7 6 6 0 0 0 0 1 1 1 2 2 3 3 3 3 3 3 3 3 
3 2 2 1 1 1 1 3 8 12 20 29 41 52 61 65 
63 55 45 35 27 21 17 13 11 11 11 11 11 12 12 12 
13 13 12 12 12 11 11 10 9 9 8 7 7 6 5 0 0 0 0 0 1 1 1 2 2 2 3 3 3 3 3 3 
2 2 2 2 2 2 3 5 13 16 21 27 35 43 48 51 
49 44 37 31 27 24 22 14 12 11 11 11 11 11 12 12 
12 12 12 11 11 10 10 9 9 8 7 7 6 6 5 0 0 0 0 0 1 1 1 1 2 2 2 2 2 2 2 2 
2 2 2 3 3 4 5 7 17 18 20 22 25 28 29 30 
29 27 25 25 25 26 27 15 13 12 12 11 11 11 11 11 
11 11 11 10 10 10 9 9 8 7 7 6 6 5 5 0 0 0 0 0 0 1 1 1 1 1 2 2 2 2 2 2 
2 3 3 4 5 6 7 9 22 21 20 19 17 14 12 11 
11 13 15 19 24 28 32 16 15 13 13 12 11 11 11 11 
11 10 10 10 9 9 9 8 7 7 6 6 5 5 4 0 0 0 0 0 0 0 1 1 1 1 1 1 1 2 2 2 
2 3 4 5 6 8 10 12 28 26 23 18 13 8 4 1 
2 6 12 19 26 32 38 18 17 15 14 13 12 11 11 10 
10 10 9 9 9 8 8 7 7 6 6 5 5 4 4 0 0 0 0 0 0 0 0 1 1 1 1 1 1 1 2 2 
3 4 5 6 8 10 13 16 34 32 28 23 17 11 5 3 
4 8 15 24 32 39 45 22 19 17 15 13 12 11 10 10 
9 9 9 8 8 7 7 7 6 6 5 5 5 4 4 0 0 0 0 0 0 0 0 0 0 0 1 1 1 1 2 2 
3 4 6 8 10 13 16 20 24 39 36 31 25 20 15 13 
14 19 25 33 41 48 30 26 22 19 16 14 13 11 10 9 
9 8 8 7 7 7 6 6 6 5 5 5 4 4 3 0 0 0 0 0 0 0 0 0 0 0 0 0 1 1 2 2 
4 5 7 9 12 15 20 24 30 36 45 41 37 33 30 28 
30 33 39 45 51 43 37 31 26 22 18 15 13 11 10 9 
8 8 7 7 6 6 6 5 5 5 4 4 4 3 3 0 0 0 0 0 0 0 0 0 0 0 0 0 1 1 2 3 
4 6 8 10 14 18 23 29 36 43 52 52 49 47 45 44 
95 92 86 78 68 57 44 36 29 24 19 16 13 11 9 8 
7 7 6 6 6 5 5 5 4 4 4 4 3 3 3 0 0 0 0 0 0 0 0 0 0 0 0 0 1 1 2 3 
4 6 9 12 16 20 26 33 41 51 64 76 88 98 106 110 
110 106 99 89 77 65 52 41 32 26 20 16 13 11 9 8 
7 6 5 5 5 5 4 4 4 4 3 3 3 3 2 0 0 0 0 0 0 0 0 0 0 0 0 0 1 1 2 3 
5 7 9 13 17 22 29 37 46 57 71 85 98 109 118 122 
123 118 110 98 84 70 56 44 34 26 20 16 12 10 8 7 
6 5 5 4 4 4 4 3 3 3 3 3 2 2 2 0 0 0 0 0 0 0 0 0 0 0 0 0 1 1 2 3 
5 7 10 13 18 23 30 39 50 61 76 90 104 117 126 131 
131 126 116 103 88 73 58 44 33 26 20 15 11 9 7 6 
5 4 4 3 3 3 3 3 3 3 2 2 2 2 2 0 0 0 0 0 0 0 0 0 0 0 0 0 0 1 2 3 
5 7 10 13 18 24 31 40 49 63 77 92 107 119 129 134 
133 127 117 103 87 71 56 43 31 25 18 13 10 8 6 5 
4 3 3 3 2 2 2 2 2 2 2 2 2 2 1 0 0 0 0 0 0 0 0 0 0 0 0 0 0 1 2 3 
5 7 10 13 18 23 30 39 48 61 76 90 104 116 125 129 
128 122 111 97 82 66 52 39 28 22 16 11 8 6 4 3 
3 2 2 2 2 2 2 2 2 1 1 1 1 1 1 0 0 0 0 0 0 0 0 0 0 0 0 0 0 1 2 3 
5 7 9 12 17 22 29 37 45 57 70 84 96 107 115 118 
116 110 99 86 72 57 44 33 23 15 12 9 6 4 3 2 
1 1 1 1 1 1 1 1 1 1 1 1 1 1 1 0 0 0 0 0 0 0 0 0 0 0 0 0 0 1 2 3 
4 6 8 11 15 20 26 33 40 50 62 73 84 93 99 101 
99 92 82 71 58 45 34 25 17 11 9 6 3 2 1 1 
0 0 0 0 0 0 0 1 1 1 1 1 1 1 1 0 0 0 0 0 0 0 0 0 0 0 0 0 0 1 1 2 
3 5 7 10 13 17 22 28 33 42 51 60 69 75 79 80 
77 71 62 52 42 32 23 16 10 5 4 2 1 0 0 0 
0 0 0 0 0 0 0 0 0 0 0 0 0 0 0 0 0 0 0 0 0 0 0 0 0 0 0 0 0 0 1 2 
3 4 6 8 11 14 18 23 26 33 40 46 52 56 58 57 
54 49 42 34 26 18 12 7 3 2 0 0 0 0 0 0 
0 0 0 0 0 0 0 0 0 0 0 0 0 0 0 0 0 0 0 0 0 0 0 0 0 0 0 0 0 0 1 1 
2 3 5 6 8 11 14 17 22 24 28 32 36 37 38 36 
33 28 22 17 11 6 2 0 0 0 0 0 0 0 0 0 
0 0 0 0 0 0 0 0 0 0 0 0 0 0 0 0 0 0 0 0 0 0 0 0 0 0 0 0 0 0 0 1 
1 2 3 5 6 8 10 12 15 15 18 20 21 21 20 18 
15 11 6 2 0 0 0 0 0 0 0 0 0 0 0 0 
0 0 0 0 0 0 0 0 0 0 0 0 0 0 0 0 0 0 0 0 0 0 0 0 0 0 0 0 0 0 0 0 
1 1 2 3 4 5 6 7 9 10 9 9 9 8 6 4 
1 0 0 0 0 0 0 0 0 0 0 0 0 0 0 0 
0 0 0 0 0 0 0 0 0 0 0 0 0 0 0 0 0 0 0 0 0 0 0 0 0 0 0 0 0 0 0 0 
0 0 1 1 2 3 3 4 4 4 4 2 0 0 0 0 
0 0 0 0 0 0 0 0 0 0 0 0 0 0 0 0 
0 0 0 0 0 0 0 0 0 0 0 0 0 0 0 0 0 0 0 0 0 0 0 0 0 0 0 0 0 0 0 0 
0 0 0 0 0 0 1 1 0 0 0 0 0 0 0 0 
0 0 0 0 0 0 0 0 0 0 0 0 0 0 0 0 
0 0 0 0 0 0 0 0 0 0 0 0 0 0 0 0 0 0 0 0 0 0 0 0 0 0 0 0 0 0 0 0 
0 0 0 0 0 0 0 0 0 0 0 0 0 0 0 0 
0 0 0 0 0 0 0 0 0 0 0 0 0 0 0 0 
0 0 0 0 0 0 0 0 0 0 0 0 0 0 0 0 0 0 0 0 0 0 0 0 0 0 0 0 0 0 0 0 
0 0 0 0 0 0 0 0 0 0 0 0 0 0 0 0 
0 0 0 0 0 0 0 0 0 0 0 0 0 0 0 0 
0 0 0 0 0 0 0 0 0 0 0 0 0 0 0 0 0 0 0 0 0 0 0 0 0 0 0 0 0 0 0 0 
0 0 0 0 0 0 0 0 0 0 0 0 0 0 0 0 
0 0 0 0 0 0 0 0 0 0 0 0 0 0 0 0 
0 0 0 0 0 0 0 0 0 0 0 0 0 0 0 