P2
# Created by IrfanView
64 64
255
0 0 0 0 0 0 0 0 0 0 0 0 0 0 0 0 0 
0 0 0 0 0 0 0 0 1 1 1 2 2 2 2 2 
2 2 2 2 2 1 1 1 0 0 0 0 0 0 0 0 
0 0 0 0 0 0 0 0 0 0 0 0 0 0 0 0 0 0 0 0 0 0 0 0 0 0 0 0 0 0 0 0 
0 0 0 0 0 0 1 1 1 2 2 2 3 3 3 3 
3 3 3 3 3 2 2 2 1 0 0 0 0 0 0 0 
0 0 0 0 0 0 0 0 0 0 0 0 0 0 0 0 0 0 0 0 0 0 0 0 0 0 0 0 0 0 0 0 
0 0 0 0 0 1 1 2 2 3 3 3 3 4 4 4 
4 4 4 4 4 3 3 3 2 1 1 0 0 0 0 0 
0 0 0 0 0 0 0 0 0 0 0 0 0 0 0 0 0 0 0 0 0 0 0 0 0 0 0 0 0 0 0 0 
0 0 0 1 1 2 2 2 3 3 4 4 4 5 5 5 
5 5 5 5 5 5 4 4 3 3 2 1 0 0 0 0 
0 0 0 0 0 0 0 0 0 0 0 0 0 0 0 0 0 0 0 0 0 0 0 0 0 0 0 0 0 0 0 0 
0 0 1 1 2 2 3 3 4 4 5 5 5 6 6 6 
6 6 6 6 6 6 6 5 5 4 4 3 2 1 0 0 
0 0 0 0 0 0 0 0 0 0 0 0 0 0 0 0 0 0 0 0 0 0 0 0 0 0 0 0 0 0 0 0 
1 1 2 2 3 3 4 4 5 5 5 6 6 7 7 7 
7 8 8 8 8 7 7 7 6 6 5 5 4 3 2 0 
0 0 0 0 0 0 0 0 0 0 0 0 0 0 0 0 0 0 0 0 0 0 0 0 0 0 0 0 0 0 1 1 
2 2 3 3 4 4 5 5 5 6 6 7 7 8 8 8 
9 9 9 9 9 9 9 9 8 8 7 7 6 5 4 3 
1 0 0 0 0 0 0 0 0 0 0 0 0 0 0 0 0 0 0 0 0 0 0 0 0 0 0 1 1 2 2 3 
3 3 4 4 5 5 5 6 6 7 7 8 8 9 9 10 
10 10 11 11 11 11 11 10 10 10 9 9 8 7 6 5 
4 2 1 0 0 0 0 0 0 0 0 0 0 0 0 0 0 0 0 0 0 0 0 0 0 1 1 2 2 3 3 4 
4 5 5 5 5 6 6 6 7 7 8 8 9 9 10 11 
11 12 12 12 12 12 12 12 12 12 11 11 10 10 9 8 
6 5 4 2 1 0 0 0 0 0 0 0 0 0 0 0 0 0 0 0 0 0 1 1 2 2 3 3 4 4 5 5 
6 6 6 6 6 6 6 7 7 7 8 8 9 10 11 11 
12 13 13 13 13 14 14 14 14 14 14 13 13 12 11 10 
9 8 7 5 4 3 2 1 0 0 0 0 0 0 0 0 0 0 0 1 1 2 2 3 3 4 4 5 5 6 6 7 
7 7 7 7 7 7 6 6 6 7 7 8 9 10 11 11 
12 13 13 14 14 15 15 15 15 16 16 16 15 15 14 13 
12 11 10 9 7 6 5 4 3 2 1 0 0 0 0 0 0 0 1 1 2 3 3 4 4 5 6 6 7 7 8 8 
8 8 8 7 7 6 6 5 5 5 5 6 7 8 9 10 
11 12 13 14 14 15 16 16 17 17 18 18 18 18 17 17 
16 14 13 12 11 9 8 7 6 5 4 3 2 2 1 0 0 0 1 2 3 4 4 5 6 6 7 8 8 9 9 9 
9 9 8 7 7 5 4 3 3 2 2 18 19 20 21 22 
23 23 24 12 13 14 15 17 18 19 20 20 20 20 20 20 
19 18 17 15 14 12 11 10 9 7 6 5 5 4 3 0 0 0 2 3 4 5 5 6 7 8 8 9 10 10 10 10 
10 9 8 7 6 4 2 0 0 0 11 10 10 11 12 13 
15 16 17 18 19 12 14 16 18 19 21 22 23 23 23 23 
22 21 20 18 17 16 14 13 11 10 9 8 7 6 5 0 0 0 2 3 4 5 6 7 8 9 10 10 11 11 11 11 
11 10 8 6 4 1 0 0 4 2 0 0 0 0 0 0 
1 3 6 9 11 13 11 14 17 19 22 23 25 25 26 26 
25 24 23 21 20 18 17 15 14 13 11 10 9 8 7 0 0 0 2 3 5 6 7 8 9 10 11 12 12 12 13 12 
11 10 8 5 2 0 0 0 0 0 0 0 0 0 0 0 
0 0 0 0 0 3 7 10 14 18 22 24 26 27 28 28 
28 27 26 24 23 21 20 18 16 15 14 12 11 10 9 0 0 0 2 4 5 6 8 9 10 11 12 13 13 13 13 13 
12 10 7 3 0 0 0 0 0 0 0 0 0 0 0 0 
0 0 0 0 0 0 0 3 10 16 21 24 27 29 30 30 
30 29 28 27 25 23 22 20 18 17 15 14 13 11 10 0 0 0 2 4 5 7 8 9 11 12 13 13 14 14 14 13 
12 9 6 1 0 0 0 0 0 0 0 0 0 0 0 0 
0 0 0 0 0 0 0 0 4 13 19 24 27 30 31 32 
32 31 30 29 27 25 24 22 20 18 17 15 14 12 11 0 0 0 2 4 5 7 8 10 11 12 13 14 15 15 15 14 
12 8 4 0 0 0 0 0 0 0 0 0 0 0 0 0 
0 0 0 0 0 0 0 0 0 8 16 23 27 30 32 33 
33 33 32 30 29 27 25 23 21 19 18 16 15 13 12 0 0 0 1 3 5 7 8 10 11 13 14 15 15 15 15 14 
11 7 2 0 0 0 0 0 0 0 0 0 0 0 0 0 
0 0 0 0 0 0 0 0 0 2 13 21 26 30 33 34 
34 34 33 31 30 28 26 24 22 20 18 17 15 14 13 0 0 0 1 3 5 7 8 10 11 13 14 15 15 16 15 13 
11 6 0 0 0 0 0 0 0 0 0 0 0 0 0 0 
0 0 0 0 0 0 0 0 0 0 9 18 25 30 33 34 
35 34 33 32 30 28 26 24 22 21 19 17 16 14 13 0 0 0 1 3 5 7 8 10 11 13 14 15 15 16 15 13 
10 5 0 0 0 0 0 0 0 0 0 0 0 0 0 0 
0 0 0 0 0 0 0 0 0 0 5 16 24 29 32 34 
35 34 33 32 30 28 26 24 22 21 19 17 16 14 13 0 0 0 1 3 5 7 8 10 11 13 14 15 15 15 15 13 
9 4 0 0 0 0 0 0 0 0 0 0 0 0 0 0 
0 0 0 0 0 0 0 0 0 0 1 13 22 28 31 33 
34 34 33 32 30 28 26 24 22 20 19 17 15 14 13 0 0 0 1 3 5 6 8 9 11 12 13 14 15 15 14 12 
9 3 0 0 0 0 0 0 0 0 0 0 0 0 0 0 
0 0 0 0 0 0 0 0 0 0 0 11 20 26 30 32 
33 33 32 31 29 27 26 24 22 20 18 17 15 14 12 0 0 0 1 3 4 6 7 9 10 12 13 14 14 14 14 12 
8 3 0 0 0 0 0 0 0 0 0 0 0 0 0 0 
0 0 0 0 0 0 0 0 0 0 0 9 18 24 28 31 
32 32 31 30 28 27 25 23 21 19 18 16 15 13 12 0 0 0 1 2 4 5 7 8 10 11 12 13 14 14 13 11 
7 2 0 0 0 0 0 0 0 0 0 0 0 0 0 0 
0 0 0 0 0 0 0 0 0 0 0 7 16 22 26 29 
30 30 30 29 27 25 24 22 20 18 17 15 14 13 11 0 0 0 1 2 4 5 7 8 9 11 12 13 13 13 12 10 
7 2 0 0 0 0 0 0 0 0 0 0 0 0 0 0 
0 0 0 0 0 0 0 0 0 0 0 6 14 20 25 27 
28 29 28 27 26 24 22 21 19 18 16 15 13 12 11 0 0 0 0 2 3 5 6 7 9 10 11 12 12 12 11 9 
6 1 0 0 0 0 0 0 0 0 0 0 0 0 0 0 
0 0 0 0 0 0 0 0 0 0 0 5 13 19 23 25 
26 27 26 25 24 23 21 20 18 17 15 14 13 11 10 0 0 0 0 2 3 4 5 7 8 9 10 11 11 11 10 9 
6 1 0 0 0 0 0 0 0 0 0 0 0 0 0 0 
0 0 0 0 0 0 0 0 0 0 0 5 12 17 21 23 
24 25 24 24 22 21 20 18 17 16 14 13 12 11 10 0 0 0 0 1 3 4 5 6 7 8 9 10 10 10 9 8 
5 1 0 0 0 0 0 0 0 0 0 0 0 0 0 0 
0 0 0 0 0 0 0 0 0 0 0 5 11 16 19 21 
22 23 22 22 21 20 18 17 16 14 13 12 11 10 9 0 0 0 0 1 2 3 5 6 7 7 8 9 9 9 8 7 
5 1 0 0 0 0 0 0 0 0 0 0 0 0 0 0 
0 0 0 0 0 0 0 0 0 0 0 5 10 14 17 19 
20 21 21 20 19 18 17 16 15 14 12 11 10 9 8 0 0 0 0 1 2 3 4 5 6 7 7 8 8 8 7 6 
4 1 0 0 0 0 0 0 0 0 0 0 0 0 0 0 
0 0 0 0 0 0 0 0 0 0 0 6 10 13 16 18 
19 19 19 18 18 17 16 15 14 13 12 11 10 9 8 0 0 0 0 1 2 3 4 4 5 6 7 7 7 7 6 5 
4 1 0 0 0 0 0 0 0 0 0 0 0 0 0 0 
0 0 0 0 0 0 0 0 0 0 2 6 10 13 15 16 
17 17 17 17 16 16 15 14 13 12 11 10 9 8 7 0 0 0 0 1 2 2 3 4 5 5 6 6 6 6 6 5 
3 1 0 0 0 0 0 0 0 0 0 0 0 0 0 0 
0 0 0 0 0 0 0 0 0 0 3 7 10 12 14 15 
16 16 16 16 15 14 14 13 12 11 10 9 8 8 7 0 0 0 0 1 1 2 3 3 4 5 5 5 5 5 5 4 
3 1 0 0 0 0 0 0 0 0 0 0 0 0 0 2 
1 0 0 0 0 0 0 0 0 2 5 7 10 11 13 14 
14 15 15 14 14 13 13 12 11 10 9 9 8 7 6 0 0 0 0 1 1 2 2 3 3 4 4 5 5 5 4 4 
3 1 0 0 0 0 0 0 0 0 0 0 5 12 17 20 
19 15 10 4 5 3 2 2 3 5 6 8 10 11 12 13 
13 14 14 13 13 12 12 11 10 9 9 8 7 7 6 0 0 0 0 0 1 1 2 3 3 3 4 4 4 4 4 3 
2 1 0 0 0 0 0 0 0 1 2 10 18 26 32 35 
34 29 23 16 9 11 8 7 7 7 8 9 10 11 12 12 
13 13 13 12 12 11 11 10 10 9 8 7 7 6 6 0 0 0 0 0 1 1 2 2 2 3 3 3 3 3 3 3 
2 2 1 0 0 0 0 1 3 5 11 19 27 35 41 44 
43 38 32 25 18 13 12 10 9 9 9 9 10 11 11 12 
12 12 12 11 11 11 10 10 9 8 8 7 6 6 5 0 0 0 0 0 1 1 1 2 2 2 3 3 3 3 3 2 
2 2 2 1 1 1 2 4 7 12 17 24 31 38 44 46 
45 41 36 30 24 20 15 13 11 10 10 10 10 11 11 11 
11 11 11 11 10 10 9 9 8 8 7 7 6 5 5 0 0 0 0 0 1 1 1 1 2 2 2 2 2 2 2 2 
2 2 2 2 3 3 5 7 10 18 22 26 32 37 40 42 
41 39 35 31 28 26 18 15 13 12 11 11 11 11 11 11 
11 10 10 10 10 9 9 8 8 7 7 6 6 5 5 0 0 0 0 0 0 1 1 1 1 1 2 2 2 2 2 2 
2 3 3 3 4 5 7 9 13 23 25 27 30 32 34 34 
34 33 32 31 31 31 20 17 15 13 12 11 11 11 10 10 
10 10 10 9 9 9 8 8 7 7 6 6 5 5 4 0 0 0 0 0 0 0 1 1 1 1 1 1 2 2 2 2 
3 3 4 5 6 8 10 12 16 28 28 28 28 28 28 27 
28 28 30 32 34 36 22 19 17 15 13 12 11 11 10 10 
10 9 9 9 8 8 7 7 7 6 6 5 5 4 4 0 0 0 0 0 0 0 0 1 1 1 1 1 1 2 2 2 
3 4 5 6 8 10 12 16 19 33 32 31 29 27 25 25 
25 27 30 34 38 42 25 22 19 17 15 13 12 11 10 10 
9 9 8 8 8 7 7 7 6 6 5 5 4 4 4 0 0 0 0 0 0 0 0 0 0 1 1 1 1 2 2 3 
3 4 6 8 10 12 16 19 24 28 38 36 33 30 28 28 
29 31 35 40 44 34 30 26 22 19 16 14 12 11 10 9 
9 8 8 7 7 7 6 6 6 5 5 4 4 4 3 0 0 0 0 0 0 0 0 0 0 0 1 1 1 2 2 3 
4 5 7 9 12 15 19 24 29 35 45 43 41 38 36 36 
37 39 43 48 53 42 36 31 26 21 18 15 13 11 10 9 
8 8 7 7 6 6 6 5 5 5 4 4 4 3 3 0 0 0 0 0 0 0 0 0 0 0 0 1 1 2 2 3 
4 6 8 11 14 18 23 29 35 43 51 52 50 48 47 47 
93 90 84 76 66 55 44 36 29 24 19 16 13 11 10 8 
8 7 6 6 6 5 5 5 4 4 4 4 3 3 3 0 0 0 0 0 0 0 0 0 0 0 0 1 1 2 2 3 
5 7 9 12 16 21 26 33 42 51 64 77 89 99 106 111 
111 107 100 90 78 65 53 42 33 26 21 17 13 11 9 8 
7 6 6 5 5 5 4 4 4 4 3 3 3 3 2 0 0 0 0 0 0 0 0 0 0 0 0 1 1 2 3 4 
5 7 10 13 18 23 30 38 48 60 74 89 102 114 123 128 
129 124 115 103 89 74 59 46 36 28 22 17 13 11 9 7 
6 5 5 5 4 4 4 4 3 3 3 3 3 2 2 0 0 0 0 0 0 0 0 0 0 0 0 0 1 2 3 4 
6 8 11 14 19 25 32 42 53 67 82 98 114 127 138 143 
143 138 127 113 96 80 63 49 36 29 22 16 13 10 8 6 
5 5 4 4 3 3 3 3 3 3 3 2 2 2 2 0 0 0 0 0 0 0 0 0 0 0 0 0 1 2 3 4 
6 8 11 15 20 26 34 44 55 71 87 104 121 136 147 153 
153 146 134 118 100 82 65 49 36 25 21 15 11 9 7 5 
4 4 3 3 3 3 2 2 2 2 2 2 2 2 2 0 0 0 0 0 0 0 0 0 0 0 0 0 1 2 3 4 
6 8 11 15 20 26 34 45 56 72 89 106 124 139 150 155 
154 147 134 117 99 80 62 47 34 23 19 13 10 7 5 4 
3 3 2 2 2 2 2 2 2 2 2 2 1 1 1 0 0 0 0 0 0 0 0 0 0 0 0 0 1 1 2 4 
5 8 11 14 19 25 34 41 55 70 86 103 120 134 144 148 
146 138 126 109 91 72 56 41 29 20 16 11 7 5 4 3 
2 2 1 1 1 1 1 1 1 1 1 1 1 1 1 0 0 0 0 0 0 0 0 0 0 0 0 0 1 1 2 3 
5 7 10 13 18 24 31 38 51 64 79 95 109 122 130 133 
130 122 109 94 77 61 46 33 23 15 11 7 5 3 2 1 
1 1 1 1 1 1 1 1 1 1 1 1 1 1 1 0 0 0 0 0 0 0 0 0 0 0 0 0 0 1 2 3 
5 6 9 12 16 21 28 34 44 56 69 82 94 103 109 110 
107 99 87 74 59 46 33 23 15 9 7 4 2 1 0 0 
0 0 0 0 0 0 0 0 0 0 0 0 1 1 1 0 0 0 0 0 0 0 0 0 0 0 0 0 0 1 2 3 
4 5 8 10 14 18 24 28 36 46 56 66 74 81 85 84 
80 72 62 51 40 29 20 12 7 3 2 0 0 0 0 0 
0 0 0 0 0 0 0 0 0 0 0 0 0 0 0 0 0 0 0 0 0 0 0 0 0 0 0 0 0 1 1 2 
3 4 6 8 11 14 19 24 28 35 42 48 54 58 59 57 
52 45 37 28 20 13 7 2 0 0 0 0 0 0 0 0 
0 0 0 0 0 0 0 0 0 0 0 0 0 0 0 0 0 0 0 0 0 0 0 0 0 0 0 0 0 0 1 1 
2 3 5 6 8 11 14 17 19 24 28 32 34 35 34 31 
27 21 14 8 3 0 0 0 0 0 0 0 0 0 0 0 
0 0 0 0 0 0 0 0 0 0 0 0 0 0 0 0 0 0 0 0 0 0 0 0 0 0 0 0 0 0 0 1 
1 2 3 4 6 7 9 11 12 14 16 17 18 16 14 10 
6 1 0 0 0 0 0 0 0 0 0 0 0 0 0 0 
0 0 0 0 0 0 0 0 0 0 0 0 0 0 0 0 0 0 0 0 0 0 0 0 0 0 0 0 0 0 0 0 
1 1 2 3 3 4 5 6 7 6 6 6 4 2 0 0 
0 0 0 0 0 0 0 0 0 0 0 0 0 0 0 0 
0 0 0 0 0 0 0 0 0 0 0 0 0 0 0 0 0 0 0 0 0 0 0 0 0 0 0 0 0 0 0 0 
0 0 1 1 1 2 2 2 2 1 0 0 0 0 0 0 
0 0 0 0 0 0 0 0 0 0 0 0 0 0 0 0 
0 0 0 0 0 0 0 0 0 0 0 0 0 0 0 0 0 0 0 0 0 0 0 0 0 0 0 0 0 0 0 0 
0 0 0 0 0 0 0 0 0 0 0 0 0 0 0 0 
0 0 0 0 0 0 0 0 0 0 0 0 0 0 0 0 
0 0 0 0 0 0 0 0 0 0 0 0 0 0 0 0 0 0 0 0 0 0 0 0 0 0 0 0 0 0 0 0 
0 0 0 0 0 0 0 0 0 0 0 0 0 0 0 0 
0 0 0 0 0 0 0 0 0 0 0 0 0 0 0 0 
0 0 0 0 0 0 0 0 0 0 0 0 0 0 0 0 0 0 0 0 0 0 0 0 0 0 0 0 0 0 0 0 
0 0 0 0 0 0 0 0 0 0 0 0 0 0 0 0 
0 0 0 0 0 0 0 0 0 0 0 0 0 0 0 0 
0 0 0 0 0 0 0 0 0 0 0 0 0 0 0 0 0 0 0 0 0 0 0 0 0 0 0 0 0 0 0 0 
0 0 0 0 0 0 0 0 0 0 0 0 0 0 0 0 
0 0 0 0 0 0 0 0 0 0 0 0 0 0 0 0 
0 0 0 0 0 0 0 0 0 0 0 0 0 0 0 