P2
# Created by IrfanView
64 64
255
0 0 0 0 0 0 0 0 0 0 0 0 0 0 0 0 0 
0 0 0 0 0 0 0 0 0 1 1 1 1 1 2 2 
2 2 2 2 1 1 1 0 0 0 0 0 0 0 0 0 
0 0 0 0 0 0 0 0 0 0 0 0 0 0 0 0 0 0 0 0 0 0 0 0 0 0 0 0 0 0 0 0 
0 0 0 0 0 0 0 1 1 1 1 2 2 2 2 2 
2 2 2 2 2 2 2 1 1 0 0 0 0 0 0 0 
0 0 0 0 0 0 0 0 0 0 0 0 0 0 0 0 0 0 0 0 0 0 0 0 0 0 0 0 0 0 0 0 
0 0 0 0 0 0 1 1 1 2 2 2 2 3 3 3 
3 3 3 3 3 3 2 2 2 1 1 0 0 0 0 0 
0 0 0 0 0 0 0 0 0 0 0 0 0 0 0 0 0 0 0 0 0 0 0 0 0 0 0 0 0 0 0 0 
0 0 0 0 1 1 1 2 2 2 3 3 3 3 3 4 
4 4 4 4 4 4 3 3 3 2 2 1 0 0 0 0 
0 0 0 0 0 0 0 0 0 0 0 0 0 0 0 0 0 0 0 0 0 0 0 0 0 0 0 0 0 0 0 0 
0 0 0 1 1 1 2 2 2 3 3 3 4 4 4 4 
5 5 5 5 5 5 4 4 4 3 3 2 2 1 0 0 
0 0 0 0 0 0 0 0 0 0 0 0 0 0 0 0 0 0 0 0 0 0 0 0 0 0 0 0 0 0 0 0 
0 1 1 1 2 2 2 3 3 3 4 4 4 5 5 5 
5 5 6 6 6 6 5 5 5 5 4 4 3 2 1 1 
0 0 0 0 0 0 0 0 0 0 0 0 0 0 0 0 0 0 0 0 0 0 0 0 0 0 0 0 0 0 1 1 
1 2 2 2 2 3 3 3 3 4 4 4 5 5 5 6 
6 6 6 7 7 7 7 7 6 6 6 5 5 4 3 2 
1 0 0 0 0 0 0 0 0 0 0 0 0 0 0 0 0 0 0 0 0 0 0 0 0 0 0 0 1 1 1 2 
2 2 3 3 3 3 3 3 4 4 4 4 5 5 6 6 
6 7 7 7 7 8 8 8 8 7 7 7 6 6 5 4 
3 2 1 0 0 0 0 0 0 0 0 0 0 0 0 0 0 0 0 0 0 0 0 0 0 1 1 1 2 2 2 3 
3 3 3 3 3 3 3 3 3 4 4 4 5 5 6 6 
7 7 7 8 8 8 9 9 9 9 9 9 8 8 7 6 
5 5 3 2 1 0 0 0 0 0 0 0 0 0 0 0 0 0 0 0 0 0 1 1 1 2 2 3 3 3 3 4 
4 4 4 4 4 3 3 3 3 3 3 3 4 4 5 5 
6 7 7 8 8 9 9 10 10 10 10 10 10 10 9 9 
8 7 6 5 4 3 2 1 0 0 0 0 0 0 0 0 0 0 0 0 1 1 1 2 2 3 3 4 4 4 5 5 
5 5 4 4 3 3 3 2 2 1 1 2 2 2 3 4 
5 5 6 7 8 9 9 10 11 11 12 12 12 12 12 11 
10 9 9 7 6 5 4 3 3 2 1 1 0 0 0 0 0 0 0 1 1 2 2 3 3 4 4 5 5 5 5 5 
5 5 5 4 3 2 1 0 0 0 0 0 0 0 0 1 
2 3 4 5 7 8 9 10 11 12 13 14 14 14 14 13 
13 12 11 10 9 8 7 6 5 4 3 3 2 2 1 0 0 0 1 1 2 3 3 4 4 5 5 6 6 6 6 6 
6 5 5 3 2 1 0 0 0 0 0 0 0 12 12 13 
14 15 0 2 4 6 8 9 11 13 14 15 16 16 16 16 
15 15 14 13 12 11 10 8 7 7 6 5 4 4 3 0 0 0 1 2 3 3 4 5 5 6 7 7 7 7 7 7 
6 5 4 3 1 0 0 0 0 0 4 3 2 1 1 2 
4 6 8 10 0 2 5 8 10 12 14 16 17 18 18 18 
18 17 16 15 14 13 12 11 10 9 8 7 6 5 5 0 0 0 1 2 3 4 5 6 6 7 7 8 8 8 8 7 
7 5 3 1 0 0 0 0 0 0 0 0 0 0 0 0 
0 0 0 0 3 7 0 4 8 11 14 16 18 19 20 20 
20 19 19 18 17 15 14 13 12 11 10 9 8 7 6 0 0 0 1 2 3 4 5 6 7 8 8 9 9 9 9 8 
7 5 2 0 0 0 0 0 0 0 0 0 0 0 0 0 
0 0 0 0 0 0 2 0 5 9 13 16 19 20 21 22 
22 22 21 20 19 18 16 15 14 13 11 10 9 8 7 0 0 0 1 2 4 5 6 7 8 8 9 9 10 10 9 8 
6 4 1 0 0 0 0 0 0 0 0 0 0 0 0 0 
0 0 0 0 0 0 0 0 0 6 12 16 19 21 23 23 
24 23 23 22 21 19 18 17 15 14 13 12 11 10 9 0 0 0 1 2 4 5 6 7 8 9 10 10 10 10 9 8 
6 3 0 0 0 0 0 0 0 0 0 0 0 0 0 0 
0 0 0 0 0 0 0 0 0 2 9 15 19 22 23 25 
25 25 24 23 22 21 20 18 17 15 14 13 12 11 10 0 0 0 1 2 4 5 6 7 9 9 10 10 11 10 9 8 
6 2 0 0 0 0 0 0 0 0 0 0 0 0 0 0 
0 0 0 0 0 0 0 0 0 0 6 13 18 21 24 25 
26 26 25 25 23 22 21 19 18 16 15 14 13 11 10 0 0 0 1 2 4 5 7 8 9 10 10 11 11 10 9 8 
5 1 0 0 0 0 0 0 0 0 0 0 0 0 0 0 
0 0 0 0 0 0 0 0 0 0 3 11 17 21 24 26 
27 27 26 25 24 23 22 20 19 17 16 14 13 12 11 0 0 0 1 2 4 5 7 8 9 10 10 11 11 11 9 7 
4 0 0 0 0 0 0 0 0 0 0 0 0 0 0 0 
0 0 0 0 0 0 0 0 0 0 0 8 15 20 24 26 
27 27 27 26 25 23 22 20 19 18 16 15 13 12 11 0 0 0 0 2 4 5 6 8 9 10 10 11 11 10 9 7 
3 0 0 0 0 0 0 0 0 0 0 0 0 0 0 0 
0 0 0 0 0 0 0 0 0 0 0 6 14 19 23 25 
27 27 27 26 25 24 22 21 19 18 16 15 14 12 11 0 0 0 0 2 4 5 6 7 9 10 10 11 11 10 9 6 
3 0 0 0 0 0 0 0 0 0 0 0 0 0 0 0 
0 0 0 0 0 0 0 0 0 0 0 3 12 18 22 25 
26 27 26 26 25 23 22 20 19 18 16 15 13 12 11 0 0 0 0 2 3 5 6 7 8 9 10 10 10 10 8 6 
2 0 0 0 0 0 0 0 0 0 0 0 0 0 0 0 
0 0 0 0 0 0 0 0 0 0 0 1 10 17 21 24 
25 26 26 25 24 23 22 20 19 17 16 14 13 12 11 0 0 0 0 2 3 5 6 7 8 9 10 10 10 9 8 5 
1 0 0 0 0 0 0 0 0 0 0 0 0 0 0 0 
0 0 0 0 0 0 0 0 0 0 0 0 9 15 20 23 
24 25 25 24 23 22 21 20 18 17 15 14 13 12 11 0 0 0 0 2 3 4 5 7 8 9 9 10 9 9 7 5 
1 0 0 0 0 0 0 0 0 0 0 0 0 0 0 0 
0 0 0 0 0 0 0 0 0 0 0 0 8 14 18 21 
23 24 24 23 22 21 20 19 17 16 15 13 12 11 10 0 0 0 0 1 3 4 5 6 7 8 9 9 9 8 7 4 
1 0 0 0 0 0 0 0 0 0 0 0 0 0 0 0 
0 0 0 0 0 0 0 0 0 0 0 0 7 13 17 20 
22 22 23 22 21 20 19 18 17 15 14 13 12 11 10 0 0 0 0 1 2 4 5 6 7 7 8 8 8 8 6 4 
1 0 0 0 0 0 0 0 0 0 0 0 0 0 0 0 
0 0 0 0 0 0 0 0 0 0 0 0 6 12 16 18 
20 21 21 21 20 19 18 17 16 14 13 12 11 10 9 0 0 0 0 1 2 3 4 5 6 7 7 8 8 7 6 4 
0 0 0 0 0 0 0 0 0 0 0 0 0 0 0 0 
0 0 0 0 0 0 0 0 0 0 0 0 6 11 15 17 
19 20 20 19 19 18 17 16 15 14 13 12 11 10 9 0 0 0 0 1 2 3 4 5 6 6 7 7 7 6 5 3 
0 0 0 0 0 0 0 0 0 0 0 0 0 0 0 0 
0 0 0 0 0 0 0 0 0 0 0 0 5 10 14 16 
17 18 18 18 18 17 16 15 14 13 12 11 10 9 8 0 0 0 0 1 2 3 3 4 5 6 6 6 6 6 5 3 
1 0 0 0 0 0 0 0 0 0 0 0 0 0 0 0 
0 0 0 0 0 0 0 0 0 0 0 0 6 10 13 15 
16 17 17 17 16 16 15 14 13 12 11 10 9 8 8 0 0 0 0 1 2 2 3 4 4 5 5 6 6 5 4 3 
1 0 0 0 0 0 0 0 0 0 0 0 0 0 0 0 
0 0 0 0 0 0 0 0 0 0 0 1 6 9 12 14 
15 15 16 16 15 14 14 13 12 11 10 10 9 8 7 0 0 0 0 1 1 2 3 3 4 4 5 5 5 5 4 2 
1 0 0 0 0 0 0 0 0 0 0 0 0 0 0 0 
0 0 0 0 0 0 0 0 0 0 0 3 6 9 11 13 
14 14 14 14 14 13 13 12 11 11 10 9 8 7 7 0 0 0 0 0 1 2 2 3 3 4 4 4 4 4 3 2 
1 0 0 0 0 0 0 0 0 0 0 0 0 0 0 0 
0 0 0 0 0 0 0 0 0 0 1 4 7 9 11 12 
13 13 13 13 13 13 12 11 11 10 9 8 8 7 6 0 0 0 0 0 1 2 2 3 3 3 4 4 4 3 3 2 
1 0 0 0 0 0 0 0 0 0 0 0 0 0 0 0 
0 0 0 0 0 0 0 0 0 0 3 5 7 9 10 11 
12 12 12 12 12 12 11 10 10 9 8 8 7 6 6 0 0 0 0 0 1 1 2 2 3 3 3 3 3 3 3 2 
1 0 0 0 0 0 0 0 0 0 0 0 0 0 2 4 
3 1 3 2 0 0 0 1 2 3 5 6 8 9 10 11 
11 11 12 11 11 11 10 10 9 9 8 7 7 6 5 0 0 0 0 0 1 1 1 2 2 2 3 3 3 3 2 2 
1 0 0 0 0 0 0 0 0 0 1 5 7 12 15 17 
17 15 11 12 9 7 6 5 5 6 6 7 8 9 10 10 
11 11 11 11 10 10 10 9 9 8 7 7 6 6 5 0 0 0 0 0 1 1 1 2 2 2 2 2 2 2 2 2 
1 1 0 0 0 0 0 0 2 5 9 11 17 22 26 27 
27 25 21 17 16 13 10 9 8 8 8 8 9 9 10 10 
10 10 10 10 10 9 9 8 8 7 7 6 6 5 5 0 0 0 0 0 0 1 1 1 1 2 2 2 2 2 2 2 
2 1 1 1 1 2 3 4 7 10 14 19 24 28 32 33 
33 31 28 25 21 17 14 12 11 10 9 9 9 9 10 10 
10 10 10 9 9 9 8 8 7 7 6 6 5 5 4 0 0 0 0 0 0 1 1 1 1 1 2 2 2 2 2 2 
2 2 2 3 3 4 5 8 10 14 21 25 28 32 34 36 
36 34 32 30 28 21 18 15 13 12 11 10 10 10 10 9 
9 9 9 9 8 8 8 7 7 6 6 5 5 5 4 0 0 0 0 0 0 0 1 1 1 1 1 1 2 2 2 2 
2 3 3 4 5 6 8 11 14 18 27 29 31 33 35 36 
36 36 35 34 34 24 21 18 16 14 12 11 11 10 10 9 
9 9 8 8 8 8 7 7 6 6 5 5 5 4 4 0 0 0 0 0 0 0 0 1 1 1 1 1 1 2 2 2 
3 3 4 5 7 9 11 14 18 22 32 33 34 35 36 36 
37 37 38 39 40 28 24 21 18 16 14 12 11 10 10 9 
9 8 8 8 7 7 7 6 6 5 5 5 4 4 4 0 0 0 0 0 0 0 0 0 1 1 1 1 1 2 2 3 
3 4 5 7 9 11 14 18 22 27 32 38 38 38 38 38 
39 40 42 44 38 33 29 25 21 18 15 13 12 11 10 9 
8 8 7 7 7 6 6 6 5 5 5 4 4 4 3 0 0 0 0 0 0 0 0 0 0 0 1 1 1 2 2 3 
4 5 7 9 11 14 18 22 27 33 39 45 44 43 43 43 
44 46 48 51 46 40 35 29 24 20 17 15 13 11 10 9 
8 7 7 7 6 6 6 5 5 5 4 4 4 3 3 0 0 0 0 0 0 0 0 0 0 0 1 1 1 2 2 3 
4 6 8 10 13 17 21 27 33 40 48 56 51 51 50 50 
84 81 76 68 60 50 42 34 28 23 19 16 13 11 10 8 
8 7 6 6 6 5 5 5 4 4 4 4 3 3 3 0 0 0 0 0 0 0 0 0 0 0 0 1 1 2 3 4 
5 7 9 12 15 20 25 32 40 49 59 72 83 92 99 103 
104 100 94 84 73 61 50 40 32 26 20 16 13 11 9 8 
7 6 6 5 5 5 4 4 4 4 3 3 3 3 2 0 0 0 0 0 0 0 0 0 0 0 0 1 1 2 3 4 
5 7 10 13 17 23 29 37 47 58 72 86 99 111 120 124 
125 120 112 100 86 72 58 45 36 28 22 17 13 11 9 7 
6 6 5 5 4 4 4 4 3 3 3 3 3 2 2 0 0 0 0 0 0 0 0 0 0 0 0 1 1 2 3 4 
6 8 11 14 19 25 32 42 53 67 83 99 115 128 139 145 
145 139 129 114 98 81 64 50 37 30 22 17 13 10 8 7 
6 5 4 4 4 3 3 3 3 3 3 2 2 2 2 0 0 0 0 0 0 0 0 0 0 0 0 1 1 2 3 4 
6 8 11 15 20 27 35 46 58 74 91 110 127 143 155 161 
161 154 142 125 106 87 68 52 38 27 22 16 12 9 7 6 
5 4 4 3 3 3 3 3 2 2 2 2 2 2 2 0 0 0 0 0 0 0 0 0 0 0 0 1 1 2 3 4 
6 9 12 16 21 28 37 48 61 78 97 116 136 153 165 171 
170 162 148 130 109 88 69 52 38 26 21 15 11 8 6 5 
4 3 3 2 2 2 2 2 2 2 2 2 2 1 1 0 0 0 0 0 0 0 0 0 0 0 0 1 1 2 3 4 
6 9 12 16 21 28 37 47 62 79 98 118 138 154 166 170 
168 159 145 127 106 84 65 48 34 23 18 13 9 6 5 3 
3 2 2 2 2 1 1 1 1 1 1 1 1 1 1 0 0 0 0 0 0 0 0 0 0 0 0 0 1 2 3 4 
6 8 11 15 20 27 36 45 59 76 94 113 132 147 156 158 
153 145 132 115 95 75 56 41 28 19 11 9 6 4 3 2 
1 1 1 1 1 1 1 1 1 1 1 1 1 1 1 0 0 0 0 0 0 0 0 0 0 0 0 0 1 2 2 4 
5 8 10 14 19 25 33 41 54 69 85 102 118 131 137 136 
130 121 109 95 77 60 44 31 20 13 7 6 3 2 1 0 
0 0 0 0 0 0 0 0 0 1 1 1 1 1 1 0 0 0 0 0 0 0 0 0 0 0 0 0 1 1 2 3 
5 7 9 12 16 22 29 36 47 59 73 86 99 108 111 108 
102 93 83 70 55 41 29 19 11 5 2 1 0 0 0 0 
0 0 0 0 0 0 0 0 0 0 0 0 0 0 0 0 0 0 0 0 0 0 0 0 0 0 0 0 0 1 2 3 
4 6 8 10 14 18 24 29 38 47 57 67 76 81 82 79 
72 63 54 43 31 21 12 6 1 0 0 0 0 0 0 0 
0 0 0 0 0 0 0 0 0 0 0 0 0 0 0 0 0 0 0 0 0 0 0 0 0 0 0 0 0 1 1 2 
3 4 6 8 11 14 19 22 28 34 41 47 52 54 53 48 
42 34 25 16 8 2 0 0 0 0 0 0 0 0 0 0 
0 0 0 0 0 0 0 0 0 0 0 0 0 0 0 0 0 0 0 0 0 0 0 0 0 0 0 0 0 0 1 1 
2 3 4 6 8 10 13 14 18 22 25 28 29 28 25 20 
14 7 0 0 0 0 0 0 0 0 0 0 0 0 0 0 
0 0 0 0 0 0 0 0 0 0 0 0 0 0 0 0 0 0 0 0 0 0 0 0 0 0 0 0 0 0 0 1 
1 2 3 4 5 7 8 10 10 11 12 12 10 7 3 0 
0 0 0 0 0 0 0 0 0 0 0 0 0 0 0 0 
0 0 0 0 0 0 0 0 0 0 0 0 0 0 0 0 0 0 0 0 0 0 0 0 0 0 0 0 0 0 0 0 
0 1 1 2 3 3 4 4 3 2 1 0 0 0 0 0 
0 0 0 0 0 0 0 0 0 0 0 0 0 0 0 0 
0 0 0 0 0 0 0 0 0 0 0 0 0 0 0 0 0 0 0 0 0 0 0 0 0 0 0 0 0 0 0 0 
0 0 0 0 0 0 0 0 0 0 0 0 0 0 0 0 
0 0 0 0 0 0 0 0 0 0 0 0 0 0 0 0 
0 0 0 0 0 0 0 0 0 0 0 0 0 0 0 0 0 0 0 0 0 0 0 0 0 0 0 0 0 0 0 0 
0 0 0 0 0 0 0 0 0 0 0 0 0 0 0 0 
0 0 0 0 0 0 0 0 0 0 0 0 0 0 0 0 
0 0 0 0 0 0 0 0 0 0 0 0 0 0 0 0 0 0 0 0 0 0 0 0 0 0 0 0 0 0 0 0 
0 0 0 0 0 0 0 0 0 0 0 0 0 0 0 0 
0 0 0 0 0 0 0 0 0 0 0 0 0 0 0 0 
0 0 0 0 0 0 0 0 0 0 0 0 0 0 0 0 0 0 0 0 0 0 0 0 0 0 0 0 0 0 0 0 
0 0 0 0 0 0 0 0 0 0 0 0 0 0 0 0 
0 0 0 0 0 0 0 0 0 0 0 0 0 0 0 0 
0 0 0 0 0 0 0 0 0 0 0 0 0 0 0 0 0 0 0 0 0 0 0 0 0 0 0 0 0 0 0 0 
0 0 0 0 0 0 0 0 0 0 0 0 0 0 0 0 
0 0 0 0 0 0 0 0 0 0 0 0 0 0 0 0 
0 0 0 0 0 0 0 0 0 0 0 0 0 0 0 