P2
# Created by IrfanView
64 64
255
0 0 0 0 0 0 0 0 0 0 0 0 0 0 0 0 0 
0 0 0 0 0 0 0 0 0 0 0 1 1 1 1 1 
1 1 1 1 1 1 0 0 0 0 0 0 0 0 0 0 
0 0 0 0 0 0 0 0 0 0 0 0 0 0 0 0 0 0 0 0 0 0 0 0 0 0 0 0 0 0 0 0 
0 0 0 0 0 0 0 0 0 1 1 1 1 1 1 2 
2 2 2 2 1 1 1 1 0 0 0 0 0 0 0 0 
0 0 0 0 0 0 0 0 0 0 0 0 0 0 0 0 0 0 0 0 0 0 0 0 0 0 0 0 0 0 0 0 
0 0 0 0 0 0 0 0 1 1 1 1 2 2 2 2 
2 2 2 2 2 2 2 1 1 1 0 0 0 0 0 0 
0 0 0 0 0 0 0 0 0 0 0 0 0 0 0 0 0 0 0 0 0 0 0 0 0 0 0 0 0 0 0 0 
0 0 0 0 0 0 1 1 1 1 1 2 2 2 2 2 
3 3 3 3 3 3 2 2 2 2 1 1 0 0 0 0 
0 0 0 0 0 0 0 0 0 0 0 0 0 0 0 0 0 0 0 0 0 0 0 0 0 0 0 0 0 0 0 0 
0 0 0 0 0 1 1 1 1 1 2 2 2 2 3 3 
3 3 3 3 3 3 3 3 3 3 2 2 1 1 0 0 
0 0 0 0 0 0 0 0 0 0 0 0 0 0 0 0 0 0 0 0 0 0 0 0 0 0 0 0 0 0 0 0 
0 0 0 1 1 1 1 1 1 2 2 2 2 3 3 3 
3 3 4 4 4 4 4 4 4 3 3 3 2 2 1 0 
0 0 0 0 0 0 0 0 0 0 0 0 0 0 0 0 0 0 0 0 0 0 0 0 0 0 0 0 0 0 0 0 
1 1 1 1 1 1 1 1 1 2 2 2 2 2 3 3 
3 4 4 4 4 4 5 5 5 4 4 4 4 3 3 2 
1 0 0 0 0 0 0 0 0 0 0 0 0 0 0 0 0 0 0 0 0 0 0 0 0 0 0 0 0 1 1 1 
1 1 1 1 1 1 1 1 1 1 1 2 2 2 2 3 
3 3 4 4 5 5 5 5 5 5 5 5 5 5 4 3 
3 2 1 0 0 0 0 0 0 0 0 0 0 0 0 0 0 0 0 0 0 0 0 0 0 0 1 1 1 1 2 2 
2 2 2 2 1 1 1 1 1 1 1 1 1 1 2 2 
2 3 3 4 5 5 5 6 6 6 7 7 6 6 6 5 
5 4 3 2 1 1 0 0 0 0 0 0 0 0 0 0 0 0 0 0 0 0 0 1 1 1 1 2 2 2 2 2 
2 2 2 2 1 1 0 0 0 0 0 0 0 0 0 0 
1 2 2 3 4 5 5 6 7 7 7 8 8 8 7 7 
6 6 5 4 3 3 2 1 1 0 0 0 0 0 0 0 0 0 0 0 0 1 1 1 2 2 2 3 3 3 3 3 
3 2 2 1 1 0 0 0 0 0 0 0 0 0 0 0 
0 0 1 2 3 4 5 6 7 8 8 9 9 9 9 9 
8 8 7 6 6 5 4 3 3 2 1 1 0 0 0 0 0 0 0 0 1 1 2 2 3 3 3 3 4 4 4 3 
3 3 2 1 0 0 0 0 0 0 0 0 0 0 0 0 
0 0 0 0 0 2 4 5 7 8 9 10 10 11 11 11 
10 10 9 8 8 7 6 5 4 4 3 3 2 2 1 0 0 0 0 1 1 2 2 3 3 4 4 4 4 4 4 4 
3 2 1 0 0 0 0 0 0 0 0 0 0 0 0 0 
0 0 0 0 0 0 1 4 6 8 9 10 11 12 12 12 
12 12 11 11 10 9 8 7 6 6 5 4 4 3 3 0 0 0 0 1 2 2 3 4 4 4 5 5 5 5 5 4 
3 2 1 0 0 0 0 0 0 0 0 0 0 0 0 0 
0 0 2 0 0 0 0 1 4 7 9 11 12 13 14 14 
14 14 13 13 12 11 10 9 8 7 7 6 5 5 4 0 0 0 0 1 2 3 4 4 5 5 5 6 6 6 5 4 
3 2 0 0 0 0 0 0 0 0 0 0 0 0 0 0 
0 0 0 0 0 0 0 0 1 5 8 11 13 14 15 15 
16 15 15 14 14 13 12 11 10 9 8 7 7 6 5 0 0 0 0 1 2 3 4 5 5 6 6 6 6 6 5 4 
3 1 0 0 0 0 0 0 0 0 0 0 0 0 0 0 
0 0 0 0 0 0 0 0 0 3 7 10 13 15 16 17 
17 17 17 16 15 15 14 13 12 11 10 9 8 7 6 0 0 0 0 1 3 3 4 5 6 6 7 7 7 6 5 4 
2 0 0 0 0 0 0 0 0 0 0 0 0 0 0 0 
0 0 0 0 0 0 0 0 0 0 5 9 12 15 17 18 
18 18 18 18 17 16 15 14 13 12 11 10 9 8 7 0 0 0 0 1 3 4 5 5 6 7 7 7 7 6 5 4 
2 0 0 0 0 0 0 0 0 0 0 0 0 0 0 0 
0 0 0 0 0 0 0 0 0 0 2 7 12 15 17 18 
19 20 19 19 18 17 16 15 14 13 12 11 10 9 8 0 0 0 0 1 3 4 5 6 6 7 7 7 7 7 5 3 
1 0 0 0 0 0 0 0 0 0 0 0 0 0 0 0 
0 0 0 0 0 0 0 0 0 0 0 5 11 14 17 19 
20 20 20 20 19 18 17 16 15 14 13 12 11 10 9 0 0 0 0 1 3 4 5 6 7 7 7 7 7 6 5 3 
0 0 0 0 0 0 0 0 0 0 0 0 0 0 0 0 
0 0 0 0 0 0 0 0 0 0 0 3 9 14 17 19 
20 21 21 20 20 19 18 17 16 14 13 12 11 10 9 0 0 0 0 1 3 4 5 6 7 7 7 8 7 6 5 2 
0 0 0 0 0 0 0 0 0 0 0 0 0 0 0 0 
0 0 0 0 0 0 0 0 0 0 0 1 8 13 16 19 
20 21 21 21 20 19 18 17 16 15 14 13 11 10 9 0 0 0 0 1 3 4 5 6 7 7 7 7 7 6 5 2 
0 0 0 0 0 0 0 0 0 0 0 0 0 0 0 0 
0 0 0 0 0 0 0 0 0 0 0 0 6 12 16 18 
20 21 21 21 20 19 18 17 16 15 14 13 12 11 10 0 0 0 0 1 3 4 5 6 6 7 7 7 7 6 4 1 
0 0 0 0 0 0 0 0 0 0 0 0 0 0 0 0 
0 0 0 0 0 0 0 0 0 0 0 0 5 11 15 18 
20 21 21 21 20 19 18 17 16 15 14 13 12 11 10 0 0 0 0 1 2 3 5 5 6 7 7 7 7 6 4 1 
0 0 0 0 0 0 0 0 0 0 0 0 0 0 0 0 
0 0 0 0 0 0 0 0 0 0 0 0 3 9 14 17 
19 20 20 20 20 19 18 17 16 15 14 13 11 10 9 0 0 0 0 1 2 3 4 5 6 6 7 7 6 5 3 1 
0 0 0 0 0 0 0 0 0 0 0 0 0 0 0 0 
0 0 0 0 0 0 0 0 0 0 0 0 2 8 13 16 
18 19 20 20 19 18 18 16 15 14 13 12 11 10 9 0 0 0 0 1 2 3 4 5 6 6 6 6 6 5 3 0 
0 0 0 0 0 0 0 0 0 0 0 0 0 0 0 0 
0 0 0 0 0 0 0 0 0 0 0 0 1 7 12 15 
17 18 19 19 18 18 17 16 15 14 13 12 11 10 9 0 0 0 0 1 2 3 4 5 5 6 6 6 5 4 3 0 
0 0 0 0 0 0 0 0 0 0 0 0 0 0 0 0 
0 0 0 0 0 0 0 0 0 0 0 0 1 7 11 14 
16 17 18 18 18 17 16 15 14 13 12 11 10 9 9 0 0 0 0 1 2 3 3 4 5 5 6 5 5 4 2 0 
0 0 0 0 0 0 0 0 0 0 0 0 0 0 0 0 
0 0 0 0 0 0 0 0 0 0 0 0 1 6 10 13 
15 16 17 17 17 16 15 14 14 13 12 11 10 9 8 0 0 0 0 1 2 2 3 4 4 5 5 5 5 4 2 0 
0 0 0 0 0 0 0 0 0 0 0 0 0 0 0 0 
0 0 0 0 0 0 0 0 0 0 0 0 1 6 10 12 
14 15 16 16 16 15 14 14 13 12 11 10 9 9 8 0 0 0 0 1 1 2 3 3 4 4 5 5 4 3 2 0 
0 0 0 0 0 0 0 0 0 0 0 0 0 0 0 0 
0 0 0 0 0 0 0 0 0 0 0 0 1 6 9 12 
13 14 15 15 15 14 14 13 12 11 10 10 9 8 7 0 0 0 0 0 1 2 3 3 4 4 4 4 4 3 2 0 
0 0 0 0 0 0 0 0 0 0 0 0 0 0 0 0 
0 0 0 0 0 0 0 0 0 0 0 0 2 6 9 11 
12 13 14 14 14 13 13 12 11 11 10 9 8 8 7 0 0 0 0 0 1 2 2 3 3 4 4 4 3 3 2 0 
0 0 0 0 0 0 0 0 0 0 0 0 0 0 0 0 
0 0 0 0 0 0 0 0 0 0 0 0 3 6 8 10 
12 12 13 13 13 12 12 11 11 10 9 9 8 7 6 0 0 0 0 0 1 1 2 2 3 3 3 3 3 2 1 0 
0 0 0 0 0 0 0 0 0 0 0 0 0 0 0 0 
0 0 0 0 0 0 0 0 0 0 0 0 3 6 8 10 
11 12 12 12 12 12 11 11 10 9 9 8 7 7 6 0 0 0 0 0 1 1 2 2 2 3 3 3 3 2 1 0 
0 0 0 0 0 0 0 0 0 0 0 0 0 0 0 0 
0 0 0 0 0 0 0 0 0 0 0 2 4 6 8 9 
10 11 11 11 11 11 10 10 9 9 8 7 7 6 6 0 0 0 0 0 1 1 1 2 2 2 2 2 2 2 1 0 
0 0 0 0 0 0 0 0 0 0 0 0 0 0 0 0 
0 0 0 0 0 0 0 0 0 0 1 3 5 7 8 9 
10 10 10 10 10 10 10 9 9 8 8 7 6 6 5 0 0 0 0 0 0 1 1 1 2 2 2 2 2 2 1 0 
0 0 0 0 0 0 0 0 0 0 0 0 0 0 0 0 
0 0 0 0 0 0 0 0 0 2 3 5 6 7 8 9 
9 10 10 10 10 9 9 9 8 8 7 7 6 5 5 0 0 0 0 0 0 1 1 1 1 2 2 2 2 1 1 1 
0 0 0 0 0 0 0 0 0 0 0 1 3 6 8 10 
10 9 8 7 5 4 4 4 4 4 5 6 7 7 8 9 
9 9 9 9 9 9 8 8 7 7 7 6 6 5 5 0 0 0 0 0 0 0 1 1 1 1 1 1 1 1 1 1 
1 0 0 0 0 0 0 0 1 3 6 9 12 16 14 16 
16 19 17 15 12 10 9 8 7 7 7 7 8 8 8 9 
9 9 9 9 8 8 8 7 7 7 6 6 5 5 4 0 0 0 0 0 0 0 1 1 1 1 1 1 1 1 1 1 
1 1 1 1 1 2 3 4 6 9 12 16 20 21 23 24 
24 23 24 21 18 15 13 11 10 9 9 9 8 8 8 8 
8 8 8 8 8 8 7 7 7 6 6 5 5 4 4 0 0 0 0 0 0 0 0 1 1 1 1 1 1 1 1 1 
1 2 2 2 3 4 6 8 10 13 17 21 25 28 29 31 
31 30 29 26 23 20 17 15 13 12 11 10 9 9 9 8 
8 8 8 8 7 7 7 6 6 6 5 5 4 4 4 0 0 0 0 0 0 0 0 0 1 1 1 1 1 1 1 2 
2 3 3 4 5 7 9 11 14 18 22 27 31 33 35 36 
36 36 36 32 28 24 21 18 16 14 12 11 10 9 9 8 
8 8 7 7 7 7 6 6 6 5 5 5 4 4 3 0 0 0 0 0 0 0 0 0 0 1 1 1 1 1 2 2 
3 3 4 6 7 9 12 15 19 23 28 33 37 38 39 40 
41 41 41 38 34 30 26 22 19 16 14 12 11 10 9 8 
8 7 7 7 6 6 6 5 5 5 5 4 4 3 3 0 0 0 0 0 0 0 0 0 0 0 1 1 1 1 2 2 
3 4 6 7 10 12 15 19 24 29 34 40 45 44 45 46 
46 47 51 46 41 36 31 26 22 19 16 13 12 10 9 8 
8 7 7 6 6 6 5 5 5 4 4 4 3 3 3 0 0 0 0 0 0 0 0 0 0 0 0 1 1 2 2 3 
4 5 7 9 12 15 19 24 29 36 43 50 56 63 67 70 
70 68 64 58 51 44 37 31 26 21 18 15 12 10 9 8 
7 7 6 6 5 5 5 5 4 4 4 3 3 3 3 0 0 0 0 0 0 0 0 0 0 0 0 1 1 2 2 3 
5 6 8 11 14 18 23 29 36 44 53 63 72 80 87 90 
90 87 82 74 64 54 45 37 30 24 19 16 13 11 9 8 
7 6 6 5 5 5 4 4 4 4 3 3 3 3 2 0 0 0 0 0 0 0 0 0 0 0 0 1 1 2 3 4 
5 7 9 12 16 21 27 34 43 53 65 78 90 100 108 112 
112 108 101 90 78 65 53 41 34 27 21 16 13 11 9 7 
6 6 5 5 4 4 4 4 3 3 3 3 3 2 2 0 0 0 0 0 0 0 0 0 0 0 0 1 1 2 3 4 
6 8 10 14 18 24 31 39 50 63 78 93 107 120 129 135 
135 130 120 107 92 76 61 47 35 29 22 17 13 10 8 7 
6 5 4 4 4 3 3 3 3 3 3 2 2 2 2 0 0 0 0 0 0 0 0 0 0 0 0 1 1 2 3 4 
6 8 11 15 20 26 34 44 56 72 89 106 124 139 150 156 
156 150 138 122 104 85 67 51 38 30 22 17 13 10 8 6 
5 4 4 3 3 3 3 3 2 2 2 2 2 2 2 0 0 0 0 0 0 0 0 0 0 0 0 1 1 2 3 5 
6 9 12 16 21 28 37 49 62 79 98 118 137 154 167 173 
173 165 151 132 111 90 70 53 39 27 22 16 11 9 7 5 
4 3 3 3 2 2 2 2 2 2 2 2 2 1 1 0 0 0 0 0 0 0 0 0 0 0 0 1 1 2 3 5 
6 9 12 16 22 29 39 49 65 83 103 125 145 163 175 180 
178 169 154 135 113 90 70 52 37 25 16 14 10 7 5 4 
3 3 2 2 2 2 2 2 1 1 1 1 1 1 1 0 0 0 0 0 0 0 0 0 0 0 0 1 1 2 3 4 
6 9 12 16 22 29 39 49 65 83 104 125 146 162 171 171 
166 157 145 128 107 84 64 46 32 22 14 11 7 5 3 2 
2 1 1 1 1 1 1 1 1 1 1 1 1 1 1 0 0 0 0 0 0 0 0 0 0 0 0 0 1 2 3 4 
6 8 11 15 21 28 37 47 62 79 98 119 137 150 153 146 
135 128 121 109 91 71 53 37 25 16 9 7 4 3 2 1 
1 0 0 0 0 0 0 1 1 1 1 1 1 1 1 0 0 0 0 0 0 0 0 0 0 0 0 0 1 2 3 4 
5 8 10 14 19 25 31 43 56 71 88 105 120 128 126 112 
98 92 90 83 69 53 37 25 15 8 4 3 1 0 0 0 
0 0 0 0 0 0 0 0 0 0 0 0 0 0 0 0 0 0 0 0 0 0 0 0 0 0 0 0 1 1 2 3 
5 7 9 12 16 22 27 36 47 59 73 86 97 102 97 83 
69 63 61 54 43 30 19 11 4 0 0 0 0 0 0 0 
0 0 0 0 0 0 0 0 0 0 0 0 0 0 0 0 0 0 0 0 0 0 0 0 0 0 0 0 0 1 2 3 
4 5 7 10 13 18 21 28 37 46 55 64 70 72 68 58 
47 40 33 25 16 7 1 0 0 0 0 0 0 0 0 0 
0 0 0 0 0 0 0 0 0 0 0 0 0 0 0 0 0 0 0 0 0 0 0 0 0 0 0 0 0 1 1 2 
3 4 6 8 10 13 17 20 26 31 37 41 43 43 38 30 
22 13 5 0 0 0 0 0 0 0 0 0 0 0 0 0 
0 0 0 0 0 0 0 0 0 0 0 0 0 0 0 0 0 0 0 0 0 0 0 0 0 0 0 0 0 0 1 1 
2 3 4 5 7 9 11 12 15 18 20 20 19 15 9 2 
0 0 0 0 0 0 0 0 0 0 0 0 0 0 0 0 
0 0 0 0 0 0 0 0 0 0 0 0 0 0 0 0 0 0 0 0 0 0 0 0 0 0 0 0 0 0 0 1 
1 2 2 3 4 5 6 5 6 6 5 3 0 0 0 0 
0 0 0 0 0 0 0 0 0 0 0 0 0 0 0 0 
0 0 0 0 0 0 0 0 0 0 0 0 0 0 0 0 0 0 0 0 0 0 0 0 0 0 0 0 0 0 0 0 
0 0 1 1 1 2 2 1 0 0 0 0 0 0 0 0 
0 0 0 0 0 0 0 0 0 0 0 0 0 0 0 0 
0 0 0 0 0 0 0 0 0 0 0 0 0 0 0 0 0 0 0 0 0 0 0 0 0 0 0 0 0 0 0 0 
0 0 0 0 0 0 0 0 0 0 0 0 0 0 0 0 
0 0 0 0 0 0 0 0 0 0 0 0 0 0 0 0 
0 0 0 0 0 0 0 0 0 0 0 0 0 0 0 0 0 0 0 0 0 0 0 0 0 0 0 0 0 0 0 0 
0 0 0 0 0 0 0 0 0 0 0 0 0 0 0 0 
0 0 0 0 0 0 0 0 0 0 0 0 0 0 0 0 
0 0 0 0 0 0 0 0 0 0 0 0 0 0 0 0 0 0 0 0 0 0 0 0 0 0 0 0 0 0 0 0 
0 0 0 0 0 0 0 0 0 0 0 0 0 0 0 0 
0 0 0 0 0 0 0 0 0 0 0 0 0 0 0 0 
0 0 0 0 0 0 0 0 0 0 0 0 0 0 0 0 0 0 0 0 0 0 0 0 0 0 0 0 0 0 0 0 
0 0 0 0 0 0 0 0 0 0 0 0 0 0 0 0 
0 0 0 0 0 0 0 0 0 0 0 0 0 0 0 0 
0 0 0 0 0 0 0 0 0 0 0 0 0 0 0 0 0 0 0 0 0 0 0 0 0 0 0 0 0 0 0 0 
0 0 0 0 0 0 0 0 0 0 0 0 0 0 0 0 
0 0 0 0 0 0 0 0 0 0 0 0 0 0 0 0 
0 0 0 0 0 0 0 0 0 0 0 0 0 0 0 