P2
# Created by IrfanView
64 64
255
0 0 0 0 0 0 0 0 0 0 0 0 0 0 0 0 0 
0 0 0 0 0 0 0 0 0 0 0 0 0 0 0 1 
1 1 1 1 0 0 0 0 0 0 0 0 0 0 0 0 
0 0 0 0 0 0 0 0 0 0 0 0 0 0 0 0 0 0 0 0 0 0 0 0 0 0 0 0 0 0 0 0 
0 0 0 0 0 0 0 0 0 0 0 0 0 1 1 1 
1 1 1 1 1 1 1 0 0 0 0 0 0 0 0 0 
0 0 0 0 0 0 0 0 0 0 0 0 0 0 0 0 0 0 0 0 0 0 0 0 0 0 0 0 0 0 0 0 
0 0 0 0 0 0 0 0 0 0 0 1 1 1 1 1 
1 1 1 1 1 1 1 1 1 0 0 0 0 0 0 0 
0 0 0 0 0 0 0 0 0 0 0 0 0 0 0 0 0 0 0 0 0 0 0 0 0 0 0 0 0 0 0 0 
0 0 0 0 0 0 0 0 0 0 0 1 1 1 1 1 
1 1 2 2 2 2 2 1 1 1 1 0 0 0 0 0 
0 0 0 0 0 0 0 0 0 0 0 0 0 0 0 0 0 0 0 0 0 0 0 0 0 0 0 0 0 0 0 0 
0 0 0 0 0 0 0 0 0 0 1 1 1 1 1 1 
1 2 2 2 2 2 2 2 2 2 1 1 1 0 0 0 
0 0 0 0 0 0 0 0 0 0 0 0 0 0 0 0 0 0 0 0 0 0 0 0 0 0 0 0 0 0 0 0 
0 0 0 0 0 0 0 0 0 0 0 0 1 1 1 1 
1 2 2 2 2 2 2 2 2 2 2 2 2 1 1 0 
0 0 0 0 0 0 0 0 0 0 0 0 0 0 0 0 0 0 0 0 0 0 0 0 0 0 0 0 0 0 0 0 
0 0 0 0 0 0 0 0 0 0 0 0 0 0 1 1 
1 1 2 2 2 3 3 3 3 3 3 3 3 2 2 1 
1 0 0 0 0 0 0 0 0 0 0 0 0 0 0 0 0 0 0 0 0 0 0 0 0 0 0 0 0 0 0 0 
0 0 0 0 0 0 0 0 0 0 0 0 0 0 0 0 
0 1 1 2 2 3 3 3 3 4 4 4 4 3 3 3 
2 2 1 1 0 0 0 0 0 0 0 0 0 0 0 0 0 0 0 0 0 0 0 0 0 0 0 0 1 1 1 1 
1 1 0 0 0 0 0 0 0 0 0 0 0 0 0 0 
0 0 0 1 1 2 3 3 4 4 4 5 5 5 4 4 
4 3 3 2 1 1 0 0 0 0 0 0 0 0 0 0 0 0 0 0 0 0 0 0 0 1 1 1 1 1 1 1 
1 1 0 0 0 0 0 0 0 0 0 0 0 0 0 0 
0 0 0 0 0 1 2 3 4 4 5 5 6 6 6 5 
5 5 4 4 3 2 2 1 1 0 0 0 0 0 0 0 0 0 0 0 0 0 1 1 1 1 2 2 2 2 2 1 
1 1 0 0 0 0 0 0 0 0 0 0 0 0 0 0 
0 0 0 0 0 0 1 2 3 5 5 6 7 7 7 7 
7 6 6 5 5 4 3 3 2 2 1 1 1 0 0 0 0 0 0 0 0 1 1 1 2 2 2 2 2 2 2 2 
1 0 0 0 0 0 0 0 0 0 0 0 0 0 0 0 
0 0 0 0 0 0 0 1 3 4 5 6 7 8 8 8 
8 8 7 7 6 6 5 5 4 3 3 2 2 2 1 0 0 0 0 0 1 1 2 2 2 3 3 3 3 3 2 2 
1 0 0 0 0 0 0 0 0 0 0 0 0 0 0 0 
0 0 0 0 0 0 0 0 1 3 5 7 8 9 9 9 
10 9 9 9 8 7 7 6 5 5 4 4 3 3 2 0 0 0 0 0 1 2 2 3 3 3 3 3 3 3 3 2 
1 0 0 0 0 0 0 0 0 0 0 0 0 0 0 0 
0 0 0 0 0 0 0 0 0 2 4 6 8 9 10 11 
11 11 11 10 10 9 8 8 7 6 6 5 5 4 3 0 0 0 0 1 1 2 2 3 3 4 4 4 4 3 3 2 
0 0 0 0 0 0 0 0 0 0 0 0 0 0 0 0 
0 0 0 0 0 0 0 0 0 0 3 6 8 10 11 12 
12 12 12 12 11 11 10 9 8 8 7 6 6 5 5 0 0 0 0 1 1 2 3 3 4 4 4 4 4 3 3 1 
0 0 0 0 0 0 0 0 0 0 0 0 0 0 0 0 
0 0 0 0 0 0 0 0 0 0 2 5 8 10 11 12 
13 13 13 13 13 12 11 11 10 9 8 7 7 6 5 0 0 0 0 1 2 2 3 4 4 4 5 4 4 4 3 1 
0 0 0 0 0 0 0 0 0 0 0 0 0 0 0 0 
0 0 0 0 0 0 0 0 0 0 0 4 7 10 12 13 
14 14 14 14 14 13 12 12 11 10 9 8 8 7 6 0 0 0 0 1 2 3 3 4 4 5 5 5 4 4 2 1 
0 0 0 0 0 0 0 0 0 0 0 0 0 0 0 0 
0 0 0 0 0 0 0 0 0 0 0 2 6 9 12 13 
14 15 15 15 15 14 13 13 12 11 10 9 8 8 7 0 0 0 0 1 2 3 3 4 5 5 5 5 4 3 2 0 
0 0 0 0 0 0 0 0 0 0 0 0 0 0 0 0 
0 0 0 0 0 0 0 0 0 0 0 0 5 9 12 14 
15 16 16 16 15 15 14 13 13 12 11 10 9 8 7 0 0 0 0 1 2 3 3 4 5 5 5 5 4 3 2 0 
0 0 0 0 0 0 0 0 0 0 0 0 0 0 0 0 
0 0 0 0 0 0 0 0 0 0 0 0 3 8 11 13 
15 16 16 16 16 15 15 14 13 12 11 10 10 9 8 0 0 0 0 1 2 3 3 4 5 5 5 5 4 3 1 0 
0 0 0 0 0 0 0 0 0 0 0 0 0 0 0 0 
0 0 0 0 0 0 0 0 0 0 0 0 2 7 11 13 
15 16 16 17 16 16 15 14 13 13 12 11 10 9 8 0 0 0 0 1 2 3 3 4 5 5 5 5 4 3 1 0 
0 0 0 0 0 0 0 0 0 0 0 0 0 0 0 0 
0 0 0 0 0 0 0 0 0 0 0 0 0 6 10 13 
15 16 16 17 16 16 15 14 14 13 12 11 10 9 8 0 0 0 0 1 2 3 3 4 4 5 5 5 4 3 1 0 
0 0 0 0 0 0 0 0 0 0 0 0 0 0 0 0 
0 0 0 0 0 0 0 0 0 0 0 0 0 5 9 12 
14 16 16 16 16 16 15 14 14 13 12 11 10 9 8 0 0 0 0 1 2 2 3 4 4 5 5 4 4 2 0 0 
0 0 0 0 0 0 0 0 0 0 0 0 0 0 0 0 
0 0 0 0 0 0 0 0 0 0 0 0 0 4 8 12 
14 15 16 16 16 16 15 14 13 13 12 11 10 9 8 0 0 0 0 1 1 2 3 4 4 4 4 4 3 2 0 0 
0 0 0 0 0 0 0 0 0 0 0 0 0 0 0 0 
0 0 0 0 0 0 0 0 0 0 0 0 0 3 8 11 
13 15 15 16 16 15 15 14 13 12 11 11 10 9 8 0 0 0 0 0 1 2 3 3 4 4 4 4 3 2 0 0 
0 0 0 0 0 0 0 0 0 0 0 0 0 0 0 0 
0 0 0 0 0 0 0 0 0 0 0 0 0 3 7 10 
12 14 15 15 15 15 14 13 13 12 11 10 9 9 8 0 0 0 0 0 1 2 3 3 4 4 4 3 3 1 0 0 
0 0 0 0 0 0 0 0 0 0 0 0 0 0 0 0 
0 0 0 0 0 0 0 0 0 0 0 0 0 2 6 10 
12 13 14 14 14 14 14 13 12 11 11 10 9 8 8 0 0 0 0 0 1 2 2 3 3 3 3 3 2 1 0 0 
0 0 0 0 0 0 0 0 0 0 0 0 0 0 0 0 
0 0 0 0 0 0 0 0 0 0 0 0 0 2 6 9 
11 12 13 14 14 13 13 12 12 11 10 9 9 8 7 0 0 0 0 0 1 2 2 3 3 3 3 3 2 1 0 0 
0 0 0 0 0 0 0 0 0 0 0 0 0 0 0 0 
0 0 0 0 0 0 0 0 0 0 0 0 0 2 6 8 
10 12 12 13 13 13 12 12 11 10 10 9 8 8 7 0 0 0 0 0 1 1 2 2 3 3 3 3 2 1 0 0 
0 0 0 0 0 0 0 0 0 0 0 0 0 0 0 0 
0 0 0 0 0 0 0 0 0 0 0 0 0 2 6 8 
10 11 12 12 12 12 11 11 10 10 9 8 8 7 7 0 0 0 0 0 1 1 2 2 2 3 3 2 2 1 0 0 
0 0 0 0 0 0 0 0 0 0 0 0 0 0 0 0 
0 0 0 0 0 0 0 0 0 0 0 0 0 3 5 8 
9 10 11 11 11 11 11 10 10 9 9 8 7 7 6 0 0 0 0 0 1 1 1 2 2 2 2 2 1 1 0 0 
0 0 0 0 0 0 0 0 0 0 0 0 0 0 0 0 
0 0 0 0 0 0 0 0 0 0 0 0 0 3 5 7 
9 10 10 11 11 10 10 10 9 9 8 7 7 6 6 0 0 0 0 0 0 1 1 2 2 2 2 2 1 1 0 0 
0 0 0 0 0 0 0 0 0 0 0 0 0 0 0 0 
0 0 0 0 0 0 0 0 0 0 0 0 1 4 6 7 
8 9 10 10 10 10 9 9 9 8 8 7 7 6 5 0 0 0 0 0 0 1 1 1 2 2 2 1 1 1 0 0 
0 0 0 0 0 0 0 0 0 0 0 0 0 0 0 0 
0 0 0 0 0 0 0 0 0 0 0 0 2 4 6 7 
8 9 9 9 9 9 9 9 8 8 7 7 6 6 5 0 0 0 0 0 0 1 1 1 1 1 1 1 1 1 0 0 
0 0 0 0 0 0 0 0 0 0 0 0 0 0 0 0 
0 0 0 0 0 0 0 0 0 0 0 1 3 5 6 7 
8 8 9 9 9 9 8 8 8 7 7 6 6 5 5 0 0 0 0 0 0 0 1 1 1 1 1 1 1 0 0 0 
0 0 0 0 0 0 0 0 0 0 0 0 0 0 0 0 
0 0 0 0 0 0 0 0 0 0 2 3 4 5 6 7 
8 8 8 8 8 8 8 7 7 7 6 6 5 5 4 0 0 0 0 0 0 0 0 1 1 1 1 1 1 1 0 0 
0 0 0 0 0 0 0 0 0 0 0 0 0 1 2 3 
4 4 4 3 3 2 2 2 3 3 4 5 5 6 7 7 
7 8 8 8 8 7 7 7 7 6 6 5 5 5 4 0 0 0 0 0 0 0 0 1 1 1 1 1 1 1 0 0 
0 0 0 0 0 0 0 0 0 2 3 6 8 10 12 13 
13 13 12 11 9 8 7 6 6 6 6 6 6 7 7 7 
7 7 7 7 7 7 7 6 6 6 5 5 5 4 4 0 0 0 0 0 0 0 0 0 0 1 1 1 1 1 1 0 
0 0 0 0 1 1 2 3 5 7 10 13 15 18 20 21 
21 21 19 17 15 14 12 10 9 8 8 8 7 7 7 7 
7 7 7 7 7 7 6 6 6 5 5 5 4 4 4 0 0 0 0 0 0 0 0 0 0 0 1 1 1 1 1 1 
1 1 2 2 3 4 6 7 10 13 16 19 22 25 27 29 
29 28 26 24 21 19 16 14 12 11 10 9 8 8 8 7 
7 7 7 7 6 6 6 6 5 5 5 4 4 4 3 0 0 0 0 0 0 0 0 0 0 0 0 1 1 1 1 1 
2 2 3 4 5 7 9 11 14 18 22 25 29 32 35 36 
36 35 33 30 27 24 21 18 15 13 12 10 9 9 8 7 
7 7 7 6 6 6 5 5 5 5 4 4 4 3 3 0 0 0 0 0 0 0 0 0 0 0 0 1 1 1 1 2 
2 3 4 6 7 10 12 15 19 23 28 33 37 41 44 45 
46 44 42 38 34 30 26 22 19 16 14 12 10 9 8 7 
7 7 6 6 6 5 5 5 5 4 4 4 3 3 3 0 0 0 0 0 0 0 0 0 0 0 0 0 1 1 2 2 
3 4 6 7 10 12 16 20 24 30 35 41 47 52 55 57 
58 56 53 48 43 37 32 27 22 18 15 13 11 9 8 7 
7 6 6 5 5 5 5 4 4 4 4 3 3 3 3 0 0 0 0 0 0 0 0 0 0 0 0 1 1 1 2 3 
4 5 7 9 12 15 20 25 30 37 44 52 59 65 70 73 
73 71 66 60 52 46 39 32 26 21 17 14 12 10 8 7 
7 6 5 5 5 4 4 4 4 3 3 3 3 3 2 0 0 0 0 0 0 0 0 0 0 0 0 1 1 1 2 3 
4 6 8 11 14 18 24 30 37 46 55 65 75 84 90 94 
94 91 84 76 66 55 44 38 30 24 19 15 12 10 8 7 
6 5 5 5 4 4 4 3 3 3 3 3 2 2 2 0 0 0 0 0 0 0 0 0 0 0 0 1 1 2 2 4 
5 7 9 12 16 21 28 35 44 56 68 81 93 104 112 116 
116 112 104 93 80 66 53 41 34 26 20 16 12 10 8 7 
6 5 4 4 4 3 3 3 3 3 3 2 2 2 2 0 0 0 0 0 0 0 0 0 0 0 0 1 1 2 3 4 
6 8 10 14 18 24 31 41 52 65 80 96 111 124 134 140 
140 134 124 110 93 77 61 47 35 28 21 16 12 9 7 6 
5 4 4 3 3 3 3 3 2 2 2 2 2 2 2 0 0 0 0 0 0 0 0 0 0 0 0 1 1 2 3 4 
6 8 11 15 20 26 35 46 58 74 92 110 128 144 156 162 
161 154 141 124 105 85 67 51 37 26 21 16 12 9 7 5 
4 4 3 3 3 2 2 2 2 2 2 2 2 1 1 0 0 0 0 0 0 0 0 0 0 0 0 1 1 2 3 4 
6 9 12 16 21 28 37 48 63 81 100 121 141 159 171 177 
175 166 152 133 111 89 69 51 37 26 20 14 10 7 5 4 
3 3 2 2 2 2 2 2 2 1 1 1 1 1 1 0 0 0 0 0 0 0 0 0 0 0 0 1 1 2 3 4 
6 9 12 16 22 29 39 50 66 84 105 127 148 165 175 176 
171 162 149 132 110 87 66 48 34 23 14 12 8 6 4 3 
2 2 1 1 1 1 1 1 1 1 1 1 1 1 1 0 0 0 0 0 0 0 0 0 0 0 0 0 1 2 3 4 
6 8 12 16 21 29 36 50 65 84 105 126 146 159 161 150 
137 130 127 117 99 78 58 41 28 18 11 8 5 3 2 1 
1 1 1 1 1 1 1 1 1 1 1 1 1 1 1 0 0 0 0 0 0 0 0 0 0 0 0 0 1 2 3 4 
6 8 11 15 20 27 34 47 62 79 98 117 134 139 127 96 
68 69 85 89 79 62 44 30 19 11 5 4 2 1 0 0 
0 0 0 0 0 0 0 0 0 0 0 0 1 1 1 0 0 0 0 0 0 0 0 0 0 0 0 0 1 1 2 4 
5 7 10 13 18 24 31 41 54 69 85 101 112 111 87 37 
0 7 42 57 52 39 26 16 8 3 0 0 0 0 0 0 
0 0 0 0 0 0 0 0 0 0 0 0 0 0 0 0 0 0 0 0 0 0 0 0 0 0 0 0 1 1 2 3 
4 6 8 11 15 21 25 34 44 56 68 79 86 82 59 16 
0 0 20 29 24 14 6 0 0 0 0 0 0 0 0 0 
0 0 0 0 0 0 0 0 0 0 0 0 0 0 0 0 0 0 0 0 0 0 0 0 0 0 0 0 0 1 1 2 
3 5 7 9 12 16 19 26 33 41 48 55 58 53 40 19 
5 5 7 2 0 0 0 0 0 0 0 0 0 0 0 0 
0 0 0 0 0 0 0 0 0 0 0 0 0 0 0 0 0 0 0 0 0 0 0 0 0 0 0 0 0 0 1 2 
3 4 5 7 9 12 13 17 21 25 29 30 29 24 16 6 
0 0 0 0 0 0 0 0 0 0 0 0 0 0 0 0 
0 0 0 0 0 0 0 0 0 0 0 0 0 0 0 0 0 0 0 0 0 0 0 0 0 0 0 0 0 0 0 1 
1 2 3 4 6 7 9 9 10 11 11 9 4 0 0 0 
0 0 0 0 0 0 0 0 0 0 0 0 0 0 0 0 
0 0 0 0 0 0 0 0 0 0 0 0 0 0 0 0 0 0 0 0 0 0 0 0 0 0 0 0 0 0 0 0 
1 1 1 2 3 3 3 2 1 0 0 0 0 0 0 0 
0 0 0 0 0 0 0 0 0 0 0 0 0 0 0 0 
0 0 0 0 0 0 0 0 0 0 0 0 0 0 0 0 0 0 0 0 0 0 0 0 0 0 0 0 0 0 0 0 
0 0 0 0 0 0 0 0 0 0 0 0 0 0 0 0 
0 0 0 0 0 0 0 0 0 0 0 0 0 0 0 0 
0 0 0 0 0 0 0 0 0 0 0 0 0 0 0 0 0 0 0 0 0 0 0 0 0 0 0 0 0 0 0 0 
0 0 0 0 0 0 0 0 0 0 0 0 0 0 0 0 
0 0 0 0 0 0 0 0 0 0 0 0 0 0 0 0 
0 0 0 0 0 0 0 0 0 0 0 0 0 0 0 0 0 0 0 0 0 0 0 0 0 0 0 0 0 0 0 0 
0 0 0 0 0 0 0 0 0 0 0 0 0 0 0 0 
0 0 0 0 0 0 0 0 0 0 0 0 0 0 0 0 
0 0 0 0 0 0 0 0 0 0 0 0 0 0 0 0 0 0 0 0 0 0 0 0 0 0 0 0 0 0 0 0 
0 0 0 0 0 0 0 0 0 0 0 0 0 0 0 0 
0 0 0 0 0 0 0 0 0 0 0 0 0 0 0 0 
0 0 0 0 0 0 0 0 0 0 0 0 0 0 0 0 0 0 0 0 0 0 0 0 0 0 0 0 0 0 0 0 
0 0 0 0 0 0 0 0 0 0 0 0 0 0 0 0 
0 0 0 0 0 0 0 0 0 0 0 0 0 0 0 0 
0 0 0 0 0 0 0 0 0 0 0 0 0 0 0 0 0 0 0 0 0 0 0 0 0 0 0 0 0 0 0 0 
0 0 0 0 0 0 0 0 0 0 0 0 0 0 0 0 
0 0 0 0 0 0 0 0 0 0 0 0 0 0 0 0 
0 0 0 0 0 0 0 0 0 0 0 0 0 0 0 