P2
# Created by IrfanView
64 64
255
0 0 0 0 0 0 0 0 0 0 0 0 0 0 0 0 0 
0 0 0 0 0 0 0 0 0 0 0 0 0 0 0 0 
0 0 0 0 0 0 0 0 0 0 0 0 0 0 0 0 
0 0 0 0 0 0 0 0 0 0 0 0 0 0 0 0 0 0 0 0 0 0 0 0 0 0 0 0 0 0 0 0 
0 0 0 0 0 0 0 0 0 0 0 0 0 0 0 0 
0 0 0 0 0 0 0 0 0 0 0 0 0 0 0 0 
0 0 0 0 0 0 0 0 0 0 0 0 0 0 0 0 0 0 0 0 0 0 0 0 0 0 0 0 0 0 0 0 
0 0 0 0 0 0 0 0 0 0 0 0 0 0 0 0 
0 0 0 0 0 0 0 0 0 0 0 0 0 0 0 0 
0 0 0 0 0 0 0 0 0 0 0 0 0 0 0 0 0 0 0 0 0 0 0 0 0 0 0 0 0 0 0 0 
0 0 0 0 0 0 0 0 0 0 0 0 0 0 0 0 
0 0 1 1 1 1 1 1 1 0 0 0 0 0 0 0 
0 0 0 0 0 0 0 0 0 0 0 0 0 0 0 0 0 0 0 0 0 0 0 0 0 0 0 0 0 0 0 0 
0 0 0 0 0 0 0 0 0 0 0 0 0 0 0 0 
0 0 0 1 1 1 1 1 1 1 1 1 0 0 0 0 
0 0 0 0 0 0 0 0 0 0 0 0 0 0 0 0 0 0 0 0 0 0 0 0 0 0 0 0 0 0 0 0 
0 0 0 0 0 0 0 0 0 0 0 0 0 0 0 0 
0 0 0 1 1 1 1 1 1 1 1 1 1 1 1 0 
0 0 0 0 0 0 0 0 0 0 0 0 0 0 0 0 0 0 0 0 0 0 0 0 0 0 0 0 0 0 0 0 
0 0 0 0 0 0 0 0 0 0 0 0 0 0 0 0 
0 0 0 0 1 1 1 1 2 2 2 2 2 2 1 1 
1 0 0 0 0 0 0 0 0 0 0 0 0 0 0 0 0 0 0 0 0 0 0 0 0 0 0 0 0 0 0 0 
0 0 0 0 0 0 0 0 0 0 0 0 0 0 0 0 
0 0 0 0 0 1 1 1 2 2 2 2 2 2 2 2 
2 1 1 1 0 0 0 0 0 0 0 0 0 0 0 0 0 0 0 0 0 0 0 0 0 0 0 0 0 0 0 0 
0 0 0 0 0 0 0 0 0 0 0 0 0 0 0 0 
0 0 0 0 0 0 1 1 2 2 3 3 3 3 3 3 
3 3 2 2 1 1 0 0 0 0 0 0 0 0 0 0 0 0 0 0 0 0 0 0 0 0 0 0 0 0 0 0 
0 0 0 0 0 0 0 0 0 0 0 0 0 0 0 0 
0 0 0 0 0 0 0 1 1 2 3 3 4 4 4 4 
4 4 3 3 3 2 2 1 1 0 0 0 0 0 0 0 0 0 0 0 0 0 0 0 1 1 1 1 1 1 1 0 
0 0 0 0 0 0 0 0 0 0 0 0 0 0 0 0 
0 0 0 0 0 0 0 0 1 2 3 4 4 5 5 5 
5 5 5 4 4 3 3 3 2 2 1 1 1 0 0 0 0 0 0 0 0 0 1 1 1 1 1 1 1 1 1 0 
0 0 0 0 0 0 0 0 0 0 0 0 0 0 0 0 
0 0 0 0 0 0 0 0 0 1 3 4 5 5 6 6 
6 6 6 6 5 5 4 4 3 3 3 2 2 1 1 0 0 0 0 0 0 1 1 1 1 2 2 2 1 1 1 0 
0 0 0 0 0 0 0 0 0 0 0 0 0 0 0 0 
0 0 0 0 0 0 0 0 0 0 2 4 5 6 7 7 
7 7 7 7 7 6 6 5 5 4 4 3 3 2 2 0 0 0 0 0 0 1 1 2 2 2 2 2 2 1 1 0 
0 0 0 0 0 0 0 0 0 0 0 0 0 0 0 0 
0 0 0 0 0 0 0 0 0 0 1 3 5 6 7 8 
8 8 8 8 8 7 7 6 6 5 5 4 4 3 3 0 0 0 0 0 1 1 2 2 2 2 2 2 2 1 1 0 
0 0 0 0 0 0 0 0 0 0 0 0 0 0 0 0 
0 0 0 0 0 0 0 0 0 0 0 2 4 6 7 8 
9 9 9 9 9 9 8 8 7 7 6 5 5 4 4 0 0 0 0 0 1 1 2 2 2 3 3 2 2 1 1 0 
0 0 0 0 0 0 0 0 0 0 0 0 0 0 0 0 
0 0 0 0 0 0 0 0 0 0 0 1 4 6 8 9 
10 10 10 10 10 10 9 9 8 7 7 6 6 5 5 0 0 0 0 0 1 1 2 2 3 3 3 3 2 1 0 0 
0 0 0 0 0 0 0 0 0 0 0 0 0 0 0 0 
0 0 0 0 0 0 0 0 0 0 0 0 3 6 8 9 
10 11 11 11 11 11 10 10 9 8 8 7 7 6 5 0 0 0 0 0 1 2 2 3 3 3 3 3 2 1 0 0 
0 0 0 0 0 0 0 0 0 0 0 0 0 0 0 0 
0 0 0 0 0 0 0 0 0 0 0 0 2 5 8 9 
11 11 12 12 12 11 11 10 10 9 9 8 7 7 6 0 0 0 0 0 1 2 2 3 3 3 3 3 2 1 0 0 
0 0 0 0 0 0 0 0 0 0 0 0 0 0 0 0 
0 0 0 0 0 0 0 0 0 0 0 0 1 4 7 9 
11 12 12 12 12 12 12 11 10 10 9 8 8 7 6 0 0 0 0 0 1 2 2 3 3 3 3 3 2 1 0 0 
0 0 0 0 0 0 0 0 0 0 0 0 0 0 0 0 
0 0 0 0 0 0 0 0 0 0 0 0 0 3 7 9 
11 12 13 13 13 13 12 12 11 10 9 9 8 7 7 0 0 0 0 0 1 2 2 3 3 3 3 3 2 0 0 0 
0 0 0 0 0 0 0 0 0 0 0 0 0 0 0 0 
0 0 0 0 0 0 0 0 0 0 0 0 0 3 6 9 
11 12 13 13 13 13 12 12 11 11 10 9 8 8 7 0 0 0 0 0 1 2 2 3 3 3 3 2 1 0 0 0 
0 0 0 0 0 0 0 0 0 0 0 0 0 0 0 0 
0 0 0 0 0 0 0 0 0 0 0 0 0 2 5 8 
10 12 13 13 13 13 13 12 11 11 10 9 9 8 7 0 0 0 0 0 1 2 2 3 3 3 3 2 1 0 0 0 
0 0 0 0 0 0 0 0 0 0 0 0 0 0 0 0 
0 0 0 0 0 0 0 0 0 0 0 0 0 1 5 8 
10 11 12 13 13 13 12 12 11 11 10 9 9 8 7 0 0 0 0 0 1 1 2 2 3 3 3 2 1 0 0 0 
0 0 0 0 0 0 0 0 0 0 0 0 0 0 0 0 
0 0 0 0 0 0 0 0 0 0 0 0 0 0 4 7 
10 11 12 13 13 13 12 12 11 11 10 9 8 8 7 0 0 0 0 0 1 1 2 2 3 3 2 2 1 0 0 0 
0 0 0 0 0 0 0 0 0 0 0 0 0 0 0 0 
0 0 0 0 0 0 0 0 0 0 0 0 0 0 4 7 
9 11 12 12 12 12 12 12 11 10 10 9 8 8 7 0 0 0 0 0 1 1 2 2 2 2 2 2 1 0 0 0 
0 0 0 0 0 0 0 0 0 0 0 0 0 0 0 0 
0 0 0 0 0 0 0 0 0 0 0 0 0 0 3 6 
9 10 11 12 12 12 12 11 11 10 9 9 8 7 7 0 0 0 0 0 1 1 2 2 2 2 2 1 1 0 0 0 
0 0 0 0 0 0 0 0 0 0 0 0 0 0 0 0 
0 0 0 0 0 0 0 0 0 0 0 0 0 0 3 6 
8 10 11 11 11 11 11 11 10 10 9 8 8 7 7 0 0 0 0 0 0 1 1 2 2 2 2 1 0 0 0 0 
0 0 0 0 0 0 0 0 0 0 0 0 0 0 0 0 
0 0 0 0 0 0 0 0 0 0 0 0 0 0 3 6 
8 9 10 11 11 11 11 10 10 9 9 8 8 7 6 0 0 0 0 0 0 1 1 2 2 2 2 1 0 0 0 0 
0 0 0 0 0 0 0 0 0 0 0 0 0 0 0 0 
0 0 0 0 0 0 0 0 0 0 0 0 0 0 3 5 
7 9 10 10 10 10 10 10 9 9 8 8 7 7 6 0 0 0 0 0 0 1 1 1 2 1 1 1 0 0 0 0 
0 0 0 0 0 0 0 0 0 0 0 0 0 0 0 0 
0 0 0 0 0 0 0 0 0 0 0 0 0 0 3 5 
7 8 9 10 10 10 10 9 9 8 8 7 7 6 6 0 0 0 0 0 0 1 1 1 1 1 1 1 0 0 0 0 
0 0 0 0 0 0 0 0 0 0 0 0 0 0 0 0 
0 0 0 0 0 0 0 0 0 0 0 0 0 0 3 5 
7 8 9 9 9 9 9 9 8 8 7 7 6 6 5 0 0 0 0 0 0 0 1 1 1 1 1 1 0 0 0 0 
0 0 0 0 0 0 0 0 0 0 0 0 0 0 0 0 
0 0 0 0 0 0 0 0 0 0 0 0 0 1 3 5 
6 7 8 9 9 9 9 8 8 7 7 7 6 6 5 0 0 0 0 0 0 0 1 1 1 1 1 0 0 0 0 0 
0 0 0 0 0 0 0 0 0 0 0 0 0 0 0 0 
0 0 0 0 0 0 0 0 0 0 0 0 0 2 4 5 
6 7 8 8 8 8 8 8 7 7 7 6 6 5 5 0 0 0 0 0 0 0 0 1 1 1 1 0 0 0 0 0 
0 0 0 0 0 0 0 0 0 0 0 0 0 0 0 0 
0 0 0 0 0 0 0 0 0 0 0 0 0 2 4 5 
6 7 7 8 8 8 8 7 7 7 6 6 5 5 5 0 0 0 0 0 0 0 0 0 1 1 0 0 0 0 0 0 
0 0 0 0 0 0 0 0 0 0 0 0 0 0 0 0 
0 0 0 0 0 0 0 0 0 0 0 0 2 3 4 5 
6 7 7 7 7 7 7 7 7 6 6 5 5 5 4 0 0 0 0 0 0 0 0 0 0 0 0 0 0 0 0 0 
0 0 0 0 0 0 0 0 0 0 0 0 0 0 0 0 
0 0 0 0 0 0 0 0 0 0 1 2 3 4 5 6 
6 7 7 7 7 7 7 6 6 6 5 5 5 4 4 0 0 0 0 0 0 0 0 0 0 0 0 0 0 0 0 0 
0 0 0 0 0 0 0 0 0 0 0 0 0 0 0 0 
0 1 1 1 1 1 1 1 2 2 3 3 4 5 5 6 
6 6 7 7 7 6 6 6 6 5 5 5 4 4 4 0 0 0 0 0 0 0 0 0 0 0 0 0 0 0 0 0 
0 0 0 0 0 0 0 0 0 0 2 3 5 7 8 9 
9 9 9 8 7 6 6 5 5 5 5 5 5 6 6 6 
6 6 6 6 6 6 6 6 5 5 5 4 4 4 3 0 0 0 0 0 0 0 0 0 0 0 0 0 0 0 0 0 
0 0 0 0 0 1 2 3 4 6 8 10 12 14 16 17 
17 17 16 15 13 12 10 9 8 8 7 7 6 6 6 6 
6 6 6 6 6 6 5 5 5 5 4 4 4 3 3 0 0 0 0 0 0 0 0 0 0 0 0 0 0 0 0 0 
0 1 1 2 2 4 5 7 9 11 14 17 20 22 24 25 
25 25 23 22 19 17 15 13 11 10 9 8 7 7 7 6 
6 6 6 6 5 5 5 5 5 4 4 4 3 3 3 0 0 0 0 0 0 0 0 0 0 0 0 0 0 0 1 1 
1 2 2 3 5 6 8 11 14 17 20 24 27 30 32 34 
34 33 31 29 26 23 20 17 15 13 11 10 9 8 7 7 
6 6 6 5 5 5 5 5 4 4 4 3 3 3 3 0 0 0 0 0 0 0 0 0 0 0 0 0 0 1 1 1 
2 3 4 5 7 9 12 15 19 23 27 32 36 40 42 44 
44 43 41 37 33 29 25 21 18 15 13 11 9 8 7 7 
6 6 5 5 5 5 4 4 4 4 3 3 3 3 2 0 0 0 0 0 0 0 0 0 0 0 0 0 0 1 1 2 
3 4 5 7 9 12 15 19 24 29 35 41 46 51 55 57 
57 56 53 48 42 37 31 26 22 18 15 12 10 9 8 7 
6 5 5 5 4 4 4 4 4 3 3 3 3 2 2 0 0 0 0 0 0 0 0 0 0 0 0 0 0 1 1 2 
3 5 6 9 11 15 19 24 30 37 44 52 59 66 71 73 
73 71 66 59 52 46 38 31 25 20 16 13 11 9 8 7 
6 5 5 4 4 4 4 3 3 3 3 3 2 2 2 0 0 0 0 0 0 0 0 0 0 0 0 0 1 1 2 3 
4 6 8 10 14 18 23 29 37 46 55 66 75 84 90 94 
94 90 84 75 65 54 43 37 29 23 18 14 11 9 7 6 
5 5 4 4 4 3 3 3 3 3 2 2 2 2 2 0 0 0 0 0 0 0 0 0 0 0 0 0 1 1 2 3 
5 7 9 12 16 21 27 35 44 55 68 81 93 104 112 116 
116 111 103 91 78 65 52 40 33 25 19 15 11 9 7 6 
5 4 4 3 3 3 3 3 2 2 2 2 2 2 2 0 0 0 0 0 0 0 0 0 0 0 0 0 1 1 2 4 
5 7 10 13 18 24 31 40 51 65 80 95 111 124 134 139 
138 132 121 107 91 74 59 45 33 27 20 15 11 8 7 5 
4 4 3 3 3 2 2 2 2 2 2 2 2 1 1 0 0 0 0 0 0 0 0 0 0 0 0 0 1 2 3 4 
6 8 11 14 19 26 34 45 57 73 91 109 127 142 153 159 
158 150 137 120 100 81 63 47 34 24 19 14 10 7 6 4 
3 3 2 2 2 2 2 2 2 2 1 1 1 1 1 0 0 0 0 0 0 0 0 0 0 0 0 0 1 2 3 4 
6 8 11 15 20 27 36 47 62 80 99 119 139 155 166 170 
166 158 144 126 104 83 63 47 33 22 14 12 8 6 4 3 
2 2 2 1 1 1 1 1 1 1 1 1 1 1 1 0 0 0 0 0 0 0 0 0 0 0 0 0 1 2 3 4 
6 8 11 15 21 28 38 49 64 82 102 123 143 158 163 159 
150 142 133 119 100 79 59 42 29 19 11 9 6 4 3 2 
1 1 1 1 1 1 1 1 1 1 1 1 1 1 1 0 0 0 0 0 0 0 0 0 0 0 0 0 1 2 3 4 
6 8 11 15 20 27 35 48 63 80 100 120 138 145 135 108 
83 82 94 96 84 66 48 33 21 13 7 5 3 1 1 0 
0 0 0 0 0 0 0 0 0 0 1 1 1 1 1 0 0 0 0 0 0 0 0 0 0 0 0 0 1 1 2 4 
5 7 10 14 19 25 33 44 58 74 92 109 121 117 80 3 
0 0 28 59 59 46 32 20 11 5 1 0 0 0 0 0 
0 0 0 0 0 0 0 0 0 0 0 0 0 0 0 0 0 0 0 0 0 0 0 0 0 0 0 0 1 1 2 3 
5 6 9 12 17 22 28 38 50 63 77 90 96 82 24 0 
0 0 0 25 29 21 11 3 0 0 0 0 0 0 0 0 
0 0 0 0 0 0 0 0 0 0 0 0 0 0 0 0 0 0 0 0 0 0 0 0 0 0 0 0 0 1 2 3 
4 5 7 10 14 18 23 30 39 49 59 66 68 53 7 0 
0 0 0 4 0 0 0 0 0 0 0 0 0 0 0 0 
0 0 0 0 0 0 0 0 0 0 0 0 0 0 0 0 0 0 0 0 0 0 0 0 0 0 0 0 0 1 1 2 
3 4 6 8 10 14 16 22 27 33 38 40 39 29 10 0 
0 8 1 0 0 0 0 0 0 0 0 0 0 0 0 0 
0 0 0 0 0 0 0 0 0 0 0 0 0 0 0 0 0 0 0 0 0 0 0 0 0 0 0 0 0 0 1 1 
2 3 4 5 7 9 10 13 15 17 17 15 10 2 0 0 
0 0 0 0 0 0 0 0 0 0 0 0 0 0 0 0 
0 0 0 0 0 0 0 0 0 0 0 0 0 0 0 0 0 0 0 0 0 0 0 0 0 0 0 0 0 0 0 0 
1 1 2 3 4 5 4 4 4 3 0 0 0 0 0 0 
0 0 0 0 0 0 0 0 0 0 0 0 0 0 0 0 
0 0 0 0 0 0 0 0 0 0 0 0 0 0 0 0 0 0 0 0 0 0 0 0 0 0 0 0 0 0 0 0 
0 0 0 1 1 0 0 0 0 0 0 0 0 0 0 0 
0 0 0 0 0 0 0 0 0 0 0 0 0 0 0 0 
0 0 0 0 0 0 0 0 0 0 0 0 0 0 0 0 0 0 0 0 0 0 0 0 0 0 0 0 0 0 0 0 
0 0 0 0 0 0 0 0 0 0 0 0 0 0 0 0 
0 0 0 0 0 0 0 0 0 0 0 0 0 0 0 0 
0 0 0 0 0 0 0 0 0 0 0 0 0 0 0 0 0 0 0 0 0 0 0 0 0 0 0 0 0 0 0 0 
0 0 0 0 0 0 0 0 0 0 0 0 0 0 0 0 
0 0 0 0 0 0 0 0 0 0 0 0 0 0 0 0 
0 0 0 0 0 0 0 0 0 0 0 0 0 0 0 0 0 0 0 0 0 0 0 0 0 0 0 0 0 0 0 0 
0 0 0 0 0 0 0 0 0 0 0 0 0 0 0 0 
0 0 0 0 0 0 0 0 0 0 0 0 0 0 0 0 
0 0 0 0 0 0 0 0 0 0 0 0 0 0 0 0 0 0 0 0 0 0 0 0 0 0 0 0 0 0 0 0 
0 0 0 0 0 0 0 0 0 0 0 0 0 0 0 0 
0 0 0 0 0 0 0 0 0 0 0 0 0 0 0 0 
0 0 0 0 0 0 0 0 0 0 0 0 0 0 0 0 0 0 0 0 0 0 0 0 0 0 0 0 0 0 0 0 
0 0 0 0 0 0 0 0 0 0 0 0 0 0 0 0 
0 0 0 0 0 0 0 0 0 0 0 0 0 0 0 0 
0 0 0 0 0 0 0 0 0 0 0 0 0 0 0 0 0 0 0 0 0 0 0 0 0 0 0 0 0 0 0 0 
0 0 0 0 0 0 0 0 0 0 0 0 0 0 0 0 
0 0 0 0 0 0 0 0 0 0 0 0 0 0 0 0 
0 0 0 0 0 0 0 0 0 0 0 0 0 0 0 