P2
# Created by IrfanView
64 64
255
0 0 0 0 0 0 0 0 0 0 0 0 0 0 0 0 0 
0 0 0 0 0 0 0 0 0 0 0 0 0 0 0 0 
0 0 0 0 0 0 0 0 0 0 0 0 0 0 0 0 
0 0 0 0 0 0 0 0 0 0 0 0 0 0 0 0 0 0 0 0 0 0 0 0 0 0 0 0 0 0 0 0 
0 0 0 0 0 0 0 0 0 0 0 0 0 0 0 0 
0 0 0 0 0 0 0 0 0 0 0 0 0 0 0 0 
0 0 0 0 0 0 0 0 0 0 0 0 0 0 0 0 0 0 0 0 0 0 0 0 0 0 0 0 0 0 0 0 
0 0 0 0 0 0 0 0 0 0 0 0 0 0 0 0 
0 0 0 0 0 0 0 0 0 0 0 0 0 0 0 0 
0 0 0 0 0 0 0 0 0 0 0 0 0 0 0 0 0 0 0 0 0 0 0 0 0 0 0 0 0 0 0 0 
0 0 0 0 0 0 1 1 1 1 1 1 1 0 0 0 
0 0 0 0 0 0 0 0 0 0 0 0 0 0 0 0 
0 0 0 0 0 0 0 0 0 0 0 0 0 0 0 0 0 0 0 0 0 0 0 0 0 0 0 0 0 0 0 0 
0 0 0 1 1 1 1 1 1 1 1 1 0 0 0 0 
0 0 0 0 0 0 0 0 0 0 0 0 0 0 0 0 
0 0 0 0 0 0 0 0 0 0 0 0 0 0 0 0 0 0 0 0 0 0 0 0 0 0 0 0 0 0 0 0 
1 1 1 1 1 1 1 1 1 1 1 1 0 0 0 0 
0 0 0 0 0 0 0 0 0 0 0 0 0 0 0 0 
0 0 0 0 0 0 0 0 0 0 0 0 0 0 0 0 0 0 0 0 0 0 0 0 0 0 0 0 0 0 1 1 
1 2 2 2 2 2 2 1 1 1 1 0 0 0 0 0 
0 0 0 0 0 0 0 0 0 0 0 0 0 0 0 0 
0 0 0 0 0 0 0 0 0 0 0 0 0 0 0 0 0 0 0 0 0 0 0 0 0 0 0 1 1 1 2 2 
2 2 2 2 2 2 2 1 1 1 0 0 0 0 0 0 
0 0 0 0 0 0 0 0 0 0 0 0 0 0 0 0 
0 0 0 0 0 0 0 0 0 0 0 0 0 0 0 0 0 0 0 0 0 0 0 0 0 1 1 2 2 3 3 3 
3 3 3 3 3 2 2 1 1 0 0 0 0 0 0 0 
0 0 0 0 0 0 0 0 0 0 0 0 0 0 0 0 
0 0 0 0 0 0 0 0 0 0 0 0 0 0 0 0 0 0 0 0 0 0 1 1 2 2 3 3 3 4 4 4 
4 4 4 3 3 2 1 1 0 0 0 0 0 0 0 0 
0 0 0 0 0 0 0 0 0 0 0 0 0 0 0 0 
0 0 0 0 0 0 0 0 0 0 0 0 0 0 0 0 0 0 1 1 1 2 2 3 3 3 4 4 5 5 5 5 
5 5 4 4 3 2 1 0 0 0 0 0 0 0 0 0 
0 0 0 0 0 0 0 0 0 0 0 0 0 0 0 0 
1 1 1 1 1 1 1 0 0 0 0 0 0 0 0 1 1 1 2 2 3 3 3 4 4 5 5 6 6 6 6 6 
6 5 5 4 3 1 0 0 0 0 0 0 0 0 0 0 
0 0 0 0 0 0 0 0 0 0 0 0 0 0 0 0 
1 1 1 1 1 1 1 1 1 0 0 0 0 0 0 2 2 2 3 3 4 4 5 5 6 6 7 7 7 7 7 7 
7 6 5 4 2 0 0 0 0 0 0 0 0 0 0 0 
0 0 0 0 0 0 0 0 0 0 0 0 0 0 0 0 
1 1 1 2 2 2 1 1 1 1 0 0 0 0 0 3 3 3 4 4 5 5 6 6 7 7 8 8 8 8 8 8 
7 6 5 3 1 0 0 0 0 0 0 0 0 0 0 0 
0 0 0 0 0 0 0 0 0 0 0 0 0 0 0 0 
1 1 2 2 2 2 2 2 1 1 0 0 0 0 0 3 4 4 5 5 6 7 7 8 8 9 9 9 9 9 9 8 
7 6 4 2 0 0 0 0 0 0 0 0 0 0 0 0 
0 0 0 0 0 0 0 0 0 0 0 0 0 0 0 0 
1 1 2 2 2 2 2 2 2 1 1 0 0 0 0 4 5 5 6 6 7 7 8 9 9 10 10 10 10 10 10 9 
8 6 4 1 0 0 0 0 0 0 0 0 0 0 0 0 
0 0 0 0 0 0 0 0 0 0 0 0 0 0 0 0 
1 1 2 2 3 3 2 2 2 1 1 0 0 0 0 5 5 6 7 7 8 8 9 10 10 11 11 11 11 11 10 9 
8 6 3 0 0 0 0 0 0 0 0 0 0 0 0 0 
0 0 0 0 0 0 0 0 0 0 0 0 0 0 0 0 
0 1 2 3 3 3 3 2 2 1 1 0 0 0 0 5 6 7 7 8 9 9 10 10 11 11 12 12 12 11 11 9 
8 5 2 0 0 0 0 0 0 0 0 0 0 0 0 0 
0 0 0 0 0 0 0 0 0 0 0 0 0 0 0 0 
0 1 2 3 3 3 3 3 2 2 1 0 0 0 0 6 6 7 8 8 9 10 10 11 12 12 12 12 12 12 11 9 
7 4 1 0 0 0 0 0 0 0 0 0 0 0 0 0 
0 0 0 0 0 0 0 0 0 0 0 0 0 0 0 0 
0 1 2 3 3 3 3 3 2 2 1 0 0 0 0 6 7 7 8 9 9 10 11 12 12 13 13 13 13 12 11 9 
7 3 0 0 0 0 0 0 0 0 0 0 0 0 0 0 
0 0 0 0 0 0 0 0 0 0 0 0 0 0 0 0 
0 1 2 3 3 3 3 3 2 2 1 0 0 0 0 6 7 8 8 9 10 11 11 12 12 13 13 13 13 12 11 9 
6 3 0 0 0 0 0 0 0 0 0 0 0 0 0 0 
0 0 0 0 0 0 0 0 0 0 0 0 0 0 0 0 
0 0 2 3 3 3 3 3 2 2 1 0 0 0 0 6 7 8 9 9 10 11 11 12 13 13 13 13 13 12 10 8 
5 2 0 0 0 0 0 0 0 0 0 0 0 0 0 0 
0 0 0 0 0 0 0 0 0 0 0 0 0 0 0 0 
0 0 1 2 3 3 3 3 2 2 1 0 0 0 0 6 7 8 9 9 10 11 11 12 12 13 13 13 12 11 10 8 
5 1 0 0 0 0 0 0 0 0 0 0 0 0 0 0 
0 0 0 0 0 0 0 0 0 0 0 0 0 0 0 0 
0 0 1 2 3 3 3 3 2 2 1 0 0 0 0 6 7 8 8 9 10 11 11 12 12 13 13 13 12 11 10 7 
4 0 0 0 0 0 0 0 0 0 0 0 0 0 0 0 
0 0 0 0 0 0 0 0 0 0 0 0 0 0 0 0 
0 0 1 2 3 3 3 2 2 1 1 0 0 0 0 6 7 8 8 9 10 10 11 12 12 12 12 12 12 11 9 7 
4 0 0 0 0 0 0 0 0 0 0 0 0 0 0 0 
0 0 0 0 0 0 0 0 0 0 0 0 0 0 0 0 
0 0 1 2 2 3 3 2 2 1 1 0 0 0 0 6 7 7 8 9 9 10 11 11 12 12 12 12 11 10 9 6 
3 0 0 0 0 0 0 0 0 0 0 0 0 0 0 0 
0 0 0 0 0 0 0 0 0 0 0 0 0 0 0 0 
0 0 1 2 2 2 2 2 2 1 1 0 0 0 0 6 7 7 8 8 9 10 10 11 11 11 11 11 11 10 8 6 
3 0 0 0 0 0 0 0 0 0 0 0 0 0 0 0 
0 0 0 0 0 0 0 0 0 0 0 0 0 0 0 0 
0 0 1 1 2 2 2 2 2 1 1 0 0 0 0 6 6 7 8 8 9 9 10 10 11 11 11 11 10 9 8 6 
3 0 0 0 0 0 0 0 0 0 0 0 0 0 0 0 
0 0 0 0 0 0 0 0 0 0 0 0 0 0 0 0 
0 0 0 1 2 2 2 2 1 1 0 0 0 0 0 5 6 7 7 8 8 9 9 10 10 10 10 10 10 9 7 5 
3 0 0 0 0 0 0 0 0 0 0 0 0 0 0 0 
0 0 0 0 0 0 0 0 0 0 0 0 0 0 0 0 
0 0 0 1 2 2 2 2 1 1 0 0 0 0 0 5 6 6 7 7 8 8 9 9 10 10 10 10 9 8 7 5 
3 0 0 0 0 0 0 0 0 0 0 0 0 0 0 0 
0 0 0 0 0 0 0 0 0 0 0 0 0 0 0 0 
0 0 0 1 1 1 2 1 1 1 0 0 0 0 0 5 5 6 6 7 7 8 8 9 9 9 9 9 9 8 7 5 
3 0 0 0 0 0 0 0 0 0 0 0 0 0 0 0 
0 0 0 0 0 0 0 0 0 0 0 0 0 0 0 0 
0 0 0 1 1 1 1 1 1 1 0 0 0 0 0 5 5 6 6 7 7 7 8 8 9 9 9 9 8 7 6 5 
3 1 0 0 0 0 0 0 0 0 0 0 0 0 0 0 
0 0 0 0 0 0 0 0 0 0 0 0 0 0 0 0 
0 0 0 1 1 1 1 1 1 0 0 0 0 0 0 4 5 5 6 6 7 7 7 8 8 8 8 8 8 7 6 5 
4 2 0 0 0 0 0 0 0 0 0 0 0 0 0 0 
0 0 0 0 0 0 0 0 0 0 0 0 0 0 0 0 
0 0 0 0 1 1 1 1 1 0 0 0 0 0 0 4 5 5 5 6 6 7 7 7 8 8 8 8 7 7 6 5 
4 2 0 0 0 0 0 0 0 0 0 0 0 0 0 0 
0 0 0 0 0 0 0 0 0 0 0 0 0 0 0 0 
0 0 0 0 1 1 1 1 0 0 0 0 0 0 0 4 4 5 5 5 6 6 7 7 7 7 7 7 7 7 6 5 
4 3 2 0 0 0 0 0 0 0 0 0 0 0 0 0 
0 0 0 0 0 0 0 0 0 0 0 0 0 0 0 0 
0 0 0 0 0 1 1 0 0 0 0 0 0 0 0 4 4 4 5 5 5 6 6 6 7 7 7 7 7 7 6 6 
5 4 3 2 1 0 0 0 0 0 0 0 0 0 0 0 
0 0 0 0 0 0 0 0 0 0 0 0 0 0 0 0 
0 0 0 0 0 0 0 0 0 0 0 0 0 0 0 3 4 4 4 5 5 5 6 6 6 6 7 7 7 6 6 6 
5 5 4 3 3 2 2 1 1 1 1 1 1 1 0 0 
0 0 0 0 0 0 0 0 0 0 0 0 0 0 0 0 
0 0 0 0 0 0 0 0 0 0 0 0 0 0 0 3 3 4 4 4 5 5 5 6 6 6 6 6 6 6 6 6 
6 6 5 5 5 5 5 5 6 6 7 8 9 9 9 9 
8 7 5 3 2 0 0 0 0 0 0 0 0 0 0 0 
0 0 0 0 0 0 0 0 0 0 0 0 0 0 0 3 3 3 4 4 4 5 5 5 5 6 6 6 6 6 6 6 
6 6 6 7 7 8 8 9 10 12 13 15 16 17 17 17 
16 14 12 10 8 6 4 3 2 1 0 0 0 0 0 0 
0 0 0 0 0 0 0 0 0 0 0 0 0 0 0 3 3 3 3 4 4 4 5 5 5 5 5 6 6 6 6 6 
7 7 7 8 9 10 11 13 15 17 19 22 23 25 25 25 
24 22 20 17 14 11 9 7 5 4 2 2 1 1 0 0 
0 0 0 0 0 0 0 0 0 0 0 0 0 0 0 2 3 3 3 3 4 4 4 5 5 5 5 5 6 6 6 7 
7 8 9 10 11 13 15 17 20 23 26 29 31 33 34 34 
32 30 27 24 20 17 14 11 8 6 5 3 2 2 1 1 
1 0 0 0 0 0 0 0 0 0 0 0 0 0 0 2 2 3 3 3 3 4 4 4 4 5 5 5 5 6 6 7 
7 8 9 11 13 15 18 21 25 29 33 37 41 43 44 44 
42 40 36 32 27 23 19 15 12 9 7 5 4 3 2 1 
1 1 0 0 0 0 0 0 0 0 0 0 0 0 0 2 2 2 3 3 3 3 4 4 4 4 4 5 5 5 6 7 
8 9 10 12 15 18 22 26 31 37 42 48 53 56 57 57 
55 51 46 41 35 29 24 19 15 12 9 7 5 4 3 2 
1 1 0 0 0 0 0 0 0 0 0 0 0 0 0 2 2 2 2 3 3 3 3 3 4 4 4 4 5 5 6 7 
8 9 11 13 16 20 25 31 38 46 52 59 66 71 73 73 
71 66 59 52 44 37 30 24 19 15 11 9 6 5 3 2 
1 1 0 0 0 0 0 0 0 0 0 0 0 0 0 2 2 2 2 2 2 3 3 3 3 3 4 4 4 5 5 6 
7 9 11 14 18 23 29 37 43 54 65 75 84 90 94 94 
90 84 75 66 55 46 37 29 23 18 14 10 8 6 4 3 
2 1 1 0 0 0 0 0 0 0 0 0 0 0 0 1 2 2 2 2 2 2 2 3 3 3 3 3 4 4 5 6 
7 9 11 15 19 25 33 40 52 65 78 91 103 111 116 116 
112 104 93 81 68 55 44 35 27 21 16 12 9 7 5 3 
2 1 1 0 0 0 0 0 0 0 0 0 0 0 0 1 1 1 2 2 2 2 2 2 2 2 3 3 3 4 4 5 
7 8 11 15 20 27 33 45 59 74 91 107 121 132 138 139 
134 124 111 96 80 65 51 40 31 24 18 13 10 7 5 4 
2 1 1 0 0 0 0 0 0 0 0 0 0 0 0 1 1 1 1 1 1 2 2 2 2 2 2 2 2 3 3 4 
6 7 10 14 19 24 34 47 63 81 100 120 137 150 158 159 
153 142 127 109 91 73 57 45 34 26 19 14 11 8 6 4 
3 2 1 0 0 0 0 0 0 0 0 0 0 0 0 1 1 1 1 1 1 1 1 1 1 1 1 1 2 2 2 3 
4 6 8 12 14 22 33 47 63 83 104 126 144 158 166 170 
166 155 139 119 99 80 62 47 36 27 20 15 11 8 6 4 
3 2 1 0 0 0 0 0 0 0 0 0 0 0 0 1 1 1 1 1 1 1 1 1 1 1 1 1 1 1 1 2 
3 4 6 9 11 19 29 42 59 79 100 119 133 142 150 159 
163 158 143 123 102 82 64 49 38 28 21 15 11 8 6 4 
3 2 1 0 0 0 0 0 0 0 0 0 0 0 0 1 1 1 1 1 1 0 0 0 0 0 0 0 0 0 0 0 
1 1 3 5 7 13 21 33 48 66 84 96 94 82 83 108 
135 145 138 120 100 80 63 48 35 27 20 15 11 8 6 4 
3 2 1 0 0 0 0 0 0 0 0 0 0 0 0 0 0 0 0 0 0 0 0 0 0 0 0 0 0 0 0 0 
0 0 0 0 1 5 11 20 32 46 59 59 28 0 0 3 
80 117 121 109 92 74 58 44 33 25 19 14 10 7 5 4 
2 1 1 0 0 0 0 0 0 0 0 0 0 0 0 0 0 0 0 0 0 0 0 0 0 0 0 0 0 0 0 0 
0 0 0 0 0 0 0 3 11 21 29 25 0 0 0 0 
24 82 96 90 77 63 50 38 28 22 17 12 9 6 5 3 
2 1 1 0 0 0 0 0 0 0 0 0 0 0 0 0 0 0 0 0 0 0 0 0 0 0 0 0 0 0 0 0 
0 0 0 0 0 0 0 0 0 0 0 4 0 0 0 0 
7 53 68 66 59 49 39 30 23 18 14 10 7 5 4 3 
2 1 0 0 0 0 0 0 0 0 0 0 0 0 0 0 0 0 0 0 0 0 0 0 0 0 0 0 0 0 0 0 
0 0 0 0 0 0 0 0 0 0 0 0 1 8 0 0 
10 29 39 41 38 33 27 22 16 14 10 8 6 4 3 2 
1 1 0 0 0 0 0 0 0 0 0 0 0 0 0 0 0 0 0 0 0 0 0 0 0 0 0 0 0 0 0 0 
0 0 0 0 0 0 0 0 0 0 0 0 0 0 0 0 
0 2 10 15 17 17 15 13 10 9 7 5 4 3 2 1 
1 0 0 0 0 0 0 0 0 0 0 0 0 0 0 0 0 0 0 0 0 0 0 0 0 0 0 0 0 0 0 0 
0 0 0 0 0 0 0 0 0 0 0 0 0 0 0 0 
0 0 0 0 0 3 4 4 4 5 4 3 2 1 1 0 
0 0 0 0 0 0 0 0 0 0 0 0 0 0 0 0 0 0 0 0 0 0 0 0 0 0 0 0 0 0 0 0 
0 0 0 0 0 0 0 0 0 0 0 0 0 0 0 0 
0 0 0 0 0 0 0 0 0 0 1 1 0 0 0 0 
0 0 0 0 0 0 0 0 0 0 0 0 0 0 0 0 0 0 0 0 0 0 0 0 0 0 0 0 0 0 0 0 
0 0 0 0 0 0 0 0 0 0 0 0 0 0 0 0 
0 0 0 0 0 0 0 0 0 0 0 0 0 0 0 0 
0 0 0 0 0 0 0 0 0 0 0 0 0 0 0 0 0 0 0 0 0 0 0 0 0 0 0 0 0 0 0 0 
0 0 0 0 0 0 0 0 0 0 0 0 0 0 0 0 
0 0 0 0 0 0 0 0 0 0 0 0 0 0 0 0 
0 0 0 0 0 0 0 0 0 0 0 0 0 0 0 0 0 0 0 0 0 0 0 0 0 0 0 0 0 0 0 0 
0 0 0 0 0 0 0 0 0 0 0 0 0 0 0 0 
0 0 0 0 0 0 0 0 0 0 0 0 0 0 0 0 
0 0 0 0 0 0 0 0 0 0 0 0 0 0 0 0 0 0 0 0 0 0 0 0 0 0 0 0 0 0 0 0 
0 0 0 0 0 0 0 0 0 0 0 0 0 0 0 0 
0 0 0 0 0 0 0 0 0 0 0 0 0 0 0 0 
0 0 0 0 0 0 0 0 0 0 0 0 0 0 0 0 0 0 0 0 0 0 0 0 0 0 0 0 0 0 0 0 
0 0 0 0 0 0 0 0 0 0 0 0 0 0 0 0 
0 0 0 0 0 0 0 0 0 0 0 0 0 0 0 0 
0 0 0 0 0 0 0 0 0 0 0 0 0 0 0 0 0 0 0 0 0 0 0 0 0 0 0 0 0 0 0 0 
0 0 0 0 0 0 0 0 0 0 0 0 0 0 0 0 
0 0 0 0 0 0 0 0 0 0 0 0 0 0 0 0 
0 0 0 0 0 0 0 0 0 0 0 0 0 0 0 